<svg class="main-svg" xmlns="http://www.w3.org/2000/svg" xmlns:xlink="http://www.w3.org/1999/xlink" width="1500" height="1200" style="" viewBox="0 0 1000 800"><rect x="0" y="0" width="1000" height="800" style="fill: rgb(255, 255, 255); fill-opacity: 1;"/><defs id="defs-ddd7f1"><g class="clips"/><g class="gradients"/><g class="patterns"/></defs><g class="bglayer"/><g class="layer-below"><g class="imagelayer"/><g class="shapelayer"/></g><g class="cartesianlayer"/><g class="polarlayer"/><g class="smithlayer"/><g class="ternarylayer"/><g class="geolayer"/><g class="funnelarealayer"/><g class="pielayer"/><g class="iciclelayer"/><g class="treemaplayer"/><g class="sunburstlayer"><g class="trace sunburst" stroke-linejoin="round" style="opacity: 1;"><g class="slice"><path class="surface" d="M500,400A0,0 0,1,0 500,400A0,0 0,1,0 500,400ZM580,400A80,80 0,1,1 420,400A80,80 0,1,1 580,400Z" style="pointer-events: all; stroke-width: 1; fill: rgb(0, 0, 0); fill-opacity: 0; stroke: rgb(255, 255, 255); stroke-opacity: 1;"/><g class="slicetext"><text data-notex="1" class="slicetext" text-anchor="middle" x="0" y="0" style="font-family: verdana; font-size: 18px; fill: rgb(0, 0, 0); fill-opacity: 1; white-space: pre;" transform="translate(500,395.296875)"><tspan class="line" dy="0em" x="0" y="0">ArchiveII</tspan><tspan class="line" dy="1.3em" x="0" y="0">(3,975)</tspan></text></g></g><g class="slice cursor-pointer"><path class="surface" d="M580,400L660,400A160,160 0,0,0 429.36851886896517,256.434008646768L464.68425943448256,328.217004323384A80,80 0,0,1 580,400Z" style="pointer-events: all; stroke-width: 1; fill: rgb(99, 110, 250); fill-opacity: 1; stroke: rgb(255, 255, 255); stroke-opacity: 1;"/><g class="slicetext"><text data-notex="1" class="slicetext" text-anchor="middle" x="0" y="0" style="font-family: verdana; font-size: 18px; fill: rgb(255, 255, 255); fill-opacity: 1; white-space: pre;" transform="translate(563.0722050042687,305.12548576362894)">5S rRNA</text></g></g><g class="slice cursor-pointer"><path class="surface" d="M464.68425943448256,328.217004323384L429.36851886896517,256.434008646768A160,160 0,0,0 349.8811814190926,455.3564838828535L424.9405907095463,427.6782419414268A80,80 0,0,1 464.68425943448256,328.217004323384Z" style="pointer-events: all; stroke-width: 1; fill: rgb(239, 85, 59); fill-opacity: 1; stroke: rgb(255, 255, 255); stroke-opacity: 1;"/><g class="slicetext"><text data-notex="1" class="slicetext" text-anchor="middle" x="0" y="0" style="font-family: verdana; font-size: 18px; fill: rgb(68, 68, 68); fill-opacity: 1; white-space: pre;" transform="translate(388.49671901441013,362.4725530207544)">SRP</text></g></g><g class="slice cursor-pointer"><path class="surface" d="M424.9405907095463,427.6782419414268L349.8811814190926,455.3564838828535A160,160 0,0,0 447.0828888991664,550.9959580675657L473.5414444495832,475.4979790337828A80,80 0,0,1 424.9405907095463,427.6782419414268Z" style="pointer-events: all; stroke-width: 1; fill: rgb(0, 204, 150); fill-opacity: 1; stroke: rgb(255, 255, 255); stroke-opacity: 1;"/><g class="slicetext"><text data-notex="1" class="slicetext" text-anchor="middle" x="0" y="0" style="font-family: verdana; font-size: 18px; fill: rgb(68, 68, 68); fill-opacity: 1; white-space: pre;" transform="translate(415.4936024176519,492.5374114170488)">tRNA</text></g></g><g class="slice cursor-pointer"><path class="surface" d="M473.5414444495832,475.4979790337828L447.0828888991664,550.9959580675657A160,160 0,0,0 561.3023593949007,547.7904622518599L530.6511796974503,473.89523112592997A80,80 0,0,1 473.5414444495832,475.4979790337828Z" style="pointer-events: all; stroke-width: 1; fill: rgb(171, 99, 250); fill-opacity: 1; stroke: rgb(255, 255, 255); stroke-opacity: 1;"/><g class="slicetext"><text data-notex="1" class="slicetext" text-anchor="middle" x="0" y="0" style="font-family: verdana; font-size: 18px; fill: rgb(68, 68, 68); fill-opacity: 1; white-space: pre;" transform="translate(503.0226472103881,526.9527714136772)">tmRNA</text></g></g><g class="slice cursor-pointer"><path class="surface" d="M530.6511796974503,473.89523112592997L561.3023593949007,547.7904622518599A160,160 0,0,0 643.370062789584,471.0283400883811L571.6850313947921,435.51417004419056A80,80 0,0,1 530.6511796974503,473.89523112592997Z" style="pointer-events: all; stroke-width: 1; fill: rgb(255, 161, 90); fill-opacity: 1; stroke: rgb(255, 255, 255); stroke-opacity: 1;"/><g class="slicetext"><text data-notex="1" class="slicetext" text-anchor="middle" x="0" y="0" style="font-family: verdana; font-size: 18px; fill: rgb(68, 68, 68); fill-opacity: 1; white-space: pre;" transform="translate(581.8945280444323,494.638371463972)">RNaseP</text></g></g><g class="slice cursor-pointer"><path class="surface" d="M571.6850313947921,435.51417004419056L643.370062789584,471.0283400883811A160,160 0,0,0 653.4961851312894,445.1544145144296L576.7480925656447,422.5772072572148A80,80 0,0,1 571.6850313947921,435.51417004419056Z" style="pointer-events: all; stroke-width: 1; fill: rgb(25, 211, 243); fill-opacity: 1; stroke: rgb(255, 255, 255); stroke-opacity: 1;"/><g class="slicetext"><text data-notex="1" class="slicetext" text-anchor="middle" x="0" y="0" style="font-family: verdana; font-size: 18px; fill: rgb(68, 68, 68); fill-opacity: 1; white-space: pre;" transform="translate(616.1294617672785,450.8408193246439)scale(0.7172994009822704)rotate(21.37358490566038)">16S rRNA</text></g></g><g class="slice cursor-pointer"><path class="surface" d="M576.7480925656447,422.5772072572148L653.4961851312894,445.1544145144296A160,160 0,0,0 658.6249812660719,420.93120441681134L579.312490633036,410.46560220840564A80,80 0,0,1 576.7480925656447,422.5772072572148Z" style="pointer-events: all; stroke-width: 1; fill: rgb(255, 102, 146); fill-opacity: 1; stroke: rgb(255, 255, 255); stroke-opacity: 1;"/><g class="slicetext"><text data-notex="1" class="slicetext" text-anchor="middle" x="0" y="0" style="font-family: verdana; font-size: 18px; fill: rgb(68, 68, 68); fill-opacity: 1; white-space: pre;" transform="translate(629.4341605110907,432.6030229625124)scale(0.7264443687877633)rotate(11.954716981132037)">Intron I</text></g></g><g class="slice cursor-pointer"><path class="surface" d="M579.312490633036,410.46560220840564L658.6249812660719,420.93120441681134A160,160 0,0,0 659.5772342721195,411.6235236508153L579.7886171360598,405.81176182540764A80,80 0,0,1 579.312490633036,410.46560220840564Z" style="pointer-events: all; stroke-width: 1; fill: rgb(182, 232, 128); fill-opacity: 1; stroke: rgb(255, 255, 255); stroke-opacity: 1;"/><g class="slicetext"><text data-notex="1" class="slicetext" text-anchor="middle" x="0" y="0" style="font-family: verdana; font-size: 18px; fill: rgb(68, 68, 68); fill-opacity: 1; white-space: pre;" transform="translate(649.924175874551,417.89564179177995)scale(0.3634107669409898)rotate(5.841509433962244)">TERC</text></g></g><g class="slice cursor-pointer"><path class="surface" d="M579.7886171360598,405.81176182540764L659.5772342721195,411.6235236508153A160,160 0,0,0 659.9758147886707,402.7818487918871L579.9879073943354,401.39092439594356A80,80 0,0,1 579.7886171360598,405.81176182540764Z" style="pointer-events: all; stroke-width: 1; fill: rgb(255, 151, 255); fill-opacity: 1; stroke: rgb(255, 255, 255); stroke-opacity: 1;"/><g class="slicetext"><text data-notex="1" class="slicetext" text-anchor="middle" x="0" y="0" style="font-family: verdana; font-size: 18px; fill: rgb(68, 68, 68); fill-opacity: 1; white-space: pre;" transform="translate(645.0777869816313,408.7609504464411)scale(0.31694664213397883)rotate(2.5811320754717144)">23S rRNA</text></g></g><g class="slice cursor-pointer"><path class="surface" d="M579.9879073943354,401.39092439594356L659.9758147886707,402.7818487918871A160,160 0,0,0 660,400.00000000000006L580,400A80,80 0,0,1 579.9879073943354,401.39092439594356Z" style="pointer-events: all; stroke-width: 1; fill: rgb(254, 203, 82); fill-opacity: 1; stroke: rgb(255, 255, 255); stroke-opacity: 1;"/><g class="slicetext"><text data-notex="1" class="slicetext" text-anchor="middle" x="0" y="0" style="font-family: verdana; font-size: 18px; fill: rgb(68, 68, 68); fill-opacity: 1; white-space: pre;" transform="translate(655.3610379251406,402.1534947930508)scale(0.11468082281447572)rotate(0.49811320754713506)">Intron II</text></g></g><g class="slice cursor-pointer"><path class="surface" d="M660,400L740,400A240,240 0,0,0 394.0527783034478,184.65101297015207L429.36851886896517,256.434008646768A160,160 0,0,1 660,400Z" style="pointer-events: all; stroke-width: 1; fill: rgb(99, 110, 250); fill-opacity: 1; stroke: rgb(255, 255, 255); stroke-opacity: 1;"/><g class="slicetext"><text data-notex="1" class="slicetext" text-anchor="middle" x="0" y="0" style="font-family: verdana; font-size: 18px; fill: rgb(255, 255, 255); fill-opacity: 1; white-space: pre;" transform="translate(605.6932583404478,237.2091429393816)">L600</text></g></g><g class="slice cursor-pointer"><path class="surface" d="M429.36851886896517,256.434008646768L394.0527783034478,184.65101297015207A240,240 0,0,0 274.69080253027323,482.6786885209704L349.79386835351545,455.11912568064696A160,160 0,0,1 429.36851886896517,256.434008646768Z" style="pointer-events: all; stroke-width: 1; fill: rgb(239, 85, 59); fill-opacity: 1; stroke: rgb(255, 255, 255); stroke-opacity: 1;"/><g class="slicetext"><text data-notex="1" class="slicetext" text-anchor="middle" x="0" y="0" style="font-family: verdana; font-size: 18px; fill: rgb(68, 68, 68); fill-opacity: 1; white-space: pre;" transform="translate(314.33709672748836,332.64082875379813)">L600</text></g></g><g class="slice cursor-pointer"><path class="surface" d="M349.8811814190926,455.3564838828535L274.82177212863894,483.0347258242803A240,240 0,0,0 420.6243333487496,626.4939371013484L447.0828888991664,550.9959580675657A160,160 0,0,1 349.8811814190926,455.3564838828535Z" style="pointer-events: all; stroke-width: 1; fill: rgb(0, 204, 150); fill-opacity: 1; stroke: rgb(255, 255, 255); stroke-opacity: 1;"/><g class="slicetext"><text data-notex="1" class="slicetext" text-anchor="middle" x="0" y="0" style="font-family: verdana; font-size: 18px; fill: rgb(68, 68, 68); fill-opacity: 1; white-space: pre;" transform="translate(359.7289206960865,549.562352361748)">L600</text></g></g><g class="slice cursor-pointer"><path class="surface" d="M447.0828888991664,550.9959580675657L420.6243333487496,626.4939371013484A240,240 0,0,0 591.953539092351,621.6856933777899L561.3023593949007,547.7904622518599A160,160 0,0,1 447.0828888991664,550.9959580675657Z" style="pointer-events: all; stroke-width: 1; fill: rgb(171, 99, 250); fill-opacity: 1; stroke: rgb(255, 255, 255); stroke-opacity: 1;"/><g class="slicetext"><text data-notex="1" class="slicetext" text-anchor="middle" x="0" y="0" style="font-family: verdana; font-size: 18px; fill: rgb(68, 68, 68); fill-opacity: 1; white-space: pre;" transform="translate(505.6106620173135,606.9212856894619)">L600</text></g></g><g class="slice cursor-pointer"><path class="surface" d="M561.3023593949007,547.7904622518599L591.953539092351,621.6856933777899A240,240 0,0,0 715.055094184376,506.5425101325717L643.370062789584,471.0283400883811A160,160 0,0,1 561.3023593949007,547.7904622518599Z" style="pointer-events: all; stroke-width: 1; fill: rgb(255, 161, 90); fill-opacity: 1; stroke: rgb(255, 255, 255); stroke-opacity: 1;"/><g class="slicetext"><text data-notex="1" class="slicetext" text-anchor="middle" x="0" y="0" style="font-family: verdana; font-size: 18px; fill: rgb(68, 68, 68); fill-opacity: 1; white-space: pre;" transform="translate(636.621088407387,553.0639524399533)">L600</text></g></g><g class="slice cursor-pointer"><path class="surface" d="M643.370062789584,471.0283400883811L715.055094184376,506.5425101325717A240,240 0,0,0 726.8987149590112,478.21108073635975L651.2658099726741,452.1407204909065A160,160 0,0,1 643.370062789584,471.0283400883811Z" style="pointer-events: all; stroke-width: 1; fill: rgb(25, 211, 243); fill-opacity: 1; stroke: rgb(255, 255, 255); stroke-opacity: 1;"/><g class="slicetext"><text data-notex="1" class="slicetext" text-anchor="middle" x="0" y="0" style="font-family: verdana; font-size: 18px; fill: rgb(68, 68, 68); fill-opacity: 1; white-space: pre;" transform="translate(695.7250230521058,489.40757461931076)rotate(22.68679245283022)">L600</text></g></g><g class="slice cursor-pointer"><path class="surface" d="M653.4961851312894,445.1544145144296L730.2442776969341,467.73162177164437A240,240 0,0,0 737.4114867812078,435.1537472303646L658.2743245208053,423.4358314869097A160,160 0,0,1 653.4961851312894,445.1544145144296Z" style="pointer-events: all; stroke-width: 1; fill: rgb(255, 102, 146); fill-opacity: 1; stroke: rgb(255, 255, 255); stroke-opacity: 1;"/><g class="slicetext"><text data-notex="1" class="slicetext" text-anchor="middle" x="0" y="0" style="font-family: verdana; font-size: 18px; fill: rgb(68, 68, 68); fill-opacity: 1; white-space: pre;" transform="translate(706.8729073436618,452.6799285272102)rotate(12.407547169811266)">L600</text></g></g><g class="slice cursor-pointer"><path class="surface" d="M658.6249812660719,420.93120441681134L737.9374718991078,431.396806625217A240,240 0,0,0 739.3658514081794,417.43528547622293L659.5772342721195,411.6235236508153A160,160 0,0,1 658.6249812660719,420.93120441681134Z" style="pointer-events: all; stroke-width: 1; fill: rgb(182, 232, 128); fill-opacity: 1; stroke: rgb(255, 255, 255); stroke-opacity: 1;"/><g class="slicetext"><text data-notex="1" class="slicetext" text-anchor="middle" x="0" y="0" style="font-family: verdana; font-size: 18px; fill: rgb(68, 68, 68); fill-opacity: 1; white-space: pre;" transform="translate(725.680247046853,427.0039465576893)scale(0.5563791865572734)rotate(5.841509433962244)">L600</text></g></g><g class="slice cursor-pointer"><path class="surface" d="M659.5772342721195,411.6235236508153L739.3658514081794,417.43528547622293A240,240 0,0,0 739.8126342448572,409.4815851281483L659.8750894965715,406.32105675209885A160,160 0,0,1 659.5772342721195,411.6235236508153Z" style="pointer-events: all; stroke-width: 1; fill: rgb(255, 151, 255); fill-opacity: 1; stroke: rgb(255, 255, 255); stroke-opacity: 1;"/><g class="slicetext"><text data-notex="1" class="slicetext" text-anchor="middle" x="0" y="0" style="font-family: verdana; font-size: 18px; fill: rgb(68, 68, 68); fill-opacity: 1; white-space: pre;" transform="translate(731.945148245335,415.348982143135)scale(0.3308980970546536)rotate(3.215094339622624)">L600</text></g></g><g class="slice cursor-pointer"><path class="surface" d="M659.9758147886707,402.7818487918871L739.9637221830061,404.17277318783067A240,240 0,0,0 739.9637221830061,404.17277318783067L659.9758147886707,402.7818487918871A160,160 0,0,1 659.9758147886707,402.7818487918871Z" style="pointer-events: all; stroke-width: 1; fill: rgb(254, 203, 82); fill-opacity: 1; stroke: rgb(255, 255, 255); stroke-opacity: 1;"/><g class="slicetext"><text data-notex="1" class="slicetext" text-anchor="middle" x="0" y="0" style="font-family: verdana; font-size: 18px; fill: rgb(68, 68, 68); fill-opacity: 1; white-space: pre;" transform="translate(500,200.00000000000003)scale(0)">L600</text></g></g><g class="slice cursor-pointer"><path class="surface" d="M740,400L820,400A320,320 0,0,0 423.23955322085914,89.34289995194592L442.42966491564437,167.00717496395944A240,240 0,0,1 740,400Z" style="pointer-events: all; stroke-width: 1; fill: rgb(99, 110, 250); fill-opacity: 1; stroke: rgb(255, 255, 255); stroke-opacity: 1;"/><g class="slicetext"><text data-notex="1" class="slicetext" text-anchor="middle" x="0" y="0" style="font-family: verdana; font-size: 18px; fill: rgb(255, 255, 255); fill-opacity: 1; white-space: pre;" transform="translate(672.6176273430823,186.53876819167328)">NR100</text></g></g><g class="slice cursor-pointer"><path class="surface" d="M394.0527783034478,184.65101297015207L358.73703773793034,112.86801729353607A320,320 0,0,0 180.00489711648407,398.2296524160336L260.00367283736307,398.6722393120252A240,240 0,0,1 394.0527783034478,184.65101297015207Z" style="pointer-events: all; stroke-width: 1; fill: rgb(239, 85, 59); fill-opacity: 1; stroke: rgb(255, 255, 255); stroke-opacity: 1;"/><g class="slicetext"><text data-notex="1" class="slicetext" text-anchor="middle" x="0" y="0" style="font-family: verdana; font-size: 18px; fill: rgb(68, 68, 68); fill-opacity: 1; white-space: pre;" transform="translate(262.70302256767786,258.37246385180174)">NR100</text></g></g><g class="slice cursor-pointer"><path class="surface" d="M274.82177212863894,483.0347258242803L199.7623628381853,510.71296776570705A320,320 0,0,0 363.7506266991767,689.5446567891262L397.8129700243825,617.1584925918446A240,240 0,0,1 274.82177212863894,483.0347258242803Z" style="pointer-events: all; stroke-width: 1; fill: rgb(0, 204, 150); fill-opacity: 1; stroke: rgb(255, 255, 255); stroke-opacity: 1;"/><g class="slicetext"><text data-notex="1" class="slicetext" text-anchor="middle" x="0" y="0" style="font-family: verdana; font-size: 18px; fill: rgb(68, 68, 68); fill-opacity: 1; white-space: pre;" transform="translate(293.6308821081918,596.2400253132432)">NR100</text></g></g><g class="slice cursor-pointer"><path class="surface" d="M420.6243333487496,626.4939371013484L394.1657777983328,701.9919161351312A320,320 0,0,0 595.0291565111933,705.5641657864533L571.2718673833949,629.17312433984A240,240 0,0,1 420.6243333487496,626.4939371013484Z" style="pointer-events: all; stroke-width: 1; fill: rgb(171, 99, 250); fill-opacity: 1; stroke: rgb(255, 255, 255); stroke-opacity: 1;"/><g class="slicetext"><text data-notex="1" class="slicetext" text-anchor="middle" x="0" y="0" style="font-family: verdana; font-size: 18px; fill: rgb(68, 68, 68); fill-opacity: 1; white-space: pre;" transform="translate(495.0211344339319,686.9557302461856)">NR100</text></g></g><g class="slice cursor-pointer"><path class="surface" d="M591.953539092351,621.6856933777899L622.6047187898013,695.5809245037199A320,320 0,0,0 780.9040931363473,553.2739066483473L710.6780698522605,514.9554299862605A240,240 0,0,1 591.953539092351,621.6856933777899Z" style="pointer-events: all; stroke-width: 1; fill: rgb(255, 161, 90); fill-opacity: 1; stroke: rgb(255, 255, 255); stroke-opacity: 1;"/><g class="slicetext"><text data-notex="1" class="slicetext" text-anchor="middle" x="0" y="0" style="font-family: verdana; font-size: 18px; fill: rgb(68, 68, 68); fill-opacity: 1; white-space: pre;" transform="translate(687.1920573632838,615.228561105582)">NR100</text></g></g><g class="slice cursor-pointer"><path class="surface" d="M715.055094184376,506.5425101325717L786.7401255791681,542.0566801767623A320,320 0,0,0 802.5316199453482,504.281440981813L726.8987149590112,478.21108073635975A240,240 0,0,1 715.055094184376,506.5425101325717Z" style="pointer-events: all; stroke-width: 1; fill: rgb(25, 211, 243); fill-opacity: 1; stroke: rgb(255, 255, 255); stroke-opacity: 1;"/><g class="slicetext"><text data-notex="1" class="slicetext" text-anchor="middle" x="0" y="0" style="font-family: verdana; font-size: 18px; fill: rgb(68, 68, 68); fill-opacity: 1; white-space: pre;" transform="translate(755.4835778549502,514.388935468678)rotate(22.68679245283022)">NR100</text></g></g><g class="slice cursor-pointer"><path class="surface" d="M730.2442776969341,467.73162177164437L806.9923702625788,490.3088290288592A320,320 0,0,0 816.1683221423406,449.3719766031011L737.1262416067555,437.0289824523258A240,240 0,0,1 730.2442776969341,467.73162177164437Z" style="pointer-events: all; stroke-width: 1; fill: rgb(255, 102, 146); fill-opacity: 1; stroke: rgb(255, 255, 255); stroke-opacity: 1;"/><g class="slicetext"><text data-notex="1" class="slicetext" text-anchor="middle" x="0" y="0" style="font-family: verdana; font-size: 18px; fill: rgb(68, 68, 68); fill-opacity: 1; white-space: pre;" transform="translate(771.5284876456391,468.03651599028086)rotate(12.633962264150966)">NR100</text></g></g><g class="slice cursor-pointer"><path class="surface" d="M737.9374718991078,431.396806625217L817.2499625321439,441.8624088336227A320,320 0,0,0 819.1544685442391,423.2470473016306L739.3658514081794,417.43528547622293A240,240 0,0,1 737.9374718991078,431.396806625217Z" style="pointer-events: all; stroke-width: 1; fill: rgb(182, 232, 128); fill-opacity: 1; stroke: rgb(255, 255, 255); stroke-opacity: 1;"/><g class="slicetext"><text data-notex="1" class="slicetext" text-anchor="middle" x="0" y="0" style="font-family: verdana; font-size: 18px; fill: rgb(68, 68, 68); fill-opacity: 1; white-space: pre;" transform="translate(795.7323181916679,435.31756425874306)scale(0.7193441471000975)rotate(5.841509433962244)">NR100</text></g></g><g class="slice cursor-pointer"><path class="surface" d="M739.3658514081794,417.43528547622293L819.1544685442391,423.2470473016306A320,320 0,0,0 819.750178993143,412.6421135041977L739.8126342448572,409.4815851281483A240,240 0,0,1 739.3658514081794,417.43528547622293Z" style="pointer-events: all; stroke-width: 1; fill: rgb(255, 151, 255); fill-opacity: 1; stroke: rgb(255, 255, 255); stroke-opacity: 1;"/><g class="slicetext"><text data-notex="1" class="slicetext" text-anchor="middle" x="0" y="0" style="font-family: verdana; font-size: 18px; fill: rgb(68, 68, 68); fill-opacity: 1; white-space: pre;" transform="translate(805.964604103112,420.23140924665825)scale(0.4342402797063629)rotate(3.215094339622624)">NR100</text></g></g><g class="slice cursor-pointer"><path class="surface" d="M739.9637221830061,404.17277318783067L819.9516295773415,405.56369758377417A320,320 0,0,0 819.9516295773415,405.56369758377417L739.9637221830061,404.17277318783067A240,240 0,0,1 739.9637221830061,404.17277318783067Z" style="pointer-events: all; stroke-width: 1; fill: rgb(254, 203, 82); fill-opacity: 1; stroke: rgb(255, 255, 255); stroke-opacity: 1;"/><g class="slicetext"><text data-notex="1" class="slicetext" text-anchor="middle" x="0" y="0" style="font-family: verdana; font-size: 18px; fill: rgb(68, 68, 68); fill-opacity: 1; white-space: pre;" transform="translate(500,120)scale(0)">NR100</text></g></g><g class="slice"><path class="surface" d="M820,400L900,400A400,400 0,0,0 885.9789553258316,295.0226403190684L808.7831642606652,316.01811225525466A320,320 0,0,1 820,400Z" style="pointer-events: all; stroke-width: 1; fill: rgb(99, 110, 250); fill-opacity: 1; stroke: rgb(255, 255, 255); stroke-opacity: 1; opacity: 0.7;"/><g class="slicetext"><text data-notex="1" class="slicetext" text-anchor="middle" x="0" y="0" style="font-family: verdana; font-size: 18px; fill: rgb(255, 255, 255); fill-opacity: 1; white-space: pre;" transform="translate(856.8313197615712,359.34069621558365)">NR80</text></g></g><g class="slice"><path class="surface" d="M358.73703773793034,112.86801729353607L323.4212971724129,41.08502161692013A400,400 0,0,0 216.9896812645813,117.32499316480647L273.591745011665,173.8599945318452A320,320 0,0,1 358.73703773793034,112.86801729353607Z" style="pointer-events: all; stroke-width: 1; fill: rgb(239, 85, 59); fill-opacity: 1; stroke: rgb(255, 255, 255); stroke-opacity: 1; opacity: 0.7;"/><g class="slicetext"><text data-notex="1" class="slicetext" text-anchor="middle" x="0" y="0" style="font-family: verdana; font-size: 18px; fill: rgb(68, 68, 68); fill-opacity: 1; white-space: pre;" transform="translate(290.358623107031,114.33894503296113)">NR80</text></g></g><g class="slice"><path class="surface" d="M199.7623628381853,510.71296776570705L124.70295354773162,538.3912097071338A400,400 0,0,0 222.4020798925058,687.9920046667846L277.9216639140046,630.3936037334277A320,320 0,0,1 199.7623628381853,510.71296776570705Z" style="pointer-events: all; stroke-width: 1; fill: rgb(0, 204, 150); fill-opacity: 1; stroke: rgb(255, 255, 255); stroke-opacity: 1; opacity: 0.7;"/><g class="slicetext"><text data-notex="1" class="slicetext" text-anchor="middle" x="0" y="0" style="font-family: verdana; font-size: 18px; fill: rgb(68, 68, 68); fill-opacity: 1; white-space: pre;" transform="translate(198.58321607721365,603.8449195931771)">NR80</text></g></g><g class="slice"><path class="surface" d="M394.1657777983328,701.9919161351312L367.707222247916,777.489895168914A400,400 0,0,0 483.4076687148532,799.6557200172717L486.7261349718826,719.7245760138175A320,320 0,0,1 394.1657777983328,701.9919161351312Z" style="pointer-events: all; stroke-width: 1; fill: rgb(171, 99, 250); fill-opacity: 1; stroke: rgb(255, 255, 255); stroke-opacity: 1; opacity: 0.7;"/><g class="slicetext"><text data-notex="1" class="slicetext" text-anchor="middle" x="0" y="0" style="font-family: verdana; font-size: 18px; fill: rgb(68, 68, 68); fill-opacity: 1; white-space: pre;" transform="translate(432.26326590720646,760.569985794103)">NR80</text></g></g><g class="slice"><path class="surface" d="M622.6047187898013,695.5809245037199L653.2558984872517,769.4761556296498A400,400 0,0,0 765.294566103152,699.363981126889L712.2356528825215,639.4911849015111A320,320 0,0,1 622.6047187898013,695.5809245037199Z" style="pointer-events: all; stroke-width: 1; fill: rgb(255, 161, 90); fill-opacity: 1; stroke: rgb(255, 255, 255); stroke-opacity: 1; opacity: 0.7;"/><g class="slicetext"><text data-notex="1" class="slicetext" text-anchor="middle" x="0" y="0" style="font-family: verdana; font-size: 18px; fill: rgb(68, 68, 68); fill-opacity: 1; white-space: pre;" transform="translate(690.9719670672257,712.1716038468758)">NR80</text></g></g><g class="slice"><path class="surface" d="M786.7401255791681,542.0566801767623L858.4251569739602,577.5708502209529A400,400 0,0,0 874.7472385857241,539.8731824631668L799.7977908685793,511.8985459705334A320,320 0,0,1 786.7401255791681,542.0566801767623Z" style="pointer-events: all; stroke-width: 1; fill: rgb(25, 211, 243); fill-opacity: 1; stroke: rgb(255, 255, 255); stroke-opacity: 1; opacity: 0.7;"/><g class="slicetext"><text data-notex="1" class="slicetext" text-anchor="middle" x="0" y="0" style="font-family: verdana; font-size: 18px; fill: rgb(68, 68, 68); fill-opacity: 1; white-space: pre;" transform="translate(829.866032400921,550.4511305199741)rotate(23.41132075471694)">NR80</text></g></g><g class="slice"><path class="surface" d="M806.9923702625788,490.3088290288592L883.7404628282235,512.8860362860739A400,400 0,0,0 893.1789849304442,473.5546450543097L814.5431879443554,458.8437160434477A320,320 0,0,1 806.9923702625788,490.3088290288592Z" style="pointer-events: all; stroke-width: 1; fill: rgb(255, 102, 146); fill-opacity: 1; stroke: rgb(255, 255, 255); stroke-opacity: 1; opacity: 0.7;"/><g class="slicetext"><text data-notex="1" class="slicetext" text-anchor="middle" x="0" y="0" style="font-family: verdana; font-size: 18px; fill: rgb(68, 68, 68); fill-opacity: 1; white-space: pre;" transform="translate(851.3104690587841,491.50421082336453)rotate(13.494339622641462)">NR80</text></g></g><g class="slice"><path class="surface" d="M817.2499625321439,441.8624088336227L896.5624531651797,452.3280110420283A400,400 0,0,0 897.8905943718531,441.0252959820333L818.3124754974825,432.8202367856266A320,320 0,0,1 817.2499625321439,441.8624088336227Z" style="pointer-events: all; stroke-width: 1; fill: rgb(182, 232, 128); fill-opacity: 1; stroke: rgb(255, 255, 255); stroke-opacity: 1; opacity: 0.7;"/><g class="slicetext"><text data-notex="1" class="slicetext" text-anchor="middle" x="0" y="0" style="font-family: verdana; font-size: 18px; fill: rgb(68, 68, 68); fill-opacity: 1; white-space: pre;" transform="translate(885.0309704492906,448.62140359893607)scale(0.4792463277590823)rotate(6.701886792452854)">NR80</text></g></g><g class="slice"><path class="surface" d="M819.1544685442391,423.2470473016306L898.943085680299,429.0588091270382A400,400 0,0,0 899.5503479354342,418.9609985146758L819.6402783483472,415.16879881174066A320,320 0,0,1 819.1544685442391,423.2470473016306Z" style="pointer-events: all; stroke-width: 1; fill: rgb(255, 151, 255); fill-opacity: 1; stroke: rgb(255, 255, 255); stroke-opacity: 1; opacity: 0.7;"/><g class="slicetext"><text data-notex="1" class="slicetext" text-anchor="middle" x="0" y="0" style="font-family: verdana; font-size: 18px; fill: rgb(68, 68, 68); fill-opacity: 1; white-space: pre;" transform="translate(888.4498547777207,426.3678460032589)scale(0.42883153369966875)rotate(3.44150943396221)">NR80</text></g></g><g class="slice"><path class="surface" d="M819.9516295773415,405.56369758377417L899.9395369716768,406.95462197971773A400,400 0,0,0 899.9395369716768,406.95462197971773L819.9516295773415,405.56369758377417A320,320 0,0,1 819.9516295773415,405.56369758377417Z" style="pointer-events: all; stroke-width: 1; fill: rgb(254, 203, 82); fill-opacity: 1; stroke: rgb(255, 255, 255); stroke-opacity: 1; opacity: 0.7;"/><g class="slicetext"><text data-notex="1" class="slicetext" text-anchor="middle" x="0" y="0" style="font-family: verdana; font-size: 18px; fill: rgb(68, 68, 68); fill-opacity: 1; white-space: pre;" transform="translate(500,40)scale(0)">NR80</text></g></g></g></g><g class="glimages"/><defs id="topdefs-ddd7f1"><g class="clips"/></defs><g class="layer-above"><g class="imagelayer"/><g class="shapelayer"/></g><g class="infolayer"><g class="g-gtitle"/><g class="annotation" data-index="0" style="opacity: 1;"><g class="annotation-text-g" transform="rotate(0,120,48.00000000000004)"><g class="cursor-pointer" transform="translate(94,26)"><rect class="bg" x="0.5" y="0.5" width="51" height="44" style="stroke-width: 1px; stroke: rgb(0, 0, 0); stroke-opacity: 0; fill: rgb(0, 0, 0); fill-opacity: 0;"/><text class="annotation-text" text-anchor="middle" x="26" y="35" style="font-family: Arial; font-size: 36px; fill: rgb(0, 0, 0); fill-opacity: 1; white-space: pre;">(B)</text></g></g></g></g></svg>