<svg class="main-svg" xmlns="http://www.w3.org/2000/svg" xmlns:xlink="http://www.w3.org/1999/xlink" width="1500" height="1200" style="" viewBox="0 0 1000 800"><rect x="0" y="0" width="1000" height="800" style="fill: rgb(255, 255, 255); fill-opacity: 1;"/><defs id="defs-a2eb4d"><g class="clips"/><g class="gradients"/><g class="patterns"/></defs><g class="bglayer"/><g class="layer-below"><g class="imagelayer"/><g class="shapelayer"/></g><g class="cartesianlayer"/><g class="polarlayer"/><g class="smithlayer"/><g class="ternarylayer"/><g class="geolayer"/><g class="funnelarealayer"/><g class="pielayer"/><g class="iciclelayer"/><g class="treemaplayer"/><g class="sunburstlayer"><g class="trace sunburst" stroke-linejoin="round" style="opacity: 1;"><g class="slice"><path class="surface" d="M500,410A0,0 0,1,0 500,410A0,0 0,1,0 500,410ZM577.5,410A77.5,77.5 0,1,1 422.5,410A77.5,77.5 0,1,1 577.5,410Z" style="pointer-events: all; stroke-width: 1; fill: rgb(0, 0, 0); fill-opacity: 0; stroke: rgb(255, 255, 255); stroke-opacity: 1;"/><g class="slicetext"><text data-notex="1" class="slicetext" text-anchor="middle" x="0" y="0" style="font-family: verdana; font-size: 18px; fill: rgb(0, 0, 0); fill-opacity: 1; white-space: pre;" transform="translate(500,405.296875)"><tspan class="line" dy="0em" x="0" y="0">ArchiveII</tspan><tspan class="line" dy="1.3em" x="0" y="0">(3,975)</tspan></text></g></g><g class="slice cursor-pointer"><path class="surface" d="M577.5,410L655,410A155,155 0,0,0 473.44174743566197,257.29224243435164L486.720873717831,333.64612121717585A77.5,77.5 0,0,1 577.5,410Z" style="pointer-events: all; stroke-width: 1; fill: rgb(99, 110, 250); fill-opacity: 1; stroke: rgb(255, 255, 255); stroke-opacity: 1;"/><g class="slicetext"><text data-notex="1" class="slicetext" text-anchor="middle" x="0" y="0" style="font-family: verdana; font-size: 18px; fill: rgb(255, 255, 255); fill-opacity: 1; white-space: pre;" transform="translate(562.149601383245,335.5746752472345)rotate(40.06702702702705)">5S rRNA</text></g></g><g class="slice cursor-pointer"><path class="surface" d="M486.720873717831,333.64612121717585L473.44174743566197,257.29224243435164A155,155 0,0,0 346.47123419045096,388.69464694034286L423.2356170952255,399.34732347017143A77.5,77.5 0,0,1 486.720873717831,333.64612121717585Z" style="pointer-events: all; stroke-width: 1; fill: rgb(239, 85, 59); fill-opacity: 1; stroke: rgb(255, 255, 255); stroke-opacity: 1;"/><g class="slicetext"><text data-notex="1" class="slicetext" text-anchor="middle" x="0" y="0" style="font-family: verdana; font-size: 18px; fill: rgb(68, 68, 68); fill-opacity: 1; white-space: pre;" transform="translate(416.3308187435636,336.220722690506)">SRP</text></g></g><g class="slice cursor-pointer"><path class="surface" d="M423.2356170952255,399.34732347017143L346.47123419045096,388.69464694034286A155,155 0,0,0 373.7416527685867,499.91012042251896L436.87082638429337,454.9550602112595A77.5,77.5 0,0,1 423.2356170952255,399.34732347017143Z" style="pointer-events: all; stroke-width: 1; fill: rgb(0, 204, 150); fill-opacity: 1; stroke: rgb(255, 255, 255); stroke-opacity: 1;"/><g class="slicetext"><text data-notex="1" class="slicetext" text-anchor="middle" x="0" y="0" style="font-family: verdana; font-size: 18px; fill: rgb(68, 68, 68); fill-opacity: 1; white-space: pre;" transform="translate(386.75091136605386,444.68477935534145)">tRNA</text></g></g><g class="slice cursor-pointer"><path class="surface" d="M436.87082638429337,454.9550602112595L373.7416527685867,499.91012042251896A155,155 0,0,0 450.6028867728201,556.9180901210643L475.30144338641,483.45904506053216A77.5,77.5 0,0,1 436.87082638429337,454.9550602112595Z" style="pointer-events: all; stroke-width: 1; fill: rgb(171, 99, 250); fill-opacity: 1; stroke: rgb(255, 255, 255); stroke-opacity: 1;"/><g class="slicetext"><text data-notex="1" class="slicetext" text-anchor="middle" x="0" y="0" style="font-family: verdana; font-size: 18px; fill: rgb(68, 68, 68); fill-opacity: 1; white-space: pre;" transform="translate(429.09937537687256,512.1286018374715)">tmRNA</text></g></g><g class="slice cursor-pointer"><path class="surface" d="M475.30144338641,483.45904506053216L450.6028867728201,556.9180901210643A155,155 0,0,0 544.6823236217475,558.4199782905301L522.3411618108737,484.20998914526507A77.5,77.5 0,0,1 475.30144338641,483.45904506053216Z" style="pointer-events: all; stroke-width: 1; fill: rgb(255, 161, 90); fill-opacity: 1; stroke: rgb(255, 255, 255); stroke-opacity: 1;"/><g class="slicetext"><text data-notex="1" class="slicetext" text-anchor="middle" x="0" y="0" style="font-family: verdana; font-size: 18px; fill: rgb(68, 68, 68); fill-opacity: 1; white-space: pre;" transform="translate(498.02385269239005,535.8935857255991)">RNaseP</text></g></g><g class="slice cursor-pointer"><path class="surface" d="M522.3411618108737,484.20998914526507L544.6823236217475,558.4199782905301A155,155 0,0,0 586.4031505962125,538.6837035799336L543.2015752981063,474.3418517899668A77.5,77.5 0,0,1 522.3411618108737,484.20998914526507Z" style="pointer-events: all; stroke-width: 1; fill: rgb(25, 211, 243); fill-opacity: 1; stroke: rgb(255, 255, 255); stroke-opacity: 1;"/><g class="slicetext"><text data-notex="1" class="slicetext" text-anchor="middle" x="0" y="0" style="font-family: verdana; font-size: 18px; fill: rgb(68, 68, 68); fill-opacity: 1; white-space: pre;" transform="translate(545.3053409533313,516.8011621632803)scale(0.673778534960955)rotate(64.68324324324328)">2x16S rRNA</text></g></g><g class="slice cursor-pointer"><path class="surface" d="M543.2015752981063,474.3418517899668L586.4031505962125,538.6837035799336A155,155 0,0,0 617.2194985988015,511.41296341319276L558.6097492994007,460.7064817065964A77.5,77.5 0,0,1 543.2015752981063,474.3418517899668Z" style="pointer-events: all; stroke-width: 1; fill: rgb(255, 102, 146); fill-opacity: 1; stroke: rgb(255, 255, 255); stroke-opacity: 1;"/><g class="slicetext"><text data-notex="1" class="slicetext" text-anchor="middle" x="0" y="0" style="font-family: verdana; font-size: 18px; fill: rgb(68, 68, 68); fill-opacity: 1; white-space: pre;" transform="translate(572.7222421261719,500.6945905632146)scale(0.8063650523267121)rotate(48.49297297297301)">2xIntron I</text></g></g><g class="slice cursor-pointer"><path class="surface" d="M558.6097492994007,460.7064817065964L617.2194985988015,511.41296341319276A155,155 0,0,0 638.7572109270208,479.0755848021156L569.3786054635104,444.5377924010578A77.5,77.5 0,0,1 558.6097492994007,460.7064817065964Z" style="pointer-events: all; stroke-width: 1; fill: rgb(182, 232, 128); fill-opacity: 1; stroke: rgb(255, 255, 255); stroke-opacity: 1;"/><g class="slicetext"><text data-notex="1" class="slicetext" text-anchor="middle" x="0" y="0" style="font-family: verdana; font-size: 18px; fill: rgb(68, 68, 68); fill-opacity: 1; white-space: pre;" transform="translate(596.4126602939313,482.1899382267755)scale(0.9483482233187122)rotate(33.66486486486485)">5xTERC</text></g></g><g class="slice cursor-pointer"><path class="surface" d="M569.3786054635104,444.5377924010578L638.7572109270208,479.0755848021156A155,155 0,0,0 651.1221891901124,444.4540844369411L575.5610945950561,427.22704221847056A77.5,77.5 0,0,1 569.3786054635104,444.5377924010578Z" style="pointer-events: all; stroke-width: 1; fill: rgb(255, 151, 255); fill-opacity: 1; stroke: rgb(255, 255, 255); stroke-opacity: 1;"/><g class="slicetext"><text data-notex="1" class="slicetext" text-anchor="middle" x="0" y="0" style="font-family: verdana; font-size: 18px; fill: rgb(68, 68, 68); fill-opacity: 1; white-space: pre;" transform="translate(607.5776787284564,453.42931265541677)scale(0.673778534960955)rotate(19.654054054053972)">5x23S rRNA</text></g></g><g class="slice cursor-pointer"><path class="surface" d="M575.5610945950561,427.22704221847056L651.1221891901124,444.4540844369411A155,155 0,0,0 655,409.9999999999999L577.5,409.99999999999994A77.5,77.5 0,0,1 575.5610945950561,427.22704221847056Z" style="pointer-events: all; stroke-width: 1; fill: rgb(254, 203, 82); fill-opacity: 1; stroke: rgb(255, 255, 255); stroke-opacity: 1;"/><g class="slicetext"><text data-notex="1" class="slicetext" text-anchor="middle" x="0" y="0" style="font-family: verdana; font-size: 18px; fill: rgb(68, 68, 68); fill-opacity: 1; white-space: pre;" transform="translate(614.9029983912337,427.64469469261826)scale(0.6689691272786494)rotate(6.4216216216215685)">15xIntron II</text></g></g><g class="slice cursor-pointer"><path class="surface" d="M655,410L732.5,410A232.5,232.5 0,0,0 502.9216042728795,177.51835722261276L501.9477361819197,255.0122381484085A155,155 0,0,1 655,410Z" style="pointer-events: all; stroke-width: 1; fill: rgb(99, 110, 250); fill-opacity: 1; stroke: rgb(255, 255, 255); stroke-opacity: 1;"/><g class="slicetext"><text data-notex="1" class="slicetext" text-anchor="middle" x="0" y="0" style="font-family: verdana; font-size: 18px; fill: rgb(255, 255, 255); fill-opacity: 1; white-space: pre;" transform="translate(625.5195709465534,286.0479262534311)rotate(45.360000000000014)">ND L600</text></g></g><g class="slice cursor-pointer"><path class="surface" d="M473.44174743566197,257.29224243435164L460.162621153493,180.93836365152745A232.5,232.5 0,0,0 290.2708922954495,309.65085261222663L360.180594863633,343.10056840815105A155,155 0,0,1 473.44174743566197,257.29224243435164Z" style="pointer-events: all; stroke-width: 1; fill: rgb(239, 85, 59); fill-opacity: 1; stroke: rgb(255, 255, 255); stroke-opacity: 1;"/><g class="slicetext"><text data-notex="1" class="slicetext" text-anchor="middle" x="0" y="0" style="font-family: verdana; font-size: 18px; fill: rgb(68, 68, 68); fill-opacity: 1; white-space: pre;" transform="translate(388.14661696656214,262.36114400698114)rotate(-37.14810810810809)">ND L600</text></g></g><g class="slice cursor-pointer"><path class="surface" d="M346.47123419045096,388.69464694034286L269.7068512856764,378.0419704105143A232.5,232.5 0,0,0 299.45669278486196,527.6377147483527L366.3044618565747,488.42514316556844A155,155 0,0,1 346.47123419045096,388.69464694034286Z" style="pointer-events: all; stroke-width: 1; fill: rgb(0, 204, 150); fill-opacity: 1; stroke: rgb(255, 255, 255); stroke-opacity: 1;"/><g class="slicetext"><text data-notex="1" class="slicetext" text-anchor="middle" x="0" y="0" style="font-family: verdana; font-size: 18px; fill: rgb(68, 68, 68); fill-opacity: 1; white-space: pre;" transform="translate(291.86318840570675,451.39180016439735)rotate(78.75243243243244)">ND L600</text></g></g><g class="slice cursor-pointer"><path class="surface" d="M373.7416527685867,499.91012042251896L310.61247915288004,544.8651806337784A232.5,232.5 0,0,0 408.78767318554486,623.8610797622911L439.1917821236966,552.5740531748608A155,155 0,0,1 373.7416527685867,499.91012042251896Z" style="pointer-events: all; stroke-width: 1; fill: rgb(171, 99, 250); fill-opacity: 1; stroke: rgb(255, 255, 255); stroke-opacity: 1;"/><g class="slicetext"><text data-notex="1" class="slicetext" text-anchor="middle" x="0" y="0" style="font-family: verdana; font-size: 18px; fill: rgb(68, 68, 68); fill-opacity: 1; white-space: pre;" transform="translate(363.6097683804791,579.5042097264206)rotate(38.8216216216216)">ND L600</text></g></g><g class="slice cursor-pointer"><path class="surface" d="M450.6028867728201,556.9180901210643L425.9043301592302,630.3771351815965A232.5,232.5 0,0,0 559.4250689704978,634.7774703520163L539.6167126469985,559.8516469013442A155,155 0,0,1 450.6028867728201,556.9180901210643Z" style="pointer-events: all; stroke-width: 1; fill: rgb(255, 161, 90); fill-opacity: 1; stroke: rgb(255, 255, 255); stroke-opacity: 1;"/><g class="slicetext"><text data-notex="1" class="slicetext" text-anchor="middle" x="0" y="0" style="font-family: verdana; font-size: 18px; fill: rgb(68, 68, 68); fill-opacity: 1; white-space: pre;" transform="translate(492.88355342477774,625.9365520204069)rotate(1.8875675675676575)">ND L600</text></g></g><g class="slice cursor-pointer"><path class="surface" d="M544.6823236217475,558.4199782905301L567.0234854326212,632.6299674357952A232.5,232.5 0,0,0 614.008976729775,612.6282389624646L576.0059844865166,545.085492641643A155,155 0,0,1 544.6823236217475,558.4199782905301Z" style="pointer-events: all; stroke-width: 1; fill: rgb(25, 211, 243); fill-opacity: 1; stroke: rgb(255, 255, 255); stroke-opacity: 1;"/><g class="slicetext"><text data-notex="1" class="slicetext" text-anchor="middle" x="0" y="0" style="font-family: verdana; font-size: 18px; fill: rgb(68, 68, 68); fill-opacity: 1; white-space: pre;" transform="translate(569.6280182665085,590.796021168131)scale(0.9643775153605617)rotate(66.9405405405405)">ND L600</text></g></g><g class="slice cursor-pointer"><path class="surface" d="M586.4031505962125,538.6837035799336L629.6047258943188,603.0255553699005A232.5,232.5 0,0,0 669.4852058754781,569.1572021284202L612.9901372503188,516.1048014189467A155,155 0,0,1 586.4031505962125,538.6837035799336Z" style="pointer-events: all; stroke-width: 1; fill: rgb(255, 102, 146); fill-opacity: 1; stroke: rgb(255, 255, 255); stroke-opacity: 1;"/><g class="slicetext"><text data-notex="1" class="slicetext" text-anchor="middle" x="0" y="0" style="font-family: verdana; font-size: 18px; fill: rgb(68, 68, 68); fill-opacity: 1; white-space: pre;" transform="translate(620.1892620342772,561.9532937767535)scale(0.9643775153605617)rotate(49.66054054054058)">ND L600</text></g></g><g class="slice cursor-pointer"><path class="surface" d="M617.2194985988015,511.41296341319276L675.8292478982022,562.1194451197891A232.5,232.5 0,0,0 708.1358163905312,513.6133772031734L638.7572109270208,479.0755848021156A155,155 0,0,1 617.2194985988015,511.41296341319276Z" style="pointer-events: all; stroke-width: 1; fill: rgb(182, 232, 128); fill-opacity: 1; stroke: rgb(255, 255, 255); stroke-opacity: 1;"/><g class="slicetext"><text data-notex="1" class="slicetext" text-anchor="middle" x="0" y="0" style="font-family: verdana; font-size: 18px; fill: rgb(68, 68, 68); fill-opacity: 1; white-space: pre;" transform="translate(657.4088136467825,522.950111041384)scale(0.9643775153605617)rotate(33.66486486486485)">ND L600</text></g></g><g class="slice cursor-pointer"><path class="surface" d="M638.7572109270208,479.0755848021156L708.1358163905312,513.6133772031734A232.5,232.5 0,0,0 720.7517522631093,482.9720074601679L647.1678348420729,458.64800497344527A155,155 0,0,1 638.7572109270208,479.0755848021156Z" style="pointer-events: all; stroke-width: 1; fill: rgb(255, 151, 255); fill-opacity: 1; stroke: rgb(255, 255, 255); stroke-opacity: 1;"/><g class="slicetext"><text data-notex="1" class="slicetext" text-anchor="middle" x="0" y="0" style="font-family: verdana; font-size: 18px; fill: rgb(68, 68, 68); fill-opacity: 1; white-space: pre;" transform="translate(676.4706750670033,489.9585082361139)scale(0.9643775153605617)rotate(22.37837837837833)">ND L600</text></g></g><g class="slice cursor-pointer"><path class="surface" d="M651.1221891901124,444.4540844369411L726.6832837851687,461.68112665541173A232.5,232.5 0,0,0 726.6832837851687,461.68112665541173L651.1221891901124,444.4540844369411A155,155 0,0,1 651.1221891901124,444.4540844369411Z" style="pointer-events: all; stroke-width: 1; fill: rgb(254, 203, 82); fill-opacity: 1; stroke: rgb(255, 255, 255); stroke-opacity: 1;"/><g class="slicetext"><text data-notex="1" class="slicetext" text-anchor="middle" x="0" y="0" style="font-family: verdana; font-size: 18px; fill: rgb(68, 68, 68); fill-opacity: 1; white-space: pre;" transform="translate(500,216.25000000000003)scale(0)">ND L600</text></g></g><g class="slice"><path class="surface" d="M732.5,410L810,410A310,310 0,0,0 801.9610282374066,339.86058578938554L726.470771178055,357.39543934203914A232.5,232.5 0,0,1 732.5,410Z" style="pointer-events: all; stroke-width: 1; fill: rgb(99, 110, 250); fill-opacity: 1; stroke: rgb(255, 255, 255); stroke-opacity: 1; opacity: 0.7;"/><g class="slicetext"><text data-notex="1" class="slicetext" text-anchor="middle" x="0" y="0" style="font-family: verdana; font-size: 18px; fill: rgb(255, 255, 255); fill-opacity: 1; white-space: pre;" transform="translate(776.4991032069331,385.3092807649004)">NR80</text></g></g><g class="slice"><path class="surface" d="M460.162621153493,180.93836365152745L446.88349487132393,104.58448486870327A310,310 0,0,0 363.8316336516295,131.50731426837086L397.8737252387221,201.13048570127816A232.5,232.5 0,0,1 460.162621153493,180.93836365152745Z" style="pointer-events: all; stroke-width: 1; fill: rgb(239, 85, 59); fill-opacity: 1; stroke: rgb(255, 255, 255); stroke-opacity: 1; opacity: 0.7;"/><g class="slicetext"><text data-notex="1" class="slicetext" text-anchor="middle" x="0" y="0" style="font-family: verdana; font-size: 18px; fill: rgb(68, 68, 68); fill-opacity: 1; white-space: pre;" transform="translate(416.20481955492784,158.50764045292658)">NR80</text></g></g><g class="slice"><path class="surface" d="M269.7068512856764,378.0419704105143L192.94246838090191,367.3892938806858A310,310 0,0,0 199.58274249415632,486.4818370115912L274.6870568706172,467.3613777586934A232.5,232.5 0,0,1 269.7068512856764,378.0419704105143Z" style="pointer-events: all; stroke-width: 1; fill: rgb(0, 204, 150); fill-opacity: 1; stroke: rgb(255, 255, 255); stroke-opacity: 1; opacity: 0.7;"/><g class="slicetext"><text data-notex="1" class="slicetext" text-anchor="middle" x="0" y="0" style="font-family: verdana; font-size: 18px; fill: rgb(68, 68, 68); fill-opacity: 1; white-space: pre;" transform="translate(229.17066021851815,432.10070241832017)">NR80</text></g></g><g class="slice"><path class="surface" d="M310.61247915288004,544.8651806337784L247.48330553717338,589.8202408450379A310,310 0,0,0 300.78065210400644,647.5113711465096L350.5854890780048,588.1335283598822A232.5,232.5 0,0,1 310.61247915288004,544.8651806337784Z" style="pointer-events: all; stroke-width: 1; fill: rgb(171, 99, 250); fill-opacity: 1; stroke: rgb(255, 255, 255); stroke-opacity: 1; opacity: 0.7;"/><g class="slicetext"><text data-notex="1" class="slicetext" text-anchor="middle" x="0" y="0" style="font-family: verdana; font-size: 18px; fill: rgb(68, 68, 68); fill-opacity: 1; white-space: pre;" transform="translate(297.899746016485,603.708203176418)">NR80</text></g></g><g class="slice"><path class="surface" d="M425.9043301592302,630.3771351815965L401.2057735456402,703.8361802421286A310,310 0,0,0 487.89521028608027,719.7635776943148L490.9214077145602,642.3226832707361A232.5,232.5 0,0,1 425.9043301592302,630.3771351815965Z" style="pointer-events: all; stroke-width: 1; fill: rgb(255, 161, 90); fill-opacity: 1; stroke: rgb(255, 255, 255); stroke-opacity: 1; opacity: 0.7;"/><g class="slicetext"><text data-notex="1" class="slicetext" text-anchor="middle" x="0" y="0" style="font-family: verdana; font-size: 18px; fill: rgb(68, 68, 68); fill-opacity: 1; white-space: pre;" transform="translate(450.9540120049152,683.9468810856283)">NR80</text></g></g><g class="slice"><path class="surface" d="M567.0234854326212,632.6299674357952L589.3646472434949,706.8399565810603A310,310 0,0,0 640.1269452510261,686.5220411009147L605.0952089382696,617.391530825686A232.5,232.5 0,0,1 567.0234854326212,632.6299674357952Z" style="pointer-events: all; stroke-width: 1; fill: rgb(25, 211, 243); fill-opacity: 1; stroke: rgb(255, 255, 255); stroke-opacity: 1; opacity: 0.7;"/><g class="slicetext"><text data-notex="1" class="slicetext" text-anchor="middle" x="0" y="0" style="font-family: verdana; font-size: 18px; fill: rgb(68, 68, 68); fill-opacity: 1; white-space: pre;" transform="translate(594.2065469841513,664.203404407988)rotate(68.18594594594595)">NR80</text></g></g><g class="slice"><path class="surface" d="M629.6047258943188,603.0255553699005L672.806301192425,667.3674071598673A310,310 0,0,0 714.7289731935518,633.5877189633699L661.0467298951639,577.6907892225274A232.5,232.5 0,0,1 629.6047258943188,603.0255553699005Z" style="pointer-events: all; stroke-width: 1; fill: rgb(255, 102, 146); fill-opacity: 1; stroke: rgb(255, 255, 255); stroke-opacity: 1; opacity: 0.7;"/><g class="slicetext"><text data-notex="1" class="slicetext" text-anchor="middle" x="0" y="0" style="font-family: verdana; font-size: 18px; fill: rgb(68, 68, 68); fill-opacity: 1; white-space: pre;" transform="translate(664.5868844108879,625.4191305042457)rotate(51.13945945945943)">NR80</text></g></g><g class="slice"><path class="surface" d="M675.8292478982022,562.1194451197891L734.4389971976029,612.8259268263855A310,310 0,0,0 757.4260828022886,582.7188811134129L693.0695621017164,539.5391608350596A232.5,232.5 0,0,1 675.8292478982022,562.1194451197891Z" style="pointer-events: all; stroke-width: 1; fill: rgb(182, 232, 128); fill-opacity: 1; stroke: rgb(255, 255, 255); stroke-opacity: 1; opacity: 0.7;"/><g class="slicetext"><text data-notex="1" class="slicetext" text-anchor="middle" x="0" y="0" style="font-family: verdana; font-size: 18px; fill: rgb(68, 68, 68); fill-opacity: 1; white-space: pre;" transform="translate(715.5493399414025,583.3815459967004)rotate(37.36216216216212)">NR80</text></g></g><g class="slice"><path class="surface" d="M708.1358163905312,513.6133772031734L777.5144218540415,548.1511696042312A310,310 0,0,0 790.8620833421419,517.2345488817336L718.1465625066064,490.4259116613002A232.5,232.5 0,0,1 708.1358163905312,513.6133772031734Z" style="pointer-events: all; stroke-width: 1; fill: rgb(255, 151, 255); fill-opacity: 1; stroke: rgb(255, 255, 255); stroke-opacity: 1; opacity: 0.7;"/><g class="slicetext"><text data-notex="1" class="slicetext" text-anchor="middle" x="0" y="0" style="font-family: verdana; font-size: 18px; fill: rgb(68, 68, 68); fill-opacity: 1; white-space: pre;" transform="translate(753.8892951887728,527.2363744447003)rotate(23.351351351351354)">NR80</text></g></g><g class="slice"><path class="surface" d="M726.6832837851687,461.68112665541173L802.2443783802248,478.9081688738823A310,310 0,0,0 802.2443783802248,478.9081688738823L726.6832837851687,461.68112665541173A232.5,232.5 0,0,1 726.6832837851687,461.68112665541173Z" style="pointer-events: all; stroke-width: 1; fill: rgb(254, 203, 82); fill-opacity: 1; stroke: rgb(255, 255, 255); stroke-opacity: 1; opacity: 0.7;"/><g class="slicetext"><text data-notex="1" class="slicetext" text-anchor="middle" x="0" y="0" style="font-family: verdana; font-size: 18px; fill: rgb(68, 68, 68); fill-opacity: 1; white-space: pre;" transform="translate(500,138.75)scale(0)">NR80</text></g></g></g></g><g class="glimages"/><defs id="topdefs-a2eb4d"><g class="clips"/></defs><g class="layer-above"><g class="imagelayer"/><g class="shapelayer"/></g><g class="infolayer"><g class="g-gtitle"/><g class="annotation" data-index="0" style="opacity: 1;"><g class="annotation-text-g" transform="rotate(0,187.5,112.4)"><g class="cursor-pointer" transform="translate(169,96)"><rect class="bg" x="0.5" y="0.5" width="36" height="31" style="stroke-width: 1px; stroke: rgb(0, 0, 0); stroke-opacity: 0; fill: rgb(0, 0, 0); fill-opacity: 0;"/><text class="annotation-text" text-anchor="middle" x="18.671875" y="25" style="font-family: Arial; font-size: 25px; fill: rgb(0, 0, 0); fill-opacity: 1; white-space: pre;">(B)</text></g></g></g></g></svg>