<svg class="main-svg" xmlns="http://www.w3.org/2000/svg" xmlns:xlink="http://www.w3.org/1999/xlink" width="1500" height="1200" style="" viewBox="0 0 1000 800"><rect x="0" y="0" width="1000" height="800" style="fill: rgb(255, 255, 255); fill-opacity: 1;"/><defs id="defs-05fd58"><g class="clips"/><g class="gradients"/><g class="patterns"/></defs><g class="bglayer"/><g class="layer-below"><g class="imagelayer"/><g class="shapelayer"/></g><g class="cartesianlayer"/><g class="polarlayer"/><g class="smithlayer"/><g class="ternarylayer"/><g class="geolayer"/><g class="funnelarealayer"/><g class="pielayer"/><g class="iciclelayer"/><g class="treemaplayer"/><g class="sunburstlayer"><g class="trace sunburst" stroke-linejoin="round" style="opacity: 1;"><g class="slice"><path class="surface" d="M500,400A0,0 0,1,0 500,400A0,0 0,1,0 500,400ZM580,400A80,80 0,1,1 420,400A80,80 0,1,1 580,400Z" style="pointer-events: all; stroke-width: 1; fill: rgb(0, 0, 0); fill-opacity: 0; stroke: rgb(255, 255, 255); stroke-opacity: 1;"/><g class="slicetext"><text data-notex="1" class="slicetext" text-anchor="middle" x="0" y="0" style="font-family: verdana; font-size: 18px; fill: rgb(0, 0, 0); fill-opacity: 1; white-space: pre;" transform="translate(500,395.296875)"><tspan class="line" dy="0em" x="0" y="0">ArchiveII</tspan><tspan class="line" dy="1.3em" x="0" y="0">(3,975)</tspan></text></g></g><g class="slice cursor-pointer"><path class="surface" d="M580,400L660,400A160,160 0,0,0 472.5850296110059,242.36618573868557L486.29251480550295,321.1830928693428A80,80 0,0,1 580,400Z" style="pointer-events: all; stroke-width: 1; fill: rgb(99, 110, 250); fill-opacity: 1; stroke: rgb(255, 255, 255); stroke-opacity: 1;"/><g class="slicetext"><text data-notex="1" class="slicetext" text-anchor="middle" x="0" y="0" style="font-family: verdana; font-size: 18px; fill: rgb(255, 255, 255); fill-opacity: 1; white-space: pre;" transform="translate(576.8982485014322,315.16496492348506)">5S rRNA</text></g></g><g class="slice cursor-pointer"><path class="surface" d="M486.29251480550295,321.1830928693428L472.5850296110059,242.36618573868557A160,160 0,0,0 341.51869335788484,378.0073774868056L420.7593466789424,389.0036887434028A80,80 0,0,1 486.29251480550295,321.1830928693428Z" style="pointer-events: all; stroke-width: 1; fill: rgb(239, 85, 59); fill-opacity: 1; stroke: rgb(255, 255, 255); stroke-opacity: 1;"/><g class="slicetext"><text data-notex="1" class="slicetext" text-anchor="middle" x="0" y="0" style="font-family: verdana; font-size: 18px; fill: rgb(68, 68, 68); fill-opacity: 1; white-space: pre;" transform="translate(413.63408104174306,323.6149395514901)">SRP</text></g></g><g class="slice cursor-pointer"><path class="surface" d="M420.7593466789424,389.0036887434028L341.51869335788484,378.0073774868056A160,160 0,0,0 369.6688028578959,492.81044688776154L434.83440142894796,446.4052234438808A80,80 0,0,1 420.7593466789424,389.0036887434028Z" style="pointer-events: all; stroke-width: 1; fill: rgb(0, 204, 150); fill-opacity: 1; stroke: rgb(255, 255, 255); stroke-opacity: 1;"/><g class="slicetext"><text data-notex="1" class="slicetext" text-anchor="middle" x="0" y="0" style="font-family: verdana; font-size: 18px; fill: rgb(68, 68, 68); fill-opacity: 1; white-space: pre;" transform="translate(383.1088036681846,435.57783675390084)">tRNA</text></g></g><g class="slice cursor-pointer"><path class="surface" d="M434.83440142894796,446.4052234438808L369.6688028578959,492.81044688776154A160,160 0,0,0 449.0094315074272,551.6573833507761L474.5047157537136,475.82869167538803A80,80 0,0,1 434.83440142894796,446.4052234438808Z" style="pointer-events: all; stroke-width: 1; fill: rgb(171, 99, 250); fill-opacity: 1; stroke: rgb(255, 255, 255); stroke-opacity: 1;"/><g class="slicetext"><text data-notex="1" class="slicetext" text-anchor="middle" x="0" y="0" style="font-family: verdana; font-size: 18px; fill: rgb(68, 68, 68); fill-opacity: 1; white-space: pre;" transform="translate(426.8233471632233,505.19726641287383)">tmRNA</text></g></g><g class="slice cursor-pointer"><path class="surface" d="M474.5047157537136,475.82869167538803L449.0094315074272,551.6573833507761A160,160 0,0,0 546.1236888998684,553.2077195257085L523.0618444499341,476.60385976285426A80,80 0,0,1 474.5047157537136,475.82869167538803Z" style="pointer-events: all; stroke-width: 1; fill: rgb(255, 161, 90); fill-opacity: 1; stroke: rgb(255, 255, 255); stroke-opacity: 1;"/><g class="slicetext"><text data-notex="1" class="slicetext" text-anchor="middle" x="0" y="0" style="font-family: verdana; font-size: 18px; fill: rgb(68, 68, 68); fill-opacity: 1; white-space: pre;" transform="translate(497.9626261663381,529.7288626844894)">RNaseP</text></g></g><g class="slice cursor-pointer"><path class="surface" d="M523.0618444499341,476.60385976285426L546.1236888998684,553.2077195257085A160,160 0,0,0 589.1903490025419,532.8347907921896L544.595174501271,466.4173953960948A80,80 0,0,1 523.0618444499341,476.60385976285426Z" style="pointer-events: all; stroke-width: 1; fill: rgb(25, 211, 243); fill-opacity: 1; stroke: rgb(255, 255, 255); stroke-opacity: 1;"/><g class="slicetext"><text data-notex="1" class="slicetext" text-anchor="middle" x="0" y="0" style="font-family: verdana; font-size: 18px; fill: rgb(68, 68, 68); fill-opacity: 1; white-space: pre;" transform="translate(546.7611338136448,510.2487026621902)scale(0.6963885529126649)rotate(64.68324324324328)">2x16S rRNA</text></g></g><g class="slice cursor-pointer"><path class="surface" d="M544.595174501271,466.4173953960948L589.1903490025419,532.8347907921896A160,160 0,0,0 621.0007727471499,504.68434932974736L560.500386373575,452.3421746648737A80,80 0,0,1 544.595174501271,466.4173953960948Z" style="pointer-events: all; stroke-width: 1; fill: rgb(255, 102, 146); fill-opacity: 1; stroke: rgb(255, 255, 255); stroke-opacity: 1;"/><g class="slicetext"><text data-notex="1" class="slicetext" text-anchor="middle" x="0" y="0" style="font-family: verdana; font-size: 18px; fill: rgb(68, 68, 68); fill-opacity: 1; white-space: pre;" transform="translate(575.0626300233542,493.62508163876004)scale(0.8334242822705615)rotate(48.49297297297301)">2xIntron I</text></g></g><g class="slice cursor-pointer"><path class="surface" d="M560.500386373575,452.3421746648737L621.0007727471499,504.68434932974736A160,160 0,0,0 643.2332499891827,471.3038294731516L571.6166249945913,435.6519147365758A80,80 0,0,1 560.500386373575,452.3421746648737Z" style="pointer-events: all; stroke-width: 1; fill: rgb(182, 232, 128); fill-opacity: 1; stroke: rgb(255, 255, 255); stroke-opacity: 1;"/><g class="slicetext"><text data-notex="1" class="slicetext" text-anchor="middle" x="0" y="0" style="font-family: verdana; font-size: 18px; fill: rgb(68, 68, 68); fill-opacity: 1; white-space: pre;" transform="translate(599.5179659678797,474.52582296257395)scale(0.9801719892018905)rotate(33.66486486486485)">5xTERC</text></g></g><g class="slice cursor-pointer"><path class="surface" d="M571.6166249945913,435.6519147365758L643.2332499891827,471.3038294731516A160,160 0,0,0 655.9970985188257,435.56550651555216L577.9985492594128,417.78275325777605A80,80 0,0,1 571.6166249945913,435.6519147365758Z" style="pointer-events: all; stroke-width: 1; fill: rgb(255, 151, 255); fill-opacity: 1; stroke: rgb(255, 255, 255); stroke-opacity: 1;"/><g class="slicetext"><text data-notex="1" class="slicetext" text-anchor="middle" x="0" y="0" style="font-family: verdana; font-size: 18px; fill: rgb(68, 68, 68); fill-opacity: 1; white-space: pre;" transform="translate(611.0455760419445,444.835924388222)scale(0.6963885529126649)rotate(19.654054054053972)">5x23S rRNA</text></g></g><g class="slice cursor-pointer"><path class="surface" d="M577.9985492594128,417.78275325777605L655.9970985188257,435.56550651555216A160,160 0,0,0 660,399.9999999999999L580,399.99999999999994A80,80 0,0,1 577.9985492594128,417.78275325777605Z" style="pointer-events: all; stroke-width: 1; fill: rgb(254, 203, 82); fill-opacity: 1; stroke: rgb(255, 255, 255); stroke-opacity: 1;"/><g class="slicetext"><text data-notex="1" class="slicetext" text-anchor="middle" x="0" y="0" style="font-family: verdana; font-size: 18px; fill: rgb(68, 68, 68); fill-opacity: 1; white-space: pre;" transform="translate(618.6088663960537,418.2199230813923)scale(0.6914177557108188)rotate(6.4216216216215685)">15xIntron II</text></g></g><g class="slice cursor-pointer"><path class="surface" d="M660,400L740,400A240,240 0,0,0 458.87754441650884,163.54927860802835L472.5850296110059,242.36618573868557A160,160 0,0,1 660,400Z" style="pointer-events: all; stroke-width: 1; fill: rgb(99, 110, 250); fill-opacity: 1; stroke: rgb(255, 255, 255); stroke-opacity: 1;"/><g class="slicetext"><text data-notex="1" class="slicetext" text-anchor="middle" x="0" y="0" style="font-family: verdana; font-size: 18px; fill: rgb(255, 255, 255); fill-opacity: 1; white-space: pre;" transform="translate(628.7366641690537,253.9416082058084)">L600</text></g></g><g class="slice cursor-pointer"><path class="surface" d="M472.5850296110059,242.36618573868557L458.87754441650884,163.54927860802835A240,240 0,0,0 262.32307573464476,366.6881451768206L341.5487171564298,377.7920967845471A160,160 0,0,1 472.5850296110059,242.36618573868557Z" style="pointer-events: all; stroke-width: 1; fill: rgb(239, 85, 59); fill-opacity: 1; stroke: rgb(255, 255, 255); stroke-opacity: 1;"/><g class="slicetext"><text data-notex="1" class="slicetext" text-anchor="middle" x="0" y="0" style="font-family: verdana; font-size: 18px; fill: rgb(68, 68, 68); fill-opacity: 1; white-space: pre;" transform="translate(356.2684230918167,267.9272355941431)">L600</text></g></g><g class="slice cursor-pointer"><path class="surface" d="M341.51869335788484,378.0073774868056L262.2780400368273,367.0110662302083A240,240 0,0,0 304.5032042868439,539.2156703316423L369.6688028578959,492.81044688776154A160,160 0,0,1 341.51869335788484,378.0073774868056Z" style="pointer-events: all; stroke-width: 1; fill: rgb(0, 204, 150); fill-opacity: 1; stroke: rgb(255, 255, 255); stroke-opacity: 1;"/><g class="slicetext"><text data-notex="1" class="slicetext" text-anchor="middle" x="0" y="0" style="font-family: verdana; font-size: 18px; fill: rgb(68, 68, 68); fill-opacity: 1; white-space: pre;" transform="translate(305.75425611364096,454.6297279231681)">L600</text></g></g><g class="slice cursor-pointer"><path class="surface" d="M369.6688028578959,492.81044688776154L304.5032042868439,539.2156703316423A240,240 0,0,0 423.5141472611408,627.486075026164L449.0094315074272,551.6573833507761A160,160 0,0,1 369.6688028578959,492.81044688776154Z" style="pointer-events: all; stroke-width: 1; fill: rgb(171, 99, 250); fill-opacity: 1; stroke: rgb(255, 255, 255); stroke-opacity: 1;"/><g class="slicetext"><text data-notex="1" class="slicetext" text-anchor="middle" x="0" y="0" style="font-family: verdana; font-size: 18px; fill: rgb(68, 68, 68); fill-opacity: 1; white-space: pre;" transform="translate(380.8550242614743,567.6377127459991)">L600</text></g></g><g class="slice cursor-pointer"><path class="surface" d="M449.0094315074272,551.6573833507761L423.5141472611408,627.486075026164A240,240 0,0,0 569.1855333498025,629.8115792885627L546.1236888998684,553.2077195257085A160,160 0,0,1 449.0094315074272,551.6573833507761Z" style="pointer-events: all; stroke-width: 1; fill: rgb(255, 161, 90); fill-opacity: 1; stroke: rgb(255, 255, 255); stroke-opacity: 1;"/><g class="slicetext"><text data-notex="1" class="slicetext" text-anchor="middle" x="0" y="0" style="font-family: verdana; font-size: 18px; fill: rgb(68, 68, 68); fill-opacity: 1; white-space: pre;" transform="translate(496.8075981792953,606.9745198034368)">L600</text></g></g><g class="slice cursor-pointer"><path class="surface" d="M546.1236888998684,553.2077195257085L569.1855333498025,629.8115792885627A240,240 0,0,0 617.6866856565418,609.1646337677054L578.4577904376946,539.4430891784702A160,160 0,0,1 546.1236888998684,553.2077195257085Z" style="pointer-events: all; stroke-width: 1; fill: rgb(25, 211, 243); fill-opacity: 1; stroke: rgb(255, 255, 255); stroke-opacity: 1;"/><g class="slicetext"><text data-notex="1" class="slicetext" text-anchor="middle" x="0" y="0" style="font-family: verdana; font-size: 18px; fill: rgb(68, 68, 68); fill-opacity: 1; white-space: pre;" transform="translate(572.8424212922657,588.9835093126127)rotate(66.9405405405405)">L600</text></g></g><g class="slice cursor-pointer"><path class="surface" d="M589.1903490025419,532.8347907921896L633.7855235038129,599.2521861882843A240,240 0,0,0 677.1681986191041,561.8994422413544L618.1121324127361,507.9329614942363A160,160 0,0,1 589.1903490025419,532.8347907921896Z" style="pointer-events: all; stroke-width: 1; fill: rgb(255, 102, 146); fill-opacity: 1; stroke: rgb(255, 255, 255); stroke-opacity: 1;"/><g class="slicetext"><text data-notex="1" class="slicetext" text-anchor="middle" x="0" y="0" style="font-family: verdana; font-size: 18px; fill: rgb(68, 68, 68); fill-opacity: 1; white-space: pre;" transform="translate(639.9083048027929,569.4939935286757)">L600</text></g></g><g class="slice cursor-pointer"><path class="surface" d="M621.0007727471499,504.68434932974736L681.5011591207249,557.0265239946211A240,240 0,0,0 714.849874983774,506.9557442097274L643.2332499891827,471.3038294731516A160,160 0,0,1 621.0007727471499,504.68434932974736Z" style="pointer-events: all; stroke-width: 1; fill: rgb(182, 232, 128); fill-opacity: 1; stroke: rgb(255, 255, 255); stroke-opacity: 1;"/><g class="slicetext"><text data-notex="1" class="slicetext" text-anchor="middle" x="0" y="0" style="font-family: verdana; font-size: 18px; fill: rgb(68, 68, 68); fill-opacity: 1; white-space: pre;" transform="translate(677.5035201299634,525.2229332743705)">L600</text></g></g><g class="slice cursor-pointer"><path class="surface" d="M643.2332499891827,471.3038294731516L714.849874983774,506.9557442097274A240,240 0,0,0 727.8727765296612,475.32594318468944L651.9151843531075,450.2172954564596A160,160 0,0,1 643.2332499891827,471.3038294731516Z" style="pointer-events: all; stroke-width: 1; fill: rgb(255, 151, 255); fill-opacity: 1; stroke: rgb(255, 255, 255); stroke-opacity: 1;"/><g class="slicetext"><text data-notex="1" class="slicetext" text-anchor="middle" x="0" y="0" style="font-family: verdana; font-size: 18px; fill: rgb(68, 68, 68); fill-opacity: 1; white-space: pre;" transform="translate(694.1327368543703,487.5001545937849)rotate(22.37837837837833)">L600</text></g></g><g class="slice cursor-pointer"><path class="surface" d="M655.9970985188257,435.56550651555216L733.9956477782385,453.3482597733282A240,240 0,0,0 733.9956477782385,453.3482597733282L655.9970985188257,435.56550651555216A160,160 0,0,1 655.9970985188257,435.56550651555216Z" style="pointer-events: all; stroke-width: 1; fill: rgb(254, 203, 82); fill-opacity: 1; stroke: rgb(255, 255, 255); stroke-opacity: 1;"/><g class="slicetext"><text data-notex="1" class="slicetext" text-anchor="middle" x="0" y="0" style="font-family: verdana; font-size: 18px; fill: rgb(68, 68, 68); fill-opacity: 1; white-space: pre;" transform="translate(500,200.00000000000003)scale(0)">L600</text></g></g><g class="slice cursor-pointer"><path class="surface" d="M740,400L820,400A320,320 0,0,0 504.0211327626729,80.02526585477887L503.01584957200464,160.01894939108413A240,240 0,0,1 740,400Z" style="pointer-events: all; stroke-width: 1; fill: rgb(99, 110, 250); fill-opacity: 1; stroke: rgb(255, 255, 255); stroke-opacity: 1;"/><g class="slicetext"><text data-notex="1" class="slicetext" text-anchor="middle" x="0" y="0" style="font-family: verdana; font-size: 18px; fill: rgb(255, 255, 255); fill-opacity: 1; white-space: pre;" transform="translate(699.2299896185999,210.25800845632222)">NR100</text></g></g><g class="slice cursor-pointer"><path class="surface" d="M458.87754441650884,163.54927860802835L445.17005922201184,84.73237147737115A320,320 0,0,0 211.34058294427462,261.8850444555377L283.505437208206,296.4137833416533A240,240 0,0,1 458.87754441650884,163.54927860802835Z" style="pointer-events: all; stroke-width: 1; fill: rgb(239, 85, 59); fill-opacity: 1; stroke: rgb(255, 255, 255); stroke-opacity: 1;"/><g class="slicetext"><text data-notex="1" class="slicetext" text-anchor="middle" x="0" y="0" style="font-family: verdana; font-size: 18px; fill: rgb(68, 68, 68); fill-opacity: 1; white-space: pre;" transform="translate(330.91431055610093,183.81839317434486)">NR100</text></g></g><g class="slice cursor-pointer"><path class="surface" d="M262.2780400368273,367.0110662302083L183.03738671576968,356.0147549736111A320,320 0,0,0 223.98340512325092,561.9099729869799L292.98755384243816,521.432479740235A240,240 0,0,1 262.2780400368273,367.0110662302083Z" style="pointer-events: all; stroke-width: 1; fill: rgb(0, 204, 150); fill-opacity: 1; stroke: rgb(255, 255, 255); stroke-opacity: 1;"/><g class="slicetext"><text data-notex="1" class="slicetext" text-anchor="middle" x="0" y="0" style="font-family: verdana; font-size: 18px; fill: rgb(68, 68, 68); fill-opacity: 1; white-space: pre;" transform="translate(225.37780267497675,461.6136314153893)">NR100</text></g></g><g class="slice cursor-pointer"><path class="surface" d="M304.5032042868439,539.2156703316423L239.33760571579188,585.6208937755231A320,320 0,0,0 374.4604534166639,694.3464323610028L405.84534006249794,620.7598242707521A240,240 0,0,1 304.5032042868439,539.2156703316423Z" style="pointer-events: all; stroke-width: 1; fill: rgb(171, 99, 250); fill-opacity: 1; stroke: rgb(255, 255, 255); stroke-opacity: 1;"/><g class="slicetext"><text data-notex="1" class="slicetext" text-anchor="middle" x="0" y="0" style="font-family: verdana; font-size: 18px; fill: rgb(68, 68, 68); fill-opacity: 1; white-space: pre;" transform="translate(324.4685979876763,625.1484056957281)">NR100</text></g></g><g class="slice cursor-pointer"><path class="surface" d="M423.5141472611408,627.486075026164L398.01886301485445,703.3147667015521A320,320 0,0,0 581.7893422389648,709.371141989872L561.3420066792236,632.0283564924039A240,240 0,0,1 423.5141472611408,627.486075026164Z" style="pointer-events: all; stroke-width: 1; fill: rgb(255, 161, 90); fill-opacity: 1; stroke: rgb(255, 255, 255); stroke-opacity: 1;"/><g class="slicetext"><text data-notex="1" class="slicetext" text-anchor="middle" x="0" y="0" style="font-family: verdana; font-size: 18px; fill: rgb(68, 68, 68); fill-opacity: 1; white-space: pre;" transform="translate(490.7772731928179,686.8480682624772)">NR100</text></g></g><g class="slice cursor-pointer"><path class="surface" d="M569.1855333498025,629.8115792885627L592.2473777997367,706.415439051417A320,320 0,0,0 656.9155808753892,678.8861783569405L617.6866856565418,609.1646337677054A240,240 0,0,1 569.1855333498025,629.8115792885627Z" style="pointer-events: all; stroke-width: 1; fill: rgb(25, 211, 243); fill-opacity: 1; stroke: rgb(255, 255, 255); stroke-opacity: 1;"/><g class="slicetext"><text data-notex="1" class="slicetext" text-anchor="middle" x="0" y="0" style="font-family: verdana; font-size: 18px; fill: rgb(68, 68, 68); fill-opacity: 1; white-space: pre;" transform="translate(603.1668531416304,660.2177694241441)rotate(66.9405405405405)">NR100</text></g></g><g class="slice cursor-pointer"><path class="surface" d="M633.7855235038129,599.2521861882843L678.3806980050838,665.6695815843791A320,320 0,0,0 733.2699607748516,619.0550738971805L674.9524705811386,564.2913054228853A240,240 0,0,1 633.7855235038129,599.2521861882843Z" style="pointer-events: all; stroke-width: 1; fill: rgb(255, 102, 146); fill-opacity: 1; stroke: rgb(255, 255, 255); stroke-opacity: 1;"/><g class="slicetext"><text data-notex="1" class="slicetext" text-anchor="middle" x="0" y="0" style="font-family: verdana; font-size: 18px; fill: rgb(68, 68, 68); fill-opacity: 1; white-space: pre;" transform="translate(686.1907753224264,626.2423539160544)">NR100</text></g></g><g class="slice cursor-pointer"><path class="surface" d="M681.5011591207249,557.0265239946211L742.0015454942999,609.3686986594947A320,320 0,0,0 786.4664999783655,542.6076589463032L714.849874983774,506.9557442097274A240,240 0,0,1 681.5011591207249,557.0265239946211Z" style="pointer-events: all; stroke-width: 1; fill: rgb(182, 232, 128); fill-opacity: 1; stroke: rgb(255, 255, 255); stroke-opacity: 1;"/><g class="slicetext"><text data-notex="1" class="slicetext" text-anchor="middle" x="0" y="0" style="font-family: verdana; font-size: 18px; fill: rgb(68, 68, 68); fill-opacity: 1; white-space: pre;" transform="translate(736.6713601732844,564.6305776991607)">NR100</text></g></g><g class="slice cursor-pointer"><path class="surface" d="M714.849874983774,506.9557442097274L786.4664999783655,542.6076589463032A320,320 0,0,0 803.830368706215,500.43459091291925L727.8727765296612,475.32594318468944A240,240 0,0,1 714.849874983774,506.9557442097274Z" style="pointer-events: all; stroke-width: 1; fill: rgb(255, 151, 255); fill-opacity: 1; stroke: rgb(255, 255, 255); stroke-opacity: 1;"/><g class="slicetext"><text data-notex="1" class="slicetext" text-anchor="middle" x="0" y="0" style="font-family: verdana; font-size: 18px; fill: rgb(68, 68, 68); fill-opacity: 1; white-space: pre;" transform="translate(756.0956110333877,513.0120574127362)rotate(22.37837837837833)">NR100</text></g></g><g class="slice cursor-pointer"><path class="surface" d="M733.9956477782385,453.3482597733282L811.9941970376515,471.13101303110426A320,320 0,0,0 811.9941970376515,471.13101303110426L733.9956477782385,453.3482597733282A240,240 0,0,1 733.9956477782385,453.3482597733282Z" style="pointer-events: all; stroke-width: 1; fill: rgb(254, 203, 82); fill-opacity: 1; stroke: rgb(255, 255, 255); stroke-opacity: 1;"/><g class="slicetext"><text data-notex="1" class="slicetext" text-anchor="middle" x="0" y="0" style="font-family: verdana; font-size: 18px; fill: rgb(68, 68, 68); fill-opacity: 1; white-space: pre;" transform="translate(500,120)scale(0)">NR100</text></g></g><g class="slice"><path class="surface" d="M820,400L900,400A400,400 0,0,0 889.6271332095569,309.49753005082005L811.7017065676455,327.598024040656A320,320 0,0,1 820,400Z" style="pointer-events: all; stroke-width: 1; fill: rgb(99, 110, 250); fill-opacity: 1; stroke: rgb(255, 255, 255); stroke-opacity: 1; opacity: 0.7;"/><g class="slicetext"><text data-notex="1" class="slicetext" text-anchor="middle" x="0" y="0" style="font-family: verdana; font-size: 18px; fill: rgb(255, 255, 255); fill-opacity: 1; white-space: pre;" transform="translate(857.6584901549916,366.0072638135512)">NR80</text></g></g><g class="slice"><path class="surface" d="M445.17005922201184,84.73237147737115L431.4625740275148,5.915464346713918A400,400 0,0,0 324.29888213113486,40.65459905596242L359.4391057049079,112.52367924476994A320,320 0,0,1 445.17005922201184,84.73237147737115Z" style="pointer-events: all; stroke-width: 1; fill: rgb(239, 85, 59); fill-opacity: 1; stroke: rgb(255, 255, 255); stroke-opacity: 1; opacity: 0.7;"/><g class="slicetext"><text data-notex="1" class="slicetext" text-anchor="middle" x="0" y="0" style="font-family: verdana; font-size: 18px; fill: rgb(68, 68, 68); fill-opacity: 1; white-space: pre;" transform="translate(388.9864740670609,64.54416772387037)">NR80</text></g></g><g class="slice"><path class="surface" d="M183.03738671576968,356.0147549736111L103.79673339471213,345.0184437170139A400,400 0,0,0 112.36482902471778,498.68624130527894L189.89186321977422,478.9489930442232A320,320 0,0,1 183.03738671576968,356.0147549736111Z" style="pointer-events: all; stroke-width: 1; fill: rgb(0, 204, 150); fill-opacity: 1; stroke: rgb(255, 255, 255); stroke-opacity: 1; opacity: 0.7;"/><g class="slicetext"><text data-notex="1" class="slicetext" text-anchor="middle" x="0" y="0" style="font-family: verdana; font-size: 18px; fill: rgb(68, 68, 68); fill-opacity: 1; white-space: pre;" transform="translate(140.558295589554,427.0414852372175)">NR80</text></g></g><g class="slice"><path class="surface" d="M239.33760571579188,585.6208937755231L174.17200714473984,632.0261172194039A400,400 0,0,0 242.9427769083954,706.466285350335L294.3542215267163,645.173028280268A320,320 0,0,1 239.33760571579188,585.6208937755231Z" style="pointer-events: all; stroke-width: 1; fill: rgb(171, 99, 250); fill-opacity: 1; stroke: rgb(255, 255, 255); stroke-opacity: 1; opacity: 0.7;"/><g class="slicetext"><text data-notex="1" class="slicetext" text-anchor="middle" x="0" y="0" style="font-family: verdana; font-size: 18px; fill: rgb(68, 68, 68); fill-opacity: 1; white-space: pre;" transform="translate(235.5712874815618,651.2896968679628)">NR80</text></g></g><g class="slice"><path class="surface" d="M398.01886301485445,703.3147667015521L372.52357876856803,779.1434583769401A400,400 0,0,0 484.38091649816806,799.6949389604061L487.50473319853444,719.7559511683249A320,320 0,0,1 398.01886301485445,703.3147667015521Z" style="pointer-events: all; stroke-width: 1; fill: rgb(255, 161, 90); fill-opacity: 1; stroke: rgb(255, 255, 255); stroke-opacity: 1; opacity: 0.7;"/><g class="slicetext"><text data-notex="1" class="slicetext" text-anchor="middle" x="0" y="0" style="font-family: verdana; font-size: 18px; fill: rgb(68, 68, 68); fill-opacity: 1; white-space: pre;" transform="translate(434.9462984690293,761.0734611872505)">NR80</text></g></g><g class="slice"><path class="surface" d="M592.2473777997367,706.415439051417L615.3092222496709,783.0192988142712A400,400 0,0,0 680.8089616142272,756.8026336785996L644.6471692913817,685.4421069428797A320,320 0,0,1 592.2473777997367,706.415439051417Z" style="pointer-events: all; stroke-width: 1; fill: rgb(25, 211, 243); fill-opacity: 1; stroke: rgb(255, 255, 255); stroke-opacity: 1; opacity: 0.7;"/><g class="slicetext"><text data-notex="1" class="slicetext" text-anchor="middle" x="0" y="0" style="font-family: verdana; font-size: 18px; fill: rgb(68, 68, 68); fill-opacity: 1; white-space: pre;" transform="translate(636.5922272956791,748.2621414963195)">NR80</text></g></g><g class="slice"><path class="surface" d="M678.3806980050838,665.6695815843791L722.9758725063548,732.086976980474A400,400 0,0,0 777.0696428303895,688.5002825333804L721.6557142643117,630.8002260267044A320,320 0,0,1 678.3806980050838,665.6695815843791Z" style="pointer-events: all; stroke-width: 1; fill: rgb(255, 102, 146); fill-opacity: 1; stroke: rgb(255, 255, 255); stroke-opacity: 1; opacity: 0.7;"/><g class="slicetext"><text data-notex="1" class="slicetext" text-anchor="middle" x="0" y="0" style="font-family: verdana; font-size: 18px; fill: rgb(68, 68, 68); fill-opacity: 1; white-space: pre;" transform="translate(730.9186746538392,693.584286987339)">NR80</text></g></g><g class="slice"><path class="surface" d="M742.0015454942999,609.3686986594947L802.5019318678749,661.7108733243684A400,400 0,0,0 832.162687486824,622.8630724044037L765.7301499894592,578.290457923523A320,320 0,0,1 742.0015454942999,609.3686986594947Z" style="pointer-events: all; stroke-width: 1; fill: rgb(182, 232, 128); fill-opacity: 1; stroke: rgb(255, 255, 255); stroke-opacity: 1; opacity: 0.7;"/><g class="slicetext"><text data-notex="1" class="slicetext" text-anchor="middle" x="0" y="0" style="font-family: verdana; font-size: 18px; fill: rgb(68, 68, 68); fill-opacity: 1; white-space: pre;" transform="translate(781.7262650556881,623.908411274667)rotate(37.36216216216212)">NR80</text></g></g><g class="slice"><path class="surface" d="M786.4664999783655,542.6076589463032L858.0831249729569,578.259573682879A400,400 0,0,0 875.3059139898605,538.3671598473982L800.2447311918884,510.69372787791855A320,320 0,0,1 786.4664999783655,542.6076589463032Z" style="pointer-events: all; stroke-width: 1; fill: rgb(255, 151, 255); fill-opacity: 1; stroke: rgb(255, 255, 255); stroke-opacity: 1; opacity: 0.7;"/><g class="slicetext"><text data-notex="1" class="slicetext" text-anchor="middle" x="0" y="0" style="font-family: verdana; font-size: 18px; fill: rgb(68, 68, 68); fill-opacity: 1; white-space: pre;" transform="translate(828.4046136494494,549.4069423543859)rotate(23.351351351351354)">NR80</text></g></g><g class="slice"><path class="surface" d="M811.9941970376515,471.13101303110426L889.9927462970643,488.91376628888037A400,400 0,0,0 889.9927462970643,488.91376628888037L811.9941970376515,471.13101303110426A320,320 0,0,1 811.9941970376515,471.13101303110426Z" style="pointer-events: all; stroke-width: 1; fill: rgb(254, 203, 82); fill-opacity: 1; stroke: rgb(255, 255, 255); stroke-opacity: 1; opacity: 0.7;"/><g class="slicetext"><text data-notex="1" class="slicetext" text-anchor="middle" x="0" y="0" style="font-family: verdana; font-size: 18px; fill: rgb(68, 68, 68); fill-opacity: 1; white-space: pre;" transform="translate(500,40)scale(0)">NR80</text></g></g></g></g><g class="glimages"/><defs id="topdefs-05fd58"><g class="clips"/></defs><g class="layer-above"><g class="imagelayer"/><g class="shapelayer"/></g><g class="infolayer"><g class="g-gtitle"/><g class="annotation" data-index="0" style="opacity: 1;"><g class="annotation-text-g" transform="rotate(0,120,24.00000000000002)"><g class="cursor-pointer" transform="translate(94,2)"><rect class="bg" x="0.5" y="0.5" width="51" height="44" style="stroke-width: 1px; stroke: rgb(0, 0, 0); stroke-opacity: 0; fill: rgb(0, 0, 0); fill-opacity: 0;"/><text class="annotation-text" text-anchor="middle" x="26" y="35" style="font-family: Arial; font-size: 36px; fill: rgb(0, 0, 0); fill-opacity: 1; white-space: pre;">(A)</text></g></g></g></g></svg>