<svg class="main-svg" xmlns="http://www.w3.org/2000/svg" xmlns:xlink="http://www.w3.org/1999/xlink" width="1500" height="1200" style="" viewBox="0 0 1000 800"><rect x="0" y="0" width="1000" height="800" style="fill: rgb(255, 255, 255); fill-opacity: 1;"/><defs id="defs-8ae2e0"><g class="clips"/><g class="gradients"/><g class="patterns"/></defs><g class="bglayer"/><g class="layer-below"><g class="imagelayer"/><g class="shapelayer"/></g><g class="cartesianlayer"/><g class="polarlayer"/><g class="smithlayer"/><g class="ternarylayer"/><g class="geolayer"/><g class="funnelarealayer"/><g class="pielayer"/><g class="iciclelayer"/><g class="treemaplayer"/><g class="sunburstlayer"><g class="trace sunburst" stroke-linejoin="round" style="opacity: 1;"><g class="slice"><path class="surface" d="M500,410A0,0 0,1,0 500,410A0,0 0,1,0 500,410ZM577.5,410A77.5,77.5 0,1,1 422.5,410A77.5,77.5 0,1,1 577.5,410Z" style="pointer-events: all; stroke-width: 1; fill: rgb(0, 0, 0); fill-opacity: 0; stroke: rgb(255, 255, 255); stroke-opacity: 1;"/><g class="slicetext"><text data-notex="1" class="slicetext" text-anchor="middle" x="0" y="0" style="font-family: verdana; font-size: 18px; fill: rgb(0, 0, 0); fill-opacity: 1; white-space: pre;" transform="translate(500,405.296875)"><tspan class="line" dy="0em" x="0" y="0">ArchiveII</tspan><tspan class="line" dy="1.3em" x="0" y="0">(3,975)</tspan></text></g></g><g class="slice cursor-pointer"><path class="surface" d="M577.5,410L655,410A155,155 0,0,0 431.57575265431,270.9204458765565L465.787876327155,340.46022293827826A77.5,77.5 0,0,1 577.5,410Z" style="pointer-events: all; stroke-width: 1; fill: rgb(99, 110, 250); fill-opacity: 1; stroke: rgb(255, 255, 255); stroke-opacity: 1;"/><g class="slicetext"><text data-notex="1" class="slicetext" text-anchor="middle" x="0" y="0" style="font-family: verdana; font-size: 18px; fill: rgb(255, 255, 255); fill-opacity: 1; white-space: pre;" transform="translate(550.9491960257002,327.50223432731264)rotate(31.901886792452842)">5S rRNA</text></g></g><g class="slice cursor-pointer"><path class="surface" d="M465.787876327155,340.46022293827826L431.57575265431,270.9204458765565A155,155 0,0,0 354.572394499746,463.62659376151436L427.286197249873,436.8132968807572A77.5,77.5 0,0,1 465.787876327155,340.46022293827826Z" style="pointer-events: all; stroke-width: 1; fill: rgb(239, 85, 59); fill-opacity: 1; stroke: rgb(255, 255, 255); stroke-opacity: 1;"/><g class="slicetext"><text data-notex="1" class="slicetext" text-anchor="middle" x="0" y="0" style="font-family: verdana; font-size: 18px; fill: rgb(68, 68, 68); fill-opacity: 1; white-space: pre;" transform="translate(391.9789992795848,373.8640357388558)">SRP</text></g></g><g class="slice cursor-pointer"><path class="surface" d="M427.286197249873,436.8132968807572L354.572394499746,463.62659376151436A155,155 0,0,0 448.73654862106747,556.2773343779542L474.3682743105337,483.1386671889771A77.5,77.5 0,0,1 427.286197249873,436.8132968807572Z" style="pointer-events: all; stroke-width: 1; fill: rgb(0, 204, 150); fill-opacity: 1; stroke: rgb(255, 255, 255); stroke-opacity: 1;"/><g class="slicetext"><text data-notex="1" class="slicetext" text-anchor="middle" x="0" y="0" style="font-family: verdana; font-size: 18px; fill: rgb(68, 68, 68); fill-opacity: 1; white-space: pre;" transform="translate(418.12368515460025,499.86436731026606)">tRNA</text></g></g><g class="slice cursor-pointer"><path class="surface" d="M474.3682743105337,483.1386671889771L448.73654862106747,556.2773343779542A155,155 0,0,0 559.38666066381,553.1720103064893L529.693330331905,481.5860051532446A77.5,77.5 0,0,1 474.3682743105337,483.1386671889771Z" style="pointer-events: all; stroke-width: 1; fill: rgb(171, 99, 250); fill-opacity: 1; stroke: rgb(255, 255, 255); stroke-opacity: 1;"/><g class="slicetext"><text data-notex="1" class="slicetext" text-anchor="middle" x="0" y="0" style="font-family: verdana; font-size: 18px; fill: rgb(68, 68, 68); fill-opacity: 1; white-space: pre;" transform="translate(502.91744729756346,533.2042473069998)">tmRNA</text></g></g><g class="slice cursor-pointer"><path class="surface" d="M529.693330331905,481.5860051532446L559.38666066381,553.1720103064893A155,155 0,0,0 638.8897483274095,478.80870446061925L569.4448741637048,444.4043522303096A77.5,77.5 0,0,1 529.693330331905,481.5860051532446Z" style="pointer-events: all; stroke-width: 1; fill: rgb(255, 161, 90); fill-opacity: 1; stroke: rgb(255, 255, 255); stroke-opacity: 1;"/><g class="slicetext"><text data-notex="1" class="slicetext" text-anchor="middle" x="0" y="0" style="font-family: verdana; font-size: 18px; fill: rgb(68, 68, 68); fill-opacity: 1; white-space: pre;" transform="translate(579.3328826367937,501.8996723557228)">RNaseP</text></g></g><g class="slice cursor-pointer"><path class="surface" d="M569.4448741637048,444.4043522303096L638.8897483274095,478.80870446061925A155,155 0,0,0 648.6994293459366,453.74333906085366L574.3497146729683,431.87166953042686A77.5,77.5 0,0,1 569.4448741637048,444.4043522303096Z" style="pointer-events: all; stroke-width: 1; fill: rgb(25, 211, 243); fill-opacity: 1; stroke: rgb(255, 255, 255); stroke-opacity: 1;"/><g class="slicetext"><text data-notex="1" class="slicetext" text-anchor="middle" x="0" y="0" style="font-family: verdana; font-size: 18px; fill: rgb(68, 68, 68); fill-opacity: 1; white-space: pre;" transform="translate(612.5029299966426,459.2464627225611)scale(0.694010459391937)rotate(21.37358490566038)">16S rRNA</text></g></g><g class="slice cursor-pointer"><path class="surface" d="M574.3497146729683,431.87166953042686L648.6994293459366,453.74333906085366A155,155 0,0,0 653.6679506015072,430.277104278786L576.8339753007535,420.13855213939297A77.5,77.5 0,0,1 574.3497146729683,431.87166953042686Z" style="pointer-events: all; stroke-width: 1; fill: rgb(255, 102, 146); fill-opacity: 1; stroke: rgb(255, 255, 255); stroke-opacity: 1;"/><g class="slicetext"><text data-notex="1" class="slicetext" text-anchor="middle" x="0" y="0" style="font-family: verdana; font-size: 18px; fill: rgb(68, 68, 68); fill-opacity: 1; white-space: pre;" transform="translate(625.390625449435,441.5781214867168)scale(0.7028585126582905)rotate(11.954716981132037)">Intron I</text></g></g><g class="slice cursor-pointer"><path class="surface" d="M576.8339753007535,420.13855213939297L653.6679506015072,430.277104278786A155,155 0,0,0 654.5904457011159,421.26028853672733L577.2952228505579,415.63014426836367A77.5,77.5 0,0,1 576.8339753007535,420.13855213939297Z" style="pointer-events: all; stroke-width: 1; fill: rgb(182, 232, 128); fill-opacity: 1; stroke: rgb(255, 255, 255); stroke-opacity: 1;"/><g class="slicetext"><text data-notex="1" class="slicetext" text-anchor="middle" x="0" y="0" style="font-family: verdana; font-size: 18px; fill: rgb(68, 68, 68); fill-opacity: 1; white-space: pre;" transform="translate(645.2393606074895,427.33332181822846)scale(0.35161171606628233)rotate(5.841509433962244)">TERC</text></g></g><g class="slice cursor-pointer"><path class="surface" d="M577.2952228505579,415.63014426836367L654.5904457011159,421.26028853672733A155,155 0,0,0 654.9765705765248,412.6949160171406L577.4882852882624,411.3474580085703A77.5,77.5 0,0,1 577.2952228505579,415.63014426836367Z" style="pointer-events: all; stroke-width: 1; fill: rgb(255, 151, 255); fill-opacity: 1; stroke: rgb(255, 255, 255); stroke-opacity: 1;"/><g class="slicetext"><text data-notex="1" class="slicetext" text-anchor="middle" x="0" y="0" style="font-family: verdana; font-size: 18px; fill: rgb(68, 68, 68); fill-opacity: 1; white-space: pre;" transform="translate(640.5443633143933,418.4844783453012)scale(0.30665616674001844)rotate(2.5811320754717144)">23S rRNA</text></g></g><g class="slice cursor-pointer"><path class="surface" d="M577.4882852882624,411.3474580085703L654.9765705765248,412.6949160171406A155,155 0,0,0 655,410.00000000000006L577.5,410A77.5,77.5 0,0,1 577.4882852882624,411.3474580085703Z" style="pointer-events: all; stroke-width: 1; fill: rgb(254, 203, 82); fill-opacity: 1; stroke: rgb(255, 255, 255); stroke-opacity: 1;"/><g class="slicetext"><text data-notex="1" class="slicetext" text-anchor="middle" x="0" y="0" style="font-family: verdana; font-size: 18px; fill: rgb(68, 68, 68); fill-opacity: 1; white-space: pre;" transform="translate(649.4462243410535,412.06473164229357)scale(0.10934671745966033)rotate(0.49811320754713506)">gpII intron</text></g></g><g class="slice cursor-pointer"><path class="surface" d="M655,410L732.5,410A232.5,232.5 0,0,0 444.2287378870305,184.28820074633572L462.81915859135364,259.5254671642238A155,155 0,0,1 655,410Z" style="pointer-events: all; stroke-width: 1; fill: rgb(99, 110, 250); fill-opacity: 1; stroke: rgb(255, 255, 255); stroke-opacity: 1;"/><g class="slicetext"><text data-notex="1" class="slicetext" text-anchor="middle" x="0" y="0" style="font-family: verdana; font-size: 18px; fill: rgb(255, 255, 255); fill-opacity: 1; white-space: pre;" transform="translate(608.7531579125922,271.1042480105298)rotate(38.06037735849054)">ND L600</text></g></g><g class="slice cursor-pointer"><path class="surface" d="M431.57575265431,270.9204458765565L397.363628981465,201.38066881483482A232.5,232.5 0,0,0 267.50355806119546,408.71373183352443L345.00237204079696,409.1424878890163A155,155 0,0,1 431.57575265431,270.9204458765565Z" style="pointer-events: all; stroke-width: 1; fill: rgb(239, 85, 59); fill-opacity: 1; stroke: rgb(255, 255, 255); stroke-opacity: 1;"/><g class="slicetext"><text data-notex="1" class="slicetext" text-anchor="middle" x="0" y="0" style="font-family: verdana; font-size: 18px; fill: rgb(68, 68, 68); fill-opacity: 1; white-space: pre;" transform="translate(349.144216220509,315.51365761392515)rotate(-57.93962264150946)">ND L600</text></g></g><g class="slice cursor-pointer"><path class="surface" d="M354.572394499746,463.62659376151436L281.858591749619,490.43989064227156A232.5,232.5 0,0,0 401.0063147111205,620.3722896983495L434.0042098074137,550.248193132233A155,155 0,0,1 354.572394499746,463.62659376151436Z" style="pointer-events: all; stroke-width: 1; fill: rgb(0, 204, 150); fill-opacity: 1; stroke: rgb(255, 255, 255); stroke-opacity: 1;"/><g class="slicetext"><text data-notex="1" class="slicetext" text-anchor="middle" x="0" y="0" style="font-family: verdana; font-size: 18px; fill: rgb(68, 68, 68); fill-opacity: 1; white-space: pre;" transform="translate(347.25077401214094,550.0707028639589)rotate(47.47924528301883)">ND L600</text></g></g><g class="slice cursor-pointer"><path class="surface" d="M448.73654862106747,556.2773343779542L423.1048229316012,629.4160015669313A232.5,232.5 0,0,0 569.0446215276638,632.01146420422L546.0297476851092,558.0076428028133A155,155 0,0,1 448.73654862106747,556.2773343779542Z" style="pointer-events: all; stroke-width: 1; fill: rgb(171, 99, 250); fill-opacity: 1; stroke: rgb(255, 255, 255); stroke-opacity: 1;"/><g class="slicetext"><text data-notex="1" class="slicetext" text-anchor="middle" x="0" y="0" style="font-family: verdana; font-size: 18px; fill: rgb(68, 68, 68); fill-opacity: 1; white-space: pre;" transform="translate(496.2026287353673,623.5217011383731)rotate(1.0188679245283083)">ND L600</text></g></g><g class="slice cursor-pointer"><path class="surface" d="M559.38666066381,553.1720103064893L589.079990995715,624.758015459734A232.5,232.5 0,0,0 704.0943801693774,521.3630727991898L636.0629201129183,484.2420485327932A155,155 0,0,1 559.38666066381,553.1720103064893Z" style="pointer-events: all; stroke-width: 1; fill: rgb(255, 161, 90); fill-opacity: 1; stroke: rgb(255, 255, 255); stroke-opacity: 1;"/><g class="slicetext"><text data-notex="1" class="slicetext" text-anchor="middle" x="0" y="0" style="font-family: verdana; font-size: 18px; fill: rgb(68, 68, 68); fill-opacity: 1; white-space: pre;" transform="translate(641.5799337852754,567.4905811111297)rotate(-41.95471698113204)">ND L600</text></g></g><g class="slice cursor-pointer"><path class="surface" d="M638.8897483274095,478.80870446061925L708.3346224911143,513.2130566909289A232.5,232.5 0,0,0 719.8081301165421,485.76698446334854L646.5387534110281,460.5113229755657A155,155 0,0,1 638.8897483274095,478.80870446061925Z" style="pointer-events: all; stroke-width: 1; fill: rgb(25, 211, 243); fill-opacity: 1; stroke: rgb(255, 255, 255); stroke-opacity: 1;"/><g class="slicetext"><text data-notex="1" class="slicetext" text-anchor="middle" x="0" y="0" style="font-family: verdana; font-size: 18px; fill: rgb(68, 68, 68); fill-opacity: 1; white-space: pre;" transform="translate(678.3606675866853,491.4390886330763)scale(0.9064823333634621)rotate(22.68679245283022)">ND L600</text></g></g><g class="slice cursor-pointer"><path class="surface" d="M648.6994293459366,453.74333906085366L723.0491440189049,475.61500859128046A232.5,232.5 0,0,0 729.7160465565444,445.8718267506906L653.1440310376962,433.9145511671271A155,155 0,0,1 648.6994293459366,453.74333906085366Z" style="pointer-events: all; stroke-width: 1; fill: rgb(255, 102, 146); fill-opacity: 1; stroke: rgb(255, 255, 255); stroke-opacity: 1;"/><g class="slicetext"><text data-notex="1" class="slicetext" text-anchor="middle" x="0" y="0" style="font-family: verdana; font-size: 18px; fill: rgb(68, 68, 68); fill-opacity: 1; white-space: pre;" transform="translate(689.2100093617881,459.0236671672434)scale(0.9217628290657522)rotate(12.633962264150966)">ND L600</text></g></g><g class="slice cursor-pointer"><path class="surface" d="M653.6679506015072,430.277104278786L730.5019259022607,440.41565641817897A232.5,232.5 0,0,0 731.8856685516738,426.890432805091L654.5904457011159,421.26028853672733A155,155 0,0,1 653.6679506015072,430.277104278786Z" style="pointer-events: all; stroke-width: 1; fill: rgb(182, 232, 128); fill-opacity: 1; stroke: rgb(255, 255, 255); stroke-opacity: 1;"/><g class="slicetext"><text data-notex="1" class="slicetext" text-anchor="middle" x="0" y="0" style="font-family: verdana; font-size: 18px; fill: rgb(68, 68, 68); fill-opacity: 1; white-space: pre;" transform="translate(711.0026037013585,435.0961216231056)scale(0.4986547605646133)rotate(5.841509433962244)">ND L600</text></g></g><g class="slice cursor-pointer"><path class="surface" d="M654.5904457011159,421.26028853672733L731.8856685516738,426.890432805091A232.5,232.5 0,0,0 732.3184894247055,419.18528559289365L654.8789929498037,416.1235237285958A155,155 0,0,1 654.5904457011159,421.26028853672733Z" style="pointer-events: all; stroke-width: 1; fill: rgb(255, 151, 255); fill-opacity: 1; stroke: rgb(255, 255, 255); stroke-opacity: 1;"/><g class="slicetext"><text data-notex="1" class="slicetext" text-anchor="middle" x="0" y="0" style="font-family: verdana; font-size: 18px; fill: rgb(68, 68, 68); fill-opacity: 1; white-space: pre;" transform="translate(719.7629614225431,424.4883081718579)scale(0.3057428158430479)rotate(3.215094339622624)">ND L600</text></g></g><g class="slice cursor-pointer"><path class="surface" d="M654.9765705765248,412.6949160171406L732.4648558647872,414.04237402571096A232.5,232.5 0,0,0 732.4648558647872,414.04237402571096L654.9765705765248,412.6949160171406A155,155 0,0,1 654.9765705765248,412.6949160171406Z" style="pointer-events: all; stroke-width: 1; fill: rgb(254, 203, 82); fill-opacity: 1; stroke: rgb(255, 255, 255); stroke-opacity: 1;"/><g class="slicetext"><text data-notex="1" class="slicetext" text-anchor="middle" x="0" y="0" style="font-family: verdana; font-size: 18px; fill: rgb(68, 68, 68); fill-opacity: 1; white-space: pre;" transform="translate(500,216.25000000000003)scale(0)">ND L600</text></g></g><g class="slice"><path class="surface" d="M732.5,410L810,410A310,310 0,0,0 799.1336903775195,328.642546247278L724.3502677831397,348.9819096854585A232.5,232.5 0,0,1 732.5,410Z" style="pointer-events: all; stroke-width: 1; fill: rgb(99, 110, 250); fill-opacity: 1; stroke: rgb(255, 255, 255); stroke-opacity: 1; opacity: 0.7;"/><g class="slicetext"><text data-notex="1" class="slicetext" text-anchor="middle" x="0" y="0" style="font-family: verdana; font-size: 18px; fill: rgb(255, 255, 255); fill-opacity: 1; white-space: pre;" transform="translate(771.3484228108906,380.75801058380296)">NR80</text></g></g><g class="slice"><path class="surface" d="M397.363628981465,201.38066881483482L363.15150530862,131.8408917531131A310,310 0,0,0 280.6670029800505,190.926869702725L335.50025223503786,245.69515227704375A232.5,232.5 0,0,1 397.363628981465,201.38066881483482Z" style="pointer-events: all; stroke-width: 1; fill: rgb(239, 85, 59); fill-opacity: 1; stroke: rgb(255, 255, 255); stroke-opacity: 1; opacity: 0.7;"/><g class="slicetext"><text data-notex="1" class="slicetext" text-anchor="middle" x="0" y="0" style="font-family: verdana; font-size: 18px; fill: rgb(68, 68, 68); fill-opacity: 1; white-space: pre;" transform="translate(342.0410458827282,196.48802455608532)">NR80</text></g></g><g class="slice"><path class="surface" d="M281.858591749619,490.43989064227156L209.144788999492,517.2531875230287A310,310 0,0,0 284.861611916692,633.193803616758L338.64620893751896,577.3953527125685A232.5,232.5 0,0,1 281.858591749619,490.43989064227156Z" style="pointer-events: all; stroke-width: 1; fill: rgb(0, 204, 150); fill-opacity: 1; stroke: rgb(255, 255, 255); stroke-opacity: 1; opacity: 0.7;"/><g class="slicetext"><text data-notex="1" class="slicetext" text-anchor="middle" x="0" y="0" style="font-family: verdana; font-size: 18px; fill: rgb(68, 68, 68); fill-opacity: 1; white-space: pre;" transform="translate(272.8908260026228,565.3171789990258)">NR80</text></g></g><g class="slice"><path class="surface" d="M423.1048229316012,629.4160015669313L397.47309724213494,702.5546687559083A310,310 0,0,0 487.14094325401123,719.7331830133857L490.3557074405084,642.2998872600392A232.5,232.5 0,0,1 423.1048229316012,629.4160015669313Z" style="pointer-events: all; stroke-width: 1; fill: rgb(171, 99, 250); fill-opacity: 1; stroke: rgb(255, 255, 255); stroke-opacity: 1; opacity: 0.7;"/><g class="slicetext"><text data-notex="1" class="slicetext" text-anchor="middle" x="0" y="0" style="font-family: verdana; font-size: 18px; fill: rgb(68, 68, 68); fill-opacity: 1; white-space: pre;" transform="translate(448.9622524370271,683.4051629073623)">NR80</text></g></g><g class="slice"><path class="surface" d="M589.079990995715,624.758015459734L618.77332132762,696.3440206129786A310,310 0,0,0 705.6032887299427,642.0070853733389L654.2024665474571,584.0053140300042A232.5,232.5 0,0,1 589.079990995715,624.758015459734Z" style="pointer-events: all; stroke-width: 1; fill: rgb(255, 161, 90); fill-opacity: 1; stroke: rgb(255, 255, 255); stroke-opacity: 1; opacity: 0.7;"/><g class="slicetext"><text data-notex="1" class="slicetext" text-anchor="middle" x="0" y="0" style="font-family: verdana; font-size: 18px; fill: rgb(68, 68, 68); fill-opacity: 1; white-space: pre;" transform="translate(643.8920724082916,646.9383265096251)">NR80</text></g></g><g class="slice"><path class="surface" d="M708.3346224911143,513.2130566909289L777.779496654819,547.6174089212385A310,310 0,0,0 790.4291099039363,518.4017164089543L717.8218324279521,491.30128730671566A232.5,232.5 0,0,1 708.3346224911143,513.2130566909289Z" style="pointer-events: all; stroke-width: 1; fill: rgb(25, 211, 243); fill-opacity: 1; stroke: rgb(255, 255, 255); stroke-opacity: 1; opacity: 0.7;"/><g class="slicetext"><text data-notex="1" class="slicetext" text-anchor="middle" x="0" y="0" style="font-family: verdana; font-size: 18px; fill: rgb(68, 68, 68); fill-opacity: 1; white-space: pre;" transform="translate(755.0203815940672,528.044966069582)rotate(23.41132075471694)">NR80</text></g></g><g class="slice"><path class="surface" d="M723.0491440189049,475.61500859128046L797.3988586918732,497.4866781217073A310,310 0,0,0 804.7137133210942,467.00484991709L728.5352849908207,452.7536374378175A232.5,232.5 0,0,1 723.0491440189049,475.61500859128046Z" style="pointer-events: all; stroke-width: 1; fill: rgb(255, 102, 146); fill-opacity: 1; stroke: rgb(255, 255, 255); stroke-opacity: 1; opacity: 0.7;"/><g class="slicetext"><text data-notex="1" class="slicetext" text-anchor="middle" x="0" y="0" style="font-family: verdana; font-size: 18px; fill: rgb(68, 68, 68); fill-opacity: 1; white-space: pre;" transform="translate(771.8980883728498,482.4472823288334)rotate(13.494339622641462)">NR80</text></g></g><g class="slice"><path class="surface" d="M730.5019259022607,440.41565641817897L807.3359012030144,450.55420855757194A310,310 0,0,0 808.3652106381862,441.7946043860758L731.2739079786396,433.84595328955686A232.5,232.5 0,0,1 730.5019259022607,440.41565641817897Z" style="pointer-events: all; stroke-width: 1; fill: rgb(182, 232, 128); fill-opacity: 1; stroke: rgb(255, 255, 255); stroke-opacity: 1; opacity: 0.7;"/><g class="slicetext"><text data-notex="1" class="slicetext" text-anchor="middle" x="0" y="0" style="font-family: verdana; font-size: 18px; fill: rgb(68, 68, 68); fill-opacity: 1; white-space: pre;" transform="translate(798.4003435591934,447.6701717203911)scale(0.36977381634203305)rotate(6.701886792452854)">NR80</text></g></g><g class="slice"><path class="surface" d="M731.8856685516738,426.890432805091L809.1808914022317,432.5205770734546A310,310 0,0,0 809.6515196499615,424.69477384887375L732.2386397374711,421.0210803866553A232.5,232.5 0,0,1 731.8856685516738,426.890432805091Z" style="pointer-events: all; stroke-width: 1; fill: rgb(255, 151, 255); fill-opacity: 1; stroke: rgb(255, 255, 255); stroke-opacity: 1; opacity: 0.7;"/><g class="slicetext"><text data-notex="1" class="slicetext" text-anchor="middle" x="0" y="0" style="font-family: verdana; font-size: 18px; fill: rgb(68, 68, 68); fill-opacity: 1; white-space: pre;" transform="translate(801.0492548823436,430.4248137748853)scale(0.3308750919916226)rotate(3.44150943396221)">NR80</text></g></g><g class="slice"><path class="surface" d="M732.4648558647872,414.04237402571096L809.9531411530495,415.38983203428126A310,310 0,0,0 809.9531411530495,415.38983203428126L732.4648558647872,414.04237402571096A232.5,232.5 0,0,1 732.4648558647872,414.04237402571096Z" style="pointer-events: all; stroke-width: 1; fill: rgb(254, 203, 82); fill-opacity: 1; stroke: rgb(255, 255, 255); stroke-opacity: 1; opacity: 0.7;"/><g class="slicetext"><text data-notex="1" class="slicetext" text-anchor="middle" x="0" y="0" style="font-family: verdana; font-size: 18px; fill: rgb(68, 68, 68); fill-opacity: 1; white-space: pre;" transform="translate(500,138.75)scale(0)">NR80</text></g></g></g></g><g class="glimages"/><defs id="topdefs-8ae2e0"><g class="clips"/></defs><g class="layer-above"><g class="imagelayer"/><g class="shapelayer"/></g><g class="infolayer"><g class="g-gtitle"/><g class="annotation" data-index="0" style="opacity: 1;"><g class="annotation-text-g" transform="rotate(0,187.5,112.4)"><g class="cursor-pointer" transform="translate(169,96)"><rect class="bg" x="0.5" y="0.5" width="36" height="31" style="stroke-width: 1px; stroke: rgb(0, 0, 0); stroke-opacity: 0; fill: rgb(0, 0, 0); fill-opacity: 0;"/><text class="annotation-text" text-anchor="middle" x="18.671875" y="25" style="font-family: Arial; font-size: 25px; fill: rgb(0, 0, 0); fill-opacity: 1; white-space: pre;">(A)</text></g></g></g></g></svg>