<svg class="main-svg" xmlns="http://www.w3.org/2000/svg" xmlns:xlink="http://www.w3.org/1999/xlink" width="2400" height="1600" style="" viewBox="0 0 1200 800"><rect x="0" y="0" width="1200" height="800" style="fill: rgb(255, 255, 255); fill-opacity: 1;"/><defs id="defs-4af840"><g class="clips"/><g class="gradients"/><g class="patterns"/></defs><g class="bglayer"/><g class="layer-below"><g class="imagelayer"/><g class="shapelayer"/></g><g class="cartesianlayer"/><g class="polarlayer"/><g class="smithlayer"/><g class="ternarylayer"/><g class="geolayer"/><g class="funnelarealayer"/><g class="pielayer"><g class="trace" stroke-linejoin="round" style="opacity: 1;"><g class="slice"><path class="surface" d="M569.456069444209,439.2091035866654a113.39999999999999,113.39999999999999 0 1 0 30.54393055579098,-222.6091035866654l0,-156.60000000000002a270,270 0 1 1 -72.72364418045471,530.0216752063462Z" style="pointer-events: all; stroke-width: 0; fill: rgb(99, 110, 250); fill-opacity: 1; stroke: rgb(68, 68, 68); stroke-opacity: 1;"/><g class="slicetext"><text data-notex="1" class="slicetext" transform="translate(789.9205888619111,351.35565329724403)" text-anchor="middle" x="0" y="0" style="font-family: verdana; font-size: 18px; fill: rgb(255, 255, 255); fill-opacity: 1; white-space: pre;"><tspan class="line" dy="0em" x="0" y="0">CRW</tspan><tspan class="line" dy="1.3em" x="0" y="0">54.3%</tspan></text></g></g><g class="slice"><path class="surface" d="M600,216.60000000000002a113.39999999999999,113.39999999999999 0 0 0 -52.79444666765963,213.7608808304094l-72.90661682676807,138.5935973372321a270,270 0 0 1 125.70106349442769,-508.95447816764147Z" style="pointer-events: all; stroke-width: 0; fill: rgb(239, 85, 59); fill-opacity: 1; stroke: rgb(68, 68, 68); stroke-opacity: 1;"/><g class="slicetext"><text data-notex="1" class="slicetext" transform="translate(413.8921453028337,279.3321448254585)" text-anchor="middle" x="0" y="0" style="font-family: verdana; font-size: 18px; fill: rgb(68, 68, 68); fill-opacity: 1; white-space: pre;"><tspan class="line" dy="0em" x="0" y="0">RFAM</tspan><tspan class="line" dy="1.3em" x="0" y="0">42.3%</tspan></text></g></g><g class="slice"><path class="surface" d="M547.2055533323404,430.3608808304094a113.39999999999999,113.39999999999999 0 0 0 5.99842500615178,2.9333220885137945l-64.62307753255847,142.6443754594654a270,270 0 0 1 -14.28196430036138,-6.98410021074713Z" style="pointer-events: all; stroke-width: 0; fill: rgb(0, 204, 150); fill-opacity: 1; stroke: rgb(68, 68, 68); stroke-opacity: 1;"/><g class="slicetext"><text data-notex="1" class="slicetext" transform="translate(434.17756515554817,586.170282418374)" text-anchor="middle" x="0" y="0" style="font-family: verdana; font-size: 18px; fill: rgb(0, 0, 0); fill-opacity: 1; white-space: pre;"><tspan class="line" dy="0em" x="0" y="0">SRP</tspan><tspan class="line" dy="1.3em" x="0" y="0">0.937%</tspan></text></g></g><g class="slice"><path class="surface" d="M553.2039783384921,433.29420291892325a113.39999999999999,113.39999999999999 0 0 0 4.663017030290486,1.9881314052444485l-58.18367306215732,145.38989025718394a270,270 0 0 1 -11.102421500691634,-4.733646202962973Z" style="pointer-events: all; stroke-width: 0; fill: rgb(171, 99, 250); fill-opacity: 1; stroke: rgb(68, 68, 68); stroke-opacity: 1;"/><g class="slicetext"><text data-notex="1" class="slicetext" transform="translate(446.8947205589607,631.576532418374)" text-anchor="middle" x="0" y="0" style="font-family: verdana; font-size: 18px; fill: rgb(0, 0, 0); fill-opacity: 1; white-space: pre;"><tspan class="line" dy="0em" x="0" y="0">tmRNA</tspan><tspan class="line" dy="1.3em" x="0" y="0">0.712%</tspan></text></g><path class="textline" stroke-width="2" d="M494.1056580589607,578.3674462260991V636.279657418374h-11.3515625" fill="none" style="stroke: rgb(0, 0, 0); stroke-opacity: 1;"/></g><g class="slice"><path class="surface" d="M557.8669953687827,435.28233432416766a113.39999999999999,113.39999999999999 0 0 0 4.359565838113094,1.6415980845480425l-52.163320238096375,147.65685904060743a270,270 0 0 1 -10.379918662174035,-3.9085668679715297Z" style="pointer-events: all; stroke-width: 0; fill: rgb(255, 161, 90); fill-opacity: 1; stroke: rgb(68, 68, 68); stroke-opacity: 1;"/><g class="slicetext"><text data-notex="1" class="slicetext" transform="translate(457.64227185460646,676.982782418374)" text-anchor="middle" x="0" y="0" style="font-family: verdana; font-size: 18px; fill: rgb(0, 0, 0); fill-opacity: 1; white-space: pre;"><tspan class="line" dy="0em" x="0" y="0">PDB</tspan><tspan class="line" dy="1.3em" x="0" y="0">0.654%</tspan></text></g><path class="textline" stroke-width="2" d="M504.85320935460646,582.6798136572877V681.685907418374h-11.3515625" fill="none" style="stroke: rgb(0, 0, 0); stroke-opacity: 1;"/></g><g class="slice"><path class="surface" d="M562.2265612068958,436.9239324087157a113.39999999999999,113.39999999999999 0 0 0 4.117277650650919,1.366523390275235l-46.47755586338796,149.54396277003514a270,270 0 0 1 -9.803042025359332,-3.2536271197029407Z" style="pointer-events: all; stroke-width: 0; fill: rgb(25, 211, 243); fill-opacity: 1; stroke: rgb(68, 68, 68); stroke-opacity: 1;"/><g class="slicetext"><text data-notex="1" class="slicetext" transform="translate(467.73826457766995,722.389032418374)" text-anchor="middle" x="0" y="0" style="font-family: verdana; font-size: 18px; fill: rgb(0, 0, 0); fill-opacity: 1; white-space: pre;"><tspan class="line" dy="0em" x="0" y="0">tRNA</tspan><tspan class="line" dy="1.3em" x="0" y="0">0.609%</tspan></text></g><path class="textline" stroke-width="2" d="M514.94920207767,586.2544863466296V727.092157418374h-11.3515625" fill="none" style="stroke: rgb(0, 0, 0); stroke-opacity: 1;"/></g><g class="slice"><path class="surface" d="M566.3438388575466,438.29045579899093a113.39999999999999,113.39999999999999 0 0 0 3.1122305866621955,0.9186477876744197l-42.179713624663975,150.81257161968077a270,270 0 0 1 -7.41007282538618,-2.187256637320047Z" style="pointer-events: all; stroke-width: 0; fill: rgb(255, 102, 146); fill-opacity: 1; stroke: rgb(68, 68, 68); stroke-opacity: 1;"/><g class="slicetext"><text data-notex="1" class="slicetext" transform="translate(475.0244328696282,767.795282418374)" text-anchor="middle" x="0" y="0" style="font-family: verdana; font-size: 18px; fill: rgb(0, 0, 0); fill-opacity: 1; white-space: pre;"><tspan class="line" dy="0em" x="0" y="0">RNase P</tspan><tspan class="line" dy="1.3em" x="0" y="0">0.455%</tspan></text></g><path class="textline" stroke-width="2" d="M523.5634953696282,588.9545534642925V772.498407418374h-11.3515625" fill="none" style="stroke: rgb(0, 0, 0); stroke-opacity: 1;"/></g></g></g><g class="iciclelayer"/><g class="treemaplayer"/><g class="sunburstlayer"/><g class="glimages"/><defs id="topdefs-4af840"><g class="clips"/></defs><g class="layer-above"><g class="imagelayer"/><g class="shapelayer"/></g><g class="infolayer"><g class="g-gtitle"/><g class="annotation" data-index="0" style="opacity: 1;"><g class="annotation-text-g" transform="rotate(0,600,330)"><g class="cursor-pointer" transform="translate(545,302)"><rect class="bg" x="0.5" y="0.5" width="110" height="55" style="stroke-width: 1px; stroke: rgb(0, 0, 0); stroke-opacity: 0; fill: rgb(0, 0, 0); fill-opacity: 0;"/><text class="annotation-text" text-anchor="middle" x="55.421875" y="23" style="font-family: verdana; font-size: 21px; fill: rgb(0, 0, 0); fill-opacity: 1; white-space: pre;"><tspan class="line" dy="0em" x="55.421875" y="23">bpRNA</tspan><tspan class="line" dy="1.3em" x="55.421875" y="23">(102,318)</tspan></text></g></g></g></g></svg>