<svg class="main-svg" xmlns="http://www.w3.org/2000/svg" xmlns:xlink="http://www.w3.org/1999/xlink" width="2400" height="1600" style="" viewBox="0 0 1200 800"><rect x="0" y="0" width="1200" height="800" style="fill: rgb(255, 255, 255); fill-opacity: 1;"/><defs id="defs-621853"><g class="clips"/><g class="gradients"/><g class="patterns"/></defs><g class="bglayer"/><g class="layer-below"><g class="imagelayer"/><g class="shapelayer"/></g><g class="cartesianlayer"/><g class="polarlayer"/><g class="smithlayer"/><g class="ternarylayer"/><g class="geolayer"/><g class="funnelarealayer"/><g class="pielayer"><g class="trace" stroke-linejoin="round" style="opacity: 1;"><g class="slice"><path class="surface" d="M522.2750187188024,348.6307609697975a118.44,118.44 0 1 0 77.72498128119767,-29.07076096979749l0,-163.56000000000003a282,282 0 1 1 -185.05947924094684,69.21609754713688Z" style="pointer-events: all; stroke-width: 0; fill: rgb(99, 110, 250); fill-opacity: 1; stroke: rgb(68, 68, 68); stroke-opacity: 1;"/><g class="slicetext"><text data-notex="1" class="slicetext" transform="translate(670.140920318065,620.8290047723002)" text-anchor="middle" x="0" y="0" style="font-family: verdana; font-size: 18px; fill: rgb(255, 255, 255); fill-opacity: 1; white-space: pre;"><tspan class="line" dy="0em" x="0" y="0">RFAM</tspan><tspan class="line" dy="1.3em" x="0" y="0">88.6%</tspan></text></g></g><g class="slice"><path class="surface" d="M600,319.56a118.44,118.44 0 0 0 -49.268846209146666,10.733851646159714l-68.03793047929778,-148.73706201244613a282,282 0 0 1 117.30677668844444,-25.556789633713606Z" style="pointer-events: all; stroke-width: 0; fill: rgb(239, 85, 59); fill-opacity: 1; stroke: rgb(68, 68, 68); stroke-opacity: 1;"/><g class="slicetext"><text data-notex="1" class="slicetext" transform="translate(550.50645028594,206.11932777917502)" text-anchor="middle" x="0" y="0" style="font-family: verdana; font-size: 18px; fill: rgb(68, 68, 68); fill-opacity: 1; white-space: pre;"><tspan class="line" dy="0em" x="0" y="0">CRW</tspan><tspan class="line" dy="1.3em" x="0" y="0">6.83%</tspan></text></g></g><g class="slice"><path class="surface" d="M550.7311537908533,330.29385164615974a118.44,118.44 0 0 0 -7.993953870692134,4.028738437232061l-79.07720011025359,-143.17356607531613a282,282 0 0 1 19.03322350164794,-9.59223437436205Z" style="pointer-events: all; stroke-width: 0; fill: rgb(0, 204, 150); fill-opacity: 1; stroke: rgb(68, 68, 68); stroke-opacity: 1;"/><g class="slicetext"><text data-notex="1" class="slicetext" transform="translate(437.3281433784343,23.042219473338548)" text-anchor="middle" x="0" y="0" style="font-family: verdana; font-size: 18px; fill: rgb(0, 0, 0); fill-opacity: 1; white-space: pre;"><tspan class="line" dy="0em" x="0" y="0">SRP</tspan><tspan class="line" dy="1.3em" x="0" y="0">1.2%</tspan></text></g><path class="textline" stroke-width="2" d="M473.0859558784343,186.17302486685574V27.745344473338548h-11.3515625" fill="none" style="stroke: rgb(0, 0, 0); stroke-opacity: 1;"/></g><g class="slice"><path class="surface" d="M542.7371999201612,334.3225900833918a118.44,118.44 0 0 0 -7.573209143594424,4.559674329182289l-89.53544130855066,-136.8768729540644a282,282 0 0 1 18.031450341891485,-10.856367450434021Z" style="pointer-events: all; stroke-width: 0; fill: rgb(171, 99, 250); fill-opacity: 1; stroke: rgb(68, 68, 68); stroke-opacity: 1;"/><g class="slicetext"><text data-notex="1" class="slicetext" transform="translate(413.0663920405646,68.44846947333855)" text-anchor="middle" x="0" y="0" style="font-family: verdana; font-size: 18px; fill: rgb(0, 0, 0); fill-opacity: 1; white-space: pre;"><tspan class="line" dy="0em" x="0" y="0">tRNA</tspan><tspan class="line" dy="1.3em" x="0" y="0">1.19%</tspan></text></g><path class="textline" stroke-width="2" d="M454.5429545405646,196.40892415858622V73.15159447333855h-11.3515625" fill="none" style="stroke: rgb(0, 0, 0); stroke-opacity: 1;"/></g><g class="slice"><path class="surface" d="M535.1639907765668,338.88226441257405a118.44,118.44 0 0 0 -5.737577844082653,3.999901253249909l-97.45876309323623,-131.35319979481451a282,282 0 0 1 13.66089962876822,-9.523574412499784Z" style="pointer-events: all; stroke-width: 0; fill: rgb(255, 161, 90); fill-opacity: 1; stroke: rgb(68, 68, 68); stroke-opacity: 1;"/><g class="slicetext"><text data-notex="1" class="slicetext" transform="translate(390.188722618831,113.85471947333855)" text-anchor="middle" x="0" y="0" style="font-family: verdana; font-size: 18px; fill: rgb(0, 0, 0); fill-opacity: 1; white-space: pre;"><tspan class="line" dy="0em" x="0" y="0">RNase P</tspan><tspan class="line" dy="1.3em" x="0" y="0">0.94%</tspan></text></g><path class="textline" stroke-width="2" d="M438.727785118831,206.66631739558105V118.55784447333855h-11.3515625" fill="none" style="stroke: rgb(0, 0, 0); stroke-opacity: 1;"/></g><g class="slice"><path class="surface" d="M529.4264129324841,342.882165665824a118.44,118.44 0 0 0 -4.586932529156396,3.5813394594090333l-103.79309849064268,-126.40754054134491a282,282 0 0 1 10.921267926562848,-8.526998712878651Z" style="pointer-events: all; stroke-width: 0; fill: rgb(25, 211, 243); fill-opacity: 1; stroke: rgb(68, 68, 68); stroke-opacity: 1;"/><g class="slicetext"><text data-notex="1" class="slicetext" transform="translate(379.243699649175,159.26096947333855)" text-anchor="middle" x="0" y="0" style="font-family: verdana; font-size: 18px; fill: rgb(0, 0, 0); fill-opacity: 1; white-space: pre;"><tspan class="line" dy="0em" x="0" y="0">tmRNA</tspan><tspan class="line" dy="1.3em" x="0" y="0">0.782%</tspan></text></g><path class="textline" stroke-width="2" d="M426.454637149175,215.7253792423087V163.96409447333855h-11.3515625" fill="none" style="stroke: rgb(0, 0, 0); stroke-opacity: 1;"/></g><g class="slice"><path class="surface" d="M524.8394804033277,346.46350512523304a118.44,118.44 0 0 0 -2.564461684525353,2.1672558445644357l-107.33449795974911,-123.4146634226607a282,282 0 0 1 6.105861153631793,-5.160132963248657Z" style="pointer-events: all; stroke-width: 0; fill: rgb(255, 102, 146); fill-opacity: 1; stroke: rgb(68, 68, 68); stroke-opacity: 1;"/><g class="slicetext"><text data-notex="1" class="slicetext" transform="translate(370.764227656844,204.66721947333855)" text-anchor="middle" x="0" y="0" style="font-family: verdana; font-size: 18px; fill: rgb(0, 0, 0); fill-opacity: 1; white-space: pre;"><tspan class="line" dy="0em" x="0" y="0">PDB</tspan><tspan class="line" dy="1.3em" x="0" y="0">0.451%</tspan></text></g></g></g></g><g class="iciclelayer"/><g class="treemaplayer"/><g class="sunburstlayer"/><g class="glimages"/><defs id="topdefs-621853"><g class="clips"/></defs><g class="layer-above"><g class="imagelayer"/><g class="shapelayer"/></g><g class="infolayer"><g class="g-gtitle"/><g class="annotation" data-index="0" style="opacity: 1;"><g class="annotation-text-g" transform="rotate(0,600,438)"><g class="cursor-pointer" transform="translate(500,410)"><rect class="bg" x="0.5" y="0.5" width="200" height="55" style="stroke-width: 1px; stroke: rgb(0, 0, 0); stroke-opacity: 0; fill: rgb(0, 0, 0); fill-opacity: 0;"/><text class="annotation-text" text-anchor="middle" x="100.265625" y="23" style="font-family: verdana; font-size: 21px; fill: rgb(0, 0, 0); fill-opacity: 1; white-space: pre;"><tspan class="line" dy="0em" x="100.265625" y="23">bpRNA NR80-L600</tspan><tspan class="line" dy="1.3em" x="100.265625" y="23">(13,298)</tspan></text></g></g></g></g></svg>