<svg class="main-svg" xmlns="http://www.w3.org/2000/svg" xmlns:xlink="http://www.w3.org/1999/xlink" width="2400" height="1600" style="" viewBox="0 0 1200 800"><rect x="0" y="0" width="1200" height="800" style="fill: rgb(255, 255, 255); fill-opacity: 1;"/><defs id="defs-bd75fe"><g class="clips"/><g class="gradients"/><g class="patterns"/></defs><g class="bglayer"/><g class="layer-below"><g class="imagelayer"/><g class="shapelayer"/></g><g class="cartesianlayer"/><g class="polarlayer"/><g class="smithlayer"/><g class="ternarylayer"/><g class="geolayer"/><g class="funnelarealayer"/><g class="pielayer"><g class="trace" stroke-linejoin="round" style="opacity: 1;"><g class="slice"><path class="surface" d="M638.7886647224839,490.687507439053a129.15,129.15 0 0 0 -38.788664722483865,-252.33750743905296l0,-178.35000000000002a307.5,307.5 0 0 1 92.3539636249616,600.8035891406023Z" style="pointer-events: all; stroke-width: 0; fill: rgb(99, 110, 250); fill-opacity: 1; stroke: rgb(68, 68, 68); stroke-opacity: 1;"/><g class="slicetext"><text data-notex="1" class="slicetext" transform="translate(815.446674898067,329.6261326611302)" text-anchor="middle" x="0" y="0" style="font-family: verdana; font-size: 18px; fill: rgb(255, 255, 255); fill-opacity: 1; white-space: pre;"><tspan class="line" dy="0em" x="0" y="0">5S rRNA</tspan><tspan class="line" dy="1.3em" x="0" y="0">45.1%</tspan></text></g></g><g class="slice"><path class="surface" d="M600,238.35a129.15,129.15 0 0 0 -117.91380076171467,181.83831075225945l-162.83334390903457,72.76004818169162a307.5,307.5 0 0 1 280.7471446707492,-432.94835893395106Z" style="pointer-events: all; stroke-width: 0; fill: rgb(239, 85, 59); fill-opacity: 1; stroke: rgb(68, 68, 68); stroke-opacity: 1;"/><g class="slicetext"><text data-notex="1" class="slicetext" transform="translate(416.8175092569968,244.01143519280174)" text-anchor="middle" x="0" y="0" style="font-family: verdana; font-size: 18px; fill: rgb(68, 68, 68); fill-opacity: 1; white-space: pre;"><tspan class="line" dy="0em" x="0" y="0">tRNA</tspan><tspan class="line" dy="1.3em" x="0" y="0">31.7%</tspan></text></g></g><g class="slice"><path class="surface" d="M482.0861992382853,420.18831075225944a129.15,129.15 0 0 0 35.630124947189834,46.85624808673578l-113.62983802958193,137.46629553956484a307.5,307.5 0 0 1 -84.83363082664246,-111.56249544460901Z" style="pointer-events: all; stroke-width: 0; fill: rgb(0, 204, 150); fill-opacity: 1; stroke: rgb(68, 68, 68); stroke-opacity: 1;"/><g class="slicetext"><text data-notex="1" class="slicetext" transform="translate(400.65737944742244,514.3797005058095)" text-anchor="middle" x="0" y="0" style="font-family: verdana; font-size: 18px; fill: rgb(68, 68, 68); fill-opacity: 1; white-space: pre;"><tspan class="line" dy="0em" x="0" y="0">Intron I</tspan><tspan class="line" dy="1.3em" x="0" y="0">7.32%</tspan></text></g></g><g class="slice"><path class="surface" d="M517.7163241854752,467.0445588389952a129.15,129.15 0 0 0 44.642451989989965,23.99839227109957l-51.98073766245292,170.60693248536901a307.5,307.5 0 0 1 -106.29155235711897,-57.13902921690374Z" style="pointer-events: all; stroke-width: 0; fill: rgb(171, 99, 250); fill-opacity: 1; stroke: rgb(68, 68, 68); stroke-opacity: 1;"/><g class="slicetext"><text data-notex="1" class="slicetext" transform="translate(477.9333384264537,589.2145618794345)" text-anchor="middle" x="0" y="0" style="font-family: verdana; font-size: 18px; fill: rgb(68, 68, 68); fill-opacity: 1; white-space: pre;"><tspan class="line" dy="0em" x="0" y="0">16S rRNA</tspan><tspan class="line" dy="1.3em" x="0" y="0">6.29%</tspan></text></g></g><g class="slice"><path class="surface" d="M562.3587761754651,491.0429511100948a129.15,129.15 0 0 0 26.824005808337166,5.153242673521225l-14.938062974749204,177.72331522499357a307.5,307.5 0 0 1 -63.86668049604087,-12.269625413145775Z" style="pointer-events: all; stroke-width: 0; fill: rgb(255, 161, 90); fill-opacity: 1; stroke: rgb(68, 68, 68); stroke-opacity: 1;"/><g class="slicetext"><text data-notex="1" class="slicetext" transform="translate(543.9281229420938,634.4404148781502)rotate(-79.12522551695429)" text-anchor="middle" x="0" y="0" style="font-family: verdana; font-size: 18px; fill: rgb(68, 68, 68); fill-opacity: 1; white-space: pre;"><tspan class="line" dy="0em" x="0" y="0">SRP</tspan><tspan class="line" dy="1.3em" x="0" y="0">3.37%</tspan></text></g></g><g class="slice"><path class="surface" d="M589.1827819838023,496.196193783616a129.15,129.15 0 0 0 26.525697705232957,-0.505062398253931l21.692662427715362,177.02584810359528a307.5,307.5 0 0 1 -63.15642310769752,1.2025295196522165Z" style="pointer-events: all; stroke-width: 0; fill: rgb(25, 211, 243); fill-opacity: 1; stroke: rgb(68, 68, 68); stroke-opacity: 1;"/><g class="slicetext"><text data-notex="1" class="slicetext" transform="translate(609.8008924200332,635.1881627840855)rotate(88.90919183975575)" text-anchor="middle" x="0" y="0" style="font-family: verdana; font-size: 18px; fill: rgb(68, 68, 68); fill-opacity: 1; white-space: pre;"><tspan class="line" dy="0em" x="0" y="0">RNase P</tspan><tspan class="line" dy="1.3em" x="0" y="0">3.28%</tspan></text></g></g><g class="slice"><path class="surface" d="M615.7084796890352,495.69113138536204a129.15,129.15 0 0 0 20.998046095392805,-4.367250551182456l50.689964178495906,170.99488305672426a307.5,307.5 0 0 1 -49.995347846173345,10.398215598053469Z" style="pointer-events: all; stroke-width: 0; fill: rgb(255, 102, 146); fill-opacity: 1; stroke: rgb(68, 68, 68); stroke-opacity: 1;"/><g class="slicetext"><text data-notex="1" class="slicetext" transform="translate(705.4197253509776,767.8882154990099)" text-anchor="middle" x="0" y="0" style="font-family: verdana; font-size: 18px; fill: rgb(0, 0, 0); fill-opacity: 1; white-space: pre;"><tspan class="line" dy="0em" x="0" y="0">tmRNA</tspan><tspan class="line" dy="1.3em" x="0" y="0">2.65%</tspan></text></g><path class="textline" stroke-width="2" d="M662.6150378509776,668.557481280437V772.5913404990099h11.3515625" fill="none" style="stroke: rgb(0, 0, 0); stroke-opacity: 1;"/></g><g class="slice"><path class="surface" d="M636.7065257844281,491.3238808341796a129.15,129.15 0 0 0 1.3295031618136597,-0.401909524365185l52.525944735286195,170.43986514212472a307.5,307.5 0 0 1 -3.1654837186039515,0.9569274389647262Z" style="pointer-events: all; stroke-width: 0; fill: rgb(182, 232, 128); fill-opacity: 1; stroke: rgb(68, 68, 68); stroke-opacity: 1;"/><g class="slicetext"><text data-notex="1" class="slicetext" transform="translate(736.1914557228351,722.4819654990099)" text-anchor="middle" x="0" y="0" style="font-family: verdana; font-size: 18px; fill: rgb(0, 0, 0); fill-opacity: 1; white-space: pre;"><tspan class="line" dy="0em" x="0" y="0">TERC</tspan><tspan class="line" dy="1.3em" x="0" y="0">0.171%</tspan></text></g><path class="textline" stroke-width="2" d="M688.9805182228351,661.8445555412835V727.1850904990099h11.3515625" fill="none" style="stroke: rgb(0, 0, 0); stroke-opacity: 1;"/></g><g class="slice"><path class="surface" d="M638.0360289462417,490.92197130981447a129.15,129.15 0 0 0 0.7526357762420548,-0.23446387076143196l53.56529890247761,170.11608170154943a307.5,307.5 0 0 1 -1.7919899434334638,0.5582473113367428Z" style="pointer-events: all; stroke-width: 0; fill: rgb(255, 151, 255); fill-opacity: 1; stroke: rgb(68, 68, 68); stroke-opacity: 1;"/><g class="slicetext"><text data-notex="1" class="slicetext" transform="translate(746.559957085697,677.0757154990099)" text-anchor="middle" x="0" y="0" style="font-family: verdana; font-size: 18px; fill: rgb(0, 0, 0); fill-opacity: 1; white-space: pre;"><tspan class="line" dy="0em" x="0" y="0">23S rRNA</tspan><tspan class="line" dy="1.3em" x="0" y="0">0.0971%</tspan></text></g></g></g></g><g class="iciclelayer"/><g class="treemaplayer"/><g class="sunburstlayer"/><g class="glimages"/><defs id="topdefs-bd75fe"><g class="clips"/></defs><g class="layer-above"><g class="imagelayer"/><g class="shapelayer"/></g><g class="infolayer"><g class="g-gtitle"/><g class="annotation" data-index="0" style="opacity: 1;"><g class="annotation-text-g" transform="rotate(0,600,367.5)"><g class="cursor-pointer" transform="translate(517,340)"><rect class="bg" x="0.5" y="0.5" width="166" height="55" style="stroke-width: 1px; stroke: rgb(0, 0, 0); stroke-opacity: 0; fill: rgb(0, 0, 0); fill-opacity: 0;"/><text class="annotation-text" text-anchor="middle" x="83.34375" y="23" style="font-family: verdana; font-size: 21px; fill: rgb(0, 0, 0); fill-opacity: 1; white-space: pre;"><tspan class="line" dy="0em" x="83.34375" y="23">Strive ND-L600</tspan><tspan class="line" dy="1.3em" x="83.34375" y="23">(21,617)</tspan></text></g></g></g></g></svg>