<svg class="main-svg" xmlns="http://www.w3.org/2000/svg" xmlns:xlink="http://www.w3.org/1999/xlink" width="2400" height="1600" style="" viewBox="0 0 1200 800"><rect x="0" y="0" width="1200" height="800" style="fill: rgb(255, 255, 255); fill-opacity: 1;"/><defs id="defs-c607f0"><g class="clips"/><g class="gradients"/><g class="patterns"/></defs><g class="bglayer"/><g class="layer-below"><g class="imagelayer"/><g class="shapelayer"/></g><g class="cartesianlayer"/><g class="polarlayer"/><g class="smithlayer"/><g class="ternarylayer"/><g class="geolayer"/><g class="funnelarealayer"/><g class="pielayer"><g class="trace" stroke-linejoin="round" style="opacity: 1;"><g class="slice"><path class="surface" d="M506.5348436479833,416.8967704041145a138.6,138.6 0 1 0 135.96515635201672,-165.49677040411447l0,-191.40000000000003a330,330 0 1 1 -323.72656274289693,394.0399295336059Z" style="pointer-events: all; stroke-width: 0; fill: rgb(99, 110, 250); fill-opacity: 1; stroke: rgb(68, 68, 68); stroke-opacity: 1;"/><g class="slicetext"><text data-notex="1" class="slicetext" transform="translate(823.5382893170722,534.0302868520382)" text-anchor="middle" x="0" y="0" style="font-family: verdana; font-size: 18px; fill: rgb(255, 255, 255); fill-opacity: 1; white-space: pre;"><tspan class="line" dy="0em" x="0" y="0">RFAM</tspan><tspan class="line" dy="1.3em" x="0" y="0">71.9%</tspan></text></g></g><g class="slice"><path class="surface" d="M642.5,251.4a138.6,138.6 0 0 0 -138.59764189271533,139.40849352417663l-191.39674356613074,1.116491057196306a330,330 0 0 1 329.99438545884607,-331.92498458137294Z" style="pointer-events: all; stroke-width: 0; fill: rgb(239, 85, 59); fill-opacity: 1; stroke: rgb(68, 68, 68); stroke-opacity: 1;"/><g class="slicetext"><text data-notex="1" class="slicetext" transform="translate(476.3423685772075,220.10567814021744)" text-anchor="middle" x="0" y="0" style="font-family: verdana; font-size: 18px; fill: rgb(68, 68, 68); fill-opacity: 1; white-space: pre;"><tspan class="line" dy="0em" x="0" y="0">CRW</tspan><tspan class="line" dy="1.3em" x="0" y="0">25.1%</tspan></text></g></g><g class="slice"><path class="surface" d="M503.90235810728467,390.80849352417664a138.6,138.6 0 0 0 0.24387018379739514,7.449463482045409l-191.05997045517245,11.403845389544728a330,330 0 0 1 -0.5806432947557028,-17.73681781439383Z" style="pointer-events: all; stroke-width: 0; fill: rgb(0, 204, 150); fill-opacity: 1; stroke: rgb(68, 68, 68); stroke-opacity: 1;"/><g class="slicetext"><text data-notex="1" class="slicetext" transform="translate(265.4657486327993,396.1184768978604)" text-anchor="middle" x="0" y="0" style="font-family: verdana; font-size: 18px; fill: rgb(0, 0, 0); fill-opacity: 1; white-space: pre;"><tspan class="line" dy="0em" x="0" y="0">SRP</tspan><tspan class="line" dy="1.3em" x="0" y="0">0.856%</tspan></text></g></g><g class="slice"><path class="surface" d="M504.146228291082,398.25795700622206a138.6,138.6 0 0 0 0.49188915948179895,6.027047016370082l-190.38069494922138,19.72691031691294a330,330 0 0 1 -1.1711646654328547,-14.350111943738291Z" style="pointer-events: all; stroke-width: 0; fill: rgb(171, 99, 250); fill-opacity: 1; stroke: rgb(68, 68, 68); stroke-opacity: 1;"/><g class="slicetext"><text data-notex="1" class="slicetext" transform="translate(265.05450684488636,441.5247268978604)" text-anchor="middle" x="0" y="0" style="font-family: verdana; font-size: 18px; fill: rgb(0, 0, 0); fill-opacity: 1; white-space: pre;"><tspan class="line" dy="0em" x="0" y="0">RNase P</tspan><tspan class="line" dy="1.3em" x="0" y="0">0.694%</tspan></text></g><path class="textline" stroke-width="2" d="M313.59356934488636,416.8432463333506V446.2278518978604h-11.3515625" fill="none" style="stroke: rgb(0, 0, 0); stroke-opacity: 1;"/></g><g class="slice"><path class="surface" d="M504.63811745056387,404.28500402259215a138.6,138.6 0 0 0 0.5687504248614459,4.703304786358372l-189.59527769584128,26.221950259979263a330,330 0 0 1 -1.354167678241538,-11.198344729424697Z" style="pointer-events: all; stroke-width: 0; fill: rgb(255, 161, 90); fill-opacity: 1; stroke: rgb(68, 68, 68); stroke-opacity: 1;"/><g class="slicetext"><text data-notex="1" class="slicetext" transform="translate(267.675718193658,486.9309768978604)" text-anchor="middle" x="0" y="0" style="font-family: verdana; font-size: 18px; fill: rgb(0, 0, 0); fill-opacity: 1; white-space: pre;"><tspan class="line" dy="0em" x="0" y="0">tRNA</tspan><tspan class="line" dy="1.3em" x="0" y="0">0.544%</tspan></text></g><path class="textline" stroke-width="2" d="M314.886655693658,429.6168730771906V491.6341018978604h-11.3515625" fill="none" style="stroke: rgb(0, 0, 0); stroke-opacity: 1;"/></g><g class="slice"><path class="surface" d="M505.2068678754253,408.9883088089505a138.6,138.6 0 0 0 0.6579923964875274,4.266767873057884l-188.68662152926328,32.114153513249676a330,330 0 0 1 -1.5666485630655416,-10.158971126328296Z" style="pointer-events: all; stroke-width: 0; fill: rgb(25, 211, 243); fill-opacity: 1; stroke: rgb(68, 68, 68); stroke-opacity: 1;"/><g class="slicetext"><text data-notex="1" class="slicetext" transform="translate(269.1444197601433,532.3372268978603)" text-anchor="middle" x="0" y="0" style="font-family: verdana; font-size: 18px; fill: rgb(0, 0, 0); fill-opacity: 1; white-space: pre;"><tspan class="line" dy="0em" x="0" y="0">tmRNA</tspan><tspan class="line" dy="1.3em" x="0" y="0">0.496%</tspan></text></g><path class="textline" stroke-width="2" d="M316.3553572601433,440.2958448789883V537.0403518978603h-11.3515625" fill="none" style="stroke: rgb(0, 0, 0); stroke-opacity: 1;"/></g><g class="slice"><path class="surface" d="M505.8648602719128,413.2550766820084a138.6,138.6 0 0 0 0.66998337607047,3.6416937221061008l-187.76140639088024,37.14315912949144a330,330 0 0 1 -1.5951985144535001,-8.670699338347859Z" style="pointer-events: all; stroke-width: 0; fill: rgb(255, 102, 146); fill-opacity: 1; stroke: rgb(68, 68, 68); stroke-opacity: 1;"/><g class="slicetext"><text data-notex="1" class="slicetext" transform="translate(270.73594361399,577.7434768978603)" text-anchor="middle" x="0" y="0" style="font-family: verdana; font-size: 18px; fill: rgb(0, 0, 0); fill-opacity: 1; white-space: pre;"><tspan class="line" dy="0em" x="0" y="0">PDB</tspan><tspan class="line" dy="1.3em" x="0" y="0">0.425%</tspan></text></g><path class="textline" stroke-width="2" d="M317.94688111399,449.70990722956674V582.4466018978603h-11.3515625" fill="none" style="stroke: rgb(0, 0, 0); stroke-opacity: 1;"/></g></g></g><g class="iciclelayer"/><g class="treemaplayer"/><g class="sunburstlayer"/><g class="glimages"/><defs id="topdefs-c607f0"><g class="clips"/></defs><g class="layer-above"><g class="imagelayer"/><g class="shapelayer"/></g><g class="infolayer"><g class="g-gtitle"/><g class="annotation" data-index="0" style="opacity: 1;"><g class="annotation-text-g" transform="rotate(0,642.5,390)"><g class="cursor-pointer" transform="translate(555,362)"><rect class="bg" x="0.5" y="0.5" width="174" height="55" style="stroke-width: 1px; stroke: rgb(0, 0, 0); stroke-opacity: 0; fill: rgb(0, 0, 0); fill-opacity: 0;"/><text class="annotation-text" text-anchor="middle" x="87.703125" y="23" style="font-family: verdana; font-size: 21px; fill: rgb(0, 0, 0); fill-opacity: 1; white-space: pre;"><tspan class="line" dy="0em" x="87.703125" y="23">bpRNA ND-L600</tspan><tspan class="line" dy="1.3em" x="87.703125" y="23">(53,856)</tspan></text></g></g></g></g></svg>