<svg class="main-svg" xmlns="http://www.w3.org/2000/svg" xmlns:xlink="http://www.w3.org/1999/xlink" width="2400" height="1600" style="" viewBox="0 0 1200 800"><rect x="0" y="0" width="1200" height="800" style="fill: rgb(255, 255, 255); fill-opacity: 1;"/><defs id="defs-338d12"><g class="clips"/><g class="gradients"/><g class="patterns"/></defs><g class="bglayer"/><g class="layer-below"><g class="imagelayer"/><g class="shapelayer"/></g><g class="cartesianlayer"/><g class="polarlayer"/><g class="smithlayer"/><g class="ternarylayer"/><g class="geolayer"/><g class="funnelarealayer"/><g class="pielayer"><g class="trace" stroke-linejoin="round" style="opacity: 1;"><g class="slice"><path class="surface" d="M696.2410711800478,478.4098621384287a138.6,138.6 0 0 0 -106.74107118004778,-227.00986213842873l0,-191.40000000000003a330,330 0 0 1 254.14540757154234,540.4996717581637Z" style="pointer-events: all; stroke-width: 0; fill: rgb(99, 110, 250); fill-opacity: 1; stroke: rgb(68, 68, 68); stroke-opacity: 1;"/><g class="slicetext"><text data-notex="1" class="slicetext" transform="translate(801.1866038364092,285.59923685341647)" text-anchor="middle" x="0" y="0" style="font-family: verdana; font-size: 18px; fill: rgb(255, 255, 255); fill-opacity: 1; white-space: pre;"><tspan class="line" dy="0em" x="0" y="0">tRNA</tspan><tspan class="line" dy="1.3em" x="0" y="0">36%</tspan></text></g></g><g class="slice"><path class="surface" d="M589.5,251.4a138.6,138.6 0 0 0 -136.77486767509126,116.18135658740077l-188.87957917036414,-30.95907899835132a330,330 0 0 1 325.65444684545537,-276.6222775890495Z" style="pointer-events: all; stroke-width: 0; fill: rgb(239, 85, 59); fill-opacity: 1; stroke: rgb(68, 68, 68); stroke-opacity: 1;"/><g class="slicetext"><text data-notex="1" class="slicetext" transform="translate(437.8145594597637,206.7247127570725)" text-anchor="middle" x="0" y="0" style="font-family: verdana; font-size: 18px; fill: rgb(68, 68, 68); fill-opacity: 1; white-space: pre;"><tspan class="line" dy="0em" x="0" y="0">Intron I</tspan><tspan class="line" dy="1.3em" x="0" y="0">22.4%</tspan></text></g></g><g class="slice"><path class="surface" d="M452.7251323249087,367.58135658740076a138.6,138.6 0 0 0 51.396162980090914,131.5993962246399l-117.90392553119096,150.77342054996095a330,330 0 0 1 -122.37181661926408,-313.3318957729521Z" style="pointer-events: all; stroke-width: 0; fill: rgb(0, 204, 150); fill-opacity: 1; stroke: rgb(68, 68, 68); stroke-opacity: 1;"/><g class="slicetext"><text data-notex="1" class="slicetext" transform="translate(370.91025658353163,470.53287888133434)" text-anchor="middle" x="0" y="0" style="font-family: verdana; font-size: 18px; fill: rgb(68, 68, 68); fill-opacity: 1; white-space: pre;"><tspan class="line" dy="0em" x="0" y="0">5S rRNA</tspan><tspan class="line" dy="1.3em" x="0" y="0">17%</tspan></text></g></g><g class="slice"><path class="surface" d="M504.12129530499965,499.1807528120407a138.6,138.6 0 0 0 57.12811011203852,26.509570740190302l-39.01272585266156,187.38187538165232a330,330 0 0 1 -136.01930979056792,-63.118025571881674Z" style="pointer-events: all; stroke-width: 0; fill: rgb(171, 99, 250); fill-opacity: 1; stroke: rgb(68, 68, 68); stroke-opacity: 1;"/><g class="slicetext"><text data-notex="1" class="slicetext" transform="translate(475.9670339035561,629.2195723543424)" text-anchor="middle" x="0" y="0" style="font-family: verdana; font-size: 18px; fill: rgb(68, 68, 68); fill-opacity: 1; white-space: pre;"><tspan class="line" dy="0em" x="0" y="0">tmRNA</tspan><tspan class="line" dy="1.3em" x="0" y="0">7.3%</tspan></text></g></g><g class="slice"><path class="surface" d="M561.2494054170381,525.690323552231a138.6,138.6 0 0 0 59.74018931599365,-0.7148982943366582l43.48563082180589,186.3946348799493a330,330 0 0 1 -142.2385459904611,1.7021387960396623Z" style="pointer-events: all; stroke-width: 0; fill: rgb(255, 161, 90); fill-opacity: 1; stroke: rgb(68, 68, 68); stroke-opacity: 1;"/><g class="slicetext"><text data-notex="1" class="slicetext" transform="translate(592.6782812861474,656.7643121622003)" text-anchor="middle" x="0" y="0" style="font-family: verdana; font-size: 18px; fill: rgb(68, 68, 68); fill-opacity: 1; white-space: pre;"><tspan class="line" dy="0em" x="0" y="0">RNase P</tspan><tspan class="line" dy="1.3em" x="0" y="0">6.91%</tspan></text></g></g><g class="slice"><path class="surface" d="M620.9895947330318,524.9754252578944a138.6,138.6 0 0 0 48.98342852702919,-22.1301660425171l111.12941307341764,155.8339293926638a330,330 0 0 1 -116.62721077864093,52.69087152980262Z" style="pointer-events: all; stroke-width: 0; fill: rgb(25, 211, 243); fill-opacity: 1; stroke: rgb(68, 68, 68); stroke-opacity: 1;"/><g class="slicetext"><text data-notex="1" class="slicetext" transform="translate(703.3009572553732,637.1865827101209)" text-anchor="middle" x="0" y="0" style="font-family: verdana; font-size: 18px; fill: rgb(68, 68, 68); fill-opacity: 1; white-space: pre;"><tspan class="line" dy="0em" x="0" y="0">SRP</tspan><tspan class="line" dy="1.3em" x="0" y="0">6.21%</tspan></text></g></g><g class="slice"><path class="surface" d="M669.973023260061,502.8452592153772a138.6,138.6 0 0 0 20.528835644947755,-17.931695918382108l139.47875753548834,131.07111121965994a330,330 0 0 1 -48.878180107018466,42.69451409138597Z" style="pointer-events: all; stroke-width: 0; fill: rgb(255, 102, 146); fill-opacity: 1; stroke: rgb(68, 68, 68); stroke-opacity: 1;"/><g class="slicetext"><text data-notex="1" class="slicetext" transform="translate(779.3198688498499,600.1633236333058)rotate(48.863170231467905)" text-anchor="middle" x="0" y="0" style="font-family: verdana; font-size: 18px; fill: rgb(68, 68, 68); fill-opacity: 1; white-space: pre;"><tspan class="line" dy="0em" x="0" y="0">16S rRNA</tspan><tspan class="line" dy="1.3em" x="0" y="0">3.14%</tspan></text></g></g><g class="slice"><path class="surface" d="M690.5018589050088,484.9135632969951a138.6,138.6 0 0 0 3.0891474004761292,-3.3984147897042742l143.74472299328872,126.37806222435403a330,330 0 0 1 -7.355112858276499,8.091463785010177Z" style="pointer-events: all; stroke-width: 0; fill: rgb(182, 232, 128); fill-opacity: 1; stroke: rgb(68, 68, 68); stroke-opacity: 1;"/><g class="slicetext"><text data-notex="1" class="slicetext" transform="translate(880.9026272144225,654.4898136004605)" text-anchor="middle" x="0" y="0" style="font-family: verdana; font-size: 18px; fill: rgb(0, 0, 0); fill-opacity: 1; white-space: pre;"><tspan class="line" dy="0em" x="0" y="0">TERC</tspan><tspan class="line" dy="1.3em" x="0" y="0">0.527%</tspan></text></g><path class="textline" stroke-width="2" d="M833.6916897144225,611.9694093212288V659.1929386004605h11.3515625" fill="none" style="stroke: rgb(0, 0, 0); stroke-opacity: 1;"/></g><g class="slice"><path class="surface" d="M693.5910063054849,481.51514850729086a138.6,138.6 0 0 0 2.6500648745628688,-3.1052863688621333l147.40433639149458,122.0898096197349a330,330 0 0 1 -6.3096782727687355,7.39353897348127Z" style="pointer-events: all; stroke-width: 0; fill: rgb(255, 151, 255); fill-opacity: 1; stroke: rgb(68, 68, 68); stroke-opacity: 1;"/><g class="slicetext"><text data-notex="1" class="slicetext" transform="translate(895.6193537978318,609.0835636004605)" text-anchor="middle" x="0" y="0" style="font-family: verdana; font-size: 18px; fill: rgb(0, 0, 0); fill-opacity: 1; white-space: pre;"><tspan class="line" dy="0em" x="0" y="0">23S rRNA</tspan><tspan class="line" dy="1.3em" x="0" y="0">0.469%</tspan></text></g></g></g></g><g class="iciclelayer"/><g class="treemaplayer"/><g class="sunburstlayer"/><g class="glimages"/><defs id="topdefs-338d12"><g class="clips"/></defs><g class="layer-above"><g class="imagelayer"/><g class="shapelayer"/></g><g class="infolayer"><g class="g-gtitle"/><g class="annotation" data-index="0" style="opacity: 1;"><g class="annotation-text-g" transform="rotate(0,589.5,390)"><g class="cursor-pointer" transform="translate(494,362)"><rect class="bg" x="0.5" y="0.5" width="191" height="55" style="stroke-width: 1px; stroke: rgb(0, 0, 0); stroke-opacity: 0; fill: rgb(0, 0, 0); fill-opacity: 0;"/><text class="annotation-text" text-anchor="middle" x="95.890625" y="23" style="font-family: verdana; font-size: 21px; fill: rgb(0, 0, 0); fill-opacity: 1; white-space: pre;"><tspan class="line" dy="0em" x="95.890625" y="23">Strive NR80-L600</tspan><tspan class="line" dy="1.3em" x="95.890625" y="23">(3,413)</tspan></text></g></g></g></g></svg>