<svg class="main-svg" xmlns="http://www.w3.org/2000/svg" xmlns:xlink="http://www.w3.org/1999/xlink" width="1000" height="800" style="" viewBox="0 0 1000 800"><rect x="0" y="0" width="1000" height="800" style="fill: rgb(255, 255, 255); fill-opacity: 1;"/><defs id="defs-a36b61"><g class="clips"><clipPath id="clipa36b61xyplot" class="plotclip"><rect width="840" height="563"/></clipPath><clipPath class="axesclip" id="clipa36b61x"><rect x="80" y="0" width="840" height="800"/></clipPath><clipPath class="axesclip" id="clipa36b61y"><rect x="0" y="100" width="1000" height="563"/></clipPath><clipPath class="axesclip" id="clipa36b61xy"><rect x="80" y="100" width="840" height="563"/></clipPath></g><g class="gradients"/><g class="patterns"/></defs><g class="bglayer"><rect class="bg" x="80" y="100" width="840" height="563" style="fill: rgb(229, 236, 246); fill-opacity: 1; stroke-width: 0;"/></g><g class="layer-below"><g class="imagelayer"/><g class="shapelayer"/></g><g class="cartesianlayer"><g class="subplot xy"><g class="layer-subplot"><g class="shapelayer"/><g class="imagelayer"/></g><g class="minor-gridlayer"><g class="x"/><g class="y"/></g><g class="gridlayer"><g class="x"><path class="xgrid crisp" transform="translate(173.32999999999998,0)" d="M0,100v563" style="stroke: rgb(255, 255, 255); stroke-opacity: 1; stroke-width: 1px;"/><path class="xgrid crisp" transform="translate(266.66999999999996,0)" d="M0,100v563" style="stroke: rgb(255, 255, 255); stroke-opacity: 1; stroke-width: 1px;"/><path class="xgrid crisp" transform="translate(360,0)" d="M0,100v563" style="stroke: rgb(255, 255, 255); stroke-opacity: 1; stroke-width: 1px;"/><path class="xgrid crisp" transform="translate(453.33,0)" d="M0,100v563" style="stroke: rgb(255, 255, 255); stroke-opacity: 1; stroke-width: 1px;"/><path class="xgrid crisp" transform="translate(546.6700000000001,0)" d="M0,100v563" style="stroke: rgb(255, 255, 255); stroke-opacity: 1; stroke-width: 1px;"/><path class="xgrid crisp" transform="translate(640,0)" d="M0,100v563" style="stroke: rgb(255, 255, 255); stroke-opacity: 1; stroke-width: 1px;"/><path class="xgrid crisp" transform="translate(733.33,0)" d="M0,100v563" style="stroke: rgb(255, 255, 255); stroke-opacity: 1; stroke-width: 1px;"/><path class="xgrid crisp" transform="translate(826.67,0)" d="M0,100v563" style="stroke: rgb(255, 255, 255); stroke-opacity: 1; stroke-width: 1px;"/></g><g class="y"><path class="ygrid crisp" transform="translate(0,589.11)" d="M80,0h840" style="stroke: rgb(255, 255, 255); stroke-opacity: 1; stroke-width: 1px;"/><path class="ygrid crisp" transform="translate(0,515.23)" d="M80,0h840" style="stroke: rgb(255, 255, 255); stroke-opacity: 1; stroke-width: 1px;"/><path class="ygrid crisp" transform="translate(0,441.34)" d="M80,0h840" style="stroke: rgb(255, 255, 255); stroke-opacity: 1; stroke-width: 1px;"/><path class="ygrid crisp" transform="translate(0,367.46)" d="M80,0h840" style="stroke: rgb(255, 255, 255); stroke-opacity: 1; stroke-width: 1px;"/><path class="ygrid crisp" transform="translate(0,293.57)" d="M80,0h840" style="stroke: rgb(255, 255, 255); stroke-opacity: 1; stroke-width: 1px;"/><path class="ygrid crisp" transform="translate(0,219.69)" d="M80,0h840" style="stroke: rgb(255, 255, 255); stroke-opacity: 1; stroke-width: 1px;"/><path class="ygrid crisp" transform="translate(0,145.8)" d="M80,0h840" style="stroke: rgb(255, 255, 255); stroke-opacity: 1; stroke-width: 1px;"/></g></g><g class="zerolinelayer"><path class="yzl zl crisp" transform="translate(0,663)" d="M80,0h840" style="stroke: rgb(255, 255, 255); stroke-opacity: 1; stroke-width: 2px;"/></g><path class="xlines-below"/><path class="ylines-below"/><g class="overlines-below"/><g class="xaxislayer-below"/><g class="yaxislayer-below"/><g class="overaxes-below"/><g class="plot" transform="translate(80,100)" clip-path="url(#clipa36b61xyplot)"><g class="barlayer mlayer"><g class="trace bars" style="opacity: 1;"><g class="points"><g class="point"><path d="M4.71,563V30.89H30.75V563Z" style="vector-effect: non-scaling-stroke; opacity: 1; stroke-width: 0px; fill: rgb(99, 110, 250); fill-opacity: 1;"/><text class="bartext bartext-inside" text-anchor="middle" data-notex="1" x="0" y="0" style="font-family: verdana; font-size: 23px; fill: rgb(255, 255, 255); fill-opacity: 1; white-space: pre;" transform="translate(17.73,50.79875)scale(0.7157142857142856)rotate(90 0 -9)">36</text></g><g class="point"><path d="M98.05,563V231.78H124.09V563Z" style="vector-effect: non-scaling-stroke; opacity: 1; stroke-width: 0px; fill: rgb(99, 110, 250); fill-opacity: 1;"/><text class="bartext bartext-inside" text-anchor="middle" data-notex="1" x="0" y="0" style="font-family: verdana; font-size: 23px; fill: rgb(255, 255, 255); fill-opacity: 1; white-space: pre;" transform="translate(111.07,251.68875)scale(0.7157142857142859)rotate(90 0 -9)">22</text></g><g class="point"><path d="M191.38,563V311.45H217.42V563Z" style="vector-effect: non-scaling-stroke; opacity: 1; stroke-width: 0px; fill: rgb(99, 110, 250); fill-opacity: 1;"/><text class="bartext bartext-inside" text-anchor="middle" data-notex="1" x="0" y="0" style="font-family: verdana; font-size: 23px; fill: rgb(255, 255, 255); fill-opacity: 1; white-space: pre;" transform="translate(204.39999999999998,331.35875)scale(0.7157142857142853)rotate(90 0 -9)">17</text></g><g class="point"><path d="M284.71,563V460.82H310.75V563Z" style="vector-effect: non-scaling-stroke; opacity: 1; stroke-width: 0px; fill: rgb(99, 110, 250); fill-opacity: 1;"/><text class="bartext bartext-inside" text-anchor="middle" data-notex="1" x="0" y="0" style="font-family: verdana; font-size: 23px; fill: rgb(255, 255, 255); fill-opacity: 1; white-space: pre;" transform="translate(297.73,483.72580357142857)scale(0.7157142857142863)rotate(90 0 -9)">6.9</text></g><g class="point"><path d="M378.05,563V455.19H404.09V563Z" style="vector-effect: non-scaling-stroke; opacity: 1; stroke-width: 0px; fill: rgb(99, 110, 250); fill-opacity: 1;"/><text class="bartext bartext-inside" text-anchor="middle" data-notex="1" x="0" y="0" style="font-family: verdana; font-size: 23px; fill: rgb(255, 255, 255); fill-opacity: 1; white-space: pre;" transform="translate(391.07,478.0958035714285)scale(0.7157142857142843)rotate(90 0 -9)">7.3</text></g><g class="point"><path d="M471.38,563V471.21H497.42V563Z" style="vector-effect: non-scaling-stroke; opacity: 1; stroke-width: 0px; fill: rgb(99, 110, 250); fill-opacity: 1;"/><text class="bartext bartext-inside" text-anchor="middle" data-notex="1" x="0" y="0" style="font-family: verdana; font-size: 23px; fill: rgb(255, 255, 255); fill-opacity: 1; white-space: pre;" transform="translate(484.4,494.11580357142856)scale(0.7157142857142863)rotate(90 0 -9)">6.2</text></g><g class="point"><path d="M564.71,563V516.67H590.75V563Z" style="vector-effect: non-scaling-stroke; opacity: 1; stroke-width: 0px; fill: rgb(99, 110, 250); fill-opacity: 1;"/><text class="bartext bartext-inside" text-anchor="middle" data-notex="1" x="0" y="0" style="font-family: verdana; font-size: 23px; fill: rgb(255, 255, 255); fill-opacity: 1; white-space: pre;" transform="translate(577.73,539.5758035714285)scale(0.7157142857142843)rotate(90 0 -9)">3.1</text></g><g class="point"><path d="M658.05,563V555.21H684.09V563Z" style="vector-effect: non-scaling-stroke; opacity: 1; stroke-width: 0px; fill: rgb(99, 110, 250); fill-opacity: 1;"/><text class="bartext bartext-outside" text-anchor="middle" data-notex="1" x="0" y="0" style="font-family: verdana; font-size: 23px; fill: rgb(0, 0, 0); fill-opacity: 1; white-space: pre;" transform="translate(671.0699999999999,550.2447169811321)scale(0.3930566037735861)">530m</text></g><g class="point"><path d="M751.38,563V556.07H777.42V563Z" style="vector-effect: non-scaling-stroke; opacity: 1; stroke-width: 0px; fill: rgb(99, 110, 250); fill-opacity: 1;"/><text class="bartext bartext-outside" text-anchor="middle" data-notex="1" x="0" y="0" style="font-family: verdana; font-size: 23px; fill: rgb(0, 0, 0); fill-opacity: 1; white-space: pre;" transform="translate(764.4,551.1047169811321)scale(0.39305660377358437)">470m</text></g></g></g><g class="trace bars" style="opacity: 1;"><g class="points"><g class="point"><path d="M33.65,563V28.15H59.69V563Z" style="vector-effect: non-scaling-stroke; opacity: 1; stroke-width: 0px; fill: rgb(239, 85, 59); fill-opacity: 1;"/><text class="bartext bartext-inside" text-anchor="middle" data-notex="1" x="0" y="0" style="font-family: verdana; font-size: 23px; fill: rgb(68, 68, 68); fill-opacity: 1; white-space: pre;" transform="translate(46.67,48.058749999999996)scale(0.7157142857142856)rotate(90 0 -9)">36</text></g><g class="point"><path d="M126.98,563V214.16H153.02V563Z" style="vector-effect: non-scaling-stroke; opacity: 1; stroke-width: 0px; fill: rgb(239, 85, 59); fill-opacity: 1;"/><text class="bartext bartext-inside" text-anchor="middle" data-notex="1" x="0" y="0" style="font-family: verdana; font-size: 23px; fill: rgb(68, 68, 68); fill-opacity: 1; white-space: pre;" transform="translate(140,234.06875)scale(0.7157142857142859)rotate(90 0 -9)">24</text></g><g class="point"><path d="M220.31,563V295.1H246.35V563Z" style="vector-effect: non-scaling-stroke; opacity: 1; stroke-width: 0px; fill: rgb(239, 85, 59); fill-opacity: 1;"/><text class="bartext bartext-inside" text-anchor="middle" data-notex="1" x="0" y="0" style="font-family: verdana; font-size: 23px; fill: rgb(68, 68, 68); fill-opacity: 1; white-space: pre;" transform="translate(233.32999999999998,315.00875)scale(0.7157142857142853)rotate(90 0 -9)">18</text></g><g class="point"><path d="M313.65,563V457.45H339.69V563Z" style="vector-effect: non-scaling-stroke; opacity: 1; stroke-width: 0px; fill: rgb(239, 85, 59); fill-opacity: 1;"/><text class="bartext bartext-inside" text-anchor="middle" data-notex="1" x="0" y="0" style="font-family: verdana; font-size: 23px; fill: rgb(68, 68, 68); fill-opacity: 1; white-space: pre;" transform="translate(326.66999999999996,480.35580357142857)scale(0.7157142857142863)rotate(90 0 -9)">7.1</text></g><g class="point"><path d="M406.98,563V445.14H433.02V563Z" style="vector-effect: non-scaling-stroke; opacity: 1; stroke-width: 0px; fill: rgb(239, 85, 59); fill-opacity: 1;"/><text class="bartext bartext-inside" text-anchor="middle" data-notex="1" x="0" y="0" style="font-family: verdana; font-size: 23px; fill: rgb(68, 68, 68); fill-opacity: 1; white-space: pre;" transform="translate(420,468.0458035714285)scale(0.7157142857142843)rotate(90 0 -9)">8.0</text></g><g class="point"><path d="M500.31,563V492.48H526.35V563Z" style="vector-effect: non-scaling-stroke; opacity: 1; stroke-width: 0px; fill: rgb(239, 85, 59); fill-opacity: 1;"/><text class="bartext bartext-inside" text-anchor="middle" data-notex="1" x="0" y="0" style="font-family: verdana; font-size: 23px; fill: rgb(68, 68, 68); fill-opacity: 1; white-space: pre;" transform="translate(513.33,515.3858035714286)scale(0.7157142857142863)rotate(90 0 -9)">4.8</text></g><g class="point"><path d="M593.65,563V539.33H619.69V563Z" style="vector-effect: non-scaling-stroke; opacity: 1; stroke-width: 0px; fill: rgb(239, 85, 59); fill-opacity: 1;"/><text class="bartext bartext-inside" text-anchor="middle" data-notex="1" x="0" y="0" style="font-family: verdana; font-size: 23px; fill: rgb(68, 68, 68); fill-opacity: 1; white-space: pre;" transform="translate(606.6700000000001,554.5803654485051)scale(0.53262458471761)">1.6</text></g><g class="point"><path d="M686.98,563V554.48H713.02V563Z" style="vector-effect: non-scaling-stroke; opacity: 1; stroke-width: 0px; fill: rgb(239, 85, 59); fill-opacity: 1;"/><text class="bartext bartext-outside" text-anchor="middle" data-notex="1" x="0" y="0" style="font-family: verdana; font-size: 23px; fill: rgb(0, 0, 0); fill-opacity: 1; white-space: pre;" transform="translate(700,549.5147169811321)scale(0.39305660377358437)">580m</text></g></g></g><g class="trace bars" style="opacity: 1;"><g class="points"><g class="point"><path d="M62.58,563V218.08H88.62V563Z" style="vector-effect: non-scaling-stroke; opacity: 1; stroke-width: 0px; fill: rgb(0, 204, 150); fill-opacity: 1;"/><text class="bartext bartext-inside" text-anchor="middle" data-notex="1" x="0" y="0" style="font-family: verdana; font-size: 23px; fill: rgb(68, 68, 68); fill-opacity: 1; white-space: pre;" transform="translate(75.6,237.98875)scale(0.7157142857142859)rotate(90 0 -9)">23</text></g><g class="point"><path d="M155.91,563V485.54H181.95V563Z" style="vector-effect: non-scaling-stroke; opacity: 1; stroke-width: 0px; fill: rgb(0, 204, 150); fill-opacity: 1;"/><text class="bartext bartext-inside" text-anchor="middle" data-notex="1" x="0" y="0" style="font-family: verdana; font-size: 23px; fill: rgb(68, 68, 68); fill-opacity: 1; white-space: pre;" transform="translate(168.93,508.4458035714286)scale(0.7157142857142853)rotate(90 0 -9)">5.2</text></g><g class="point"><path d="M249.25,563V359.68H275.29V563Z" style="vector-effect: non-scaling-stroke; opacity: 1; stroke-width: 0px; fill: rgb(0, 204, 150); fill-opacity: 1;"/><text class="bartext bartext-inside" text-anchor="middle" data-notex="1" x="0" y="0" style="font-family: verdana; font-size: 23px; fill: rgb(68, 68, 68); fill-opacity: 1; white-space: pre;" transform="translate(262.27,379.58875)scale(0.7157142857142863)rotate(90 0 -9)">14</text></g><g class="point"><path d="M342.58,563V308.85H368.62V563Z" style="vector-effect: non-scaling-stroke; opacity: 1; stroke-width: 0px; fill: rgb(0, 204, 150); fill-opacity: 1;"/><text class="bartext bartext-inside" text-anchor="middle" data-notex="1" x="0" y="0" style="font-family: verdana; font-size: 23px; fill: rgb(68, 68, 68); fill-opacity: 1; white-space: pre;" transform="translate(355.6,328.75875)scale(0.7157142857142863)rotate(90 0 -9)">17</text></g><g class="point"><path d="M435.91,563V336.69H461.95V563Z" style="vector-effect: non-scaling-stroke; opacity: 1; stroke-width: 0px; fill: rgb(0, 204, 150); fill-opacity: 1;"/><text class="bartext bartext-inside" text-anchor="middle" data-notex="1" x="0" y="0" style="font-family: verdana; font-size: 23px; fill: rgb(68, 68, 68); fill-opacity: 1; white-space: pre;" transform="translate(448.93,356.59874999999994)scale(0.7157142857142843)rotate(90 0 -9)">15</text></g><g class="point"><path d="M529.25,563V311.27H555.29V563Z" style="vector-effect: non-scaling-stroke; opacity: 1; stroke-width: 0px; fill: rgb(0, 204, 150); fill-opacity: 1;"/><text class="bartext bartext-inside" text-anchor="middle" data-notex="1" x="0" y="0" style="font-family: verdana; font-size: 23px; fill: rgb(68, 68, 68); fill-opacity: 1; white-space: pre;" transform="translate(542.27,331.1787499999999)scale(0.7157142857142843)rotate(90 0 -9)">17</text></g><g class="point"><path d="M622.58,563V484.33H648.62V563Z" style="vector-effect: non-scaling-stroke; opacity: 1; stroke-width: 0px; fill: rgb(0, 204, 150); fill-opacity: 1;"/><text class="bartext bartext-inside" text-anchor="middle" data-notex="1" x="0" y="0" style="font-family: verdana; font-size: 23px; fill: rgb(68, 68, 68); fill-opacity: 1; white-space: pre;" transform="translate(635.6,507.2358035714285)scale(0.7157142857142843)rotate(90 0 -9)">5.3</text></g><g class="point"><path d="M715.91,563V541.22H741.95V563Z" style="vector-effect: non-scaling-stroke; opacity: 1; stroke-width: 0px; fill: rgb(0, 204, 150); fill-opacity: 1;"/><text class="bartext bartext-inside" text-anchor="middle" data-notex="1" x="0" y="0" style="font-family: verdana; font-size: 23px; fill: rgb(68, 68, 68); fill-opacity: 1; white-space: pre;" transform="translate(728.9300000000001,556.470365448505)scale(0.53262458471761)">1.5</text></g><g class="point"><path d="M809.25,563V543.64H835.29V563Z" style="vector-effect: non-scaling-stroke; opacity: 1; stroke-width: 0px; fill: rgb(0, 204, 150); fill-opacity: 1;"/><text class="bartext bartext-outside" text-anchor="middle" data-notex="1" x="0" y="0" style="font-family: verdana; font-size: 23px; fill: rgb(0, 0, 0); fill-opacity: 1; white-space: pre;" transform="translate(822.27,537.179534883721)scale(0.692093023255813)">1.3</text></g></g></g></g></g><g class="overplot"/><path class="xlines-above crisp" d="" style="fill: none; stroke-width: 1px; stroke: rgb(0, 0, 0); stroke-opacity: 0;"/><path class="ylines-above crisp" d="M0,0" style="fill: none;"/><g class="overlines-above"/><g class="xaxislayer-above"><path class="xtick ticks crisp" d="M0,664v5" transform="translate(80,0)" style="stroke: rgb(68, 68, 68); stroke-opacity: 1; stroke-width: 1px;"/><path class="xtick ticks crisp" d="M0,664v5" transform="translate(173.32999999999998,0)" style="stroke: rgb(68, 68, 68); stroke-opacity: 1; stroke-width: 1px;"/><path class="xtick ticks crisp" d="M0,664v5" transform="translate(266.66999999999996,0)" style="stroke: rgb(68, 68, 68); stroke-opacity: 1; stroke-width: 1px;"/><path class="xtick ticks crisp" d="M0,664v5" transform="translate(360,0)" style="stroke: rgb(68, 68, 68); stroke-opacity: 1; stroke-width: 1px;"/><path class="xtick ticks crisp" d="M0,664v5" transform="translate(453.33,0)" style="stroke: rgb(68, 68, 68); stroke-opacity: 1; stroke-width: 1px;"/><path class="xtick ticks crisp" d="M0,664v5" transform="translate(546.6700000000001,0)" style="stroke: rgb(68, 68, 68); stroke-opacity: 1; stroke-width: 1px;"/><path class="xtick ticks crisp" d="M0,664v5" transform="translate(640,0)" style="stroke: rgb(68, 68, 68); stroke-opacity: 1; stroke-width: 1px;"/><path class="xtick ticks crisp" d="M0,664v5" transform="translate(733.33,0)" style="stroke: rgb(68, 68, 68); stroke-opacity: 1; stroke-width: 1px;"/><path class="xtick ticks crisp" d="M0,664v5" transform="translate(826.67,0)" style="stroke: rgb(68, 68, 68); stroke-opacity: 1; stroke-width: 1px;"/><path class="xtick ticks crisp" d="M0,664v5" transform="translate(920,0)" style="stroke: rgb(68, 68, 68); stroke-opacity: 1; stroke-width: 1px;"/><g class="xtick"><text text-anchor="start" x="0" y="687" transform="translate(126.67,0) rotate(90,0,675.5)" style="font-family: verdana; font-size: 23px; fill: rgb(0, 0, 0); fill-opacity: 1; white-space: pre; opacity: 1;">tRNA</text></g><g class="xtick"><text text-anchor="start" x="0" y="687" transform="translate(220,0) rotate(90,0,675.5)" style="font-family: verdana; font-size: 23px; fill: rgb(0, 0, 0); fill-opacity: 1; white-space: pre; opacity: 1;">Intron I</text></g><g class="xtick"><text text-anchor="start" x="0" y="687" transform="translate(313.33000000000004,0) rotate(90,0,675.5)" style="font-family: verdana; font-size: 23px; fill: rgb(0, 0, 0); fill-opacity: 1; white-space: pre; opacity: 1;">5S rRNA</text></g><g class="xtick"><text text-anchor="start" x="0" y="687" transform="translate(406.67,0) rotate(90,0,675.5)" style="font-family: verdana; font-size: 23px; fill: rgb(0, 0, 0); fill-opacity: 1; white-space: pre; opacity: 1;">RNase P</text></g><g class="xtick"><text text-anchor="start" x="0" y="687" transform="translate(500,0) rotate(90,0,675.5)" style="font-family: verdana; font-size: 23px; fill: rgb(0, 0, 0); fill-opacity: 1; white-space: pre; opacity: 1;">tmRNA</text></g><g class="xtick"><text text-anchor="start" x="0" y="687" transform="translate(593.33,0) rotate(90,0,675.5)" style="font-family: verdana; font-size: 23px; fill: rgb(0, 0, 0); fill-opacity: 1; white-space: pre; opacity: 1;">SRP</text></g><g class="xtick"><text text-anchor="start" x="0" y="687" transform="translate(686.67,0) rotate(90,0,675.5)" style="font-family: verdana; font-size: 23px; fill: rgb(0, 0, 0); fill-opacity: 1; white-space: pre; opacity: 1;">16S rRNA</text></g><g class="xtick"><text text-anchor="start" x="0" y="687" transform="translate(780,0) rotate(90,0,675.5)" style="font-family: verdana; font-size: 23px; fill: rgb(0, 0, 0); fill-opacity: 1; white-space: pre; opacity: 1;">TERC</text></g><g class="xtick"><text text-anchor="start" x="0" y="687" transform="translate(873.33,0) rotate(90,0,675.5)" style="font-family: verdana; font-size: 23px; fill: rgb(0, 0, 0); fill-opacity: 1; white-space: pre; opacity: 1;">23S rRNA</text></g></g><g class="yaxislayer-above"><g class="ytick"><text text-anchor="end" x="79" y="8.049999999999999" transform="translate(0,663)" style="font-family: verdana; font-size: 23px; fill: rgb(0, 0, 0); fill-opacity: 1; white-space: pre; opacity: 1;">0</text></g><g class="ytick"><text text-anchor="end" x="79" y="8.049999999999999" style="font-family: verdana; font-size: 23px; fill: rgb(0, 0, 0); fill-opacity: 1; white-space: pre; opacity: 1;" transform="translate(0,589.11)">5</text></g><g class="ytick"><text text-anchor="end" x="79" y="8.049999999999999" style="font-family: verdana; font-size: 23px; fill: rgb(0, 0, 0); fill-opacity: 1; white-space: pre; opacity: 1;" transform="translate(0,515.23)">10</text></g><g class="ytick"><text text-anchor="end" x="79" y="8.049999999999999" style="font-family: verdana; font-size: 23px; fill: rgb(0, 0, 0); fill-opacity: 1; white-space: pre; opacity: 1;" transform="translate(0,441.34)">15</text></g><g class="ytick"><text text-anchor="end" x="79" y="8.049999999999999" style="font-family: verdana; font-size: 23px; fill: rgb(0, 0, 0); fill-opacity: 1; white-space: pre; opacity: 1;" transform="translate(0,367.46)">20</text></g><g class="ytick"><text text-anchor="end" x="79" y="8.049999999999999" style="font-family: verdana; font-size: 23px; fill: rgb(0, 0, 0); fill-opacity: 1; white-space: pre; opacity: 1;" transform="translate(0,293.57)">25</text></g><g class="ytick"><text text-anchor="end" x="79" y="8.049999999999999" style="font-family: verdana; font-size: 23px; fill: rgb(0, 0, 0); fill-opacity: 1; white-space: pre; opacity: 1;" transform="translate(0,219.69)">30</text></g><g class="ytick"><text text-anchor="end" x="79" y="8.049999999999999" style="font-family: verdana; font-size: 23px; fill: rgb(0, 0, 0); fill-opacity: 1; white-space: pre; opacity: 1;" transform="translate(0,145.8)">35</text></g></g><g class="overaxes-above"/></g></g><g class="polarlayer"/><g class="smithlayer"/><g class="ternarylayer"/><g class="geolayer"/><g class="funnelarealayer"/><g class="pielayer"/><g class="iciclelayer"/><g class="treemaplayer"/><g class="sunburstlayer"/><g class="glimages"/><defs id="topdefs-a36b61"><g class="clips"/><clipPath id="legenda36b61"><rect width="221" height="109" x="0" y="0"/></clipPath></defs><g class="layer-above"><g class="imagelayer"/><g class="shapelayer"/></g><g class="infolayer"><g class="legend" pointer-events="all" transform="translate(682.1999999999999,102.815)"><rect class="bg" shape-rendering="crispEdges" width="221" height="109" x="0" y="0" style="stroke: rgb(68, 68, 68); stroke-opacity: 1; fill: rgb(0, 0, 0); fill-opacity: 0; stroke-width: 0px;"/><g class="scrollbox" transform="" clip-path="url(#legenda36b61)"><g class="groups"><g class="traces" transform="translate(0,21.450000000000003)" style="opacity: 1;"><text class="legendtext" text-anchor="start" x="40" y="8.97" style="font-family: verdana; font-size: 23px; fill: rgb(0, 0, 0); fill-opacity: 1; white-space: pre;">Strive NR80</text><g class="layers" style="opacity: 1;"><g class="legendfill"/><g class="legendlines"/><g class="legendsymbols"><g class="legendpoints"><path class="legendundefined" d="M6,6H-6V-6H6Z" transform="translate(20,0)" style="stroke-width: 0px; fill: rgb(99, 110, 250); fill-opacity: 1;"/></g></g></g><rect class="legendtoggle" x="0" y="-16.450000000000003" width="215.390625" height="32.900000000000006" style="fill: rgb(0, 0, 0); fill-opacity: 0;"/></g><g class="traces" transform="translate(0,54.35000000000001)" style="opacity: 1;"><text class="legendtext" text-anchor="start" x="40" y="8.97" style="font-family: verdana; font-size: 23px; fill: rgb(0, 0, 0); fill-opacity: 1; white-space: pre;">Stralign NR80</text><g class="layers" style="opacity: 1;"><g class="legendfill"/><g class="legendlines"/><g class="legendsymbols"><g class="legendpoints"><path class="legendundefined" d="M6,6H-6V-6H6Z" transform="translate(20,0)" style="stroke-width: 0px; fill: rgb(239, 85, 59); fill-opacity: 1;"/></g></g></g><rect class="legendtoggle" x="0" y="-16.450000000000003" width="215.390625" height="32.900000000000006" style="fill: rgb(0, 0, 0); fill-opacity: 0;"/></g><g class="traces" transform="translate(0,87.25000000000001)" style="opacity: 1;"><text class="legendtext" text-anchor="start" x="40" y="8.97" style="font-family: verdana; font-size: 23px; fill: rgb(0, 0, 0); fill-opacity: 1; white-space: pre;">ArchiveII NR80</text><g class="layers" style="opacity: 1;"><g class="legendfill"/><g class="legendlines"/><g class="legendsymbols"><g class="legendpoints"><path class="legendundefined" d="M6,6H-6V-6H6Z" transform="translate(20,0)" style="stroke-width: 0px; fill: rgb(0, 204, 150); fill-opacity: 1;"/></g></g></g><rect class="legendtoggle" x="0" y="-16.450000000000003" width="215.390625" height="32.900000000000006" style="fill: rgb(0, 0, 0); fill-opacity: 0;"/></g></g></g><rect class="scrollbar" rx="20" ry="3" width="0" height="0" x="0" y="0" style="fill: rgb(128, 139, 164); fill-opacity: 1;"/></g><g class="g-gtitle"/><g class="g-xtitle"/><g class="g-ytitle" transform="translate(12.849609375,0)"><text class="ytitle" transform="rotate(-90,15.150000000000006,381.5)" x="15.150000000000006" y="381.5" text-anchor="middle" style="font-family: verdana; font-size: 28px; fill: rgb(0, 0, 0); opacity: 1; font-weight: normal; white-space: pre;">Percentage</text></g><g class="annotation" data-index="0" style="opacity: 1;"><g class="annotation-text-g" transform="rotate(0,29.6,111.26)"><g class="cursor-pointer" transform="translate(7,93)"><rect class="bg" x="0.5" y="0.5" width="45" height="36" style="stroke-width: 1px; stroke: rgb(0, 0, 0); stroke-opacity: 0; fill: rgb(0, 0, 0); fill-opacity: 0;"/><text class="annotation-text" text-anchor="middle" x="22.828125" y="29" style="font-family: Arial; font-size: 30px; fill: rgb(0, 0, 0); fill-opacity: 1; white-space: pre;"><tspan style="font-weight:bold">(B)</tspan></text></g></g></g></g></svg>