<svg class="main-svg" xmlns="http://www.w3.org/2000/svg" xmlns:xlink="http://www.w3.org/1999/xlink" width="1000" height="800" style="" viewBox="0 0 1000 800"><rect x="0" y="0" width="1000" height="800" style="fill: rgb(255, 255, 255); fill-opacity: 1;"/><defs id="defs-7a8eb7"><g class="clips"><clipPath id="clip7a8eb7xyplot" class="plotclip"><rect width="840" height="563"/></clipPath><clipPath class="axesclip" id="clip7a8eb7x"><rect x="80" y="0" width="840" height="800"/></clipPath><clipPath class="axesclip" id="clip7a8eb7y"><rect x="0" y="100" width="1000" height="563"/></clipPath><clipPath class="axesclip" id="clip7a8eb7xy"><rect x="80" y="100" width="840" height="563"/></clipPath></g><g class="gradients"/><g class="patterns"/></defs><g class="bglayer"><rect class="bg" x="80" y="100" width="840" height="563" style="fill: rgb(229, 236, 246); fill-opacity: 1; stroke-width: 0;"/></g><g class="layer-below"><g class="imagelayer"/><g class="shapelayer"/></g><g class="cartesianlayer"><g class="subplot xy"><g class="layer-subplot"><g class="shapelayer"/><g class="imagelayer"/></g><g class="minor-gridlayer"><g class="x"/><g class="y"/></g><g class="gridlayer"><g class="x"><path class="xgrid crisp" transform="translate(173.32999999999998,0)" d="M0,100v563" style="stroke: rgb(255, 255, 255); stroke-opacity: 1; stroke-width: 1px;"/><path class="xgrid crisp" transform="translate(266.66999999999996,0)" d="M0,100v563" style="stroke: rgb(255, 255, 255); stroke-opacity: 1; stroke-width: 1px;"/><path class="xgrid crisp" transform="translate(360,0)" d="M0,100v563" style="stroke: rgb(255, 255, 255); stroke-opacity: 1; stroke-width: 1px;"/><path class="xgrid crisp" transform="translate(453.33,0)" d="M0,100v563" style="stroke: rgb(255, 255, 255); stroke-opacity: 1; stroke-width: 1px;"/><path class="xgrid crisp" transform="translate(546.6700000000001,0)" d="M0,100v563" style="stroke: rgb(255, 255, 255); stroke-opacity: 1; stroke-width: 1px;"/><path class="xgrid crisp" transform="translate(640,0)" d="M0,100v563" style="stroke: rgb(255, 255, 255); stroke-opacity: 1; stroke-width: 1px;"/><path class="xgrid crisp" transform="translate(733.33,0)" d="M0,100v563" style="stroke: rgb(255, 255, 255); stroke-opacity: 1; stroke-width: 1px;"/><path class="xgrid crisp" transform="translate(826.67,0)" d="M0,100v563" style="stroke: rgb(255, 255, 255); stroke-opacity: 1; stroke-width: 1px;"/></g><g class="y"><path class="ygrid crisp" transform="translate(0,605.6800000000001)" d="M80,0h840" style="stroke: rgb(255, 255, 255); stroke-opacity: 1; stroke-width: 1px;"/><path class="ygrid crisp" transform="translate(0,548.36)" d="M80,0h840" style="stroke: rgb(255, 255, 255); stroke-opacity: 1; stroke-width: 1px;"/><path class="ygrid crisp" transform="translate(0,491.04)" d="M80,0h840" style="stroke: rgb(255, 255, 255); stroke-opacity: 1; stroke-width: 1px;"/><path class="ygrid crisp" transform="translate(0,433.72)" d="M80,0h840" style="stroke: rgb(255, 255, 255); stroke-opacity: 1; stroke-width: 1px;"/><path class="ygrid crisp" transform="translate(0,376.4)" d="M80,0h840" style="stroke: rgb(255, 255, 255); stroke-opacity: 1; stroke-width: 1px;"/><path class="ygrid crisp" transform="translate(0,319.08000000000004)" d="M80,0h840" style="stroke: rgb(255, 255, 255); stroke-opacity: 1; stroke-width: 1px;"/><path class="ygrid crisp" transform="translate(0,261.76)" d="M80,0h840" style="stroke: rgb(255, 255, 255); stroke-opacity: 1; stroke-width: 1px;"/><path class="ygrid crisp" transform="translate(0,204.44)" d="M80,0h840" style="stroke: rgb(255, 255, 255); stroke-opacity: 1; stroke-width: 1px;"/><path class="ygrid crisp" transform="translate(0,147.12)" d="M80,0h840" style="stroke: rgb(255, 255, 255); stroke-opacity: 1; stroke-width: 1px;"/></g></g><g class="zerolinelayer"><path class="yzl zl crisp" transform="translate(0,663)" d="M80,0h840" style="stroke: rgb(255, 255, 255); stroke-opacity: 1; stroke-width: 2px;"/></g><path class="xlines-below"/><path class="ylines-below"/><g class="overlines-below"/><g class="xaxislayer-below"/><g class="yaxislayer-below"/><g class="overaxes-below"/><g class="plot" transform="translate(80,100)" clip-path="url(#clip7a8eb7xyplot)"><g class="barlayer mlayer"><g class="trace bars" style="opacity: 1;"><g class="points"><g class="point"><path d="M4.71,563V45.46H30.75V563Z" style="vector-effect: non-scaling-stroke; opacity: 1; stroke-width: 0px; fill: rgb(99, 110, 250); fill-opacity: 1;"/><text class="bartext bartext-inside" text-anchor="middle" data-notex="1" x="0" y="0" style="font-family: verdana; font-size: 23px; fill: rgb(255, 255, 255); fill-opacity: 1; white-space: pre;" transform="translate(17.73,65.36875)scale(0.7157142857142856)rotate(90 0 -9)">45</text></g><g class="point"><path d="M98.05,563V199.73H124.09V563Z" style="vector-effect: non-scaling-stroke; opacity: 1; stroke-width: 0px; fill: rgb(99, 110, 250); fill-opacity: 1;"/><text class="bartext bartext-inside" text-anchor="middle" data-notex="1" x="0" y="0" style="font-family: verdana; font-size: 23px; fill: rgb(255, 255, 255); fill-opacity: 1; white-space: pre;" transform="translate(111.07,219.63875)scale(0.7157142857142859)rotate(90 0 -9)">32</text></g><g class="point"><path d="M191.38,563V524.34H217.42V563Z" style="vector-effect: non-scaling-stroke; opacity: 1; stroke-width: 0px; fill: rgb(99, 110, 250); fill-opacity: 1;"/><text class="bartext bartext-inside" text-anchor="middle" data-notex="1" x="0" y="0" style="font-family: verdana; font-size: 23px; fill: rgb(255, 255, 255); fill-opacity: 1; white-space: pre;" transform="translate(204.39999999999998,547.2458035714286)scale(0.7157142857142853)rotate(90 0 -9)">3.4</text></g><g class="point"><path d="M284.71,563V525.45H310.75V563Z" style="vector-effect: non-scaling-stroke; opacity: 1; stroke-width: 0px; fill: rgb(99, 110, 250); fill-opacity: 1;"/><text class="bartext bartext-inside" text-anchor="middle" data-notex="1" x="0" y="0" style="font-family: verdana; font-size: 23px; fill: rgb(255, 255, 255); fill-opacity: 1; white-space: pre;" transform="translate(297.73,548.3558035714286)scale(0.7157142857142863)rotate(90 0 -9)">3.3</text></g><g class="point"><path d="M378.05,563V532.67H404.09V563Z" style="vector-effect: non-scaling-stroke; opacity: 1; stroke-width: 0px; fill: rgb(99, 110, 250); fill-opacity: 1;"/><text class="bartext bartext-inside" text-anchor="middle" data-notex="1" x="0" y="0" style="font-family: verdana; font-size: 23px; fill: rgb(255, 255, 255); fill-opacity: 1; white-space: pre;" transform="translate(391.07,553.6548006644518)scale(0.6466445182724263)rotate(90 0 -9)">2.6</text></g><g class="point"><path d="M471.38,563V479.1H497.42V563Z" style="vector-effect: non-scaling-stroke; opacity: 1; stroke-width: 0px; fill: rgb(99, 110, 250); fill-opacity: 1;"/><text class="bartext bartext-inside" text-anchor="middle" data-notex="1" x="0" y="0" style="font-family: verdana; font-size: 23px; fill: rgb(255, 255, 255); fill-opacity: 1; white-space: pre;" transform="translate(484.4,502.0058035714286)scale(0.7157142857142863)rotate(90 0 -9)">7.3</text></g><g class="point"><path d="M564.71,563V490.93H590.75V563Z" style="vector-effect: non-scaling-stroke; opacity: 1; stroke-width: 0px; fill: rgb(99, 110, 250); fill-opacity: 1;"/><text class="bartext bartext-inside" text-anchor="middle" data-notex="1" x="0" y="0" style="font-family: verdana; font-size: 23px; fill: rgb(255, 255, 255); fill-opacity: 1; white-space: pre;" transform="translate(577.73,513.8358035714285)scale(0.7157142857142843)rotate(90 0 -9)">6.3</text></g><g class="point"><path d="M658.05,563V561.04H684.09V563Z" style="vector-effect: non-scaling-stroke; opacity: 1; stroke-width: 0px; fill: rgb(99, 110, 250); fill-opacity: 1;"/><text class="bartext bartext-outside" text-anchor="middle" data-notex="1" x="0" y="0" style="font-family: verdana; font-size: 23px; fill: rgb(0, 0, 0); fill-opacity: 1; white-space: pre;" transform="translate(671.0699999999999,556.074716981132)scale(0.3930566037735861)">170m</text></g><g class="point"><path d="M751.38,563V561.89H777.42V563Z" style="vector-effect: non-scaling-stroke; opacity: 1; stroke-width: 0px; fill: rgb(99, 110, 250); fill-opacity: 1;"/><text class="bartext bartext-outside" text-anchor="middle" data-notex="1" x="0" y="0" style="font-family: verdana; font-size: 23px; fill: rgb(0, 0, 0); fill-opacity: 1; white-space: pre;" transform="translate(764.4,556.367966101695)scale(0.5044067796610162)">97m</text></g></g></g><g class="trace bars" style="opacity: 1;"><g class="points"><g class="point"><path d="M33.65,563V28.15H59.69V563Z" style="vector-effect: non-scaling-stroke; opacity: 1; stroke-width: 0px; fill: rgb(239, 85, 59); fill-opacity: 1;"/><text class="bartext bartext-inside" text-anchor="middle" data-notex="1" x="0" y="0" style="font-family: verdana; font-size: 23px; fill: rgb(68, 68, 68); fill-opacity: 1; white-space: pre;" transform="translate(46.67,48.058749999999996)scale(0.7157142857142856)rotate(90 0 -9)">47</text></g><g class="point"><path d="M126.98,563V195.85H153.02V563Z" style="vector-effect: non-scaling-stroke; opacity: 1; stroke-width: 0px; fill: rgb(239, 85, 59); fill-opacity: 1;"/><text class="bartext bartext-inside" text-anchor="middle" data-notex="1" x="0" y="0" style="font-family: verdana; font-size: 23px; fill: rgb(68, 68, 68); fill-opacity: 1; white-space: pre;" transform="translate(140,215.75875)scale(0.7157142857142859)rotate(90 0 -9)">32</text></g><g class="point"><path d="M220.31,563V536.33H246.35V563Z" style="vector-effect: non-scaling-stroke; opacity: 1; stroke-width: 0px; fill: rgb(239, 85, 59); fill-opacity: 1;"/><text class="bartext bartext-inside" text-anchor="middle" data-notex="1" x="0" y="0" style="font-family: verdana; font-size: 23px; fill: rgb(68, 68, 68); fill-opacity: 1; white-space: pre;" transform="translate(233.32999999999998,554.6093189368771)scale(0.5493687707641185)rotate(90 0 -9)">2.3</text></g><g class="point"><path d="M313.65,563V538.27H339.69V563Z" style="vector-effect: non-scaling-stroke; opacity: 1; stroke-width: 0px; fill: rgb(239, 85, 59); fill-opacity: 1;"/><text class="bartext bartext-inside" text-anchor="middle" data-notex="1" x="0" y="0" style="font-family: verdana; font-size: 23px; fill: rgb(68, 68, 68); fill-opacity: 1; white-space: pre;" transform="translate(326.66999999999996,553.520365448505)scale(0.5326245847176085)">2.2</text></g><g class="point"><path d="M406.98,563V530.41H433.02V563Z" style="vector-effect: non-scaling-stroke; opacity: 1; stroke-width: 0px; fill: rgb(239, 85, 59); fill-opacity: 1;"/><text class="bartext bartext-inside" text-anchor="middle" data-notex="1" x="0" y="0" style="font-family: verdana; font-size: 23px; fill: rgb(68, 68, 68); fill-opacity: 1; white-space: pre;" transform="translate(420,553.0653986710963)scale(0.7067109634551504)rotate(90 0 -9)">2.8</text></g><g class="point"><path d="M500.31,563V477.52H526.35V563Z" style="vector-effect: non-scaling-stroke; opacity: 1; stroke-width: 0px; fill: rgb(239, 85, 59); fill-opacity: 1;"/><text class="bartext bartext-inside" text-anchor="middle" data-notex="1" x="0" y="0" style="font-family: verdana; font-size: 23px; fill: rgb(68, 68, 68); fill-opacity: 1; white-space: pre;" transform="translate(513.33,500.42580357142856)scale(0.7157142857142863)rotate(90 0 -9)">7.5</text></g><g class="point"><path d="M593.65,563V490.17H619.69V563Z" style="vector-effect: non-scaling-stroke; opacity: 1; stroke-width: 0px; fill: rgb(239, 85, 59); fill-opacity: 1;"/><text class="bartext bartext-inside" text-anchor="middle" data-notex="1" x="0" y="0" style="font-family: verdana; font-size: 23px; fill: rgb(68, 68, 68); fill-opacity: 1; white-space: pre;" transform="translate(606.6700000000001,513.0758035714287)scale(0.7157142857142884)rotate(90 0 -9)">6.4</text></g><g class="point"><path d="M686.98,563V560.89H713.02V563Z" style="vector-effect: non-scaling-stroke; opacity: 1; stroke-width: 0px; fill: rgb(239, 85, 59); fill-opacity: 1;"/><text class="bartext bartext-outside" text-anchor="middle" data-notex="1" x="0" y="0" style="font-family: verdana; font-size: 23px; fill: rgb(0, 0, 0); fill-opacity: 1; white-space: pre;" transform="translate(700,555.9247169811321)scale(0.39305660377358437)">180m</text></g></g></g><g class="trace bars" style="opacity: 1;"><g class="points"><g class="point"><path d="M62.58,563V175.69H88.62V563Z" style="vector-effect: non-scaling-stroke; opacity: 1; stroke-width: 0px; fill: rgb(0, 204, 150); fill-opacity: 1;"/><text class="bartext bartext-inside" text-anchor="middle" data-notex="1" x="0" y="0" style="font-family: verdana; font-size: 23px; fill: rgb(68, 68, 68); fill-opacity: 1; white-space: pre;" transform="translate(75.6,195.59875)scale(0.7157142857142859)rotate(90 0 -9)">34</text></g><g class="point"><path d="M155.91,563V396.86H181.95V563Z" style="vector-effect: non-scaling-stroke; opacity: 1; stroke-width: 0px; fill: rgb(0, 204, 150); fill-opacity: 1;"/><text class="bartext bartext-inside" text-anchor="middle" data-notex="1" x="0" y="0" style="font-family: verdana; font-size: 23px; fill: rgb(68, 68, 68); fill-opacity: 1; white-space: pre;" transform="translate(168.93,416.76875)scale(0.7157142857142853)rotate(90 0 -9)">14</text></g><g class="point"><path d="M249.25,563V326.29H275.29V563Z" style="vector-effect: non-scaling-stroke; opacity: 1; stroke-width: 0px; fill: rgb(0, 204, 150); fill-opacity: 1;"/><text class="bartext bartext-inside" text-anchor="middle" data-notex="1" x="0" y="0" style="font-family: verdana; font-size: 23px; fill: rgb(68, 68, 68); fill-opacity: 1; white-space: pre;" transform="translate(262.27,346.19875)scale(0.7157142857142863)rotate(90 0 -9)">21</text></g><g class="point"><path d="M342.58,563V418.14H368.62V563Z" style="vector-effect: non-scaling-stroke; opacity: 1; stroke-width: 0px; fill: rgb(0, 204, 150); fill-opacity: 1;"/><text class="bartext bartext-inside" text-anchor="middle" data-notex="1" x="0" y="0" style="font-family: verdana; font-size: 23px; fill: rgb(68, 68, 68); fill-opacity: 1; white-space: pre;" transform="translate(355.6,438.04875)scale(0.7157142857142863)rotate(90 0 -9)">13</text></g><g class="point"><path d="M435.91,563V426.58H461.95V563Z" style="vector-effect: non-scaling-stroke; opacity: 1; stroke-width: 0px; fill: rgb(0, 204, 150); fill-opacity: 1;"/><text class="bartext bartext-inside" text-anchor="middle" data-notex="1" x="0" y="0" style="font-family: verdana; font-size: 23px; fill: rgb(68, 68, 68); fill-opacity: 1; white-space: pre;" transform="translate(448.93,446.4887499999999)scale(0.7157142857142843)rotate(90 0 -9)">12</text></g><g class="point"><path d="M529.25,563V534.97H555.29V563Z" style="vector-effect: non-scaling-stroke; opacity: 1; stroke-width: 0px; fill: rgb(0, 204, 150); fill-opacity: 1;"/><text class="bartext bartext-inside" text-anchor="middle" data-notex="1" x="0" y="0" style="font-family: verdana; font-size: 23px; fill: rgb(68, 68, 68); fill-opacity: 1; white-space: pre;" transform="translate(542.27,554.254634551495)scale(0.5855149501661122)rotate(90 0 -9)">2.4</text></g><g class="point"><path d="M622.58,563V535.65H648.62V563Z" style="vector-effect: non-scaling-stroke; opacity: 1; stroke-width: 0px; fill: rgb(0, 204, 150); fill-opacity: 1;"/><text class="bartext bartext-inside" text-anchor="middle" data-notex="1" x="0" y="0" style="font-family: verdana; font-size: 23px; fill: rgb(68, 68, 68); fill-opacity: 1; white-space: pre;" transform="translate(635.6,554.431976744186)scale(0.5674418604651169)rotate(90 0 -9)">2.4</text></g><g class="point"><path d="M715.91,563V550.51H741.95V563Z" style="vector-effect: non-scaling-stroke; opacity: 1; stroke-width: 0px; fill: rgb(0, 204, 150); fill-opacity: 1;"/><text class="bartext bartext-outside" text-anchor="middle" data-notex="1" x="0" y="0" style="font-family: verdana; font-size: 23px; fill: rgb(0, 0, 0); fill-opacity: 1; white-space: pre;" transform="translate(728.9300000000001,544.0495348837209)scale(0.692093023255816)">1.1</text></g><g class="point"><path d="M809.25,563V555.91H835.29V563Z" style="vector-effect: non-scaling-stroke; opacity: 1; stroke-width: 0px; fill: rgb(0, 204, 150); fill-opacity: 1;"/><text class="bartext bartext-outside" text-anchor="middle" data-notex="1" x="0" y="0" style="font-family: verdana; font-size: 23px; fill: rgb(0, 0, 0); fill-opacity: 1; white-space: pre;" transform="translate(822.27,550.944716981132)scale(0.39305660377358437)">620m</text></g></g></g></g></g><g class="overplot"/><path class="xlines-above crisp" d="" style="fill: none; stroke-width: 1px; stroke: rgb(0, 0, 0); stroke-opacity: 0;"/><path class="ylines-above crisp" d="M0,0" style="fill: none;"/><g class="overlines-above"/><g class="xaxislayer-above"><path class="xtick ticks crisp" d="M0,664v5" transform="translate(80,0)" style="stroke: rgb(68, 68, 68); stroke-opacity: 1; stroke-width: 1px;"/><path class="xtick ticks crisp" d="M0,664v5" transform="translate(173.32999999999998,0)" style="stroke: rgb(68, 68, 68); stroke-opacity: 1; stroke-width: 1px;"/><path class="xtick ticks crisp" d="M0,664v5" transform="translate(266.66999999999996,0)" style="stroke: rgb(68, 68, 68); stroke-opacity: 1; stroke-width: 1px;"/><path class="xtick ticks crisp" d="M0,664v5" transform="translate(360,0)" style="stroke: rgb(68, 68, 68); stroke-opacity: 1; stroke-width: 1px;"/><path class="xtick ticks crisp" d="M0,664v5" transform="translate(453.33,0)" style="stroke: rgb(68, 68, 68); stroke-opacity: 1; stroke-width: 1px;"/><path class="xtick ticks crisp" d="M0,664v5" transform="translate(546.6700000000001,0)" style="stroke: rgb(68, 68, 68); stroke-opacity: 1; stroke-width: 1px;"/><path class="xtick ticks crisp" d="M0,664v5" transform="translate(640,0)" style="stroke: rgb(68, 68, 68); stroke-opacity: 1; stroke-width: 1px;"/><path class="xtick ticks crisp" d="M0,664v5" transform="translate(733.33,0)" style="stroke: rgb(68, 68, 68); stroke-opacity: 1; stroke-width: 1px;"/><path class="xtick ticks crisp" d="M0,664v5" transform="translate(826.67,0)" style="stroke: rgb(68, 68, 68); stroke-opacity: 1; stroke-width: 1px;"/><path class="xtick ticks crisp" d="M0,664v5" transform="translate(920,0)" style="stroke: rgb(68, 68, 68); stroke-opacity: 1; stroke-width: 1px;"/><g class="xtick"><text text-anchor="start" x="0" y="687" transform="translate(126.67,0) rotate(90,0,675.5)" style="font-family: verdana; font-size: 23px; fill: rgb(0, 0, 0); fill-opacity: 1; white-space: pre; opacity: 1;">5S rRNA</text></g><g class="xtick"><text text-anchor="start" x="0" y="687" transform="translate(220,0) rotate(90,0,675.5)" style="font-family: verdana; font-size: 23px; fill: rgb(0, 0, 0); fill-opacity: 1; white-space: pre; opacity: 1;">tRNA</text></g><g class="xtick"><text text-anchor="start" x="0" y="687" transform="translate(313.33000000000004,0) rotate(90,0,675.5)" style="font-family: verdana; font-size: 23px; fill: rgb(0, 0, 0); fill-opacity: 1; white-space: pre; opacity: 1;">SRP</text></g><g class="xtick"><text text-anchor="start" x="0" y="687" transform="translate(406.67,0) rotate(90,0,675.5)" style="font-family: verdana; font-size: 23px; fill: rgb(0, 0, 0); fill-opacity: 1; white-space: pre; opacity: 1;">RNase P</text></g><g class="xtick"><text text-anchor="start" x="0" y="687" transform="translate(500,0) rotate(90,0,675.5)" style="font-family: verdana; font-size: 23px; fill: rgb(0, 0, 0); fill-opacity: 1; white-space: pre; opacity: 1;">tmRNA</text></g><g class="xtick"><text text-anchor="start" x="0" y="687" transform="translate(593.33,0) rotate(90,0,675.5)" style="font-family: verdana; font-size: 23px; fill: rgb(0, 0, 0); fill-opacity: 1; white-space: pre; opacity: 1;">Intron I</text></g><g class="xtick"><text text-anchor="start" x="0" y="687" transform="translate(686.67,0) rotate(90,0,675.5)" style="font-family: verdana; font-size: 23px; fill: rgb(0, 0, 0); fill-opacity: 1; white-space: pre; opacity: 1;">16S rRNA</text></g><g class="xtick"><text text-anchor="start" x="0" y="687" transform="translate(780,0) rotate(90,0,675.5)" style="font-family: verdana; font-size: 23px; fill: rgb(0, 0, 0); fill-opacity: 1; white-space: pre; opacity: 1;">TERC</text></g><g class="xtick"><text text-anchor="start" x="0" y="687" transform="translate(873.33,0) rotate(90,0,675.5)" style="font-family: verdana; font-size: 23px; fill: rgb(0, 0, 0); fill-opacity: 1; white-space: pre; opacity: 1;">23S rRNA</text></g></g><g class="yaxislayer-above"><g class="ytick"><text text-anchor="end" x="79" y="8.049999999999999" transform="translate(0,663)" style="font-family: verdana; font-size: 23px; fill: rgb(0, 0, 0); fill-opacity: 1; white-space: pre; opacity: 1;">0</text></g><g class="ytick"><text text-anchor="end" x="79" y="8.049999999999999" style="font-family: verdana; font-size: 23px; fill: rgb(0, 0, 0); fill-opacity: 1; white-space: pre; opacity: 1;" transform="translate(0,605.6800000000001)">5</text></g><g class="ytick"><text text-anchor="end" x="79" y="8.049999999999999" style="font-family: verdana; font-size: 23px; fill: rgb(0, 0, 0); fill-opacity: 1; white-space: pre; opacity: 1;" transform="translate(0,548.36)">10</text></g><g class="ytick"><text text-anchor="end" x="79" y="8.049999999999999" style="font-family: verdana; font-size: 23px; fill: rgb(0, 0, 0); fill-opacity: 1; white-space: pre; opacity: 1;" transform="translate(0,491.04)">15</text></g><g class="ytick"><text text-anchor="end" x="79" y="8.049999999999999" style="font-family: verdana; font-size: 23px; fill: rgb(0, 0, 0); fill-opacity: 1; white-space: pre; opacity: 1;" transform="translate(0,433.72)">20</text></g><g class="ytick"><text text-anchor="end" x="79" y="8.049999999999999" style="font-family: verdana; font-size: 23px; fill: rgb(0, 0, 0); fill-opacity: 1; white-space: pre; opacity: 1;" transform="translate(0,376.4)">25</text></g><g class="ytick"><text text-anchor="end" x="79" y="8.049999999999999" style="font-family: verdana; font-size: 23px; fill: rgb(0, 0, 0); fill-opacity: 1; white-space: pre; opacity: 1;" transform="translate(0,319.08000000000004)">30</text></g><g class="ytick"><text text-anchor="end" x="79" y="8.049999999999999" style="font-family: verdana; font-size: 23px; fill: rgb(0, 0, 0); fill-opacity: 1; white-space: pre; opacity: 1;" transform="translate(0,261.76)">35</text></g><g class="ytick"><text text-anchor="end" x="79" y="8.049999999999999" style="font-family: verdana; font-size: 23px; fill: rgb(0, 0, 0); fill-opacity: 1; white-space: pre; opacity: 1;" transform="translate(0,204.44)">40</text></g><g class="ytick"><text text-anchor="end" x="79" y="8.049999999999999" style="font-family: verdana; font-size: 23px; fill: rgb(0, 0, 0); fill-opacity: 1; white-space: pre; opacity: 1;" transform="translate(0,147.12)">45</text></g></g><g class="overaxes-above"/></g></g><g class="polarlayer"/><g class="smithlayer"/><g class="ternarylayer"/><g class="geolayer"/><g class="funnelarealayer"/><g class="pielayer"/><g class="iciclelayer"/><g class="treemaplayer"/><g class="sunburstlayer"/><g class="glimages"/><defs id="topdefs-7a8eb7"><g class="clips"/><clipPath id="legend7a8eb7"><rect width="236" height="109" x="0" y="0"/></clipPath></defs><g class="layer-above"><g class="imagelayer"/><g class="shapelayer"/></g><g class="infolayer"><g class="legend" pointer-events="all" transform="translate(667.1999999999999,102.815)"><rect class="bg" shape-rendering="crispEdges" width="236" height="109" x="0" y="0" style="stroke: rgb(68, 68, 68); stroke-opacity: 1; fill: rgb(0, 0, 0); fill-opacity: 0; stroke-width: 0px;"/><g class="scrollbox" transform="" clip-path="url(#legend7a8eb7)"><g class="groups"><g class="traces" transform="translate(0,21.450000000000003)" style="opacity: 1;"><text class="legendtext" text-anchor="start" x="40" y="8.97" style="font-family: verdana; font-size: 23px; fill: rgb(0, 0, 0); fill-opacity: 1; white-space: pre;">Strive NR100</text><g class="layers" style="opacity: 1;"><g class="legendfill"/><g class="legendlines"/><g class="legendsymbols"><g class="legendpoints"><path class="legendundefined" d="M6,6H-6V-6H6Z" transform="translate(20,0)" style="stroke-width: 0px; fill: rgb(99, 110, 250); fill-opacity: 1;"/></g></g></g><rect class="legendtoggle" x="0" y="-16.450000000000003" width="230.015625" height="32.900000000000006" style="fill: rgb(0, 0, 0); fill-opacity: 0;"/></g><g class="traces" transform="translate(0,54.35000000000001)" style="opacity: 1;"><text class="legendtext" text-anchor="start" x="40" y="8.97" style="font-family: verdana; font-size: 23px; fill: rgb(0, 0, 0); fill-opacity: 1; white-space: pre;">Stralign NR100</text><g class="layers" style="opacity: 1;"><g class="legendfill"/><g class="legendlines"/><g class="legendsymbols"><g class="legendpoints"><path class="legendundefined" d="M6,6H-6V-6H6Z" transform="translate(20,0)" style="stroke-width: 0px; fill: rgb(239, 85, 59); fill-opacity: 1;"/></g></g></g><rect class="legendtoggle" x="0" y="-16.450000000000003" width="230.015625" height="32.900000000000006" style="fill: rgb(0, 0, 0); fill-opacity: 0;"/></g><g class="traces" transform="translate(0,87.25000000000001)" style="opacity: 1;"><text class="legendtext" text-anchor="start" x="40" y="8.97" style="font-family: verdana; font-size: 23px; fill: rgb(0, 0, 0); fill-opacity: 1; white-space: pre;">ArchiveII NR100</text><g class="layers" style="opacity: 1;"><g class="legendfill"/><g class="legendlines"/><g class="legendsymbols"><g class="legendpoints"><path class="legendundefined" d="M6,6H-6V-6H6Z" transform="translate(20,0)" style="stroke-width: 0px; fill: rgb(0, 204, 150); fill-opacity: 1;"/></g></g></g><rect class="legendtoggle" x="0" y="-16.450000000000003" width="230.015625" height="32.900000000000006" style="fill: rgb(0, 0, 0); fill-opacity: 0;"/></g></g></g><rect class="scrollbar" rx="20" ry="3" width="0" height="0" x="0" y="0" style="fill: rgb(128, 139, 164); fill-opacity: 1;"/></g><g class="g-gtitle"/><g class="g-xtitle"/><g class="g-ytitle" transform="translate(12.849609375,0)"><text class="ytitle" transform="rotate(-90,15.150000000000006,381.5)" x="15.150000000000006" y="381.5" text-anchor="middle" style="font-family: verdana; font-size: 28px; fill: rgb(0, 0, 0); opacity: 1; font-weight: normal; white-space: pre;">Percentage</text></g><g class="annotation" data-index="0" style="opacity: 1;"><g class="annotation-text-g" transform="rotate(0,29.6,111.26)"><g class="cursor-pointer" transform="translate(7,93)"><rect class="bg" x="0.5" y="0.5" width="45" height="36" style="stroke-width: 1px; stroke: rgb(0, 0, 0); stroke-opacity: 0; fill: rgb(0, 0, 0); fill-opacity: 0;"/><text class="annotation-text" text-anchor="middle" x="22.828125" y="29" style="font-family: Arial; font-size: 30px; fill: rgb(0, 0, 0); fill-opacity: 1; white-space: pre;"><tspan style="font-weight:bold">(A)</tspan></text></g></g></g></g></svg>