<svg class="main-svg" xmlns="http://www.w3.org/2000/svg" xmlns:xlink="http://www.w3.org/1999/xlink" width="2400" height="1600" style="" viewBox="0 0 1200 800"><rect x="0" y="0" width="1200" height="800" style="fill: rgb(255, 255, 255); fill-opacity: 1;"/><defs id="defs-862bc8"><g class="clips"/><g class="gradients"/><g class="patterns"/></defs><g class="bglayer"/><g class="layer-below"><g class="imagelayer"/><g class="shapelayer"/></g><g class="cartesianlayer"/><g class="polarlayer"/><g class="smithlayer"/><g class="ternarylayer"/><g class="geolayer"/><g class="funnelarealayer"/><g class="pielayer"><g class="trace" stroke-linejoin="round" style="opacity: 1;"><g class="slice"><path class="surface" d="M690.6029206199155,440.4221765437371a138.6,138.6 0 0 0 -129.1029206199155,-189.02217654373712l0,-191.40000000000003a330,330 0 0 1 307.3879062378941,450.0528012946122Z" style="pointer-events: all; stroke-width: 0; fill: rgb(99, 110, 250); fill-opacity: 1; stroke: rgb(68, 68, 68); stroke-opacity: 1;"/><g class="slicetext"><text data-notex="1" class="slicetext" transform="translate(754.6266451278393,253.15046690231964)" text-anchor="middle" x="0" y="0" style="font-family: verdana; font-size: 18px; fill: rgb(255, 255, 255); fill-opacity: 1; white-space: pre;"><tspan class="line" dy="0em" x="0" y="0">16S rRNA</tspan><tspan class="line" dy="1.3em" x="0" y="0">30.9%</tspan></text></g></g><g class="slice"><path class="surface" d="M561.5,251.4a138.6,138.6 0 0 0 -129.22579585344025,188.70642360062212l-178.45467046427467,69.19458497228771a330,330 0 0 1 307.6804663177149,-449.30100857290984Z" style="pointer-events: all; stroke-width: 0; fill: rgb(239, 85, 59); fill-opacity: 1; stroke: rgb(68, 68, 68); stroke-opacity: 1;"/><g class="slicetext"><text data-notex="1" class="slicetext" transform="translate(367.83970818434307,252.91407906172344)" text-anchor="middle" x="0" y="0" style="font-family: verdana; font-size: 18px; fill: rgb(68, 68, 68); fill-opacity: 1; white-space: pre;"><tspan class="line" dy="0em" x="0" y="0">5S rRNA</tspan><tspan class="line" dy="1.3em" x="0" y="0">30.9%</tspan></text></g></g><g class="slice"><path class="surface" d="M432.2742041465598,440.1064236006221a138.6,138.6 0 0 0 169.7491891570737,82.43720919687983l55.960876466922386,183.03644529178845a330,330 0 0 1 -404.16473608827073,-196.27906951638056Z" style="pointer-events: all; stroke-width: 0; fill: rgb(0, 204, 150); fill-opacity: 1; stroke: rgb(68, 68, 68); stroke-opacity: 1;"/><g class="slicetext"><text data-notex="1" class="slicetext" transform="translate(459.14585567742915,596.0576852565425)" text-anchor="middle" x="0" y="0" style="font-family: verdana; font-size: 18px; fill: rgb(68, 68, 68); fill-opacity: 1; white-space: pre;"><tspan class="line" dy="0em" x="0" y="0">tRNA</tspan><tspan class="line" dy="1.3em" x="0" y="0">23.8%</tspan></text></g></g><g class="slice"><path class="surface" d="M602.0233933036335,522.5436327975019a138.6,138.6 0 0 0 42.01235671107944,-21.198179502323253l113.9779404965083,153.7627688361992a330,330 0 0 1 -100.02942074066534,50.47185595791251Z" style="pointer-events: all; stroke-width: 0; fill: rgb(171, 99, 250); fill-opacity: 1; stroke: rgb(68, 68, 68); stroke-opacity: 1;"/><g class="slicetext"><text data-notex="1" class="slicetext" transform="translate(688.583064373629,637.1609103911914)" text-anchor="middle" x="0" y="0" style="font-family: verdana; font-size: 18px; fill: rgb(68, 68, 68); fill-opacity: 1; white-space: pre;"><tspan class="line" dy="0em" x="0" y="0">Intron I</tspan><tspan class="line" dy="1.3em" x="0" y="0">5.43%</tspan></text></g></g><g class="slice"><path class="surface" d="M644.0357500147129,501.3454532951787a138.6,138.6 0 0 0 23.53357992775822,-22.13078384247491l146.47669373007918,123.20121019659098a330,330 0 0 1 -56.03233316132909,52.69234248208312Z" style="pointer-events: all; stroke-width: 0; fill: rgb(255, 161, 90); fill-opacity: 1; stroke: rgb(68, 68, 68); stroke-opacity: 1;"/><g class="slicetext"><text data-notex="1" class="slicetext" transform="translate(763.3651326289319,597.7954260415942)rotate(46.759556463379056)" text-anchor="middle" x="0" y="0" style="font-family: verdana; font-size: 18px; fill: rgb(68, 68, 68); fill-opacity: 1; white-space: pre;"><tspan class="line" dy="0em" x="0" y="0">SRP</tspan><tspan class="line" dy="1.3em" x="0" y="0">3.72%</tspan></text></g></g><g class="slice"><path class="surface" d="M667.5693299424711,479.2146694527038a138.6,138.6 0 0 0 13.418159798310027,-18.98148786845034l165.00653345155493,96.98867933063575a330,330 0 0 1 -31.947999519785782,45.194018734405574Z" style="pointer-events: all; stroke-width: 0; fill: rgb(25, 211, 243); fill-opacity: 1; stroke: rgb(68, 68, 68); stroke-opacity: 1;"/><g class="slicetext"><text data-notex="1" class="slicetext" transform="translate(873.7738468049217,690.2505898018817)" text-anchor="middle" x="0" y="0" style="font-family: verdana; font-size: 18px; fill: rgb(0, 0, 0); fill-opacity: 1; white-space: pre;"><tspan class="line" dy="0em" x="0" y="0">tmRNA</tspan><tspan class="line" dy="1.3em" x="0" y="0">2.67%</tspan></text></g><path class="textline" stroke-width="2" d="M830.9691593049217,580.4898217320251V694.9537148018817h11.3515625" fill="none" style="stroke: rgb(0, 0, 0); stroke-opacity: 1;"/></g><g class="slice"><path class="surface" d="M680.9874897407811,460.23318158425343a138.6,138.6 0 0 0 8.669326028005266,-17.452592614393186l176.97845987118126,72.88748000599753a330,330 0 0 1 -20.641252447631587,41.5537919390314Z" style="pointer-events: all; stroke-width: 0; fill: rgb(255, 102, 146); fill-opacity: 1; stroke: rgb(68, 68, 68); stroke-opacity: 1;"/><g class="slicetext"><text data-notex="1" class="slicetext" transform="translate(905.4443001279458,644.8443398018817)" text-anchor="middle" x="0" y="0" style="font-family: verdana; font-size: 18px; fill: rgb(0, 0, 0); fill-opacity: 1; white-space: pre;"><tspan class="line" dy="0em" x="0" y="0">RNase P</tspan><tspan class="line" dy="1.3em" x="0" y="0">2.24%</tspan></text></g><path class="textline" stroke-width="2" d="M857.0458626279458,536.8081846611536V649.5474648018817h11.3515625" fill="none" style="stroke: rgb(0, 0, 0); stroke-opacity: 1;"/></g><g class="slice"><path class="surface" d="M689.6568157687864,442.7805889698603a138.6,138.6 0 0 0 0.5885435463510884,-1.452307732163074l177.79121048280894,70.88191218539139a330,330 0 0 1 -1.401294157978782,3.4578755527692238Z" style="pointer-events: all; stroke-width: 0; fill: rgb(182, 232, 128); fill-opacity: 1; stroke: rgb(68, 68, 68); stroke-opacity: 1;"/><g class="slicetext"><text data-notex="1" class="slicetext" transform="translate(908.8173721562498,599.4380898018817)" text-anchor="middle" x="0" y="0" style="font-family: verdana; font-size: 18px; fill: rgb(0, 0, 0); fill-opacity: 1; white-space: pre;"><tspan class="line" dy="0em" x="0" y="0">TERC</tspan><tspan class="line" dy="1.3em" x="0" y="0">0.18%</tspan></text></g><path class="textline" stroke-width="2" d="M867.3408096562498,513.9411116168059V604.1412148018817h11.3515625" fill="none" style="stroke: rgb(0, 0, 0); stroke-opacity: 1;"/></g><g class="slice"><path class="surface" d="M690.2453593151374,441.3282812376972a138.6,138.6 0 0 0 0.27263699770553895,-0.6891992217362233l178.1677091939261,69.93016087918421a330,330 0 0 1 -0.6491357088227119,1.6409505279433887Z" style="pointer-events: all; stroke-width: 0; fill: rgb(255, 151, 255); fill-opacity: 1; stroke: rgb(68, 68, 68); stroke-opacity: 1;"/><g class="slicetext"><text data-notex="1" class="slicetext" transform="translate(923.4637970303477,554.0318398018817)" text-anchor="middle" x="0" y="0" style="font-family: verdana; font-size: 18px; fill: rgb(0, 0, 0); fill-opacity: 1; white-space: pre;"><tspan class="line" dy="0em" x="0" y="0">23S rRNA</tspan><tspan class="line" dy="1.3em" x="0" y="0">0.0851%</tspan></text></g><path class="textline" stroke-width="2" d="M868.3622345303477,511.39015206779317V558.7349648018817h11.3515625" fill="none" style="stroke: rgb(0, 0, 0); stroke-opacity: 1;"/></g><g class="slice"><path class="surface" d="M690.517996312843,440.639082015961a138.6,138.6 0 0 0 0.084924307072406,-0.21690547222363904l178.2849856179785,69.63062475087538a330,330 0 0 1 -0.2022007311247762,0.5164416005324739Z" style="pointer-events: all; stroke-width: 0; fill: rgb(254, 203, 82); fill-opacity: 1; stroke: rgb(68, 68, 68); stroke-opacity: 1;"/><g class="slicetext"><text data-notex="1" class="slicetext" transform="translate(921.7166018670157,508.6255898018817)" text-anchor="middle" x="0" y="0" style="font-family: verdana; font-size: 18px; fill: rgb(0, 0, 0); fill-opacity: 1; white-space: pre;"><tspan class="line" dy="0em" x="0" y="0">Intron II</tspan><tspan class="line" dy="1.3em" x="0" y="0">0.0267%</tspan></text></g></g></g></g><g class="iciclelayer"/><g class="treemaplayer"/><g class="sunburstlayer"/><g class="glimages"/><defs id="topdefs-862bc8"><g class="clips"/></defs><g class="layer-above"><g class="imagelayer"/><g class="shapelayer"/></g><g class="infolayer"><g class="g-gtitle"/><g class="annotation" data-index="0" style="opacity: 1;"><g class="annotation-text-g" transform="rotate(0,561.5,390)"><g class="cursor-pointer" transform="translate(513,362)"><rect class="bg" x="0.5" y="0.5" width="96" height="55" style="stroke-width: 1px; stroke: rgb(0, 0, 0); stroke-opacity: 0; fill: rgb(0, 0, 0); fill-opacity: 0;"/><text class="annotation-text" text-anchor="middle" x="48.734375" y="23" style="font-family: verdana; font-size: 21px; fill: rgb(0, 0, 0); fill-opacity: 1; white-space: pre;"><tspan class="line" dy="0em" x="48.734375" y="23">Strive</tspan><tspan class="line" dy="1.3em" x="48.734375" y="23">(41,124)</tspan></text></g></g></g></g></svg>