<svg class="main-svg" xmlns="http://www.w3.org/2000/svg" xmlns:xlink="http://www.w3.org/1999/xlink" width="2400" height="1600" style="" viewBox="0 0 1200 800"><rect x="0" y="0" width="1200" height="800" style="fill: rgb(255, 255, 255); fill-opacity: 1;"/><defs id="defs-8d1921"><g class="clips"/><g class="gradients"/><g class="patterns"/></defs><g class="bglayer"/><g class="layer-below"><g class="imagelayer"/><g class="shapelayer"/></g><g class="cartesianlayer"/><g class="polarlayer"/><g class="smithlayer"/><g class="ternarylayer"/><g class="geolayer"/><g class="funnelarealayer"/><g class="pielayer"><g class="trace" stroke-linejoin="round" style="opacity: 1;"><g class="slice"><path class="surface" d="M704.7041265545138,479.6470726200656a138.6,138.6 0 0 0 -105.70412655451383,-228.2470726200656l0,-191.40000000000003a330,330 0 0 1 251.67649179646153,543.4454110001562Z" style="pointer-events: all; stroke-width: 0; fill: rgb(99, 110, 250); fill-opacity: 1; stroke: rgb(68, 68, 68); stroke-opacity: 1;"/><g class="slicetext"><text data-notex="1" class="slicetext" transform="translate(811.6073545954008,286.8357010686198)" text-anchor="middle" x="0" y="0" style="font-family: verdana; font-size: 18px; fill: rgb(255, 255, 255); fill-opacity: 1; white-space: pre;"><tspan class="line" dy="0em" x="0" y="0">tRNA</tspan><tspan class="line" dy="1.3em" x="0" y="0">36.2%</tspan></text></g></g><g class="slice"><path class="surface" d="M599,251.4a138.6,138.6 0 0 0 -138.06920320752155,126.48162033768048l-190.66699490562502,-16.73490524796504a330,330 0 0 1 328.73619811314654,-301.1467150897154Z" style="pointer-events: all; stroke-width: 0; fill: rgb(239, 85, 59); fill-opacity: 1; stroke: rgb(68, 68, 68); stroke-opacity: 1;"/><g class="slicetext"><text data-notex="1" class="slicetext" transform="translate(440.7333587022846,212.5306738715956)" text-anchor="middle" x="0" y="0" style="font-family: verdana; font-size: 18px; fill: rgb(68, 68, 68); fill-opacity: 1; white-space: pre;"><tspan class="line" dy="0em" x="0" y="0">Intron I</tspan><tspan class="line" dy="1.3em" x="0" y="0">23.6%</tspan></text></g></g><g class="slice"><path class="surface" d="M460.9307967924784,377.8816203376805a138.6,138.6 0 0 0 69.29325944417772,132.45054310776484l-94.97630329223672,166.17298761513882a330,330 0 0 1 -164.983951057566,-315.3584359708687Z" style="pointer-events: all; stroke-width: 0; fill: rgb(0, 204, 150); fill-opacity: 1; stroke: rgb(68, 68, 68); stroke-opacity: 1;"/><g class="slicetext"><text data-notex="1" class="slicetext" transform="translate(391.05080166736445,493.9084205308752)" text-anchor="middle" x="0" y="0" style="font-family: verdana; font-size: 18px; fill: rgb(68, 68, 68); fill-opacity: 1; white-space: pre;"><tspan class="line" dy="0em" x="0" y="0">5S rRNA</tspan><tspan class="line" dy="1.3em" x="0" y="0">18.1%</tspan></text></g></g><g class="slice"><path class="surface" d="M530.2240562366562,510.3321634454453a138.6,138.6 0 0 0 66.26562448161874,18.245101273929905l-3.4666313890489233,191.36860366008963a330,330 0 0 1 -157.77529638480652,-43.44071731888073Z" style="pointer-events: all; stroke-width: 0; fill: rgb(171, 99, 250); fill-opacity: 1; stroke: rgb(68, 68, 68); stroke-opacity: 1;"/><g class="slicetext"><text data-notex="1" class="slicetext" transform="translate(528.4610132013154,640.2437307210164)" text-anchor="middle" x="0" y="0" style="font-family: verdana; font-size: 18px; fill: rgb(68, 68, 68); fill-opacity: 1; white-space: pre;"><tspan class="line" dy="0em" x="0" y="0">tmRNA</tspan><tspan class="line" dy="1.3em" x="0" y="0">7.98%</tspan></text></g></g><g class="slice"><path class="surface" d="M596.4896807182749,528.5772647193752a138.6,138.6 0 0 0 60.37502153352182,-12.634276691812106l79.9083983477193,173.92126918092055a330,330 0 0 1 -143.75005127029004,30.081611170981205Z" style="pointer-events: all; stroke-width: 0; fill: rgb(255, 161, 90); fill-opacity: 1; stroke: rgb(68, 68, 68); stroke-opacity: 1;"/><g class="slicetext"><text data-notex="1" class="slicetext" transform="translate(654.2193474728653,649.5078379913496)" text-anchor="middle" x="0" y="0" style="font-family: verdana; font-size: 18px; fill: rgb(68, 68, 68); fill-opacity: 1; white-space: pre;"><tspan class="line" dy="0em" x="0" y="0">RNase P</tspan><tspan class="line" dy="1.3em" x="0" y="0">7.14%</tspan></text></g></g><g class="slice"><path class="surface" d="M656.8647022517968,515.9429880275632a138.6,138.6 0 0 0 34.62085356911246,-22.713234736675677l127.7181485145889,142.55537359217794a330,330 0 0 1 -82.43060373598206,54.07913032541828Z" style="pointer-events: all; stroke-width: 0; fill: rgb(25, 211, 243); fill-opacity: 1; stroke: rgb(68, 68, 68); stroke-opacity: 1;"/><g class="slicetext"><text data-notex="1" class="slicetext" transform="translate(756.4938254521558,625.3582635354705)" text-anchor="middle" x="0" y="0" style="font-family: verdana; font-size: 18px; fill: rgb(68, 68, 68); fill-opacity: 1; white-space: pre;"><tspan class="line" dy="0em" x="0" y="0">SRP</tspan><tspan class="line" dy="1.3em" x="0" y="0">4.77%</tspan></text></g></g><g class="slice"><path class="surface" d="M691.4855558209092,493.22975329088746a138.6,138.6 0 0 0 9.902381819348658,-9.813104743775316l141.39286626511802,129.0039432317263a330,330 0 0 1 -23.57709956987776,23.364535104226945Z" style="pointer-events: all; stroke-width: 0; fill: rgb(255, 102, 146); fill-opacity: 1; stroke: rgb(68, 68, 68); stroke-opacity: 1;"/><g class="slicetext"><text data-notex="1" class="slicetext" transform="translate(886.3877681753276,658.5766932769775)" text-anchor="middle" x="0" y="0" style="font-family: verdana; font-size: 18px; fill: rgb(0, 0, 0); fill-opacity: 1; white-space: pre;"><tspan class="line" dy="0em" x="0" y="0">16S rRNA</tspan><tspan class="line" dy="1.3em" x="0" y="0">1.6%</tspan></text></g><path class="textline" stroke-width="2" d="M831.2862056753276,624.3994851806622V663.2798182769775h11.3515625" fill="none" style="stroke: rgb(0, 0, 0); stroke-opacity: 1;"/></g><g class="slice"><path class="surface" d="M701.3879376402579,483.4166485471121a138.6,138.6 0 0 0 3.316188914255976,-3.769575927046483l145.9723652419477,123.79833838009068a330,330 0 0 1 -7.895687891085657,8.975180778682102Z" style="pointer-events: all; stroke-width: 0; fill: rgb(182, 232, 128); fill-opacity: 1; stroke: rgb(68, 68, 68); stroke-opacity: 1;"/><g class="slicetext"><text data-notex="1" class="slicetext" transform="translate(893.9802282394841,613.1704432769775)" text-anchor="middle" x="0" y="0" style="font-family: verdana; font-size: 18px; fill: rgb(0, 0, 0); fill-opacity: 1; white-space: pre;"><tspan class="line" dy="0em" x="0" y="0">TERC</tspan><tspan class="line" dy="1.3em" x="0" y="0">0.577%</tspan></text></g></g></g></g><g class="iciclelayer"/><g class="treemaplayer"/><g class="sunburstlayer"/><g class="glimages"/><defs id="topdefs-8d1921"><g class="clips"/></defs><g class="layer-above"><g class="imagelayer"/><g class="shapelayer"/></g><g class="infolayer"><g class="g-gtitle"/><g class="annotation" data-index="0" style="opacity: 1;"><g class="annotation-text-g" transform="rotate(0,599,390)"><g class="cursor-pointer" transform="translate(492,362)"><rect class="bg" x="0.5" y="0.5" width="213" height="55" style="stroke-width: 1px; stroke: rgb(0, 0, 0); stroke-opacity: 0; fill: rgb(0, 0, 0); fill-opacity: 0;"/><text class="annotation-text" text-anchor="middle" x="106.765625" y="23" style="font-family: verdana; font-size: 21px; fill: rgb(0, 0, 0); fill-opacity: 1; white-space: pre;"><tspan class="line" dy="0em" x="106.765625" y="23">StrAlign NR80-L600</tspan><tspan class="line" dy="1.3em" x="106.765625" y="23">(3,122)</tspan></text></g></g></g></g></svg>