<svg class="main-svg" xmlns="http://www.w3.org/2000/svg" xmlns:xlink="http://www.w3.org/1999/xlink" width="2400" height="1600" style="" viewBox="0 0 1200 800"><rect x="0" y="0" width="1200" height="800" style="fill: rgb(255, 255, 255); fill-opacity: 1;"/><defs id="defs-42e1ae"><g class="clips"><clipPath id="clip42e1aexyplot" class="plotclip"><rect width="1040" height="620"/></clipPath><clipPath class="axesclip" id="clip42e1aex"><rect x="80" y="0" width="1040" height="800"/></clipPath><clipPath class="axesclip" id="clip42e1aey"><rect x="0" y="100" width="1200" height="620"/></clipPath><clipPath class="axesclip" id="clip42e1aexy"><rect x="80" y="100" width="1040" height="620"/></clipPath></g><g class="gradients"/><g class="patterns"/></defs><g class="bglayer"><rect class="bg" x="80" y="100" width="1040" height="620" style="fill: rgb(229, 236, 246); fill-opacity: 1; stroke-width: 0;"/></g><g class="layer-below"><g class="imagelayer"/><g class="shapelayer"/></g><g class="cartesianlayer"><g class="subplot xy"><g class="layer-subplot"><g class="shapelayer"/><g class="imagelayer"/></g><g class="minor-gridlayer"><g class="x"/><g class="y"/></g><g class="gridlayer"><g class="x"/><g class="y"><path class="ygrid crisp" transform="translate(0,587.96)" d="M80,0h1040" style="stroke: rgb(255, 255, 255); stroke-opacity: 1; stroke-width: 1px;"/><path class="ygrid crisp" transform="translate(0,473.15)" d="M80,0h1040" style="stroke: rgb(255, 255, 255); stroke-opacity: 1; stroke-width: 1px;"/><path class="ygrid crisp" transform="translate(0,358.33)" d="M80,0h1040" style="stroke: rgb(255, 255, 255); stroke-opacity: 1; stroke-width: 1px;"/><path class="ygrid crisp" transform="translate(0,243.52)" d="M80,0h1040" style="stroke: rgb(255, 255, 255); stroke-opacity: 1; stroke-width: 1px;"/><path class="ygrid crisp" transform="translate(0,128.7)" d="M80,0h1040" style="stroke: rgb(255, 255, 255); stroke-opacity: 1; stroke-width: 1px;"/></g></g><g class="zerolinelayer"><path class="yzl zl crisp" transform="translate(0,702.78)" d="M80,0h1040" style="stroke: rgb(255, 255, 255); stroke-opacity: 1; stroke-width: 2px;"/></g><path class="xlines-below"/><path class="ylines-below"/><g class="overlines-below"/><g class="xaxislayer-below"/><g class="yaxislayer-below"/><g class="overaxes-below"/><g class="plot" transform="translate(80,100)" clip-path="url(#clip42e1aexyplot)"><g class="violinlayer mlayer"><g class="trace violins" style="opacity: 1;"><path class="violin" d="M104,28.7L12.73,28.7Q11.63,31.15 12.12,32.16C12.84,33.62 16.15,34.57 18.67,35.62C21.82,36.93 25.93,37.95 29.71,39.08C33.67,40.26 37.99,41.35 41.91,42.54C45.59,43.66 49.32,44.76 52.56,46C55.38,47.08 58.1,48.17 60.31,49.45C62.14,50.51 63.82,51.64 65.03,52.91C66.05,53.98 66.82,55.17 67.32,56.37C67.78,57.48 67.93,58.67 68.04,59.83C68.15,60.98 68.03,62.14 67.98,63.29C67.93,64.44 67.79,65.59 67.76,66.74C67.73,67.89 67.71,69.05 67.81,70.2C67.91,71.36 68.09,72.52 68.36,73.66C68.64,74.82 69.03,75.98 69.47,77.12C69.92,78.29 70.48,79.44 71.05,80.58C71.63,81.74 72.28,82.89 72.93,84.04C73.58,85.2 74.27,86.34 74.94,87.49C75.61,88.64 76.29,89.79 76.94,90.95C77.59,92.1 78.22,93.25 78.83,94.41C79.44,95.56 80.03,96.71 80.6,97.87C81.17,99.02 81.73,100.17 82.27,101.33C82.81,102.48 83.33,103.64 83.86,104.79C84.38,105.94 84.9,107.09 85.42,108.24C85.94,109.39 86.45,110.55 86.96,111.7C87.46,112.85 87.96,114 88.45,115.16C88.93,116.31 89.41,117.46 89.87,118.62C90.33,119.77 90.77,120.92 91.19,122.08C91.61,123.23 92.02,124.38 92.4,125.54C92.78,126.69 93.14,127.84 93.48,128.99C93.82,130.14 94.13,131.29 94.42,132.45C94.71,133.6 94.99,134.75 95.24,135.91C95.49,137.06 95.71,138.22 95.92,139.37C96.13,140.52 96.32,141.68 96.5,142.83C96.68,143.98 96.84,145.14 96.99,146.29C97.14,147.44 97.28,148.59 97.41,149.74C97.54,150.89 97.66,152.05 97.78,153.2C97.9,154.35 98.01,155.51 98.12,156.66C98.23,157.81 98.33,158.97 98.43,160.12C98.52,161.27 98.61,162.43 98.69,163.58C98.77,164.73 98.84,165.88 98.9,167.03C98.96,168.18 99.01,169.34 99.05,170.49C99.09,171.64 99.12,172.8 99.15,173.95C99.18,175.1 99.2,176.26 99.23,177.41C99.26,178.56 99.29,179.72 99.32,180.87C99.35,182.02 99.39,183.18 99.43,184.33C99.47,185.48 99.53,186.63 99.58,187.78C99.63,188.93 99.69,190.09 99.75,191.24C99.81,192.39 99.87,193.55 99.94,194.7C100.01,195.85 100.08,197.01 100.15,198.16C100.22,199.31 100.3,200.47 100.38,201.62C100.46,202.77 100.56,203.93 100.65,205.08C100.74,206.23 100.84,207.38 100.94,208.53C101.04,209.68 101.14,210.84 101.23,211.99C101.32,213.14 101.41,214.3 101.49,215.45C101.57,216.6 101.63,217.76 101.69,218.91C101.74,220.06 101.79,221.22 101.82,222.37C101.85,223.52 101.88,224.68 101.89,225.83C101.9,226.98 101.91,228.13 101.91,229.28C101.91,230.43 101.9,231.59 101.9,232.74C101.89,233.89 101.89,235.05 101.88,236.2C101.87,237.35 101.86,238.51 101.85,239.66C101.84,240.81 101.83,241.97 101.82,243.12C101.81,244.27 101.81,245.43 101.81,246.58C101.81,247.73 101.82,248.88 101.83,250.03C101.84,251.18 101.87,252.34 101.9,253.49C101.93,254.64 101.97,255.8 102.01,256.95C102.05,258.1 102.11,259.26 102.16,260.41C102.21,261.56 102.27,262.72 102.33,263.87C102.39,265.02 102.45,266.17 102.5,267.32C102.55,268.47 102.59,269.63 102.63,270.78C102.67,271.93 102.7,273.09 102.72,274.24C102.74,275.39 102.74,276.55 102.74,277.7C102.74,278.85 102.74,280.01 102.74,281.16C102.74,282.31 102.74,283.47 102.74,284.62C102.74,285.77 102.74,286.92 102.75,288.07C102.76,289.22 102.78,290.38 102.8,291.53C102.82,292.68 102.84,293.84 102.86,294.99C102.88,296.14 102.89,297.3 102.91,298.45C102.92,299.6 102.95,300.76 102.95,301.91C102.95,303.06 102.95,304.22 102.94,305.37C102.94,306.52 102.93,307.67 102.92,308.82C102.91,309.97 102.89,311.13 102.87,312.28C102.86,313.43 102.84,314.59 102.83,315.74C102.82,316.89 102.81,318.05 102.8,319.2C102.79,320.35 102.79,321.51 102.78,322.66C102.78,323.81 102.77,324.97 102.77,326.12C102.77,327.27 102.76,328.42 102.76,329.57C102.76,330.72 102.76,331.88 102.76,333.03C102.76,334.18 102.76,335.34 102.76,336.49C102.76,337.64 102.75,338.8 102.74,339.95C102.73,341.1 102.71,342.26 102.7,343.41C102.68,344.56 102.67,345.72 102.65,346.87C102.63,348.02 102.6,349.17 102.58,350.32C102.56,351.47 102.53,352.63 102.51,353.78C102.49,354.93 102.47,356.09 102.45,357.24C102.44,358.39 102.42,359.55 102.42,360.7C102.42,361.85 102.42,363.01 102.43,364.16C102.44,365.31 102.46,366.46 102.49,367.61C102.52,368.76 102.55,369.92 102.59,371.07C102.63,372.22 102.68,373.38 102.72,374.53C102.77,375.68 102.82,376.84 102.86,377.99C102.9,379.14 102.95,380.3 102.98,381.45C103.01,382.6 103.04,383.76 103.06,384.91C103.08,386.06 103.08,387.21 103.08,388.36C103.08,389.51 103.05,390.67 103.03,391.82C103.01,392.97 102.97,394.13 102.94,395.28C102.91,396.43 102.86,397.59 102.83,398.74C102.8,399.89 102.77,401.05 102.75,402.2C102.73,403.35 102.72,404.51 102.72,405.66C102.72,406.81 102.74,407.96 102.76,409.11C102.78,410.26 102.82,411.42 102.86,412.57C102.9,413.72 102.94,414.88 102.99,416.03C103.04,417.18 103.09,418.34 103.14,419.49C103.19,420.64 103.23,421.8 103.27,422.95C103.31,424.1 103.34,425.26 103.37,426.41C103.4,427.56 103.42,428.71 103.43,429.86C103.44,431.01 103.45,432.17 103.45,433.32C103.45,434.47 103.44,435.63 103.44,436.78C103.44,437.93 103.43,439.09 103.43,440.24C103.43,441.39 103.43,442.55 103.43,443.7C103.43,444.85 103.43,446.01 103.44,447.16C103.45,448.31 103.46,449.46 103.47,450.61C103.48,451.76 103.49,452.92 103.5,454.07C103.51,455.22 103.51,456.38 103.51,457.53C103.51,458.68 103.51,459.84 103.51,460.99C103.51,462.14 103.5,463.3 103.5,464.45C103.5,465.6 103.5,466.75 103.5,467.9C103.5,469.05 103.5,470.21 103.5,471.36C103.5,472.51 103.52,473.67 103.53,474.82C103.54,475.97 103.56,477.13 103.57,478.28C103.58,479.43 103.6,480.59 103.61,481.74C103.62,482.89 103.64,484.05 103.65,485.2C103.66,486.35 103.67,487.5 103.67,488.65C103.68,489.8 103.68,490.96 103.68,492.11C103.68,493.26 103.67,494.42 103.67,495.57C103.67,496.72 103.66,497.88 103.66,499.03C103.65,500.18 103.65,501.34 103.64,502.49C103.63,503.64 103.62,504.8 103.61,505.95C103.6,507.1 103.6,508.25 103.59,509.4C103.58,510.55 103.57,511.71 103.56,512.86C103.55,514.01 103.54,515.17 103.53,516.32C103.52,517.47 103.51,518.63 103.5,519.78C103.49,520.93 103.47,522.09 103.46,523.24C103.45,524.39 103.43,525.55 103.43,526.7C103.43,527.85 103.43,529 103.43,530.15C103.43,531.3 103.44,532.46 103.46,533.61C103.48,534.76 103.51,535.92 103.53,537.07C103.56,538.22 103.58,539.38 103.61,540.53C103.64,541.68 103.67,542.84 103.7,543.99C103.73,545.14 103.76,546.3 103.78,547.45C103.8,548.6 103.82,549.75 103.83,550.9C103.84,552.05 103.86,553.21 103.86,554.36C103.86,555.51 103.85,556.67 103.85,557.82C103.84,558.97 103.84,560.13 103.83,561.28C103.82,562.43 103.81,563.59 103.8,564.74C103.79,565.89 103.78,567.05 103.77,568.2C103.76,569.35 103.76,570.5 103.75,571.65C103.74,572.8 103.74,573.96 103.73,575.11C103.72,576.26 103.71,577.42 103.69,578.57C103.67,579.72 103.65,580.88 103.61,582.03C103.57,583.18 103.52,584.34 103.45,585.49C103.38,586.64 103.3,587.79 103.21,588.94C103.12,590.09 103.01,591.25 102.91,592.4C102.81,593.55 102.69,594.71 102.6,595.86C102.51,597.01 102.41,598.17 102.36,599.32Q102.31,600.47 102.28,602.78L104,602.78" style="vector-effect: non-scaling-stroke; stroke-width: 2px; stroke: rgb(0, 0, 255); stroke-opacity: 1; fill: rgb(0, 0, 255); fill-opacity: 0.5;"/><path class="meanline" d="M73.74024200439453,85.45H104" style="fill: none; vector-effect: non-scaling-stroke; stroke-width: 3px; stroke-dasharray: 6px, 3px; stroke: rgb(255, 255, 255); stroke-opacity: 1;"/></g><g class="trace violins" style="opacity: 1;"><path class="violin" d="M104,602.78L104.03,602.78Q104.03,601.51 104.03,600.87C104.03,600.23 104.02,599.6 104.02,598.96C104.02,598.33 104.02,597.69 104.02,597.06C104.02,596.42 104.01,595.79 104.01,595.15C104.01,594.51 104.01,593.88 104.01,593.24C104.01,592.6 104,591.97 104,591.33C104,590.7 104,590.06 104,589.43C104,588.79 104,588.16 104,587.52C104,586.88 104,586.25 104,585.61C104,584.98 104,584.34 104,583.71C104,583.07 104,582.44 104,581.8C104,581.16 104,580.53 104,579.89C104,579.25 104,578.62 104,577.98C104,577.35 104,576.71 104,576.08C104,575.44 104,574.81 104,574.17C104,573.53 104,572.9 104,572.26C104,571.62 104,570.99 104,570.35C104,569.72 104,569.08 104,568.45C104,567.81 104,567.18 104,566.54C104,565.9 104,565.27 104,564.63C104,564 104,563.36 104,562.73C104,562.09 104,561.46 104,560.82C104,560.18 104,559.55 104,558.91C104,558.27 104,557.64 104,557C104,556.37 104,555.73 104,555.1C104,554.46 104,553.83 104,553.19C104,552.55 104,551.92 104,551.28C104,550.65 104,550.01 104,549.38C104,548.74 104.01,548.11 104.01,547.47C104.01,546.83 104.01,546.2 104.01,545.56C104.01,544.92 104.01,544.29 104.01,543.65C104.01,543.02 104.02,542.38 104.02,541.75C104.02,541.11 104.02,540.48 104.02,539.84C104.02,539.2 104.03,538.57 104.03,537.93C104.03,537.29 104.03,536.66 104.03,536.02C104.03,535.39 104.03,534.75 104.03,534.12C104.03,533.48 104.03,532.85 104.03,532.21C104.03,531.57 104.03,530.94 104.03,530.3C104.03,529.67 104.03,529.03 104.03,528.4C104.03,527.76 104.03,527.13 104.03,526.49C104.03,525.85 104.03,525.22 104.03,524.58C104.03,523.94 104.03,523.31 104.03,522.67C104.03,522.04 104.02,521.4 104.02,520.77C104.02,520.13 104.02,519.5 104.02,518.86C104.02,518.22 104.02,517.59 104.02,516.95C104.02,516.32 104.02,515.68 104.02,515.05C104.02,514.41 104.02,513.78 104.02,513.14C104.02,512.5 104.02,511.87 104.02,511.23C104.02,510.59 104.03,509.96 104.03,509.32C104.03,508.69 104.03,508.05 104.03,507.42C104.03,506.78 104.04,506.15 104.04,505.51C104.04,504.87 104.04,504.24 104.04,503.6C104.04,502.96 104.04,502.33 104.04,501.69C104.04,501.06 104.05,500.42 104.05,499.79C104.05,499.15 104.05,498.52 104.05,497.88C104.05,497.24 104.05,496.61 104.05,495.97C104.05,495.34 104.05,494.7 104.05,494.07C104.05,493.43 104.05,492.8 104.05,492.16C104.05,491.52 104.05,490.89 104.05,490.25C104.05,489.61 104.06,488.98 104.06,488.34C104.06,487.71 104.06,487.07 104.06,486.44C104.06,485.8 104.06,485.17 104.06,484.53C104.06,483.89 104.06,483.26 104.06,482.62C104.06,481.99 104.07,481.35 104.07,480.72C104.07,480.08 104.07,479.45 104.07,478.81C104.07,478.17 104.07,477.54 104.07,476.9C104.07,476.26 104.07,475.63 104.07,474.99C104.07,474.36 104.08,473.72 104.08,473.09C104.08,472.45 104.08,471.82 104.08,471.18C104.08,470.54 104.09,469.91 104.09,469.27C104.09,468.63 104.1,468 104.1,467.36C104.1,466.73 104.11,466.09 104.11,465.46C104.11,464.82 104.12,464.19 104.12,463.55C104.12,462.91 104.13,462.28 104.13,461.64C104.13,461.01 104.14,460.37 104.14,459.74C104.15,459.1 104.15,458.47 104.16,457.83C104.16,457.19 104.17,456.56 104.17,455.92C104.17,455.28 104.18,454.65 104.18,454.01C104.18,453.38 104.18,452.74 104.18,452.11C104.18,451.47 104.19,450.84 104.19,450.2C104.19,449.56 104.19,448.93 104.19,448.29C104.19,447.66 104.19,447.02 104.19,446.39C104.19,445.75 104.2,445.12 104.2,444.48C104.2,443.84 104.2,443.21 104.2,442.57C104.2,441.93 104.21,441.3 104.21,440.66C104.21,440.03 104.22,439.39 104.22,438.76C104.22,438.12 104.23,437.49 104.23,436.85C104.23,436.21 104.24,435.58 104.24,434.94C104.24,434.3 104.24,433.67 104.24,433.03C104.24,432.4 104.25,431.76 104.25,431.13C104.25,430.49 104.25,429.86 104.25,429.22C104.25,428.58 104.25,427.95 104.25,427.31C104.25,426.68 104.25,426.04 104.25,425.41C104.25,424.77 104.25,424.14 104.25,423.5C104.25,422.86 104.25,422.23 104.25,421.59C104.25,420.95 104.25,420.32 104.25,419.68C104.25,419.05 104.26,418.41 104.26,417.78C104.26,417.14 104.26,416.51 104.26,415.87C104.26,415.23 104.27,414.6 104.28,413.96C104.28,413.33 104.29,412.69 104.29,412.06C104.3,411.42 104.3,410.79 104.31,410.15C104.32,409.51 104.32,408.88 104.33,408.24C104.34,407.6 104.35,406.97 104.36,406.33C104.37,405.7 104.37,405.06 104.38,404.43C104.39,403.79 104.4,403.16 104.41,402.52C104.42,401.88 104.42,401.25 104.43,400.61C104.43,399.97 104.44,399.34 104.44,398.7C104.44,398.07 104.45,397.43 104.45,396.8C104.45,396.16 104.46,395.53 104.46,394.89C104.46,394.25 104.46,393.62 104.46,392.98C104.46,392.35 104.46,391.71 104.46,391.08C104.46,390.44 104.46,389.81 104.46,389.17C104.46,388.53 104.46,387.9 104.46,387.26C104.46,386.62 104.46,385.99 104.47,385.35C104.47,384.72 104.48,384.08 104.49,383.45C104.5,382.81 104.5,382.18 104.51,381.54C104.52,380.9 104.53,380.27 104.54,379.63C104.55,379 104.55,378.36 104.56,377.73C104.57,377.09 104.57,376.46 104.58,375.82C104.58,375.18 104.59,374.55 104.59,373.91C104.59,373.27 104.59,372.64 104.59,372C104.59,371.37 104.59,370.73 104.59,370.1C104.59,369.46 104.58,368.83 104.58,368.19C104.58,367.55 104.58,366.92 104.58,366.28C104.58,365.64 104.57,365.01 104.57,364.37C104.57,363.74 104.57,363.1 104.57,362.47C104.57,361.83 104.58,361.2 104.58,360.56C104.59,359.92 104.59,359.29 104.6,358.65C104.61,358.02 104.62,357.38 104.63,356.75C104.64,356.11 104.66,355.48 104.67,354.84C104.69,354.2 104.7,353.57 104.72,352.93C104.74,352.29 104.75,351.66 104.77,351.02C104.79,350.39 104.8,349.75 104.82,349.12C104.84,348.48 104.86,347.85 104.88,347.21C104.9,346.57 104.91,345.94 104.93,345.3C104.95,344.67 104.96,344.03 104.98,343.4C105,342.76 105.01,342.13 105.03,341.49C105.05,340.85 105.07,340.22 105.08,339.58C105.09,338.94 105.1,338.31 105.11,337.67C105.12,337.04 105.14,336.4 105.15,335.77C105.16,335.13 105.16,334.5 105.17,333.86C105.18,333.22 105.19,332.59 105.2,331.95C105.21,331.31 105.23,330.68 105.24,330.04C105.25,329.41 105.26,328.77 105.27,328.14C105.28,327.5 105.3,326.87 105.31,326.23C105.32,325.59 105.33,324.96 105.34,324.32C105.35,323.69 105.37,323.05 105.38,322.42C105.39,321.78 105.4,321.15 105.41,320.51C105.42,319.87 105.43,319.24 105.44,318.6C105.45,317.96 105.46,317.33 105.47,316.69C105.48,316.06 105.49,315.42 105.5,314.79C105.51,314.15 105.52,313.52 105.53,312.88C105.54,312.24 105.54,311.61 105.55,310.97C105.56,310.34 105.56,309.7 105.57,309.07C105.58,308.43 105.59,307.8 105.6,307.16C105.61,306.52 105.61,305.89 105.62,305.25C105.63,304.61 105.64,303.98 105.65,303.34C105.66,302.71 105.67,302.07 105.68,301.44C105.69,300.8 105.69,300.17 105.69,299.53C105.7,298.89 105.71,298.26 105.71,297.62C105.71,296.98 105.71,296.35 105.71,295.71C105.71,295.08 105.7,294.44 105.7,293.81C105.69,293.17 105.69,292.54 105.68,291.9C105.67,291.26 105.66,290.63 105.65,289.99C105.64,289.36 105.64,288.72 105.63,288.09C105.62,287.45 105.61,286.82 105.6,286.18C105.59,285.54 105.59,284.91 105.58,284.27C105.57,283.63 105.57,283 105.56,282.36C105.55,281.73 105.54,281.09 105.54,280.46C105.53,279.82 105.53,279.19 105.53,278.55C105.53,277.91 105.52,277.28 105.52,276.64C105.52,276.01 105.53,275.37 105.53,274.74C105.53,274.1 105.52,273.47 105.52,272.83C105.52,272.19 105.52,271.56 105.51,270.92C105.5,270.28 105.49,269.65 105.48,269.01C105.47,268.38 105.44,267.74 105.43,267.11C105.41,266.47 105.4,265.84 105.39,265.2C105.38,264.56 105.36,263.93 105.35,263.29C105.34,262.65 105.32,262.02 105.32,261.38C105.32,260.75 105.32,260.11 105.32,259.48C105.32,258.84 105.33,258.21 105.33,257.57C105.33,256.93 105.34,256.3 105.34,255.66C105.34,255.03 105.35,254.39 105.35,253.76C105.35,253.12 105.35,252.49 105.35,251.85C105.35,251.21 105.34,250.58 105.34,249.94C105.33,249.3 105.33,248.67 105.32,248.03C105.31,247.4 105.31,246.76 105.3,246.13C105.29,245.49 105.28,244.86 105.27,244.22C105.26,243.58 105.25,242.95 105.24,242.31C105.23,241.68 105.22,241.04 105.21,240.41C105.2,239.77 105.19,239.14 105.18,238.5C105.17,237.86 105.17,237.23 105.16,236.59C105.16,235.95 105.15,235.32 105.15,234.68C105.15,234.05 105.15,233.41 105.15,232.78C105.15,232.14 105.16,231.51 105.16,230.87C105.17,230.23 105.17,229.6 105.18,228.96C105.19,228.32 105.2,227.69 105.21,227.05C105.22,226.42 105.23,225.78 105.24,225.15C105.25,224.51 105.25,223.88 105.25,223.24C105.25,222.6 105.26,221.97 105.26,221.33C105.26,220.7 105.26,220.06 105.26,219.43C105.26,218.79 105.26,218.16 105.26,217.52C105.26,216.88 105.25,216.25 105.25,215.61C105.25,214.97 105.24,214.34 105.24,213.7C105.24,213.07 105.23,212.43 105.23,211.8C105.23,211.16 105.22,210.53 105.22,209.89C105.21,209.25 105.21,208.62 105.2,207.98C105.19,207.35 105.19,206.71 105.18,206.08C105.17,205.44 105.17,204.81 105.16,204.17C105.16,203.53 105.15,202.9 105.15,202.26C105.15,201.62 105.15,200.99 105.15,200.35C105.15,199.72 105.16,199.08 105.16,198.45C105.16,197.81 105.16,197.18 105.16,196.54C105.16,195.9 105.16,195.27 105.16,194.63C105.16,193.99 105.16,193.36 105.15,192.72C105.14,192.09 105.13,191.45 105.12,190.82C105.11,190.18 105.1,189.55 105.09,188.91C105.08,188.27 105.07,187.64 105.06,187C105.05,186.37 105.04,185.73 105.04,185.1C105.03,184.46 105.03,183.83 105.03,183.19C105.03,182.55 105.04,181.92 105.04,181.28C105.04,180.64 105.04,180.01 105.05,179.37C105.06,178.74 105.08,178.1 105.09,177.47C105.1,176.83 105.12,176.2 105.13,175.56C105.15,174.92 105.16,174.29 105.18,173.65C105.2,173.02 105.21,172.38 105.23,171.75C105.25,171.11 105.26,170.48 105.28,169.84C105.29,169.2 105.31,168.57 105.32,167.93C105.33,167.29 105.35,166.66 105.36,166.02C105.37,165.39 105.38,164.75 105.39,164.12C105.4,163.48 105.41,162.85 105.42,162.21C105.43,161.57 105.45,160.94 105.46,160.3C105.47,159.66 105.49,159.03 105.5,158.39C105.51,157.76 105.53,157.12 105.54,156.49C105.55,155.85 105.56,155.22 105.57,154.58C105.58,153.94 105.59,153.31 105.59,152.67C105.59,152.04 105.59,151.4 105.59,150.77C105.59,150.13 105.58,149.5 105.57,148.86C105.56,148.22 105.56,147.59 105.55,146.95C105.55,146.31 105.54,145.68 105.54,145.04C105.54,144.41 105.54,143.77 105.54,143.14C105.54,142.5 105.56,141.87 105.57,141.23C105.58,140.59 105.59,139.96 105.6,139.32C105.61,138.69 105.63,138.05 105.64,137.42C105.65,136.78 105.65,136.15 105.66,135.51C105.66,134.87 105.67,134.24 105.67,133.6C105.67,132.96 105.68,132.33 105.68,131.69C105.68,131.06 105.68,130.42 105.68,129.79C105.68,129.15 105.69,128.52 105.7,127.88C105.71,127.24 105.72,126.61 105.73,125.97C105.74,125.33 105.75,124.7 105.76,124.06C105.77,123.43 105.78,122.79 105.78,122.16C105.78,121.52 105.77,120.89 105.77,120.25C105.76,119.61 105.76,118.98 105.75,118.34C105.74,117.71 105.72,117.07 105.7,116.44C105.68,115.8 105.67,115.17 105.65,114.53C105.63,113.89 105.61,113.26 105.59,112.62C105.57,111.98 105.56,111.35 105.55,110.71C105.54,110.08 105.53,109.44 105.52,108.81C105.51,108.17 105.51,107.54 105.5,106.9C105.5,106.26 105.49,105.63 105.49,104.99C105.49,104.36 105.49,103.72 105.49,103.09C105.49,102.45 105.48,101.82 105.48,101.18C105.48,100.54 105.47,99.91 105.47,99.27C105.47,98.63 105.47,98 105.46,97.36C105.46,96.73 105.44,96.09 105.44,95.46C105.43,94.82 105.43,94.19 105.43,93.55C105.43,92.91 105.43,92.28 105.43,91.64C105.43,91 105.43,90.37 105.43,89.73C105.43,89.1 105.45,88.46 105.45,87.83C105.46,87.19 105.46,86.56 105.46,85.92C105.47,85.28 105.47,84.65 105.48,84.01C105.49,83.38 105.49,82.74 105.5,82.11C105.51,81.47 105.51,80.84 105.52,80.2C105.52,79.56 105.53,78.93 105.53,78.29C105.54,77.65 105.54,77.02 105.55,76.38C105.56,75.75 105.56,75.11 105.57,74.48C105.58,73.84 105.6,73.21 105.62,72.57C105.64,71.93 105.66,71.3 105.69,70.66C105.72,70.03 105.76,69.39 105.8,68.76C105.84,68.12 105.89,67.49 105.95,66.85C106.01,66.21 106.07,65.58 106.14,64.94C106.21,64.3 106.28,63.67 106.36,63.03C106.44,62.4 106.53,61.76 106.62,61.13C106.71,60.49 106.81,59.86 106.92,59.22C107.03,58.58 107.15,57.95 107.28,57.31C107.41,56.67 107.55,56.03 107.72,55.4C107.89,54.76 108.07,54.13 108.28,53.5C108.5,52.86 108.73,52.22 109.02,51.59C109.31,50.94 109.64,50.3 110.03,49.68C110.44,49.03 110.9,48.39 111.45,47.78C112.05,47.12 112.71,46.47 113.5,45.87C114.4,45.18 115.44,44.55 116.62,43.96C118.03,43.26 119.65,42.63 121.45,42.05C123.64,41.34 126.15,40.74 128.86,40.15C132.08,39.45 135.74,38.84 139.54,38.24C143.87,37.56 148.68,36.95 153.48,36.33C158.58,35.67 164.11,35.08 169.29,34.43C174.29,33.81 179.62,33.23 184.04,32.52C187.68,31.93 192.01,31.64 193.95,30.61Q194.96,30.08 195.88,28.7L104,28.7" style="vector-effect: non-scaling-stroke; stroke-width: 2px; stroke: rgb(0, 128, 0); stroke-opacity: 1; fill: rgb(0, 128, 0); fill-opacity: 0.5;"/><path class="meanline" d="M105.56678771972656,74.71H104" style="fill: none; vector-effect: non-scaling-stroke; stroke-width: 3px; stroke-dasharray: 6px, 3px; stroke: rgb(255, 255, 255); stroke-opacity: 1;"/></g><g class="trace violins" style="opacity: 1;"><path class="violin" d="M312,28.7L221.45,28.7Q219.71,31.6 220.12,32.86C220.64,34.46 223.55,35.75 225.8,37.02C228.6,38.59 232.41,39.82 235.86,41.18C239.47,42.6 243.45,43.9 247,45.34C250.32,46.68 253.69,48 256.53,49.5C259,50.8 261.35,52.14 263.17,53.66C264.71,54.95 266.01,56.35 266.95,57.82C267.8,59.14 268.29,60.57 268.72,61.98C269.14,63.34 269.27,64.75 269.53,66.14C269.79,67.53 269.96,68.92 270.29,70.3C270.62,71.7 271.02,73.09 271.53,74.46C272.06,75.86 272.71,77.25 273.42,78.62C274.14,80.02 274.99,81.4 275.83,82.78C276.68,84.18 277.61,85.55 278.49,86.94C279.37,88.32 280.27,89.7 281.1,91.1C281.92,92.48 282.71,93.86 283.44,95.26C284.16,96.64 284.82,98.03 285.45,99.42C286.07,100.8 286.64,102.19 287.2,103.58C287.76,104.96 288.27,106.35 288.8,107.74C289.33,109.13 289.84,110.52 290.37,111.9C290.9,113.29 291.45,114.67 292,116.06C292.55,117.45 293.12,118.83 293.68,120.22C294.24,121.61 294.82,122.99 295.35,124.38C295.88,125.76 296.41,127.15 296.88,128.54C297.35,129.92 297.8,131.31 298.19,132.7C298.57,134.08 298.91,135.47 299.2,136.86C299.49,138.24 299.73,139.63 299.94,141.02C300.15,142.4 300.31,143.79 300.48,145.18C300.65,146.57 300.79,147.95 300.95,149.34C301.11,150.73 301.25,152.11 301.42,153.5C301.59,154.89 301.77,156.27 301.95,157.66C302.14,159.05 302.33,160.43 302.53,161.82C302.73,163.21 302.93,164.59 303.13,165.98C303.33,167.37 303.53,168.75 303.71,170.14C303.89,171.53 304.06,172.91 304.21,174.3C304.36,175.69 304.49,177.07 304.62,178.46C304.74,179.85 304.86,181.23 304.96,182.62C305.06,184.01 305.14,185.39 305.22,186.78C305.3,188.17 305.36,189.55 305.43,190.94C305.49,192.33 305.55,193.71 305.61,195.1C305.67,196.49 305.71,197.87 305.77,199.26C305.83,200.65 305.89,202.03 305.96,203.42C306.03,204.81 306.1,206.19 306.19,207.58C306.28,208.97 306.39,210.35 306.5,211.74C306.62,213.13 306.75,214.51 306.88,215.9C307.01,217.29 307.15,218.67 307.28,220.06C307.41,221.45 307.55,222.83 307.68,224.22C307.81,225.61 307.93,226.99 308.04,228.38C308.15,229.77 308.24,231.15 308.33,232.54C308.42,233.93 308.49,235.31 308.56,236.7C308.62,238.09 308.68,239.47 308.72,240.86C308.76,242.25 308.79,243.63 308.82,245.02C308.84,246.41 308.86,247.79 308.87,249.18C308.88,250.57 308.89,251.95 308.9,253.34C308.91,254.73 308.91,256.11 308.92,257.5C308.93,258.89 308.95,260.27 308.97,261.66C308.99,263.05 309.03,264.43 309.06,265.82C309.09,267.21 309.13,268.59 309.17,269.98C309.21,271.37 309.26,272.75 309.3,274.14C309.34,275.53 309.38,276.91 309.42,278.3C309.46,279.69 309.5,281.07 309.54,282.46C309.58,283.85 309.61,285.23 309.65,286.62C309.69,288.01 309.72,289.39 309.76,290.78C309.8,292.17 309.84,293.55 309.88,294.94C309.92,296.33 309.96,297.71 310,299.1C310.04,300.49 310.09,301.87 310.13,303.26C310.17,304.65 310.21,306.03 310.25,307.42C310.29,308.81 310.33,310.19 310.36,311.58C310.39,312.97 310.42,314.35 310.45,315.74C310.47,317.13 310.49,318.51 310.51,319.9C310.53,321.29 310.55,322.67 310.55,324.06C310.55,325.45 310.55,326.83 310.54,328.22C310.53,329.61 310.52,330.99 310.5,332.38C310.48,333.77 310.46,335.15 310.44,336.54C310.42,337.93 310.39,339.31 310.37,340.7C310.34,342.09 310.31,343.47 310.29,344.86C310.27,346.25 310.25,347.63 310.23,349.02C310.21,350.41 310.19,351.79 310.17,353.18C310.15,354.57 310.14,355.95 310.13,357.34C310.12,358.73 310.1,360.11 310.09,361.5C310.08,362.89 310.07,364.27 310.07,365.66C310.07,367.05 310.07,368.43 310.07,369.82C310.07,371.21 310.08,372.59 310.09,373.98C310.1,375.37 310.12,376.75 310.14,378.14C310.16,379.53 310.2,380.91 310.23,382.3C310.27,383.69 310.31,385.07 310.35,386.46C310.39,387.85 310.44,389.23 310.48,390.62C310.52,392.01 310.56,393.39 310.6,394.78C310.64,396.17 310.67,397.55 310.7,398.94C310.73,400.33 310.74,401.71 310.76,403.1C310.78,404.49 310.79,405.87 310.8,407.26C310.81,408.65 310.83,410.03 310.84,411.42C310.85,412.81 310.86,414.19 310.88,415.58C310.9,416.97 310.92,418.35 310.94,419.74C310.96,421.13 310.99,422.51 311.01,423.9C311.03,425.29 311.06,426.67 311.08,428.06C311.1,429.45 311.12,430.83 311.13,432.22C311.14,433.61 311.15,434.99 311.16,436.38C311.17,437.77 311.17,439.15 311.17,440.54C311.17,441.93 311.18,443.31 311.18,444.7C311.18,446.09 311.18,447.47 311.18,448.86C311.18,450.25 311.19,451.63 311.19,453.02C311.2,454.41 311.2,455.79 311.21,457.18C311.22,458.57 311.23,459.95 311.24,461.34C311.25,462.73 311.27,464.11 311.28,465.5C311.29,466.89 311.31,468.27 311.32,469.66C311.33,471.05 311.35,472.43 311.36,473.82C311.37,475.21 311.38,476.59 311.39,477.98C311.4,479.37 311.41,480.75 311.42,482.14C311.43,483.53 311.43,484.91 311.43,486.3C311.43,487.69 311.42,489.07 311.42,490.46C311.41,491.85 311.41,493.23 311.4,494.62C311.39,496.01 311.38,497.39 311.37,498.78C311.36,500.17 311.35,501.55 311.34,502.94C311.33,504.33 311.31,505.71 311.3,507.1C311.29,508.49 311.27,509.87 311.26,511.26C311.25,512.65 311.25,514.03 311.24,515.42C311.23,516.81 311.22,518.19 311.22,519.58C311.22,520.97 311.22,522.35 311.22,523.74C311.22,525.13 311.23,526.51 311.24,527.9C311.25,529.29 311.27,530.67 311.28,532.06C311.3,533.45 311.31,534.83 311.33,536.22C311.35,537.61 311.37,538.99 311.39,540.38C311.41,541.77 311.44,543.15 311.47,544.54C311.5,545.93 311.53,547.31 311.56,548.7C311.59,550.09 311.63,551.47 311.66,552.86C311.69,554.25 311.72,555.63 311.75,557.02C311.78,558.41 311.8,559.79 311.82,561.18C311.84,562.57 311.86,563.95 311.87,565.34C311.88,566.73 311.89,568.11 311.88,569.5C311.87,570.89 311.86,572.27 311.83,573.66C311.8,575.05 311.76,576.43 311.7,577.82C311.64,579.21 311.57,580.59 311.48,581.98C311.39,583.37 311.26,584.75 311.14,586.14C311.02,587.53 310.87,588.91 310.74,590.3C310.61,591.69 310.46,593.07 310.34,594.46C310.22,595.85 310.11,597.23 310.04,598.62Q309.97,600.01 309.93,602.78L312,602.78" style="vector-effect: non-scaling-stroke; stroke-width: 2px; stroke: rgb(0, 0, 255); stroke-opacity: 1; fill: rgb(0, 0, 255); fill-opacity: 0.5;"/><path class="meanline" d="M282.4985656738281,93.52H312" style="fill: none; vector-effect: non-scaling-stroke; stroke-width: 3px; stroke-dasharray: 6px, 3px; stroke: rgb(255, 255, 255); stroke-opacity: 1;"/></g><g class="trace violins" style="opacity: 1;"><path class="violin" d="M312,602.78L312.06,602.78Q312.05,601.51 312.05,600.87C312.05,600.23 312.05,599.6 312.05,598.96C312.05,598.33 312.03,597.69 312.03,597.06C312.02,596.42 312.02,595.79 312.02,595.15C312.02,594.51 312.02,593.88 312.02,593.24C312.02,592.6 312.01,591.97 312.01,591.33C312.01,590.7 312.01,590.06 312.01,589.43C312.01,588.79 312,588.16 312,587.52C312,586.88 312,586.25 312,585.61C312,584.98 312.01,584.34 312.01,583.71C312.01,583.07 312.01,582.44 312.01,581.8C312.01,581.16 312.01,580.53 312.01,579.89C312.01,579.25 312.01,578.62 312.01,577.98C312.01,577.35 312.01,576.71 312.01,576.08C312.01,575.44 312,574.81 312,574.17C312,573.53 312,572.9 312,572.26C312,571.62 312,570.99 312,570.35C312,569.72 312,569.08 312,568.45C312,567.81 312,567.18 312,566.54C312,565.9 312,565.27 312,564.63C312,564 312,563.36 312,562.73C312,562.09 312,561.46 312,560.82C312,560.18 312,559.55 312,558.91C312,558.27 312,557.64 312,557C312,556.37 312,555.73 312,555.1C312,554.46 312,553.83 312,553.19C312,552.55 312,551.92 312,551.28C312,550.65 312,550.01 312,549.38C312,548.74 312,548.11 312,547.47C312,546.83 312,546.2 312,545.56C312,544.92 312,544.29 312,543.65C312,543.02 312,542.38 312,541.75C312,541.11 312,540.48 312,539.84C312,539.2 312,538.57 312,537.93C312,537.29 312,536.66 312,536.02C312,535.39 312,534.75 312,534.12C312,533.48 312,532.85 312,532.21C312,531.57 312,530.94 312,530.3C312,529.67 312,529.03 312,528.4C312,527.76 312,527.13 312,526.49C312,525.85 312,525.22 312,524.58C312,523.94 312,523.31 312,522.67C312,522.04 312,521.4 312,520.77C312,520.13 312,519.5 312,518.86C312,518.22 312,517.59 312,516.95C312,516.32 312,515.68 312,515.05C312,514.41 312,513.78 312,513.14C312,512.5 312,511.87 312,511.23C312,510.59 312,509.96 312,509.32C312,508.69 312,508.05 312,507.42C312,506.78 312,506.15 312,505.51C312,504.87 312,504.24 312,503.6C312,502.96 312,502.33 312,501.69C312,501.06 312,500.42 312,499.79C312,499.15 312,498.52 312,497.88C312,497.24 312,496.61 312,495.97C312,495.34 312,494.7 312,494.07C312,493.43 312,492.8 312,492.16C312,491.52 312,490.89 312,490.25C312,489.61 312,488.98 312,488.34C312,487.71 312,487.07 312,486.44C312,485.8 312,485.17 312,484.53C312,483.89 312,483.26 312,482.62C312,481.99 312,481.35 312,480.72C312,480.08 312,479.45 312,478.81C312,478.17 312,477.54 312,476.9C312,476.26 312,475.63 312,474.99C312,474.36 312,473.72 312,473.09C312,472.45 312,471.82 312,471.18C312,470.54 312,469.91 312,469.27C312,468.63 312,468 312,467.36C312,466.73 312,466.09 312,465.46C312,464.82 312,464.19 312,463.55C312,462.91 312,462.28 312,461.64C312,461.01 312,460.37 312,459.74C312,459.1 312,458.47 312,457.83C312,457.19 312,456.56 312,455.92C312,455.28 312,454.65 312,454.01C312,453.38 312,452.74 312,452.11C312,451.47 312,450.84 312,450.2C312,449.56 312,448.93 312,448.29C312,447.66 312,447.02 312,446.39C312,445.75 312,445.12 312,444.48C312,443.84 312,443.21 312,442.57C312,441.93 312,441.3 312,440.66C312,440.03 312,439.39 312,438.76C312,438.12 312.01,437.49 312.01,436.85C312.01,436.21 312.01,435.58 312.01,434.94C312.01,434.3 312.01,433.67 312.01,433.03C312.01,432.4 312.01,431.76 312.01,431.13C312.01,430.49 312.01,429.86 312.01,429.22C312.01,428.58 312.01,427.95 312.01,427.31C312.01,426.68 312.01,426.04 312.01,425.41C312.01,424.77 312.01,424.14 312.01,423.5C312.01,422.86 312.01,422.23 312.01,421.59C312.01,420.95 312,420.32 312,419.68C312,419.05 312,418.41 312,417.78C312,417.14 312.01,416.51 312.01,415.87C312.01,415.23 312.01,414.6 312.01,413.96C312.01,413.33 312.01,412.69 312.01,412.06C312.01,411.42 312.01,410.79 312.01,410.15C312.01,409.51 312.01,408.88 312.01,408.24C312.01,407.6 312.01,406.97 312.01,406.33C312.01,405.7 312.01,405.06 312.01,404.43C312.01,403.79 312.01,403.16 312.01,402.52C312.01,401.88 312.01,401.25 312.01,400.61C312.01,399.97 312.01,399.34 312.01,398.7C312.01,398.07 312.01,397.43 312.01,396.8C312.01,396.16 312.01,395.53 312.01,394.89C312.01,394.25 312.01,393.62 312.01,392.98C312.01,392.35 312.01,391.71 312.01,391.08C312.01,390.44 312.02,389.81 312.02,389.17C312.02,388.53 312.02,387.9 312.02,387.26C312.02,386.62 312.03,385.99 312.03,385.35C312.03,384.72 312.03,384.08 312.03,383.45C312.03,382.81 312.04,382.18 312.04,381.54C312.04,380.9 312.04,380.27 312.04,379.63C312.04,379 312.04,378.36 312.04,377.73C312.04,377.09 312.03,376.46 312.03,375.82C312.03,375.18 312.03,374.55 312.03,373.91C312.03,373.27 312.03,372.64 312.03,372C312.03,371.37 312.03,370.73 312.03,370.1C312.03,369.46 312.02,368.83 312.02,368.19C312.02,367.55 312.02,366.92 312.02,366.28C312.02,365.64 312.02,365.01 312.02,364.37C312.02,363.74 312.02,363.1 312.02,362.47C312.02,361.83 312.02,361.2 312.02,360.56C312.02,359.92 312.02,359.29 312.02,358.65C312.02,358.02 312.03,357.38 312.03,356.75C312.03,356.11 312.03,355.48 312.03,354.84C312.03,354.2 312.03,353.57 312.03,352.93C312.03,352.29 312.03,351.66 312.03,351.02C312.03,350.39 312.03,349.75 312.03,349.12C312.03,348.48 312.03,347.85 312.03,347.21C312.03,346.57 312.02,345.94 312.02,345.3C312.02,344.67 312.02,344.03 312.02,343.4C312.02,342.76 312.02,342.13 312.02,341.49C312.02,340.85 312.02,340.22 312.02,339.58C312.02,338.94 312.02,338.31 312.02,337.67C312.02,337.04 312.02,336.4 312.02,335.77C312.02,335.13 312.02,334.5 312.02,333.86C312.02,333.22 312.02,332.59 312.02,331.95C312.02,331.31 312.02,330.68 312.02,330.04C312.02,329.41 312.02,328.77 312.02,328.14C312.02,327.5 312.02,326.87 312.02,326.23C312.02,325.59 312.02,324.96 312.02,324.32C312.02,323.69 312.02,323.05 312.02,322.42C312.02,321.78 312.02,321.15 312.02,320.51C312.02,319.87 312.02,319.24 312.02,318.6C312.02,317.96 312.02,317.33 312.02,316.69C312.02,316.06 312.02,315.42 312.02,314.79C312.02,314.15 312.02,313.52 312.02,312.88C312.02,312.24 312.02,311.61 312.02,310.97C312.02,310.34 312.02,309.7 312.02,309.07C312.02,308.43 312.02,307.8 312.02,307.16C312.02,306.52 312.02,305.89 312.02,305.25C312.02,304.61 312.03,303.98 312.03,303.34C312.03,302.71 312.04,302.07 312.04,301.44C312.04,300.8 312.05,300.17 312.05,299.53C312.05,298.89 312.06,298.26 312.06,297.62C312.06,296.98 312.07,296.35 312.07,295.71C312.07,295.08 312.08,294.44 312.08,293.81C312.08,293.17 312.09,292.54 312.09,291.9C312.09,291.26 312.09,290.63 312.09,289.99C312.09,289.36 312.09,288.72 312.09,288.09C312.09,287.45 312.08,286.82 312.08,286.18C312.08,285.54 312.08,284.91 312.08,284.27C312.08,283.63 312.07,283 312.07,282.36C312.07,281.73 312.07,281.09 312.07,280.46C312.07,279.82 312.06,279.19 312.06,278.55C312.06,277.91 312.06,277.28 312.06,276.64C312.06,276.01 312.06,275.37 312.06,274.74C312.06,274.1 312.06,273.47 312.06,272.83C312.06,272.19 312.06,271.56 312.06,270.92C312.06,270.28 312.06,269.65 312.06,269.01C312.06,268.38 312.07,267.74 312.07,267.11C312.07,266.47 312.07,265.84 312.07,265.2C312.07,264.56 312.08,263.93 312.08,263.29C312.08,262.65 312.08,262.02 312.08,261.38C312.08,260.75 312.08,260.11 312.08,259.48C312.08,258.84 312.08,258.21 312.08,257.57C312.08,256.93 312.07,256.3 312.07,255.66C312.07,255.03 312.07,254.39 312.07,253.76C312.07,253.12 312.07,252.49 312.07,251.85C312.07,251.21 312.07,250.58 312.07,249.94C312.07,249.3 312.08,248.67 312.08,248.03C312.08,247.4 312.09,246.76 312.09,246.13C312.09,245.49 312.09,244.86 312.09,244.22C312.09,243.58 312.1,242.95 312.1,242.31C312.1,241.68 312.11,241.04 312.11,240.41C312.11,239.77 312.12,239.14 312.12,238.5C312.12,237.86 312.13,237.23 312.13,236.59C312.14,235.95 312.14,235.32 312.15,234.68C312.15,234.05 312.16,233.41 312.16,232.78C312.16,232.14 312.17,231.51 312.17,230.87C312.17,230.23 312.18,229.6 312.18,228.96C312.18,228.32 312.19,227.69 312.19,227.05C312.19,226.42 312.19,225.78 312.19,225.15C312.19,224.51 312.19,223.88 312.19,223.24C312.19,222.6 312.19,221.97 312.19,221.33C312.19,220.7 312.19,220.06 312.19,219.43C312.19,218.79 312.18,218.16 312.18,217.52C312.18,216.88 312.19,216.25 312.19,215.61C312.19,214.97 312.19,214.34 312.19,213.7C312.19,213.07 312.19,212.43 312.19,211.8C312.19,211.16 312.2,210.53 312.2,209.89C312.2,209.25 312.21,208.62 312.21,207.98C312.21,207.35 312.22,206.71 312.22,206.08C312.22,205.44 312.22,204.81 312.22,204.17C312.22,203.53 312.23,202.9 312.23,202.26C312.23,201.62 312.24,200.99 312.24,200.35C312.24,199.72 312.25,199.08 312.25,198.45C312.25,197.81 312.26,197.18 312.26,196.54C312.26,195.9 312.27,195.27 312.27,194.63C312.27,193.99 312.28,193.36 312.28,192.72C312.28,192.09 312.28,191.45 312.28,190.82C312.28,190.18 312.29,189.55 312.29,188.91C312.29,188.27 312.29,187.64 312.29,187C312.29,186.37 312.3,185.73 312.3,185.1C312.3,184.46 312.31,183.83 312.31,183.19C312.32,182.55 312.32,181.92 312.33,181.28C312.34,180.64 312.34,180.01 312.35,179.37C312.36,178.74 312.36,178.1 312.37,177.47C312.38,176.83 312.38,176.2 312.39,175.56C312.4,174.92 312.4,174.29 312.41,173.65C312.42,173.02 312.42,172.38 312.43,171.75C312.44,171.11 312.44,170.48 312.45,169.84C312.46,169.2 312.47,168.57 312.48,167.93C312.49,167.29 312.49,166.66 312.5,166.02C312.51,165.39 312.52,164.75 312.53,164.12C312.54,163.48 312.56,162.85 312.57,162.21C312.58,161.57 312.59,160.94 312.6,160.3C312.61,159.66 312.63,159.03 312.64,158.39C312.65,157.76 312.67,157.12 312.68,156.49C312.69,155.85 312.71,155.22 312.72,154.58C312.73,153.94 312.73,153.31 312.74,152.67C312.75,152.04 312.76,151.4 312.76,150.77C312.77,150.13 312.77,149.5 312.77,148.86C312.78,148.22 312.78,147.59 312.79,146.95C312.8,146.31 312.8,145.68 312.81,145.04C312.82,144.41 312.83,143.77 312.85,143.14C312.87,142.5 312.89,141.87 312.91,141.23C312.93,140.59 312.95,139.96 312.98,139.32C313,138.69 313.04,138.05 313.06,137.42C313.09,136.78 313.11,136.15 313.13,135.51C313.15,134.87 313.18,134.24 313.2,133.6C313.22,132.96 313.24,132.33 313.26,131.69C313.28,131.06 313.3,130.42 313.32,129.79C313.34,129.15 313.35,128.52 313.37,127.88C313.39,127.24 313.4,126.61 313.42,125.97C313.44,125.33 313.46,124.7 313.49,124.06C313.51,123.43 313.54,122.79 313.57,122.16C313.6,121.52 313.64,120.89 313.67,120.25C313.7,119.61 313.74,118.98 313.77,118.34C313.8,117.71 313.84,117.07 313.87,116.44C313.9,115.8 313.93,115.17 313.96,114.53C313.99,113.89 314.02,113.26 314.04,112.62C314.06,111.98 314.08,111.35 314.1,110.71C314.12,110.08 314.13,109.44 314.15,108.81C314.17,108.17 314.18,107.54 314.2,106.9C314.22,106.26 314.23,105.63 314.25,104.99C314.27,104.36 314.31,103.72 314.34,103.09C314.37,102.45 314.41,101.82 314.45,101.18C314.5,100.54 314.55,99.91 314.61,99.27C314.67,98.63 314.73,98 314.8,97.36C314.87,96.73 314.94,96.09 315.01,95.46C315.08,94.82 315.16,94.19 315.23,93.55C315.3,92.91 315.37,92.28 315.44,91.64C315.51,91 315.58,90.37 315.64,89.73C315.7,89.1 315.74,88.46 315.79,87.83C315.84,87.19 315.88,86.56 315.92,85.92C315.96,85.28 315.99,84.65 316.02,84.01C316.05,83.38 316.08,82.74 316.11,82.11C316.14,81.47 316.17,80.84 316.2,80.2C316.23,79.56 316.27,78.93 316.31,78.29C316.35,77.65 316.39,77.02 316.44,76.38C316.49,75.75 316.55,75.11 316.61,74.48C316.67,73.84 316.73,73.21 316.8,72.57C316.87,71.93 316.94,71.3 317.01,70.66C317.08,70.03 317.15,69.39 317.23,68.76C317.31,68.12 317.39,67.49 317.47,66.85C317.56,66.21 317.65,65.58 317.74,64.94C317.83,64.3 317.92,63.67 318.02,63.03C318.12,62.4 318.23,61.76 318.32,61.13C318.42,60.49 318.51,59.86 318.59,59.22C318.67,58.58 318.75,57.95 318.82,57.31C318.88,56.67 318.93,56.04 318.98,55.4C319.03,54.77 319.06,54.13 319.1,53.5C319.14,52.86 319.17,52.23 319.23,51.59C319.29,50.95 319.35,50.31 319.48,49.68C319.61,49.04 319.76,48.4 320.02,47.78C320.29,47.13 320.62,46.47 321.1,45.87C321.64,45.19 322.33,44.54 323.17,43.96C324.2,43.24 325.48,42.63 326.93,42.05C328.76,41.32 330.96,40.73 333.35,40.15C336.29,39.43 339.71,38.83 343.3,38.24C347.49,37.55 352.24,36.94 357,36.33C362.17,35.67 367.84,35.07 373.21,34.43C378.51,33.8 384.19,33.22 389.02,32.52C393.14,31.93 397.77,31.53 400.42,30.61Q401.97,30.07 403.88,28.7L312,28.7" style="vector-effect: non-scaling-stroke; stroke-width: 2px; stroke: rgb(0, 128, 0); stroke-opacity: 1; fill: rgb(0, 128, 0); fill-opacity: 0.5;"/><path class="meanline" d="M324.5653381347656,43.12H312" style="fill: none; vector-effect: non-scaling-stroke; stroke-width: 3px; stroke-dasharray: 6px, 3px; stroke: rgb(255, 255, 255); stroke-opacity: 1;"/></g><g class="trace violins" style="opacity: 1;"><path class="violin" d="M520,28.7L428.85,28.7Q427.47,32.76 428.12,34.56C428.9,36.73 431.86,38.61 434.33,40.42C437.26,42.57 441.21,44.36 444.79,46.28C448.5,48.27 452.58,50.13 456.24,52.14C459.71,54.04 463.2,55.93 466.22,57.99C468.95,59.85 471.51,61.79 473.67,63.85C475.63,65.72 477.3,67.69 478.76,69.71C480.13,71.6 481.23,73.59 482.27,75.57C483.28,77.49 484.11,79.46 484.95,81.42C485.78,83.36 486.54,85.32 487.3,87.28C488.05,89.23 488.78,91.18 489.47,93.14C490.16,95.09 490.82,97.04 491.43,99C492.03,100.95 492.6,102.9 493.1,104.86C493.6,106.8 494.04,108.75 494.43,110.71C494.82,112.66 495.14,114.61 495.44,116.57C495.73,118.52 495.97,120.48 496.2,122.43C496.43,124.38 496.63,126.34 496.84,128.29C497.05,130.24 497.23,132.2 497.44,134.15C497.64,136.1 497.86,138.05 498.07,140C498.29,141.95 498.51,143.91 498.73,145.86C498.95,147.81 499.16,149.77 499.37,151.72C499.57,153.67 499.77,155.63 499.96,157.58C500.15,159.53 500.32,161.49 500.49,163.44C500.66,165.39 500.82,167.34 501,169.29C501.18,171.24 501.37,173.2 501.59,175.15C501.81,177.1 502.06,179.06 502.34,181.01C502.62,182.97 502.94,184.92 503.29,186.87C503.64,188.82 504.03,190.77 504.42,192.72C504.82,194.67 505.25,196.63 505.66,198.58C506.07,200.53 506.49,202.48 506.88,204.44C507.27,206.39 507.65,208.34 507.99,210.3C508.33,212.25 508.64,214.21 508.91,216.16C509.18,218.11 509.42,220.06 509.63,222.01C509.84,223.96 510.02,225.92 510.19,227.87C510.36,229.82 510.49,231.78 510.64,233.73C510.78,235.68 510.92,237.64 511.06,239.59C511.2,241.54 511.33,243.5 511.48,245.45C511.62,247.4 511.78,249.35 511.93,251.3C512.08,253.25 512.24,255.21 512.4,257.16C512.56,259.11 512.73,261.07 512.9,263.02C513.07,264.97 513.24,266.93 513.41,268.88C513.58,270.83 513.76,272.79 513.94,274.74C514.11,276.69 514.29,278.64 514.46,280.59C514.63,282.54 514.8,284.5 514.96,286.45C515.11,288.4 515.26,290.36 515.39,292.31C515.52,294.26 515.65,296.22 515.75,298.17C515.85,300.12 515.94,302.07 516.01,304.02C516.08,305.97 516.14,307.93 516.19,309.88C516.24,311.83 516.27,313.79 516.31,315.74C516.35,317.69 516.38,319.65 516.42,321.6C516.46,323.55 516.5,325.51 516.54,327.46C516.58,329.41 516.63,331.36 516.68,333.31C516.73,335.26 516.79,337.22 516.85,339.17C516.91,341.12 516.97,343.08 517.03,345.03C517.09,346.98 517.14,348.94 517.19,350.89C517.24,352.84 517.29,354.8 517.34,356.75C517.38,358.7 517.42,360.65 517.46,362.6C517.5,364.55 517.53,366.51 517.56,368.46C517.59,370.41 517.62,372.37 517.65,374.32C517.68,376.27 517.72,378.23 517.75,380.18C517.79,382.13 517.82,384.09 517.86,386.04C517.9,387.99 517.94,389.94 517.98,391.89C518.02,393.84 518.06,395.8 518.1,397.75C518.14,399.7 518.18,401.66 518.22,403.61C518.26,405.56 518.29,407.52 518.33,409.47C518.36,411.42 518.4,413.38 518.43,415.33C518.46,417.28 518.49,419.23 518.52,421.18C518.55,423.13 518.57,425.09 518.6,427.04C518.62,428.99 518.65,430.95 518.67,432.9C518.69,434.85 518.72,436.81 518.74,438.76C518.76,440.71 518.79,442.66 518.81,444.61C518.83,446.56 518.84,448.52 518.85,450.47C518.86,452.42 518.88,454.38 518.89,456.33C518.9,458.28 518.9,460.24 518.91,462.19C518.92,464.14 518.93,466.1 518.95,468.05C518.96,470 518.98,471.95 519,473.9C519.02,475.85 519.04,477.81 519.07,479.76C519.1,481.71 519.14,483.67 519.17,485.62C519.21,487.57 519.24,489.53 519.28,491.48C519.32,493.43 519.36,495.39 519.39,497.34C519.42,499.29 519.45,501.24 519.48,503.19C519.51,505.14 519.54,507.1 519.56,509.05C519.58,511 519.6,512.96 519.62,514.91C519.64,516.86 519.65,518.82 519.66,520.77C519.67,522.72 519.67,524.68 519.68,526.63C519.69,528.58 519.7,530.53 519.7,532.48C519.71,534.43 519.7,536.39 519.71,538.34C519.72,540.29 519.73,542.25 519.74,544.2C519.75,546.15 519.75,548.11 519.76,550.06C519.77,552.01 519.78,553.96 519.79,555.91C519.8,557.86 519.81,559.82 519.82,561.77C519.83,563.72 519.83,565.68 519.83,567.63C519.83,569.58 519.82,571.54 519.81,573.49C519.8,575.44 519.78,577.4 519.76,579.35C519.74,581.3 519.71,583.25 519.68,585.2C519.65,587.15 519.62,589.11 519.6,591.06C519.58,593.01 519.56,594.97 519.54,596.92Q519.53,598.87 519.51,602.78L520,602.78" style="vector-effect: non-scaling-stroke; stroke-width: 2px; stroke: rgb(0, 0, 255); stroke-opacity: 1; fill: rgb(0, 0, 255); fill-opacity: 0.5;"/><path class="meanline" d="M492.17041015625,101.47H520" style="fill: none; vector-effect: non-scaling-stroke; stroke-width: 3px; stroke-dasharray: 6px, 3px; stroke: rgb(255, 255, 255); stroke-opacity: 1;"/></g><g class="trace violins" style="opacity: 1;"><path class="violin" d="M520,602.78L520.02,602.78Q520.02,601.51 520.02,600.87C520.02,600.23 520.02,599.6 520.02,598.96C520.02,598.33 520.01,597.69 520.01,597.06C520.01,596.42 520.01,595.79 520.01,595.15C520.01,594.51 520.01,593.88 520.01,593.24C520.01,592.6 520,591.97 520,591.33C520,590.7 520,590.06 520,589.43C520,588.79 520,588.16 520,587.52C520,586.88 520,586.25 520,585.61C520,584.98 520,584.34 520,583.71C520,583.07 520,582.44 520,581.8C520,581.16 520,580.53 520,579.89C520,579.25 520,578.62 520,577.98C520,577.35 520,576.71 520,576.08C520,575.44 520,574.81 520,574.17C520,573.53 520,572.9 520,572.26C520,571.62 520,570.99 520,570.35C520,569.72 520,569.08 520,568.45C520,567.81 520,567.18 520,566.54C520,565.9 520,565.27 520,564.63C520,564 520,563.36 520,562.73C520,562.09 520,561.46 520,560.82C520,560.18 520,559.55 520,558.91C520,558.27 520,557.64 520,557C520,556.37 520,555.73 520,555.1C520,554.46 520,553.83 520,553.19C520,552.55 520,551.92 520,551.28C520,550.65 520,550.01 520,549.38C520,548.74 520,548.11 520,547.47C520,546.83 520,546.2 520,545.56C520,544.92 520,544.29 520,543.65C520,543.02 520,542.38 520,541.75C520,541.11 520,540.48 520,539.84C520,539.2 520,538.57 520,537.93C520,537.29 520,536.66 520,536.02C520,535.39 520.01,534.75 520.01,534.12C520.01,533.48 520.01,532.85 520.01,532.21C520.01,531.57 520.01,530.94 520.01,530.3C520.01,529.67 520,529.03 520,528.4C520,527.76 520,527.13 520,526.49C520,525.85 520,525.22 520,524.58C520,523.94 520,523.31 520,522.67C520,522.04 520,521.4 520,520.77C520,520.13 520,519.5 520,518.86C520,518.22 520,517.59 520,516.95C520,516.32 520,515.68 520,515.05C520,514.41 520,513.78 520,513.14C520,512.5 520,511.87 520,511.23C520,510.59 520,509.96 520,509.32C520,508.69 520,508.05 520,507.42C520,506.78 520,506.15 520,505.51C520,504.87 520,504.24 520,503.6C520,502.96 520,502.33 520,501.69C520,501.06 520,500.42 520,499.79C520,499.15 520,498.52 520,497.88C520,497.24 520,496.61 520,495.97C520,495.34 520,494.7 520,494.07C520,493.43 520.01,492.8 520.01,492.16C520.01,491.52 520.01,490.89 520.01,490.25C520.01,489.61 520.01,488.98 520.01,488.34C520.01,487.71 520,487.07 520,486.44C520,485.8 520,485.17 520,484.53C520,483.89 520,483.26 520,482.62C520,481.99 520,481.35 520,480.72C520,480.08 520,479.45 520,478.81C520,478.17 520,477.54 520,476.9C520,476.26 520,475.63 520,474.99C520,474.36 520,473.72 520,473.09C520,472.45 520,471.82 520,471.18C520,470.54 520,469.91 520,469.27C520,468.63 520,468 520,467.36C520,466.73 520,466.09 520,465.46C520,464.82 520,464.19 520,463.55C520,462.91 520,462.28 520,461.64C520,461.01 520,460.37 520,459.74C520,459.1 520,458.47 520,457.83C520,457.19 520,456.56 520,455.92C520,455.28 520,454.65 520,454.01C520,453.38 520,452.74 520,452.11C520,451.47 520,450.84 520,450.2C520,449.56 520.01,448.93 520.01,448.29C520.01,447.66 520.01,447.02 520.01,446.39C520.01,445.75 520.01,445.12 520.01,444.48C520.01,443.84 520.01,443.21 520.01,442.57C520.01,441.93 520.01,441.3 520.01,440.66C520.01,440.03 520.01,439.39 520.01,438.76C520.01,438.12 520.01,437.49 520.01,436.85C520.01,436.21 520.01,435.58 520.01,434.94C520.01,434.3 520.02,433.67 520.02,433.03C520.02,432.4 520.02,431.76 520.02,431.13C520.02,430.49 520.02,429.86 520.02,429.22C520.02,428.58 520.02,427.95 520.02,427.31C520.02,426.68 520.02,426.04 520.02,425.41C520.02,424.77 520.02,424.14 520.02,423.5C520.02,422.86 520.02,422.23 520.02,421.59C520.02,420.95 520.02,420.32 520.02,419.68C520.02,419.05 520.02,418.41 520.02,417.78C520.02,417.14 520.02,416.51 520.02,415.87C520.02,415.23 520.02,414.6 520.02,413.96C520.02,413.33 520.02,412.69 520.02,412.06C520.02,411.42 520.01,410.79 520.01,410.15C520.01,409.51 520.01,408.88 520.01,408.24C520.01,407.6 520.01,406.97 520.01,406.33C520.01,405.7 520.01,405.06 520.01,404.43C520.01,403.79 520.01,403.16 520.01,402.52C520.01,401.88 520.01,401.25 520.01,400.61C520.01,399.97 520.01,399.34 520.01,398.7C520.01,398.07 520.01,397.43 520.01,396.8C520.01,396.16 520.01,395.53 520.01,394.89C520.01,394.25 520.01,393.62 520.01,392.98C520.01,392.35 520.01,391.71 520.01,391.08C520.01,390.44 520.02,389.81 520.02,389.17C520.02,388.53 520.02,387.9 520.02,387.26C520.02,386.62 520.02,385.99 520.02,385.35C520.02,384.72 520.02,384.08 520.02,383.45C520.02,382.81 520.03,382.18 520.03,381.54C520.03,380.9 520.03,380.27 520.03,379.63C520.03,379 520.03,378.36 520.03,377.73C520.03,377.09 520.03,376.46 520.03,375.82C520.03,375.18 520.04,374.55 520.04,373.91C520.04,373.27 520.04,372.64 520.04,372C520.04,371.37 520.03,370.73 520.03,370.1C520.03,369.46 520.03,368.83 520.03,368.19C520.03,367.55 520.03,366.92 520.03,366.28C520.03,365.64 520.03,365.01 520.03,364.37C520.03,363.74 520.03,363.1 520.03,362.47C520.03,361.83 520.03,361.2 520.03,360.56C520.03,359.92 520.03,359.29 520.03,358.65C520.03,358.02 520.03,357.38 520.03,356.75C520.03,356.11 520.03,355.48 520.03,354.84C520.03,354.2 520.03,353.57 520.03,352.93C520.03,352.29 520.03,351.66 520.03,351.02C520.03,350.39 520.03,349.75 520.03,349.12C520.03,348.48 520.03,347.85 520.03,347.21C520.03,346.57 520.03,345.94 520.03,345.3C520.03,344.67 520.04,344.03 520.04,343.4C520.04,342.76 520.05,342.13 520.05,341.49C520.05,340.85 520.05,340.22 520.05,339.58C520.05,338.94 520.06,338.31 520.06,337.67C520.06,337.04 520.07,336.4 520.07,335.77C520.07,335.13 520.07,334.5 520.07,333.86C520.07,333.22 520.07,332.59 520.07,331.95C520.07,331.31 520.08,330.68 520.08,330.04C520.08,329.41 520.08,328.77 520.08,328.14C520.08,327.5 520.08,326.87 520.08,326.23C520.08,325.59 520.08,324.96 520.08,324.32C520.08,323.69 520.08,323.05 520.08,322.42C520.08,321.78 520.08,321.15 520.08,320.51C520.08,319.87 520.08,319.24 520.08,318.6C520.08,317.96 520.08,317.33 520.08,316.69C520.08,316.06 520.07,315.42 520.07,314.79C520.07,314.15 520.07,313.52 520.07,312.88C520.07,312.24 520.07,311.61 520.07,310.97C520.07,310.34 520.07,309.7 520.07,309.07C520.07,308.43 520.07,307.8 520.07,307.16C520.07,306.52 520.08,305.89 520.08,305.25C520.08,304.61 520.09,303.98 520.09,303.34C520.09,302.71 520.09,302.07 520.09,301.44C520.09,300.8 520.09,300.17 520.09,299.53C520.09,298.89 520.09,298.26 520.09,297.62C520.09,296.98 520.09,296.35 520.09,295.71C520.09,295.08 520.09,294.44 520.09,293.81C520.09,293.17 520.08,292.54 520.08,291.9C520.08,291.26 520.08,290.63 520.08,289.99C520.08,289.36 520.09,288.72 520.09,288.09C520.09,287.45 520.09,286.82 520.09,286.18C520.09,285.54 520.1,284.91 520.1,284.27C520.11,283.63 520.11,283 520.12,282.36C520.12,281.73 520.13,281.09 520.13,280.46C520.14,279.82 520.14,279.19 520.15,278.55C520.16,277.91 520.16,277.28 520.17,276.64C520.17,276.01 520.18,275.37 520.18,274.74C520.18,274.1 520.19,273.47 520.19,272.83C520.19,272.19 520.2,271.56 520.2,270.92C520.2,270.28 520.19,269.65 520.19,269.01C520.19,268.38 520.19,267.74 520.19,267.11C520.19,266.47 520.18,265.84 520.18,265.2C520.18,264.56 520.18,263.93 520.18,263.29C520.18,262.65 520.17,262.02 520.17,261.38C520.17,260.75 520.18,260.11 520.18,259.48C520.18,258.84 520.18,258.21 520.18,257.57C520.18,256.93 520.19,256.3 520.19,255.66C520.19,255.03 520.2,254.39 520.2,253.76C520.2,253.12 520.21,252.49 520.21,251.85C520.21,251.21 520.22,250.58 520.22,249.94C520.22,249.3 520.22,248.67 520.23,248.03C520.23,247.4 520.24,246.76 520.25,246.13C520.26,245.49 520.26,244.86 520.27,244.22C520.28,243.58 520.28,242.95 520.29,242.31C520.3,241.68 520.31,241.04 520.31,240.41C520.32,239.77 520.32,239.14 520.32,238.5C520.32,237.86 520.32,237.23 520.32,236.59C520.32,235.95 520.32,235.32 520.32,234.68C520.32,234.05 520.31,233.41 520.31,232.78C520.31,232.14 520.31,231.51 520.31,230.87C520.31,230.23 520.31,229.6 520.31,228.96C520.31,228.32 520.31,227.69 520.31,227.05C520.31,226.42 520.31,225.78 520.31,225.15C520.31,224.51 520.32,223.88 520.32,223.24C520.32,222.6 520.32,221.97 520.32,221.33C520.32,220.7 520.32,220.06 520.32,219.43C520.32,218.79 520.31,218.16 520.31,217.52C520.31,216.88 520.31,216.25 520.31,215.61C520.31,214.97 520.32,214.34 520.32,213.7C520.32,213.07 520.32,212.43 520.33,211.8C520.34,211.16 520.35,210.53 520.36,209.89C520.37,209.25 520.37,208.62 520.38,207.98C520.39,207.35 520.4,206.71 520.41,206.08C520.42,205.44 520.43,204.81 520.44,204.17C520.45,203.53 520.46,202.9 520.47,202.26C520.48,201.62 520.49,200.99 520.5,200.35C520.51,199.72 520.52,199.08 520.53,198.45C520.54,197.81 520.54,197.18 520.55,196.54C520.56,195.9 520.57,195.27 520.58,194.63C520.59,193.99 520.61,193.36 520.62,192.72C520.63,192.09 520.64,191.45 520.65,190.82C520.66,190.18 520.68,189.55 520.69,188.91C520.7,188.27 520.71,187.64 520.72,187C520.73,186.37 520.74,185.73 520.75,185.1C520.76,184.46 520.78,183.83 520.79,183.19C520.8,182.55 520.82,181.92 520.83,181.28C520.84,180.64 520.85,180.01 520.86,179.37C520.87,178.74 520.89,178.1 520.9,177.47C520.91,176.83 520.92,176.2 520.93,175.56C520.94,174.92 520.96,174.29 520.97,173.65C520.98,173.02 520.99,172.38 521,171.75C521.01,171.11 521.02,170.48 521.03,169.84C521.04,169.2 521.05,168.57 521.05,167.93C521.05,167.29 521.05,166.66 521.05,166.02C521.05,165.39 521.05,164.75 521.05,164.12C521.05,163.48 521.04,162.85 521.03,162.21C521.03,161.57 521.02,160.94 521.02,160.3C521.02,159.66 521.01,159.03 521.01,158.39C521.01,157.76 521,157.12 521,156.49C521,155.85 521.01,155.22 521.01,154.58C521.02,153.94 521.02,153.31 521.03,152.67C521.04,152.04 521.05,151.4 521.06,150.77C521.07,150.13 521.09,149.5 521.11,148.86C521.13,148.22 521.15,147.59 521.17,146.95C521.19,146.31 521.22,145.68 521.25,145.04C521.28,144.41 521.3,143.77 521.33,143.14C521.36,142.5 521.39,141.87 521.42,141.23C521.45,140.59 521.48,139.96 521.51,139.32C521.54,138.69 521.57,138.05 521.59,137.42C521.61,136.78 521.63,136.15 521.65,135.51C521.67,134.87 521.68,134.24 521.69,133.6C521.7,132.96 521.71,132.33 521.71,131.69C521.71,131.06 521.71,130.42 521.71,129.79C521.71,129.15 521.7,128.52 521.7,127.88C521.7,127.24 521.7,126.61 521.7,125.97C521.7,125.33 521.7,124.7 521.7,124.06C521.7,123.43 521.71,122.79 521.71,122.16C521.71,121.52 521.72,120.89 521.72,120.25C521.73,119.61 521.73,118.98 521.74,118.34C521.75,117.71 521.75,117.07 521.76,116.44C521.77,115.8 521.77,115.17 521.78,114.53C521.79,113.89 521.79,113.26 521.8,112.62C521.81,111.98 521.81,111.35 521.82,110.71C521.83,110.08 521.84,109.44 521.85,108.81C521.86,108.17 521.87,107.54 521.88,106.9C521.89,106.26 521.9,105.63 521.91,104.99C521.92,104.36 521.93,103.72 521.94,103.09C521.95,102.45 521.97,101.82 521.98,101.18C521.99,100.54 522,99.91 522.01,99.27C522.02,98.63 522.02,98 522.03,97.36C522.04,96.73 522.04,96.09 522.05,95.46C522.06,94.82 522.06,94.19 522.07,93.55C522.07,92.91 522.07,92.28 522.08,91.64C522.09,91 522.1,90.37 522.11,89.73C522.12,89.1 522.13,88.46 522.14,87.83C522.15,87.19 522.16,86.56 522.17,85.92C522.18,85.28 522.2,84.65 522.22,84.01C522.24,83.38 522.26,82.74 522.27,82.11C522.29,81.47 522.3,80.84 522.31,80.2C522.32,79.56 522.34,78.93 522.35,78.29C522.36,77.65 522.37,77.02 522.38,76.38C522.39,75.75 522.39,75.11 522.4,74.48C522.41,73.84 522.41,73.21 522.42,72.57C522.43,71.93 522.43,71.3 522.45,70.66C522.46,70.03 522.48,69.39 522.51,68.76C522.54,68.12 522.57,67.49 522.61,66.85C522.65,66.21 522.7,65.58 522.75,64.94C522.8,64.3 522.87,63.67 522.93,63.03C522.99,62.4 523.06,61.76 523.12,61.13C523.18,60.49 523.25,59.86 523.31,59.22C523.38,58.58 523.45,57.95 523.51,57.31C523.57,56.67 523.62,56.04 523.69,55.4C523.75,54.77 523.82,54.13 523.9,53.5C523.98,52.86 524.05,52.23 524.15,51.59C524.25,50.95 524.35,50.31 524.51,49.68C524.67,49.04 524.84,48.4 525.1,47.78C525.38,47.13 525.69,46.47 526.15,45.87C526.67,45.19 527.33,44.54 528.15,43.96C529.16,43.24 530.43,42.63 531.87,42.05C533.71,41.32 535.94,40.73 538.36,40.15C541.37,39.43 544.89,38.83 548.59,38.24C552.92,37.54 557.83,36.94 562.76,36.33C568.13,35.67 574.02,35.07 579.6,34.43C585.12,33.8 591.02,33.21 596.06,32.52C600.37,31.93 605.19,31.52 608.03,30.61Q609.72,30.07 611.88,28.7L520,28.7" style="vector-effect: non-scaling-stroke; stroke-width: 2px; stroke: rgb(0, 128, 0); stroke-opacity: 1; fill: rgb(0, 128, 0); fill-opacity: 0.5;"/><path class="meanline" d="M526.7188720703125,45.2H520" style="fill: none; vector-effect: non-scaling-stroke; stroke-width: 3px; stroke-dasharray: 6px, 3px; stroke: rgb(255, 255, 255); stroke-opacity: 1;"/></g><g class="trace violins" style="opacity: 1;"><path class="violin" d="M728,28.7L639.87,28.7Q636.21,34 636.12,36.68C636.03,39.32 637.58,42.16 639.23,44.65C641.14,47.53 644.44,50.05 647.42,52.62C650.63,55.38 654.45,57.93 657.92,60.6C661.37,63.25 665,65.83 668.19,68.57C671.21,71.16 674.14,73.78 676.63,76.54C678.95,79.11 681.02,81.78 682.75,84.52C684.39,87.11 685.71,89.79 686.84,92.49C687.94,95.11 688.75,97.78 689.49,100.46C690.22,103.1 690.76,105.77 691.28,108.44C691.8,111.09 692.2,113.75 692.61,116.41C693.01,119.06 693.37,121.72 693.71,124.38C694.05,127.04 694.37,129.7 694.67,132.36C694.97,135.02 695.25,137.67 695.51,140.33C695.77,142.99 696.02,145.64 696.25,148.3C696.48,150.96 696.68,153.62 696.9,156.28C697.11,158.94 697.32,161.59 697.54,164.25C697.77,166.91 697.99,169.56 698.25,172.22C698.51,174.88 698.79,177.54 699.12,180.2C699.45,182.86 699.81,185.52 700.23,188.17C700.65,190.83 701.11,193.49 701.62,196.14C702.13,198.8 702.71,201.46 703.29,204.12C703.88,206.78 704.51,209.43 705.13,212.09C705.75,214.75 706.4,217.4 707.01,220.06C707.62,222.71 708.22,225.37 708.78,228.03C709.34,230.69 709.87,233.35 710.35,236.01C710.83,238.66 711.26,241.32 711.68,243.98C712.09,246.63 712.47,249.29 712.84,251.95C713.21,254.61 713.56,257.27 713.91,259.93C714.26,262.59 714.6,265.24 714.94,267.9C715.28,270.56 715.63,273.21 715.95,275.87C716.28,278.53 716.6,281.19 716.89,283.85C717.18,286.51 717.45,289.16 717.68,291.82C717.91,294.48 718.11,297.13 718.28,299.79C718.45,302.45 718.58,305.11 718.68,307.77C718.78,310.43 718.84,313.08 718.9,315.74C718.96,318.4 718.98,321.05 719.02,323.71C719.06,326.37 719.08,329.03 719.13,331.69C719.18,334.35 719.23,337 719.3,339.66C719.37,342.32 719.46,344.97 719.56,347.63C719.67,350.29 719.79,352.95 719.93,355.61C720.06,358.27 720.22,360.92 720.37,363.58C720.52,366.24 720.68,368.89 720.82,371.55C720.96,374.21 721.1,376.87 721.23,379.53C721.35,382.19 721.47,384.84 721.57,387.5C721.67,390.16 721.75,392.81 721.83,395.47C721.91,398.13 721.98,400.79 722.05,403.45C722.12,406.11 722.18,408.76 722.25,411.42C722.33,414.08 722.41,416.73 722.5,419.39C722.59,422.05 722.69,424.71 722.8,427.37C722.91,430.03 723.04,432.68 723.17,435.34C723.3,438 723.45,440.65 723.59,443.31C723.74,445.97 723.89,448.63 724.04,451.29C724.19,453.95 724.35,456.6 724.5,459.26C724.65,461.92 724.8,464.57 724.94,467.23C725.08,469.89 725.22,472.55 725.35,475.21C725.48,477.87 725.6,480.52 725.71,483.18C725.82,485.84 725.93,488.49 726.03,491.15C726.13,493.81 726.21,496.47 726.29,499.13C726.37,501.79 726.44,504.44 726.51,507.1C726.58,509.76 726.64,512.41 726.69,515.07C726.75,517.73 726.79,520.39 726.84,523.05C726.89,525.71 726.93,528.36 726.97,531.02C727.01,533.68 727.05,536.33 727.08,538.99C727.11,541.65 727.14,544.31 727.16,546.97C727.18,549.63 727.21,552.28 727.22,554.94C727.23,557.6 727.23,560.25 727.23,562.91C727.23,565.57 727.21,568.22 727.19,570.88C727.17,573.54 727.15,576.2 727.12,578.86C727.09,581.52 727.05,584.17 727.03,586.83C727.01,589.49 726.99,592.14 726.98,594.8Q726.97,597.46 726.99,602.78L728,602.78" style="vector-effect: non-scaling-stroke; stroke-width: 2px; stroke: rgb(0, 0, 255); stroke-opacity: 1; fill: rgb(0, 0, 255); fill-opacity: 0.5;"/><path class="meanline" d="M694.1524658203125,127.94H728" style="fill: none; vector-effect: non-scaling-stroke; stroke-width: 3px; stroke-dasharray: 6px, 3px; stroke: rgb(255, 255, 255); stroke-opacity: 1;"/></g><g class="trace violins" style="opacity: 1;"><path class="violin" d="M728,602.78L728.05,602.78Q728.04,601.51 728.04,600.87C728.04,600.23 728.04,599.6 728.04,598.96C728.04,598.33 728.03,597.69 728.03,597.06C728.03,596.42 728.02,595.79 728.02,595.15C728.02,594.51 728.01,593.88 728.01,593.24C728.01,592.6 728.01,591.97 728.01,591.33C728.01,590.7 728,590.06 728,589.43C728,588.79 728,588.16 728,587.52C728,586.88 728,586.25 728,585.61C728,584.98 728,584.34 728,583.71C728,583.07 728,582.44 728,581.8C728,581.16 728,580.53 728,579.89C728,579.25 728,578.62 728,577.98C728,577.35 728,576.71 728,576.08C728,575.44 728,574.81 728,574.17C728,573.53 728,572.9 728,572.26C728,571.62 728,570.99 728,570.35C728,569.72 728,569.08 728,568.45C728,567.81 728,567.18 728,566.54C728,565.9 728,565.27 728,564.63C728,564 728,563.36 728,562.73C728,562.09 728,561.46 728,560.82C728,560.18 728,559.55 728,558.91C728,558.27 728,557.64 728,557C728,556.37 728,555.73 728,555.1C728,554.46 728,553.83 728,553.19C728,552.55 728,551.92 728,551.28C728,550.65 728.01,550.01 728.01,549.38C728.01,548.74 728.01,548.11 728.01,547.47C728.01,546.83 728.01,546.2 728.01,545.56C728.01,544.92 728.01,544.29 728.01,543.65C728.01,543.02 728.01,542.38 728.01,541.75C728.01,541.11 728.01,540.48 728.01,539.84C728.01,539.2 728.01,538.57 728.01,537.93C728.01,537.29 728.01,536.66 728.01,536.02C728.01,535.39 728.01,534.75 728.01,534.12C728.01,533.48 728.01,532.85 728.01,532.21C728.01,531.57 728,530.94 728,530.3C728,529.67 728,529.03 728,528.4C728,527.76 728,527.13 728,526.49C728,525.85 728.01,525.22 728.01,524.58C728.01,523.94 728.01,523.31 728.01,522.67C728.01,522.04 728.01,521.4 728.01,520.77C728.01,520.13 728.01,519.5 728.01,518.86C728.01,518.22 728.02,517.59 728.02,516.95C728.02,516.32 728.02,515.68 728.02,515.05C728.02,514.41 728.02,513.78 728.02,513.14C728.02,512.5 728.02,511.87 728.02,511.23C728.02,510.59 728.02,509.96 728.02,509.32C728.02,508.69 728.02,508.05 728.02,507.42C728.02,506.78 728.03,506.15 728.03,505.51C728.03,504.87 728.03,504.24 728.03,503.6C728.03,502.96 728.03,502.33 728.03,501.69C728.03,501.06 728.04,500.42 728.04,499.79C728.04,499.15 728.04,498.52 728.04,497.88C728.04,497.24 728.05,496.61 728.05,495.97C728.05,495.34 728.05,494.7 728.05,494.07C728.05,493.43 728.05,492.8 728.05,492.16C728.05,491.52 728.05,490.89 728.05,490.25C728.05,489.61 728.05,488.98 728.05,488.34C728.05,487.71 728.05,487.07 728.05,486.44C728.05,485.8 728.05,485.17 728.05,484.53C728.05,483.89 728.05,483.26 728.05,482.62C728.05,481.99 728.05,481.35 728.05,480.72C728.05,480.08 728.05,479.45 728.05,478.81C728.05,478.17 728.05,477.54 728.05,476.9C728.05,476.26 728.06,475.63 728.06,474.99C728.06,474.36 728.06,473.72 728.06,473.09C728.06,472.45 728.06,471.82 728.06,471.18C728.06,470.54 728.06,469.91 728.06,469.27C728.06,468.63 728.06,468 728.06,467.36C728.06,466.73 728.06,466.09 728.06,465.46C728.06,464.82 728.07,464.19 728.07,463.55C728.07,462.91 728.08,462.28 728.08,461.64C728.08,461.01 728.09,460.37 728.09,459.74C728.09,459.1 728.1,458.47 728.1,457.83C728.1,457.19 728.11,456.56 728.11,455.92C728.11,455.28 728.12,454.65 728.12,454.01C728.12,453.38 728.12,452.74 728.12,452.11C728.12,451.47 728.12,450.84 728.12,450.2C728.12,449.56 728.12,448.93 728.12,448.29C728.12,447.66 728.11,447.02 728.11,446.39C728.11,445.75 728.11,445.12 728.11,444.48C728.11,443.84 728.11,443.21 728.11,442.57C728.11,441.93 728.11,441.3 728.11,440.66C728.11,440.03 728.12,439.39 728.12,438.76C728.12,438.12 728.13,437.49 728.13,436.85C728.13,436.21 728.14,435.58 728.14,434.94C728.14,434.3 728.15,433.67 728.15,433.03C728.15,432.4 728.15,431.76 728.15,431.13C728.15,430.49 728.15,429.86 728.15,429.22C728.15,428.58 728.15,427.95 728.15,427.31C728.15,426.68 728.14,426.04 728.14,425.41C728.14,424.77 728.13,424.14 728.13,423.5C728.13,422.86 728.12,422.23 728.12,421.59C728.12,420.95 728.11,420.32 728.11,419.68C728.11,419.05 728.11,418.41 728.11,417.78C728.11,417.14 728.11,416.51 728.11,415.87C728.11,415.23 728.12,414.6 728.12,413.96C728.12,413.33 728.13,412.69 728.13,412.06C728.13,411.42 728.14,410.79 728.14,410.15C728.14,409.51 728.14,408.88 728.14,408.24C728.14,407.6 728.14,406.97 728.14,406.33C728.14,405.7 728.14,405.06 728.14,404.43C728.14,403.79 728.13,403.16 728.13,402.52C728.12,401.88 728.12,401.25 728.11,400.61C728.11,399.97 728.1,399.34 728.1,398.7C728.1,398.07 728.09,397.43 728.09,396.8C728.09,396.16 728.08,395.53 728.08,394.89C728.08,394.25 728.08,393.62 728.08,392.98C728.08,392.35 728.08,391.71 728.08,391.08C728.08,390.44 728.08,389.81 728.08,389.17C728.08,388.53 728.09,387.9 728.09,387.26C728.1,386.62 728.1,385.99 728.11,385.35C728.12,384.72 728.12,384.08 728.13,383.45C728.14,382.81 728.14,382.18 728.15,381.54C728.16,380.9 728.17,380.27 728.18,379.63C728.19,379 728.19,378.36 728.19,377.73C728.2,377.09 728.21,376.46 728.21,375.82C728.21,375.18 728.21,374.55 728.21,373.91C728.21,373.27 728.21,372.64 728.21,372C728.21,371.37 728.2,370.73 728.2,370.1C728.19,369.46 728.19,368.83 728.18,368.19C728.18,367.55 728.17,366.92 728.17,366.28C728.17,365.64 728.16,365.01 728.16,364.37C728.16,363.74 728.15,363.1 728.15,362.47C728.15,361.83 728.15,361.2 728.15,360.56C728.15,359.92 728.16,359.29 728.16,358.65C728.16,358.02 728.17,357.38 728.17,356.75C728.17,356.11 728.18,355.48 728.18,354.84C728.19,354.2 728.19,353.57 728.2,352.93C728.2,352.29 728.21,351.66 728.21,351.02C728.21,350.39 728.22,349.75 728.22,349.12C728.22,348.48 728.23,347.85 728.23,347.21C728.23,346.57 728.23,345.94 728.23,345.3C728.23,344.67 728.23,344.03 728.23,343.4C728.23,342.76 728.23,342.13 728.23,341.49C728.23,340.85 728.23,340.22 728.23,339.58C728.23,338.94 728.23,338.31 728.23,337.67C728.23,337.04 728.23,336.4 728.23,335.77C728.23,335.13 728.24,334.5 728.24,333.86C728.24,333.22 728.24,332.59 728.24,331.95C728.24,331.31 728.25,330.68 728.26,330.04C728.26,329.41 728.27,328.77 728.27,328.14C728.27,327.5 728.28,326.87 728.28,326.23C728.28,325.59 728.29,324.96 728.29,324.32C728.29,323.69 728.29,323.05 728.29,322.42C728.29,321.78 728.28,321.15 728.28,320.51C728.28,319.87 728.27,319.24 728.27,318.6C728.27,317.96 728.27,317.33 728.27,316.69C728.27,316.06 728.26,315.42 728.26,314.79C728.26,314.15 728.27,313.52 728.27,312.88C728.27,312.24 728.27,311.61 728.27,310.97C728.27,310.34 728.28,309.7 728.29,309.07C728.3,308.43 728.3,307.8 728.31,307.16C728.32,306.52 728.33,305.89 728.34,305.25C728.35,304.61 728.36,303.98 728.37,303.34C728.38,302.71 728.39,302.07 728.4,301.44C728.41,300.8 728.42,300.17 728.43,299.53C728.44,298.89 728.44,298.26 728.45,297.62C728.45,296.98 728.46,296.35 728.46,295.71C728.46,295.08 728.47,294.44 728.47,293.81C728.47,293.17 728.48,292.54 728.48,291.9C728.48,291.26 728.49,290.63 728.49,289.99C728.49,289.36 728.49,288.72 728.49,288.09C728.49,287.45 728.5,286.82 728.5,286.18C728.5,285.54 728.51,284.91 728.51,284.27C728.51,283.63 728.51,283 728.51,282.36C728.51,281.73 728.53,281.09 728.53,280.46C728.54,279.82 728.54,279.19 728.54,278.55C728.55,277.91 728.55,277.28 728.56,276.64C728.57,276.01 728.57,275.37 728.58,274.74C728.59,274.1 728.59,273.47 728.6,272.83C728.6,272.19 728.61,271.56 728.61,270.92C728.61,270.28 728.62,269.65 728.62,269.01C728.62,268.38 728.63,267.74 728.63,267.11C728.63,266.47 728.64,265.84 728.64,265.2C728.64,264.56 728.65,263.93 728.65,263.29C728.65,262.65 728.66,262.02 728.66,261.38C728.66,260.75 728.67,260.11 728.67,259.48C728.68,258.84 728.68,258.21 728.69,257.57C728.7,256.93 728.71,256.3 728.72,255.66C728.73,255.03 728.74,254.39 728.75,253.76C728.76,253.12 728.77,252.49 728.78,251.85C728.79,251.21 728.8,250.58 728.81,249.94C728.82,249.3 728.83,248.67 728.84,248.03C728.85,247.4 728.85,246.76 728.86,246.13C728.87,245.49 728.87,244.86 728.88,244.22C728.89,243.58 728.89,242.95 728.9,242.31C728.91,241.68 728.91,241.04 728.92,240.41C728.93,239.77 728.94,239.14 728.95,238.5C728.96,237.86 728.97,237.23 728.98,236.59C728.99,235.95 729.01,235.32 729.02,234.68C729.03,234.05 729.05,233.41 729.06,232.78C729.07,232.14 729.09,231.51 729.1,230.87C729.12,230.23 729.13,229.6 729.15,228.96C729.16,228.32 729.18,227.69 729.19,227.05C729.2,226.42 729.22,225.78 729.23,225.15C729.24,224.51 729.25,223.88 729.26,223.24C729.27,222.6 729.27,221.97 729.28,221.33C729.29,220.7 729.3,220.06 729.3,219.43C729.31,218.79 729.31,218.16 729.31,217.52C729.31,216.88 729.32,216.25 729.32,215.61C729.33,214.97 729.33,214.34 729.34,213.7C729.35,213.07 729.36,212.43 729.37,211.8C729.38,211.16 729.39,210.53 729.41,209.89C729.43,209.25 729.45,208.62 729.47,207.98C729.49,207.35 729.52,206.71 729.54,206.08C729.56,205.44 729.59,204.81 729.61,204.17C729.64,203.53 729.67,202.9 729.69,202.26C729.71,201.62 729.73,200.99 729.75,200.35C729.77,199.72 729.79,199.08 729.81,198.45C729.83,197.81 729.84,197.18 729.85,196.54C729.86,195.9 729.88,195.27 729.89,194.63C729.9,193.99 729.91,193.36 729.92,192.72C729.93,192.09 729.94,191.45 729.95,190.82C729.96,190.18 729.98,189.55 729.99,188.91C730.01,188.27 730.02,187.64 730.04,187C730.06,186.37 730.08,185.73 730.1,185.1C730.12,184.46 730.13,183.83 730.15,183.19C730.17,182.55 730.19,181.92 730.21,181.28C730.23,180.64 730.24,180.01 730.25,179.37C730.26,178.74 730.28,178.1 730.29,177.47C730.3,176.83 730.31,176.2 730.32,175.56C730.33,174.92 730.35,174.29 730.36,173.65C730.37,173.02 730.38,172.38 730.39,171.75C730.4,171.11 730.41,170.48 730.42,169.84C730.43,169.2 730.43,168.57 730.44,167.93C730.45,167.29 730.45,166.66 730.46,166.02C730.46,165.39 730.47,164.75 730.47,164.12C730.48,163.48 730.48,162.85 730.49,162.21C730.5,161.57 730.51,160.94 730.52,160.3C730.53,159.66 730.55,159.03 730.56,158.39C730.57,157.76 730.59,157.12 730.6,156.49C730.61,155.85 730.63,155.22 730.64,154.58C730.65,153.94 730.66,153.31 730.66,152.67C730.66,152.04 730.66,151.4 730.66,150.77C730.66,150.13 730.65,149.5 730.64,148.86C730.63,148.22 730.61,147.59 730.6,146.95C730.59,146.31 730.58,145.68 730.57,145.04C730.56,144.41 730.56,143.77 730.56,143.14C730.56,142.5 730.55,141.87 730.55,141.23C730.55,140.59 730.56,139.96 730.56,139.32C730.56,138.69 730.56,138.05 730.56,137.42C730.56,136.78 730.56,136.15 730.55,135.51C730.54,134.87 730.53,134.24 730.51,133.6C730.49,132.96 730.47,132.33 730.45,131.69C730.43,131.06 730.4,130.42 730.38,129.79C730.36,129.15 730.33,128.52 730.31,127.88C730.29,127.24 730.27,126.61 730.25,125.97C730.24,125.33 730.22,124.7 730.22,124.06C730.22,123.43 730.23,122.79 730.23,122.16C730.24,121.52 730.24,120.89 730.25,120.25C730.26,119.61 730.28,118.98 730.3,118.34C730.32,117.71 730.33,117.07 730.35,116.44C730.37,115.8 730.39,115.17 730.4,114.53C730.41,113.89 730.42,113.26 730.43,112.62C730.44,111.98 730.44,111.35 730.45,110.71C730.45,110.08 730.46,109.44 730.46,108.81C730.46,108.17 730.45,107.54 730.45,106.9C730.45,106.26 730.45,105.63 730.45,104.99C730.45,104.36 730.46,103.72 730.46,103.09C730.47,102.45 730.47,101.82 730.48,101.18C730.49,100.54 730.51,99.91 730.53,99.27C730.55,98.63 730.57,98 730.59,97.36C730.61,96.73 730.64,96.09 730.67,95.46C730.7,94.82 730.72,94.19 730.75,93.55C730.77,92.91 730.8,92.28 730.82,91.64C730.84,91 730.86,90.37 730.88,89.73C730.9,89.1 730.92,88.46 730.94,87.83C730.96,87.19 730.97,86.56 730.99,85.92C731.01,85.28 731.03,84.65 731.05,84.01C731.07,83.38 731.09,82.74 731.11,82.11C731.13,81.47 731.16,80.84 731.19,80.2C731.22,79.56 731.24,78.93 731.27,78.29C731.3,77.65 731.33,77.02 731.36,76.38C731.39,75.75 731.42,75.11 731.45,74.48C731.48,73.84 731.52,73.21 731.55,72.57C731.59,71.93 731.62,71.3 731.66,70.66C731.7,70.03 731.75,69.39 731.8,68.76C731.86,68.12 731.92,67.49 731.99,66.85C732.06,66.21 732.14,65.58 732.23,64.94C732.32,64.3 732.42,63.66 732.54,63.03C732.66,62.39 732.78,61.76 732.93,61.13C733.08,60.49 733.23,59.85 733.42,59.22C733.61,58.58 733.81,57.94 734.06,57.31C734.31,56.67 734.59,56.02 734.93,55.4C735.28,54.75 735.68,54.11 736.16,53.5C736.67,52.84 737.25,52.2 737.91,51.59C738.62,50.92 739.43,50.29 740.31,49.68C741.27,49.01 742.34,48.39 743.46,47.78C744.69,47.12 746.01,46.48 747.4,45.87C748.91,45.21 750.5,44.57 752.18,43.96C754.01,43.29 755.94,42.66 758,42.05C760.28,41.38 762.7,40.75 765.28,40.15C768.18,39.47 771.3,38.85 774.56,38.24C778.18,37.57 782.1,36.95 786.04,36.33C790.21,35.68 794.7,35.08 798.92,34.43C803.01,33.8 807.38,33.23 810.97,32.52C813.92,31.93 817.65,31.65 818.95,30.61Q819.61,30.08 819.88,28.7L728,28.7" style="vector-effect: non-scaling-stroke; stroke-width: 2px; stroke: rgb(0, 128, 0); stroke-opacity: 1; fill: rgb(0, 128, 0); fill-opacity: 0.5;"/><path class="meanline" d="M732.9866333007812,60.89H728" style="fill: none; vector-effect: non-scaling-stroke; stroke-width: 3px; stroke-dasharray: 6px, 3px; stroke: rgb(255, 255, 255); stroke-opacity: 1;"/></g><g class="trace violins" style="opacity: 1;"><path class="violin" d="M936,28.7L846.09,28.7Q843.52,37.3 844.12,41.46C844.75,45.81 847.38,50.18 850.14,54.22C853.23,58.73 857.86,62.84 862.23,66.98C866.86,71.36 872.27,75.48 877.29,79.73C882.3,83.98 887.57,88.15 892.32,92.49C896.88,96.66 901.36,100.87 905.26,105.25C908.94,109.38 912.33,113.63 915.21,118C917.94,122.15 920.27,126.43 922.22,130.76C924.1,134.94 925.56,139.23 926.79,143.52C928,147.73 928.85,152.01 929.58,156.28C930.3,160.51 930.76,164.77 931.14,169.03C931.52,173.28 931.74,177.53 931.88,181.79C932.02,186.04 932.06,190.3 932,194.55C931.94,198.8 931.8,203.05 931.54,207.3C931.28,211.56 930.94,215.81 930.45,220.06C929.95,224.32 929.35,228.58 928.57,232.82C927.79,237.09 926.86,241.35 925.75,245.58C924.63,249.85 923.33,254.11 921.87,258.33C920.39,262.61 918.71,266.86 916.93,271.09C915.13,275.37 913.13,279.61 911.12,283.85C909.09,288.12 906.9,292.35 904.81,296.6C902.72,300.85 900.54,305.09 898.56,309.36C896.6,313.59 894.64,317.83 892.98,322.12C891.35,326.34 889.83,330.59 888.67,334.88C887.53,339.1 886.61,343.36 886.03,347.63C885.46,351.86 885.2,356.14 885.2,360.39C885.2,364.64 885.53,368.91 886.01,373.15C886.5,377.42 887.29,381.67 888.11,385.91C888.94,390.17 889.97,394.41 890.96,398.66C891.95,402.92 893.05,407.16 894.05,411.42C895.05,415.67 896.05,419.92 896.96,424.18C897.86,428.42 898.71,432.67 899.49,436.93C900.27,441.18 900.96,445.43 901.64,449.69C902.32,453.94 902.93,458.2 903.59,462.45C904.25,466.7 904.87,470.96 905.58,475.21C906.29,479.46 907.03,483.72 907.85,487.96C908.68,492.22 909.58,496.47 910.54,500.72C911.5,504.98 912.55,509.23 913.63,513.48C914.71,517.74 915.88,521.98 917.01,526.23C918.15,530.48 919.33,534.73 920.44,538.99C921.54,543.24 922.64,547.49 923.64,551.75C924.63,556 925.58,560.25 926.41,564.51C927.24,568.75 927.97,573 928.63,577.26C929.28,581.51 929.84,585.76 930.34,590.02Q930.84,594.27 931.65,602.78L936,602.78" style="vector-effect: non-scaling-stroke; stroke-width: 2px; stroke: rgb(0, 0, 255); stroke-opacity: 1; fill: rgb(0, 0, 255); fill-opacity: 0.5;"/><path class="meanline" d="M929.3821411132812,228H936" style="fill: none; vector-effect: non-scaling-stroke; stroke-width: 3px; stroke-dasharray: 6px, 3px; stroke: rgb(255, 255, 255); stroke-opacity: 1;"/></g><g class="trace violins" style="opacity: 1;"><path class="violin" d="M936,602.78L936.11,602.78Q936.1,601.51 936.1,600.87C936.1,600.23 936.1,599.6 936.09,598.96C936.09,598.33 936.08,597.69 936.07,597.06C936.06,596.42 936.06,595.79 936.05,595.15C936.04,594.51 936.04,593.88 936.03,593.24C936.03,592.6 936.02,591.97 936.02,591.33C936.02,590.7 936.02,590.06 936.02,589.43C936.02,588.79 936.01,588.16 936.01,587.52C936.01,586.88 936.01,586.25 936.01,585.61C936.01,584.98 936.02,584.34 936.02,583.71C936.02,583.07 936.02,582.44 936.02,581.8C936.02,581.16 936.02,580.53 936.02,579.89C936.02,579.25 936.03,578.62 936.03,577.98C936.03,577.35 936.03,576.71 936.03,576.08C936.03,575.44 936.03,574.81 936.03,574.17C936.03,573.53 936.03,572.9 936.03,572.26C936.03,571.62 936.03,570.99 936.03,570.35C936.03,569.72 936.03,569.08 936.03,568.45C936.03,567.81 936.02,567.18 936.02,566.54C936.02,565.9 936.02,565.27 936.02,564.63C936.02,564 936.03,563.36 936.03,562.73C936.03,562.09 936.04,561.46 936.04,560.82C936.04,560.18 936.05,559.55 936.05,558.91C936.05,558.27 936.05,557.64 936.06,557C936.06,556.37 936.08,555.73 936.08,555.1C936.09,554.46 936.09,553.83 936.09,553.19C936.09,552.55 936.1,551.92 936.1,551.28C936.1,550.65 936.11,550.01 936.11,549.38C936.11,548.74 936.12,548.11 936.12,547.47C936.12,546.83 936.13,546.2 936.13,545.56C936.13,544.92 936.13,544.29 936.14,543.65C936.14,543.02 936.15,542.38 936.16,541.75C936.17,541.11 936.17,540.48 936.18,539.84C936.19,539.2 936.19,538.57 936.2,537.93C936.21,537.29 936.21,536.66 936.22,536.02C936.23,535.39 936.24,534.75 936.24,534.12C936.25,533.48 936.25,532.85 936.25,532.21C936.25,531.57 936.26,530.94 936.26,530.3C936.26,529.67 936.26,529.03 936.26,528.4C936.26,527.76 936.26,527.13 936.26,526.49C936.26,525.85 936.26,525.22 936.26,524.58C936.26,523.94 936.26,523.31 936.26,522.67C936.26,522.04 936.27,521.4 936.27,520.77C936.27,520.13 936.28,519.5 936.28,518.86C936.29,518.22 936.29,517.59 936.3,516.95C936.31,516.32 936.31,515.68 936.32,515.05C936.33,514.41 936.33,513.78 936.34,513.14C936.34,512.5 936.35,511.87 936.35,511.23C936.35,510.59 936.36,509.96 936.36,509.32C936.36,508.69 936.37,508.05 936.37,507.42C936.37,506.78 936.38,506.15 936.38,505.51C936.38,504.87 936.39,504.24 936.39,503.6C936.4,502.96 936.4,502.33 936.41,501.69C936.42,501.06 936.42,500.42 936.43,499.79C936.44,499.15 936.44,498.52 936.45,497.88C936.46,497.24 936.47,496.61 936.48,495.97C936.49,495.34 936.5,494.7 936.5,494.07C936.51,493.43 936.51,492.8 936.51,492.16C936.51,491.52 936.52,490.89 936.52,490.25C936.52,489.61 936.52,488.98 936.52,488.34C936.52,487.71 936.52,487.07 936.52,486.44C936.52,485.8 936.52,485.17 936.52,484.53C936.52,483.89 936.52,483.26 936.52,482.62C936.52,481.99 936.52,481.35 936.52,480.72C936.52,480.08 936.53,479.45 936.53,478.81C936.54,478.17 936.54,477.54 936.55,476.9C936.55,476.26 936.55,475.63 936.56,474.99C936.57,474.36 936.58,473.72 936.59,473.09C936.6,472.45 936.61,471.82 936.62,471.18C936.63,470.54 936.65,469.91 936.66,469.27C936.68,468.63 936.69,468 936.71,467.36C936.73,466.73 936.74,466.09 936.76,465.46C936.78,464.82 936.79,464.19 936.81,463.55C936.82,462.91 936.84,462.28 936.85,461.64C936.86,461.01 936.88,460.37 936.89,459.74C936.9,459.1 936.9,458.47 936.91,457.83C936.92,457.19 936.92,456.56 936.93,455.92C936.93,455.28 936.94,454.65 936.94,454.01C936.94,453.38 936.95,452.74 936.95,452.11C936.95,451.47 936.96,450.84 936.96,450.2C936.97,449.56 936.97,448.93 936.98,448.29C936.99,447.66 936.99,447.02 937,446.39C937.01,445.75 937.01,445.12 937.02,444.48C937.03,443.84 937.05,443.21 937.06,442.57C937.07,441.93 937.08,441.3 937.1,440.66C937.11,440.03 937.13,439.39 937.15,438.76C937.17,438.12 937.19,437.49 937.21,436.85C937.23,436.21 937.26,435.58 937.28,434.94C937.3,434.3 937.33,433.67 937.35,433.03C937.37,432.4 937.4,431.76 937.42,431.13C937.44,430.49 937.46,429.86 937.48,429.22C937.5,428.58 937.53,427.95 937.55,427.31C937.57,426.68 937.59,426.04 937.61,425.41C937.63,424.77 937.66,424.14 937.69,423.5C937.71,422.86 937.74,422.23 937.76,421.59C937.79,420.95 937.81,420.32 937.84,419.68C937.87,419.05 937.89,418.41 937.92,417.78C937.95,417.14 937.98,416.51 938.01,415.87C938.04,415.23 938.07,414.6 938.1,413.96C938.13,413.33 938.17,412.69 938.21,412.06C938.25,411.42 938.29,410.79 938.33,410.15C938.37,409.51 938.41,408.88 938.45,408.24C938.49,407.6 938.52,406.97 938.55,406.33C938.58,405.7 938.6,405.06 938.62,404.43C938.64,403.79 938.66,403.16 938.67,402.52C938.68,401.88 938.69,401.25 938.7,400.61C938.71,399.97 938.71,399.34 938.72,398.7C938.73,398.07 938.74,397.43 938.75,396.8C938.76,396.16 938.76,395.53 938.77,394.89C938.78,394.25 938.79,393.62 938.8,392.98C938.81,392.35 938.81,391.71 938.82,391.08C938.83,390.44 938.83,389.81 938.84,389.17C938.85,388.53 938.85,387.9 938.86,387.26C938.87,386.62 938.88,385.99 938.89,385.35C938.9,384.72 938.91,384.08 938.92,383.45C938.93,382.81 938.95,382.18 938.97,381.54C938.98,380.9 938.99,380.27 939.01,379.63C939.02,379 939.05,378.36 939.06,377.73C939.08,377.09 939.09,376.46 939.1,375.82C939.12,375.18 939.13,374.55 939.15,373.91C939.16,373.27 939.18,372.64 939.19,372C939.2,371.37 939.21,370.73 939.22,370.1C939.23,369.46 939.25,368.83 939.26,368.19C939.27,367.55 939.29,366.92 939.3,366.28C939.31,365.64 939.32,365.01 939.33,364.37C939.34,363.74 939.35,363.1 939.35,362.47C939.36,361.83 939.36,361.2 939.36,360.56C939.36,359.92 939.36,359.29 939.36,358.65C939.36,358.02 939.36,357.38 939.36,356.75C939.36,356.11 939.36,355.48 939.36,354.84C939.36,354.2 939.36,353.57 939.36,352.93C939.36,352.29 939.37,351.66 939.37,351.02C939.37,350.39 939.36,349.75 939.36,349.12C939.35,348.48 939.35,347.85 939.34,347.21C939.33,346.57 939.32,345.94 939.3,345.3C939.29,344.67 939.27,344.03 939.25,343.4C939.23,342.76 939.21,342.13 939.19,341.49C939.17,340.85 939.16,340.22 939.14,339.58C939.13,338.94 939.11,338.31 939.1,337.67C939.09,337.04 939.09,336.4 939.08,335.77C939.07,335.13 939.07,334.5 939.06,333.86C939.05,333.22 939.05,332.59 939.04,331.95C939.03,331.31 939.02,330.68 939.01,330.04C939,329.41 938.98,328.77 938.96,328.14C938.94,327.5 938.92,326.87 938.89,326.23C938.86,325.59 938.83,324.96 938.79,324.32C938.75,323.69 938.71,323.05 938.67,322.42C938.63,321.78 938.58,321.15 938.54,320.51C938.5,319.87 938.45,319.24 938.41,318.6C938.37,317.96 938.33,317.33 938.29,316.69C938.25,316.06 938.21,315.42 938.18,314.79C938.15,314.15 938.12,313.52 938.09,312.88C938.06,312.24 938.03,311.61 938,310.97C937.97,310.34 937.95,309.7 937.92,309.07C937.89,308.43 937.86,307.8 937.83,307.16C937.8,306.52 937.76,305.89 937.72,305.25C937.68,304.61 937.65,303.98 937.61,303.34C937.57,302.71 937.54,302.07 937.5,301.44C937.46,300.8 937.42,300.17 937.39,299.53C937.36,298.89 937.33,298.26 937.3,297.62C937.27,296.98 937.24,296.35 937.22,295.71C937.2,295.08 937.18,294.44 937.16,293.81C937.14,293.17 937.13,292.54 937.11,291.9C937.09,291.26 937.08,290.63 937.06,289.99C937.04,289.36 937.03,288.72 937.01,288.09C936.99,287.45 936.97,286.82 936.95,286.18C936.93,285.54 936.91,284.91 936.89,284.27C936.87,283.63 936.85,283 936.83,282.36C936.81,281.73 936.79,281.09 936.77,280.46C936.75,279.82 936.74,279.19 936.72,278.55C936.71,277.91 936.69,277.28 936.68,276.64C936.67,276.01 936.65,275.37 936.64,274.74C936.63,274.1 936.62,273.47 936.61,272.83C936.6,272.19 936.59,271.56 936.58,270.92C936.57,270.28 936.56,269.65 936.55,269.01C936.54,268.38 936.53,267.74 936.52,267.11C936.51,266.47 936.5,265.84 936.49,265.2C936.48,264.56 936.46,263.93 936.45,263.29C936.44,262.65 936.43,262.02 936.42,261.38C936.41,260.75 936.4,260.11 936.39,259.48C936.38,258.84 936.37,258.21 936.36,257.57C936.35,256.93 936.34,256.3 936.33,255.66C936.32,255.03 936.32,254.39 936.31,253.76C936.3,253.12 936.29,252.49 936.28,251.85C936.27,251.21 936.27,250.58 936.26,249.94C936.25,249.3 936.25,248.67 936.24,248.03C936.23,247.4 936.22,246.76 936.22,246.13C936.21,245.49 936.21,244.86 936.21,244.22C936.21,243.58 936.2,242.95 936.2,242.31C936.2,241.68 936.19,241.04 936.19,240.41C936.19,239.77 936.2,239.14 936.2,238.5C936.2,237.86 936.2,237.23 936.2,236.59C936.2,235.95 936.21,235.32 936.21,234.68C936.21,234.05 936.21,233.41 936.21,232.78C936.21,232.14 936.21,231.51 936.21,230.87C936.21,230.23 936.2,229.6 936.2,228.96C936.2,228.32 936.2,227.69 936.2,227.05C936.2,226.42 936.19,225.78 936.19,225.15C936.19,224.51 936.18,223.88 936.18,223.24C936.18,222.6 936.17,221.97 936.17,221.33C936.17,220.7 936.16,220.06 936.16,219.43C936.16,218.79 936.15,218.16 936.15,217.52C936.15,216.88 936.14,216.25 936.14,215.61C936.14,214.97 936.14,214.34 936.14,213.7C936.14,213.07 936.14,212.43 936.14,211.8C936.14,211.16 936.13,210.53 936.13,209.89C936.13,209.25 936.13,208.62 936.13,207.98C936.13,207.35 936.13,206.71 936.13,206.08C936.13,205.44 936.12,204.81 936.12,204.17C936.12,203.53 936.11,202.9 936.11,202.26C936.11,201.62 936.1,200.99 936.1,200.35C936.1,199.72 936.1,199.08 936.1,198.45C936.1,197.81 936.1,197.18 936.1,196.54C936.1,195.9 936.1,195.27 936.1,194.63C936.1,193.99 936.11,193.36 936.11,192.72C936.11,192.09 936.12,191.45 936.12,190.82C936.12,190.18 936.13,189.55 936.13,188.91C936.13,188.27 936.14,187.64 936.14,187C936.14,186.37 936.14,185.73 936.14,185.1C936.14,184.46 936.15,183.83 936.15,183.19C936.15,182.55 936.16,181.92 936.16,181.28C936.17,180.64 936.17,180.01 936.18,179.37C936.19,178.74 936.19,178.1 936.2,177.47C936.21,176.83 936.21,176.2 936.22,175.56C936.23,174.92 936.23,174.29 936.24,173.65C936.24,173.02 936.25,172.38 936.25,171.75C936.26,171.11 936.26,170.48 936.27,169.84C936.27,169.2 936.28,168.57 936.28,167.93C936.28,167.29 936.29,166.66 936.29,166.02C936.29,165.39 936.3,164.75 936.3,164.12C936.3,163.48 936.31,162.85 936.31,162.21C936.31,161.57 936.32,160.94 936.32,160.3C936.32,159.66 936.33,159.03 936.33,158.39C936.33,157.76 936.34,157.12 936.34,156.49C936.34,155.85 936.34,155.22 936.34,154.58C936.34,153.94 936.34,153.31 936.34,152.67C936.34,152.04 936.35,151.4 936.35,150.77C936.35,150.13 936.35,149.5 936.35,148.86C936.35,148.22 936.36,147.59 936.36,146.95C936.36,146.31 936.36,145.68 936.36,145.04C936.36,144.41 936.37,143.77 936.37,143.14C936.37,142.5 936.38,141.87 936.38,141.23C936.38,140.59 936.39,139.96 936.39,139.32C936.39,138.69 936.4,138.05 936.4,137.42C936.4,136.78 936.39,136.15 936.39,135.51C936.39,134.87 936.38,134.24 936.38,133.6C936.38,132.96 936.37,132.33 936.37,131.69C936.37,131.06 936.36,130.42 936.36,129.79C936.36,129.15 936.35,128.52 936.35,127.88C936.35,127.24 936.35,126.61 936.35,125.97C936.35,125.33 936.35,124.7 936.36,124.06C936.37,123.43 936.38,122.79 936.39,122.16C936.4,121.52 936.41,120.89 936.42,120.25C936.43,119.61 936.44,118.98 936.45,118.34C936.46,117.71 936.47,117.07 936.48,116.44C936.49,115.8 936.5,115.17 936.51,114.53C936.52,113.89 936.52,113.26 936.53,112.62C936.54,111.98 936.54,111.35 936.55,110.71C936.56,110.08 936.57,109.44 936.58,108.81C936.59,108.17 936.6,107.54 936.61,106.9C936.62,106.26 936.64,105.63 936.65,104.99C936.66,104.36 936.68,103.72 936.69,103.09C936.7,102.45 936.72,101.82 936.73,101.18C936.74,100.54 936.75,99.91 936.75,99.27C936.75,98.63 936.75,98 936.75,97.36C936.75,96.73 936.75,96.09 936.75,95.46C936.75,94.82 936.76,94.19 936.76,93.55C936.76,92.91 936.77,92.28 936.77,91.64C936.78,91 936.78,90.37 936.79,89.73C936.8,89.1 936.82,88.46 936.83,87.83C936.85,87.19 936.86,86.56 936.88,85.92C936.9,85.28 936.92,84.65 936.94,84.01C936.96,83.38 936.99,82.74 937.01,82.11C937.04,81.47 937.06,80.84 937.09,80.2C937.12,79.56 937.16,78.93 937.19,78.29C937.22,77.65 937.25,77.02 937.29,76.38C937.33,75.75 937.37,75.11 937.41,74.48C937.46,73.84 937.51,73.21 937.56,72.57C937.61,71.93 937.66,71.3 937.72,70.66C937.78,70.03 937.85,69.39 937.92,68.76C937.99,68.12 938.07,67.49 938.15,66.85C938.23,66.21 938.33,65.58 938.42,64.94C938.52,64.3 938.61,63.67 938.72,63.03C938.83,62.4 938.94,61.76 939.06,61.13C939.18,60.49 939.31,59.86 939.45,59.22C939.59,58.58 939.74,57.94 939.92,57.31C940.1,56.67 940.28,56.03 940.51,55.4C940.75,54.76 941.01,54.12 941.33,53.5C941.67,52.85 942.05,52.21 942.51,51.59C943,50.93 943.57,50.29 944.22,49.68C944.93,49.01 945.74,48.39 946.62,47.78C947.6,47.11 948.69,46.48 949.87,45.87C951.18,45.19 952.62,44.56 954.16,43.96C955.9,43.28 957.78,42.65 959.81,42.05C962.13,41.37 964.65,40.75 967.34,40.15C970.42,39.47 973.78,38.85 977.29,38.24C981.21,37.56 985.5,36.95 989.79,36.33C994.35,35.68 999.26,35.07 1003.89,34.43C1008.38,33.8 1013.18,33.23 1017.17,32.52C1020.48,31.93 1024.46,31.62 1026.2,30.61Q1027.11,30.08 1027.88,28.7L936,28.7" style="vector-effect: non-scaling-stroke; stroke-width: 2px; stroke: rgb(0, 128, 0); stroke-opacity: 1; fill: rgb(0, 128, 0); fill-opacity: 0.5;"/><path class="meanline" d="M936.6032104492188,107.33H936" style="fill: none; vector-effect: non-scaling-stroke; stroke-width: 3px; stroke-dasharray: 6px, 3px; stroke: rgb(255, 255, 255); stroke-opacity: 1;"/></g></g><g class="scatterlayer mlayer"><g class="trace scatter traceb64272" style="stroke-miterlimit: 2; opacity: 1;"><g class="fills"/><g class="errorbars"/><g class="lines"/><g class="points"/><g class="text"><g class="textpoint" transform="translate(0,13.5)"><text x="104" y="6.03" text-anchor="middle" style="font-family: verdana; font-size: 18px; fill: rgb(0, 0, 0); fill-opacity: 1; white-space: pre;">0.901|0.920</text></g><g class="textpoint" transform="translate(0,13.5)"><text x="312" y="6.03" text-anchor="middle" style="font-family: verdana; font-size: 18px; fill: rgb(0, 0, 0); fill-opacity: 1; white-space: pre;">0.887|0.975</text></g><g class="textpoint" transform="translate(0,13.5)"><text x="520" y="6.03" text-anchor="middle" style="font-family: verdana; font-size: 18px; fill: rgb(0, 0, 0); fill-opacity: 1; white-space: pre;">0.873|0.971</text></g><g class="textpoint" transform="translate(0,13.5)"><text x="728" y="6.03" text-anchor="middle" style="font-family: verdana; font-size: 18px; fill: rgb(0, 0, 0); fill-opacity: 1; white-space: pre;">0.827|0.944</text></g><g class="textpoint" transform="translate(0,13.5)"><text x="936" y="6.03" text-anchor="middle" style="font-family: verdana; font-size: 18px; fill: rgb(0, 0, 0); fill-opacity: 1; white-space: pre;">0.653|0.863</text></g></g></g></g></g><g class="overplot"/><path class="xlines-above crisp" d="M0,0" style="fill: none;"/><path class="ylines-above crisp" d="M0,0" style="fill: none;"/><g class="overlines-above"/><g class="xaxislayer-above"><g class="xtick"><text text-anchor="middle" x="0" y="739" transform="translate(184,0)" style="font-family: verdana; font-size: 18px; fill: rgb(0, 0, 0); fill-opacity: 1; white-space: pre; opacity: 1;">Attn-Conv-1.4M*</text></g><g class="xtick"><text text-anchor="middle" x="0" y="739" transform="translate(392,0)" style="font-family: verdana; font-size: 18px; fill: rgb(0, 0, 0); fill-opacity: 1; white-space: pre; opacity: 1;">Attn-Conv-1.4M</text></g><g class="xtick"><text text-anchor="middle" x="0" y="739" transform="translate(600,0)" style="font-family: verdana; font-size: 18px; fill: rgb(0, 0, 0); fill-opacity: 1; white-space: pre; opacity: 1;">LSTM-Conv-960K</text></g><g class="xtick"><text text-anchor="middle" x="0" y="739" transform="translate(808,0)" style="font-family: verdana; font-size: 18px; fill: rgb(0, 0, 0); fill-opacity: 1; white-space: pre; opacity: 1;">LSTM-Conv-420K</text></g><g class="xtick"><text text-anchor="middle" x="0" y="739" transform="translate(1016,0)" style="font-family: verdana; font-size: 18px; fill: rgb(0, 0, 0); fill-opacity: 1; white-space: pre; opacity: 1;">LSTM-Conv-62K</text></g></g><g class="yaxislayer-above"><g class="ytick"><text text-anchor="end" x="79" y="6.3" transform="translate(0,702.78)" style="font-family: verdana; font-size: 18px; fill: rgb(0, 0, 0); fill-opacity: 1; white-space: pre; opacity: 1;">0</text></g><g class="ytick"><text text-anchor="end" x="79" y="6.3" style="font-family: verdana; font-size: 18px; fill: rgb(0, 0, 0); fill-opacity: 1; white-space: pre; opacity: 1;" transform="translate(0,587.96)">0.2</text></g><g class="ytick"><text text-anchor="end" x="79" y="6.3" style="font-family: verdana; font-size: 18px; fill: rgb(0, 0, 0); fill-opacity: 1; white-space: pre; opacity: 1;" transform="translate(0,473.15)">0.4</text></g><g class="ytick"><text text-anchor="end" x="79" y="6.3" style="font-family: verdana; font-size: 18px; fill: rgb(0, 0, 0); fill-opacity: 1; white-space: pre; opacity: 1;" transform="translate(0,358.33)">0.6</text></g><g class="ytick"><text text-anchor="end" x="79" y="6.3" style="font-family: verdana; font-size: 18px; fill: rgb(0, 0, 0); fill-opacity: 1; white-space: pre; opacity: 1;" transform="translate(0,243.52)">0.8</text></g><g class="ytick"><text text-anchor="end" x="79" y="6.3" style="font-family: verdana; font-size: 18px; fill: rgb(0, 0, 0); fill-opacity: 1; white-space: pre; opacity: 1;" transform="translate(0,128.7)">1</text></g></g><g class="overaxes-above"/></g></g><g class="polarlayer"/><g class="smithlayer"/><g class="ternarylayer"/><g class="geolayer"/><g class="funnelarealayer"/><g class="pielayer"/><g class="iciclelayer"/><g class="treemaplayer"/><g class="sunburstlayer"/><g class="glimages"/><defs id="topdefs-42e1ae"><g class="clips"/></defs><g class="layer-above"><g class="imagelayer"/><g class="shapelayer"/></g><g class="infolayer"><g class="g-gtitle"/><g class="g-xtitle"/><g class="g-ytitle" transform="translate(2.837890625,0)"><text class="ytitle" transform="rotate(-90,19.1625,410)" x="19.1625" y="410" text-anchor="middle" style="font-family: verdana; font-size: 22px; fill: rgb(0, 0, 0); opacity: 1; font-weight: normal; white-space: pre;">f1</text></g></g></svg>