<svg class="main-svg" xmlns="http://www.w3.org/2000/svg" xmlns:xlink="http://www.w3.org/1999/xlink" width="2400" height="1600" style="" viewBox="0 0 1200 800"><rect x="0" y="0" width="1200" height="800" style="fill: rgb(255, 255, 255); fill-opacity: 1;"/><defs id="defs-673b0e"><g class="clips"/><g class="gradients"/><g class="patterns"/></defs><g class="bglayer"/><g class="layer-below"><g class="imagelayer"/><g class="shapelayer"/></g><g class="cartesianlayer"/><g class="polarlayer"/><g class="smithlayer"/><g class="ternarylayer"/><g class="geolayer"/><g class="funnelarealayer"/><g class="pielayer"><g class="trace" stroke-linejoin="round" style="opacity: 1;"><g class="slice"><path class="surface" d="M516.1052066018176,317.41694411136257a128.31,128.31 0 1 0 83.89479339818236,-31.226944111362574l0,-177.19000000000003a305.5,305.5 0 1 1 -199.74950809091038,74.34986693181565Z" style="pointer-events: all; stroke-width: 0; fill: rgb(99, 110, 250); fill-opacity: 1; stroke: rgb(68, 68, 68); stroke-opacity: 1;"/><g class="slicetext"><text data-notex="1" class="slicetext" transform="translate(675.6639580634674,613.0768407496278)" text-anchor="middle" x="0" y="0" style="font-family: verdana; font-size: 18px; fill: rgb(255, 255, 255); fill-opacity: 1; white-space: pre;"><tspan class="line" dy="0em" x="0" y="0">RFAM</tspan><tspan class="line" dy="1.3em" x="0" y="0">88.7%</tspan></text></g></g><g class="slice"><path class="surface" d="M600,286.19a128.31,128.31 0 0 0 -49.892627993013775,10.097556611197925l-68.89934341892379,-163.2457551559648a305.5,305.5 0 0 1 118.79197141193757,-24.041801455233156Z" style="pointer-events: all; stroke-width: 0; fill: rgb(239, 85, 59); fill-opacity: 1; stroke: rgb(68, 68, 68); stroke-opacity: 1;"/><g class="slicetext"><text data-notex="1" class="slicetext" transform="translate(549.4308851487318,159.93186979543933)" text-anchor="middle" x="0" y="0" style="font-family: verdana; font-size: 18px; fill: rgb(68, 68, 68); fill-opacity: 1; white-space: pre;"><tspan class="line" dy="0em" x="0" y="0">CRW</tspan><tspan class="line" dy="1.3em" x="0" y="0">6.36%</tspan></text></g></g><g class="slice"><path class="surface" d="M550.1073720069862,296.28755661119794a128.31,128.31 0 0 0 -10.27474359981369,4.883967286762216l-83.08827505676174,-156.50122890281696a305.5,305.5 0 0 1 24.463675237651643,-11.628493539910039Z" style="pointer-events: all; stroke-width: 0; fill: rgb(0, 204, 150); fill-opacity: 1; stroke: rgb(68, 68, 68); stroke-opacity: 1;"/><g class="slicetext"><text data-notex="1" class="slicetext" transform="translate(427.37068686764803,22.576314650303175)" text-anchor="middle" x="0" y="0" style="font-family: verdana; font-size: 18px; fill: rgb(0, 0, 0); fill-opacity: 1; white-space: pre;"><tspan class="line" dy="0em" x="0" y="0">SRP</tspan><tspan class="line" dy="1.3em" x="0" y="0">1.41%</tspan></text></g><path class="textline" stroke-width="2" d="M468.84724936764803,138.5847847588537V27.279439650303175h-11.3515625" fill="none" style="stroke: rgb(0, 0, 0); stroke-opacity: 1;"/></g><g class="slice"><path class="surface" d="M539.8326284071725,301.1715238979601a128.31,128.31 0 0 0 -9.18698208250028,5.377423646412781l-95.77505983735738,-149.0752629149136a305.5,305.5 0 0 1 21.87376686309591,-12.803389634316147Z" style="pointer-events: all; stroke-width: 0; fill: rgb(171, 99, 250); fill-opacity: 1; stroke: rgb(68, 68, 68); stroke-opacity: 1;"/><g class="slicetext"><text data-notex="1" class="slicetext" transform="translate(402.18244831979007,67.98256465030317)" text-anchor="middle" x="0" y="0" style="font-family: verdana; font-size: 18px; fill: rgb(0, 0, 0); fill-opacity: 1; white-space: pre;"><tspan class="line" dy="0em" x="0" y="0">tmRNA</tspan><tspan class="line" dy="1.3em" x="0" y="0">1.32%</tspan></text></g><path class="textline" stroke-width="2" d="M445.67463581979007,150.8450513063607V72.68568965030317h-11.3515625" fill="none" style="stroke: rgb(0, 0, 0); stroke-opacity: 1;"/></g><g class="slice"><path class="surface" d="M530.6456463246723,306.54894754437294a128.31,128.31 0 0 0 -8.286414984285507,5.797407675108276l-107.21820433946594,-141.0693189826212a305.5,305.5 0 0 1 19.729559486394066,-13.803351607400657Z" style="pointer-events: all; stroke-width: 0; fill: rgb(255, 161, 90); fill-opacity: 1; stroke: rgb(68, 68, 68); stroke-opacity: 1;"/><g class="slicetext"><text data-notex="1" class="slicetext" transform="translate(383.3931979576057,113.38881465030317)" text-anchor="middle" x="0" y="0" style="font-family: verdana; font-size: 18px; fill: rgb(0, 0, 0); fill-opacity: 1; white-space: pre;"><tspan class="line" dy="0em" x="0" y="0">tRNA</tspan><tspan class="line" dy="1.3em" x="0" y="0">1.25%</tspan></text></g><path class="textline" stroke-width="2" d="M424.8697604576057,164.18090524727526V118.09193965030317h-11.3515625" fill="none" style="stroke: rgb(0, 0, 0); stroke-opacity: 1;"/></g><g class="slice"><path class="surface" d="M522.3592313403867,312.3463552194812a128.31,128.31 0 0 0 -6.254024738569067,5.070588891881351l-115.85471469272798,-134.06707717954697a305.5,305.5 0 0 1 14.890535091831111,-12.072830694955599Z" style="pointer-events: all; stroke-width: 0; fill: rgb(25, 211, 243); fill-opacity: 1; stroke: rgb(68, 68, 68); stroke-opacity: 1;"/><g class="slicetext"><text data-notex="1" class="slicetext" transform="translate(359.0619789741429,158.79506465030317)" text-anchor="middle" x="0" y="0" style="font-family: verdana; font-size: 18px; fill: rgb(0, 0, 0); fill-opacity: 1; white-space: pre;"><tspan class="line" dy="0em" x="0" y="0">RNase P</tspan><tspan class="line" dy="1.3em" x="0" y="0">0.999%</tspan></text></g></g></g></g><g class="iciclelayer"/><g class="treemaplayer"/><g class="sunburstlayer"/><g class="glimages"/><defs id="topdefs-673b0e"><g class="clips"/></defs><g class="layer-above"><g class="imagelayer"/><g class="shapelayer"/></g><g class="infolayer"><g class="g-gtitle"/><g class="annotation" data-index="0" style="opacity: 1;"><g class="annotation-text-g" transform="rotate(0,600,414.5)"><g class="cursor-pointer" transform="translate(519,387)"><rect class="bg" x="0.5" y="0.5" width="162" height="55" style="stroke-width: 1px; stroke: rgb(0, 0, 0); stroke-opacity: 0; fill: rgb(0, 0, 0); fill-opacity: 0;"/><text class="annotation-text" text-anchor="middle" x="81.3125" y="23" style="font-family: verdana; font-size: 21px; fill: rgb(0, 0, 0); fill-opacity: 1; white-space: pre;"><tspan class="line" dy="0em" x="81.3125" y="23">bpRNA-TR0VL0</tspan><tspan class="line" dy="1.3em" x="81.3125" y="23">(12,114)</tspan></text></g></g></g></g></svg>