<svg class="main-svg" xmlns="http://www.w3.org/2000/svg" xmlns:xlink="http://www.w3.org/1999/xlink" width="2400" height="1600" style="" viewBox="0 0 1200 800"><rect x="0" y="0" width="1200" height="800" style="fill: rgb(255, 255, 255); fill-opacity: 1;"/><defs id="defs-1f1051"><g class="clips"/><g class="gradients"/><g class="patterns"/></defs><g class="bglayer"/><g class="layer-below"><g class="imagelayer"/><g class="shapelayer"/></g><g class="cartesianlayer"/><g class="polarlayer"/><g class="smithlayer"/><g class="ternarylayer"/><g class="geolayer"/><g class="funnelarealayer"/><g class="pielayer"><g class="trace" stroke-linejoin="round" style="opacity: 1;"><g class="slice"><path class="surface" d="M687.8481716935389,375.5832888373037a138.6,138.6 0 0 0 -137.84817169353892,-124.18328883730373l0,-191.40000000000003a330,330 0 0 1 328.20993260366413,295.67449723167556Z" style="pointer-events: all; stroke-width: 0; fill: rgb(99, 110, 250); fill-opacity: 1; stroke: rgb(68, 68, 68); stroke-opacity: 1;"/><g class="slicetext"><text data-notex="1" class="slicetext" transform="translate(706.8220960802095,211.21838643518754)" text-anchor="middle" x="0" y="0" style="font-family: verdana; font-size: 18px; fill: rgb(255, 255, 255); fill-opacity: 1; white-space: pre;"><tspan class="line" dy="0em" x="0" y="0">tRNA</tspan><tspan class="line" dy="1.3em" x="0" y="0">23.3%</tspan></text></g></g><g class="slice"><path class="surface" d="M550,251.4a138.6,138.6 0 0 0 -122.28153512885717,73.35288384510723l-168.86497708270755,-90.10316040437573a330,330 0 0 1 291.1465122115647,-174.64972344073152Z" style="pointer-events: all; stroke-width: 0; fill: rgb(239, 85, 59); fill-opacity: 1; stroke: rgb(68, 68, 68); stroke-opacity: 1;"/><g class="slicetext"><text data-notex="1" class="slicetext" transform="translate(429.4027082722437,184.37465801483933)" text-anchor="middle" x="0" y="0" style="font-family: verdana; font-size: 18px; fill: rgb(68, 68, 68); fill-opacity: 1; white-space: pre;"><tspan class="line" dy="0em" x="0" y="0">RNase P</tspan><tspan class="line" dy="1.3em" x="0" y="0">17.2%</tspan></text></g></g><g class="slice"><path class="surface" d="M427.7184648711428,324.75288384510725a138.6,138.6 0 0 0 6.363313006200587,141.22688833092954l-160.07754483604958,104.92444729071745a330,330 0 0 1 -15.150745252858542,-336.2544960260227Z" style="pointer-events: all; stroke-width: 0; fill: rgb(0, 204, 150); fill-opacity: 1; stroke: rgb(68, 68, 68); stroke-opacity: 1;"/><g class="slicetext"><text data-notex="1" class="slicetext" transform="translate(315.93747255869073,395.84311830206445)" text-anchor="middle" x="0" y="0" style="font-family: verdana; font-size: 18px; fill: rgb(68, 68, 68); fill-opacity: 1; white-space: pre;"><tspan class="line" dy="0em" x="0" y="0">SRP</tspan><tspan class="line" dy="1.3em" x="0" y="0">17%</tspan></text></g></g><g class="slice"><path class="surface" d="M434.0817778773434,465.97977217603676a138.6,138.6 0 0 0 111.99600039233638,62.564719510562604l-5.4164014371088385,191.32334566244677a330,330 0 0 1 -266.6571437912771,-148.9636178822919Z" style="pointer-events: all; stroke-width: 0; fill: rgb(171, 99, 250); fill-opacity: 1; stroke: rgb(68, 68, 68); stroke-opacity: 1;"/><g class="slicetext"><text data-notex="1" class="slicetext" transform="translate(435.38932466446533,589.8440817136664)" text-anchor="middle" x="0" y="0" style="font-family: verdana; font-size: 18px; fill: rgb(68, 68, 68); fill-opacity: 1; white-space: pre;"><tspan class="line" dy="0em" x="0" y="0">tmRNA</tspan><tspan class="line" dy="1.3em" x="0" y="0">15.3%</tspan></text></g></g><g class="slice"><path class="surface" d="M546.0777782696798,528.5444916865994a138.6,138.6 0 0 0 106.77879936864971,-45.64409106028189l142.0400357862646,128.2910294363432a330,330 0 0 1 -254.23523659202314,108.67640728638546Z" style="pointer-events: all; stroke-width: 0; fill: rgb(255, 161, 90); fill-opacity: 1; stroke: rgb(68, 68, 68); stroke-opacity: 1;"/><g class="slicetext"><text data-notex="1" class="slicetext" transform="translate(641.7499339083735,600.7388471971199)" text-anchor="middle" x="0" y="0" style="font-family: verdana; font-size: 18px; fill: rgb(68, 68, 68); fill-opacity: 1; white-space: pre;"><tspan class="line" dy="0em" x="0" y="0">5S rRNA</tspan><tspan class="line" dy="1.3em" x="0" y="0">13.8%</tspan></text></g></g><g class="slice"><path class="surface" d="M652.8565776383296,482.9004006263175a138.6,138.6 0 0 0 24.797274571026602,-38.91471718976305l176.28389114625372,74.55165807905135a330,330 0 0 1 -59.04112993101572,92.6540885470549Z" style="pointer-events: all; stroke-width: 0; fill: rgb(25, 211, 243); fill-opacity: 1; stroke: rgb(68, 68, 68); stroke-opacity: 1;"/><g class="slicetext"><text data-notex="1" class="slicetext" transform="translate(774.2683583183681,527.3316803488146)rotate(32.50614250614251)" text-anchor="middle" x="0" y="0" style="font-family: verdana; font-size: 18px; fill: rgb(68, 68, 68); fill-opacity: 1; white-space: pre;"><tspan class="line" dy="0em" x="0" y="0">16S rRNA</tspan><tspan class="line" dy="1.3em" x="0" y="0">5.32%</tspan></text></g></g><g class="slice"><path class="surface" d="M677.6538522093562,443.98568343655444a138.6,138.6 0 0 0 10.59934239864155,-44.18700083718804l190.9210782681873,13.531514065791676a330,330 0 0 1 -25.236529520575118,105.2071448504477Z" style="pointer-events: all; stroke-width: 0; fill: rgb(255, 102, 146); fill-opacity: 1; stroke: rgb(68, 68, 68); stroke-opacity: 1;"/><g class="slicetext"><text data-notex="1" class="slicetext" transform="translate(825.7020148480821,451.4308057942074)" text-anchor="middle" x="0" y="0" style="font-family: verdana; font-size: 18px; fill: rgb(68, 68, 68); fill-opacity: 1; white-space: pre;"><tspan class="line" dy="0em" x="0" y="0">Intron I</tspan><tspan class="line" dy="1.3em" x="0" y="0">5.24%</tspan></text></g></g><g class="slice"><path class="surface" d="M688.2531946079977,399.7986825993664a138.6,138.6 0 0 0 0.3136600737782442,-12.829653334889356l191.35422789388105,-4.185626253817436a330,330 0 0 1 -0.7468096994720099,30.546793654498465Z" style="pointer-events: all; stroke-width: 0; fill: rgb(182, 232, 128); fill-opacity: 1; stroke: rgb(68, 68, 68); stroke-opacity: 1;"/><g class="slicetext"><text data-notex="1" class="slicetext" transform="translate(921.3779849661513,409.8243645878904)" text-anchor="middle" x="0" y="0" style="font-family: verdana; font-size: 18px; fill: rgb(0, 0, 0); fill-opacity: 1; white-space: pre;"><tspan class="line" dy="0em" x="0" y="0">TERC</tspan><tspan class="line" dy="1.3em" x="0" y="0">1.47%</tspan></text></g><path class="textline" stroke-width="2" d="M879.9014224661513,398.06544820886813V414.5274895878904h11.3515625" fill="none" style="stroke: rgb(0, 0, 0); stroke-opacity: 1;"/></g><g class="slice"><path class="surface" d="M688.5668546817759,386.96902926447706a138.6,138.6 0 0 0 -0.7186829882369864,-11.38574042717318l190.3617609101252,-19.90879160562802a330,330 0 0 1 1.7111499719928247,27.108905778983765Z" style="pointer-events: all; stroke-width: 0; fill: rgb(255, 151, 255); fill-opacity: 1; stroke: rgb(68, 68, 68); stroke-opacity: 1;"/><g class="slicetext"><text data-notex="1" class="slicetext" transform="translate(935.3679857748643,364.4181145878904)" text-anchor="middle" x="0" y="0" style="font-family: verdana; font-size: 18px; fill: rgb(0, 0, 0); fill-opacity: 1; white-space: pre;"><tspan class="line" dy="0em" x="0" y="0">23S-rRNA</tspan><tspan class="line" dy="1.3em" x="0" y="0">1.31%</tspan></text></g></g></g></g><g class="iciclelayer"/><g class="treemaplayer"/><g class="sunburstlayer"/><g class="glimages"/><defs id="topdefs-1f1051"><g class="clips"/></defs><g class="layer-above"><g class="imagelayer"/><g class="shapelayer"/></g><g class="infolayer"><g class="g-gtitle"/><g class="annotation" data-index="0" style="opacity: 1;"><g class="annotation-text-g" transform="rotate(0,550,390)"><g class="cursor-pointer" transform="translate(438,362)"><rect class="bg" x="0.5" y="0.5" width="224" height="55" style="stroke-width: 1px; stroke: rgb(0, 0, 0); stroke-opacity: 0; fill: rgb(0, 0, 0); fill-opacity: 0;"/><text class="annotation-text" text-anchor="middle" x="112.71875" y="23" style="font-family: verdana; font-size: 21px; fill: rgb(0, 0, 0); fill-opacity: 1; white-space: pre;"><tspan class="line" dy="0em" x="112.71875" y="23">ArchiveII NR80-L600</tspan><tspan class="line" dy="1.3em" x="112.71875" y="23">(1,221)</tspan></text></g></g></g></g></svg>