<svg class="main-svg" xmlns="http://www.w3.org/2000/svg" xmlns:xlink="http://www.w3.org/1999/xlink" width="2400" height="1600" style="" viewBox="0 0 1200 800"><rect x="0" y="0" width="1200" height="800" style="fill: rgb(255, 255, 255); fill-opacity: 1;"/><defs id="defs-2e427a"><g class="clips"/><g class="gradients"/><g class="patterns"/></defs><g class="bglayer"/><g class="layer-below"><g class="imagelayer"/><g class="shapelayer"/></g><g class="cartesianlayer"/><g class="polarlayer"/><g class="smithlayer"/><g class="ternarylayer"/><g class="geolayer"/><g class="funnelarealayer"/><g class="pielayer"><g class="trace" stroke-linejoin="round" style="opacity: 1;"><g class="slice"><path class="surface" d="M695.8076200691843,463.8165447152867a138.6,138.6 0 0 0 -117.30762006918425,-212.41654471528668l0,-191.40000000000003a330,330 0 0 1 279.30385730758155,505.7536778935397Z" style="pointer-events: all; stroke-width: 0; fill: rgb(99, 110, 250); fill-opacity: 1; stroke: rgb(68, 68, 68); stroke-opacity: 1;"/><g class="slicetext"><text data-notex="1" class="slicetext" transform="translate(783.2504140612024,272.0287452781405)" text-anchor="middle" x="0" y="0" style="font-family: verdana; font-size: 18px; fill: rgb(255, 255, 255); fill-opacity: 1; white-space: pre;"><tspan class="line" dy="0em" x="0" y="0">16S rRNA</tspan><tspan class="line" dy="1.3em" x="0" y="0">33.9%</tspan></text></g></g><g class="slice"><path class="surface" d="M578.5,251.4a138.6,138.6 0 0 0 -129.68828369323967,187.49692293694756l-179.0933441478072,67.52432215102282a330,330 0 0 1 308.7816278410468,-446.42124508797036Z" style="pointer-events: all; stroke-width: 0; fill: rgb(239, 85, 59); fill-opacity: 1; stroke: rgb(68, 68, 68); stroke-opacity: 1;"/><g class="slicetext"><text data-notex="1" class="slicetext" transform="translate(385.4602285256074,252.0124674050362)" text-anchor="middle" x="0" y="0" style="font-family: verdana; font-size: 18px; fill: rgb(68, 68, 68); fill-opacity: 1; white-space: pre;"><tspan class="line" dy="0em" x="0" y="0">5S rRNA</tspan><tspan class="line" dy="1.3em" x="0" y="0">30.7%</tspan></text></g></g><g class="slice"><path class="surface" d="M448.81171630676033,438.89692293694753a138.6,138.6 0 0 0 177.6572211917371,81.13746111306146l66.24281845030602,179.57129225953628a330,330 0 0 1 -422.99338378985027,-193.18443122157493Z" style="pointer-events: all; stroke-width: 0; fill: rgb(0, 204, 150); fill-opacity: 1; stroke: rgb(68, 68, 68); stroke-opacity: 1;"/><g class="slicetext"><text data-notex="1" class="slicetext" transform="translate(481.16416620625597,598.4217807704815)" text-anchor="middle" x="0" y="0" style="font-family: verdana; font-size: 18px; fill: rgb(68, 68, 68); fill-opacity: 1; white-space: pre;"><tspan class="line" dy="0em" x="0" y="0">tRNA</tspan><tspan class="line" dy="1.3em" x="0" y="0">24.9%</tspan></text></g></g><g class="slice"><path class="surface" d="M626.4689374984974,520.0343840500091a138.6,138.6 0 0 0 42.84830001110699,-25.333909499393457l125.41428037040616,144.58636961751674a330,330 0 0 1 -102.01976193120713,60.318832141413Z" style="pointer-events: all; stroke-width: 0; fill: rgb(171, 99, 250); fill-opacity: 1; stroke: rgb(68, 68, 68); stroke-opacity: 1;"/><g class="slicetext"><text data-notex="1" class="slicetext" transform="translate(720.8836159989299,626.1162359097113)" text-anchor="middle" x="0" y="0" style="font-family: verdana; font-size: 18px; fill: rgb(68, 68, 68); fill-opacity: 1; white-space: pre;"><tspan class="line" dy="0em" x="0" y="0">Intron I</tspan><tspan class="line" dy="1.3em" x="0" y="0">5.75%</tspan></text></g></g><g class="slice"><path class="surface" d="M669.3172375096044,494.7004745506156a138.6,138.6 0 0 0 10.731916442388826,-10.37269851601179l140.23454593370502,130.26216690492905a330,330 0 0 1 -25.552182005687683,24.6969012285995Z" style="pointer-events: all; stroke-width: 0; fill: rgb(255, 161, 90); fill-opacity: 1; stroke: rgb(68, 68, 68); stroke-opacity: 1;"/><g class="slicetext"><text data-notex="1" class="slicetext" transform="translate(850.6449786806302,704.6462340788898)" text-anchor="middle" x="0" y="0" style="font-family: verdana; font-size: 18px; fill: rgb(0, 0, 0); fill-opacity: 1; white-space: pre;"><tspan class="line" dy="0em" x="0" y="0">tmRNA</tspan><tspan class="line" dy="1.3em" x="0" y="0">1.71%</tspan></text></g><path class="textline" stroke-width="2" d="M807.8402911806302,627.282597004466V709.3493590788898h11.3515625" fill="none" style="stroke: rgb(0, 0, 0); stroke-opacity: 1;"/></g><g class="slice"><path class="surface" d="M680.0491539519933,484.32777603460374a138.6,138.6 0 0 0 9.047723199452133,-10.791611624522705l152.72902082818652,115.35946513773101a330,330 0 0 1 -21.54219809393365,25.694313391720726Z" style="pointer-events: all; stroke-width: 0; fill: rgb(25, 211, 243); fill-opacity: 1; stroke: rgb(68, 68, 68); stroke-opacity: 1;"/><g class="slicetext"><text data-notex="1" class="slicetext" transform="translate(872.8579099716687,659.2399840788898)" text-anchor="middle" x="0" y="0" style="font-family: verdana; font-size: 18px; fill: rgb(0, 0, 0); fill-opacity: 1; white-space: pre;"><tspan class="line" dy="0em" x="0" y="0">SRP</tspan><tspan class="line" dy="1.3em" x="0" y="0">1.62%</tspan></text></g><path class="textline" stroke-width="2" d="M831.3813474716687,602.0165656285214V663.9431090788898h11.3515625" fill="none" style="stroke: rgb(0, 0, 0); stroke-opacity: 1;"/></g><g class="slice"><path class="surface" d="M689.0968771514454,473.5361644100811a138.6,138.6 0 0 0 6.246506145192171,-8.986960659839466l161.35514836202333,102.94890041700032a330,330 0 0 1 -14.87263367902898,21.39752538057016Z" style="pointer-events: all; stroke-width: 0; fill: rgb(255, 102, 146); fill-opacity: 1; stroke: rgb(68, 68, 68); stroke-opacity: 1;"/><g class="slicetext"><text data-notex="1" class="slicetext" transform="translate(897.8719426566345,613.8337340788898)" text-anchor="middle" x="0" y="0" style="font-family: verdana; font-size: 18px; fill: rgb(0, 0, 0); fill-opacity: 1; white-space: pre;"><tspan class="line" dy="0em" x="0" y="0">RNase P</tspan><tspan class="line" dy="1.3em" x="0" y="0">1.26%</tspan></text></g><path class="textline" stroke-width="2" d="M849.4735051566345,578.3437270076372V618.5368590788898h11.3515625" fill="none" style="stroke: rgb(0, 0, 0); stroke-opacity: 1;"/></g><g class="slice"><path class="surface" d="M695.3433832966375,464.5492037502416a138.6,138.6 0 0 0 0.4642367725466988,-0.7326590349549491l161.99623723839736,101.937133178253a330,330 0 0 1 -1.1053256489207115,1.7444262737022598Z" style="pointer-events: all; stroke-width: 0; fill: rgb(182, 232, 128); fill-opacity: 1; stroke: rgb(68, 68, 68); stroke-opacity: 1;"/><g class="slicetext"><text data-notex="1" class="slicetext" transform="translate(910.1822465582497,568.4274840788898)" text-anchor="middle" x="0" y="0" style="font-family: verdana; font-size: 18px; fill: rgb(0, 0, 0); fill-opacity: 1; white-space: pre;"><tspan class="line" dy="0em" x="0" y="0">TERC</tspan><tspan class="line" dy="1.3em" x="0" y="0">0.0996%</tspan></text></g></g></g></g><g class="iciclelayer"/><g class="treemaplayer"/><g class="sunburstlayer"/><g class="glimages"/><defs id="topdefs-2e427a"><g class="clips"/></defs><g class="layer-above"><g class="imagelayer"/><g class="shapelayer"/></g><g class="infolayer"><g class="g-gtitle"/><g class="annotation" data-index="0" style="opacity: 1;"><g class="annotation-text-g" transform="rotate(0,578.5,390)"><g class="cursor-pointer" transform="translate(530,362)"><rect class="bg" x="0.5" y="0.5" width="96" height="55" style="stroke-width: 1px; stroke: rgb(0, 0, 0); stroke-opacity: 0; fill: rgb(0, 0, 0); fill-opacity: 0;"/><text class="annotation-text" text-anchor="middle" x="48.734375" y="23" style="font-family: verdana; font-size: 21px; fill: rgb(0, 0, 0); fill-opacity: 1; white-space: pre;"><tspan class="line" dy="0em" x="48.734375" y="23">StrAlign</tspan><tspan class="line" dy="1.3em" x="48.734375" y="23">(37,149)</tspan></text></g></g></g></g></svg>