<svg class="main-svg" xmlns="http://www.w3.org/2000/svg" xmlns:xlink="http://www.w3.org/1999/xlink" width="2400" height="1600" style="" viewBox="0 0 1200 800"><rect x="0" y="0" width="1200" height="800" style="fill: rgb(255, 255, 255); fill-opacity: 1;"/><defs id="defs-070775"><g class="clips"/><g class="gradients"/><g class="patterns"/></defs><g class="bglayer"/><g class="layer-below"><g class="imagelayer"/><g class="shapelayer"/></g><g class="cartesianlayer"/><g class="polarlayer"/><g class="smithlayer"/><g class="ternarylayer"/><g class="geolayer"/><g class="funnelarealayer"/><g class="pielayer"><g class="trace" stroke-linejoin="round" style="opacity: 1;"><g class="slice"><path class="surface" d="M693.8640400097372,451.1845205297589a138.6,138.6 0 0 0 -124.36404000973718,-199.7845205297589l0,-191.40000000000003a330,330 0 0 1 296.1048571660409,475.67742983275934Z" style="pointer-events: all; stroke-width: 0; fill: rgb(99, 110, 250); fill-opacity: 1; stroke: rgb(68, 68, 68); stroke-opacity: 1;"/><g class="slicetext"><text data-notex="1" class="slicetext" transform="translate(768.0662390465145,261.47722285416535)" text-anchor="middle" x="0" y="0" style="font-family: verdana; font-size: 18px; fill: rgb(255, 255, 255); fill-opacity: 1; white-space: pre;"><tspan class="line" dy="0em" x="0" y="0">5S rRNA</tspan><tspan class="line" dy="1.3em" x="0" y="0">32.3%</tspan></text></g></g><g class="slice"><path class="surface" d="M569.5,251.4a138.6,138.6 0 0 0 -137.852141779976,124.22130024399306l-190.36724341044308,-19.85629966305721a330,330 0 0 1 328.2193851904191,-295.76500058093586Z" style="pointer-events: all; stroke-width: 0; fill: rgb(239, 85, 59); fill-opacity: 1; stroke: rgb(68, 68, 68); stroke-opacity: 1;"/><g class="slicetext"><text data-notex="1" class="slicetext" transform="translate(412.65390482762984,211.24000949570632)" text-anchor="middle" x="0" y="0" style="font-family: verdana; font-size: 18px; fill: rgb(68, 68, 68); fill-opacity: 1; white-space: pre;"><tspan class="line" dy="0em" x="0" y="0">SRP</tspan><tspan class="line" dy="1.3em" x="0" y="0">23.3%</tspan></text></g></g><g class="slice"><path class="surface" d="M431.647858220024,375.62130024399306a138.6,138.6 0 0 0 38.979635414729984,111.5084453803747l-136.53822307581595,134.13155348126978a330,330 0 0 1 -92.80865574935711,-265.4962985247017Z" style="pointer-events: all; stroke-width: 0; fill: rgb(0, 204, 150); fill-opacity: 1; stroke: rgb(68, 68, 68); stroke-opacity: 1;"/><g class="slicetext"><text data-notex="1" class="slicetext" transform="translate(347.98036930401906,462.61259008016464)" text-anchor="middle" x="0" y="0" style="font-family: verdana; font-size: 18px; fill: rgb(68, 68, 68); fill-opacity: 1; white-space: pre;"><tspan class="line" dy="0em" x="0" y="0">tRNA</tspan><tspan class="line" dy="1.3em" x="0" y="0">14%</tspan></text></g></g><g class="slice"><path class="surface" d="M470.627493634754,487.12974562436773a138.6,138.6 0 0 0 90.00575951979131,41.18634454730611l-12.244555167532694,191.00793404659728a330,330 0 0 1 -214.29942742807455,-98.06272511263361Z" style="pointer-events: all; stroke-width: 0; fill: rgb(171, 99, 250); fill-opacity: 1; stroke: rgb(68, 68, 68); stroke-opacity: 1;"/><g class="slicetext"><text data-notex="1" class="slicetext" transform="translate(467.97301820331353,606.4156396931761)" text-anchor="middle" x="0" y="0" style="font-family: verdana; font-size: 18px; fill: rgb(68, 68, 68); fill-opacity: 1; white-space: pre;"><tspan class="line" dy="0em" x="0" y="0">tmRNA</tspan><tspan class="line" dy="1.3em" x="0" y="0">11.6%</tspan></text></g></g><g class="slice"><path class="surface" d="M560.6332531545453,528.3160901716739a138.6,138.6 0 0 0 93.14327992439297,-28.282340929931568l116.3818790137719,151.9513680005013a330,330 0 0 1 -221.76971410569755,67.33890697602754Z" style="pointer-events: all; stroke-width: 0; fill: rgb(255, 161, 90); fill-opacity: 1; stroke: rgb(68, 68, 68); stroke-opacity: 1;"/><g class="slicetext"><text data-notex="1" class="slicetext" transform="translate(640.3905595930756,618.9949408503215)" text-anchor="middle" x="0" y="0" style="font-family: verdana; font-size: 18px; fill: rgb(68, 68, 68); fill-opacity: 1; white-space: pre;"><tspan class="line" dy="0em" x="0" y="0">RNase P</tspan><tspan class="line" dy="1.3em" x="0" y="0">11.4%</tspan></text></g></g><g class="slice"><path class="surface" d="M653.7765330789382,500.03374924174227a138.6,138.6 0 0 0 17.765057590701446,-16.238899843655943l140.91457759140724,129.52622059735737a330,330 0 0 1 -42.297756168336775,38.66404724679987Z" style="pointer-events: all; stroke-width: 0; fill: rgb(25, 211, 243); fill-opacity: 1; stroke: rgb(68, 68, 68); stroke-opacity: 1;"/><g class="slicetext"><text data-notex="1" class="slicetext" transform="translate(847.2497179223742,719.7496966989539)" text-anchor="middle" x="0" y="0" style="font-family: verdana; font-size: 18px; fill: rgb(0, 0, 0); fill-opacity: 1; white-space: pre;"><tspan class="line" dy="0em" x="0" y="0">16S rRNA</tspan><tspan class="line" dy="1.3em" x="0" y="0">2.77%</tspan></text></g><path class="textline" stroke-width="2" d="M792.1481554223742,633.5729847232947V724.4528216989539h11.3515625" fill="none" style="stroke: rgb(0, 0, 0); stroke-opacity: 1;"/></g><g class="slice"><path class="surface" d="M671.5415906696397,483.79484939808634a138.6,138.6 0 0 0 13.249520645139132,-16.866833358393254l159.21153467278984,106.23392691195716a330,330 0 0 1 -31.546477726521744,40.15912704379346Z" style="pointer-events: all; stroke-width: 0; fill: rgb(255, 102, 146); fill-opacity: 1; stroke: rgb(68, 68, 68); stroke-opacity: 1;"/><g class="slicetext"><text data-notex="1" class="slicetext" transform="translate(875.3433458376536,674.3434466989539)" text-anchor="middle" x="0" y="0" style="font-family: verdana; font-size: 18px; fill: rgb(0, 0, 0); fill-opacity: 1; white-space: pre;"><tspan class="line" dy="0em" x="0" y="0">Intron I</tspan><tspan class="line" dy="1.3em" x="0" y="0">2.47%</tspan></text></g><path class="textline" stroke-width="2" d="M829.0074083376536,593.8526551651322V679.0465716989539h11.3515625" fill="none" style="stroke: rgb(0, 0, 0); stroke-opacity: 1;"/></g><g class="slice"><path class="surface" d="M684.7911113147788,466.9280160396931a138.6,138.6 0 0 0 4.29945009909395,-6.870485247388413l165.14887052391958,96.74611395127792a330,330 0 0 1 -10.236785950223691,16.35829820806765Z" style="pointer-events: all; stroke-width: 0; fill: rgb(182, 232, 128); fill-opacity: 1; stroke: rgb(68, 68, 68); stroke-opacity: 1;"/><g class="slicetext"><text data-notex="1" class="slicetext" transform="translate(896.4515743596362,628.9371966989539)" text-anchor="middle" x="0" y="0" style="font-family: verdana; font-size: 18px; fill: rgb(0, 0, 0); fill-opacity: 1; white-space: pre;"><tspan class="line" dy="0em" x="0" y="0">TERC</tspan><tspan class="line" dy="1.3em" x="0" y="0">0.931%</tspan></text></g><path class="textline" stroke-width="2" d="M849.2406368596362,565.0576364782899V633.6403216989539h11.3515625" fill="none" style="stroke: rgb(0, 0, 0); stroke-opacity: 1;"/></g><g class="slice"><path class="surface" d="M689.0905614138728,460.0575307923047a138.6,138.6 0 0 0 3.6908920014438684,-6.719996550694788l170.2458166211516,87.46611871460416a330,330 0 0 1 -8.787838098675877,15.999991787368543Z" style="pointer-events: all; stroke-width: 0; fill: rgb(255, 151, 255); fill-opacity: 1; stroke: rgb(68, 68, 68); stroke-opacity: 1;"/><g class="slicetext"><text data-notex="1" class="slicetext" transform="translate(914.767442774692,583.5309466989539)" text-anchor="middle" x="0" y="0" style="font-family: verdana; font-size: 18px; fill: rgb(0, 0, 0); fill-opacity: 1; white-space: pre;"><tspan class="line" dy="0em" x="0" y="0">23S-rRNA</tspan><tspan class="line" dy="1.3em" x="0" y="0">0.881%</tspan></text></g><path class="textline" stroke-width="2" d="M858.744005274692,548.864424628845V588.2340716989539h11.3515625" fill="none" style="stroke: rgb(0, 0, 0); stroke-opacity: 1;"/></g><g class="slice"><path class="surface" d="M692.7814534153166,453.3375342416099a138.6,138.6 0 0 0 1.0825865944206736,-2.1530137118512753l171.74081715630396,84.49290930300002a330,330 0 0 1 -2.5775871295730326,5.126223123455418Z" style="pointer-events: all; stroke-width: 0; fill: rgb(254, 203, 82); fill-opacity: 1; stroke: rgb(68, 68, 68); stroke-opacity: 1;"/><g class="slicetext"><text data-notex="1" class="slicetext" transform="translate(914.4600176528097,538.1246966989539)" text-anchor="middle" x="0" y="0" style="font-family: verdana; font-size: 18px; fill: rgb(0, 0, 0); fill-opacity: 1; white-space: pre;"><tspan class="line" dy="0em" x="0" y="0">Intron II</tspan><tspan class="line" dy="1.3em" x="0" y="0">0.277%</tspan></text></g></g></g></g><g class="iciclelayer"/><g class="treemaplayer"/><g class="sunburstlayer"/><g class="glimages"/><defs id="topdefs-070775"><g class="clips"/></defs><g class="layer-above"><g class="imagelayer"/><g class="shapelayer"/></g><g class="infolayer"><g class="g-gtitle"/><g class="annotation" data-index="0" style="opacity: 1;"><g class="annotation-text-g" transform="rotate(0,569.5,390)"><g class="cursor-pointer" transform="translate(520,362)"><rect class="bg" x="0.5" y="0.5" width="99" height="55" style="stroke-width: 1px; stroke: rgb(0, 0, 0); stroke-opacity: 0; fill: rgb(0, 0, 0); fill-opacity: 0;"/><text class="annotation-text" text-anchor="middle" x="49.875" y="23" style="font-family: verdana; font-size: 21px; fill: rgb(0, 0, 0); fill-opacity: 1; white-space: pre;"><tspan class="line" dy="0em" x="49.875" y="23">ArchiveII</tspan><tspan class="line" dy="1.3em" x="49.875" y="23">(3,975)</tspan></text></g></g></g></g></svg>