<svg class="main-svg" xmlns="http://www.w3.org/2000/svg" xmlns:xlink="http://www.w3.org/1999/xlink" width="1000" height="800" style="" viewBox="0 0 1000 800"><rect x="0" y="0" width="1000" height="800" style="fill: rgb(255, 255, 255); fill-opacity: 1;"/><defs id="defs-6cec58"><g class="clips"><clipPath id="clip6cec58xyplot" class="plotclip"><rect width="730" height="620"/></clipPath><clipPath class="axesclip" id="clip6cec58x"><rect x="85" y="0" width="730" height="800"/></clipPath><clipPath class="axesclip" id="clip6cec58y"><rect x="0" y="100" width="1000" height="620"/></clipPath><clipPath class="axesclip" id="clip6cec58xy"><rect x="85" y="100" width="730" height="620"/></clipPath></g><g class="gradients"/><g class="patterns"/></defs><g class="bglayer"><rect class="bg" x="85" y="100" width="730" height="620" style="fill: rgb(229, 236, 246); fill-opacity: 1; stroke-width: 0;"/></g><g class="layer-below"><g class="imagelayer"/><g class="shapelayer"/></g><g class="cartesianlayer"><g class="subplot xy"><g class="layer-subplot"><g class="shapelayer"/><g class="imagelayer"/></g><g class="minor-gridlayer"><g class="x"/><g class="y"/></g><g class="gridlayer"><g class="x"><path class="xgrid crisp" transform="translate(231,0)" d="M0,100v620" style="stroke: rgb(255, 255, 255); stroke-opacity: 1; stroke-width: 1px;"/><path class="xgrid crisp" transform="translate(377,0)" d="M0,100v620" style="stroke: rgb(255, 255, 255); stroke-opacity: 1; stroke-width: 1px;"/><path class="xgrid crisp" transform="translate(523,0)" d="M0,100v620" style="stroke: rgb(255, 255, 255); stroke-opacity: 1; stroke-width: 1px;"/><path class="xgrid crisp" transform="translate(669,0)" d="M0,100v620" style="stroke: rgb(255, 255, 255); stroke-opacity: 1; stroke-width: 1px;"/></g><g class="y"><path class="ygrid crisp" transform="translate(0,596)" d="M85,0h730" style="stroke: rgb(255, 255, 255); stroke-opacity: 1; stroke-width: 1px;"/><path class="ygrid crisp" transform="translate(0,472)" d="M85,0h730" style="stroke: rgb(255, 255, 255); stroke-opacity: 1; stroke-width: 1px;"/><path class="ygrid crisp" transform="translate(0,348)" d="M85,0h730" style="stroke: rgb(255, 255, 255); stroke-opacity: 1; stroke-width: 1px;"/><path class="ygrid crisp" transform="translate(0,224)" d="M85,0h730" style="stroke: rgb(255, 255, 255); stroke-opacity: 1; stroke-width: 1px;"/></g></g><g class="zerolinelayer"><path class="xzl zl crisp" transform="translate(85,0)" d="M0,100v620" style="stroke: rgb(255, 255, 255); stroke-opacity: 1; stroke-width: 2px;"/><path class="yzl zl crisp" transform="translate(0,720)" d="M85,0h730" style="stroke: rgb(255, 255, 255); stroke-opacity: 1; stroke-width: 2px;"/></g><path class="xlines-below"/><path class="ylines-below"/><g class="overlines-below"/><g class="xaxislayer-below"/><g class="yaxislayer-below"/><g class="overaxes-below"/><g class="plot" transform="translate(85,100)" clip-path="url(#clip6cec58xyplot)"><g class="scatterlayer mlayer"><g class="trace scatter trace701693" style="stroke-miterlimit: 2;"><g class="fills"><g><path class="js-fill" d="M584,620L0,620L0,124L584,124" style="fill: rgb(0, 0, 0); fill-opacity: 0.25; stroke-width: 0;"/></g><g><path class="js-fill" d="M0,0L584,0L584,124L0,124Z" style="fill: rgb(239, 85, 59); fill-opacity: 0.5; stroke-width: 0;"/></g></g><g class="errorbars"/><g class="lines"/><g class="points"/><g class="text"/></g><g class="trace scatter trace27c8dc" style="stroke-miterlimit: 2;"><g class="fills"/><g class="errorbars"/><g class="lines"/><g class="points"/><g class="text"/></g><g class="trace scatter trace807466" style="stroke-miterlimit: 2;"><g class="fills"><g><path class="js-fill" d="M730,620L584,620L584,124L730,124" style="fill: rgb(0, 204, 150); fill-opacity: 0.5; stroke-width: 0;"/></g><g><path class="js-fill" d="M584,0L730,0L730,124L584,124Z" style="fill: rgb(171, 99, 250); fill-opacity: 0.5; stroke-width: 0;"/></g></g><g class="errorbars"/><g class="lines"/><g class="points"/><g class="text"/></g><g class="trace scatter traceb65818" style="stroke-miterlimit: 2;"><g class="fills"/><g class="errorbars"/><g class="lines"/><g class="points"/><g class="text"/></g><g class="trace scatter trace465078" style="stroke-miterlimit: 2; opacity: 1;"><g class="fills"/><g class="errorbars"/><g class="lines"/><g class="points"><path class="point" transform="translate(705.04,75.37)" d="M8,8H-8V-8H8Z" style="opacity: 1; stroke-width: 0px; fill: rgb(99, 110, 250); fill-opacity: 1;"/><path class="point" transform="translate(627.88,95.7)" d="M8,8H-8V-8H8Z" style="opacity: 1; stroke-width: 0px; fill: rgb(99, 110, 250); fill-opacity: 1;"/><path class="point" transform="translate(670.21,107.7)" d="M8,8H-8V-8H8Z" style="opacity: 1; stroke-width: 0px; fill: rgb(99, 110, 250); fill-opacity: 1;"/><path class="point" transform="translate(627.22,115.07)" d="M8,8H-8V-8H8Z" style="opacity: 1; stroke-width: 0px; fill: rgb(99, 110, 250); fill-opacity: 1;"/><path class="point" transform="translate(531,179.7)" d="M8,8H-8V-8H8Z" style="opacity: 1; stroke-width: 0px; fill: rgb(99, 110, 250); fill-opacity: 1;"/><path class="point" transform="translate(509.87,195.55)" d="M8,8H-8V-8H8Z" style="opacity: 1; stroke-width: 0px; fill: rgb(99, 110, 250); fill-opacity: 1;"/><path class="point" transform="translate(453.38,244.15)" d="M8,8H-8V-8H8Z" style="opacity: 1; stroke-width: 0px; fill: rgb(99, 110, 250); fill-opacity: 1;"/><path class="point" transform="translate(445.81,249.94)" d="M8,8H-8V-8H8Z" style="opacity: 1; stroke-width: 0px; fill: rgb(99, 110, 250); fill-opacity: 1;"/><path class="point" transform="translate(438.51,252.38)" d="M8,8H-8V-8H8Z" style="opacity: 1; stroke-width: 0px; fill: rgb(99, 110, 250); fill-opacity: 1;"/></g><g class="text"/></g><g class="trace scatter trace8c3864" style="stroke-miterlimit: 2; opacity: 1;"><g class="fills"/><g class="errorbars"/><g class="lines"/><g class="points"><path class="point" transform="translate(698.31,303.24)" d="M8,0A8,8 0 1,1 0,-8A8,8 0 0,1 8,0Z" style="opacity: 1; stroke-width: 0px; fill: rgb(239, 85, 59); fill-opacity: 1;"/><path class="point" transform="translate(621.86,214.42)" d="M8,0A8,8 0 1,1 0,-8A8,8 0 0,1 8,0Z" style="opacity: 1; stroke-width: 0px; fill: rgb(239, 85, 59); fill-opacity: 1;"/><path class="point" transform="translate(652.3,307.68)" d="M8,0A8,8 0 1,1 0,-8A8,8 0 0,1 8,0Z" style="opacity: 1; stroke-width: 0px; fill: rgb(239, 85, 59); fill-opacity: 1;"/><path class="point" transform="translate(604.51,198.14)" d="M8,0A8,8 0 1,1 0,-8A8,8 0 0,1 8,0Z" style="opacity: 1; stroke-width: 0px; fill: rgb(239, 85, 59); fill-opacity: 1;"/><path class="point" transform="translate(508.89,233.96)" d="M8,0A8,8 0 1,1 0,-8A8,8 0 0,1 8,0Z" style="opacity: 1; stroke-width: 0px; fill: rgb(239, 85, 59); fill-opacity: 1;"/><path class="point" transform="translate(491.8,258.03)" d="M8,0A8,8 0 1,1 0,-8A8,8 0 0,1 8,0Z" style="opacity: 1; stroke-width: 0px; fill: rgb(239, 85, 59); fill-opacity: 1;"/><path class="point" transform="translate(430.77,194.74)" d="M8,0A8,8 0 1,1 0,-8A8,8 0 0,1 8,0Z" style="opacity: 1; stroke-width: 0px; fill: rgb(239, 85, 59); fill-opacity: 1;"/><path class="point" transform="translate(421.11,203.63)" d="M8,0A8,8 0 1,1 0,-8A8,8 0 0,1 8,0Z" style="opacity: 1; stroke-width: 0px; fill: rgb(239, 85, 59); fill-opacity: 1;"/><path class="point" transform="translate(411.51,201.04)" d="M8,0A8,8 0 1,1 0,-8A8,8 0 0,1 8,0Z" style="opacity: 1; stroke-width: 0px; fill: rgb(239, 85, 59); fill-opacity: 1;"/></g><g class="text"/></g><g class="trace scatter trace05a054" style="stroke-miterlimit: 2; opacity: 1;"><g class="fills"/><g class="errorbars"/><g class="lines"/><g class="points"><path class="point" transform="translate(702.13,369.7)" d="M10.4,0L0,10.4L-10.4,0L0,-10.4Z" style="opacity: 1; stroke-width: 0px; fill: rgb(0, 204, 150); fill-opacity: 1;"/><path class="point" transform="translate(649.17,316.82)" d="M10.4,0L0,10.4L-10.4,0L0,-10.4Z" style="opacity: 1; stroke-width: 0px; fill: rgb(0, 204, 150); fill-opacity: 1;"/><path class="point" transform="translate(687.64,326.76)" d="M10.4,0L0,10.4L-10.4,0L0,-10.4Z" style="opacity: 1; stroke-width: 0px; fill: rgb(0, 204, 150); fill-opacity: 1;"/><path class="point" transform="translate(640.18,299.3)" d="M10.4,0L0,10.4L-10.4,0L0,-10.4Z" style="opacity: 1; stroke-width: 0px; fill: rgb(0, 204, 150); fill-opacity: 1;"/><path class="point" transform="translate(554.6,255.64)" d="M10.4,0L0,10.4L-10.4,0L0,-10.4Z" style="opacity: 1; stroke-width: 0px; fill: rgb(0, 204, 150); fill-opacity: 1;"/><path class="point" transform="translate(524.1,268.73)" d="M10.4,0L0,10.4L-10.4,0L0,-10.4Z" style="opacity: 1; stroke-width: 0px; fill: rgb(0, 204, 150); fill-opacity: 1;"/><path class="point" transform="translate(462.71,286.47)" d="M10.4,0L0,10.4L-10.4,0L0,-10.4Z" style="opacity: 1; stroke-width: 0px; fill: rgb(0, 204, 150); fill-opacity: 1;"/><path class="point" transform="translate(450.26,297.9)" d="M10.4,0L0,10.4L-10.4,0L0,-10.4Z" style="opacity: 1; stroke-width: 0px; fill: rgb(0, 204, 150); fill-opacity: 1;"/><path class="point" transform="translate(446.02,298.95)" d="M10.4,0L0,10.4L-10.4,0L0,-10.4Z" style="opacity: 1; stroke-width: 0px; fill: rgb(0, 204, 150); fill-opacity: 1;"/></g><g class="text"/></g><g class="trace scatter tracec4e69d" style="stroke-miterlimit: 2; opacity: 1;"><g class="fills"/><g class="errorbars"/><g class="lines"/><g class="points"><path class="point" transform="translate(708.17,379.37)" d="M-9.24,4H9.24L0,-8Z" style="opacity: 1; stroke-width: 0px; fill: rgb(171, 99, 250); fill-opacity: 1;"/><path class="point" transform="translate(597.33,297.65)" d="M-9.24,4H9.24L0,-8Z" style="opacity: 1; stroke-width: 0px; fill: rgb(171, 99, 250); fill-opacity: 1;"/><path class="point" transform="translate(687.36,340.89)" d="M-9.24,4H9.24L0,-8Z" style="opacity: 1; stroke-width: 0px; fill: rgb(171, 99, 250); fill-opacity: 1;"/><path class="point" transform="translate(642.21,299.76)" d="M-9.24,4H9.24L0,-8Z" style="opacity: 1; stroke-width: 0px; fill: rgb(171, 99, 250); fill-opacity: 1;"/><path class="point" transform="translate(562.42,304.72)" d="M-9.24,4H9.24L0,-8Z" style="opacity: 1; stroke-width: 0px; fill: rgb(171, 99, 250); fill-opacity: 1;"/><path class="point" transform="translate(532.47,228.13)" d="M-9.24,4H9.24L0,-8Z" style="opacity: 1; stroke-width: 0px; fill: rgb(171, 99, 250); fill-opacity: 1;"/><path class="point" transform="translate(455.54,239.5)" d="M-9.24,4H9.24L0,-8Z" style="opacity: 1; stroke-width: 0px; fill: rgb(171, 99, 250); fill-opacity: 1;"/><path class="point" transform="translate(436.82,233.29)" d="M-9.24,4H9.24L0,-8Z" style="opacity: 1; stroke-width: 0px; fill: rgb(171, 99, 250); fill-opacity: 1;"/><path class="point" transform="translate(434.41,242.58)" d="M-9.24,4H9.24L0,-8Z" style="opacity: 1; stroke-width: 0px; fill: rgb(171, 99, 250); fill-opacity: 1;"/></g><g class="text"/></g><g class="trace scatter tracea015c2" style="stroke-miterlimit: 2; opacity: 1;"><g class="fills"/><g class="errorbars"/><g class="lines"/><g class="points"><path class="point" transform="translate(696.18,386.6)" d="M7.61,-2.47L4.7,6.47H-4.7L-7.61,-2.47L0,-8Z" style="opacity: 1; stroke-width: 0px; fill: rgb(255, 161, 90); fill-opacity: 1;"/><path class="point" transform="translate(645.13,250.28)" d="M7.61,-2.47L4.7,6.47H-4.7L-7.61,-2.47L0,-8Z" style="opacity: 1; stroke-width: 0px; fill: rgb(255, 161, 90); fill-opacity: 1;"/><path class="point" transform="translate(686.56,324.9)" d="M7.61,-2.47L4.7,6.47H-4.7L-7.61,-2.47L0,-8Z" style="opacity: 1; stroke-width: 0px; fill: rgb(255, 161, 90); fill-opacity: 1;"/><path class="point" transform="translate(638.55,222.75)" d="M7.61,-2.47L4.7,6.47H-4.7L-7.61,-2.47L0,-8Z" style="opacity: 1; stroke-width: 0px; fill: rgb(255, 161, 90); fill-opacity: 1;"/><path class="point" transform="translate(547.54,244.61)" d="M7.61,-2.47L4.7,6.47H-4.7L-7.61,-2.47L0,-8Z" style="opacity: 1; stroke-width: 0px; fill: rgb(255, 161, 90); fill-opacity: 1;"/><path class="point" transform="translate(516.49,156.11)" d="M7.61,-2.47L4.7,6.47H-4.7L-7.61,-2.47L0,-8Z" style="opacity: 1; stroke-width: 0px; fill: rgb(255, 161, 90); fill-opacity: 1;"/><path class="point" transform="translate(461.41,219.49)" d="M7.61,-2.47L4.7,6.47H-4.7L-7.61,-2.47L0,-8Z" style="opacity: 1; stroke-width: 0px; fill: rgb(255, 161, 90); fill-opacity: 1;"/><path class="point" transform="translate(447.15,220.34)" d="M7.61,-2.47L4.7,6.47H-4.7L-7.61,-2.47L0,-8Z" style="opacity: 1; stroke-width: 0px; fill: rgb(255, 161, 90); fill-opacity: 1;"/><path class="point" transform="translate(443.64,222.69)" d="M7.61,-2.47L4.7,6.47H-4.7L-7.61,-2.47L0,-8Z" style="opacity: 1; stroke-width: 0px; fill: rgb(255, 161, 90); fill-opacity: 1;"/></g><g class="text"/></g><g class="trace scatter trace3bb7e7" style="stroke-miterlimit: 2; opacity: 1;"><g class="fills"/><g class="errorbars"/><g class="lines"/><g class="points"><path class="point" transform="translate(685.7,409.17)" d="M-6.08,0l-3.04,-5.28h6.08l3.04,-5.28l3.04,5.28h6.08l-3.04,5.28l3.04,5.28h-6.08l-3.04,5.28l-3.04,-5.28h-6.08Z" style="opacity: 1; stroke-width: 0px; fill: rgb(25, 211, 243); fill-opacity: 1;"/><path class="point" transform="translate(637.35,317.63)" d="M-6.08,0l-3.04,-5.28h6.08l3.04,-5.28l3.04,5.28h6.08l-3.04,5.28l3.04,5.28h-6.08l-3.04,5.28l-3.04,-5.28h-6.08Z" style="opacity: 1; stroke-width: 0px; fill: rgb(25, 211, 243); fill-opacity: 1;"/><path class="point" transform="translate(675.55,361.58)" d="M-6.08,0l-3.04,-5.28h6.08l3.04,-5.28l3.04,5.28h6.08l-3.04,5.28l3.04,5.28h-6.08l-3.04,5.28l-3.04,-5.28h-6.08Z" style="opacity: 1; stroke-width: 0px; fill: rgb(25, 211, 243); fill-opacity: 1;"/><path class="point" transform="translate(623.37,294.91)" d="M-6.08,0l-3.04,-5.28h6.08l3.04,-5.28l3.04,5.28h6.08l-3.04,5.28l3.04,5.28h-6.08l-3.04,5.28l-3.04,-5.28h-6.08Z" style="opacity: 1; stroke-width: 0px; fill: rgb(25, 211, 243); fill-opacity: 1;"/><path class="point" transform="translate(532.76,283.65)" d="M-6.08,0l-3.04,-5.28h6.08l3.04,-5.28l3.04,5.28h6.08l-3.04,5.28l3.04,5.28h-6.08l-3.04,5.28l-3.04,-5.28h-6.08Z" style="opacity: 1; stroke-width: 0px; fill: rgb(25, 211, 243); fill-opacity: 1;"/><path class="point" transform="translate(508.25,228.07)" d="M-6.08,0l-3.04,-5.28h6.08l3.04,-5.28l3.04,5.28h6.08l-3.04,5.28l3.04,5.28h-6.08l-3.04,5.28l-3.04,-5.28h-6.08Z" style="opacity: 1; stroke-width: 0px; fill: rgb(25, 211, 243); fill-opacity: 1;"/><path class="point" transform="translate(453.48,224.07)" d="M-6.08,0l-3.04,-5.28h6.08l3.04,-5.28l3.04,5.28h6.08l-3.04,5.28l3.04,5.28h-6.08l-3.04,5.28l-3.04,-5.28h-6.08Z" style="opacity: 1; stroke-width: 0px; fill: rgb(25, 211, 243); fill-opacity: 1;"/><path class="point" transform="translate(445.66,255.04)" d="M-6.08,0l-3.04,-5.28h6.08l3.04,-5.28l3.04,5.28h6.08l-3.04,5.28l3.04,5.28h-6.08l-3.04,5.28l-3.04,-5.28h-6.08Z" style="opacity: 1; stroke-width: 0px; fill: rgb(25, 211, 243); fill-opacity: 1;"/><path class="point" transform="translate(442.89,269.22)" d="M-6.08,0l-3.04,-5.28h6.08l3.04,-5.28l3.04,5.28h6.08l-3.04,5.28l3.04,5.28h-6.08l-3.04,5.28l-3.04,-5.28h-6.08Z" style="opacity: 1; stroke-width: 0px; fill: rgb(25, 211, 243); fill-opacity: 1;"/></g><g class="text"/></g><g class="trace scatter tracece9a0e" style="stroke-miterlimit: 2; opacity: 1;"><g class="fills"/><g class="errorbars"/><g class="lines"/><g class="points"><path class="point" transform="translate(706.8,411.65)" d="M2.52,-3.46H10.65L4.07,1.32L6.59,9.06L0,4.28L-6.59,9.06L-4.07,1.32L-10.65,-3.46H-2.52L0,-11.2Z" style="opacity: 1; stroke-width: 0px; fill: rgb(255, 102, 146); fill-opacity: 1;"/><path class="point" transform="translate(662.4,395.78)" d="M2.52,-3.46H10.65L4.07,1.32L6.59,9.06L0,4.28L-6.59,9.06L-4.07,1.32L-10.65,-3.46H-2.52L0,-11.2Z" style="opacity: 1; stroke-width: 0px; fill: rgb(255, 102, 146); fill-opacity: 1;"/><path class="point" transform="translate(700.68,396.64)" d="M2.52,-3.46H10.65L4.07,1.32L6.59,9.06L0,4.28L-6.59,9.06L-4.07,1.32L-10.65,-3.46H-2.52L0,-11.2Z" style="opacity: 1; stroke-width: 0px; fill: rgb(255, 102, 146); fill-opacity: 1;"/><path class="point" transform="translate(658.95,379.66)" d="M2.52,-3.46H10.65L4.07,1.32L6.59,9.06L0,4.28L-6.59,9.06L-4.07,1.32L-10.65,-3.46H-2.52L0,-11.2Z" style="opacity: 1; stroke-width: 0px; fill: rgb(255, 102, 146); fill-opacity: 1;"/><path class="point" transform="translate(564.64,348.9)" d="M2.52,-3.46H10.65L4.07,1.32L6.59,9.06L0,4.28L-6.59,9.06L-4.07,1.32L-10.65,-3.46H-2.52L0,-11.2Z" style="opacity: 1; stroke-width: 0px; fill: rgb(255, 102, 146); fill-opacity: 1;"/><path class="point" transform="translate(527.91,355.31)" d="M2.52,-3.46H10.65L4.07,1.32L6.59,9.06L0,4.28L-6.59,9.06L-4.07,1.32L-10.65,-3.46H-2.52L0,-11.2Z" style="opacity: 1; stroke-width: 0px; fill: rgb(255, 102, 146); fill-opacity: 1;"/><path class="point" transform="translate(472.11,405.25)" d="M2.52,-3.46H10.65L4.07,1.32L6.59,9.06L0,4.28L-6.59,9.06L-4.07,1.32L-10.65,-3.46H-2.52L0,-11.2Z" style="opacity: 1; stroke-width: 0px; fill: rgb(255, 102, 146); fill-opacity: 1;"/><path class="point" transform="translate(458.04,385.77)" d="M2.52,-3.46H10.65L4.07,1.32L6.59,9.06L0,4.28L-6.59,9.06L-4.07,1.32L-10.65,-3.46H-2.52L0,-11.2Z" style="opacity: 1; stroke-width: 0px; fill: rgb(255, 102, 146); fill-opacity: 1;"/><path class="point" transform="translate(453.36,392.16)" d="M2.52,-3.46H10.65L4.07,1.32L6.59,9.06L0,4.28L-6.59,9.06L-4.07,1.32L-10.65,-3.46H-2.52L0,-11.2Z" style="opacity: 1; stroke-width: 0px; fill: rgb(255, 102, 146); fill-opacity: 1;"/></g><g class="text"/></g><g class="trace scatter trace5531cb" style="stroke-miterlimit: 2; opacity: 1;"><g class="fills"/><g class="errorbars"/><g class="lines"/><g class="points"><path class="point" transform="translate(701.94,423.68)" d="M8,8H-8L8,-8H-8Z" style="opacity: 1; stroke-width: 0px; fill: rgb(182, 232, 128); fill-opacity: 1;"/><path class="point" transform="translate(654.86,347.87)" d="M8,8H-8L8,-8H-8Z" style="opacity: 1; stroke-width: 0px; fill: rgb(182, 232, 128); fill-opacity: 1;"/><path class="point" transform="translate(700.03,385.59)" d="M8,8H-8L8,-8H-8Z" style="opacity: 1; stroke-width: 0px; fill: rgb(182, 232, 128); fill-opacity: 1;"/><path class="point" transform="translate(642.93,306.56)" d="M8,8H-8L8,-8H-8Z" style="opacity: 1; stroke-width: 0px; fill: rgb(182, 232, 128); fill-opacity: 1;"/><path class="point" transform="translate(553.65,296.07)" d="M8,8H-8L8,-8H-8Z" style="opacity: 1; stroke-width: 0px; fill: rgb(182, 232, 128); fill-opacity: 1;"/><path class="point" transform="translate(520.43,272.95)" d="M8,8H-8L8,-8H-8Z" style="opacity: 1; stroke-width: 0px; fill: rgb(182, 232, 128); fill-opacity: 1;"/><path class="point" transform="translate(465.56,291.26)" d="M8,8H-8L8,-8H-8Z" style="opacity: 1; stroke-width: 0px; fill: rgb(182, 232, 128); fill-opacity: 1;"/><path class="point" transform="translate(451.76,304.5)" d="M8,8H-8L8,-8H-8Z" style="opacity: 1; stroke-width: 0px; fill: rgb(182, 232, 128); fill-opacity: 1;"/><path class="point" transform="translate(447.48,308.48)" d="M8,8H-8L8,-8H-8Z" style="opacity: 1; stroke-width: 0px; fill: rgb(182, 232, 128); fill-opacity: 1;"/></g><g class="text"/></g><g class="trace scatter traceef5ec5" style="stroke-miterlimit: 2; opacity: 1;"><g class="fills"/><g class="errorbars"/><g class="lines"/><g class="points"><path class="point" transform="translate(700.34,493.39)" d="M8,8V-8L-8,8V-8Z" style="opacity: 1; stroke-width: 0px; fill: rgb(255, 151, 255); fill-opacity: 1;"/><path class="point" transform="translate(649.47,423.48)" d="M8,8V-8L-8,8V-8Z" style="opacity: 1; stroke-width: 0px; fill: rgb(255, 151, 255); fill-opacity: 1;"/><path class="point" transform="translate(682.69,466.1)" d="M8,8V-8L-8,8V-8Z" style="opacity: 1; stroke-width: 0px; fill: rgb(255, 151, 255); fill-opacity: 1;"/><path class="point" transform="translate(638.61,321.83)" d="M8,8V-8L-8,8V-8Z" style="opacity: 1; stroke-width: 0px; fill: rgb(255, 151, 255); fill-opacity: 1;"/><path class="point" transform="translate(546.77,349.21)" d="M8,8V-8L-8,8V-8Z" style="opacity: 1; stroke-width: 0px; fill: rgb(255, 151, 255); fill-opacity: 1;"/><path class="point" transform="translate(515.47,301.94)" d="M8,8V-8L-8,8V-8Z" style="opacity: 1; stroke-width: 0px; fill: rgb(255, 151, 255); fill-opacity: 1;"/><path class="point" transform="translate(459.18,291.43)" d="M8,8V-8L-8,8V-8Z" style="opacity: 1; stroke-width: 0px; fill: rgb(255, 151, 255); fill-opacity: 1;"/><path class="point" transform="translate(447.19,328.99)" d="M8,8V-8L-8,8V-8Z" style="opacity: 1; stroke-width: 0px; fill: rgb(255, 151, 255); fill-opacity: 1;"/><path class="point" transform="translate(442.8,299.05)" d="M8,8V-8L-8,8V-8Z" style="opacity: 1; stroke-width: 0px; fill: rgb(255, 151, 255); fill-opacity: 1;"/></g><g class="text"/></g><g class="trace scatter tracebd0a73" style="stroke-miterlimit: 2; opacity: 1;"><g class="fills"/><g class="errorbars"/><g class="lines"/><g class="points"><path class="point" transform="translate(708.25,508.73)" d="M8,8H-8V-8H8Z" style="opacity: 1; stroke-width: 0px; fill: rgb(254, 203, 82); fill-opacity: 1;"/><path class="point" transform="translate(665.39,405.72)" d="M8,8H-8V-8H8Z" style="opacity: 1; stroke-width: 0px; fill: rgb(254, 203, 82); fill-opacity: 1;"/><path class="point" transform="translate(697.96,497.61)" d="M8,8H-8V-8H8Z" style="opacity: 1; stroke-width: 0px; fill: rgb(254, 203, 82); fill-opacity: 1;"/><path class="point" transform="translate(650.6,323.67)" d="M8,8H-8V-8H8Z" style="opacity: 1; stroke-width: 0px; fill: rgb(254, 203, 82); fill-opacity: 1;"/><path class="point" transform="translate(559.17,330.32)" d="M8,8H-8V-8H8Z" style="opacity: 1; stroke-width: 0px; fill: rgb(254, 203, 82); fill-opacity: 1;"/><path class="point" transform="translate(525.05,237.03)" d="M8,8H-8V-8H8Z" style="opacity: 1; stroke-width: 0px; fill: rgb(254, 203, 82); fill-opacity: 1;"/><path class="point" transform="translate(463.04,233.61)" d="M8,8H-8V-8H8Z" style="opacity: 1; stroke-width: 0px; fill: rgb(254, 203, 82); fill-opacity: 1;"/><path class="point" transform="translate(449.5,230.32)" d="M8,8H-8V-8H8Z" style="opacity: 1; stroke-width: 0px; fill: rgb(254, 203, 82); fill-opacity: 1;"/><path class="point" transform="translate(445.51,232.88)" d="M8,8H-8V-8H8Z" style="opacity: 1; stroke-width: 0px; fill: rgb(254, 203, 82); fill-opacity: 1;"/></g><g class="text"/></g><g class="trace scatter trace605674" style="stroke-miterlimit: 2; opacity: 1;"><g class="fills"/><g class="errorbars"/><g class="lines"><path class="js-line" d="M584,124L730,620" style="vector-effect: non-scaling-stroke; fill: none; stroke: rgb(255, 0, 0); stroke-opacity: 1; stroke-width: 6px; opacity: 1; stroke-dasharray: 30px, 30px;"/></g><g class="points"/><g class="text"/></g><g class="trace scatter trace203c0d" style="stroke-miterlimit: 2; opacity: 1;"><g class="fills"/><g class="errorbars"/><g class="lines"><path class="js-line" d="M0,620L584,124" style="vector-effect: non-scaling-stroke; fill: none; stroke: rgb(0, 0, 0); stroke-opacity: 1; stroke-width: 6px; opacity: 1; stroke-dasharray: 30px, 30px;"/></g><g class="points"/><g class="text"/></g><g class="trace scatter trace6a6e10" style="stroke-miterlimit: 2; opacity: 1;"><g class="fills"/><g class="errorbars"/><g class="lines"/><g class="points"/><g class="text"><g class="textpoint" transform="translate(0,21)"><text x="554.8" y="12.4" text-anchor="middle" style="font-family: verdana; font-size: 28px; fill: rgb(0, 0, 0); fill-opacity: 1; white-space: pre;"><tspan style="font-weight:bold">I</tspan></text></g><g class="textpoint" transform="translate(0,21)"><text x="613.2" y="12.4" text-anchor="middle" style="font-family: verdana; font-size: 28px; fill: rgb(0, 0, 0); fill-opacity: 1; white-space: pre;"><tspan style="font-weight:bold">II</tspan></text></g><g class="textpoint" transform="translate(0,21)"><text x="547.5" y="589" text-anchor="middle" style="font-family: verdana; font-size: 28px; fill: rgb(0, 0, 0); fill-opacity: 1; white-space: pre;"><tspan style="font-weight:bold">III</tspan></text></g><g class="textpoint" transform="translate(0,21)"><text x="613.2" y="589" text-anchor="middle" style="font-family: verdana; font-size: 28px; fill: rgb(0, 0, 0); fill-opacity: 1; white-space: pre;"><tspan style="font-weight:bold">IV</tspan></text></g><g class="textpoint" transform="translate(0,21)"><text x="438" y="434" text-anchor="middle" style="font-family: verdana; font-size: 28px; fill: rgb(0, 0, 0); fill-opacity: 1; white-space: pre;"><tspan class="line" dy="0em" x="438" y="434">Physics</tspan><tspan class="line" dy="1.3em" x="438" y="434">based</tspan></text></g><g class="textpoint" transform="translate(0,21)"><text x="536.55" y="434" text-anchor="middle" style="font-family: verdana; font-size: 28px; fill: rgb(0, 0, 0); fill-opacity: 1; white-space: pre;">ML</text></g><g class="textpoint" transform="translate(0,21)"><text x="620.5" y="434" text-anchor="middle" style="font-family: verdana; font-size: 28px; fill: rgb(0, 0, 0); fill-opacity: 1; white-space: pre;">DL</text></g></g></g></g></g><g class="overplot"/><path class="xlines-above crisp" d="M0,0" style="fill: none;"/><path class="ylines-above crisp" d="M0,0" style="fill: none;"/><g class="overlines-above"/><g class="xaxislayer-above"><g class="xtick"><text text-anchor="middle" x="0" y="744" transform="translate(85,0)" style="font-family: verdana; font-size: 23px; fill: rgb(0, 0, 0); fill-opacity: 1; white-space: pre; opacity: 1;">0</text></g><g class="xtick"><text text-anchor="middle" x="0" y="744" style="font-family: verdana; font-size: 23px; fill: rgb(0, 0, 0); fill-opacity: 1; white-space: pre; opacity: 1;" transform="translate(231,0)">0.2</text></g><g class="xtick"><text text-anchor="middle" x="0" y="744" style="font-family: verdana; font-size: 23px; fill: rgb(0, 0, 0); fill-opacity: 1; white-space: pre; opacity: 1;" transform="translate(377,0)">0.4</text></g><g class="xtick"><text text-anchor="middle" x="0" y="744" style="font-family: verdana; font-size: 23px; fill: rgb(0, 0, 0); fill-opacity: 1; white-space: pre; opacity: 1;" transform="translate(523,0)">0.6</text></g><g class="xtick"><text text-anchor="middle" x="0" y="744" style="font-family: verdana; font-size: 23px; fill: rgb(0, 0, 0); fill-opacity: 1; white-space: pre; opacity: 1;" transform="translate(669,0)">0.8</text></g><g class="xtick"><text text-anchor="middle" x="0" y="744" style="font-family: verdana; font-size: 23px; fill: rgb(0, 0, 0); fill-opacity: 1; white-space: pre; opacity: 1;" transform="translate(815,0)">1</text></g></g><g class="yaxislayer-above"><g class="ytick"><text text-anchor="end" x="84" y="8.049999999999999" transform="translate(0,720)" style="font-family: verdana; font-size: 23px; fill: rgb(0, 0, 0); fill-opacity: 1; white-space: pre; opacity: 1;">0</text></g><g class="ytick"><text text-anchor="end" x="84" y="8.049999999999999" style="font-family: verdana; font-size: 23px; fill: rgb(0, 0, 0); fill-opacity: 1; white-space: pre; opacity: 1;" transform="translate(0,596)">0.2</text></g><g class="ytick"><text text-anchor="end" x="84" y="8.049999999999999" style="font-family: verdana; font-size: 23px; fill: rgb(0, 0, 0); fill-opacity: 1; white-space: pre; opacity: 1;" transform="translate(0,472)">0.4</text></g><g class="ytick"><text text-anchor="end" x="84" y="8.049999999999999" style="font-family: verdana; font-size: 23px; fill: rgb(0, 0, 0); fill-opacity: 1; white-space: pre; opacity: 1;" transform="translate(0,348)">0.6</text></g><g class="ytick"><text text-anchor="end" x="84" y="8.049999999999999" style="font-family: verdana; font-size: 23px; fill: rgb(0, 0, 0); fill-opacity: 1; white-space: pre; opacity: 1;" transform="translate(0,224)">0.8</text></g><g class="ytick"><text text-anchor="end" x="84" y="8.049999999999999" style="font-family: verdana; font-size: 23px; fill: rgb(0, 0, 0); fill-opacity: 1; white-space: pre; opacity: 1;" transform="translate(0,100)">1</text></g></g><g class="overaxes-above"/></g></g><g class="polarlayer"/><g class="smithlayer"/><g class="ternarylayer"/><g class="geolayer"/><g class="funnelarealayer"/><g class="pielayer"/><g class="iciclelayer"/><g class="treemaplayer"/><g class="sunburstlayer"/><g class="glimages"/><defs id="topdefs-6cec58"><g class="clips"/><clipPath id="legend6cec58"><rect width="158" height="339" x="0" y="0"/></clipPath></defs><g class="layer-above"><g class="imagelayer"/><g class="shapelayer"><path data-index="0" fill-rule="evenodd" d="M486.5,521.6H566.8V279.8H486.5Z" clip-path="url(#clip6cec58xy)" style="opacity: 1; stroke: rgb(0, 0, 255); stroke-opacity: 1; fill: rgb(0, 0, 0); fill-opacity: 0; stroke-width: 2px;"/><path data-index="1" fill-rule="evenodd" d="M570.45,465.8H661.7V242.6H570.45Z" clip-path="url(#clip6cec58xy)" style="opacity: 1; stroke: rgb(0, 0, 255); stroke-opacity: 1; fill: rgb(0, 0, 0); fill-opacity: 0; stroke-width: 2px;"/></g></g><g class="infolayer"><g class="legend" pointer-events="all" transform="translate(829.6,100)"><rect class="bg" shape-rendering="crispEdges" width="158" height="339" x="0" y="0" style="stroke: rgb(68, 68, 68); stroke-opacity: 1; fill: rgb(255, 255, 255); fill-opacity: 1; stroke-width: 0px;"/><g class="scrollbox" transform="" clip-path="url(#legend6cec58)"><g class="groups"><g class="traces" transform="translate(0,21.450000000000003)" style="opacity: 1;"><text class="legendtext" text-anchor="start" x="40" y="8.97" style="font-family: verdana; font-size: 23px; fill: rgb(0, 0, 0); fill-opacity: 1; white-space: pre;">[ALL]</text><g class="layers" style="opacity: 1;"><g class="legendfill"/><g class="legendlines"/><g class="legendsymbols"><g class="legendpoints"><path class="scatterpts" transform="translate(20,0)" d="M8,8H-8V-8H8Z" style="opacity: 1; stroke-width: 0px; fill: rgb(99, 110, 250); fill-opacity: 1;"/></g></g></g><rect class="legendtoggle" x="0" y="-16.450000000000003" width="152.078125" height="32.900000000000006" style="fill: rgb(0, 0, 0); fill-opacity: 0;"/></g><g class="traces" transform="translate(0,54.35000000000001)" style="opacity: 1;"><text class="legendtext" text-anchor="start" x="40" y="8.97" style="font-family: verdana; font-size: 23px; fill: rgb(0, 0, 0); fill-opacity: 1; white-space: pre;">tRNA</text><g class="layers" style="opacity: 1;"><g class="legendfill"/><g class="legendlines"/><g class="legendsymbols"><g class="legendpoints"><path class="scatterpts" transform="translate(20,0)" d="M8,0A8,8 0 1,1 0,-8A8,8 0 0,1 8,0Z" style="opacity: 1; stroke-width: 0px; fill: rgb(239, 85, 59); fill-opacity: 1;"/></g></g></g><rect class="legendtoggle" x="0" y="-16.450000000000003" width="152.078125" height="32.900000000000006" style="fill: rgb(0, 0, 0); fill-opacity: 0;"/></g><g class="traces" transform="translate(0,87.25000000000001)" style="opacity: 1;"><text class="legendtext" text-anchor="start" x="40" y="8.97" style="font-family: verdana; font-size: 23px; fill: rgb(0, 0, 0); fill-opacity: 1; white-space: pre;">RNase P</text><g class="layers" style="opacity: 1;"><g class="legendfill"/><g class="legendlines"/><g class="legendsymbols"><g class="legendpoints"><path class="scatterpts" transform="translate(20,0)" d="M10.4,0L0,10.4L-10.4,0L0,-10.4Z" style="opacity: 1; stroke-width: 0px; fill: rgb(0, 204, 150); fill-opacity: 1;"/></g></g></g><rect class="legendtoggle" x="0" y="-16.450000000000003" width="152.078125" height="32.900000000000006" style="fill: rgb(0, 0, 0); fill-opacity: 0;"/></g><g class="traces" transform="translate(0,120.15000000000002)" style="opacity: 1;"><text class="legendtext" text-anchor="start" x="40" y="8.97" style="font-family: verdana; font-size: 23px; fill: rgb(0, 0, 0); fill-opacity: 1; white-space: pre;">Intron I</text><g class="layers" style="opacity: 1;"><g class="legendfill"/><g class="legendlines"/><g class="legendsymbols"><g class="legendpoints"><path class="scatterpts" transform="translate(20,0)" d="M-9.24,4H9.24L0,-8Z" style="opacity: 1; stroke-width: 0px; fill: rgb(171, 99, 250); fill-opacity: 1;"/></g></g></g><rect class="legendtoggle" x="0" y="-16.450000000000003" width="152.078125" height="32.900000000000006" style="fill: rgb(0, 0, 0); fill-opacity: 0;"/></g><g class="traces" transform="translate(0,153.05)" style="opacity: 1;"><text class="legendtext" text-anchor="start" x="40" y="8.97" style="font-family: verdana; font-size: 23px; fill: rgb(0, 0, 0); fill-opacity: 1; white-space: pre;">23S rRNA</text><g class="layers" style="opacity: 1;"><g class="legendfill"/><g class="legendlines"/><g class="legendsymbols"><g class="legendpoints"><path class="scatterpts" transform="translate(20,0)" d="M7.61,-2.47L4.7,6.47H-4.7L-7.61,-2.47L0,-8Z" style="opacity: 1; stroke-width: 0px; fill: rgb(255, 161, 90); fill-opacity: 1;"/></g></g></g><rect class="legendtoggle" x="0" y="-16.450000000000003" width="152.078125" height="32.900000000000006" style="fill: rgb(0, 0, 0); fill-opacity: 0;"/></g><g class="traces" transform="translate(0,185.95000000000005)" style="opacity: 1;"><text class="legendtext" text-anchor="start" x="40" y="8.97" style="font-family: verdana; font-size: 23px; fill: rgb(0, 0, 0); fill-opacity: 1; white-space: pre;">5S rRNA</text><g class="layers" style="opacity: 1;"><g class="legendfill"/><g class="legendlines"/><g class="legendsymbols"><g class="legendpoints"><path class="scatterpts" transform="translate(20,0)" d="M-6.08,0l-3.04,-5.28h6.08l3.04,-5.28l3.04,5.28h6.08l-3.04,5.28l3.04,5.28h-6.08l-3.04,5.28l-3.04,-5.28h-6.08Z" style="opacity: 1; stroke-width: 0px; fill: rgb(25, 211, 243); fill-opacity: 1;"/></g></g></g><rect class="legendtoggle" x="0" y="-16.450000000000003" width="152.078125" height="32.900000000000006" style="fill: rgb(0, 0, 0); fill-opacity: 0;"/></g><g class="traces" transform="translate(0,218.85000000000002)" style="opacity: 1;"><text class="legendtext" text-anchor="start" x="40" y="8.97" style="font-family: verdana; font-size: 23px; fill: rgb(0, 0, 0); fill-opacity: 1; white-space: pre;">tmRNA</text><g class="layers" style="opacity: 1;"><g class="legendfill"/><g class="legendlines"/><g class="legendsymbols"><g class="legendpoints"><path class="scatterpts" transform="translate(20,0)" d="M2.52,-3.46H10.65L4.07,1.32L6.59,9.06L0,4.28L-6.59,9.06L-4.07,1.32L-10.65,-3.46H-2.52L0,-11.2Z" style="opacity: 1; stroke-width: 0px; fill: rgb(255, 102, 146); fill-opacity: 1;"/></g></g></g><rect class="legendtoggle" x="0" y="-16.450000000000003" width="152.078125" height="32.900000000000006" style="fill: rgb(0, 0, 0); fill-opacity: 0;"/></g><g class="traces" transform="translate(0,251.75000000000006)" style="opacity: 1;"><text class="legendtext" text-anchor="start" x="40" y="8.97" style="font-family: verdana; font-size: 23px; fill: rgb(0, 0, 0); fill-opacity: 1; white-space: pre;">16S rRNA</text><g class="layers" style="opacity: 1;"><g class="legendfill"/><g class="legendlines"/><g class="legendsymbols"><g class="legendpoints"><path class="scatterpts" transform="translate(20,0)" d="M8,8H-8L8,-8H-8Z" style="opacity: 1; stroke-width: 0px; fill: rgb(182, 232, 128); fill-opacity: 1;"/></g></g></g><rect class="legendtoggle" x="0" y="-16.450000000000003" width="152.078125" height="32.900000000000006" style="fill: rgb(0, 0, 0); fill-opacity: 0;"/></g><g class="traces" transform="translate(0,284.65000000000003)" style="opacity: 1;"><text class="legendtext" text-anchor="start" x="40" y="8.97" style="font-family: verdana; font-size: 23px; fill: rgb(0, 0, 0); fill-opacity: 1; white-space: pre;">TERC</text><g class="layers" style="opacity: 1;"><g class="legendfill"/><g class="legendlines"/><g class="legendsymbols"><g class="legendpoints"><path class="scatterpts" transform="translate(20,0)" d="M8,8V-8L-8,8V-8Z" style="opacity: 1; stroke-width: 0px; fill: rgb(255, 151, 255); fill-opacity: 1;"/></g></g></g><rect class="legendtoggle" x="0" y="-16.450000000000003" width="152.078125" height="32.900000000000006" style="fill: rgb(0, 0, 0); fill-opacity: 0;"/></g><g class="traces" transform="translate(0,317.55)" style="opacity: 1;"><text class="legendtext" text-anchor="start" x="40" y="8.97" style="font-family: verdana; font-size: 23px; fill: rgb(0, 0, 0); fill-opacity: 1; white-space: pre;">SRP</text><g class="layers" style="opacity: 1;"><g class="legendfill"/><g class="legendlines"/><g class="legendsymbols"><g class="legendpoints"><path class="scatterpts" transform="translate(20,0)" d="M8,8H-8V-8H8Z" style="opacity: 1; stroke-width: 0px; fill: rgb(254, 203, 82); fill-opacity: 1;"/></g></g></g><rect class="legendtoggle" x="0" y="-16.450000000000003" width="152.078125" height="32.900000000000006" style="fill: rgb(0, 0, 0); fill-opacity: 0;"/></g></g></g><rect class="scrollbar" rx="20" ry="3" width="0" height="0" x="0" y="0" style="fill: rgb(128, 139, 164); fill-opacity: 1;"/></g><g class="g-gtitle"/><g class="g-xtitle"><text class="xtitle" x="450" y="783.6" text-anchor="middle" style="font-family: verdana; font-size: 28px; fill: rgb(0, 0, 0); opacity: 1; font-weight: normal; white-space: pre;">TR Score</text></g><g class="g-ytitle" transform="translate(16.224609375,0)"><text class="ytitle" transform="rotate(-90,11.775000000000006,410)" x="11.775000000000006" y="410" text-anchor="middle" style="font-family: verdana; font-size: 28px; fill: rgb(0, 0, 0); opacity: 1; font-weight: normal; white-space: pre;">TS Score</text></g><g class="annotation" data-index="0" style="opacity: 1;"><g class="annotation-text-g" transform="rotate(0,28.700000000000003,106.2)"><g class="cursor-pointer" transform="translate(5,86)"><rect class="bg" x="0.5" y="0.5" width="47" height="39" style="stroke-width: 1px; stroke: rgb(0, 0, 0); stroke-opacity: 0; fill: rgb(0, 0, 0); fill-opacity: 0;"/><text class="annotation-text" text-anchor="middle" x="24.21875" y="31" style="font-family: Arial; font-size: 32px; fill: rgb(0, 0, 0); fill-opacity: 1; white-space: pre;"><tspan style="font-weight:bold">(A)</tspan></text></g></g></g></g></svg>