<svg class="main-svg" xmlns="http://www.w3.org/2000/svg" xmlns:xlink="http://www.w3.org/1999/xlink" width="2800" height="1600" style="" viewBox="0 0 1400 800"><rect x="0" y="0" width="1400" height="800" style="fill: rgb(255, 255, 255); fill-opacity: 1;"/><defs id="defs-8334b3"><g class="clips"><clipPath id="clip8334b3xyplot" class="plotclip"><rect width="1235" height="555"/></clipPath><clipPath class="axesclip" id="clip8334b3x"><rect x="80" y="0" width="1235" height="800"/></clipPath><clipPath class="axesclip" id="clip8334b3y"><rect x="0" y="100" width="1400" height="555"/></clipPath><clipPath class="axesclip" id="clip8334b3xy"><rect x="80" y="100" width="1235" height="555"/></clipPath></g><g class="gradients"/><g class="patterns"/></defs><g class="bglayer"><rect class="bg" x="80" y="100" width="1235" height="555" style="fill: rgb(229, 236, 246); fill-opacity: 1; stroke-width: 0;"/></g><g class="layer-below"><g class="imagelayer"/><g class="shapelayer"/></g><g class="cartesianlayer"><g class="subplot xy"><g class="layer-subplot"><g class="shapelayer"/><g class="imagelayer"/></g><g class="gridlayer"><g class="x"/><g class="y"><path class="ygrid crisp" transform="translate(0,542.04)" d="M80,0h1235" style="stroke: rgb(255, 255, 255); stroke-opacity: 1; stroke-width: 1px;"/><path class="ygrid crisp" transform="translate(0,443.81)" d="M80,0h1235" style="stroke: rgb(255, 255, 255); stroke-opacity: 1; stroke-width: 1px;"/><path class="ygrid crisp" transform="translate(0,345.58000000000004)" d="M80,0h1235" style="stroke: rgb(255, 255, 255); stroke-opacity: 1; stroke-width: 1px;"/><path class="ygrid crisp" transform="translate(0,247.35)" d="M80,0h1235" style="stroke: rgb(255, 255, 255); stroke-opacity: 1; stroke-width: 1px;"/><path class="ygrid crisp" transform="translate(0,149.12)" d="M80,0h1235" style="stroke: rgb(255, 255, 255); stroke-opacity: 1; stroke-width: 1px;"/></g></g><g class="zerolinelayer"><path class="yzl zl crisp" transform="translate(0,640.27)" d="M80,0h1235" style="stroke: rgb(255, 255, 255); stroke-opacity: 1; stroke-width: 2px;"/></g><path class="xlines-below"/><path class="ylines-below"/><g class="overlines-below"/><g class="xaxislayer-below"/><g class="yaxislayer-below"/><g class="overaxes-below"/><g class="plot" transform="translate(80,100)" clip-path="url(#clip8334b3xyplot)"><g class="violinlayer mlayer"><g class="trace violins" style="opacity: 1;"><path class="violin" d="M77.19,49.12L8.99,49.12Q9.3,51.87 10.24,53.01C11.55,54.61 14.63,55.7 17.25,56.91C20.34,58.34 24.16,59.53 27.7,60.81C31.33,62.13 35.25,63.36 38.78,64.71C42.08,65.97 45.4,67.21 48.26,68.61C50.76,69.83 53.15,71.08 55.06,72.5C56.69,73.71 58.12,75.01 59.17,76.4C60.09,77.63 60.74,78.96 61.18,80.3C61.6,81.57 61.73,82.9 61.83,84.2C61.93,85.5 61.84,86.8 61.76,88.1C61.68,89.4 61.51,90.69 61.36,91.99C61.21,93.29 61.04,94.59 60.88,95.89C60.72,97.19 60.55,98.49 60.41,99.79C60.27,101.09 60.14,102.39 60.04,103.69C59.94,104.99 59.84,106.29 59.79,107.59C59.74,108.89 59.71,110.18 59.71,111.48C59.71,112.78 59.74,114.08 59.79,115.38C59.84,116.68 59.93,117.98 60.04,119.28C60.15,120.58 60.29,121.88 60.44,123.18C60.59,124.48 60.77,125.78 60.96,127.08C61.15,128.38 61.37,129.67 61.58,130.97C61.8,132.27 62.02,133.57 62.25,134.87C62.48,136.17 62.72,137.47 62.96,138.77C63.2,140.07 63.45,141.37 63.69,142.67C63.94,143.97 64.18,145.27 64.43,146.57C64.68,147.87 64.92,149.16 65.17,150.46C65.42,151.76 65.66,153.06 65.91,154.36C66.16,155.66 66.4,156.96 66.65,158.26C66.89,159.56 67.14,160.86 67.38,162.16C67.62,163.46 67.85,164.76 68.08,166.06C68.31,167.36 68.53,168.65 68.75,169.95C68.97,171.25 69.18,172.55 69.38,173.85C69.58,175.15 69.78,176.45 69.97,177.75C70.16,179.05 70.34,180.35 70.53,181.65C70.72,182.95 70.91,184.25 71.09,185.55C71.27,186.85 71.45,188.14 71.63,189.44C71.81,190.74 72,192.04 72.18,193.34C72.36,194.64 72.53,195.94 72.7,197.24C72.87,198.54 73.04,199.84 73.19,201.14C73.34,202.44 73.49,203.74 73.62,205.04C73.75,206.34 73.87,207.63 73.98,208.93C74.09,210.23 74.19,211.53 74.28,212.83C74.37,214.13 74.45,215.43 74.53,216.73C74.6,218.03 74.67,219.33 74.73,220.63C74.79,221.93 74.85,223.23 74.91,224.53C74.97,225.83 75.02,227.12 75.07,228.42C75.12,229.72 75.16,231.02 75.21,232.32C75.26,233.62 75.3,234.92 75.35,236.22C75.4,237.52 75.45,238.82 75.49,240.12C75.53,241.42 75.57,242.72 75.61,244.02C75.65,245.32 75.69,246.61 75.72,247.91C75.76,249.21 75.79,250.51 75.82,251.81C75.85,253.11 75.88,254.41 75.91,255.71C75.94,257.01 75.96,258.31 75.98,259.61C76,260.91 76.03,262.21 76.05,263.51C76.07,264.81 76.09,266.1 76.11,267.4C76.13,268.7 76.15,270 76.17,271.3C76.19,272.6 76.22,273.9 76.24,275.2C76.27,276.5 76.29,277.8 76.32,279.1C76.35,280.4 76.37,281.7 76.4,283C76.43,284.3 76.46,285.59 76.49,286.89C76.52,288.19 76.55,289.49 76.57,290.79C76.59,292.09 76.61,293.39 76.63,294.69C76.65,295.99 76.67,297.29 76.68,298.59C76.69,299.89 76.7,301.19 76.71,302.49C76.72,303.79 76.73,305.08 76.74,306.38C76.75,307.68 76.76,308.98 76.77,310.28C76.78,311.58 76.79,312.88 76.8,314.18C76.81,315.48 76.83,316.78 76.84,318.08C76.85,319.38 76.87,320.68 76.88,321.98C76.89,323.28 76.91,324.57 76.92,325.87C76.93,327.17 76.94,328.47 76.95,329.77C76.96,331.07 76.98,332.37 76.99,333.67C77,334.97 77.01,336.27 77.02,337.57C77.03,338.87 77.05,340.17 77.06,341.47C77.07,342.77 77.08,344.06 77.09,345.36C77.1,346.66 77.1,347.96 77.11,349.26C77.12,350.56 77.12,351.86 77.13,353.16C77.13,354.46 77.14,355.76 77.14,357.06C77.14,358.36 77.15,359.66 77.15,360.96C77.15,362.26 77.14,363.55 77.14,364.85C77.14,366.15 77.14,367.45 77.14,368.75C77.14,370.05 77.14,371.35 77.14,372.65C77.14,373.95 77.14,375.25 77.14,376.55C77.14,377.85 77.14,379.15 77.14,380.45C77.14,381.75 77.15,383.04 77.15,384.34C77.15,385.64 77.16,386.94 77.16,388.24C77.16,389.54 77.17,390.84 77.17,392.14C77.17,393.44 77.18,394.74 77.18,396.04C77.18,397.34 77.18,398.64 77.18,399.94C77.18,401.24 77.18,402.53 77.18,403.83C77.18,405.13 77.19,406.43 77.19,407.73C77.19,409.03 77.19,410.33 77.19,411.63C77.19,412.93 77.19,414.23 77.19,415.53C77.19,416.83 77.19,418.13 77.19,419.43C77.19,420.73 77.19,422.02 77.19,423.32C77.19,424.62 77.19,425.92 77.19,427.22C77.19,428.52 77.19,429.82 77.19,431.12C77.19,432.42 77.19,433.72 77.19,435.02C77.19,436.32 77.19,437.62 77.19,438.92C77.19,440.22 77.19,441.52 77.19,442.82C77.19,444.12 77.19,445.41 77.19,446.71C77.19,448.01 77.19,449.31 77.19,450.61C77.19,451.91 77.19,453.21 77.19,454.51C77.19,455.81 77.19,457.11 77.19,458.41C77.19,459.71 77.19,461.01 77.19,462.31C77.19,463.61 77.19,464.9 77.19,466.2C77.19,467.5 77.19,468.8 77.19,470.1C77.19,471.4 77.19,472.7 77.19,474C77.19,475.3 77.19,476.6 77.19,477.9C77.19,479.2 77.19,480.5 77.19,481.8C77.19,483.1 77.19,484.39 77.19,485.69C77.19,486.99 77.19,488.29 77.19,489.59C77.19,490.89 77.19,492.19 77.19,493.49C77.19,494.79 77.19,496.09 77.19,497.39C77.19,498.69 77.19,499.99 77.19,501.29C77.19,502.59 77.19,503.88 77.19,505.18C77.19,506.48 77.19,507.78 77.19,509.08C77.19,510.38 77.18,511.68 77.18,512.98C77.18,514.28 77.18,515.58 77.18,516.88C77.18,518.18 77.17,519.48 77.17,520.78C77.17,522.08 77.17,523.37 77.17,524.67C77.17,525.97 77.16,527.27 77.16,528.57C77.16,529.87 77.15,531.17 77.15,532.47C77.15,533.77 77.14,535.07 77.14,536.37Q77.14,537.67 77.14,540.27L77.19,540.27" style="vector-effect: non-scaling-stroke; stroke-width: 2px; stroke: rgb(0, 0, 255); stroke-opacity: 1; fill: rgb(0, 0, 255); fill-opacity: 0.5;"/><path class="meanline" d="M61.55997848510742,90.28H77.19" style="fill: none; vector-effect: non-scaling-stroke; stroke-width: 3px; stroke-dasharray: 6px, 3px; stroke: rgb(255, 255, 255); stroke-opacity: 1;"/></g><g class="trace violins" style="opacity: 1;"><path class="violin" d="M77.19,540.27L77.19,540.27Q77.19,536.63 77.19,534.81C77.19,532.99 77.19,531.17 77.19,529.35C77.19,527.53 77.19,525.71 77.19,523.89C77.19,522.07 77.19,520.26 77.19,518.44C77.19,516.62 77.19,514.8 77.19,512.98C77.19,511.16 77.19,509.34 77.19,507.52C77.19,505.7 77.19,503.88 77.19,502.06C77.19,500.24 77.19,498.43 77.19,496.61C77.19,494.79 77.19,492.97 77.19,491.15C77.19,489.33 77.19,487.51 77.19,485.69C77.19,483.87 77.19,482.06 77.19,480.24C77.19,478.42 77.19,476.6 77.19,474.78C77.19,472.96 77.19,471.14 77.19,469.32C77.19,467.5 77.19,465.68 77.19,463.86C77.19,462.04 77.19,460.23 77.19,458.41C77.19,456.59 77.19,454.77 77.19,452.95C77.19,451.13 77.19,449.31 77.19,447.49C77.19,445.67 77.19,443.86 77.19,442.04C77.19,440.22 77.19,438.4 77.19,436.58C77.19,434.76 77.19,432.94 77.19,431.12C77.19,429.3 77.19,427.48 77.19,425.66C77.19,423.84 77.19,422.03 77.19,420.21C77.19,418.39 77.19,416.57 77.19,414.75C77.19,412.93 77.2,411.11 77.2,409.29C77.2,407.47 77.2,405.65 77.21,403.83C77.21,402.01 77.22,400.2 77.23,398.38C77.24,396.56 77.26,394.74 77.27,392.92C77.29,391.1 77.3,389.28 77.32,387.46C77.34,385.64 77.37,383.83 77.39,382.01C77.41,380.19 77.44,378.37 77.46,376.55C77.48,374.73 77.51,372.91 77.53,371.09C77.55,369.27 77.58,367.45 77.6,365.63C77.62,363.81 77.64,362 77.66,360.18C77.68,358.36 77.71,356.54 77.73,354.72C77.76,352.9 77.79,351.08 77.81,349.26C77.83,347.44 77.85,345.63 77.87,343.81C77.89,341.99 77.91,340.17 77.93,338.35C77.95,336.53 77.96,334.71 77.97,332.89C77.98,331.07 77.98,329.25 77.99,327.43C77.99,325.61 78,323.8 78,321.98C78,320.16 77.99,318.34 77.99,316.52C77.99,314.7 77.98,312.88 77.98,311.06C77.98,309.24 77.97,307.42 77.97,305.6C77.97,303.78 77.97,301.97 77.98,300.15C77.99,298.33 78,296.51 78.02,294.69C78.04,292.87 78.06,291.05 78.09,289.23C78.12,287.41 78.15,285.6 78.18,283.78C78.21,281.96 78.24,280.14 78.27,278.32C78.3,276.5 78.33,274.68 78.36,272.86C78.39,271.04 78.42,269.22 78.46,267.4C78.5,265.58 78.55,263.77 78.62,261.95C78.69,260.13 78.76,258.31 78.86,256.49C78.96,254.67 79.09,252.85 79.24,251.03C79.39,249.21 79.56,247.4 79.75,245.58C79.94,243.76 80.16,241.94 80.38,240.12C80.6,238.3 80.85,236.48 81.08,234.66C81.32,232.84 81.56,231.02 81.79,229.2C82.02,227.38 82.24,225.57 82.45,223.75C82.66,221.93 82.85,220.11 83.04,218.29C83.23,216.47 83.41,214.65 83.58,212.83C83.75,211.01 83.9,209.19 84.05,207.37C84.19,205.55 84.34,203.74 84.45,201.92C84.57,200.1 84.66,198.28 84.74,196.46C84.82,194.64 84.87,192.82 84.91,191C84.95,189.18 84.97,187.37 85,185.55C85.03,183.73 85.04,181.91 85.1,180.09C85.16,178.27 85.23,176.45 85.35,174.63C85.47,172.81 85.62,170.99 85.84,169.17C86.06,167.35 86.32,165.53 86.65,163.72C86.98,161.9 87.38,160.07 87.83,158.26C88.28,156.43 88.81,154.61 89.37,152.8C89.93,150.98 90.55,149.16 91.19,147.35C91.83,145.53 92.53,143.71 93.2,141.89C93.88,140.07 94.59,138.25 95.24,136.43C95.89,134.61 96.54,132.8 97.1,130.97C97.66,129.16 98.18,127.35 98.6,125.52C99.01,123.71 99.35,121.89 99.59,120.06C99.83,118.25 99.97,116.42 100.03,114.6C100.09,112.78 100.04,110.96 99.97,109.14C99.9,107.32 99.71,105.51 99.58,103.69C99.45,101.87 99.23,100.05 99.17,98.23C99.11,96.41 99.01,94.58 99.2,92.77C99.39,90.94 99.68,89.09 100.34,87.32C101.04,85.45 102.05,83.59 103.38,81.86C104.87,79.92 106.87,78.12 109.04,76.4C111.49,74.46 114.47,72.7 117.45,70.94C120.66,69.05 124.31,67.32 127.69,65.49C131.03,63.68 134.7,61.99 137.6,60.03C140.14,58.32 143.06,56.64 144.3,54.57Q145.3,52.91 145.38,49.12L77.19,49.12" style="vector-effect: non-scaling-stroke; stroke-width: 2px; stroke: rgb(0, 128, 0); stroke-opacity: 1; fill: rgb(0, 128, 0); fill-opacity: 0.5;"/><path class="meanline" d="M99.2864761352539,92H77.19" style="fill: none; vector-effect: non-scaling-stroke; stroke-width: 3px; stroke-dasharray: 6px, 3px; stroke: rgb(255, 255, 255); stroke-opacity: 1;"/></g><g class="trace violins" style="opacity: 1;"><path class="violin" d="M231.56,49.12L163.37,49.12Q163.24,52.14 164.07,53.42C165.18,55.13 168.11,56.4 170.59,57.73C173.54,59.31 177.27,60.63 180.73,62.04C184.3,63.5 188.19,64.87 191.7,66.35C195.01,67.75 198.37,69.12 201.26,70.66C203.82,72.02 206.28,73.41 208.26,74.97C209.97,76.31 211.49,77.74 212.61,79.27C213.61,80.63 214.32,82.11 214.83,83.58C215.31,84.98 215.51,86.45 215.64,87.89C215.77,89.32 215.7,90.76 215.64,92.2C215.58,93.64 215.4,95.07 215.25,96.51C215.09,97.95 214.89,99.38 214.71,100.82C214.53,102.25 214.34,103.69 214.16,105.12C213.98,106.56 213.8,107.99 213.65,109.43C213.5,110.87 213.35,112.3 213.25,113.74C213.15,115.18 213.07,116.61 213.03,118.05C212.99,119.49 212.98,120.92 213.03,122.36C213.08,123.8 213.17,125.24 213.31,126.67C213.45,128.11 213.66,129.54 213.89,130.97C214.12,132.41 214.41,133.85 214.71,135.28C215.01,136.72 215.37,138.15 215.71,139.59C216.06,141.03 216.43,142.46 216.78,143.9C217.13,145.34 217.49,146.77 217.83,148.21C218.16,149.65 218.49,151.08 218.79,152.52C219.09,153.95 219.36,155.38 219.61,156.82C219.86,158.25 220.09,159.69 220.3,161.13C220.51,162.57 220.7,164 220.88,165.44C221.06,166.88 221.22,168.31 221.39,169.75C221.56,171.19 221.71,172.62 221.88,174.06C222.05,175.5 222.21,176.93 222.39,178.37C222.57,179.8 222.75,181.24 222.95,182.67C223.15,184.11 223.36,185.54 223.57,186.98C223.79,188.42 224.02,189.85 224.24,191.29C224.47,192.73 224.7,194.16 224.92,195.6C225.14,197.04 225.37,198.47 225.58,199.91C225.79,201.35 226,202.78 226.19,204.22C226.38,205.65 226.56,207.09 226.72,208.52C226.88,209.96 227.03,211.39 227.17,212.83C227.31,214.27 227.42,215.7 227.54,217.14C227.65,218.58 227.76,220.01 227.86,221.45C227.96,222.89 228.04,224.32 228.12,225.76C228.2,227.2 228.27,228.63 228.34,230.07C228.41,231.5 228.48,232.94 228.54,234.37C228.6,235.81 228.66,237.24 228.72,238.68C228.78,240.12 228.84,241.55 228.9,242.99C228.96,244.43 229.03,245.86 229.09,247.3C229.15,248.74 229.21,250.17 229.28,251.61C229.35,253.05 229.42,254.48 229.49,255.92C229.56,257.35 229.63,258.79 229.69,260.22C229.76,261.66 229.82,263.09 229.88,264.53C229.94,265.97 229.98,267.4 230.03,268.84C230.07,270.28 230.12,271.71 230.15,273.15C230.18,274.59 230.2,276.02 230.23,277.46C230.25,278.9 230.27,280.33 230.3,281.77C230.32,283.2 230.36,284.64 230.38,286.07C230.41,287.51 230.43,288.94 230.45,290.38C230.48,291.82 230.5,293.25 230.53,294.69C230.55,296.13 230.58,297.56 230.6,299C230.62,300.44 230.64,301.87 230.66,303.31C230.67,304.75 230.68,306.18 230.69,307.62C230.7,309.05 230.71,310.49 230.72,311.92C230.73,313.36 230.73,314.79 230.74,316.23C230.75,317.67 230.75,319.1 230.76,320.54C230.77,321.98 230.78,323.41 230.8,324.85C230.82,326.29 230.84,327.72 230.86,329.16C230.88,330.6 230.9,332.03 230.93,333.47C230.96,334.9 230.99,336.34 231.02,337.77C231.05,339.21 231.08,340.64 231.11,342.08C231.14,343.52 231.17,344.95 231.19,346.39C231.21,347.83 231.23,349.26 231.25,350.7C231.27,352.14 231.28,353.57 231.29,355.01C231.3,356.45 231.3,357.88 231.3,359.32C231.3,360.75 231.31,362.19 231.31,363.62C231.31,365.06 231.3,366.49 231.3,367.93C231.3,369.37 231.3,370.8 231.3,372.24C231.3,373.68 231.3,375.11 231.31,376.55C231.32,377.99 231.33,379.42 231.34,380.86C231.35,382.3 231.37,383.73 231.38,385.17C231.39,386.6 231.41,388.04 231.42,389.47C231.43,390.91 231.45,392.34 231.46,393.78C231.47,395.22 231.48,396.65 231.49,398.09C231.5,399.53 231.51,400.96 231.52,402.4C231.53,403.84 231.53,405.27 231.54,406.71C231.54,408.15 231.55,409.58 231.55,411.02C231.55,412.45 231.56,413.89 231.56,415.32C231.56,416.76 231.56,418.19 231.56,419.63C231.56,421.07 231.56,422.5 231.56,423.94C231.56,425.38 231.56,426.81 231.56,428.25C231.56,429.69 231.56,431.12 231.56,432.56C231.56,434 231.56,435.43 231.56,436.87C231.56,438.3 231.56,439.74 231.56,441.17C231.56,442.61 231.56,444.04 231.56,445.48C231.56,446.92 231.56,448.35 231.56,449.79C231.56,451.23 231.56,452.66 231.56,454.1C231.56,455.54 231.56,456.97 231.56,458.41C231.56,459.85 231.56,461.28 231.56,462.72C231.56,464.15 231.56,465.59 231.56,467.02C231.56,468.46 231.56,469.89 231.56,471.33C231.56,472.77 231.56,474.2 231.56,475.64C231.56,477.08 231.56,478.51 231.56,479.95C231.56,481.39 231.56,482.82 231.56,484.26C231.56,485.7 231.56,487.13 231.56,488.57C231.56,490 231.56,491.44 231.56,492.87C231.56,494.31 231.56,495.74 231.56,497.18C231.56,498.62 231.56,500.05 231.56,501.49C231.56,502.93 231.56,504.36 231.56,505.8C231.56,507.24 231.56,508.67 231.56,510.11C231.56,511.55 231.56,512.98 231.56,514.42C231.56,515.85 231.55,517.29 231.55,518.72C231.55,520.16 231.54,521.59 231.54,523.03C231.54,524.47 231.53,525.9 231.53,527.34C231.53,528.78 231.52,530.21 231.52,531.65C231.52,533.09 231.51,534.52 231.51,535.96Q231.51,537.4 231.51,540.27L231.56,540.27" style="vector-effect: non-scaling-stroke; stroke-width: 2px; stroke: rgb(0, 0, 255); stroke-opacity: 1; fill: rgb(0, 0, 255); fill-opacity: 0.5;"/><path class="meanline" d="M215.34976196289062,95.58H231.56" style="fill: none; vector-effect: non-scaling-stroke; stroke-width: 3px; stroke-dasharray: 6px, 3px; stroke: rgb(255, 255, 255); stroke-opacity: 1;"/></g><g class="trace violins" style="opacity: 1;"><path class="violin" d="M231.56,540.27L231.85,540.27Q231.85,535.59 231.84,533.25C231.83,530.91 231.81,528.57 231.79,526.23C231.77,523.89 231.76,521.56 231.74,519.22C231.72,516.88 231.7,514.54 231.68,512.2C231.66,509.86 231.65,507.52 231.64,505.18C231.63,502.84 231.61,500.51 231.6,498.17C231.59,495.83 231.58,493.49 231.58,491.15C231.58,488.81 231.58,486.47 231.58,484.13C231.58,481.79 231.58,479.46 231.58,477.12C231.58,474.78 231.59,472.44 231.59,470.1C231.6,467.76 231.6,465.42 231.61,463.08C231.62,460.74 231.64,458.41 231.65,456.07C231.67,453.73 231.68,451.39 231.7,449.05C231.72,446.71 231.74,444.38 231.76,442.04C231.78,439.7 231.81,437.36 231.83,435.02C231.85,432.68 231.87,430.34 231.89,428C231.91,425.66 231.92,423.33 231.94,420.99C231.96,418.65 231.97,416.31 231.99,413.97C232,411.63 232.01,409.29 232.03,406.95C232.05,404.61 232.07,402.28 232.09,399.94C232.12,397.6 232.15,395.26 232.18,392.92C232.21,390.58 232.24,388.24 232.29,385.9C232.34,383.56 232.4,381.23 232.46,378.89C232.53,376.55 232.59,374.21 232.68,371.87C232.77,369.53 232.87,367.19 232.98,364.85C233.09,362.51 233.22,360.18 233.36,357.84C233.5,355.5 233.65,353.16 233.81,350.82C233.96,348.48 234.14,346.15 234.29,343.81C234.44,341.47 234.6,339.13 234.73,336.79C234.86,334.45 234.98,332.11 235.06,329.77C235.14,327.43 235.2,325.1 235.23,322.76C235.26,320.42 235.26,318.08 235.25,315.74C235.24,313.4 235.19,311.06 235.14,308.72C235.1,306.38 235.03,304.05 234.98,301.71C234.93,299.37 234.88,297.03 234.85,294.69C234.82,292.35 234.81,290.01 234.82,287.67C234.83,285.33 234.87,283 234.93,280.66C235,278.32 235.09,275.98 235.21,273.64C235.34,271.3 235.5,268.96 235.68,266.62C235.86,264.28 236.08,261.95 236.31,259.61C236.54,257.27 236.81,254.93 237.08,252.59C237.35,250.25 237.64,247.92 237.94,245.58C238.24,243.24 238.55,240.9 238.86,238.56C239.17,236.22 239.49,233.88 239.81,231.54C240.13,229.2 240.45,226.87 240.76,224.53C241.07,222.19 241.38,219.85 241.67,217.51C241.96,215.17 242.23,212.83 242.49,210.49C242.74,208.15 242.98,205.82 243.2,203.48C243.43,201.14 243.62,198.8 243.84,196.46C244.06,194.12 244.26,191.78 244.52,189.44C244.78,187.1 245.05,184.76 245.39,182.43C245.74,180.09 246.12,177.74 246.59,175.41C247.06,173.06 247.6,170.72 248.19,168.39C248.79,166.05 249.47,163.71 250.16,161.38C250.86,159.04 251.62,156.7 252.37,154.36C253.12,152.02 253.91,149.69 254.64,147.35C255.37,145.01 256.1,142.68 256.74,140.33C257.38,138 257.99,135.66 258.47,133.31C258.95,130.98 259.36,128.64 259.64,126.3C259.92,123.97 260.07,121.62 260.14,119.28C260.21,116.94 260.13,114.6 260.09,112.26C260.05,109.92 259.85,107.59 259.88,105.25C259.91,102.91 259.89,100.55 260.3,98.23C260.71,95.87 261.32,93.47 262.37,91.21C263.5,88.78 265.13,86.43 267.01,84.2C269.09,81.73 271.78,79.45 274.48,77.18C277.37,74.76 280.77,72.51 283.88,70.16C286.96,67.83 290.4,65.63 293.03,63.15C295.39,60.92 298.03,58.65 299.11,56.13Q300.05,53.93 299.76,49.12L231.56,49.12" style="vector-effect: non-scaling-stroke; stroke-width: 2px; stroke: rgb(0, 128, 0); stroke-opacity: 1; fill: rgb(0, 128, 0); fill-opacity: 0.5;"/><path class="meanline" d="M259.916015625,107.69H231.56" style="fill: none; vector-effect: non-scaling-stroke; stroke-width: 3px; stroke-dasharray: 6px, 3px; stroke: rgb(255, 255, 255); stroke-opacity: 1;"/></g><g class="trace violins" style="opacity: 1;"><path class="violin" d="M385.94,49.12L317.74,49.12Q317.85,52 318.74,53.21C319.96,54.87 322.99,56.03 325.55,57.3C328.58,58.8 332.37,60.04 335.88,61.39C339.49,62.78 343.39,64.08 346.91,65.49C350.21,66.81 353.54,68.12 356.4,69.58C358.92,70.87 361.32,72.18 363.25,73.67C364.9,74.94 366.36,76.31 367.43,77.77C368.38,79.06 369.04,80.46 369.51,81.86C369.95,83.19 370.11,84.58 370.22,85.95C370.33,87.31 370.25,88.68 370.19,90.04C370.13,91.41 369.98,92.77 369.86,94.14C369.74,95.5 369.6,96.87 369.48,98.23C369.36,99.59 369.25,100.96 369.16,102.32C369.07,103.69 368.99,105.05 368.94,106.42C368.89,107.78 368.85,109.15 368.84,110.51C368.83,111.87 368.83,113.24 368.85,114.6C368.87,115.96 368.91,117.33 368.97,118.69C369.03,120.06 369.1,121.42 369.2,122.79C369.3,124.15 369.42,125.52 369.56,126.88C369.71,128.24 369.88,129.61 370.07,130.97C370.26,132.34 370.48,133.71 370.72,135.07C370.96,136.44 371.23,137.8 371.51,139.16C371.79,140.52 372.1,141.89 372.4,143.25C372.7,144.62 373.02,145.98 373.32,147.35C373.62,148.71 373.93,150.08 374.22,151.44C374.51,152.8 374.79,154.17 375.07,155.53C375.34,156.89 375.61,158.26 375.87,159.62C376.13,160.99 376.38,162.35 376.62,163.72C376.86,165.08 377.1,166.45 377.33,167.81C377.56,169.17 377.79,170.53 378,171.9C378.21,173.26 378.41,174.63 378.6,176C378.79,177.36 378.96,178.73 379.12,180.09C379.28,181.45 379.42,182.82 379.55,184.18C379.68,185.54 379.78,186.91 379.88,188.27C379.98,189.64 380.07,191 380.16,192.37C380.25,193.73 380.33,195.1 380.41,196.46C380.5,197.82 380.58,199.19 380.67,200.55C380.77,201.92 380.87,203.28 380.98,204.65C381.09,206.01 381.22,207.38 381.34,208.74C381.47,210.1 381.6,211.47 381.73,212.83C381.86,214.19 382,215.56 382.14,216.92C382.28,218.29 382.41,219.65 382.55,221.02C382.68,222.38 382.83,223.75 382.95,225.11C383.07,226.47 383.19,227.84 383.29,229.2C383.4,230.57 383.49,231.93 383.58,233.3C383.66,234.66 383.74,236.03 383.8,237.39C383.86,238.75 383.91,240.12 383.95,241.48C383.99,242.85 384.02,244.21 384.05,245.58C384.08,246.94 384.11,248.31 384.14,249.67C384.17,251.03 384.2,252.4 384.23,253.76C384.26,255.12 384.29,256.49 384.32,257.85C384.35,259.22 384.39,260.58 384.42,261.95C384.45,263.31 384.48,264.68 384.5,266.04C384.52,267.4 384.53,268.77 384.55,270.13C384.57,271.5 384.58,272.86 384.6,274.23C384.62,275.59 384.63,276.96 384.65,278.32C384.67,279.68 384.69,281.05 384.72,282.41C384.75,283.77 384.79,285.14 384.82,286.5C384.86,287.87 384.89,289.23 384.93,290.6C384.97,291.96 385.01,293.33 385.04,294.69C385.07,296.05 385.1,297.42 385.13,298.78C385.16,300.15 385.18,301.51 385.2,302.88C385.22,304.24 385.24,305.61 385.25,306.97C385.26,308.33 385.27,309.7 385.28,311.06C385.29,312.42 385.31,313.79 385.32,315.15C385.33,316.52 385.34,317.88 385.36,319.25C385.37,320.61 385.39,321.98 385.41,323.34C385.43,324.7 385.44,326.07 385.46,327.43C385.48,328.8 385.5,330.16 385.51,331.53C385.52,332.89 385.52,334.26 385.53,335.62C385.54,336.98 385.55,338.35 385.55,339.71C385.55,341.08 385.55,342.44 385.55,343.81C385.55,345.17 385.55,346.54 385.55,347.9C385.55,349.26 385.56,350.63 385.56,351.99C385.56,353.35 385.57,354.72 385.57,356.08C385.58,357.45 385.58,358.81 385.59,360.18C385.6,361.54 385.61,362.91 385.62,364.27C385.63,365.63 385.65,367 385.66,368.36C385.67,369.73 385.68,371.09 385.7,372.46C385.71,373.82 385.73,375.19 385.75,376.55C385.77,377.91 385.78,379.28 385.8,380.64C385.81,382 385.83,383.37 385.84,384.73C385.85,386.1 385.87,387.46 385.88,388.83C385.89,390.19 385.89,391.56 385.9,392.92C385.91,394.28 385.92,395.65 385.92,397.01C385.93,398.38 385.93,399.74 385.93,401.11C385.93,402.47 385.93,403.84 385.93,405.2C385.93,406.56 385.94,407.93 385.94,409.29C385.94,410.65 385.94,412.02 385.94,413.38C385.94,414.75 385.94,416.11 385.94,417.48C385.94,418.84 385.94,420.21 385.94,421.57C385.94,422.93 385.94,424.3 385.94,425.66C385.94,427.03 385.94,428.39 385.94,429.76C385.94,431.12 385.94,432.49 385.94,433.85C385.94,435.21 385.94,436.58 385.94,437.94C385.94,439.31 385.94,440.67 385.94,442.04C385.94,443.4 385.94,444.77 385.94,446.13C385.94,447.49 385.94,448.86 385.94,450.22C385.94,451.58 385.94,452.95 385.94,454.31C385.94,455.68 385.94,457.04 385.94,458.41C385.94,459.77 385.94,461.14 385.94,462.5C385.94,463.86 385.94,465.23 385.94,466.59C385.94,467.96 385.94,469.32 385.94,470.69C385.94,472.05 385.94,473.42 385.94,474.78C385.94,476.14 385.94,477.51 385.94,478.87C385.94,480.23 385.94,481.6 385.94,482.96C385.94,484.33 385.94,485.69 385.94,487.06C385.94,488.42 385.94,489.79 385.94,491.15C385.94,492.51 385.94,493.88 385.94,495.24C385.94,496.61 385.94,497.97 385.94,499.34C385.94,500.7 385.94,502.07 385.94,503.43C385.94,504.79 385.94,506.16 385.94,507.52C385.94,508.89 385.93,510.25 385.93,511.62C385.93,512.98 385.93,514.35 385.93,515.71C385.93,517.07 385.92,518.44 385.92,519.8C385.92,521.16 385.92,522.53 385.92,523.89C385.92,525.26 385.91,526.62 385.91,527.99C385.91,529.35 385.9,530.72 385.9,532.08C385.9,533.44 385.89,534.81 385.89,536.17Q385.89,537.54 385.89,540.27L385.94,540.27" style="vector-effect: non-scaling-stroke; stroke-width: 2px; stroke: rgb(0, 0, 255); stroke-opacity: 1; fill: rgb(0, 0, 255); fill-opacity: 0.5;"/><path class="meanline" d="M369.9698181152344,92.94H385.94" style="fill: none; vector-effect: non-scaling-stroke; stroke-width: 3px; stroke-dasharray: 6px, 3px; stroke: rgb(255, 255, 255); stroke-opacity: 1;"/></g><g class="trace violins" style="opacity: 1;"><path class="violin" d="M385.94,540.27L386.22,540.27Q386.21,535.66 386.2,533.35C386.19,531.04 386.17,528.74 386.16,526.43C386.14,524.12 386.13,521.82 386.11,519.51C386.09,517.21 386.07,514.9 386.05,512.6C386.03,510.29 386.02,507.99 386.01,505.68C386,503.37 385.99,501.07 385.98,498.76C385.97,496.45 385.96,494.15 385.96,491.84C385.96,489.53 385.96,487.23 385.96,484.92C385.96,482.62 385.96,480.31 385.96,478.01C385.96,475.7 385.97,473.4 385.98,471.09C385.99,468.78 386.01,466.48 386.02,464.17C386.04,461.86 386.05,459.56 386.07,457.25C386.09,454.95 386.11,452.64 386.13,450.34C386.15,448.03 386.18,445.73 386.2,443.42C386.22,441.11 386.24,438.81 386.26,436.5C386.28,434.19 386.29,431.89 386.3,429.58C386.31,427.28 386.33,424.97 386.34,422.67C386.35,420.36 386.35,418.06 386.36,415.75C386.37,413.44 386.38,411.14 386.39,408.83C386.4,406.52 386.41,404.22 386.43,401.91C386.45,399.61 386.47,397.3 386.49,395C386.52,392.69 386.54,390.39 386.58,388.08C386.62,385.77 386.66,383.47 386.71,381.16C386.76,378.85 386.81,376.55 386.87,374.24C386.93,371.94 387,369.63 387.07,367.33C387.14,365.02 387.21,362.72 387.28,360.41C387.35,358.1 387.42,355.8 387.49,353.49C387.56,351.18 387.64,348.88 387.71,346.57C387.78,344.26 387.85,341.96 387.92,339.65C387.99,337.35 388.07,335.04 388.15,332.74C388.23,330.43 388.31,328.13 388.39,325.82C388.47,323.51 388.56,321.21 388.65,318.9C388.74,316.59 388.83,314.29 388.92,311.98C389.01,309.68 389.1,307.37 389.18,305.07C389.27,302.76 389.35,300.46 389.43,298.15C389.51,295.84 389.6,293.54 389.68,291.23C389.76,288.92 389.84,286.62 389.93,284.31C390.01,282.01 390.1,279.7 390.19,277.4C390.28,275.09 390.37,272.79 390.46,270.48C390.55,268.17 390.65,265.87 390.75,263.56C390.86,261.25 390.96,258.95 391.09,256.64C391.22,254.34 391.35,252.03 391.52,249.73C391.69,247.42 391.88,245.12 392.09,242.81C392.31,240.5 392.55,238.2 392.81,235.89C393.07,233.58 393.37,231.27 393.67,228.97C393.97,226.66 394.31,224.36 394.62,222.06C394.94,219.75 395.26,217.45 395.56,215.14C395.86,212.83 396.15,210.53 396.42,208.22C396.69,205.91 396.94,203.61 397.19,201.3C397.44,198.99 397.66,196.69 397.91,194.38C398.16,192.08 398.41,189.77 398.71,187.47C399.01,185.16 399.32,182.85 399.69,180.55C400.06,178.24 400.46,175.93 400.91,173.63C401.36,171.32 401.85,169.01 402.37,166.71C402.89,164.4 403.46,162.1 404.03,159.8C404.6,157.49 405.21,155.19 405.81,152.88C406.41,150.57 407.05,148.27 407.63,145.96C408.21,143.66 408.8,141.35 409.31,139.04C409.82,136.74 410.31,134.44 410.69,132.13C411.07,129.83 411.39,127.52 411.61,125.21C411.83,122.91 411.95,120.6 412.02,118.29C412.09,115.98 412.02,113.68 412.03,111.37C412.04,109.07 411.94,106.76 412.07,104.46C412.2,102.15 412.31,99.82 412.83,97.54C413.36,95.2 414.11,92.85 415.27,90.62C416.52,88.22 418.25,85.9 420.23,83.7C422.42,81.27 425.19,79.02 427.98,76.79C430.97,74.4 434.45,72.19 437.65,69.87C440.82,67.57 444.35,65.4 447.07,62.95C449.51,60.76 452.24,58.53 453.37,56.03Q454.34,53.87 454.13,49.12L385.94,49.12" style="vector-effect: non-scaling-stroke; stroke-width: 2px; stroke: rgb(0, 128, 0); stroke-opacity: 1; fill: rgb(0, 128, 0); fill-opacity: 0.5;"/><path class="meanline" d="M412.0097961425781,106.23H385.94" style="fill: none; vector-effect: non-scaling-stroke; stroke-width: 3px; stroke-dasharray: 6px, 3px; stroke: rgb(255, 255, 255); stroke-opacity: 1;"/></g><g class="trace violins" style="opacity: 1;"><path class="violin" d="M540.31,49.12L474.99,49.12Q472.12,53.11 472.12,55.1C472.12,57.1 473.53,59.25 475,61.09C476.77,63.31 479.76,65.17 482.52,67.08C485.56,69.18 489.18,71.08 492.55,73.07C495.96,75.08 499.58,77.01 502.86,79.06C505.98,81.01 509.09,82.96 511.79,85.05C514.27,86.97 516.6,88.94 518.53,91.04C520.29,92.95 521.82,94.96 523.02,97.03C524.14,98.96 524.97,100.99 525.59,103.02C526.19,104.98 526.53,107 526.75,109.01C526.97,111 526.98,113 526.94,115C526.9,117 526.7,119 526.48,120.99C526.26,122.99 525.94,124.99 525.6,126.98C525.26,128.98 524.84,130.98 524.43,132.97C524.02,134.97 523.56,136.96 523.12,138.96C522.68,140.96 522.21,142.95 521.78,144.95C521.35,146.94 520.92,148.94 520.55,150.94C520.18,152.93 519.83,154.93 519.55,156.93C519.27,158.92 519.03,160.92 518.85,162.92C518.68,164.91 518.56,166.91 518.5,168.91C518.44,170.91 518.45,172.9 518.5,174.9C518.55,176.9 518.67,178.9 518.83,180.89C518.99,182.89 519.2,184.89 519.45,186.88C519.7,188.88 520,190.88 520.32,192.87C520.64,194.87 521,196.87 521.37,198.86C521.74,200.86 522.15,202.85 522.55,204.85C522.96,206.85 523.38,208.84 523.8,210.84C524.21,212.83 524.63,214.82 525.04,216.82C525.44,218.81 525.84,220.81 526.23,222.81C526.61,224.81 526.99,226.8 527.35,228.8C527.71,230.8 528.05,232.79 528.39,234.79C528.73,236.79 529.07,238.78 529.4,240.78C529.73,242.78 530.04,244.77 530.36,246.77C530.68,248.77 530.99,250.76 531.3,252.76C531.6,254.76 531.9,256.75 532.19,258.75C532.48,260.75 532.76,262.74 533.03,264.74C533.3,266.74 533.55,268.73 533.8,270.73C534.05,272.73 534.28,274.72 534.51,276.72C534.74,278.72 534.95,280.71 535.16,282.71C535.36,284.71 535.56,286.7 535.74,288.7C535.92,290.7 536.09,292.69 536.25,294.69C536.41,296.69 536.57,298.68 536.72,300.68C536.87,302.68 537,304.67 537.13,306.67C537.26,308.67 537.37,310.66 537.48,312.66C537.58,314.66 537.68,316.65 537.76,318.65C537.84,320.65 537.91,322.64 537.97,324.64C538.03,326.64 538.08,328.63 538.11,330.63C538.14,332.63 538.16,334.62 538.17,336.62C538.18,338.62 538.18,340.61 538.19,342.61C538.19,344.61 538.2,346.6 538.2,348.6C538.21,350.6 538.2,352.59 538.22,354.59C538.24,356.59 538.26,358.58 538.3,360.58C538.34,362.58 538.39,364.57 538.45,366.57C538.51,368.57 538.59,370.56 538.67,372.56C538.75,374.56 538.84,376.55 538.93,378.55C539.02,380.54 539.12,382.54 539.21,384.53C539.3,386.53 539.38,388.52 539.46,390.52C539.53,392.52 539.6,394.51 539.66,396.51C539.72,398.51 539.77,400.5 539.82,402.5C539.86,404.5 539.9,406.49 539.93,408.49C539.96,410.49 539.98,412.48 539.99,414.48C540,416.48 540,418.47 540.01,420.47C540.01,422.47 540.02,424.46 540.02,426.46C540.02,428.46 540.02,430.45 540.02,432.45C540.02,434.45 540.03,436.44 540.03,438.44C540.04,440.44 540.04,442.43 540.05,444.43C540.06,446.43 540.08,448.42 540.09,450.42C540.1,452.42 540.12,454.41 540.13,456.41C540.15,458.41 540.16,460.4 540.18,462.4C540.19,464.4 540.21,466.39 540.22,468.39C540.23,470.39 540.24,472.38 540.25,474.38C540.26,476.38 540.26,478.37 540.26,480.37C540.26,482.37 540.26,484.36 540.26,486.36C540.26,488.36 540.26,490.35 540.26,492.35C540.26,494.35 540.25,496.34 540.25,498.34C540.25,500.34 540.24,502.33 540.24,504.33C540.24,506.33 540.23,508.32 540.23,510.32C540.23,512.32 540.22,514.31 540.22,516.31C540.22,518.31 540.21,520.3 540.21,522.3C540.21,524.3 540.2,526.29 540.2,528.29C540.2,530.29 540.19,532.28 540.19,534.28Q540.19,536.28 540.19,540.27L540.31,540.27" style="vector-effect: non-scaling-stroke; stroke-width: 2px; stroke: rgb(0, 0, 255); stroke-opacity: 1; fill: rgb(0, 0, 255); fill-opacity: 0.5;"/><path class="meanline" d="M526.4450073242188,121.3H540.31" style="fill: none; vector-effect: non-scaling-stroke; stroke-width: 3px; stroke-dasharray: 6px, 3px; stroke: rgb(255, 255, 255); stroke-opacity: 1;"/></g><g class="trace violins" style="opacity: 1;"><path class="violin" d="M540.31,540.27L540.31,540.27Q540.31,535.07 540.31,532.47C540.31,529.87 540.31,527.27 540.31,524.67C540.31,522.07 540.31,519.48 540.31,516.88C540.31,514.28 540.31,511.68 540.31,509.08C540.31,506.48 540.31,503.89 540.31,501.29C540.31,498.69 540.31,496.09 540.31,493.49C540.31,490.89 540.31,488.29 540.31,485.69C540.31,483.09 540.31,480.5 540.31,477.9C540.31,475.3 540.31,472.7 540.31,470.1C540.31,467.5 540.31,464.91 540.31,462.31C540.31,459.71 540.31,457.11 540.31,454.51C540.31,451.91 540.31,449.31 540.31,446.71C540.31,444.11 540.31,441.52 540.31,438.92C540.31,436.32 540.32,433.72 540.32,431.12C540.32,428.52 540.32,425.92 540.32,423.32C540.32,420.72 540.33,418.13 540.34,415.53C540.35,412.93 540.36,410.33 540.38,407.73C540.4,405.13 540.42,402.54 540.46,399.94C540.5,397.34 540.54,394.74 540.6,392.14C540.66,389.54 540.73,386.94 540.81,384.34C540.89,381.74 540.99,379.15 541.1,376.55C541.21,373.95 541.34,371.35 541.46,368.75C541.58,366.15 541.71,363.56 541.83,360.96C541.95,358.36 542.08,355.76 542.18,353.16C542.28,350.56 542.36,347.96 542.43,345.36C542.49,342.76 542.54,340.17 542.57,337.57C542.6,334.97 542.6,332.37 542.59,329.77C542.58,327.17 542.56,324.58 542.54,321.98C542.52,319.38 542.49,316.78 542.49,314.18C542.49,311.58 542.49,308.98 542.54,306.38C542.59,303.78 542.66,301.19 542.77,298.59C542.88,295.99 543.03,293.39 543.22,290.79C543.41,288.19 543.66,285.6 543.93,283C544.2,280.4 544.52,277.8 544.86,275.2C545.2,272.6 545.59,270 545.99,267.4C546.39,264.8 546.82,262.21 547.25,259.61C547.68,257.01 548.13,254.41 548.57,251.81C549.01,249.21 549.46,246.62 549.89,244.02C550.32,241.42 550.75,238.82 551.17,236.22C551.59,233.62 552,231.02 552.41,228.42C552.82,225.82 553.23,223.23 553.64,220.63C554.06,218.03 554.47,215.43 554.9,212.83C555.33,210.23 555.77,207.64 556.23,205.04C556.69,202.44 557.16,199.84 557.65,197.24C558.14,194.64 558.64,192.04 559.16,189.44C559.68,186.84 560.21,184.25 560.75,181.65C561.29,179.05 561.86,176.45 562.42,173.85C562.98,171.25 563.57,168.66 564.11,166.06C564.65,163.46 565.2,160.86 565.67,158.26C566.14,155.66 566.59,153.06 566.91,150.46C567.23,147.87 567.48,145.27 567.59,142.67C567.7,140.07 567.68,137.47 567.56,134.87C567.44,132.27 567.15,129.68 566.88,127.08C566.61,124.48 566.18,121.88 565.95,119.28C565.72,116.68 565.4,114.08 565.48,111.48C565.56,108.88 565.74,106.24 566.42,103.69C567.13,101.04 568.23,98.39 569.72,95.89C571.33,93.18 573.55,90.6 575.92,88.1C578.5,85.38 581.67,82.85 584.75,80.3C587.95,77.65 591.59,75.15 594.79,72.5C597.87,69.95 601.25,67.49 603.61,64.71C605.7,62.25 607.9,59.62 608.51,56.91Q609.07,54.41 607.59,49.12L540.31,49.12" style="vector-effect: non-scaling-stroke; stroke-width: 2px; stroke: rgb(0, 128, 0); stroke-opacity: 1; fill: rgb(0, 128, 0); fill-opacity: 0.5;"/><path class="meanline" d="M565.595458984375,109.05H540.31" style="fill: none; vector-effect: non-scaling-stroke; stroke-width: 3px; stroke-dasharray: 6px, 3px; stroke: rgb(255, 255, 255); stroke-opacity: 1;"/></g><g class="trace violins" style="opacity: 1;"><path class="violin" d="M694.69,49.12L626.49,49.12Q626.66,53.43 627.78,55.33C629.16,57.66 632.26,59.6 635.03,61.55C638.22,63.79 642.27,65.73 646.01,67.77C649.86,69.87 654.05,71.85 657.83,73.98C661.42,76 665.06,78.01 668.17,80.2C670.98,82.18 673.65,84.21 675.78,86.42C677.67,88.38 679.3,90.47 680.49,92.63C681.59,94.63 682.32,96.74 682.82,98.85C683.3,100.89 683.43,102.99 683.48,105.07C683.53,107.14 683.33,109.22 683.11,111.29C682.89,113.37 682.53,115.43 682.17,117.5C681.81,119.58 681.38,121.65 680.96,123.72C680.54,125.79 680.09,127.87 679.66,129.94C679.23,132.01 678.79,134.08 678.38,136.15C677.97,138.22 677.57,140.29 677.22,142.37C676.87,144.44 676.53,146.51 676.26,148.59C675.99,150.66 675.77,152.74 675.62,154.81C675.48,156.88 675.4,158.95 675.39,161.02C675.38,163.09 675.46,165.17 675.58,167.24C675.71,169.32 675.91,171.39 676.14,173.46C676.37,175.53 676.67,177.6 676.96,179.67C677.25,181.74 677.58,183.82 677.9,185.89C678.22,187.96 678.55,190.04 678.86,192.11C679.17,194.18 679.47,196.26 679.78,198.33C680.08,200.4 680.39,202.47 680.69,204.54C680.99,206.61 681.29,208.69 681.59,210.76C681.89,212.83 682.2,214.91 682.51,216.98C682.82,219.05 683.13,221.12 683.43,223.19C683.73,225.26 684.03,227.34 684.31,229.41C684.59,231.48 684.86,233.56 685.13,235.63C685.39,237.7 685.65,239.77 685.9,241.84C686.15,243.91 686.38,245.99 686.61,248.06C686.84,250.13 687.07,252.21 687.3,254.28C687.52,256.35 687.74,258.43 687.96,260.5C688.17,262.57 688.39,264.64 688.59,266.71C688.79,268.78 688.99,270.86 689.17,272.93C689.35,275 689.52,277.08 689.67,279.15C689.82,281.22 689.95,283.29 690.07,285.36C690.19,287.43 690.29,289.51 690.38,291.58C690.47,293.65 690.54,295.73 690.61,297.8C690.68,299.87 690.73,301.95 690.79,304.02C690.85,306.09 690.9,308.16 690.96,310.23C691.02,312.3 691.08,314.38 691.15,316.45C691.22,318.52 691.29,320.6 691.37,322.67C691.45,324.74 691.53,326.81 691.62,328.88C691.71,330.95 691.81,333.03 691.9,335.1C691.99,337.17 692.09,339.25 692.18,341.32C692.27,343.39 692.36,345.47 692.44,347.54C692.52,349.61 692.6,351.68 692.67,353.75C692.74,355.82 692.8,357.9 692.86,359.97C692.92,362.04 692.97,364.12 693.02,366.19C693.07,368.26 693.11,370.33 693.16,372.4C693.21,374.47 693.25,376.55 693.3,378.62C693.35,380.69 693.39,382.77 693.44,384.84C693.49,386.91 693.53,388.99 693.58,391.06C693.63,393.13 693.68,395.2 693.73,397.27C693.78,399.34 693.83,401.42 693.87,403.49C693.91,405.56 693.95,407.64 693.99,409.71C694.03,411.78 694.06,413.85 694.09,415.92C694.12,417.99 694.15,420.07 694.18,422.14C694.21,424.21 694.23,426.29 694.25,428.36C694.27,430.43 694.28,432.5 694.29,434.57C694.3,436.64 694.31,438.72 694.32,440.79C694.33,442.86 694.33,444.94 694.34,447.01C694.35,449.08 694.35,451.16 694.36,453.23C694.37,455.3 694.37,457.37 694.38,459.44C694.39,461.51 694.4,463.59 694.41,465.66C694.42,467.73 694.43,469.81 694.45,471.88C694.46,473.95 694.49,476.02 694.5,478.09C694.52,480.16 694.53,482.24 694.54,484.31C694.55,486.38 694.57,488.46 694.58,490.53C694.59,492.6 694.6,494.68 694.61,496.75C694.62,498.82 694.63,500.89 694.63,502.96C694.63,505.03 694.63,507.11 694.63,509.18C694.63,511.25 694.63,513.33 694.63,515.4C694.63,517.47 694.62,519.54 694.62,521.61C694.61,523.68 694.61,525.76 694.6,527.83C694.6,529.9 694.59,531.98 694.59,534.05Q694.59,536.12 694.59,540.27L694.69,540.27" style="vector-effect: non-scaling-stroke; stroke-width: 2px; stroke: rgb(0, 0, 255); stroke-opacity: 1; fill: rgb(0, 0, 255); fill-opacity: 0.5;"/><path class="meanline" d="M682.2632446289062,116.96H694.69" style="fill: none; vector-effect: non-scaling-stroke; stroke-width: 3px; stroke-dasharray: 6px, 3px; stroke: rgb(255, 255, 255); stroke-opacity: 1;"/></g><g class="trace violins" style="opacity: 1;"><path class="violin" d="M694.69,540.27L694.69,540.27Q694.69,533.72 694.69,530.44C694.69,527.17 694.7,523.89 694.7,520.62C694.71,517.35 694.71,514.07 694.72,510.8C694.73,507.52 694.73,504.25 694.75,500.97C694.77,497.7 694.79,494.42 694.82,491.15C694.85,487.88 694.9,484.6 694.95,481.33C695.01,478.05 695.07,474.78 695.15,471.5C695.23,468.23 695.33,464.95 695.44,461.68C695.56,458.41 695.69,455.13 695.84,451.86C695.99,448.59 696.17,445.31 696.36,442.04C696.55,438.76 696.75,435.49 696.97,432.21C697.19,428.94 697.43,425.66 697.67,422.39C697.91,419.12 698.16,415.84 698.39,412.57C698.63,409.29 698.86,406.02 699.08,402.74C699.3,399.47 699.52,396.19 699.7,392.92C699.88,389.65 700.04,386.37 700.17,383.1C700.3,379.82 700.4,376.55 700.48,373.27C700.55,370 700.59,366.72 700.62,363.45C700.65,360.18 700.64,356.9 700.64,353.63C700.64,350.36 700.62,347.08 700.62,343.81C700.62,340.53 700.62,337.26 700.66,333.98C700.7,330.71 700.75,327.43 700.86,324.16C700.97,320.89 701.11,317.61 701.3,314.34C701.49,311.06 701.73,307.78 702.01,304.51C702.29,301.23 702.63,297.96 702.99,294.69C703.36,291.41 703.76,288.14 704.2,284.87C704.64,281.59 705.12,278.31 705.63,275.04C706.14,271.76 706.68,268.49 707.26,265.22C707.84,261.94 708.44,258.67 709.09,255.4C709.74,252.12 710.44,248.85 711.15,245.58C711.86,242.3 712.62,239.02 713.37,235.75C714.12,232.47 714.92,229.2 715.67,225.93C716.42,222.66 717.19,219.39 717.89,216.11C718.59,212.84 719.28,209.56 719.89,206.28C720.5,203.01 721.07,199.74 721.56,196.46C722.05,193.19 722.48,189.92 722.82,186.64C723.16,183.37 723.44,180.09 723.62,176.81C723.8,173.54 723.89,170.26 723.88,166.99C723.87,163.72 723.77,160.44 723.57,157.17C723.37,153.89 723.05,150.62 722.7,147.35C722.35,144.07 721.87,140.8 721.48,137.52C721.1,134.25 720.59,130.98 720.39,127.7C720.19,124.43 719.99,121.14 720.28,117.88C720.58,114.59 721.1,111.26 722.18,108.05C723.31,104.7 724.99,101.39 727.02,98.23C729.2,94.83 732.07,91.6 734.99,88.41C738.07,85.04 741.75,81.86 745.09,78.58C748.42,75.31 752.15,72.17 755,68.76C757.64,65.61 760.46,62.38 761.75,58.94Q762.92,55.81 762.88,49.12L694.69,49.12" style="vector-effect: non-scaling-stroke; stroke-width: 2px; stroke: rgb(0, 128, 0); stroke-opacity: 1; fill: rgb(0, 128, 0); fill-opacity: 0.5;"/><path class="meanline" d="M720.584716796875,130.09H694.69" style="fill: none; vector-effect: non-scaling-stroke; stroke-width: 3px; stroke-dasharray: 6px, 3px; stroke: rgb(255, 255, 255); stroke-opacity: 1;"/></g><g class="trace violins" style="opacity: 1;"><path class="violin" d="M849.06,49.12L782.55,49.12Q780.53,53.44 780.87,55.49C781.24,57.7 783.22,59.89 785.1,61.87C787.32,64.21 790.65,66.2 793.73,68.25C797.05,70.46 800.87,72.49 804.39,74.63C807.88,76.75 811.52,78.81 814.76,81.01C817.79,83.07 820.76,85.16 823.29,87.39C825.59,89.43 827.71,91.54 829.42,93.77C830.98,95.81 832.27,97.96 833.26,100.14C834.2,102.21 834.83,104.37 835.29,106.52C835.74,108.63 835.92,110.77 836.03,112.9C836.14,115.02 836.05,117.16 835.93,119.28C835.81,121.41 835.55,123.54 835.28,125.66C835.01,127.79 834.66,129.92 834.3,132.04C833.94,134.17 833.54,136.3 833.14,138.42C832.74,140.55 832.3,142.67 831.9,144.79C831.49,146.92 831.08,149.04 830.71,151.17C830.34,153.29 829.98,155.42 829.69,157.55C829.4,159.67 829.15,161.8 828.97,163.93C828.79,166.05 828.67,168.18 828.63,170.31C828.59,172.44 828.62,174.56 828.72,176.69C828.82,178.82 829,180.95 829.21,183.07C829.42,185.2 829.71,187.32 830,189.44C830.29,191.57 830.63,193.69 830.96,195.82C831.29,197.95 831.64,200.07 831.98,202.2C832.31,204.33 832.65,206.45 832.97,208.58C833.29,210.71 833.59,212.83 833.89,214.96C834.19,217.09 834.48,219.21 834.78,221.34C835.08,223.47 835.37,225.59 835.68,227.72C835.99,229.84 836.3,231.97 836.63,234.09C836.96,236.22 837.3,238.34 837.64,240.47C837.98,242.6 838.34,244.72 838.69,246.85C839.04,248.98 839.4,251.1 839.74,253.23C840.08,255.36 840.43,257.48 840.75,259.61C841.07,261.74 841.39,263.86 841.68,265.99C841.97,268.12 842.25,270.24 842.5,272.37C842.75,274.49 842.98,276.61 843.19,278.74C843.4,280.86 843.58,282.99 843.74,285.12C843.9,287.25 844.03,289.37 844.15,291.5C844.27,293.63 844.37,295.75 844.46,297.88C844.55,300.01 844.63,302.13 844.7,304.26C844.77,306.39 844.83,308.51 844.9,310.64C844.97,312.77 845.04,314.89 845.11,317.02C845.18,319.14 845.26,321.27 845.34,323.39C845.42,325.52 845.51,327.64 845.6,329.77C845.69,331.9 845.79,334.02 845.89,336.15C845.99,338.28 846.1,340.4 846.2,342.53C846.31,344.66 846.42,346.78 846.52,348.91C846.62,351.04 846.71,353.16 846.81,355.29C846.9,357.42 847,359.54 847.09,361.67C847.17,363.79 847.25,365.92 847.32,368.04C847.39,370.17 847.47,372.29 847.53,374.42C847.59,376.55 847.65,378.67 847.7,380.8C847.75,382.93 847.8,385.05 847.84,387.18C847.88,389.31 847.92,391.43 847.96,393.56C848,395.69 848.03,397.81 848.06,399.94C848.09,402.07 848.11,404.19 848.14,406.32C848.17,408.44 848.2,410.57 848.22,412.69C848.24,414.82 848.25,416.94 848.27,419.07C848.29,421.2 848.31,423.32 848.33,425.45C848.35,427.58 848.36,429.7 848.38,431.83C848.4,433.96 848.41,436.08 848.43,438.21C848.45,440.34 848.47,442.46 848.49,444.59C848.51,446.72 848.54,448.84 848.57,450.97C848.59,453.09 848.62,455.22 848.64,457.34C848.67,459.47 848.69,461.59 848.72,463.72C848.74,465.85 848.77,467.97 848.79,470.1C848.81,472.23 848.83,474.35 848.85,476.48C848.87,478.61 848.88,480.73 848.89,482.86C848.9,484.99 848.91,487.11 848.92,489.24C848.93,491.37 848.93,493.49 848.94,495.62C848.94,497.74 848.95,499.87 848.95,501.99C848.95,504.12 848.95,506.24 848.95,508.37C848.95,510.5 848.94,512.62 848.94,514.75C848.93,516.88 848.93,519 848.92,521.13C848.91,523.26 848.91,525.38 848.9,527.51C848.9,529.64 848.89,531.76 848.89,533.89Q848.89,536.02 848.89,540.27L849.06,540.27" style="vector-effect: non-scaling-stroke; stroke-width: 2px; stroke: rgb(0, 0, 255); stroke-opacity: 1; fill: rgb(0, 0, 255); fill-opacity: 0.5;"/><path class="meanline" d="M835.6604614257812,122.48H849.06" style="fill: none; vector-effect: non-scaling-stroke; stroke-width: 3px; stroke-dasharray: 6px, 3px; stroke: rgb(255, 255, 255); stroke-opacity: 1;"/></g><g class="trace violins" style="opacity: 1;"><path class="violin" d="M849.06,540.27L849.06,540.27Q849.06,534.42 849.06,531.49C849.06,528.57 849.06,525.64 849.06,522.72C849.06,519.8 849.06,516.87 849.06,513.95C849.06,511.03 849.06,508.1 849.06,505.18C849.06,502.26 849.06,499.33 849.06,496.41C849.06,493.49 849.06,490.56 849.06,487.64C849.06,484.72 849.06,481.79 849.06,478.87C849.06,475.95 849.07,473.02 849.07,470.1C849.07,467.18 849.07,464.25 849.07,461.33C849.07,458.41 849.08,455.48 849.08,452.56C849.09,449.64 849.09,446.71 849.1,443.79C849.11,440.87 849.12,437.94 849.14,435.02C849.16,432.1 849.17,429.17 849.2,426.25C849.23,423.33 849.26,420.4 849.3,417.48C849.34,414.56 849.38,411.63 849.42,408.71C849.47,405.79 849.51,402.86 849.57,399.94C849.63,397.02 849.69,394.09 849.76,391.17C849.83,388.25 849.89,385.32 849.97,382.4C850.05,379.48 850.14,376.55 850.23,373.63C850.32,370.7 850.42,367.78 850.53,364.85C850.63,361.93 850.74,359 850.86,356.08C850.98,353.16 851.11,350.23 851.24,347.31C851.37,344.39 851.51,341.46 851.66,338.54C851.81,335.62 851.96,332.69 852.14,329.77C852.32,326.85 852.51,323.92 852.73,321C852.95,318.08 853.18,315.15 853.44,312.23C853.7,309.31 853.98,306.38 854.28,303.46C854.58,300.54 854.9,297.61 855.24,294.69C855.58,291.77 855.93,288.84 856.3,285.92C856.67,283 857.07,280.07 857.48,277.15C857.89,274.23 858.32,271.3 858.75,268.38C859.18,265.46 859.63,262.53 860.07,259.61C860.51,256.69 860.95,253.76 861.38,250.84C861.81,247.92 862.23,244.99 862.64,242.07C863.05,239.15 863.45,236.22 863.85,233.3C864.26,230.38 864.64,227.45 865.07,224.53C865.5,221.61 865.93,218.68 866.41,215.76C866.89,212.83 867.4,209.9 867.94,206.98C868.49,204.05 869.08,201.13 869.68,198.21C870.28,195.28 870.94,192.36 871.55,189.44C872.16,186.52 872.8,183.6 873.33,180.67C873.86,177.75 874.38,174.83 874.74,171.9C875.1,168.98 875.39,166.06 875.5,163.13C875.61,160.21 875.58,157.28 875.42,154.36C875.26,151.43 874.91,148.51 874.53,145.59C874.15,142.66 873.59,139.74 873.13,136.82C872.67,133.9 872.09,130.98 871.75,128.05C871.42,125.13 871.06,122.2 871.12,119.28C871.18,116.35 871.4,113.39 872.11,110.51C872.85,107.54 874,104.57 875.55,101.74C877.22,98.7 879.49,95.79 881.96,92.97C884.63,89.92 887.92,87.07 891.14,84.2C894.5,81.22 898.33,78.39 901.75,75.43C905.08,72.55 908.73,69.76 911.4,66.66C913.8,63.88 916.34,60.96 917.26,57.89Q918.1,55.09 917.18,49.12L849.06,49.12" style="vector-effect: non-scaling-stroke; stroke-width: 2px; stroke: rgb(0, 128, 0); stroke-opacity: 1; fill: rgb(0, 128, 0); fill-opacity: 0.5;"/><path class="meanline" d="M871.370849609375,114.88H849.06" style="fill: none; vector-effect: non-scaling-stroke; stroke-width: 3px; stroke-dasharray: 6px, 3px; stroke: rgb(255, 255, 255); stroke-opacity: 1;"/></g><g class="trace violins" style="opacity: 1;"><path class="violin" d="M1003.44,49.12L935.24,49.12Q935.22,51.25 935.92,52.11C937,53.43 940.04,54.18 942.53,55.1C945.56,56.22 949.34,57.12 952.87,58.1C956.54,59.12 960.51,60.06 964.14,61.09C967.56,62.06 971.01,63.02 974.04,64.09C976.69,65.03 979.25,65.97 981.37,67.08C983.14,68 984.77,68.98 986,70.08C987.03,71 987.86,72.02 988.43,73.07C988.94,74.02 989.21,75.06 989.38,76.07C989.55,77.06 989.51,78.06 989.48,79.06C989.45,80.06 989.3,81.06 989.17,82.06C989.04,83.06 988.86,84.05 988.72,85.05C988.58,86.05 988.43,87.05 988.31,88.05C988.2,89.05 988.1,90.04 988.03,91.04C987.96,92.04 987.92,93.04 987.91,94.04C987.9,95.04 987.93,96.03 987.97,97.03C988.01,98.03 988.09,99.03 988.18,100.03C988.27,101.03 988.39,102.02 988.52,103.02C988.65,104.02 988.81,105.02 988.98,106.02C989.15,107.02 989.34,108.01 989.54,109.01C989.74,110.01 989.95,111.01 990.17,112.01C990.39,113.01 990.62,114 990.84,115C991.06,116 991.28,117 991.49,118C991.7,119 991.91,119.99 992.1,120.99C992.29,121.99 992.47,122.99 992.65,123.99C992.83,124.99 993.01,125.98 993.19,126.98C993.37,127.98 993.54,128.98 993.73,129.98C993.92,130.98 994.11,131.97 994.31,132.97C994.51,133.97 994.73,134.96 994.94,135.96C995.15,136.96 995.37,137.96 995.59,138.96C995.81,139.96 996.03,140.95 996.25,141.95C996.47,142.95 996.69,143.95 996.9,144.95C997.11,145.95 997.33,146.94 997.53,147.94C997.73,148.94 997.93,149.94 998.11,150.94C998.29,151.94 998.46,152.93 998.62,153.93C998.77,154.93 998.91,155.93 999.04,156.93C999.16,157.93 999.28,158.92 999.37,159.92C999.46,160.92 999.54,161.92 999.6,162.92C999.66,163.92 999.71,164.91 999.74,165.91C999.77,166.91 999.78,167.91 999.79,168.91C999.8,169.91 999.79,170.9 999.79,171.9C999.79,172.9 999.79,173.9 999.79,174.9C999.79,175.9 999.78,176.89 999.79,177.89C999.8,178.89 999.82,179.89 999.85,180.89C999.88,181.89 999.91,182.88 999.95,183.88C999.99,184.88 1000.04,185.88 1000.09,186.88C1000.14,187.88 1000.21,188.87 1000.27,189.87C1000.33,190.87 1000.4,191.87 1000.47,192.87C1000.54,193.87 1000.61,194.86 1000.69,195.86C1000.77,196.86 1000.85,197.86 1000.93,198.86C1001.01,199.86 1001.09,200.85 1001.17,201.85C1001.25,202.85 1001.34,203.85 1001.42,204.85C1001.5,205.85 1001.58,206.84 1001.66,207.84C1001.74,208.84 1001.81,209.84 1001.89,210.84C1001.96,211.84 1002.04,212.83 1002.11,213.83C1002.18,214.83 1002.24,215.82 1002.3,216.82C1002.36,217.82 1002.42,218.82 1002.47,219.82C1002.52,220.82 1002.56,221.81 1002.6,222.81C1002.64,223.81 1002.66,224.81 1002.69,225.81C1002.72,226.81 1002.74,227.8 1002.76,228.8C1002.78,229.8 1002.79,230.8 1002.8,231.8C1002.81,232.8 1002.82,233.79 1002.82,234.79C1002.83,235.79 1002.83,236.79 1002.83,237.79C1002.83,238.79 1002.83,239.78 1002.83,240.78C1002.83,241.78 1002.82,242.78 1002.82,243.78C1002.82,244.78 1002.82,245.77 1002.82,246.77C1002.82,247.77 1002.82,248.77 1002.82,249.77C1002.82,250.77 1002.83,251.76 1002.84,252.76C1002.85,253.76 1002.85,254.76 1002.86,255.76C1002.87,256.76 1002.88,257.75 1002.89,258.75C1002.9,259.75 1002.92,260.75 1002.93,261.75C1002.94,262.75 1002.95,263.74 1002.96,264.74C1002.97,265.74 1002.97,266.74 1002.98,267.74C1002.99,268.74 1003,269.73 1003,270.73C1003.01,271.73 1003,272.73 1003.01,273.73C1003.01,274.73 1003.02,275.72 1003.03,276.72C1003.04,277.72 1003.04,278.72 1003.05,279.72C1003.06,280.72 1003.06,281.71 1003.07,282.71C1003.08,283.71 1003.09,284.71 1003.1,285.71C1003.11,286.71 1003.12,287.7 1003.13,288.7C1003.14,289.7 1003.15,290.7 1003.16,291.7C1003.17,292.7 1003.17,293.69 1003.18,294.69C1003.19,295.69 1003.19,296.69 1003.2,297.69C1003.21,298.69 1003.22,299.68 1003.23,300.68C1003.24,301.68 1003.25,302.67 1003.26,303.67C1003.27,304.67 1003.28,305.67 1003.29,306.67C1003.3,307.67 1003.32,308.66 1003.33,309.66C1003.34,310.66 1003.35,311.66 1003.36,312.66C1003.37,313.66 1003.38,314.65 1003.39,315.65C1003.4,316.65 1003.4,317.65 1003.41,318.65C1003.41,319.65 1003.42,320.64 1003.42,321.64C1003.42,322.64 1003.42,323.64 1003.42,324.64C1003.42,325.64 1003.42,326.63 1003.42,327.63C1003.42,328.63 1003.42,329.63 1003.42,330.63C1003.42,331.63 1003.41,332.62 1003.41,333.62C1003.41,334.62 1003.4,335.62 1003.4,336.62C1003.4,337.62 1003.39,338.61 1003.39,339.61C1003.39,340.61 1003.38,341.61 1003.38,342.61C1003.38,343.61 1003.38,344.6 1003.38,345.6C1003.38,346.6 1003.38,347.6 1003.38,348.6C1003.38,349.6 1003.38,350.59 1003.38,351.59C1003.38,352.59 1003.38,353.59 1003.38,354.59C1003.38,355.59 1003.38,356.58 1003.38,357.58C1003.38,358.58 1003.38,359.58 1003.38,360.58C1003.38,361.58 1003.39,362.57 1003.39,363.57C1003.39,364.57 1003.4,365.57 1003.4,366.57C1003.4,367.57 1003.41,368.56 1003.41,369.56C1003.41,370.56 1003.42,371.56 1003.42,372.56C1003.42,373.56 1003.42,374.55 1003.42,375.55C1003.42,376.55 1003.43,377.55 1003.43,378.55C1003.43,379.55 1003.43,380.54 1003.43,381.54C1003.43,382.54 1003.44,383.53 1003.44,384.53C1003.44,385.53 1003.44,386.53 1003.44,387.53C1003.44,388.53 1003.44,389.52 1003.44,390.52C1003.44,391.52 1003.44,392.52 1003.44,393.52C1003.44,394.52 1003.44,395.51 1003.44,396.51C1003.44,397.51 1003.44,398.51 1003.44,399.51C1003.44,400.51 1003.44,401.5 1003.44,402.5C1003.44,403.5 1003.44,404.5 1003.44,405.5C1003.44,406.5 1003.44,407.49 1003.44,408.49C1003.44,409.49 1003.44,410.49 1003.44,411.49C1003.44,412.49 1003.44,413.48 1003.44,414.48C1003.44,415.48 1003.44,416.48 1003.44,417.48C1003.44,418.48 1003.44,419.47 1003.44,420.47C1003.44,421.47 1003.44,422.47 1003.44,423.47C1003.44,424.47 1003.44,425.46 1003.44,426.46C1003.44,427.46 1003.44,428.46 1003.44,429.46C1003.44,430.46 1003.44,431.45 1003.44,432.45C1003.44,433.45 1003.44,434.45 1003.44,435.45C1003.44,436.45 1003.44,437.44 1003.44,438.44C1003.44,439.44 1003.44,440.44 1003.44,441.44C1003.44,442.44 1003.44,443.43 1003.44,444.43C1003.44,445.43 1003.44,446.43 1003.44,447.43C1003.44,448.43 1003.44,449.42 1003.44,450.42C1003.44,451.42 1003.44,452.42 1003.44,453.42C1003.44,454.42 1003.44,455.41 1003.44,456.41C1003.44,457.41 1003.44,458.41 1003.44,459.41C1003.44,460.41 1003.44,461.4 1003.44,462.4C1003.44,463.4 1003.44,464.39 1003.44,465.39C1003.44,466.39 1003.44,467.39 1003.44,468.39C1003.44,469.39 1003.44,470.38 1003.44,471.38C1003.44,472.38 1003.44,473.38 1003.44,474.38C1003.44,475.38 1003.44,476.37 1003.44,477.37C1003.44,478.37 1003.44,479.37 1003.44,480.37C1003.44,481.37 1003.44,482.36 1003.44,483.36C1003.44,484.36 1003.44,485.36 1003.44,486.36C1003.44,487.36 1003.44,488.35 1003.44,489.35C1003.44,490.35 1003.44,491.35 1003.44,492.35C1003.44,493.35 1003.44,494.34 1003.44,495.34C1003.44,496.34 1003.44,497.34 1003.44,498.34C1003.44,499.34 1003.44,500.33 1003.44,501.33C1003.44,502.33 1003.44,503.33 1003.44,504.33C1003.44,505.33 1003.44,506.32 1003.44,507.32C1003.44,508.32 1003.44,509.32 1003.44,510.32C1003.44,511.32 1003.44,512.31 1003.44,513.31C1003.44,514.31 1003.44,515.31 1003.44,516.31C1003.44,517.31 1003.43,518.3 1003.43,519.3C1003.43,520.3 1003.43,521.3 1003.43,522.3C1003.43,523.3 1003.42,524.29 1003.42,525.29C1003.42,526.29 1003.42,527.29 1003.42,528.29C1003.42,529.29 1003.41,530.28 1003.41,531.28C1003.41,532.28 1003.4,533.28 1003.4,534.28C1003.4,535.28 1003.39,536.27 1003.39,537.27Q1003.39,538.27 1003.39,540.27L1003.44,540.27" style="vector-effect: non-scaling-stroke; stroke-width: 2px; stroke: rgb(0, 0, 255); stroke-opacity: 1; fill: rgb(0, 0, 255); fill-opacity: 0.5;"/><path class="meanline" d="M989.2096557617188,81.76H1003.44" style="fill: none; vector-effect: non-scaling-stroke; stroke-width: 3px; stroke-dasharray: 6px, 3px; stroke: rgb(255, 255, 255); stroke-opacity: 1;"/></g><g class="trace violins" style="opacity: 1;"><path class="violin" d="M1003.44,540.27L1003.44,540.27Q1003.44,536.12 1003.44,534.05C1003.44,531.98 1003.44,529.9 1003.44,527.83C1003.44,525.76 1003.44,523.68 1003.44,521.61C1003.44,519.54 1003.44,517.47 1003.44,515.4C1003.44,513.33 1003.44,511.25 1003.44,509.18C1003.44,507.11 1003.44,505.03 1003.44,502.96C1003.44,500.89 1003.44,498.82 1003.44,496.75C1003.44,494.68 1003.44,492.6 1003.44,490.53C1003.44,488.46 1003.44,486.38 1003.44,484.31C1003.44,482.24 1003.44,480.16 1003.44,478.09C1003.44,476.02 1003.44,473.95 1003.44,471.88C1003.44,469.81 1003.44,467.73 1003.44,465.66C1003.44,463.59 1003.44,461.51 1003.44,459.44C1003.44,457.37 1003.44,455.3 1003.44,453.23C1003.44,451.16 1003.44,449.08 1003.44,447.01C1003.44,444.94 1003.44,442.86 1003.44,440.79C1003.44,438.72 1003.44,436.64 1003.44,434.57C1003.44,432.5 1003.45,430.43 1003.45,428.36C1003.45,426.29 1003.45,424.21 1003.46,422.14C1003.47,420.07 1003.48,417.99 1003.49,415.92C1003.5,413.85 1003.52,411.78 1003.54,409.71C1003.56,407.64 1003.58,405.56 1003.6,403.49C1003.63,401.42 1003.66,399.34 1003.69,397.27C1003.72,395.2 1003.75,393.13 1003.78,391.06C1003.81,388.99 1003.84,386.91 1003.87,384.84C1003.9,382.77 1003.93,380.69 1003.96,378.62C1003.99,376.55 1004.01,374.47 1004.04,372.4C1004.06,370.33 1004.09,368.26 1004.11,366.19C1004.14,364.12 1004.17,362.04 1004.19,359.97C1004.21,357.9 1004.23,355.82 1004.25,353.75C1004.27,351.68 1004.28,349.61 1004.29,347.54C1004.3,345.47 1004.3,343.39 1004.29,341.32C1004.28,339.25 1004.26,337.17 1004.24,335.1C1004.22,333.03 1004.2,330.95 1004.18,328.88C1004.16,326.81 1004.14,324.74 1004.13,322.67C1004.12,320.6 1004.12,318.52 1004.13,316.45C1004.14,314.38 1004.17,312.3 1004.21,310.23C1004.25,308.16 1004.29,306.09 1004.35,304.02C1004.41,301.95 1004.48,299.87 1004.56,297.8C1004.64,295.73 1004.73,293.65 1004.83,291.58C1004.93,289.51 1005.03,287.43 1005.15,285.36C1005.27,283.29 1005.41,281.22 1005.56,279.15C1005.71,277.08 1005.87,275 1006.04,272.93C1006.21,270.86 1006.4,268.78 1006.57,266.71C1006.74,264.64 1006.93,262.57 1007.08,260.5C1007.23,258.43 1007.37,256.35 1007.48,254.28C1007.59,252.21 1007.67,250.13 1007.72,248.06C1007.77,245.99 1007.77,243.91 1007.78,241.84C1007.79,239.77 1007.75,237.7 1007.76,235.63C1007.77,233.56 1007.76,231.48 1007.82,229.41C1007.88,227.34 1007.96,225.26 1008.11,223.19C1008.27,221.12 1008.48,219.05 1008.75,216.98C1009.02,214.9 1009.36,212.83 1009.72,210.76C1010.08,208.68 1010.5,206.61 1010.9,204.54C1011.3,202.47 1011.74,200.4 1012.13,198.33C1012.52,196.26 1012.91,194.19 1013.25,192.11C1013.59,190.04 1013.9,187.97 1014.19,185.89C1014.48,183.82 1014.73,181.74 1014.98,179.67C1015.23,177.6 1015.46,175.53 1015.7,173.46C1015.94,171.39 1016.17,169.31 1016.42,167.24C1016.67,165.17 1016.93,163.09 1017.19,161.02C1017.45,158.95 1017.73,156.88 1018,154.81C1018.27,152.74 1018.55,150.66 1018.83,148.59C1019.12,146.52 1019.4,144.44 1019.71,142.37C1020.02,140.3 1020.33,138.22 1020.67,136.15C1021.01,134.08 1021.36,132.01 1021.74,129.94C1022.12,127.87 1022.53,125.79 1022.93,123.72C1023.33,121.65 1023.75,119.57 1024.15,117.5C1024.55,115.43 1024.94,113.36 1025.32,111.29C1025.7,109.22 1026.03,107.14 1026.42,105.07C1026.81,102.99 1027.15,100.91 1027.67,98.85C1028.2,96.76 1028.73,94.66 1029.58,92.63C1030.47,90.51 1031.54,88.41 1032.94,86.42C1034.46,84.25 1036.39,82.18 1038.51,80.2C1040.85,78.02 1043.68,75.99 1046.51,73.98C1049.52,71.84 1052.95,69.86 1056.1,67.77C1059.19,65.72 1062.61,63.77 1065.23,61.55C1067.54,59.59 1070.17,57.6 1071.18,55.33Q1072.04,53.4 1071.63,49.12L1003.44,49.12" style="vector-effect: non-scaling-stroke; stroke-width: 2px; stroke: rgb(0, 128, 0); stroke-opacity: 1; fill: rgb(0, 128, 0); fill-opacity: 0.5;"/><path class="meanline" d="M1028.8839111328125,94.5H1003.44" style="fill: none; vector-effect: non-scaling-stroke; stroke-width: 3px; stroke-dasharray: 6px, 3px; stroke: rgb(255, 255, 255); stroke-opacity: 1;"/></g><g class="trace violins" style="opacity: 1;"><path class="violin" d="M1157.81,49.12L1089.62,49.12Q1089.85,50.87 1090.56,51.57C1091.74,52.72 1094.83,53.28 1097.36,54.03C1100.43,54.95 1104.22,55.68 1107.75,56.48C1111.41,57.31 1115.34,58.09 1118.93,58.94C1122.3,59.73 1125.69,60.51 1128.68,61.39C1131.28,62.16 1133.78,62.94 1135.88,63.85C1137.61,64.61 1139.21,65.39 1140.46,66.31C1141.48,67.06 1142.34,67.88 1142.96,68.76C1143.51,69.53 1143.85,70.38 1144.1,71.22C1144.34,72.02 1144.4,72.85 1144.46,73.67C1144.52,74.49 1144.48,75.31 1144.46,76.13C1144.44,76.95 1144.37,77.76 1144.32,78.58C1144.26,79.4 1144.19,80.22 1144.13,81.04C1144.07,81.86 1144.01,82.68 1143.95,83.5C1143.9,84.32 1143.83,85.13 1143.8,85.95C1143.76,86.77 1143.74,87.59 1143.74,88.41C1143.74,89.23 1143.75,90.04 1143.79,90.86C1143.83,91.68 1143.91,92.5 1144.01,93.32C1144.12,94.14 1144.26,94.96 1144.42,95.77C1144.59,96.59 1144.79,97.41 1145,98.23C1145.21,99.05 1145.45,99.87 1145.69,100.69C1145.93,101.51 1146.2,102.32 1146.45,103.14C1146.7,103.96 1146.96,104.78 1147.21,105.6C1147.46,106.42 1147.7,107.23 1147.93,108.05C1148.16,108.87 1148.39,109.69 1148.6,110.51C1148.81,111.33 1149.02,112.14 1149.21,112.96C1149.4,113.78 1149.58,114.6 1149.75,115.42C1149.92,116.24 1150.08,117.06 1150.23,117.88C1150.38,118.7 1150.52,119.51 1150.66,120.33C1150.8,121.15 1150.93,121.97 1151.06,122.79C1151.19,123.61 1151.32,124.42 1151.45,125.24C1151.58,126.06 1151.7,126.88 1151.83,127.7C1151.96,128.52 1152.1,129.33 1152.22,130.15C1152.35,130.97 1152.47,131.79 1152.58,132.61C1152.69,133.43 1152.8,134.25 1152.89,135.07C1152.98,135.89 1153.06,136.7 1153.12,137.52C1153.18,138.34 1153.22,139.16 1153.26,139.98C1153.29,140.8 1153.31,141.61 1153.33,142.43C1153.35,143.25 1153.36,144.07 1153.37,144.89C1153.39,145.71 1153.4,146.53 1153.42,147.35C1153.44,148.17 1153.47,148.98 1153.51,149.8C1153.55,150.62 1153.6,151.44 1153.66,152.26C1153.72,153.08 1153.78,153.89 1153.85,154.71C1153.92,155.53 1153.99,156.35 1154.07,157.17C1154.14,157.99 1154.23,158.8 1154.3,159.62C1154.38,160.44 1154.45,161.26 1154.52,162.08C1154.59,162.9 1154.66,163.72 1154.73,164.54C1154.8,165.36 1154.86,166.17 1154.92,166.99C1154.98,167.81 1155.04,168.63 1155.1,169.45C1155.16,170.27 1155.21,171.08 1155.27,171.9C1155.33,172.72 1155.39,173.54 1155.46,174.36C1155.52,175.18 1155.59,175.99 1155.66,176.81C1155.73,177.63 1155.81,178.45 1155.89,179.27C1155.97,180.09 1156.05,180.91 1156.13,181.73C1156.21,182.55 1156.28,183.36 1156.35,184.18C1156.42,185 1156.48,185.82 1156.54,186.64C1156.59,187.46 1156.64,188.27 1156.68,189.09C1156.72,189.91 1156.74,190.73 1156.76,191.55C1156.78,192.37 1156.78,193.18 1156.79,194C1156.8,194.82 1156.8,195.64 1156.8,196.46C1156.8,197.28 1156.79,198.1 1156.79,198.92C1156.79,199.74 1156.79,200.55 1156.79,201.37C1156.79,202.19 1156.78,203.01 1156.78,203.83C1156.78,204.65 1156.78,205.46 1156.78,206.28C1156.78,207.1 1156.77,207.92 1156.77,208.74C1156.77,209.56 1156.77,210.37 1156.77,211.19C1156.77,212.01 1156.76,212.83 1156.76,213.65C1156.76,214.47 1156.76,215.29 1156.77,216.11C1156.78,216.93 1156.79,217.74 1156.8,218.56C1156.81,219.38 1156.82,220.2 1156.84,221.02C1156.86,221.84 1156.89,222.65 1156.91,223.47C1156.93,224.29 1156.95,225.11 1156.98,225.93C1157.01,226.75 1157.04,227.56 1157.07,228.38C1157.1,229.2 1157.12,230.02 1157.15,230.84C1157.18,231.66 1157.2,232.48 1157.23,233.3C1157.25,234.12 1157.28,234.93 1157.3,235.75C1157.32,236.57 1157.34,237.39 1157.36,238.21C1157.38,239.03 1157.4,239.84 1157.42,240.66C1157.44,241.48 1157.45,242.3 1157.47,243.12C1157.48,243.94 1157.5,244.76 1157.51,245.58C1157.52,246.4 1157.54,247.21 1157.55,248.03C1157.56,248.85 1157.56,249.67 1157.56,250.49C1157.56,251.31 1157.55,252.12 1157.55,252.94C1157.54,253.76 1157.54,254.58 1157.53,255.4C1157.52,256.22 1157.52,257.03 1157.51,257.85C1157.5,258.67 1157.49,259.49 1157.48,260.31C1157.47,261.13 1157.47,261.95 1157.46,262.77C1157.46,263.59 1157.45,264.4 1157.45,265.22C1157.45,266.04 1157.44,266.86 1157.44,267.68C1157.44,268.5 1157.45,269.31 1157.45,270.13C1157.46,270.95 1157.46,271.77 1157.47,272.59C1157.48,273.41 1157.49,274.22 1157.5,275.04C1157.51,275.86 1157.53,276.68 1157.54,277.5C1157.55,278.32 1157.57,279.14 1157.58,279.96C1157.59,280.78 1157.6,281.59 1157.61,282.41C1157.62,283.23 1157.63,284.05 1157.64,284.87C1157.65,285.69 1157.66,286.5 1157.66,287.32C1157.67,288.14 1157.67,288.96 1157.67,289.78C1157.67,290.6 1157.68,291.41 1157.68,292.23C1157.68,293.05 1157.69,293.87 1157.69,294.69C1157.69,295.51 1157.7,296.33 1157.7,297.15C1157.7,297.97 1157.71,298.78 1157.71,299.6C1157.71,300.42 1157.72,301.24 1157.72,302.06C1157.72,302.88 1157.73,303.69 1157.73,304.51C1157.73,305.33 1157.74,306.15 1157.74,306.97C1157.74,307.79 1157.74,308.6 1157.74,309.42C1157.74,310.24 1157.75,311.06 1157.75,311.88C1157.75,312.7 1157.76,313.52 1157.76,314.34C1157.76,315.16 1157.77,315.97 1157.77,316.79C1157.77,317.61 1157.78,318.43 1157.78,319.25C1157.78,320.07 1157.78,320.88 1157.78,321.7C1157.78,322.52 1157.79,323.34 1157.79,324.16C1157.79,324.98 1157.78,325.8 1157.78,326.62C1157.78,327.44 1157.78,328.25 1157.78,329.07C1157.78,329.89 1157.77,330.71 1157.77,331.53C1157.77,332.35 1157.76,333.16 1157.76,333.98C1157.76,334.8 1157.76,335.62 1157.76,336.44C1157.76,337.26 1157.77,338.07 1157.77,338.89C1157.77,339.71 1157.78,340.53 1157.78,341.35C1157.78,342.17 1157.79,342.99 1157.79,343.81C1157.79,344.63 1157.79,345.44 1157.79,346.26C1157.79,347.08 1157.8,347.9 1157.8,348.72C1157.8,349.54 1157.81,350.35 1157.81,351.17C1157.81,351.99 1157.81,352.81 1157.81,353.63C1157.81,354.45 1157.81,355.26 1157.81,356.08C1157.81,356.9 1157.81,357.72 1157.81,358.54C1157.81,359.36 1157.81,360.18 1157.81,361C1157.81,361.82 1157.81,362.63 1157.81,363.45C1157.81,364.27 1157.81,365.09 1157.81,365.91C1157.81,366.73 1157.81,367.54 1157.81,368.36C1157.81,369.18 1157.81,370 1157.81,370.82C1157.81,371.64 1157.81,372.45 1157.81,373.27C1157.81,374.09 1157.81,374.91 1157.81,375.73C1157.81,376.55 1157.81,377.37 1157.81,378.19C1157.81,379.01 1157.81,379.82 1157.81,380.64C1157.81,381.46 1157.81,382.28 1157.81,383.1C1157.81,383.92 1157.81,384.73 1157.81,385.55C1157.81,386.37 1157.81,387.19 1157.81,388.01C1157.81,388.83 1157.81,389.64 1157.81,390.46C1157.81,391.28 1157.8,392.1 1157.8,392.92C1157.8,393.74 1157.79,394.56 1157.79,395.38C1157.79,396.2 1157.79,397.01 1157.79,397.83C1157.79,398.65 1157.78,399.47 1157.78,400.29C1157.78,401.11 1157.77,401.92 1157.77,402.74C1157.77,403.56 1157.76,404.38 1157.76,405.2C1157.76,406.02 1157.76,406.83 1157.76,407.65C1157.76,408.47 1157.77,409.29 1157.77,410.11C1157.77,410.93 1157.78,411.75 1157.78,412.57C1157.78,413.39 1157.79,414.2 1157.79,415.02C1157.79,415.84 1157.8,416.66 1157.8,417.48C1157.8,418.3 1157.8,419.11 1157.8,419.93C1157.8,420.75 1157.81,421.57 1157.81,422.39C1157.81,423.21 1157.81,424.03 1157.81,424.85C1157.81,425.67 1157.81,426.48 1157.81,427.3C1157.81,428.12 1157.81,428.94 1157.81,429.76C1157.81,430.58 1157.81,431.39 1157.81,432.21C1157.81,433.03 1157.81,433.85 1157.81,434.67C1157.81,435.49 1157.81,436.3 1157.81,437.12C1157.81,437.94 1157.81,438.76 1157.81,439.58C1157.81,440.4 1157.81,441.22 1157.81,442.04C1157.81,442.86 1157.81,443.67 1157.81,444.49C1157.81,445.31 1157.81,446.13 1157.81,446.95C1157.81,447.77 1157.81,448.58 1157.81,449.4C1157.81,450.22 1157.81,451.04 1157.81,451.86C1157.81,452.68 1157.81,453.49 1157.81,454.31C1157.81,455.13 1157.81,455.95 1157.81,456.77C1157.81,457.59 1157.81,458.41 1157.81,459.23C1157.81,460.05 1157.81,460.86 1157.81,461.68C1157.81,462.5 1157.81,463.32 1157.81,464.14C1157.81,464.96 1157.81,465.77 1157.81,466.59C1157.81,467.41 1157.81,468.23 1157.81,469.05C1157.81,469.87 1157.81,470.68 1157.81,471.5C1157.81,472.32 1157.81,473.14 1157.81,473.96C1157.81,474.78 1157.81,475.6 1157.81,476.42C1157.81,477.24 1157.81,478.05 1157.81,478.87C1157.81,479.69 1157.81,480.51 1157.81,481.33C1157.81,482.15 1157.81,482.96 1157.81,483.78C1157.81,484.6 1157.81,485.42 1157.81,486.24C1157.81,487.06 1157.81,487.87 1157.81,488.69C1157.81,489.51 1157.81,490.33 1157.81,491.15C1157.81,491.97 1157.81,492.79 1157.81,493.61C1157.81,494.43 1157.81,495.24 1157.81,496.06C1157.81,496.88 1157.81,497.7 1157.81,498.52C1157.81,499.34 1157.81,500.15 1157.81,500.97C1157.81,501.79 1157.81,502.61 1157.81,503.43C1157.81,504.25 1157.81,505.06 1157.81,505.88C1157.81,506.7 1157.81,507.52 1157.81,508.34C1157.81,509.16 1157.81,509.98 1157.81,510.8C1157.81,511.62 1157.81,512.43 1157.81,513.25C1157.81,514.07 1157.81,514.89 1157.81,515.71C1157.81,516.53 1157.81,517.34 1157.81,518.16C1157.81,518.98 1157.81,519.8 1157.81,520.62C1157.81,521.44 1157.81,522.26 1157.81,523.08C1157.81,523.9 1157.81,524.71 1157.81,525.53C1157.81,526.35 1157.8,527.17 1157.8,527.99C1157.8,528.81 1157.79,529.62 1157.79,530.44C1157.79,531.26 1157.78,532.08 1157.78,532.9C1157.78,533.72 1157.77,534.53 1157.77,535.35C1157.77,536.17 1157.77,536.99 1157.77,537.81Q1157.77,538.63 1157.76,540.27L1157.81,540.27" style="vector-effect: non-scaling-stroke; stroke-width: 2px; stroke: rgb(0, 0, 255); stroke-opacity: 1; fill: rgb(0, 0, 255); fill-opacity: 0.5;"/><path class="meanline" d="M1144.3922119140625,77.49H1157.81" style="fill: none; vector-effect: non-scaling-stroke; stroke-width: 3px; stroke-dasharray: 6px, 3px; stroke: rgb(255, 255, 255); stroke-opacity: 1;"/></g><g class="trace violins" style="opacity: 1;"><path class="violin" d="M1157.81,540.27L1157.81,540.27Q1157.81,538.26 1157.81,537.25C1157.81,536.25 1157.81,535.24 1157.81,534.24C1157.81,533.24 1157.81,532.23 1157.81,531.23C1157.81,530.22 1157.81,529.22 1157.81,528.21C1157.81,527.21 1157.81,526.2 1157.81,525.2C1157.81,524.2 1157.81,523.19 1157.81,522.19C1157.81,521.18 1157.81,520.18 1157.81,519.17C1157.81,518.17 1157.81,517.16 1157.81,516.16C1157.81,515.16 1157.81,514.15 1157.81,513.15C1157.81,512.14 1157.81,511.14 1157.81,510.13C1157.81,509.13 1157.81,508.12 1157.81,507.12C1157.81,506.12 1157.81,505.11 1157.81,504.11C1157.81,503.1 1157.81,502.1 1157.81,501.09C1157.81,500.09 1157.81,499.08 1157.81,498.08C1157.81,497.08 1157.81,496.07 1157.81,495.07C1157.81,494.06 1157.81,493.06 1157.81,492.05C1157.81,491.05 1157.81,490.04 1157.81,489.04C1157.81,488.04 1157.81,487.03 1157.81,486.03C1157.81,485.02 1157.81,484.02 1157.81,483.01C1157.81,482.01 1157.81,481 1157.81,480C1157.81,479 1157.81,477.99 1157.81,476.99C1157.81,475.99 1157.81,474.98 1157.81,473.98C1157.81,472.97 1157.81,471.97 1157.81,470.96C1157.81,469.96 1157.81,468.95 1157.81,467.95C1157.81,466.95 1157.81,465.94 1157.81,464.94C1157.81,463.93 1157.81,462.93 1157.81,461.92C1157.81,460.92 1157.81,459.91 1157.81,458.91C1157.81,457.91 1157.81,456.9 1157.81,455.9C1157.81,454.89 1157.81,453.89 1157.81,452.88C1157.81,451.88 1157.81,450.87 1157.81,449.87C1157.81,448.87 1157.81,447.86 1157.81,446.86C1157.81,445.85 1157.81,444.85 1157.81,443.84C1157.81,442.84 1157.81,441.83 1157.81,440.83C1157.81,439.83 1157.81,438.82 1157.81,437.82C1157.81,436.81 1157.81,435.81 1157.81,434.8C1157.81,433.8 1157.81,432.79 1157.81,431.79C1157.81,430.79 1157.81,429.78 1157.81,428.78C1157.81,427.77 1157.81,426.77 1157.81,425.76C1157.81,424.76 1157.81,423.75 1157.81,422.75C1157.81,421.75 1157.81,420.74 1157.81,419.74C1157.81,418.73 1157.81,417.73 1157.81,416.72C1157.81,415.72 1157.81,414.71 1157.81,413.71C1157.81,412.71 1157.81,411.7 1157.81,410.7C1157.81,409.69 1157.81,408.69 1157.81,407.68C1157.81,406.68 1157.81,405.67 1157.81,404.67C1157.81,403.67 1157.81,402.66 1157.81,401.66C1157.81,400.66 1157.81,399.65 1157.81,398.65C1157.81,397.64 1157.81,396.64 1157.81,395.63C1157.81,394.63 1157.82,393.62 1157.82,392.62C1157.82,391.62 1157.82,390.61 1157.82,389.61C1157.82,388.6 1157.82,387.6 1157.83,386.59C1157.83,385.59 1157.84,384.58 1157.85,383.58C1157.86,382.58 1157.88,381.57 1157.89,380.57C1157.91,379.56 1157.92,378.56 1157.94,377.55C1157.96,376.55 1157.99,375.54 1158.01,374.54C1158.03,373.54 1158.06,372.53 1158.08,371.53C1158.1,370.52 1158.12,369.52 1158.14,368.51C1158.15,367.51 1158.17,366.5 1158.17,365.5C1158.17,364.5 1158.18,363.49 1158.17,362.49C1158.16,361.48 1158.15,360.48 1158.13,359.47C1158.11,358.47 1158.08,357.46 1158.06,356.46C1158.04,355.46 1158.01,354.45 1157.99,353.45C1157.97,352.44 1157.94,351.44 1157.92,350.43C1157.9,349.43 1157.89,348.42 1157.88,347.42C1157.87,346.42 1157.85,345.41 1157.84,344.41C1157.83,343.4 1157.83,342.4 1157.83,341.39C1157.83,340.39 1157.82,339.38 1157.82,338.38C1157.82,337.38 1157.81,336.37 1157.81,335.37C1157.81,334.37 1157.81,333.36 1157.81,332.36C1157.81,331.35 1157.81,330.35 1157.81,329.34C1157.81,328.34 1157.81,327.33 1157.81,326.33C1157.81,325.33 1157.81,324.32 1157.81,323.32C1157.81,322.31 1157.81,321.31 1157.81,320.3C1157.81,319.3 1157.81,318.29 1157.81,317.29C1157.81,316.29 1157.81,315.28 1157.81,314.28C1157.81,313.27 1157.81,312.27 1157.81,311.26C1157.81,310.26 1157.81,309.25 1157.81,308.25C1157.81,307.25 1157.81,306.24 1157.81,305.24C1157.81,304.23 1157.81,303.23 1157.81,302.22C1157.81,301.22 1157.81,300.21 1157.81,299.21C1157.81,298.21 1157.81,297.2 1157.81,296.2C1157.81,295.19 1157.81,294.19 1157.81,293.18C1157.81,292.18 1157.81,291.17 1157.81,290.17C1157.81,289.17 1157.81,288.16 1157.81,287.16C1157.81,286.15 1157.81,285.15 1157.81,284.14C1157.81,283.14 1157.81,282.13 1157.81,281.13C1157.81,280.13 1157.81,279.12 1157.81,278.12C1157.81,277.11 1157.81,276.11 1157.81,275.1C1157.81,274.1 1157.81,273.09 1157.81,272.09C1157.81,271.09 1157.81,270.08 1157.81,269.08C1157.81,268.07 1157.81,267.07 1157.81,266.06C1157.81,265.06 1157.81,264.05 1157.81,263.05C1157.81,262.05 1157.81,261.04 1157.81,260.04C1157.81,259.04 1157.81,258.03 1157.81,257.03C1157.81,256.02 1157.81,255.02 1157.81,254.01C1157.81,253.01 1157.81,252 1157.81,251C1157.81,250 1157.81,248.99 1157.81,247.99C1157.81,246.98 1157.81,245.98 1157.81,244.97C1157.81,243.97 1157.81,242.96 1157.81,241.96C1157.81,240.96 1157.81,239.95 1157.81,238.95C1157.81,237.94 1157.81,236.94 1157.81,235.93C1157.81,234.93 1157.81,233.92 1157.81,232.92C1157.81,231.92 1157.81,230.91 1157.81,229.91C1157.81,228.9 1157.82,227.9 1157.82,226.89C1157.82,225.89 1157.82,224.88 1157.82,223.88C1157.82,222.88 1157.83,221.87 1157.83,220.87C1157.84,219.86 1157.84,218.86 1157.85,217.85C1157.86,216.85 1157.87,215.84 1157.89,214.84C1157.91,213.84 1157.93,212.83 1157.95,211.83C1157.98,210.82 1158.01,209.82 1158.04,208.81C1158.07,207.81 1158.1,206.8 1158.14,205.8C1158.18,204.8 1158.22,203.79 1158.27,202.79C1158.32,201.78 1158.36,200.78 1158.42,199.77C1158.47,198.77 1158.54,197.76 1158.6,196.76C1158.67,195.76 1158.74,194.75 1158.81,193.75C1158.89,192.75 1158.97,191.74 1159.05,190.74C1159.13,189.73 1159.22,188.73 1159.31,187.72C1159.4,186.72 1159.49,185.71 1159.57,184.71C1159.65,183.71 1159.72,182.7 1159.78,181.7C1159.84,180.69 1159.9,179.69 1159.94,178.68C1159.98,177.68 1160.01,176.67 1160.03,175.67C1160.05,174.67 1160.05,173.66 1160.06,172.66C1160.07,171.65 1160.06,170.65 1160.06,169.64C1160.06,168.64 1160.06,167.63 1160.07,166.63C1160.08,165.63 1160.08,164.62 1160.1,163.62C1160.12,162.61 1160.16,161.61 1160.22,160.6C1160.28,159.6 1160.34,158.59 1160.44,157.59C1160.54,156.59 1160.67,155.58 1160.81,154.58C1160.96,153.57 1161.13,152.56 1161.31,151.56C1161.49,150.55 1161.71,149.55 1161.91,148.55C1162.11,147.55 1162.33,146.55 1162.52,145.54C1162.71,144.54 1162.9,143.53 1163.05,142.52C1163.2,141.52 1163.34,140.51 1163.44,139.51C1163.54,138.51 1163.6,137.5 1163.64,136.5C1163.68,135.49 1163.69,134.49 1163.69,133.48C1163.69,132.48 1163.65,131.47 1163.63,130.47C1163.61,129.47 1163.58,128.46 1163.57,127.46C1163.56,126.45 1163.56,125.45 1163.6,124.44C1163.64,123.44 1163.69,122.43 1163.79,121.43C1163.89,120.42 1164.02,119.42 1164.2,118.42C1164.38,117.41 1164.6,116.41 1164.85,115.41C1165.11,114.4 1165.4,113.39 1165.73,112.39C1166.06,111.38 1166.43,110.38 1166.81,109.38C1167.19,108.37 1167.61,107.37 1168.02,106.37C1168.43,105.36 1168.87,104.36 1169.29,103.35C1169.71,102.35 1170.13,101.35 1170.53,100.34C1170.93,99.34 1171.32,98.34 1171.68,97.33C1172.04,96.33 1172.37,95.32 1172.68,94.31C1172.98,93.31 1173.27,92.31 1173.51,91.3C1173.75,90.3 1173.96,89.3 1174.12,88.29C1174.28,87.29 1174.41,86.28 1174.49,85.27C1174.57,84.27 1174.59,83.26 1174.6,82.26C1174.61,81.26 1174.56,80.25 1174.55,79.25C1174.54,78.24 1174.48,77.23 1174.57,76.23C1174.66,75.22 1174.74,74.19 1175.09,73.22C1175.46,72.18 1176.01,71.15 1176.8,70.21C1177.73,69.11 1179.03,68.11 1180.49,67.19C1182.27,66.07 1184.51,65.12 1186.86,64.18C1189.6,63.09 1192.8,62.14 1195.99,61.17C1199.45,60.12 1203.3,59.16 1206.9,58.15C1210.43,57.15 1214.24,56.24 1217.38,55.14C1220.03,54.21 1223.17,53.45 1224.56,52.13Q1225.47,51.26 1226.01,49.12L1157.81,49.12" style="vector-effect: non-scaling-stroke; stroke-width: 2px; stroke: rgb(0, 128, 0); stroke-opacity: 1; fill: rgb(0, 128, 0); fill-opacity: 0.5;"/><path class="meanline" d="M1175.6722412109375,71.89H1157.81" style="fill: none; vector-effect: non-scaling-stroke; stroke-width: 3px; stroke-dasharray: 6px, 3px; stroke: rgb(255, 255, 255); stroke-opacity: 1;"/></g></g><g class="scatterlayer mlayer"><g class="trace scatter tracec57069" style="stroke-miterlimit: 2; opacity: 1;"><g class="fills"/><g class="errorbars"/><g class="lines"/><g class="points"/><g class="text"><g class="textpoint" transform="translate(0,13.5)"><text x="77.19" y="5.4" text-anchor="middle" style="font-family: verdana; font-size: 18px; fill: rgb(0, 0, 0); fill-opacity: 1; white-space: pre;"><tspan class="line" dy="0em" x="77.19" y="5.4">0.916|0.913</tspan><tspan class="line" dy="1.3em" x="77.19" y="5.4">(2653| 469)</tspan></text></g><g class="textpoint" transform="translate(0,13.5)"><text x="231.56" y="5.4" text-anchor="middle" style="font-family: verdana; font-size: 18px; fill: rgb(0, 0, 0); fill-opacity: 1; white-space: pre;"><tspan class="line" dy="0em" x="231.56" y="5.4">0.905|0.881</tspan><tspan class="line" dy="1.3em" x="231.56" y="5.4">(2653| 469)</tspan></text></g><g class="textpoint" transform="translate(0,13.5)"><text x="385.94" y="5.4" text-anchor="middle" style="font-family: verdana; font-size: 18px; fill: rgb(0, 0, 0); fill-opacity: 1; white-space: pre;"><tspan class="line" dy="0em" x="385.94" y="5.4">0.911|0.884</tspan><tspan class="line" dy="1.3em" x="385.94" y="5.4">(2653| 469)</tspan></text></g><g class="textpoint" transform="translate(0,13.5)"><text x="540.31" y="5.4" text-anchor="middle" style="font-family: verdana; font-size: 18px; fill: rgb(0, 0, 0); fill-opacity: 1; white-space: pre;"><tspan class="line" dy="0em" x="540.31" y="5.4">0.853|0.878</tspan><tspan class="line" dy="1.3em" x="540.31" y="5.4">(2530| 346)</tspan></text></g><g class="textpoint" transform="translate(0,13.5)"><text x="694.69" y="5.4" text-anchor="middle" style="font-family: verdana; font-size: 18px; fill: rgb(0, 0, 0); fill-opacity: 1; white-space: pre;"><tspan class="line" dy="0em" x="694.69" y="5.4">0.862|0.835</tspan><tspan class="line" dy="1.3em" x="694.69" y="5.4">(2653| 469)</tspan></text></g><g class="textpoint" transform="translate(0,13.5)"><text x="849.06" y="5.4" text-anchor="middle" style="font-family: verdana; font-size: 18px; fill: rgb(0, 0, 0); fill-opacity: 1; white-space: pre;"><tspan class="line" dy="0em" x="849.06" y="5.4">0.851|0.866</tspan><tspan class="line" dy="1.3em" x="849.06" y="5.4">(2559| 317)</tspan></text></g><g class="textpoint" transform="translate(0,13.5)"><text x="1003.44" y="5.4" text-anchor="middle" style="font-family: verdana; font-size: 18px; fill: rgb(0, 0, 0); fill-opacity: 1; white-space: pre;"><tspan class="line" dy="0em" x="1003.44" y="5.4">0.934|0.908</tspan><tspan class="line" dy="1.3em" x="1003.44" y="5.4">(2559| 317)</tspan></text></g><g class="textpoint" transform="translate(0,13.5)"><text x="1157.81" y="5.4" text-anchor="middle" style="font-family: verdana; font-size: 18px; fill: rgb(0, 0, 0); fill-opacity: 1; white-space: pre;"><tspan class="line" dy="0em" x="1157.81" y="5.4">0.942|0.954</tspan><tspan class="line" dy="1.3em" x="1157.81" y="5.4">(2559| 317)</tspan></text></g></g></g></g></g><g class="overplot"/><path class="xlines-above crisp" d="M0,0" style="fill: none;"/><path class="ylines-above crisp" d="M0,0" style="fill: none;"/><g class="overlines-above"/><g class="xaxislayer-above"><g class="xtick"><text text-anchor="start" x="0" y="674" transform="translate(157.19,0) rotate(30,0,665)" style="font-family: verdana; font-size: 18px; fill: rgb(0, 0, 0); fill-opacity: 1; white-space: pre; opacity: 1;"><tspan class="line" dy="0em" x="0" y="674">LSTM-Conv-L4C64</tspan><tspan class="line" dy="1.3em" x="0" y="674">(par:960K epo:109)</tspan></text></g><g class="xtick"><text text-anchor="start" x="0" y="674" transform="translate(311.56,0) rotate(30,0,665)" style="font-family: verdana; font-size: 18px; fill: rgb(0, 0, 0); fill-opacity: 1; white-space: pre; opacity: 1;"><tspan class="line" dy="0em" x="0" y="674">LSTM-Conv-L7C32a</tspan><tspan class="line" dy="1.3em" x="0" y="674">(par:420K epo:116)</tspan></text></g><g class="xtick"><text text-anchor="start" x="0" y="674" transform="translate(465.94,0) rotate(30,0,665)" style="font-family: verdana; font-size: 18px; fill: rgb(0, 0, 0); fill-opacity: 1; white-space: pre; opacity: 1;"><tspan class="line" dy="0em" x="0" y="674">LSTM-Conv-L7C32b</tspan><tspan class="line" dy="1.3em" x="0" y="674">(par:420K epo:19)</tspan></text></g><g class="xtick"><text text-anchor="start" x="0" y="674" transform="translate(620.31,0) rotate(30,0,665)" style="font-family: verdana; font-size: 18px; fill: rgb(0, 0, 0); fill-opacity: 1; white-space: pre; opacity: 1;"><tspan class="line" dy="0em" x="0" y="674">Attn-Conv-L7C32a</tspan><tspan class="line" dy="1.3em" x="0" y="674">(par:560K epo:4)</tspan></text></g><g class="xtick"><text text-anchor="start" x="0" y="674" transform="translate(774.69,0) rotate(30,0,665)" style="font-family: verdana; font-size: 18px; fill: rgb(0, 0, 0); fill-opacity: 1; white-space: pre; opacity: 1;"><tspan class="line" dy="0em" x="0" y="674">Attn-Conv-L3C48</tspan><tspan class="line" dy="1.3em" x="0" y="674">(par:400K epo:79)</tspan></text></g><g class="xtick"><text text-anchor="start" x="0" y="674" transform="translate(929.06,0) rotate(30,0,665)" style="font-family: verdana; font-size: 18px; fill: rgb(0, 0, 0); fill-opacity: 1; white-space: pre; opacity: 1;"><tspan class="line" dy="0em" x="0" y="674">Attn-Conv-L7C32b</tspan><tspan class="line" dy="1.3em" x="0" y="674">(par:340K epo:28)</tspan></text></g><g class="xtick"><text text-anchor="start" x="0" y="674" transform="translate(1083.44,0) rotate(30,0,665)" style="font-family: verdana; font-size: 18px; fill: rgb(0, 0, 0); fill-opacity: 1; white-space: pre; opacity: 1;"><tspan class="line" dy="0em" x="0" y="674">Attn-Conv-L7C64a</tspan><tspan class="line" dy="1.3em" x="0" y="674">(par:1.4M epo:122)</tspan></text></g><g class="xtick"><text text-anchor="start" x="0" y="674" transform="translate(1237.81,0) rotate(30,0,665)" style="font-family: verdana; font-size: 18px; fill: rgb(0, 0, 0); fill-opacity: 1; white-space: pre; opacity: 1;"><tspan class="line" dy="0em" x="0" y="674">Attn-Conv-L7C64b</tspan><tspan class="line" dy="1.3em" x="0" y="674">(par:1.4M epo:29)</tspan></text></g></g><g class="yaxislayer-above"><g class="ytick"><text text-anchor="end" x="79" y="6.3" transform="translate(0,640.27)" style="font-family: verdana; font-size: 18px; fill: rgb(0, 0, 0); fill-opacity: 1; white-space: pre; opacity: 1;">0</text></g><g class="ytick"><text text-anchor="end" x="79" y="6.3" style="font-family: verdana; font-size: 18px; fill: rgb(0, 0, 0); fill-opacity: 1; white-space: pre; opacity: 1;" transform="translate(0,542.04)">0.2</text></g><g class="ytick"><text text-anchor="end" x="79" y="6.3" style="font-family: verdana; font-size: 18px; fill: rgb(0, 0, 0); fill-opacity: 1; white-space: pre; opacity: 1;" transform="translate(0,443.81)">0.4</text></g><g class="ytick"><text text-anchor="end" x="79" y="6.3" style="font-family: verdana; font-size: 18px; fill: rgb(0, 0, 0); fill-opacity: 1; white-space: pre; opacity: 1;" transform="translate(0,345.58000000000004)">0.6</text></g><g class="ytick"><text text-anchor="end" x="79" y="6.3" style="font-family: verdana; font-size: 18px; fill: rgb(0, 0, 0); fill-opacity: 1; white-space: pre; opacity: 1;" transform="translate(0,247.35)">0.8</text></g><g class="ytick"><text text-anchor="end" x="79" y="6.3" style="font-family: verdana; font-size: 18px; fill: rgb(0, 0, 0); fill-opacity: 1; white-space: pre; opacity: 1;" transform="translate(0,149.12)">1</text></g></g><g class="overaxes-above"/></g></g><g class="polarlayer"/><g class="smithlayer"/><g class="ternarylayer"/><g class="geolayer"/><g class="funnelarealayer"/><g class="pielayer"/><g class="iciclelayer"/><g class="treemaplayer"/><g class="sunburstlayer"/><g class="glimages"/><defs id="topdefs-8334b3"><g class="clips"/></defs><g class="layer-above"><g class="imagelayer"/><g class="shapelayer"/></g><g class="infolayer"><g class="g-gtitle"><text class="gtitle" x="70" y="50" text-anchor="start" dy="0em" style="font-family: verdana; font-size: 25px; fill: rgb(0, 0, 0); opacity: 1; font-weight: normal; white-space: pre;">rorofold_stralign_nr80_train_vs_valid_f1_violion</text></g><g class="g-xtitle"/><g class="g-ytitle" transform="translate(2.837890625,0)"><text class="ytitle" transform="rotate(-90,19.1625,377.5)" x="19.1625" y="377.5" text-anchor="middle" style="font-family: verdana; font-size: 22px; fill: rgb(0, 0, 0); opacity: 1; font-weight: normal; white-space: pre;">F1 Score</text></g></g></svg>