<svg class="main-svg" xmlns="http://www.w3.org/2000/svg" xmlns:xlink="http://www.w3.org/1999/xlink" width="1500" height="1200" style="" viewBox="0 0 1000 800"><rect x="0" y="0" width="1000" height="800" style="fill: rgb(255, 255, 255); fill-opacity: 1;"/><defs id="defs-2a1e03"><g class="clips"/><g class="gradients"/><g class="patterns"/></defs><g class="bglayer"/><g class="layer-below"><g class="imagelayer"/><g class="shapelayer"/></g><g class="cartesianlayer"/><g class="polarlayer"/><g class="smithlayer"/><g class="ternarylayer"/><g class="geolayer"/><g class="funnelarealayer"/><g class="pielayer"/><g class="iciclelayer"/><g class="treemaplayer"/><g class="sunburstlayer"><g class="trace sunburst" stroke-linejoin="round" style="opacity: 1;"><g class="slice"><path class="surface" d="M500,410A0,0 0,1,0 500,410A0,0 0,1,0 500,410ZM562,410A62,62 0,1,1 438,410A62,62 0,1,1 562,410Z" style="pointer-events: all; stroke-width: 1; fill: rgb(0, 0, 0); fill-opacity: 0; stroke: rgb(255, 255, 255); stroke-opacity: 1;"/><g class="slicetext"><text data-notex="1" class="slicetext" text-anchor="middle" x="0" y="0" style="font-family: verdana; font-size: 18px; fill: rgb(0, 0, 0); fill-opacity: 1; white-space: pre;" transform="translate(500,405.296875)"><tspan class="line" dy="0em" x="0" y="0">Stralign</tspan><tspan class="line" dy="1.3em" x="0" y="0">(37,149)</tspan></text></g></g><g class="slice cursor-pointer"><path class="surface" d="M562,410L624,410A124,124 0,0,0 489.7883054640579,286.42119399061744L494.89415273202894,348.2105969953087A62,62 0,0,1 562,410Z" style="pointer-events: all; stroke-width: 1; fill: rgb(99, 110, 250); fill-opacity: 1; stroke: rgb(255, 255, 255); stroke-opacity: 1;"/><g class="slicetext"><text data-notex="1" class="slicetext" text-anchor="middle" x="0" y="0" style="font-family: verdana; font-size: 18px; fill: rgb(255, 255, 255); fill-opacity: 1; white-space: pre;" transform="translate(552.8237914081517,352.11216314915276)rotate(42.63810338710687)">16S rRNA</text></g></g><g class="slice cursor-pointer"><path class="surface" d="M494.89415273202894,348.2105969953087L489.7883054640579,286.42119399061744A124,124 0,0,0 376.00500207742493,411.11377294840844L438.00250103871247,410.55688647420425A62,62 0,0,1 494.89415273202894,348.2105969953087Z" style="pointer-events: all; stroke-width: 1; fill: rgb(239, 85, 59); fill-opacity: 1; stroke: rgb(255, 255, 255); stroke-opacity: 1;"/><g class="slicetext"><text data-notex="1" class="slicetext" text-anchor="middle" x="0" y="0" style="font-family: verdana; font-size: 18px; fill: rgb(68, 68, 68); fill-opacity: 1; white-space: pre;" transform="translate(439.3350391493114,355.1079347540806)rotate(-47.61921656197171)">5S rRNA</text></g></g><g class="slice cursor-pointer"><path class="surface" d="M438.00250103871247,410.55688647420425L376.00500207742493,411.11377294840844A124,124 0,0,0 457.53305942320276,526.5013259926545L478.7665297116014,468.25066299632726A62,62 0,0,1 438.00250103871247,410.55688647420425Z" style="pointer-events: all; stroke-width: 1; fill: rgb(0, 204, 150); fill-opacity: 1; stroke: rgb(255, 255, 255); stroke-opacity: 1;"/><g class="slicetext"><text data-notex="1" class="slicetext" text-anchor="middle" x="0" y="0" style="font-family: verdana; font-size: 18px; fill: rgb(68, 68, 68); fill-opacity: 1; white-space: pre;" transform="translate(423.702442152466,470.66580916617096)">tRNA</text></g></g><g class="slice cursor-pointer"><path class="surface" d="M478.7665297116014,468.25066299632726L457.53305942320276,526.5013259926545A124,124 0,0,0 525.8926343595575,531.2665307738382L512.9463171797788,470.6332653869191A62,62 0,0,1 478.7665297116014,468.25066299632726Z" style="pointer-events: all; stroke-width: 1; fill: rgb(171, 99, 250); fill-opacity: 1; stroke: rgb(255, 255, 255); stroke-opacity: 1;"/><g class="slicetext"><text data-notex="1" class="slicetext" text-anchor="middle" x="0" y="0" style="font-family: verdana; font-size: 18px; fill: rgb(68, 68, 68); fill-opacity: 1; white-space: pre;" transform="translate(497.99985408900227,502.9761916279887)scale(0.6385978266748459)rotate(-86.01247991318314)">2xIntron I</text></g></g><g class="slice cursor-pointer"><path class="surface" d="M512.9463171797788,470.6332653869191L525.8926343595575,531.2665307738382A124,124 0,0,0 572.8531393524015,510.3415172622956L536.4265696762008,460.1707586311478A62,62 0,0,1 512.9463171797788,470.6332653869191Z" style="pointer-events: all; stroke-width: 1; fill: rgb(255, 161, 90); fill-opacity: 1; stroke: rgb(255, 255, 255); stroke-opacity: 1;"/><g class="slicetext"><text data-notex="1" class="slicetext" text-anchor="middle" x="0" y="0" style="font-family: verdana; font-size: 18px; fill: rgb(68, 68, 68); fill-opacity: 1; white-space: pre;" transform="translate(533.3199140269334,496.57116179194094)scale(0.6857348658504667)rotate(65.98284533672813)">5xtmRNA</text></g></g><g class="slice cursor-pointer"><path class="surface" d="M536.4265696762008,460.1707586311478L572.8531393524015,510.3415172622956A124,124 0,0,0 605.7930611069862,474.68251867091675L552.8965305534931,442.3412593354584A62,62 0,0,1 536.4265696762008,460.1707586311478Z" style="pointer-events: all; stroke-width: 1; fill: rgb(25, 211, 243); fill-opacity: 1; stroke: rgb(255, 255, 255); stroke-opacity: 1;"/><g class="slicetext"><text data-notex="1" class="slicetext" text-anchor="middle" x="0" y="0" style="font-family: verdana; font-size: 18px; fill: rgb(68, 68, 68); fill-opacity: 1; white-space: pre;" transform="translate(563.3110025715649,478.01294283507076)rotate(42.73013752947816)">5xSRP</text></g></g><g class="slice cursor-pointer"><path class="surface" d="M552.8965305534931,442.3412593354584L605.7930611069862,474.68251867091675A124,124 0,0,0 620.3693460575084,439.7862473246932L560.1846730287542,424.89312366234657A62,62 0,0,1 552.8965305534931,442.3412593354584Z" style="pointer-events: all; stroke-width: 1; fill: rgb(255, 102, 146); fill-opacity: 1; stroke: rgb(255, 255, 255); stroke-opacity: 1;"/><g class="slicetext"><text data-notex="1" class="slicetext" text-anchor="middle" x="0" y="0" style="font-family: verdana; font-size: 18px; fill: rgb(68, 68, 68); fill-opacity: 1; white-space: pre;" transform="translate(583.8993462499568,449.99971985301477)scale(0.6531254559226892)rotate(22.670450988167147)">5xRNaseP</text></g></g><g class="slice cursor-pointer"><path class="surface" d="M560.1846730287542,424.89312366234657L620.3693460575084,439.7862473246932A124,124 0,0,0 624,410.0000000000002L562,410.0000000000001A62,62 0,0,1 560.1846730287542,424.89312366234657Z" style="pointer-events: all; stroke-width: 1; fill: rgb(182, 232, 128); fill-opacity: 1; stroke: rgb(255, 255, 255); stroke-opacity: 1;"/><g class="slicetext"><text data-notex="1" class="slicetext" text-anchor="middle" x="0" y="0" style="font-family: verdana; font-size: 18px; fill: rgb(68, 68, 68); fill-opacity: 1; white-space: pre;" transform="translate(593.1797323027487,426.2033925140315)scale(0.6871555058843557)rotate(6.9495168729262105)">50xTERC</text></g></g><g class="slice cursor-pointer"><path class="surface" d="M624,410L686,410A186,186 0,0,0 682.2254402083526,372.71878568404554L621.4836268055684,385.14585712269707A124,124 0,0,1 624,410Z" style="pointer-events: all; stroke-width: 1; fill: rgb(99, 110, 250); fill-opacity: 1; stroke: rgb(255, 255, 255); stroke-opacity: 1;"/><g class="slicetext"><text data-notex="1" class="slicetext" text-anchor="middle" x="0" y="0" style="font-family: verdana; font-size: 18px; fill: rgb(255, 255, 255); fill-opacity: 1; white-space: pre;" transform="translate(658.520520017096,400.98627699235766)rotate(-5.781246739153175)">L600</text></g></g><g class="slice cursor-pointer"><path class="surface" d="M489.7883054640579,286.42119399061744L484.6824581960868,224.63179098592616A186,186 0,0,0 314.0075031161374,411.6706594226127L376.00500207742493,411.11377294840844A124,124 0,0,1 489.7883054640579,286.42119399061744Z" style="pointer-events: all; stroke-width: 1; fill: rgb(239, 85, 59); fill-opacity: 1; stroke: rgb(255, 255, 255); stroke-opacity: 1;"/><g class="slicetext"><text data-notex="1" class="slicetext" text-anchor="middle" x="0" y="0" style="font-family: verdana; font-size: 18px; fill: rgb(68, 68, 68); fill-opacity: 1; white-space: pre;" transform="translate(385.50437449029175,312.52152499609963)">L600</text></g></g><g class="slice cursor-pointer"><path class="surface" d="M376.00500207742493,411.11377294840844L314.0075031161374,411.6706594226127A186,186 0,0,0 436.29958913480414,584.7519889889818L457.53305942320276,526.5013259926545A124,124 0,0,1 376.00500207742493,411.11377294840844Z" style="pointer-events: all; stroke-width: 1; fill: rgb(0, 204, 150); fill-opacity: 1; stroke: rgb(255, 255, 255); stroke-opacity: 1;"/><g class="slicetext"><text data-notex="1" class="slicetext" text-anchor="middle" x="0" y="0" style="font-family: verdana; font-size: 18px; fill: rgb(68, 68, 68); fill-opacity: 1; white-space: pre;" transform="translate(373.41032025411,506.44301527695166)">L600</text></g></g><g class="slice cursor-pointer"><path class="surface" d="M457.53305942320276,526.5013259926545L436.29958913480414,584.7519889889818A186,186 0,0,0 538.7435387152957,591.9201423917L525.8290258101971,531.2800949278A124,124 0,0,1 457.53305942320276,526.5013259926545Z" style="pointer-events: all; stroke-width: 1; fill: rgb(171, 99, 250); fill-opacity: 1; stroke: rgb(255, 255, 255); stroke-opacity: 1;"/><g class="slicetext"><text data-notex="1" class="slicetext" text-anchor="middle" x="0" y="0" style="font-family: verdana; font-size: 18px; fill: rgb(68, 68, 68); fill-opacity: 1; white-space: pre;" transform="translate(489.1808755784722,571.6219471703532)">L600</text></g></g><g class="slice cursor-pointer"><path class="surface" d="M525.8926343595575,531.2665307738382L538.8389515393363,591.8997961607574A186,186 0,0,0 609.2797090286023,560.5122758934433L572.8531393524015,510.3415172622956A124,124 0,0,1 525.8926343595575,531.2665307738382Z" style="pointer-events: all; stroke-width: 1; fill: rgb(255, 161, 90); fill-opacity: 1; stroke: rgb(255, 255, 255); stroke-opacity: 1;"/><g class="slicetext"><text data-notex="1" class="slicetext" text-anchor="middle" x="0" y="0" style="font-family: verdana; font-size: 18px; fill: rgb(68, 68, 68); fill-opacity: 1; white-space: pre;" transform="translate(563.0865725128464,558.5806638230707)">L600</text></g></g><g class="slice cursor-pointer"><path class="surface" d="M572.8531393524015,510.3415172622956L609.2797090286023,560.5122758934433A186,186 0,0,0 658.6895916604792,507.0237780063751L605.7930611069862,474.68251867091675A124,124 0,0,1 572.8531393524015,510.3415172622956Z" style="pointer-events: all; stroke-width: 1; fill: rgb(25, 211, 243); fill-opacity: 1; stroke: rgb(255, 255, 255); stroke-opacity: 1;"/><g class="slicetext"><text data-notex="1" class="slicetext" text-anchor="middle" x="0" y="0" style="font-family: verdana; font-size: 18px; fill: rgb(68, 68, 68); fill-opacity: 1; white-space: pre;" transform="translate(614.2615735191656,522.5488779818676)">L600</text></g></g><g class="slice cursor-pointer"><path class="surface" d="M605.7930611069862,474.68251867091675L658.6895916604792,507.0237780063751A186,186 0,0,0 680.5540190862625,454.67937098703976L620.3693460575084,439.7862473246932A124,124 0,0,1 605.7930611069862,474.68251867091675Z" style="pointer-events: all; stroke-width: 1; fill: rgb(255, 102, 146); fill-opacity: 1; stroke: rgb(255, 255, 255); stroke-opacity: 1;"/><g class="slicetext"><text data-notex="1" class="slicetext" text-anchor="middle" x="0" y="0" style="font-family: verdana; font-size: 18px; fill: rgb(68, 68, 68); fill-opacity: 1; white-space: pre;" transform="translate(640.0394406644017,476.0810524797985)rotate(22.670450988167147)">L600</text></g></g><g class="slice cursor-pointer"><path class="surface" d="M620.3693460575084,439.7862473246932L680.5540190862625,454.67937098703976A186,186 0,0,0 686,410.0000000000004L624,410.0000000000002A124,124 0,0,1 620.3693460575084,439.7862473246932Z" style="pointer-events: all; stroke-width: 1; fill: rgb(182, 232, 128); fill-opacity: 1; stroke: rgb(255, 255, 255); stroke-opacity: 1;"/><g class="slicetext"><text data-notex="1" class="slicetext" text-anchor="middle" x="0" y="0" style="font-family: verdana; font-size: 18px; fill: rgb(68, 68, 68); fill-opacity: 1; white-space: pre;" transform="translate(652.8449914016093,435.6821269822616)rotate(6.9495168729262105)">L600</text></g></g><g class="slice cursor-pointer"><path class="surface" d="M686,410L748,410A248,248 0,0,0 744.5258601458845,368.6345105200565L683.3943951094134,378.9758828900424A186,186 0,0,1 686,410Z" style="pointer-events: all; stroke-width: 1; fill: rgb(99, 110, 250); fill-opacity: 1; stroke: rgb(255, 255, 255); stroke-opacity: 1;"/><g class="slicetext"><text data-notex="1" class="slicetext" text-anchor="middle" x="0" y="0" style="font-family: verdana; font-size: 18px; fill: rgb(255, 255, 255); fill-opacity: 1; white-space: pre;" transform="translate(716.6965930894487,398.8178514357827)scale(0.9989722464284587)rotate(-4.800801385729528)">NR100</text></g></g><g class="slice cursor-pointer"><path class="surface" d="M484.6824581960868,224.63179098592616L479.5766109281158,162.84238798123488A248,248 0,0,0 260.18282741127496,346.81991032334884L320.1371205584562,362.61493274251166A186,186 0,0,1 484.6824581960868,224.63179098592616Z" style="pointer-events: all; stroke-width: 1; fill: rgb(239, 85, 59); fill-opacity: 1; stroke: rgb(255, 255, 255); stroke-opacity: 1;"/><g class="slicetext"><text data-notex="1" class="slicetext" text-anchor="middle" x="0" y="0" style="font-family: verdana; font-size: 18px; fill: rgb(68, 68, 68); fill-opacity: 1; white-space: pre;" transform="translate(368.2886567170216,252.9338020913038)rotate(-39.982260992966985)">NR100</text></g></g><g class="slice cursor-pointer"><path class="surface" d="M314.0075031161374,411.6706594226127L252.0100041548499,412.22754589681693A248,248 0,0,0 337.03893188031896,596.9430134487317L377.7791989102392,550.2072600865488A186,186 0,0,1 314.0075031161374,411.6706594226127Z" style="pointer-events: all; stroke-width: 1; fill: rgb(0, 204, 150); fill-opacity: 1; stroke: rgb(255, 255, 255); stroke-opacity: 1;"/><g class="slicetext"><text data-notex="1" class="slicetext" text-anchor="middle" x="0" y="0" style="font-family: verdana; font-size: 18px; fill: rgb(68, 68, 68); fill-opacity: 1; white-space: pre;" transform="translate(301.08129888320246,501.56701430945776)rotate(65.28225890602505)">NR100</text></g></g><g class="slice cursor-pointer"><path class="surface" d="M436.29958913480414,584.7519889889818L415.0661188464055,643.0026519853092A248,248 0,0,0 510.86611485143635,657.7618363429594L508.14958613857726,595.8213772572195A186,186 0,0,1 436.29958913480414,584.7519889889818Z" style="pointer-events: all; stroke-width: 1; fill: rgb(171, 99, 250); fill-opacity: 1; stroke: rgb(255, 255, 255); stroke-opacity: 1;"/><g class="slicetext"><text data-notex="1" class="slicetext" text-anchor="middle" x="0" y="0" style="font-family: verdana; font-size: 18px; fill: rgb(68, 68, 68); fill-opacity: 1; white-space: pre;" transform="translate(464.08678974240564,643.1080983768619)rotate(8.758269507690443)">NR100</text></g></g><g class="slice cursor-pointer"><path class="surface" d="M538.8389515393363,591.8997961607574L551.785268719115,652.5330615476765A248,248 0,0,0 637.0242498953011,616.7083813990862L602.7681874214758,565.0312860493146A186,186 0,0,1 538.8389515393363,591.8997961607574Z" style="pointer-events: all; stroke-width: 1; fill: rgb(255, 161, 90); fill-opacity: 1; stroke: rgb(255, 255, 255); stroke-opacity: 1;"/><g class="slicetext"><text data-notex="1" class="slicetext" text-anchor="middle" x="0" y="0" style="font-family: verdana; font-size: 18px; fill: rgb(68, 68, 68); fill-opacity: 1; white-space: pre;" transform="translate(591.74260073384,628.2865495119811)rotate(-22.79629359100113)">NR100</text></g></g><g class="slice cursor-pointer"><path class="surface" d="M609.2797090286023,560.5122758934433L645.706278704803,610.6830345245912A248,248 0,0,0 699.5159934197756,557.300266020534L649.6369950648317,520.4751995154005A186,186 0,0,1 609.2797090286023,560.5122758934433Z" style="pointer-events: all; stroke-width: 1; fill: rgb(25, 211, 243); fill-opacity: 1; stroke: rgb(255, 255, 255); stroke-opacity: 1;"/><g class="slicetext"><text data-notex="1" class="slicetext" text-anchor="middle" x="0" y="0" style="font-family: verdana; font-size: 18px; fill: rgb(68, 68, 68); fill-opacity: 1; white-space: pre;" transform="translate(669.1714745759979,580.5244789646646)rotate(-44.77179289187541)">NR100</text></g></g><g class="slice cursor-pointer"><path class="surface" d="M658.6895916604792,507.0237780063751L711.5861222139723,539.3650373418335A248,248 0,0,0 739.393546469951,474.7667345829584L679.5451598524633,458.5750509372188A186,186 0,0,1 658.6895916604792,507.0237780063751Z" style="pointer-events: all; stroke-width: 1; fill: rgb(255, 102, 146); fill-opacity: 1; stroke: rgb(255, 255, 255); stroke-opacity: 1;"/><g class="slicetext"><text data-notex="1" class="slicetext" text-anchor="middle" x="0" y="0" style="font-family: verdana; font-size: 18px; fill: rgb(68, 68, 68); fill-opacity: 1; white-space: pre;" transform="translate(721.6527711235096,505.4141576621837)rotate(-66.70972723668001)">NR100</text></g></g><g class="slice cursor-pointer"><path class="surface" d="M680.5540190862625,454.67937098703976L740.7386921150168,469.57249464938633A248,248 0,0,0 748,410.0000000000005L686,410.0000000000004A186,186 0,0,1 680.5540190862625,454.67937098703976Z" style="pointer-events: all; stroke-width: 1; fill: rgb(182, 232, 128); fill-opacity: 1; stroke: rgb(255, 255, 255); stroke-opacity: 1;"/><g class="slicetext"><text data-notex="1" class="slicetext" text-anchor="middle" x="0" y="0" style="font-family: verdana; font-size: 18px; fill: rgb(68, 68, 68); fill-opacity: 1; white-space: pre;" transform="translate(714.4327863716472,443.1818328604356)scale(0.9989722464284587)rotate(6.9495168729262105)">NR100</text></g></g><g class="slice"><path class="surface" d="M748,410L810,410A310,310 0,0,0 809.9933372940257,407.9675548439313L747.9946698352205,408.374043875145A248,248 0,0,1 748,410Z" style="pointer-events: all; stroke-width: 1; fill: rgb(99, 110, 250); fill-opacity: 1; stroke: rgb(255, 255, 255); stroke-opacity: 1; opacity: 0.7;"/><g class="slicetext"><text data-notex="1" class="slicetext" text-anchor="middle" x="0" y="0" style="font-family: verdana; font-size: 18px; fill: rgb(255, 255, 255); fill-opacity: 1; white-space: pre;" transform="translate(807.773545498421,409.61613817533487)scale(0.08929565905843329)rotate(-0.18782478034938777)">NR80</text></g></g><g class="slice"><path class="surface" d="M479.5766109281158,162.84238798123488L474.47076366014477,101.0529849765436A310,310 0,0,0 451.63279227117505,103.79645133258708L461.30623381694005,165.0371610660697A248,248 0,0,1 479.5766109281158,162.84238798123488Z" style="pointer-events: all; stroke-width: 1; fill: rgb(239, 85, 59); fill-opacity: 1; stroke: rgb(255, 255, 255); stroke-opacity: 1; opacity: 0.7;"/><g class="slicetext"><text data-notex="1" class="slicetext" text-anchor="middle" x="0" y="0" style="font-family: verdana; font-size: 18px; fill: rgb(68, 68, 68); fill-opacity: 1; white-space: pre;" transform="translate(459.54341008424336,124.88402716422524)scale(0.8802921105565393)rotate(83.15003026065904)">NR80</text></g></g><g class="slice"><path class="surface" d="M252.0100041548499,412.22754589681693L190.01250519356233,412.7844323710211A310,310 0,0,0 193.82027167340982,458.5177695474083L255.05621733872783,448.8142156379266A248,248 0,0,1 252.0100041548499,412.22754589681693Z" style="pointer-events: all; stroke-width: 1; fill: rgb(0, 204, 150); fill-opacity: 1; stroke: rgb(255, 255, 255); stroke-opacity: 1; opacity: 0.7;"/><g class="slicetext"><text data-notex="1" class="slicetext" text-anchor="middle" x="0" y="0" style="font-family: verdana; font-size: 18px; fill: rgb(68, 68, 68); fill-opacity: 1; white-space: pre;" transform="translate(222.69773081929907,440.112461456375)rotate(-4.759479934052592)">NR80</text></g></g><g class="slice"><path class="surface" d="M415.0661188464055,643.0026519853092L393.8326485580069,701.2533149816364A310,310 0,0,0 451.753250148069,716.222551633163L461.4026001184552,654.9780413065305A248,248 0,0,1 415.0661188464055,643.0026519853092Z" style="pointer-events: all; stroke-width: 1; fill: rgb(171, 99, 250); fill-opacity: 1; stroke: rgb(255, 255, 255); stroke-opacity: 1; opacity: 0.7;"/><g class="slicetext"><text data-notex="1" class="slicetext" text-anchor="middle" x="0" y="0" style="font-family: verdana; font-size: 18px; fill: rgb(68, 68, 68); fill-opacity: 1; white-space: pre;" transform="translate(429.25699082569787,690.726559680583)">NR80</text></g></g><g class="slice"><path class="surface" d="M551.785268719115,652.5330615476765L564.7315858988939,713.1663269345956A310,310 0,0,0 613.1439931355036,698.6146857271008L590.5151945084029,640.8917485816805A248,248 0,0,1 551.785268719115,652.5330615476765Z" style="pointer-events: all; stroke-width: 1; fill: rgb(255, 161, 90); fill-opacity: 1; stroke: rgb(255, 255, 255); stroke-opacity: 1; opacity: 0.7;"/><g class="slicetext"><text data-notex="1" class="slicetext" text-anchor="middle" x="0" y="0" style="font-family: verdana; font-size: 18px; fill: rgb(68, 68, 68); fill-opacity: 1; white-space: pre;" transform="translate(573.5629602677986,679.0572424306134)rotate(73.2704468142831)">NR80</text></g></g><g class="slice"><path class="surface" d="M645.706278704803,610.6830345245912L682.1328483810039,660.8537931557389A310,310 0,0,0 705.7312222835628,641.8936484203724L664.5849778268503,595.5149187362979A248,248 0,0,1 645.706278704803,610.6830345245912Z" style="pointer-events: all; stroke-width: 1; fill: rgb(25, 211, 243); fill-opacity: 1; stroke: rgb(255, 255, 255); stroke-opacity: 1; opacity: 0.7;"/><g class="slicetext"><text data-notex="1" class="slicetext" text-anchor="middle" x="0" y="0" style="font-family: verdana; font-size: 18px; fill: rgb(68, 68, 68); fill-opacity: 1; white-space: pre;" transform="translate(671.2409800155932,634.3078836907696)rotate(51.219817601268915)">NR80</text></g></g><g class="slice"><path class="surface" d="M711.5861222139723,539.3650373418335L764.4826527674654,571.7062966772919A310,310 0,0,0 785.2191550944399,531.4497162088651L728.1753240755519,507.1597729670921A248,248 0,0,1 711.5861222139723,539.3650373418335Z" style="pointer-events: all; stroke-width: 1; fill: rgb(255, 102, 146); fill-opacity: 1; stroke: rgb(255, 255, 255); stroke-opacity: 1; opacity: 0.7;"/><g class="slicetext"><text data-notex="1" class="slicetext" text-anchor="middle" x="0" y="0" style="font-family: verdana; font-size: 18px; fill: rgb(68, 68, 68); fill-opacity: 1; white-space: pre;" transform="translate(744.6846192396148,543.9132029909383)rotate(27.2533756286914)">NR80</text></g></g><g class="slice"><path class="surface" d="M740.7386921150168,469.57249464938633L800.923365143771,484.46561831173295A310,310 0,0,0 807.59786324472,448.5169381867585L746.0782905957759,440.81355054940684A248,248 0,0,1 740.7386921150168,469.57249464938633Z" style="pointer-events: all; stroke-width: 1; fill: rgb(182, 232, 128); fill-opacity: 1; stroke: rgb(255, 255, 255); stroke-opacity: 1; opacity: 0.7;"/><g class="slicetext"><text data-notex="1" class="slicetext" text-anchor="middle" x="0" y="0" style="font-family: verdana; font-size: 18px; fill: rgb(68, 68, 68); fill-opacity: 1; white-space: pre;" transform="translate(772.881339795565,467.7848009350641)rotate(10.518187699563896)">NR80</text></g></g></g></g><g class="glimages"/><defs id="topdefs-2a1e03"><g class="clips"/></defs><g class="layer-above"><g class="imagelayer"/><g class="shapelayer"/></g><g class="infolayer"><g class="g-gtitle"/><g class="annotation" data-index="0" style="opacity: 1;"><g class="annotation-text-g" transform="rotate(0,180.8,118.60000000000002)"><g class="cursor-pointer" transform="translate(155,96)"><rect class="bg" x="0.5" y="0.5" width="51" height="44" style="stroke-width: 1px; stroke: rgb(0, 0, 0); stroke-opacity: 0; fill: rgb(0, 0, 0); fill-opacity: 0;"/><text class="annotation-text" text-anchor="middle" x="26" y="35" style="font-family: Arial; font-size: 36px; fill: rgb(0, 0, 0); fill-opacity: 1; white-space: pre;">(B)</text></g></g></g></g></svg>