<svg class="main-svg" xmlns="http://www.w3.org/2000/svg" xmlns:xlink="http://www.w3.org/1999/xlink" width="1500" height="1200" style="" viewBox="0 0 1000 800"><rect x="0" y="0" width="1000" height="800" style="fill: rgb(255, 255, 255); fill-opacity: 1;"/><defs id="defs-ca03c7"><g class="clips"/><g class="gradients"/><g class="patterns"/></defs><g class="bglayer"/><g class="layer-below"><g class="imagelayer"/><g class="shapelayer"/></g><g class="cartesianlayer"/><g class="polarlayer"/><g class="smithlayer"/><g class="ternarylayer"/><g class="geolayer"/><g class="funnelarealayer"/><g class="pielayer"/><g class="iciclelayer"/><g class="treemaplayer"/><g class="sunburstlayer"><g class="trace sunburst" stroke-linejoin="round" style="opacity: 1;"><g class="slice"><path class="surface" d="M500,410A0,0 0,1,0 500,410A0,0 0,1,0 500,410ZM577.5,410A77.5,77.5 0,1,1 422.5,410A77.5,77.5 0,1,1 577.5,410Z" style="pointer-events: all; stroke-width: 1; fill: rgb(0, 0, 0); fill-opacity: 0; stroke: rgb(255, 255, 255); stroke-opacity: 1;"/><g class="slicetext"><text data-notex="1" class="slicetext" text-anchor="middle" x="0" y="0" style="font-family: verdana; font-size: 18px; fill: rgb(0, 0, 0); fill-opacity: 1; white-space: pre;" transform="translate(500,405.296875)"><tspan class="line" dy="0em" x="0" y="0">StrAlign</tspan><tspan class="line" dy="1.3em" x="0" y="0">(37,149)</tspan></text></g></g><g class="slice cursor-pointer"><path class="surface" d="M577.5,410L655,410A155,155 0,0,0 487.23538183007236,255.5264924882718L493.6176909150362,332.76324624413587A77.5,77.5 0,0,1 577.5,410Z" style="pointer-events: all; stroke-width: 1; fill: rgb(99, 110, 250); fill-opacity: 1; stroke: rgb(255, 255, 255); stroke-opacity: 1;"/><g class="slicetext"><text data-notex="1" class="slicetext" text-anchor="middle" x="0" y="0" style="font-family: verdana; font-size: 18px; fill: rgb(255, 255, 255); fill-opacity: 1; white-space: pre;" transform="translate(567.2797850716337,336.4123561318438)rotate(42.63810338710687)">16S rRNA</text></g></g><g class="slice cursor-pointer"><path class="surface" d="M493.6176909150362,332.76324624413587L487.23538183007236,255.5264924882718A155,155 0,0,0 345.00625259678117,411.39221618551056L422.5031262983906,410.6961080927553A77.5,77.5 0,0,1 493.6176909150362,332.76324624413587Z" style="pointer-events: all; stroke-width: 1; fill: rgb(239, 85, 59); fill-opacity: 1; stroke: rgb(255, 255, 255); stroke-opacity: 1;"/><g class="slicetext"><text data-notex="1" class="slicetext" text-anchor="middle" x="0" y="0" style="font-family: verdana; font-size: 18px; fill: rgb(68, 68, 68); fill-opacity: 1; white-space: pre;" transform="translate(422.9340329644048,340.14184231954226)rotate(-47.61921656197171)">5S rRNA</text></g></g><g class="slice cursor-pointer"><path class="surface" d="M422.5031262983906,410.6961080927553L345.00625259678117,411.39221618551056A155,155 0,0,0 446.91632427900345,555.6266574908182L473.4581621395017,482.8133287454091A77.5,77.5 0,0,1 422.5031262983906,410.6961080927553Z" style="pointer-events: all; stroke-width: 1; fill: rgb(0, 204, 150); fill-opacity: 1; stroke: rgb(255, 255, 255); stroke-opacity: 1;"/><g class="slicetext"><text data-notex="1" class="slicetext" text-anchor="middle" x="0" y="0" style="font-family: verdana; font-size: 18px; fill: rgb(68, 68, 68); fill-opacity: 1; white-space: pre;" transform="translate(404.7139901905825,484.0822614577137)">tRNA</text></g></g><g class="slice cursor-pointer"><path class="surface" d="M473.4581621395017,482.8133287454091L446.91632427900345,555.6266574908182A155,155 0,0,0 532.3657929494469,561.5831634672978L516.1828964747234,485.7915817336489A77.5,77.5 0,0,1 473.4581621395017,482.8133287454091Z" style="pointer-events: all; stroke-width: 1; fill: rgb(171, 99, 250); fill-opacity: 1; stroke: rgb(255, 255, 255); stroke-opacity: 1;"/><g class="slicetext"><text data-notex="1" class="slicetext" text-anchor="middle" x="0" y="0" style="font-family: verdana; font-size: 18px; fill: rgb(68, 68, 68); fill-opacity: 1; white-space: pre;" transform="translate(497.5565044348418,526.2241910563793)scale(0.8063650523267121)rotate(-86.01247991318314)">2xIntron I</text></g></g><g class="slice cursor-pointer"><path class="surface" d="M516.1828964747234,485.7915817336489L532.3657929494469,561.5831634672978A155,155 0,0,0 591.066424190502,535.4268965778695L545.533212095251,472.7134482889347A77.5,77.5 0,0,1 516.1828964747234,485.7915817336489Z" style="pointer-events: all; stroke-width: 1; fill: rgb(255, 161, 90); fill-opacity: 1; stroke: rgb(255, 255, 255); stroke-opacity: 1;"/><g class="slicetext"><text data-notex="1" class="slicetext" text-anchor="middle" x="0" y="0" style="font-family: verdana; font-size: 18px; fill: rgb(68, 68, 68); fill-opacity: 1; white-space: pre;" transform="translate(541.5929369484884,518.2360504670772)scale(0.8658855509467759)rotate(65.98284533672813)">5xtmRNA</text></g></g><g class="slice cursor-pointer"><path class="surface" d="M545.533212095251,472.7134482889347L591.066424190502,535.4268965778695A155,155 0,0,0 632.2413263837327,490.85314833864595L566.1206631918664,450.426574169323A77.5,77.5 0,0,1 545.533212095251,472.7134482889347Z" style="pointer-events: all; stroke-width: 1; fill: rgb(25, 211, 243); fill-opacity: 1; stroke: rgb(255, 255, 255); stroke-opacity: 1;"/><g class="slicetext"><text data-notex="1" class="slicetext" text-anchor="middle" x="0" y="0" style="font-family: verdana; font-size: 18px; fill: rgb(68, 68, 68); fill-opacity: 1; white-space: pre;" transform="translate(580.3391211087819,493.74262999401765)rotate(42.73013752947816)">5xSRP</text></g></g><g class="slice cursor-pointer"><path class="surface" d="M566.1206631918664,450.426574169323L632.2413263837327,490.85314833864595A155,155 0,0,0 650.4616825718855,447.23280915586645L575.2308412859427,428.6164045779332A77.5,77.5 0,0,1 566.1206631918664,450.426574169323Z" style="pointer-events: all; stroke-width: 1; fill: rgb(255, 102, 146); fill-opacity: 1; stroke: rgb(255, 255, 255); stroke-opacity: 1;"/><g class="slicetext"><text data-notex="1" class="slicetext" text-anchor="middle" x="0" y="0" style="font-family: verdana; font-size: 18px; fill: rgb(68, 68, 68); fill-opacity: 1; white-space: pre;" transform="translate(604.8511842145813,460.05302660918625)scale(0.8247092621396669)rotate(22.670450988167147)">5xRNaseP</text></g></g><g class="slice cursor-pointer"><path class="surface" d="M575.2308412859427,428.6164045779332L650.4616825718855,447.23280915586645A155,155 0,0,0 655,410.00000000000034L577.5,410.00000000000017A77.5,77.5 0,0,1 575.2308412859427,428.6164045779332Z" style="pointer-events: all; stroke-width: 1; fill: rgb(182, 232, 128); fill-opacity: 1; stroke: rgb(255, 255, 255); stroke-opacity: 1;"/><g class="slicetext"><text data-notex="1" class="slicetext" text-anchor="middle" x="0" y="0" style="font-family: verdana; font-size: 18px; fill: rgb(68, 68, 68); fill-opacity: 1; white-space: pre;" transform="translate(616.4672671300174,430.3149366109929)scale(0.8676794099726187)rotate(6.9495168729262105)">50xTERC</text></g></g><g class="slice cursor-pointer"><path class="surface" d="M655,410L732.5,410A232.5,232.5 0,0,0 729.2429938867667,371.2198536125529L652.8286625911778,384.1465690750353A155,155 0,0,1 655,410Z" style="pointer-events: all; stroke-width: 1; fill: rgb(99, 110, 250); fill-opacity: 1; stroke: rgb(255, 255, 255); stroke-opacity: 1;"/><g class="slicetext"><text data-notex="1" class="slicetext" text-anchor="middle" x="0" y="0" style="font-family: verdana; font-size: 18px; fill: rgb(255, 255, 255); fill-opacity: 1; white-space: pre;" transform="translate(693.5082329584054,400.5223433664195)scale(0.9643775153605617)rotate(-4.800801385729528)">ND L600</text></g></g><g class="slice cursor-pointer"><path class="surface" d="M487.23538183007236,255.5264924882718L480.85307274510853,178.2897387324077A232.5,232.5 0,0,0 275.17140069807033,350.76866592813957L350.11426713204685,370.512443952093A155,155 0,0,1 487.23538183007236,255.5264924882718Z" style="pointer-events: all; stroke-width: 1; fill: rgb(239, 85, 59); fill-opacity: 1; stroke: rgb(255, 255, 255); stroke-opacity: 1;"/><g class="slicetext"><text data-notex="1" class="slicetext" text-anchor="middle" x="0" y="0" style="font-family: verdana; font-size: 18px; fill: rgb(68, 68, 68); fill-opacity: 1; white-space: pre;" transform="translate(386.6498839662987,274.82962428169367)rotate(-39.982260992966985)">ND L600</text></g></g><g class="slice cursor-pointer"><path class="surface" d="M345.00625259678117,411.39221618551056L267.5093788951717,412.0883242782659A232.5,232.5 0,0,0 347.223998637799,585.2590751081859L398.1493324251993,526.8393834054573A155,155 0,0,1 345.00625259678117,411.39221618551056Z" style="pointer-events: all; stroke-width: 1; fill: rgb(0, 204, 150); fill-opacity: 1; stroke: rgb(255, 255, 255); stroke-opacity: 1;"/><g class="slicetext"><text data-notex="1" class="slicetext" text-anchor="middle" x="0" y="0" style="font-family: verdana; font-size: 18px; fill: rgb(68, 68, 68); fill-opacity: 1; white-space: pre;" transform="translate(314.53202954835916,495.37532272704647)rotate(65.28225890602505)">ND L600</text></g></g><g class="slice cursor-pointer"><path class="surface" d="M446.91632427900345,555.6266574908182L420.37448641850517,628.4399862362274A232.5,232.5 0,0,0 510.18698267322156,642.2767215715244L506.7913217821477,564.8511477143496A155,155 0,0,1 446.91632427900345,555.6266574908182Z" style="pointer-events: all; stroke-width: 1; fill: rgb(171, 99, 250); fill-opacity: 1; stroke: rgb(255, 255, 255); stroke-opacity: 1;"/><g class="slicetext"><text data-notex="1" class="slicetext" text-anchor="middle" x="0" y="0" style="font-family: verdana; font-size: 18px; fill: rgb(68, 68, 68); fill-opacity: 1; white-space: pre;" transform="translate(465.84155549499775,631.7181361665888)rotate(8.758269507690443)">ND L600</text></g></g><g class="slice cursor-pointer"><path class="surface" d="M532.3657929494469,561.5831634672978L548.5486894241703,637.3747452009468A232.5,232.5 0,0,0 628.4602342768447,603.7891075616433L585.6401561845631,539.1927383744289A155,155 0,0,1 532.3657929494469,561.5831634672978Z" style="pointer-events: all; stroke-width: 1; fill: rgb(255, 161, 90); fill-opacity: 1; stroke: rgb(255, 255, 255); stroke-opacity: 1;"/><g class="slicetext"><text data-notex="1" class="slicetext" text-anchor="middle" x="0" y="0" style="font-family: verdana; font-size: 18px; fill: rgb(68, 68, 68); fill-opacity: 1; white-space: pre;" transform="translate(587.1699310167459,617.4066280074859)scale(0.9808466750614858)rotate(-22.79629359100113)">ND L600</text></g></g><g class="slice cursor-pointer"><path class="surface" d="M591.066424190502,535.4268965778695L636.5996362857529,598.1403448668042A232.5,232.5 0,0,0 687.0462438310396,548.0939993942505L624.6974958873598,502.0626662628337A155,155 0,0,1 591.066424190502,535.4268965778695Z" style="pointer-events: all; stroke-width: 1; fill: rgb(25, 211, 243); fill-opacity: 1; stroke: rgb(255, 255, 255); stroke-opacity: 1;"/><g class="slicetext"><text data-notex="1" class="slicetext" text-anchor="middle" x="0" y="0" style="font-family: verdana; font-size: 18px; fill: rgb(68, 68, 68); fill-opacity: 1; white-space: pre;" transform="translate(631.5730173389244,552.2104191199774)scale(0.9643775153605617)rotate(45.22820710812459)">ND L600</text></g></g><g class="slice cursor-pointer"><path class="surface" d="M632.2413263837327,490.85314833864595L698.3619895755991,531.2797225079689A232.5,232.5 0,0,0 724.4314498155791,470.71881367152355L649.6209665437194,450.47920911434903A155,155 0,0,1 632.2413263837327,490.85314833864595Z" style="pointer-events: all; stroke-width: 1; fill: rgb(255, 102, 146); fill-opacity: 1; stroke: rgb(255, 255, 255); stroke-opacity: 1;"/><g class="slicetext"><text data-notex="1" class="slicetext" text-anchor="middle" x="0" y="0" style="font-family: verdana; font-size: 18px; fill: rgb(68, 68, 68); fill-opacity: 1; white-space: pre;" transform="translate(675.1757944172233,492.75689245158514)scale(0.9643775153605617)rotate(23.29027276331999)">ND L600</text></g></g><g class="slice cursor-pointer"><path class="surface" d="M650.4616825718855,447.23280915586645L725.6925238578282,465.84921373379973A232.5,232.5 0,0,0 732.5,410.00000000000045L655,410.00000000000034A155,155 0,0,1 650.4616825718855,447.23280915586645Z" style="pointer-events: all; stroke-width: 1; fill: rgb(182, 232, 128); fill-opacity: 1; stroke: rgb(255, 255, 255); stroke-opacity: 1;"/><g class="slicetext"><text data-notex="1" class="slicetext" text-anchor="middle" x="0" y="0" style="font-family: verdana; font-size: 18px; fill: rgb(68, 68, 68); fill-opacity: 1; white-space: pre;" transform="translate(691.383238610091,440.12836167237646)scale(0.9643775153605617)rotate(6.9495168729262105)">ND L600</text></g></g><g class="slice"><path class="surface" d="M732.5,410L810,410A310,310 0,0,0 809.9933372940257,407.9675548439313L732.4950029705193,408.47566613294845A232.5,232.5 0,0,1 732.5,410Z" style="pointer-events: all; stroke-width: 1; fill: rgb(99, 110, 250); fill-opacity: 1; stroke: rgb(255, 255, 255); stroke-opacity: 1; opacity: 0.7;"/><g class="slicetext"><text data-notex="1" class="slicetext" text-anchor="middle" x="0" y="0" style="font-family: verdana; font-size: 18px; fill: rgb(255, 255, 255); fill-opacity: 1; white-space: pre;" transform="translate(807.773545498421,409.61613817533487)scale(0.08929565905843329)rotate(-0.18782478034938777)">NR80</text></g></g><g class="slice"><path class="surface" d="M480.85307274510853,178.2897387324077L474.47076366014477,101.0529849765436A310,310 0,0,0 451.63279227117505,103.79645133258708L463.7245942033813,180.34733849944033A232.5,232.5 0,0,1 480.85307274510853,178.2897387324077Z" style="pointer-events: all; stroke-width: 1; fill: rgb(239, 85, 59); fill-opacity: 1; stroke: rgb(255, 255, 255); stroke-opacity: 1; opacity: 0.7;"/><g class="slicetext"><text data-notex="1" class="slicetext" text-anchor="middle" x="0" y="0" style="font-family: verdana; font-size: 18px; fill: rgb(68, 68, 68); fill-opacity: 1; white-space: pre;" transform="translate(459.54341008424336,124.88402716422524)scale(0.8802921105565393)rotate(83.15003026065904)">NR80</text></g></g><g class="slice"><path class="surface" d="M267.5093788951717,412.0883242782659L190.01250519356233,412.7844323710211A310,310 0,0,0 193.82027167340982,458.5177695474083L270.36520375505734,446.38832716055623A232.5,232.5 0,0,1 267.5093788951717,412.0883242782659Z" style="pointer-events: all; stroke-width: 1; fill: rgb(0, 204, 150); fill-opacity: 1; stroke: rgb(255, 255, 255); stroke-opacity: 1; opacity: 0.7;"/><g class="slicetext"><text data-notex="1" class="slicetext" text-anchor="middle" x="0" y="0" style="font-family: verdana; font-size: 18px; fill: rgb(68, 68, 68); fill-opacity: 1; white-space: pre;" transform="translate(230.37695841114362,439.47308748498585)rotate(-4.759479934052592)">NR80</text></g></g><g class="slice"><path class="surface" d="M420.37448641850517,628.4399862362274L393.8326485580069,701.2533149816364A310,310 0,0,0 451.753250148069,716.222551633163L463.8149376110518,639.6669137248723A232.5,232.5 0,0,1 420.37448641850517,628.4399862362274Z" style="pointer-events: all; stroke-width: 1; fill: rgb(171, 99, 250); fill-opacity: 1; stroke: rgb(255, 255, 255); stroke-opacity: 1; opacity: 0.7;"/><g class="slicetext"><text data-notex="1" class="slicetext" text-anchor="middle" x="0" y="0" style="font-family: verdana; font-size: 18px; fill: rgb(68, 68, 68); fill-opacity: 1; white-space: pre;" transform="translate(429.25699082569787,690.726559680583)">NR80</text></g></g><g class="slice"><path class="surface" d="M548.5486894241703,637.3747452009468L564.7315858988939,713.1663269345956A310,310 0,0,0 613.1439931355036,698.6146857271008L584.8579948516277,626.4610142953255A232.5,232.5 0,0,1 548.5486894241703,637.3747452009468Z" style="pointer-events: all; stroke-width: 1; fill: rgb(255, 161, 90); fill-opacity: 1; stroke: rgb(255, 255, 255); stroke-opacity: 1; opacity: 0.7;"/><g class="slicetext"><text data-notex="1" class="slicetext" text-anchor="middle" x="0" y="0" style="font-family: verdana; font-size: 18px; fill: rgb(68, 68, 68); fill-opacity: 1; white-space: pre;" transform="translate(571.3071118476038,671.5521747323878)rotate(73.2704468142831)">NR80</text></g></g><g class="slice"><path class="surface" d="M636.5996362857529,598.1403448668042L682.1328483810039,660.8537931557389A310,310 0,0,0 705.7312222835628,641.8936484203724L654.2984167126721,583.9202363152793A232.5,232.5 0,0,1 636.5996362857529,598.1403448668042Z" style="pointer-events: all; stroke-width: 1; fill: rgb(25, 211, 243); fill-opacity: 1; stroke: rgb(255, 255, 255); stroke-opacity: 1; opacity: 0.7;"/><g class="slicetext"><text data-notex="1" class="slicetext" text-anchor="middle" x="0" y="0" style="font-family: verdana; font-size: 18px; fill: rgb(68, 68, 68); fill-opacity: 1; white-space: pre;" transform="translate(671.2409800155932,634.3078836907696)rotate(51.219817601268915)">NR80</text></g></g><g class="slice"><path class="surface" d="M698.3619895755991,531.2797225079689L764.4826527674654,571.7062966772919A310,310 0,0,0 785.2191550944399,531.4497162088651L713.9143663208299,501.08728715664887A232.5,232.5 0,0,1 698.3619895755991,531.2797225079689Z" style="pointer-events: all; stroke-width: 1; fill: rgb(255, 102, 146); fill-opacity: 1; stroke: rgb(255, 255, 255); stroke-opacity: 1; opacity: 0.7;"/><g class="slicetext"><text data-notex="1" class="slicetext" text-anchor="middle" x="0" y="0" style="font-family: verdana; font-size: 18px; fill: rgb(68, 68, 68); fill-opacity: 1; white-space: pre;" transform="translate(738.1846704393114,540.5650248333717)rotate(27.2533756286914)">NR80</text></g></g><g class="slice"><path class="surface" d="M725.6925238578282,465.84921373379973L800.923365143771,484.46561831173295A310,310 0,0,0 807.59786324472,448.5169381867585L730.69839743354,438.8877036400689A232.5,232.5 0,0,1 725.6925238578282,465.84921373379973Z" style="pointer-events: all; stroke-width: 1; fill: rgb(182, 232, 128); fill-opacity: 1; stroke: rgb(255, 255, 255); stroke-opacity: 1; opacity: 0.7;"/><g class="slicetext"><text data-notex="1" class="slicetext" text-anchor="middle" x="0" y="0" style="font-family: verdana; font-size: 18px; fill: rgb(68, 68, 68); fill-opacity: 1; white-space: pre;" transform="translate(771.5303749832782,467.5339708060382)rotate(10.518187699563896)">NR80</text></g></g></g></g><g class="glimages"/><defs id="topdefs-ca03c7"><g class="clips"/></defs><g class="layer-above"><g class="imagelayer"/><g class="shapelayer"/></g><g class="infolayer"><g class="g-gtitle"/><g class="annotation" data-index="0" style="opacity: 1;"><g class="annotation-text-g" transform="rotate(0,187.5,112.4)"><g class="cursor-pointer" transform="translate(169,96)"><rect class="bg" x="0.5" y="0.5" width="36" height="31" style="stroke-width: 1px; stroke: rgb(0, 0, 0); stroke-opacity: 0; fill: rgb(0, 0, 0); fill-opacity: 0;"/><text class="annotation-text" text-anchor="middle" x="18.671875" y="20.5" style="font-family: Arial; font-size: 32px; fill: rgb(0, 0, 0); fill-opacity: 1; white-space: pre;">(A)</text></g></g></g></g></svg>
