<svg class="main-svg" xmlns="http://www.w3.org/2000/svg" xmlns:xlink="http://www.w3.org/1999/xlink" width="1500" height="1200" style="" viewBox="0 0 1000 800"><rect x="0" y="0" width="1000" height="800" style="fill: rgb(255, 255, 255); fill-opacity: 1;"/><defs id="defs-9ea26b"><g class="clips"/><g class="gradients"/><g class="patterns"/></defs><g class="bglayer"/><g class="layer-below"><g class="imagelayer"/><g class="shapelayer"/></g><g class="cartesianlayer"/><g class="polarlayer"/><g class="smithlayer"/><g class="ternarylayer"/><g class="geolayer"/><g class="funnelarealayer"/><g class="pielayer"/><g class="iciclelayer"/><g class="treemaplayer"/><g class="sunburstlayer"><g class="trace sunburst" stroke-linejoin="round" style="opacity: 1;"><g class="slice"><path class="surface" d="M500,410A0,0 0,1,0 500,410A0,0 0,1,0 500,410ZM562,410A62,62 0,1,1 438,410A62,62 0,1,1 562,410Z" style="pointer-events: all; stroke-width: 1; fill: rgb(0, 0, 0); fill-opacity: 0; stroke: rgb(255, 255, 255); stroke-opacity: 1;"/><g class="slicetext"><text data-notex="1" class="slicetext" text-anchor="middle" x="0" y="0" style="font-family: verdana; font-size: 18px; fill: rgb(0, 0, 0); fill-opacity: 1; white-space: pre;" transform="translate(500,405.296875)"><tspan class="line" dy="0em" x="0" y="0">Stralign</tspan><tspan class="line" dy="1.3em" x="0" y="0">(37,149)</tspan></text></g></g><g class="slice cursor-pointer"><path class="surface" d="M562,410L624,410A124,124 0,0,0 433.9592240642457,305.0494596783633L466.9796120321228,357.52472983918165A62,62 0,0,1 562,410Z" style="pointer-events: all; stroke-width: 1; fill: rgb(99, 110, 250); fill-opacity: 1; stroke: rgb(255, 255, 255); stroke-opacity: 1;"/><g class="slicetext"><text data-notex="1" class="slicetext" text-anchor="middle" x="0" y="0" style="font-family: verdana; font-size: 18px; fill: rgb(255, 255, 255); fill-opacity: 1; white-space: pre;" transform="translate(535.8925883844395,344.2797313456515)rotate(28.909795687636233)">16S rRNA</text></g></g><g class="slice cursor-pointer"><path class="surface" d="M466.9796120321228,357.52472983918165L433.9592240642457,305.0494596783633A124,124 0,0,0 425.09621417485994,508.82015416432796L462.54810708742997,459.410077082164A62,62 0,0,1 466.9796120321228,357.52472983918165Z" style="pointer-events: all; stroke-width: 1; fill: rgb(239, 85, 59); fill-opacity: 1; stroke: rgb(255, 255, 255); stroke-opacity: 1;"/><g class="slicetext"><text data-notex="1" class="slicetext" text-anchor="middle" x="0" y="0" style="font-family: verdana; font-size: 18px; fill: rgb(68, 68, 68); fill-opacity: 1; white-space: pre;" transform="translate(423.8875984115768,407.033564775699)rotate(-87.50948881531133)">5S rRNA</text></g></g><g class="slice cursor-pointer"><path class="surface" d="M462.54810708742997,459.410077082164L425.09621417485994,508.82015416432796A124,124 0,0,0 598.2823775621399,485.6080303984502L549.14118878107,447.8040151992251A62,62 0,0,1 462.54810708742997,459.410077082164Z" style="pointer-events: all; stroke-width: 1; fill: rgb(0, 204, 150); fill-opacity: 1; stroke: rgb(255, 255, 255); stroke-opacity: 1;"/><g class="slicetext"><text data-notex="1" class="slicetext" text-anchor="middle" x="0" y="0" style="font-family: verdana; font-size: 18px; fill: rgb(68, 68, 68); fill-opacity: 1; white-space: pre;" transform="translate(512.0105579353606,509.1757618652446)">tRNA</text></g></g><g class="slice cursor-pointer"><path class="surface" d="M549.14118878107,447.8040151992251L598.2823775621399,485.6080303984502A124,124 0,0,0 618.6567007742839,446.008156872604L559.328350387142,428.004078436302A62,62 0,0,1 549.14118878107,447.8040151992251Z" style="pointer-events: all; stroke-width: 1; fill: rgb(171, 99, 250); fill-opacity: 1; stroke: rgb(255, 255, 255); stroke-opacity: 1;"/><g class="slicetext"><text data-notex="1" class="slicetext" text-anchor="middle" x="0" y="0" style="font-family: verdana; font-size: 18px; fill: rgb(68, 68, 68); fill-opacity: 1; white-space: pre;" transform="translate(579.844330155905,457.6778472508699)scale(0.8380866699732593)rotate(27.226035694096822)">Intron I</text></g></g><g class="slice cursor-pointer"><path class="surface" d="M559.328350387142,428.004078436302L618.6567007742839,446.008156872604A124,124 0,0,0 621.8406789183697,433.0401597370924L560.9203394591849,421.5200798685462A62,62 0,0,1 559.328350387142,428.004078436302Z" style="pointer-events: all; stroke-width: 1; fill: rgb(255, 161, 90); fill-opacity: 1; stroke: rgb(255, 255, 255); stroke-opacity: 1;"/><g class="slicetext"><text data-notex="1" class="slicetext" text-anchor="middle" x="0" y="0" style="font-family: verdana; font-size: 18px; fill: rgb(68, 68, 68); fill-opacity: 1; white-space: pre;" transform="translate(605.1420700294731,438.9908593015918)scale(0.4405950379986605)rotate(13.794718565775668)">tmRNA</text></g></g><g class="slice cursor-pointer"><path class="surface" d="M560.9203394591849,421.5200798685462L621.8406789183697,433.0401597370924A124,124 0,0,0 623.5497484218497,420.55744594576004L561.7748742109248,415.27872297288A62,62 0,0,1 560.9203394591849,421.5200798685462Z" style="pointer-events: all; stroke-width: 1; fill: rgb(25, 211, 243); fill-opacity: 1; stroke: rgb(255, 255, 255); stroke-opacity: 1;"/><g class="slicetext"><text data-notex="1" class="slicetext" text-anchor="middle" x="0" y="0" style="font-family: verdana; font-size: 18px; fill: rgb(68, 68, 68); fill-opacity: 1; white-space: pre;" transform="translate(613.5378281677309,428.84930586893205)scale(0.467677674014007)rotate(7.796172171525484)">SRP</text></g></g><g class="slice cursor-pointer"><path class="surface" d="M561.7748742109248,415.27872297288L623.5497484218497,420.55744594576004A124,124 0,0,0 623.9975719411891,410.775984980281L561.9987859705946,410.3879924901405A62,62 0,0,1 561.7748742109248,415.27872297288Z" style="pointer-events: all; stroke-width: 1; fill: rgb(255, 102, 146); fill-opacity: 1; stroke: rgb(255, 255, 255); stroke-opacity: 1;"/><g class="slicetext"><text data-notex="1" class="slicetext" text-anchor="middle" x="0" y="0" style="font-family: verdana; font-size: 18px; fill: rgb(68, 68, 68); fill-opacity: 1; white-space: pre;" transform="translate(611.5331423302703,417.4928737269646)scale(0.34058103213235874)rotate(2.6213357021723596)">RNaseP</text></g></g><g class="slice cursor-pointer"><path class="surface" d="M561.9987859705946,410.3879924901405L623.9975719411891,410.775984980281A124,124 0,0,0 624,410.00000000000006L562,410A62,62 0,0,1 561.9987859705946,410.3879924901405Z" style="pointer-events: all; stroke-width: 1; fill: rgb(182, 232, 128); fill-opacity: 1; stroke: rgb(255, 255, 255); stroke-opacity: 1;"/><g class="slicetext"><text data-notex="1" class="slicetext" text-anchor="middle" x="0" y="0" style="font-family: verdana; font-size: 18px; fill: rgb(68, 68, 68); fill-opacity: 1; white-space: pre;" transform="translate(623.1704604177609,410.61722389301696)scale(0.0331174429454761)rotate(0.17927804247756285)">TERC</text></g></g><g class="slice cursor-pointer"><path class="surface" d="M624,410L686,410A186,186 0,0,0 679.7342633039707,362.1293973865075L619.8228422026472,378.08626492433837A124,124 0,0,1 624,410Z" style="pointer-events: all; stroke-width: 1; fill: rgb(99, 110, 250); fill-opacity: 1; stroke: rgb(255, 255, 255); stroke-opacity: 1;"/><g class="slicetext"><text data-notex="1" class="slicetext" text-anchor="middle" x="0" y="0" style="font-family: verdana; font-size: 18px; fill: rgb(255, 255, 255); fill-opacity: 1; white-space: pre;" transform="translate(654.2894034959199,396.8649169279524)rotate(-7.456997496567851)">L600</text></g></g><g class="slice cursor-pointer"><path class="surface" d="M433.9592240642457,305.0494596783633L400.9388360963685,252.57418951754494A186,186 0,0,0 387.64432126228985,558.2302312464919L425.09621417485994,508.82015416432796A124,124 0,0,1 433.9592240642457,305.0494596783633Z" style="pointer-events: all; stroke-width: 1; fill: rgb(239, 85, 59); fill-opacity: 1; stroke: rgb(255, 255, 255); stroke-opacity: 1;"/><g class="slicetext"><text data-notex="1" class="slicetext" text-anchor="middle" x="0" y="0" style="font-family: verdana; font-size: 18px; fill: rgb(68, 68, 68); fill-opacity: 1; white-space: pre;" transform="translate(345.14640808111415,410.2646403348322)">L600</text></g></g><g class="slice cursor-pointer"><path class="surface" d="M425.09621417485994,508.82015416432796L387.64432126228985,558.2302312464919A186,186 0,0,0 647.4235663432099,523.4120455976753L598.2823775621399,485.6080303984502A124,124 0,0,1 425.09621417485994,508.82015416432796Z" style="pointer-events: all; stroke-width: 1; fill: rgb(0, 204, 150); fill-opacity: 1; stroke: rgb(255, 255, 255); stroke-opacity: 1;"/><g class="slicetext"><text data-notex="1" class="slicetext" text-anchor="middle" x="0" y="0" style="font-family: verdana; font-size: 18px; fill: rgb(68, 68, 68); fill-opacity: 1; white-space: pre;" transform="translate(520.5905132256011,570.6262697754078)">L600</text></g></g><g class="slice cursor-pointer"><path class="surface" d="M598.2823775621399,485.6080303984502L647.4235663432099,523.4120455976753A186,186 0,0,0 677.9667702912877,464.07243911724385L618.6445135275251,446.0482927448292A124,124 0,0,1 598.2823775621399,485.6080303984502Z" style="pointer-events: all; stroke-width: 1; fill: rgb(171, 99, 250); fill-opacity: 1; stroke: rgb(255, 255, 255); stroke-opacity: 1;"/><g class="slicetext"><text data-notex="1" class="slicetext" text-anchor="middle" x="0" y="0" style="font-family: verdana; font-size: 18px; fill: rgb(68, 68, 68); fill-opacity: 1; white-space: pre;" transform="translate(640.2218253496479,489.17479291910024)">L600</text></g></g><g class="slice cursor-pointer"><path class="surface" d="M618.6567007742839,446.008156872604L677.9850511614259,464.012235308906A186,186 0,0,0 682.7610183775546,444.5602396056385L621.8406789183697,433.0401597370924A124,124 0,0,1 618.6567007742839,446.008156872604Z" style="pointer-events: all; stroke-width: 1; fill: rgb(255, 161, 90); fill-opacity: 1; stroke: rgb(255, 255, 255); stroke-opacity: 1;"/><g class="slicetext"><text data-notex="1" class="slicetext" text-anchor="middle" x="0" y="0" style="font-family: verdana; font-size: 18px; fill: rgb(68, 68, 68); fill-opacity: 1; white-space: pre;" transform="translate(663.1293992638145,455.2710109709742)scale(0.7240013339416097)rotate(13.794718565775668)">L600</text></g></g><g class="slice cursor-pointer"><path class="surface" d="M621.8406789183697,433.0401597370924L682.7610183775546,444.5602396056385A186,186 0,0,0 685.3246226327745,425.83616891864006L623.5497484218497,420.55744594576004A124,124 0,0,1 621.8406789183697,433.0401597370924Z" style="pointer-events: all; stroke-width: 1; fill: rgb(25, 211, 243); fill-opacity: 1; stroke: rgb(255, 255, 255); stroke-opacity: 1;"/><g class="slicetext"><text data-notex="1" class="slicetext" text-anchor="middle" x="0" y="0" style="font-family: verdana; font-size: 18px; fill: rgb(68, 68, 68); fill-opacity: 1; white-space: pre;" transform="translate(667.7870513780736,437.84798195020727)scale(0.6900529397618269)rotate(7.796172171525484)">L600</text></g></g><g class="slice cursor-pointer"><path class="surface" d="M623.5497484218497,420.55744594576004L685.3246226327745,425.83616891864006A186,186 0,0,0 685.9963579117837,411.1639774704215L623.9975719411891,410.775984980281A124,124 0,0,1 623.5497484218497,420.55744594576004Z" style="pointer-events: all; stroke-width: 1; fill: rgb(255, 102, 146); fill-opacity: 1; stroke: rgb(255, 255, 255); stroke-opacity: 1;"/><g class="slicetext"><text data-notex="1" class="slicetext" text-anchor="middle" x="0" y="0" style="font-family: verdana; font-size: 18px; fill: rgb(68, 68, 68); fill-opacity: 1; white-space: pre;" transform="translate(672.7537813674905,421.8148080409831)scale(0.5573649153926957)rotate(2.6213357021723596)">L600</text></g></g><g class="slice cursor-pointer"><path class="surface" d="M623.9975719411891,410.775984980281L685.9963579117837,411.1639774704215A186,186 0,0,0 686,410.00000000000006L624,410.00000000000006A124,124 0,0,1 623.9975719411891,410.775984980281Z" style="pointer-events: all; stroke-width: 1; fill: rgb(182, 232, 128); fill-opacity: 1; stroke: rgb(255, 255, 255); stroke-opacity: 1;"/><g class="slicetext"><text data-notex="1" class="slicetext" text-anchor="middle" x="0" y="0" style="font-family: verdana; font-size: 18px; fill: rgb(68, 68, 68); fill-opacity: 1; white-space: pre;" transform="translate(684.8378291857986,410.93230329744256)scale(0.05056336667139192)rotate(0.17927804247756285)">L600</text></g></g><g class="slice cursor-pointer"><path class="surface" d="M686,410L748,410A248,248 0,0,0 742.2289177047888,356.81023192787313L681.6716882785917,370.1076739459049A186,186 0,0,1 686,410Z" style="pointer-events: all; stroke-width: 1; fill: rgb(99, 110, 250); fill-opacity: 1; stroke: rgb(255, 255, 255); stroke-opacity: 1;"/><g class="slicetext"><text data-notex="1" class="slicetext" text-anchor="middle" x="0" y="0" style="font-family: verdana; font-size: 18px; fill: rgb(255, 255, 255); fill-opacity: 1; white-space: pre;" transform="translate(716.3611271994337,393.558694088461)scale(0.9989722464284587)rotate(-6.192360494225909)">NR100</text></g></g><g class="slice cursor-pointer"><path class="surface" d="M400.9388360963685,252.57418951754494L367.9184481284914,200.09891935672658A248,248 0,0,0 292.3341259800575,545.5687455409002L344.25059448504305,511.67655915567514A186,186 0,0,1 400.9388360963685,252.57418951754494Z" style="pointer-events: all; stroke-width: 1; fill: rgb(239, 85, 59); fill-opacity: 1; stroke: rgb(255, 255, 255); stroke-opacity: 1;"/><g class="slicetext"><text data-notex="1" class="slicetext" text-anchor="middle" x="0" y="0" style="font-family: verdana; font-size: 18px; fill: rgb(68, 68, 68); fill-opacity: 1; white-space: pre;" transform="translate(299.7545145943924,366.188882123679)rotate(-77.65888718404267)">NR100</text></g></g><g class="slice cursor-pointer"><path class="surface" d="M387.64432126228985,558.2302312464919L350.1924283497198,607.6403083286559A248,248 0,0,0 605.8899669781777,634.2572515959305L579.4174752336332,578.1929386969479A186,186 0,0,1 387.64432126228985,558.2302312464919Z" style="pointer-events: all; stroke-width: 1; fill: rgb(0, 204, 150); fill-opacity: 1; stroke: rgb(255, 255, 255); stroke-opacity: 1;"/><g class="slicetext"><text data-notex="1" class="slicetext" text-anchor="middle" x="0" y="0" style="font-family: verdana; font-size: 18px; fill: rgb(68, 68, 68); fill-opacity: 1; white-space: pre;" transform="translate(477.327471171589,627.8052437386831)rotate(5.942824840507228)">NR100</text></g></g><g class="slice cursor-pointer"><path class="surface" d="M647.4235663432099,523.4120455976753L696.5647551242798,561.2160607969004A248,248 0,0,0 728.2262963607648,507.03997964472364L671.1697222705736,482.77998473354273A186,186 0,0,1 647.4235663432099,523.4120455976753Z" style="pointer-events: all; stroke-width: 1; fill: rgb(171, 99, 250); fill-opacity: 1; stroke: rgb(255, 255, 255); stroke-opacity: 1;"/><g class="slicetext"><text data-notex="1" class="slicetext" text-anchor="middle" x="0" y="0" style="font-family: verdana; font-size: 18px; fill: rgb(68, 68, 68); fill-opacity: 1; white-space: pre;" transform="translate(683.712723686436,525.4646658454333)scale(0.9989722464284587)rotate(30.30283453121217)">NR100</text></g></g><g class="slice cursor-pointer"><path class="surface" d="M677.9850511614259,464.012235308906L737.3134015485678,482.016313745208A248,248 0,0,0 743.160046406798,458.75645425421993L682.3700348050985,446.56734069066493A186,186 0,0,1 677.9850511614259,464.012235308906Z" style="pointer-events: all; stroke-width: 1; fill: rgb(255, 161, 90); fill-opacity: 1; stroke: rgb(255, 255, 255); stroke-opacity: 1;"/><g class="slicetext"><text data-notex="1" class="slicetext" text-anchor="middle" x="0" y="0" style="font-family: verdana; font-size: 18px; fill: rgb(68, 68, 68); fill-opacity: 1; white-space: pre;" transform="translate(713.7006053229111,469.78645863652366)scale(0.8410160982839474)rotate(14.10966647823625)">NR100</text></g></g><g class="slice cursor-pointer"><path class="surface" d="M682.7610183775546,444.5602396056385L743.6813578367395,456.0803194741847A248,248 0,0,0 746.5620430118656,436.6675635522801L684.9215322588992,430.0006726642101A186,186 0,0,1 682.7610183775546,444.5602396056385Z" style="pointer-events: all; stroke-width: 1; fill: rgb(25, 211, 243); fill-opacity: 1; stroke: rgb(255, 255, 255); stroke-opacity: 1;"/><g class="slicetext"><text data-notex="1" class="slicetext" text-anchor="middle" x="0" y="0" style="font-family: verdana; font-size: 18px; fill: rgb(68, 68, 68); fill-opacity: 1; white-space: pre;" transform="translate(722.5804871823092,448.09151439299524)scale(0.7153799963092436)rotate(8.440604053944924)">NR100</text></g></g><g class="slice cursor-pointer"><path class="surface" d="M685.3246226327745,425.83616891864006L747.0994968436994,431.1148918915201A248,248 0,0,0 747.9826188633651,412.93610995485767L685.9869641475238,412.2020824661433A186,186 0,0,1 685.3246226327745,425.83616891864006Z" style="pointer-events: all; stroke-width: 1; fill: rgb(255, 102, 146); fill-opacity: 1; stroke: rgb(255, 255, 255); stroke-opacity: 1;"/><g class="slicetext"><text data-notex="1" class="slicetext" text-anchor="middle" x="0" y="0" style="font-family: verdana; font-size: 18px; fill: rgb(68, 68, 68); fill-opacity: 1; white-space: pre;" transform="translate(726.6173436018163,425.7194126730013)scale(0.6721190952545032)rotate(2.781232334652316)">NR100</text></g></g><g class="slice cursor-pointer"><path class="surface" d="M685.9963579117837,411.1639774704215L747.9951438823783,411.551969960562A248,248 0,0,0 748,410.00000000000006L686,410.00000000000006A186,186 0,0,1 685.9963579117837,411.1639774704215Z" style="pointer-events: all; stroke-width: 1; fill: rgb(182, 232, 128); fill-opacity: 1; stroke: rgb(255, 255, 255); stroke-opacity: 1;"/><g class="slicetext"><text data-notex="1" class="slicetext" text-anchor="middle" x="0" y="0" style="font-family: verdana; font-size: 18px; fill: rgb(68, 68, 68); fill-opacity: 1; white-space: pre;" transform="translate(745.9046662292192,411.2431751625712)scale(0.06767665286399303)rotate(0.17927804247756285)">NR100</text></g></g><g class="slice"><path class="surface" d="M748,410L810,410A310,310 0,0,0 809.9889150280113,407.37844325707385L747.991132022409,407.9027546056591A248,248 0,0,1 748,410Z" style="pointer-events: all; stroke-width: 1; fill: rgb(99, 110, 250); fill-opacity: 1; stroke: rgb(255, 255, 255); stroke-opacity: 1; opacity: 0.7;"/><g class="slicetext"><text data-notex="1" class="slicetext" text-anchor="middle" x="0" y="0" style="font-family: verdana; font-size: 18px; fill: rgb(255, 255, 255); fill-opacity: 1; white-space: pre;" transform="translate(807.1396401389181,409.50421019378416)scale(0.11470144256366406)rotate(-0.24226762496971332)">NR80</text></g></g><g class="slice"><path class="surface" d="M367.9184481284914,200.09891935672658L334.8980601606142,147.62364919590823A310,310 0,0,0 310.574996516463,164.60609613264234L348.45999721317037,213.68487690611386A248,248 0,0,1 367.9184481284914,200.09891935672658Z" style="pointer-events: all; stroke-width: 1; fill: rgb(239, 85, 59); fill-opacity: 1; stroke: rgb(255, 255, 255); stroke-opacity: 1; opacity: 0.7;"/><g class="slicetext"><text data-notex="1" class="slicetext" text-anchor="middle" x="0" y="0" style="font-family: verdana; font-size: 18px; fill: rgb(68, 68, 68); fill-opacity: 1; white-space: pre;" transform="translate(332.49134802227405,182.31383095872548)rotate(55.07712186061542)">NR80</text></g></g><g class="slice"><path class="surface" d="M350.1924283497198,607.6403083286559L312.7405354371498,657.0503854108199A310,310 0,0,0 363.08010587136687,688.1239698260542L390.4640846970935,632.4991758608434A248,248 0,0,1 350.1924283497198,607.6403083286559Z" style="pointer-events: all; stroke-width: 1; fill: rgb(0, 204, 150); fill-opacity: 1; stroke: rgb(255, 255, 255); stroke-opacity: 1; opacity: 0.7;"/><g class="slicetext"><text data-notex="1" class="slicetext" text-anchor="middle" x="0" y="0" style="font-family: verdana; font-size: 18px; fill: rgb(68, 68, 68); fill-opacity: 1; white-space: pre;" transform="translate(351.3508650019733,657.8133384686057)">NR80</text></g></g><g class="slice"><path class="surface" d="M696.5647551242798,561.2160607969004L745.7059439053498,599.0200759961256A310,310 0,0,0 767.3003144512616,567.004910414473L713.8402515610093,535.6039283315783A248,248 0,0,1 696.5647551242798,561.2160607969004Z" style="pointer-events: all; stroke-width: 1; fill: rgb(171, 99, 250); fill-opacity: 1; stroke: rgb(255, 255, 255); stroke-opacity: 1; opacity: 0.7;"/><g class="slicetext"><text data-notex="1" class="slicetext" text-anchor="middle" x="0" y="0" style="font-family: verdana; font-size: 18px; fill: rgb(68, 68, 68); fill-opacity: 1; white-space: pre;" transform="translate(727.2587527311913,571.7305417501309)rotate(33.999838488250134)">NR80</text></g></g><g class="slice"><path class="surface" d="M737.3134015485678,482.016313745208L796.6417519357096,500.02039218151003A310,310 0,0,0 800.1687708098136,487.4513333037306L740.135016647851,471.9610666429845A248,248 0,0,1 737.3134015485678,482.016313745208Z" style="pointer-events: all; stroke-width: 1; fill: rgb(255, 161, 90); fill-opacity: 1; stroke: rgb(255, 255, 255); stroke-opacity: 1; opacity: 0.7;"/><g class="slicetext"><text data-notex="1" class="slicetext" text-anchor="middle" x="0" y="0" style="font-family: verdana; font-size: 18px; fill: rgb(68, 68, 68); fill-opacity: 1; white-space: pre;" transform="translate(784.6422787982551,493.7426042718024)scale(0.5321303802702448)rotate(15.674715335540725)">NR80</text></g></g><g class="slice"><path class="surface" d="M743.6813578367395,456.0803194741847L804.6016972959244,467.6003993427309A310,310 0,0,0 805.9564152042117,459.9066327795012L744.7651321633693,449.92530622360096A248,248 0,0,1 743.6813578367395,456.0803194741847Z" style="pointer-events: all; stroke-width: 1; fill: rgb(25, 211, 243); fill-opacity: 1; stroke: rgb(255, 255, 255); stroke-opacity: 1; opacity: 0.7;"/><g class="slicetext"><text data-notex="1" class="slicetext" text-anchor="middle" x="0" y="0" style="font-family: verdana; font-size: 18px; fill: rgb(68, 68, 68); fill-opacity: 1; white-space: pre;" transform="translate(796.7881234214968,464.6022876869199)scale(0.3297633651649512)rotate(9.986271501251736)">NR80</text></g></g><g class="slice"><path class="surface" d="M747.0994968436994,431.1148918915201L808.8743710546242,436.3936148644001A310,310 0,0,0 809.6499516224173,424.72777852340755L747.7199612979339,421.78222281872604A248,248 0,0,1 747.0994968436994,431.1148918915201Z" style="pointer-events: all; stroke-width: 1; fill: rgb(255, 102, 146); fill-opacity: 1; stroke: rgb(255, 255, 255); stroke-opacity: 1; opacity: 0.7;"/><g class="slicetext"><text data-notex="1" class="slicetext" text-anchor="middle" x="0" y="0" style="font-family: verdana; font-size: 18px; fill: rgb(68, 68, 68); fill-opacity: 1; white-space: pre;" transform="translate(797.0903402627421,433.12497200678604)scale(0.48086635712702147)rotate(3.8036017120245447)">NR80</text></g></g><g class="slice"><path class="surface" d="M747.9951438823783,411.551969960562L809.9939298529729,411.9399624507025A310,310 0,0,0 809.9983993218827,410.9962017217872L747.9987194575062,410.7969613774298A248,248 0,0,1 747.9951438823783,411.551969960562Z" style="pointer-events: all; stroke-width: 1; fill: rgb(182, 232, 128); fill-opacity: 1; stroke: rgb(255, 255, 255); stroke-opacity: 1; opacity: 0.7;"/><g class="slicetext"><text data-notex="1" class="slicetext" text-anchor="middle" x="0" y="0" style="font-family: verdana; font-size: 18px; fill: rgb(68, 68, 68); fill-opacity: 1; white-space: pre;" transform="translate(808.9535017269369,411.7556479925139)scale(0.041785782364081835)rotate(0.27133973996609484)">NR80</text></g></g></g></g><g class="glimages"/><defs id="topdefs-9ea26b"><g class="clips"/></defs><g class="layer-above"><g class="imagelayer"/><g class="shapelayer"/></g><g class="infolayer"><g class="g-gtitle"/></g></svg>