<svg class="main-svg" xmlns="http://www.w3.org/2000/svg" xmlns:xlink="http://www.w3.org/1999/xlink" width="1500" height="1200" style="" viewBox="0 0 1000 800"><rect x="0" y="0" width="1000" height="800" style="fill: rgb(255, 255, 255); fill-opacity: 1;"/><defs id="defs-0ddab7"><g class="clips"/><g class="gradients"/><g class="patterns"/></defs><g class="bglayer"/><g class="layer-below"><g class="imagelayer"/><g class="shapelayer"/></g><g class="cartesianlayer"/><g class="polarlayer"/><g class="smithlayer"/><g class="ternarylayer"/><g class="geolayer"/><g class="funnelarealayer"/><g class="pielayer"/><g class="iciclelayer"/><g class="treemaplayer"/><g class="sunburstlayer"><g class="trace sunburst" stroke-linejoin="round" style="opacity: 1;"><g class="slice"><path class="surface" d="M500,410A0,0 0,1,0 500,410A0,0 0,1,0 500,410ZM577.5,410A77.5,77.5 0,1,1 422.5,410A77.5,77.5 0,1,1 577.5,410Z" style="pointer-events: all; stroke-width: 1; fill: rgb(0, 0, 0); fill-opacity: 0; stroke: rgb(255, 255, 255); stroke-opacity: 1;"/><g class="slicetext"><text data-notex="1" class="slicetext" text-anchor="middle" x="0" y="0" style="font-family: verdana; font-size: 18px; fill: rgb(0, 0, 0); fill-opacity: 1; white-space: pre;" transform="translate(500,405.296875)"><tspan class="line" dy="0em" x="0" y="0">Stralign</tspan><tspan class="line" dy="1.3em" x="0" y="0">(37,149)</tspan></text></g></g><g class="slice cursor-pointer"><path class="surface" d="M577.5,410L655,410A155,155 0,0,0 417.4490300803071,278.8118245979541L458.72451504015356,344.40591229897706A77.5,77.5 0,0,1 577.5,410Z" style="pointer-events: all; stroke-width: 1; fill: rgb(99, 110, 250); fill-opacity: 1; stroke: rgb(255, 255, 255); stroke-opacity: 1;"/><g class="slicetext"><text data-notex="1" class="slicetext" text-anchor="middle" x="0" y="0" style="font-family: verdana; font-size: 18px; fill: rgb(255, 255, 255); fill-opacity: 1; white-space: pre;" transform="translate(545.7886794324144,326.3602350217218)rotate(28.909795687636233)">16S rRNA</text></g></g><g class="slice cursor-pointer"><path class="surface" d="M458.72451504015356,344.40591229897706L417.4490300803071,278.8118245979541A155,155 0,0,0 406.3702677185749,533.52519270541L453.1851338592875,471.762596352705A77.5,77.5 0,0,1 458.72451504015356,344.40591229897706Z" style="pointer-events: all; stroke-width: 1; fill: rgb(239, 85, 59); fill-opacity: 1; stroke: rgb(255, 255, 255); stroke-opacity: 1;"/><g class="slicetext"><text data-notex="1" class="slicetext" text-anchor="middle" x="0" y="0" style="font-family: verdana; font-size: 18px; fill: rgb(68, 68, 68); fill-opacity: 1; white-space: pre;" transform="translate(403.1148853313302,406.1300552601426)rotate(-87.50948881531133)">5S rRNA</text></g></g><g class="slice cursor-pointer"><path class="surface" d="M453.1851338592875,471.762596352705L406.3702677185749,533.52519270541A155,155 0,0,0 622.8529719526749,504.5100379980628L561.4264859763375,457.2550189990314A77.5,77.5 0,0,1 453.1851338592875,471.762596352705Z" style="pointer-events: all; stroke-width: 1; fill: rgb(0, 204, 150); fill-opacity: 1; stroke: rgb(255, 255, 255); stroke-opacity: 1;"/><g class="slicetext"><text data-notex="1" class="slicetext" text-anchor="middle" x="0" y="0" style="font-family: verdana; font-size: 18px; fill: rgb(68, 68, 68); fill-opacity: 1; white-space: pre;" transform="translate(515.0991349192008,532.2197023315558)">tRNA</text></g></g><g class="slice cursor-pointer"><path class="surface" d="M561.4264859763375,457.2550189990314L622.8529719526749,504.5100379980628A155,155 0,0,0 648.3208759678548,455.010196090755L574.1604379839274,432.5050980453775A77.5,77.5 0,0,1 561.4264859763375,457.2550189990314Z" style="pointer-events: all; stroke-width: 1; fill: rgb(171, 99, 250); fill-opacity: 1; stroke: rgb(255, 255, 255); stroke-opacity: 1;"/><g class="slicetext"><text data-notex="1" class="slicetext" text-anchor="middle" x="0" y="0" style="font-family: verdana; font-size: 18px; fill: rgb(68, 68, 68); fill-opacity: 1; white-space: pre;" transform="translate(599.9578790748947,469.3009728710865)rotate(27.226035694096822)">Intron I</text></g></g><g class="slice cursor-pointer"><path class="surface" d="M574.1604379839274,432.5050980453775L648.3208759678548,455.010196090755A155,155 0,0,0 652.3008486479622,438.8001996713654L576.150424323981,424.40009983568274A77.5,77.5 0,0,1 574.1604379839274,432.5050980453775Z" style="pointer-events: all; stroke-width: 1; fill: rgb(255, 161, 90); fill-opacity: 1; stroke: rgb(255, 255, 255); stroke-opacity: 1;"/><g class="slicetext"><text data-notex="1" class="slicetext" text-anchor="middle" x="0" y="0" style="font-family: verdana; font-size: 18px; fill: rgb(68, 68, 68); fill-opacity: 1; white-space: pre;" transform="translate(631.4163694875568,446.2761897159393)scale(0.5563445818796645)rotate(13.794718565775668)">tmRNA</text></g></g><g class="slice cursor-pointer"><path class="surface" d="M576.150424323981,424.40009983568274L652.3008486479622,438.8001996713654A155,155 0,0,0 654.4371855273121,423.19680743220005L577.218592763656,416.59840371610005A77.5,77.5 0,0,1 576.150424323981,424.40009983568274Z" style="pointer-events: all; stroke-width: 1; fill: rgb(25, 211, 243); fill-opacity: 1; stroke: rgb(255, 255, 255); stroke-opacity: 1;"/><g class="slicetext"><text data-notex="1" class="slicetext" text-anchor="middle" x="0" y="0" style="font-family: verdana; font-size: 18px; fill: rgb(68, 68, 68); fill-opacity: 1; white-space: pre;" transform="translate(641.9162259602653,433.60280636442315)scale(0.5905421476956529)rotate(7.796172171525484)">SRP</text></g></g><g class="slice cursor-pointer"><path class="surface" d="M577.218592763656,416.59840371610005L654.4371855273121,423.19680743220005A155,155 0,0,0 654.9969649264865,410.96998122535126L577.4984824632432,410.48499061267563A77.5,77.5 0,0,1 577.218592763656,416.59840371610005Z" style="pointer-events: all; stroke-width: 1; fill: rgb(255, 102, 146); fill-opacity: 1; stroke: rgb(255, 255, 255); stroke-opacity: 1;"/><g class="slicetext"><text data-notex="1" class="slicetext" text-anchor="middle" x="0" y="0" style="font-family: verdana; font-size: 18px; fill: rgb(68, 68, 68); fill-opacity: 1; white-space: pre;" transform="translate(639.414703989311,419.39635091691)scale(0.4300557100654361)rotate(2.6213357021723596)">RNaseP</text></g></g><g class="slice cursor-pointer"><path class="surface" d="M577.4984824632432,410.48499061267563L654.9969649264865,410.96998122535126A155,155 0,0,0 655,410.00000000000006L577.5,410A77.5,77.5 0,0,1 577.4984824632432,410.48499061267563Z" style="pointer-events: all; stroke-width: 1; fill: rgb(182, 232, 128); fill-opacity: 1; stroke: rgb(255, 255, 255); stroke-opacity: 1;"/><g class="slicetext"><text data-notex="1" class="slicetext" text-anchor="middle" x="0" y="0" style="font-family: verdana; font-size: 18px; fill: rgb(68, 68, 68); fill-opacity: 1; white-space: pre;" transform="translate(653.963066301417,410.77447674295485)scale(0.041817788126067276)rotate(0.17927804247756285)">TERC</text></g></g><g class="slice cursor-pointer"><path class="surface" d="M655,410L732.5,410A232.5,232.5 0,0,0 727.0896103482395,360.13459243238106L651.3930735654931,376.7563949549207A155,155 0,0,1 655,410Z" style="pointer-events: all; stroke-width: 1; fill: rgb(99, 110, 250); fill-opacity: 1; stroke: rgb(255, 255, 255); stroke-opacity: 1;"/><g class="slicetext"><text data-notex="1" class="slicetext" text-anchor="middle" x="0" y="0" style="font-family: verdana; font-size: 18px; fill: rgb(255, 255, 255); fill-opacity: 1; white-space: pre;" transform="translate(693.2209992356211,395.82581034638565)scale(0.9643775153605617)rotate(-6.192360494225909)">ND L600</text></g></g><g class="slice cursor-pointer"><path class="surface" d="M417.4490300803071,278.8118245979541L376.17354512046063,213.21773689693117A232.5,232.5 0,0,0 305.31324310630384,537.0956989445939L370.2088287375359,494.7304659630626A155,155 0,0,1 417.4490300803071,278.8118245979541Z" style="pointer-events: all; stroke-width: 1; fill: rgb(239, 85, 59); fill-opacity: 1; stroke: rgb(255, 255, 255); stroke-opacity: 1;"/><g class="slicetext"><text data-notex="1" class="slicetext" text-anchor="middle" x="0" y="0" style="font-family: verdana; font-size: 18px; fill: rgb(68, 68, 68); fill-opacity: 1; white-space: pre;" transform="translate(327.6697477970084,372.2963734856318)rotate(-77.65888718404267)">ND L600</text></g></g><g class="slice cursor-pointer"><path class="surface" d="M406.3702677185749,533.52519270541L359.5554015778623,595.2877890581149A232.5,232.5 0,0,0 599.2718440420415,620.2411733711848L566.181229361361,550.1607822474565A155,155 0,0,1 406.3702677185749,533.52519270541Z" style="pointer-events: all; stroke-width: 1; fill: rgb(0, 204, 150); fill-opacity: 1; stroke: rgb(255, 255, 255); stroke-opacity: 1;"/><g class="slicetext"><text data-notex="1" class="slicetext" text-anchor="middle" x="0" y="0" style="font-family: verdana; font-size: 18px; fill: rgb(68, 68, 68); fill-opacity: 1; white-space: pre;" transform="translate(480.0325061187786,601.8191351553305)rotate(5.942824840507228)">ND L600</text></g></g><g class="slice cursor-pointer"><path class="surface" d="M622.8529719526749,504.5100379980628L684.2794579290124,551.7650569970941A232.5,232.5 0,0,0 713.962152838217,500.9749809169284L642.641435225478,470.6499872779523A155,155 0,0,1 622.8529719526749,504.5100379980628Z" style="pointer-events: all; stroke-width: 1; fill: rgb(171, 99, 250); fill-opacity: 1; stroke: rgb(255, 255, 255); stroke-opacity: 1;"/><g class="slicetext"><text data-notex="1" class="slicetext" text-anchor="middle" x="0" y="0" style="font-family: verdana; font-size: 18px; fill: rgb(68, 68, 68); fill-opacity: 1; white-space: pre;" transform="translate(663.7618392529531,513.5245004935472)scale(0.9643775153605617)rotate(30.30283453121217)">ND L600</text></g></g><g class="slice cursor-pointer"><path class="surface" d="M648.3208759678548,455.010196090755L722.4813139517823,477.5152941361325A232.5,232.5 0,0,0 727.9625435063731,455.7091758633312L651.9750290042488,440.47278390888744A155,155 0,0,1 648.3208759678548,455.010196090755Z" style="pointer-events: all; stroke-width: 1; fill: rgb(255, 161, 90); fill-opacity: 1; stroke: rgb(255, 255, 255); stroke-opacity: 1;"/><g class="slicetext"><text data-notex="1" class="slicetext" text-anchor="middle" x="0" y="0" style="font-family: verdana; font-size: 18px; fill: rgb(68, 68, 68); fill-opacity: 1; white-space: pre;" transform="translate(695.2728198498081,464.4362741394098)scale(0.7415198382940212)rotate(14.10966647823625)">ND L600</text></g></g><g class="slice cursor-pointer"><path class="surface" d="M652.3008486479622,438.8001996713654L728.4512729719432,453.20029950704816A232.5,232.5 0,0,0 731.151915323624,435.0008408302626L654.1012768824161,426.66722722017505A155,155 0,0,1 652.3008486479622,438.8001996713654Z" style="pointer-events: all; stroke-width: 1; fill: rgb(25, 211, 243); fill-opacity: 1; stroke: rgb(255, 255, 255); stroke-opacity: 1;"/><g class="slicetext"><text data-notex="1" class="slicetext" text-anchor="middle" x="0" y="0" style="font-family: verdana; font-size: 18px; fill: rgb(68, 68, 68); fill-opacity: 1; white-space: pre;" transform="translate(704.0128550670845,444.77626973252364)scale(0.6362509553364326)rotate(8.440604053944924)">ND L600</text></g></g><g class="slice cursor-pointer"><path class="surface" d="M654.4371855273121,423.19680743220005L731.6557782909682,429.7952111483001A232.5,232.5 0,0,0 732.4837051844047,412.7526030826791L654.9891367896032,411.83506872178606A155,155 0,0,1 654.4371855273121,423.19680743220005Z" style="pointer-events: all; stroke-width: 1; fill: rgb(255, 102, 146); fill-opacity: 1; stroke: rgb(255, 255, 255); stroke-opacity: 1;"/><g class="slicetext"><text data-notex="1" class="slicetext" text-anchor="middle" x="0" y="0" style="font-family: verdana; font-size: 18px; fill: rgb(68, 68, 68); fill-opacity: 1; white-space: pre;" transform="translate(707.9397601596509,424.30366785814675)scale(0.5995773431879106)rotate(2.781232334652316)">ND L600</text></g></g><g class="slice cursor-pointer"><path class="surface" d="M654.9969649264865,410.96998122535126L732.4954473897296,411.4549718380269A232.5,232.5 0,0,0 732.5,410.00000000000006L655,410.00000000000006A155,155 0,0,1 654.9969649264865,410.96998122535126Z" style="pointer-events: all; stroke-width: 1; fill: rgb(182, 232, 128); fill-opacity: 1; stroke: rgb(255, 255, 255); stroke-opacity: 1;"/><g class="slicetext"><text data-notex="1" class="slicetext" text-anchor="middle" x="0" y="0" style="font-family: verdana; font-size: 18px; fill: rgb(68, 68, 68); fill-opacity: 1; white-space: pre;" transform="translate(729.9721195567419,411.1607931571961)scale(0.06302967136612282)rotate(0.17927804247756285)">ND L600</text></g></g><g class="slice"><path class="surface" d="M732.5,410L810,410A310,310 0,0,0 809.9889150280113,407.37844325707385L732.4916862710085,408.03383244280536A232.5,232.5 0,0,1 732.5,410Z" style="pointer-events: all; stroke-width: 1; fill: rgb(99, 110, 250); fill-opacity: 1; stroke: rgb(255, 255, 255); stroke-opacity: 1; opacity: 0.7;"/><g class="slicetext"><text data-notex="1" class="slicetext" text-anchor="middle" x="0" y="0" style="font-family: verdana; font-size: 18px; fill: rgb(255, 255, 255); fill-opacity: 1; white-space: pre;" transform="translate(807.1396401389181,409.50421019378416)scale(0.11470144256366402)rotate(-0.24226762496971332)">NR80</text></g></g><g class="slice"><path class="surface" d="M376.17354512046063,213.21773689693117L334.8980601606142,147.62364919590823A310,310 0,0,0 310.574996516463,164.60609613264234L357.9312473873472,225.95457209948174A232.5,232.5 0,0,1 376.17354512046063,213.21773689693117Z" style="pointer-events: all; stroke-width: 1; fill: rgb(239, 85, 59); fill-opacity: 1; stroke: rgb(255, 255, 255); stroke-opacity: 1; opacity: 0.7;"/><g class="slicetext"><text data-notex="1" class="slicetext" text-anchor="middle" x="0" y="0" style="font-family: verdana; font-size: 18px; fill: rgb(68, 68, 68); fill-opacity: 1; white-space: pre;" transform="translate(332.49134802227405,182.31383095872548)rotate(55.07712186061542)">NR80</text></g></g><g class="slice"><path class="surface" d="M359.5554015778623,595.2877890581149L312.7405354371498,657.0503854108199A310,310 0,0,0 363.08010587136687,688.1239698260542L397.31007940352515,618.5929773695407A232.5,232.5 0,0,1 359.5554015778623,595.2877890581149Z" style="pointer-events: all; stroke-width: 1; fill: rgb(0, 204, 150); fill-opacity: 1; stroke: rgb(255, 255, 255); stroke-opacity: 1; opacity: 0.7;"/><g class="slicetext"><text data-notex="1" class="slicetext" text-anchor="middle" x="0" y="0" style="font-family: verdana; font-size: 18px; fill: rgb(68, 68, 68); fill-opacity: 1; white-space: pre;" transform="translate(351.3508650019733,657.8133384686057)">NR80</text></g></g><g class="slice"><path class="surface" d="M684.2794579290124,551.7650569970941L745.7059439053498,599.0200759961256A310,310 0,0,0 767.3003144512616,567.004910414473L700.4752358384462,527.7536828108547A232.5,232.5 0,0,1 684.2794579290124,551.7650569970941Z" style="pointer-events: all; stroke-width: 1; fill: rgb(171, 99, 250); fill-opacity: 1; stroke: rgb(255, 255, 255); stroke-opacity: 1; opacity: 0.7;"/><g class="slicetext"><text data-notex="1" class="slicetext" text-anchor="middle" x="0" y="0" style="font-family: verdana; font-size: 18px; fill: rgb(68, 68, 68); fill-opacity: 1; white-space: pre;" transform="translate(724.9187956874948,570.1522303922145)rotate(33.999838488250134)">NR80</text></g></g><g class="slice"><path class="surface" d="M722.4813139517823,477.5152941361325L796.6417519357096,500.02039218151003A310,310 0,0,0 800.1687708098136,487.4513333037306L725.1265781073603,468.08849997779794A232.5,232.5 0,0,1 722.4813139517823,477.5152941361325Z" style="pointer-events: all; stroke-width: 1; fill: rgb(255, 161, 90); fill-opacity: 1; stroke: rgb(255, 255, 255); stroke-opacity: 1; opacity: 0.7;"/><g class="slicetext"><text data-notex="1" class="slicetext" text-anchor="middle" x="0" y="0" style="font-family: verdana; font-size: 18px; fill: rgb(68, 68, 68); fill-opacity: 1; white-space: pre;" transform="translate(784.6422787982551,493.7426042718024)scale(0.5321303802702448)rotate(15.674715335540725)">NR80</text></g></g><g class="slice"><path class="surface" d="M728.4512729719432,453.20029950704816L804.6016972959244,467.6003993427309A310,310 0,0,0 805.9564152042117,459.9066327795012L729.4673114031589,447.4299745846259A232.5,232.5 0,0,1 728.4512729719432,453.20029950704816Z" style="pointer-events: all; stroke-width: 1; fill: rgb(25, 211, 243); fill-opacity: 1; stroke: rgb(255, 255, 255); stroke-opacity: 1; opacity: 0.7;"/><g class="slicetext"><text data-notex="1" class="slicetext" text-anchor="middle" x="0" y="0" style="font-family: verdana; font-size: 18px; fill: rgb(68, 68, 68); fill-opacity: 1; white-space: pre;" transform="translate(796.7881234214968,464.6022876869199)scale(0.3297633651649512)rotate(9.986271501251736)">NR80</text></g></g><g class="slice"><path class="surface" d="M731.6557782909682,429.7952111483001L808.8743710546242,436.3936148644001A310,310 0,0,0 809.6499516224173,424.72777852340755L732.2374637168131,421.04583389255566A232.5,232.5 0,0,1 731.6557782909682,429.7952111483001Z" style="pointer-events: all; stroke-width: 1; fill: rgb(255, 102, 146); fill-opacity: 1; stroke: rgb(255, 255, 255); stroke-opacity: 1; opacity: 0.7;"/><g class="slicetext"><text data-notex="1" class="slicetext" text-anchor="middle" x="0" y="0" style="font-family: verdana; font-size: 18px; fill: rgb(68, 68, 68); fill-opacity: 1; white-space: pre;" transform="translate(797.0903402627421,433.12497200678604)scale(0.48086635712702147)rotate(3.8036017120245447)">NR80</text></g></g><g class="slice"><path class="surface" d="M732.4954473897296,411.4549718380269L809.9939298529729,411.9399624507025A310,310 0,0,0 809.9983993218827,410.9962017217872L732.4987994914121,410.7471512913404A232.5,232.5 0,0,1 732.4954473897296,411.4549718380269Z" style="pointer-events: all; stroke-width: 1; fill: rgb(182, 232, 128); fill-opacity: 1; stroke: rgb(255, 255, 255); stroke-opacity: 1; opacity: 0.7;"/><g class="slicetext"><text data-notex="1" class="slicetext" text-anchor="middle" x="0" y="0" style="font-family: verdana; font-size: 18px; fill: rgb(68, 68, 68); fill-opacity: 1; white-space: pre;" transform="translate(808.9535017269369,411.7556479925139)scale(0.041785782364081835)rotate(0.27133973996609484)">NR80</text></g></g></g></g><g class="glimages"/><defs id="topdefs-0ddab7"><g class="clips"/></defs><g class="layer-above"><g class="imagelayer"/><g class="shapelayer"/></g><g class="infolayer"><g class="g-gtitle"/></g></svg>
