<svg class="main-svg" xmlns="http://www.w3.org/2000/svg" xmlns:xlink="http://www.w3.org/1999/xlink" width="2400" height="1600" style="" viewBox="0 0 1200 800"><rect x="0" y="0" width="1200" height="800" style="fill: rgb(255, 255, 255); fill-opacity: 1;"/><defs id="defs-302a48"><g class="clips"><clipPath id="clip302a48xyplot" class="plotclip"><rect width="1040" height="620"/></clipPath><clipPath class="axesclip" id="clip302a48x"><rect x="80" y="0" width="1040" height="800"/></clipPath><clipPath class="axesclip" id="clip302a48y"><rect x="0" y="100" width="1200" height="620"/></clipPath><clipPath class="axesclip" id="clip302a48xy"><rect x="80" y="100" width="1040" height="620"/></clipPath></g><g class="gradients"/><g class="patterns"/></defs><g class="bglayer"><rect class="bg" x="80" y="100" width="1040" height="620" style="fill: rgb(229, 236, 246); fill-opacity: 1; stroke-width: 0;"/></g><g class="layer-below"><g class="imagelayer"/><g class="shapelayer"/></g><g class="cartesianlayer"><g class="subplot xy"><g class="layer-subplot"><g class="shapelayer"/><g class="imagelayer"/></g><g class="gridlayer"><g class="x"/><g class="y"><path class="ygrid crisp" transform="translate(0,587.96)" d="M80,0h1040" style="stroke: rgb(255, 255, 255); stroke-opacity: 1; stroke-width: 1px;"/><path class="ygrid crisp" transform="translate(0,473.15)" d="M80,0h1040" style="stroke: rgb(255, 255, 255); stroke-opacity: 1; stroke-width: 1px;"/><path class="ygrid crisp" transform="translate(0,358.33)" d="M80,0h1040" style="stroke: rgb(255, 255, 255); stroke-opacity: 1; stroke-width: 1px;"/><path class="ygrid crisp" transform="translate(0,243.52)" d="M80,0h1040" style="stroke: rgb(255, 255, 255); stroke-opacity: 1; stroke-width: 1px;"/><path class="ygrid crisp" transform="translate(0,128.7)" d="M80,0h1040" style="stroke: rgb(255, 255, 255); stroke-opacity: 1; stroke-width: 1px;"/></g></g><g class="zerolinelayer"><path class="yzl zl crisp" transform="translate(0,702.78)" d="M80,0h1040" style="stroke: rgb(255, 255, 255); stroke-opacity: 1; stroke-width: 2px;"/></g><path class="xlines-below"/><path class="ylines-below"/><g class="overlines-below"/><g class="xaxislayer-below"/><g class="yaxislayer-below"/><g class="overaxes-below"/><g class="plot" transform="translate(80,100)" clip-path="url(#clip302a48xyplot)"><g class="violinlayer mlayer"><g class="trace violins" style="opacity: 1;"><path class="violin" d="M57.78,28.7L-43.64,28.7Q-44.82,31.16 -44.32,32.16C-43.56,33.67 -39.83,34.57 -37.03,35.62C-33.52,36.94 -28.96,37.95 -24.76,39.08C-20.36,40.26 -15.57,41.35 -11.22,42.54C-7.13,43.66 -2.99,44.75 0.62,46C3.75,47.08 6.77,48.16 9.23,49.45C11.26,50.51 13.13,51.62 14.48,52.91C15.6,53.97 16.47,55.16 17.03,56.37C17.54,57.47 17.7,58.67 17.82,59.83C17.94,60.98 17.8,62.14 17.75,63.29C17.7,64.44 17.54,65.59 17.51,66.74C17.48,67.89 17.46,69.05 17.57,70.2C17.68,71.36 17.88,72.52 18.18,73.66C18.49,74.83 18.93,75.98 19.42,77.12C19.92,78.29 20.54,79.44 21.17,80.58C21.82,81.75 22.54,82.89 23.26,84.04C23.98,85.2 24.75,86.34 25.49,87.49C26.23,88.64 26.99,89.79 27.71,90.95C28.43,92.1 29.13,93.25 29.81,94.41C30.49,95.56 31.14,96.71 31.78,97.87C32.41,99.02 33.03,100.17 33.63,101.33C34.23,102.48 34.81,103.64 35.4,104.79C35.98,105.94 36.57,107.09 37.14,108.24C37.71,109.39 38.28,110.55 38.84,111.7C39.4,112.85 39.96,114 40.5,115.16C41.04,116.31 41.57,117.46 42.08,118.62C42.59,119.77 43.08,120.92 43.55,122.08C44.02,123.23 44.47,124.38 44.89,125.54C45.31,126.69 45.71,127.84 46.09,128.99C46.46,130.14 46.81,131.29 47.14,132.45C47.46,133.6 47.76,134.75 48.04,135.91C48.32,137.06 48.57,138.21 48.8,139.37C49.03,140.52 49.24,141.68 49.44,142.83C49.64,143.98 49.81,145.14 49.98,146.29C50.15,147.44 50.3,148.59 50.45,149.74C50.6,150.89 50.74,152.05 50.87,153.2C51,154.35 51.13,155.51 51.25,156.66C51.37,157.81 51.48,158.97 51.59,160.12C51.69,161.27 51.79,162.43 51.88,163.58C51.97,164.73 52.05,165.88 52.12,167.03C52.19,168.18 52.23,169.34 52.28,170.49C52.32,171.64 52.36,172.8 52.39,173.95C52.42,175.1 52.45,176.26 52.48,177.41C52.51,178.56 52.53,179.72 52.57,180.87C52.61,182.02 52.65,183.18 52.7,184.33C52.75,185.48 52.8,186.63 52.86,187.78C52.92,188.93 52.98,190.09 53.05,191.24C53.12,192.39 53.2,193.55 53.27,194.7C53.35,195.85 53.42,197.01 53.5,198.16C53.58,199.31 53.67,200.47 53.76,201.62C53.85,202.77 53.95,203.93 54.05,205.08C54.15,206.23 54.27,207.38 54.38,208.53C54.49,209.68 54.6,210.84 54.7,211.99C54.8,213.14 54.89,214.3 54.98,215.45C55.06,216.6 55.15,217.76 55.21,218.91C55.27,220.06 55.32,221.22 55.36,222.37C55.4,223.52 55.42,224.68 55.44,225.83C55.46,226.98 55.46,228.13 55.46,229.28C55.46,230.43 55.46,231.59 55.45,232.74C55.44,233.89 55.43,235.05 55.42,236.2C55.41,237.35 55.39,238.51 55.38,239.66C55.37,240.81 55.37,241.97 55.36,243.12C55.36,244.27 55.35,245.43 55.35,246.58C55.35,247.73 55.36,248.88 55.37,250.03C55.38,251.18 55.41,252.34 55.44,253.49C55.47,254.64 55.51,255.8 55.56,256.95C55.61,258.1 55.67,259.26 55.73,260.41C55.79,261.56 55.86,262.72 55.92,263.87C55.98,265.02 56.05,266.17 56.11,267.32C56.17,268.47 56.22,269.63 56.26,270.78C56.3,271.93 56.33,273.09 56.35,274.24C56.37,275.39 56.38,276.55 56.38,277.7C56.38,278.85 56.38,280.01 56.38,281.16C56.38,282.31 56.37,283.47 56.37,284.62C56.37,285.77 56.38,286.92 56.39,288.07C56.4,289.22 56.42,290.38 56.44,291.53C56.46,292.68 56.49,293.84 56.51,294.99C56.53,296.14 56.55,297.3 56.57,298.45C56.59,299.6 56.61,300.76 56.61,301.91C56.61,303.06 56.61,304.22 56.6,305.37C56.59,306.52 56.58,307.67 56.57,308.82C56.56,309.97 56.54,311.13 56.53,312.28C56.51,313.43 56.5,314.59 56.48,315.74C56.47,316.89 56.45,318.05 56.44,319.2C56.43,320.35 56.43,321.51 56.42,322.66C56.42,323.81 56.41,324.97 56.41,326.12C56.41,327.27 56.4,328.42 56.4,329.57C56.4,330.72 56.4,331.88 56.4,333.03C56.4,334.18 56.4,335.34 56.4,336.49C56.4,337.64 56.39,338.8 56.38,339.95C56.37,341.1 56.36,342.26 56.34,343.41C56.32,344.56 56.29,345.72 56.27,346.87C56.25,348.02 56.22,349.17 56.2,350.32C56.17,351.47 56.15,352.63 56.12,353.78C56.1,354.93 56.07,356.09 56.05,357.24C56.03,358.39 56.02,359.55 56.02,360.7C56.02,361.85 56.03,363.01 56.04,364.16C56.05,365.31 56.07,366.46 56.1,367.61C56.13,368.76 56.17,369.92 56.21,371.07C56.25,372.22 56.31,373.38 56.36,374.53C56.41,375.68 56.46,376.84 56.51,377.99C56.56,379.14 56.61,380.3 56.65,381.45C56.69,382.6 56.71,383.76 56.73,384.91C56.75,386.06 56.75,387.21 56.75,388.36C56.75,389.51 56.72,390.67 56.7,391.82C56.67,392.97 56.64,394.13 56.6,395.28C56.56,396.43 56.52,397.59 56.48,398.74C56.45,399.89 56.41,401.05 56.39,402.2C56.37,403.35 56.36,404.51 56.36,405.66C56.36,406.81 56.38,407.96 56.4,409.11C56.43,410.26 56.47,411.42 56.51,412.57C56.55,413.72 56.61,414.88 56.66,416.03C56.71,417.18 56.77,418.34 56.82,419.49C56.87,420.64 56.93,421.8 56.97,422.95C57.01,424.1 57.05,425.26 57.08,426.41C57.11,427.56 57.13,428.71 57.14,429.86C57.15,431.01 57.16,432.17 57.16,433.32C57.16,434.47 57.16,435.63 57.16,436.78C57.16,437.93 57.14,439.09 57.14,440.24C57.14,441.39 57.14,442.55 57.14,443.7C57.14,444.85 57.15,446.01 57.16,447.16C57.17,448.31 57.18,449.46 57.19,450.61C57.2,451.76 57.21,452.92 57.22,454.07C57.23,455.22 57.23,456.38 57.23,457.53C57.23,458.68 57.23,459.84 57.23,460.99C57.23,462.14 57.22,463.3 57.22,464.45C57.22,465.6 57.22,466.75 57.22,467.9C57.22,469.05 57.23,470.21 57.23,471.36C57.24,472.51 57.24,473.67 57.25,474.82C57.26,475.97 57.28,477.13 57.3,478.28C57.31,479.43 57.33,480.59 57.34,481.74C57.36,482.89 57.38,484.05 57.39,485.2C57.4,486.35 57.41,487.5 57.41,488.65C57.42,489.8 57.42,490.96 57.42,492.11C57.42,493.26 57.41,494.42 57.41,495.57C57.41,496.72 57.41,497.88 57.4,499.03C57.39,500.18 57.38,501.34 57.37,502.49C57.36,503.64 57.36,504.8 57.35,505.95C57.34,507.1 57.33,508.25 57.32,509.4C57.31,510.55 57.3,511.71 57.29,512.86C57.28,514.01 57.27,515.17 57.26,516.32C57.25,517.47 57.23,518.63 57.22,519.78C57.21,520.93 57.19,522.09 57.18,523.24C57.17,524.39 57.15,525.55 57.15,526.7C57.15,527.85 57.15,529 57.15,530.15C57.15,531.3 57.16,532.46 57.18,533.61C57.2,534.76 57.22,535.92 57.25,537.07C57.28,538.22 57.31,539.38 57.34,540.53C57.37,541.68 57.41,542.84 57.44,543.99C57.47,545.14 57.5,546.3 57.53,547.45C57.55,548.6 57.58,549.75 57.59,550.9C57.61,552.05 57.62,553.21 57.62,554.36C57.62,555.51 57.62,556.67 57.62,557.82C57.62,558.97 57.6,560.13 57.59,561.28C57.58,562.43 57.57,563.59 57.56,564.74C57.55,565.89 57.54,567.05 57.53,568.2C57.52,569.35 57.51,570.5 57.5,571.65C57.49,572.8 57.49,573.96 57.48,575.11C57.47,576.26 57.46,577.42 57.44,578.57C57.42,579.72 57.38,580.88 57.34,582.03C57.29,583.18 57.24,584.34 57.17,585.49C57.1,586.64 57,587.79 56.9,588.94C56.8,590.09 56.67,591.25 56.56,592.4C56.45,593.55 56.32,594.71 56.22,595.86C56.12,597.01 56.02,598.17 55.96,599.32Q55.9,600.47 55.87,602.78L57.78,602.78" style="vector-effect: non-scaling-stroke; stroke-width: 2px; stroke: rgb(0, 0, 255); stroke-opacity: 1; fill: rgb(0, 0, 255); fill-opacity: 0.5;"/><path class="meanline" d="M24.159446716308594,85.45H57.78" style="fill: none; vector-effect: non-scaling-stroke; stroke-width: 3px; stroke-dasharray: 6px, 3px; stroke: rgb(255, 255, 255); stroke-opacity: 1;"/></g><g class="trace violins" style="opacity: 1;"><path class="violin" d="M57.78,602.78L57.8,602.78Q57.8,601.51 57.8,600.87C57.8,600.23 57.8,599.6 57.8,598.96C57.8,598.33 57.79,597.69 57.79,597.06C57.79,596.42 57.79,595.79 57.79,595.15C57.79,594.51 57.78,593.88 57.78,593.24C57.78,592.6 57.78,591.97 57.78,591.33C57.78,590.7 57.78,590.06 57.78,589.43C57.78,588.79 57.78,588.16 57.78,587.52C57.78,586.88 57.78,586.25 57.78,585.61C57.78,584.98 57.78,584.34 57.78,583.71C57.78,583.07 57.78,582.44 57.78,581.8C57.78,581.16 57.78,580.53 57.78,579.89C57.78,579.25 57.78,578.62 57.78,577.98C57.78,577.35 57.78,576.71 57.78,576.08C57.78,575.44 57.78,574.81 57.78,574.17C57.78,573.53 57.78,572.9 57.78,572.26C57.78,571.62 57.78,570.99 57.78,570.35C57.78,569.72 57.78,569.08 57.78,568.45C57.78,567.81 57.78,567.18 57.78,566.54C57.78,565.9 57.78,565.27 57.78,564.63C57.78,564 57.78,563.36 57.78,562.73C57.78,562.09 57.78,561.46 57.78,560.82C57.78,560.18 57.78,559.55 57.78,558.91C57.78,558.27 57.78,557.64 57.78,557C57.78,556.37 57.78,555.73 57.78,555.1C57.78,554.46 57.78,553.83 57.78,553.19C57.78,552.55 57.78,551.92 57.78,551.28C57.78,550.65 57.78,550.01 57.78,549.38C57.78,548.74 57.78,548.11 57.78,547.47C57.78,546.83 57.78,546.2 57.78,545.56C57.78,544.92 57.78,544.29 57.78,543.65C57.78,543.02 57.78,542.38 57.78,541.75C57.78,541.11 57.78,540.48 57.78,539.84C57.78,539.2 57.78,538.57 57.78,537.93C57.78,537.29 57.78,536.66 57.78,536.02C57.78,535.39 57.78,534.75 57.78,534.12C57.78,533.48 57.78,532.85 57.78,532.21C57.78,531.57 57.78,530.94 57.78,530.3C57.78,529.67 57.78,529.03 57.78,528.4C57.78,527.76 57.78,527.13 57.78,526.49C57.78,525.85 57.78,525.22 57.78,524.58C57.78,523.94 57.78,523.31 57.78,522.67C57.78,522.04 57.78,521.4 57.78,520.77C57.78,520.13 57.78,519.5 57.78,518.86C57.78,518.22 57.78,517.59 57.78,516.95C57.78,516.32 57.78,515.68 57.78,515.05C57.78,514.41 57.78,513.78 57.78,513.14C57.78,512.5 57.78,511.87 57.78,511.23C57.78,510.59 57.78,509.96 57.78,509.32C57.78,508.69 57.78,508.05 57.78,507.42C57.78,506.78 57.78,506.15 57.78,505.51C57.78,504.87 57.78,504.24 57.78,503.6C57.78,502.96 57.78,502.33 57.78,501.69C57.78,501.06 57.78,500.42 57.78,499.79C57.78,499.15 57.78,498.52 57.78,497.88C57.78,497.24 57.78,496.61 57.78,495.97C57.78,495.34 57.78,494.7 57.78,494.07C57.78,493.43 57.78,492.8 57.78,492.16C57.78,491.52 57.78,490.89 57.78,490.25C57.78,489.61 57.78,488.98 57.78,488.34C57.78,487.71 57.78,487.07 57.78,486.44C57.78,485.8 57.78,485.17 57.78,484.53C57.78,483.89 57.78,483.26 57.78,482.62C57.78,481.99 57.78,481.35 57.78,480.72C57.78,480.08 57.78,479.45 57.78,478.81C57.78,478.17 57.78,477.54 57.78,476.9C57.78,476.26 57.78,475.63 57.78,474.99C57.78,474.36 57.78,473.72 57.78,473.09C57.78,472.45 57.78,471.82 57.78,471.18C57.78,470.54 57.78,469.91 57.78,469.27C57.78,468.63 57.78,468 57.78,467.36C57.78,466.73 57.78,466.09 57.78,465.46C57.78,464.82 57.78,464.19 57.78,463.55C57.78,462.91 57.78,462.28 57.78,461.64C57.78,461.01 57.78,460.37 57.78,459.74C57.78,459.1 57.78,458.47 57.78,457.83C57.78,457.19 57.78,456.56 57.78,455.92C57.78,455.28 57.78,454.65 57.78,454.01C57.78,453.38 57.78,452.74 57.78,452.11C57.78,451.47 57.78,450.84 57.78,450.2C57.78,449.56 57.78,448.93 57.78,448.29C57.78,447.66 57.79,447.02 57.79,446.39C57.79,445.75 57.79,445.12 57.79,444.48C57.79,443.84 57.79,443.21 57.79,442.57C57.79,441.93 57.79,441.3 57.79,440.66C57.79,440.03 57.79,439.39 57.79,438.76C57.79,438.12 57.79,437.49 57.79,436.85C57.79,436.21 57.79,435.58 57.79,434.94C57.79,434.3 57.79,433.67 57.79,433.03C57.79,432.4 57.79,431.76 57.79,431.13C57.79,430.49 57.8,429.86 57.8,429.22C57.8,428.58 57.8,427.95 57.8,427.31C57.8,426.68 57.8,426.04 57.8,425.41C57.8,424.77 57.8,424.14 57.8,423.5C57.8,422.86 57.8,422.23 57.8,421.59C57.8,420.95 57.8,420.32 57.8,419.68C57.8,419.05 57.8,418.41 57.8,417.78C57.8,417.14 57.8,416.51 57.8,415.87C57.8,415.23 57.8,414.6 57.8,413.96C57.8,413.33 57.79,412.69 57.79,412.06C57.79,411.42 57.79,410.79 57.79,410.15C57.79,409.51 57.79,408.88 57.79,408.24C57.79,407.6 57.79,406.97 57.79,406.33C57.79,405.7 57.79,405.06 57.79,404.43C57.79,403.79 57.79,403.16 57.79,402.52C57.79,401.88 57.79,401.25 57.79,400.61C57.79,399.97 57.79,399.34 57.79,398.7C57.79,398.07 57.79,397.43 57.79,396.8C57.79,396.16 57.79,395.53 57.79,394.89C57.79,394.25 57.79,393.62 57.79,392.98C57.79,392.35 57.79,391.71 57.79,391.08C57.79,390.44 57.8,389.81 57.8,389.17C57.8,388.53 57.8,387.9 57.8,387.26C57.8,386.62 57.8,385.99 57.8,385.35C57.8,384.72 57.8,384.08 57.8,383.45C57.8,382.81 57.81,382.18 57.81,381.54C57.81,380.9 57.81,380.27 57.81,379.63C57.81,379 57.81,378.36 57.81,377.73C57.81,377.09 57.82,376.46 57.82,375.82C57.82,375.18 57.82,374.55 57.82,373.91C57.82,373.27 57.82,372.64 57.82,372C57.82,371.37 57.82,370.73 57.82,370.1C57.82,369.46 57.81,368.83 57.81,368.19C57.81,367.55 57.81,366.92 57.81,366.28C57.81,365.64 57.81,365.01 57.81,364.37C57.81,363.74 57.81,363.1 57.81,362.47C57.81,361.83 57.81,361.2 57.81,360.56C57.81,359.92 57.81,359.29 57.81,358.65C57.81,358.02 57.81,357.38 57.81,356.75C57.81,356.11 57.81,355.48 57.81,354.84C57.81,354.2 57.81,353.57 57.81,352.93C57.81,352.29 57.81,351.66 57.81,351.02C57.81,350.39 57.81,349.75 57.81,349.12C57.81,348.48 57.81,347.85 57.81,347.21C57.81,346.57 57.82,345.94 57.82,345.3C57.82,344.67 57.82,344.03 57.82,343.4C57.82,342.76 57.83,342.13 57.83,341.49C57.83,340.85 57.84,340.22 57.84,339.58C57.84,338.94 57.85,338.31 57.85,337.67C57.85,337.04 57.85,336.4 57.85,335.77C57.85,335.13 57.86,334.5 57.86,333.86C57.86,333.22 57.86,332.59 57.86,331.95C57.86,331.31 57.86,330.68 57.86,330.04C57.86,329.41 57.86,328.77 57.86,328.14C57.86,327.5 57.87,326.87 57.87,326.23C57.87,325.59 57.87,324.96 57.87,324.32C57.87,323.69 57.87,323.05 57.87,322.42C57.87,321.78 57.87,321.15 57.87,320.51C57.87,319.87 57.87,319.24 57.87,318.6C57.87,317.96 57.86,317.33 57.86,316.69C57.86,316.06 57.86,315.42 57.86,314.79C57.86,314.15 57.85,313.52 57.85,312.88C57.85,312.24 57.85,311.61 57.85,310.97C57.85,310.34 57.86,309.7 57.86,309.07C57.86,308.43 57.86,307.8 57.86,307.16C57.86,306.52 57.87,305.89 57.87,305.25C57.87,304.61 57.87,303.98 57.87,303.34C57.87,302.71 57.88,302.07 57.88,301.44C57.88,300.8 57.88,300.17 57.88,299.53C57.88,298.89 57.88,298.26 57.88,297.62C57.88,296.98 57.88,296.35 57.88,295.71C57.88,295.08 57.87,294.44 57.87,293.81C57.87,293.17 57.87,292.54 57.87,291.9C57.87,291.26 57.87,290.63 57.87,289.99C57.87,289.36 57.87,288.72 57.87,288.09C57.87,287.45 57.88,286.82 57.88,286.18C57.88,285.54 57.89,284.91 57.89,284.27C57.9,283.63 57.9,283 57.91,282.36C57.92,281.73 57.93,281.09 57.93,280.46C57.94,279.82 57.94,279.19 57.94,278.55C57.95,277.91 57.95,277.28 57.96,276.64C57.97,276.01 57.98,275.37 57.98,274.74C57.99,274.1 57.99,273.47 57.99,272.83C57.99,272.19 57.99,271.56 57.99,270.92C57.99,270.28 57.99,269.65 57.99,269.01C57.99,268.38 57.99,267.74 57.99,267.11C57.99,266.47 57.98,265.84 57.98,265.2C57.98,264.56 57.97,263.93 57.97,263.29C57.97,262.65 57.97,262.02 57.97,261.38C57.97,260.75 57.98,260.11 57.98,259.48C57.98,258.84 57.98,258.21 57.98,257.57C57.98,256.93 57.99,256.3 57.99,255.66C57.99,255.03 58,254.39 58,253.76C58,253.12 58.01,252.49 58.01,251.85C58.01,251.21 58.02,250.58 58.02,249.94C58.03,249.3 58.03,248.67 58.04,248.03C58.05,247.4 58.05,246.76 58.06,246.13C58.07,245.49 58.07,244.86 58.08,244.22C58.09,243.58 58.09,242.95 58.1,242.31C58.11,241.68 58.12,241.04 58.12,240.41C58.13,239.77 58.13,239.14 58.13,238.5C58.13,237.86 58.13,237.23 58.13,236.59C58.13,235.95 58.13,235.32 58.13,234.68C58.13,234.05 58.12,233.41 58.12,232.78C58.12,232.14 58.12,231.51 58.12,230.87C58.12,230.23 58.12,229.6 58.12,228.96C58.12,228.32 58.12,227.69 58.12,227.05C58.12,226.42 58.13,225.78 58.13,225.15C58.13,224.51 58.13,223.88 58.13,223.24C58.13,222.6 58.13,221.97 58.13,221.33C58.13,220.7 58.13,220.06 58.13,219.43C58.13,218.79 58.13,218.16 58.13,217.52C58.13,216.88 58.13,216.25 58.13,215.61C58.13,214.97 58.13,214.34 58.13,213.7C58.13,213.07 58.14,212.43 58.15,211.8C58.16,211.16 58.16,210.53 58.17,209.89C58.18,209.25 58.19,208.62 58.2,207.98C58.21,207.35 58.23,206.71 58.24,206.08C58.25,205.44 58.26,204.81 58.27,204.17C58.28,203.53 58.29,202.9 58.3,202.26C58.31,201.62 58.32,200.99 58.33,200.35C58.34,199.72 58.35,199.08 58.36,198.45C58.37,197.81 58.38,197.18 58.39,196.54C58.4,195.9 58.42,195.27 58.43,194.63C58.44,193.99 58.45,193.36 58.46,192.72C58.47,192.09 58.49,191.45 58.5,190.82C58.51,190.18 58.53,189.55 58.54,188.91C58.55,188.27 58.57,187.64 58.58,187C58.59,186.37 58.61,185.73 58.62,185.1C58.63,184.46 58.65,183.83 58.66,183.19C58.67,182.55 58.69,181.92 58.7,181.28C58.71,180.64 58.73,180.01 58.74,179.37C58.75,178.74 58.77,178.1 58.78,177.47C58.79,176.83 58.81,176.2 58.82,175.56C58.83,174.92 58.84,174.29 58.85,173.65C58.86,173.02 58.88,172.38 58.89,171.75C58.9,171.11 58.91,170.48 58.92,169.84C58.93,169.2 58.93,168.57 58.94,167.93C58.94,167.29 58.95,166.66 58.95,166.02C58.95,165.39 58.94,164.75 58.94,164.12C58.94,163.48 58.93,162.85 58.93,162.21C58.92,161.57 58.92,160.94 58.91,160.3C58.9,159.66 58.89,159.03 58.89,158.39C58.89,157.76 58.89,157.12 58.89,156.49C58.89,155.85 58.9,155.22 58.9,154.58C58.91,153.94 58.91,153.31 58.92,152.67C58.93,152.04 58.95,151.4 58.96,150.77C58.98,150.13 58.99,149.5 59.01,148.86C59.03,148.22 59.06,147.59 59.08,146.95C59.11,146.31 59.13,145.68 59.16,145.04C59.19,144.41 59.23,143.77 59.26,143.14C59.29,142.5 59.33,141.87 59.36,141.23C59.39,140.59 59.43,139.96 59.46,139.32C59.49,138.69 59.52,138.05 59.54,137.42C59.57,136.78 59.59,136.15 59.61,135.51C59.63,134.87 59.64,134.24 59.65,133.6C59.66,132.96 59.66,132.33 59.67,131.69C59.67,131.06 59.68,130.42 59.68,129.79C59.68,129.15 59.67,128.52 59.67,127.88C59.67,127.24 59.67,126.61 59.67,125.97C59.67,125.33 59.67,124.7 59.67,124.06C59.67,123.43 59.68,122.79 59.68,122.16C59.68,121.52 59.69,120.89 59.69,120.25C59.7,119.61 59.7,118.98 59.71,118.34C59.72,117.71 59.73,117.07 59.74,116.44C59.75,115.8 59.75,115.17 59.76,114.53C59.77,113.89 59.77,113.26 59.78,112.62C59.79,111.98 59.79,111.35 59.8,110.71C59.81,110.08 59.82,109.44 59.83,108.81C59.84,108.17 59.85,107.54 59.86,106.9C59.87,106.26 59.89,105.63 59.9,104.99C59.91,104.36 59.93,103.72 59.94,103.09C59.95,102.45 59.97,101.82 59.98,101.18C59.99,100.54 60,99.91 60.01,99.27C60.02,98.63 60.03,98 60.04,97.36C60.05,96.73 60.06,96.09 60.06,95.46C60.07,94.82 60.07,94.19 60.07,93.55C60.08,92.91 60.08,92.28 60.09,91.64C60.1,91 60.11,90.37 60.12,89.73C60.13,89.1 60.14,88.46 60.15,87.83C60.16,87.19 60.18,86.56 60.19,85.92C60.21,85.28 60.22,84.65 60.24,84.01C60.26,83.38 60.28,82.74 60.3,82.11C60.32,81.47 60.33,80.84 60.35,80.2C60.36,79.56 60.38,78.93 60.39,78.29C60.4,77.65 60.41,77.02 60.42,76.38C60.43,75.75 60.43,75.11 60.44,74.48C60.45,73.84 60.45,73.21 60.46,72.57C60.47,71.93 60.48,71.3 60.5,70.66C60.52,70.03 60.54,69.39 60.57,68.76C60.6,68.12 60.64,67.49 60.68,66.85C60.73,66.21 60.78,65.58 60.84,64.94C60.9,64.3 60.96,63.67 61.03,63.03C61.1,62.4 61.17,61.76 61.24,61.13C61.31,60.49 61.39,59.86 61.46,59.22C61.53,58.58 61.6,57.95 61.67,57.31C61.74,56.67 61.81,56.04 61.88,55.4C61.95,54.77 62.03,54.13 62.11,53.5C62.2,52.86 62.28,52.22 62.39,51.59C62.5,50.95 62.62,50.31 62.79,49.68C62.97,49.04 63.15,48.4 63.44,47.78C63.75,47.13 64.11,46.47 64.62,45.87C65.2,45.19 65.93,44.54 66.83,43.96C67.95,43.24 69.37,42.62 70.97,42.05C73.01,41.32 75.49,40.73 78.18,40.15C81.52,39.43 85.44,38.83 89.54,38.24C94.35,37.54 99.81,36.94 105.29,36.33C111.26,35.67 117.8,35.07 124,34.43C130.13,33.8 136.69,33.22 142.29,32.52C147.08,31.93 152.41,31.52 155.58,30.61Q157.45,30.07 159.87,28.7L57.78,28.7" style="vector-effect: non-scaling-stroke; stroke-width: 2px; stroke: rgb(0, 128, 0); stroke-opacity: 1; fill: rgb(0, 128, 0); fill-opacity: 0.5;"/><path class="meanline" d="M65.25334930419922,45.2H57.78" style="fill: none; vector-effect: non-scaling-stroke; stroke-width: 3px; stroke-dasharray: 6px, 3px; stroke: rgb(255, 255, 255); stroke-opacity: 1;"/></g><g class="trace violins" style="opacity: 1;"><path class="violin" d="M288.89,28.7L188.27,28.7Q186.38,31.62 186.8,32.86C187.35,34.49 190.62,35.76 193.11,37.02C196.23,38.6 200.46,39.82 204.29,41.18C208.3,42.6 212.71,43.9 216.66,45.34C220.34,46.68 224.08,48 227.25,49.5C229.98,50.8 232.6,52.12 234.63,53.66C236.33,54.94 237.79,56.33 238.84,57.82C239.77,59.13 240.32,60.57 240.8,61.98C241.26,63.34 241.41,64.75 241.7,66.14C241.99,67.53 242.17,68.92 242.54,70.3C242.91,71.7 243.35,73.09 243.92,74.46C244.51,75.87 245.24,77.25 246.02,78.62C246.83,80.03 247.77,81.4 248.7,82.78C249.65,84.18 250.68,85.55 251.66,86.94C252.63,88.32 253.63,89.7 254.55,91.1C255.46,92.48 256.35,93.86 257.16,95.26C257.96,96.63 258.69,98.02 259.39,99.42C260.08,100.8 260.71,102.19 261.33,103.58C261.95,104.96 262.52,106.35 263.11,107.74C263.7,109.13 264.27,110.52 264.86,111.9C265.45,113.29 266.06,114.68 266.67,116.06C267.28,117.45 267.92,118.83 268.54,120.22C269.16,121.61 269.8,122.99 270.39,124.38C270.98,125.76 271.56,127.15 272.09,128.54C272.61,129.92 273.11,131.31 273.54,132.7C273.97,134.08 274.33,135.47 274.66,136.86C274.98,138.24 275.25,139.63 275.49,141.02C275.73,142.4 275.9,143.79 276.09,145.18C276.28,146.57 276.44,147.95 276.61,149.34C276.78,150.73 276.95,152.11 277.13,153.5C277.32,154.89 277.51,156.27 277.72,157.66C277.93,159.05 278.15,160.43 278.37,161.82C278.59,163.21 278.82,164.59 279.04,165.98C279.26,167.37 279.47,168.75 279.67,170.14C279.87,171.53 280.06,172.91 280.23,174.3C280.4,175.69 280.55,177.07 280.69,178.46C280.83,179.85 280.95,181.23 281.06,182.62C281.17,184.01 281.27,185.39 281.36,186.78C281.45,188.17 281.52,189.55 281.59,190.94C281.66,192.33 281.73,193.71 281.79,195.1C281.85,196.49 281.91,197.87 281.97,199.26C282.03,200.65 282.09,202.03 282.17,203.42C282.25,204.81 282.34,206.19 282.44,207.58C282.54,208.97 282.65,210.35 282.78,211.74C282.91,213.13 283.06,214.51 283.2,215.9C283.35,217.29 283.5,218.67 283.65,220.06C283.8,221.45 283.95,222.83 284.09,224.22C284.23,225.61 284.37,226.99 284.49,228.38C284.61,229.77 284.72,231.15 284.82,232.54C284.92,233.93 285,235.31 285.07,236.7C285.14,238.09 285.2,239.47 285.25,240.86C285.3,242.25 285.33,243.63 285.36,245.02C285.39,246.41 285.4,247.79 285.41,249.18C285.42,250.57 285.43,251.95 285.44,253.34C285.45,254.73 285.46,256.11 285.47,257.5C285.49,258.89 285.51,260.27 285.53,261.66C285.56,263.05 285.58,264.43 285.62,265.82C285.66,267.21 285.71,268.59 285.75,269.98C285.8,271.37 285.84,272.75 285.89,274.14C285.94,275.53 285.98,276.91 286.03,278.3C286.07,279.69 286.12,281.07 286.16,282.46C286.2,283.85 286.24,285.23 286.28,286.62C286.32,288.01 286.36,289.39 286.4,290.78C286.44,292.17 286.49,293.55 286.53,294.94C286.58,296.33 286.62,297.71 286.67,299.1C286.72,300.49 286.76,301.87 286.81,303.26C286.85,304.65 286.9,306.03 286.94,307.42C286.98,308.81 287.02,310.19 287.06,311.58C287.1,312.97 287.13,314.35 287.16,315.74C287.19,317.13 287.22,318.51 287.24,319.9C287.26,321.29 287.27,322.67 287.27,324.06C287.27,325.45 287.28,326.83 287.27,328.22C287.26,329.61 287.24,330.99 287.22,332.38C287.2,333.77 287.17,335.15 287.15,336.54C287.12,337.93 287.1,339.31 287.07,340.7C287.04,342.09 287.02,343.47 286.99,344.86C286.97,346.25 286.94,347.63 286.92,349.02C286.9,350.41 286.88,351.79 286.86,353.18C286.84,354.57 286.83,355.95 286.81,357.34C286.8,358.73 286.78,360.11 286.77,361.5C286.76,362.89 286.74,364.27 286.74,365.66C286.74,367.05 286.74,368.43 286.74,369.82C286.74,371.21 286.75,372.59 286.76,373.98C286.77,375.37 286.79,376.75 286.82,378.14C286.85,379.53 286.88,380.91 286.92,382.3C286.96,383.69 287,385.07 287.05,386.46C287.1,387.85 287.15,389.23 287.2,390.62C287.25,392.01 287.29,393.39 287.33,394.78C287.37,396.17 287.41,397.55 287.44,398.94C287.47,400.33 287.49,401.71 287.51,403.1C287.53,404.49 287.54,405.87 287.56,407.26C287.57,408.65 287.59,410.03 287.6,411.42C287.62,412.81 287.63,414.19 287.65,415.58C287.67,416.97 287.69,418.35 287.71,419.74C287.73,421.13 287.76,422.51 287.79,423.9C287.82,425.29 287.85,426.67 287.87,428.06C287.89,429.45 287.91,430.83 287.93,432.22C287.94,433.61 287.95,434.99 287.96,436.38C287.97,437.77 287.97,439.15 287.97,440.54C287.97,441.93 287.97,443.31 287.97,444.7C287.97,446.09 287.98,447.47 287.98,448.86C287.98,450.25 287.99,451.63 287.99,453.02C288,454.41 288,455.79 288.01,457.18C288.02,458.57 288.04,459.95 288.05,461.34C288.06,462.73 288.08,464.11 288.09,465.5C288.1,466.89 288.12,468.27 288.13,469.66C288.15,471.05 288.16,472.43 288.18,473.82C288.19,475.21 288.21,476.59 288.22,477.98C288.23,479.37 288.23,480.75 288.24,482.14C288.24,483.53 288.25,484.91 288.25,486.3C288.25,487.69 288.25,489.07 288.25,490.46C288.25,491.85 288.23,493.23 288.22,494.62C288.21,496.01 288.2,497.39 288.19,498.78C288.18,500.17 288.16,501.55 288.15,502.94C288.14,504.33 288.12,505.71 288.11,507.1C288.1,508.49 288.08,509.87 288.07,511.26C288.06,512.65 288.05,514.03 288.04,515.42C288.03,516.81 288.02,518.19 288.02,519.58C288.02,520.97 288.02,522.35 288.02,523.74C288.02,525.13 288.04,526.51 288.05,527.9C288.06,529.29 288.08,530.67 288.09,532.06C288.11,533.45 288.12,534.83 288.14,536.22C288.16,537.61 288.18,538.99 288.21,540.38C288.24,541.77 288.27,543.15 288.3,544.54C288.33,545.93 288.37,547.31 288.4,548.7C288.44,550.09 288.47,551.47 288.51,552.86C288.54,554.25 288.58,555.63 288.61,557.02C288.64,558.41 288.67,559.79 288.69,561.18C288.71,562.57 288.74,563.95 288.75,565.34C288.76,566.73 288.77,568.11 288.76,569.5C288.75,570.89 288.73,572.27 288.7,573.66C288.67,575.05 288.62,576.43 288.56,577.82C288.49,579.21 288.41,580.59 288.31,581.98C288.21,583.37 288.08,584.75 287.94,586.14C287.8,587.53 287.64,588.91 287.49,590.3C287.34,591.69 287.17,593.07 287.04,594.46C286.91,595.85 286.79,597.23 286.71,598.62Q286.64,600.01 286.59,602.78L288.89,602.78" style="vector-effect: non-scaling-stroke; stroke-width: 2px; stroke: rgb(0, 0, 255); stroke-opacity: 1; fill: rgb(0, 0, 255); fill-opacity: 0.5;"/><path class="meanline" d="M256.11065673828125,93.52H288.89" style="fill: none; vector-effect: non-scaling-stroke; stroke-width: 3px; stroke-dasharray: 6px, 3px; stroke: rgb(255, 255, 255); stroke-opacity: 1;"/></g><g class="trace violins" style="opacity: 1;"><path class="violin" d="M288.89,602.78L288.91,602.78Q288.91,601.51 288.91,600.87C288.91,600.23 288.91,599.6 288.91,598.96C288.91,598.33 288.9,597.69 288.9,597.06C288.9,596.42 288.9,595.79 288.9,595.15C288.9,594.51 288.9,593.88 288.9,593.24C288.9,592.6 288.89,591.97 288.89,591.33C288.89,590.7 288.89,590.06 288.89,589.43C288.89,588.79 288.89,588.16 288.89,587.52C288.89,586.88 288.89,586.25 288.89,585.61C288.89,584.98 288.89,584.34 288.89,583.71C288.89,583.07 288.89,582.44 288.89,581.8C288.89,581.16 288.89,580.53 288.89,579.89C288.89,579.25 288.89,578.62 288.89,577.98C288.89,577.35 288.89,576.71 288.89,576.08C288.89,575.44 288.89,574.81 288.89,574.17C288.89,573.53 288.89,572.9 288.89,572.26C288.89,571.62 288.89,570.99 288.89,570.35C288.89,569.72 288.89,569.08 288.89,568.45C288.89,567.81 288.89,567.18 288.89,566.54C288.89,565.9 288.89,565.27 288.89,564.63C288.89,564 288.89,563.36 288.89,562.73C288.89,562.09 288.89,561.46 288.89,560.82C288.89,560.18 288.89,559.55 288.89,558.91C288.89,558.27 288.89,557.64 288.89,557C288.89,556.37 288.89,555.73 288.89,555.1C288.89,554.46 288.89,553.83 288.89,553.19C288.89,552.55 288.89,551.92 288.89,551.28C288.89,550.65 288.89,550.01 288.89,549.38C288.89,548.74 288.89,548.11 288.89,547.47C288.89,546.83 288.89,546.2 288.89,545.56C288.89,544.92 288.89,544.29 288.89,543.65C288.89,543.02 288.89,542.38 288.89,541.75C288.89,541.11 288.89,540.48 288.89,539.84C288.89,539.2 288.89,538.57 288.89,537.93C288.89,537.29 288.89,536.66 288.89,536.02C288.89,535.39 288.89,534.75 288.89,534.12C288.89,533.48 288.9,532.85 288.9,532.21C288.9,531.57 288.9,530.94 288.9,530.3C288.9,529.67 288.89,529.03 288.89,528.4C288.89,527.76 288.89,527.13 288.89,526.49C288.89,525.85 288.89,525.22 288.89,524.58C288.89,523.94 288.89,523.31 288.89,522.67C288.89,522.04 288.89,521.4 288.89,520.77C288.89,520.13 288.89,519.5 288.89,518.86C288.89,518.22 288.89,517.59 288.89,516.95C288.89,516.32 288.89,515.68 288.89,515.05C288.89,514.41 288.89,513.78 288.89,513.14C288.89,512.5 288.89,511.87 288.89,511.23C288.89,510.59 288.89,509.96 288.89,509.32C288.89,508.69 288.89,508.05 288.89,507.42C288.89,506.78 288.89,506.15 288.89,505.51C288.89,504.87 288.89,504.24 288.89,503.6C288.89,502.96 288.89,502.33 288.89,501.69C288.89,501.06 288.89,500.42 288.89,499.79C288.89,499.15 288.89,498.52 288.89,497.88C288.89,497.24 288.89,496.61 288.89,495.97C288.89,495.34 288.89,494.7 288.89,494.07C288.89,493.43 288.9,492.8 288.9,492.16C288.9,491.52 288.9,490.89 288.9,490.25C288.9,489.61 288.89,488.98 288.89,488.34C288.89,487.71 288.89,487.07 288.89,486.44C288.89,485.8 288.89,485.17 288.89,484.53C288.89,483.89 288.89,483.26 288.89,482.62C288.89,481.99 288.89,481.35 288.89,480.72C288.89,480.08 288.89,479.45 288.89,478.81C288.89,478.17 288.89,477.54 288.89,476.9C288.89,476.26 288.89,475.63 288.89,474.99C288.89,474.36 288.89,473.72 288.89,473.09C288.89,472.45 288.89,471.82 288.89,471.18C288.89,470.54 288.89,469.91 288.89,469.27C288.89,468.63 288.89,468 288.89,467.36C288.89,466.73 288.89,466.09 288.89,465.46C288.89,464.82 288.89,464.19 288.89,463.55C288.89,462.91 288.89,462.28 288.89,461.64C288.89,461.01 288.89,460.37 288.89,459.74C288.89,459.1 288.89,458.47 288.89,457.83C288.89,457.19 288.89,456.56 288.89,455.92C288.89,455.28 288.89,454.65 288.89,454.01C288.89,453.38 288.89,452.74 288.89,452.11C288.89,451.47 288.89,450.84 288.89,450.2C288.89,449.56 288.89,448.93 288.89,448.29C288.89,447.66 288.9,447.02 288.9,446.39C288.9,445.75 288.9,445.12 288.9,444.48C288.9,443.84 288.9,443.21 288.9,442.57C288.9,441.93 288.9,441.3 288.9,440.66C288.9,440.03 288.9,439.39 288.9,438.76C288.9,438.12 288.9,437.49 288.9,436.85C288.9,436.21 288.91,435.58 288.91,434.94C288.91,434.3 288.91,433.67 288.91,433.03C288.91,432.4 288.91,431.76 288.91,431.13C288.91,430.49 288.91,429.86 288.91,429.22C288.91,428.58 288.91,427.95 288.91,427.31C288.91,426.68 288.91,426.04 288.91,425.41C288.91,424.77 288.91,424.14 288.91,423.5C288.91,422.86 288.91,422.23 288.91,421.59C288.91,420.95 288.91,420.32 288.91,419.68C288.91,419.05 288.91,418.41 288.91,417.78C288.91,417.14 288.91,416.51 288.91,415.87C288.91,415.23 288.91,414.6 288.91,413.96C288.91,413.33 288.91,412.69 288.91,412.06C288.91,411.42 288.9,410.79 288.9,410.15C288.9,409.51 288.9,408.88 288.9,408.24C288.9,407.6 288.9,406.97 288.9,406.33C288.9,405.7 288.9,405.06 288.9,404.43C288.9,403.79 288.9,403.16 288.9,402.52C288.9,401.88 288.9,401.25 288.9,400.61C288.9,399.97 288.9,399.34 288.9,398.7C288.9,398.07 288.9,397.43 288.9,396.8C288.9,396.16 288.9,395.53 288.9,394.89C288.9,394.25 288.9,393.62 288.9,392.98C288.9,392.35 288.91,391.71 288.91,391.08C288.91,390.44 288.91,389.81 288.91,389.17C288.91,388.53 288.91,387.9 288.91,387.26C288.91,386.62 288.91,385.99 288.91,385.35C288.91,384.72 288.92,384.08 288.92,383.45C288.92,382.81 288.92,382.18 288.92,381.54C288.92,380.9 288.92,380.27 288.92,379.63C288.92,379 288.92,378.36 288.92,377.73C288.92,377.09 288.93,376.46 288.93,375.82C288.93,375.18 288.93,374.55 288.93,373.91C288.93,373.27 288.93,372.64 288.93,372C288.93,371.37 288.93,370.73 288.93,370.1C288.93,369.46 288.93,368.83 288.93,368.19C288.93,367.55 288.92,366.92 288.92,366.28C288.92,365.64 288.92,365.01 288.92,364.37C288.92,363.74 288.92,363.1 288.92,362.47C288.92,361.83 288.92,361.2 288.92,360.56C288.92,359.92 288.92,359.29 288.92,358.65C288.92,358.02 288.93,357.38 288.93,356.75C288.93,356.11 288.92,355.48 288.92,354.84C288.92,354.2 288.92,353.57 288.92,352.93C288.92,352.29 288.92,351.66 288.92,351.02C288.92,350.39 288.92,349.75 288.92,349.12C288.92,348.48 288.92,347.85 288.92,347.21C288.92,346.57 288.93,345.94 288.93,345.3C288.93,344.67 288.93,344.03 288.93,343.4C288.93,342.76 288.94,342.13 288.94,341.49C288.94,340.85 288.95,340.22 288.95,339.58C288.95,338.94 288.96,338.31 288.96,337.67C288.96,337.04 288.96,336.4 288.96,335.77C288.96,335.13 288.97,334.5 288.97,333.86C288.97,333.22 288.97,332.59 288.97,331.95C288.97,331.31 288.97,330.68 288.97,330.04C288.97,329.41 288.98,328.77 288.98,328.14C288.98,327.5 288.98,326.87 288.98,326.23C288.98,325.59 288.98,324.96 288.98,324.32C288.98,323.69 288.98,323.05 288.98,322.42C288.98,321.78 288.98,321.15 288.98,320.51C288.98,319.87 288.98,319.24 288.98,318.6C288.98,317.96 288.97,317.33 288.97,316.69C288.97,316.06 288.97,315.42 288.97,314.79C288.97,314.15 288.97,313.52 288.97,312.88C288.97,312.24 288.96,311.61 288.96,310.97C288.96,310.34 288.97,309.7 288.97,309.07C288.97,308.43 288.97,307.8 288.97,307.16C288.97,306.52 288.98,305.89 288.98,305.25C288.98,304.61 288.99,303.98 288.99,303.34C288.99,302.71 288.99,302.07 288.99,301.44C288.99,300.8 288.99,300.17 288.99,299.53C288.99,298.89 288.99,298.26 288.99,297.62C288.99,296.98 288.99,296.35 288.99,295.71C288.99,295.08 288.98,294.44 288.98,293.81C288.98,293.17 288.98,292.54 288.98,291.9C288.98,291.26 288.98,290.63 288.98,289.99C288.98,289.36 288.98,288.72 288.98,288.09C288.98,287.45 288.99,286.82 288.99,286.18C288.99,285.54 289,284.91 289,284.27C289.01,283.63 289.01,283 289.02,282.36C289.03,281.73 289.04,281.09 289.04,280.46C289.05,279.82 289.05,279.19 289.05,278.55C289.06,277.91 289.06,277.28 289.07,276.64C289.08,276.01 289.09,275.37 289.09,274.74C289.1,274.1 289.1,273.47 289.1,272.83C289.1,272.19 289.11,271.56 289.11,270.92C289.11,270.28 289.11,269.65 289.11,269.01C289.11,268.38 289.1,267.74 289.1,267.11C289.1,266.47 289.09,265.84 289.09,265.2C289.09,264.56 289.09,263.93 289.09,263.29C289.09,262.65 289.08,262.02 289.08,261.38C289.08,260.75 289.09,260.11 289.09,259.48C289.09,258.84 289.09,258.21 289.09,257.57C289.09,256.93 289.1,256.3 289.1,255.66C289.1,255.03 289.11,254.39 289.11,253.76C289.11,253.12 289.12,252.49 289.12,251.85C289.12,251.21 289.13,250.58 289.13,249.94C289.14,249.3 289.14,248.67 289.15,248.03C289.16,247.4 289.16,246.76 289.17,246.13C289.18,245.49 289.18,244.86 289.19,244.22C289.2,243.58 289.2,242.95 289.21,242.31C289.22,241.68 289.23,241.04 289.23,240.41C289.24,239.77 289.24,239.14 289.24,238.5C289.24,237.86 289.24,237.23 289.24,236.59C289.24,235.95 289.24,235.32 289.24,234.68C289.24,234.05 289.24,233.41 289.24,232.78C289.24,232.14 289.23,231.51 289.23,230.87C289.23,230.23 289.23,229.6 289.23,228.96C289.23,228.32 289.23,227.69 289.23,227.05C289.23,226.42 289.24,225.78 289.24,225.15C289.24,224.51 289.24,223.88 289.24,223.24C289.24,222.6 289.24,221.97 289.24,221.33C289.24,220.7 289.24,220.06 289.24,219.43C289.24,218.79 289.24,218.16 289.24,217.52C289.24,216.88 289.24,216.25 289.24,215.61C289.24,214.97 289.25,214.34 289.25,213.7C289.25,213.07 289.26,212.43 289.26,211.8C289.27,211.16 289.27,210.53 289.28,209.89C289.29,209.25 289.3,208.62 289.31,207.98C289.32,207.35 289.34,206.71 289.35,206.08C289.36,205.44 289.37,204.81 289.38,204.17C289.39,203.53 289.4,202.9 289.41,202.26C289.42,201.62 289.43,200.99 289.44,200.35C289.45,199.72 289.46,199.08 289.47,198.45C289.48,197.81 289.49,197.18 289.5,196.54C289.51,195.9 289.53,195.27 289.54,194.63C289.55,193.99 289.57,193.36 289.58,192.72C289.59,192.09 289.6,191.45 289.61,190.82C289.62,190.18 289.64,189.55 289.65,188.91C289.66,188.27 289.68,187.64 289.69,187C289.7,186.37 289.72,185.73 289.73,185.1C289.74,184.46 289.76,183.83 289.77,183.19C289.78,182.55 289.8,181.92 289.81,181.28C289.82,180.64 289.84,180.01 289.85,179.37C289.86,178.74 289.88,178.1 289.89,177.47C289.9,176.83 289.92,176.2 289.93,175.56C289.94,174.92 289.96,174.29 289.97,173.65C289.98,173.02 289.99,172.38 290,171.75C290.01,171.11 290.02,170.48 290.03,169.84C290.04,169.2 290.04,168.57 290.05,167.93C290.05,167.29 290.06,166.66 290.06,166.02C290.06,165.39 290.05,164.75 290.05,164.12C290.05,163.48 290.04,162.85 290.04,162.21C290.03,161.57 290.03,160.94 290.02,160.3C290.02,159.66 290.01,159.03 290.01,158.39C290.01,157.76 290,157.12 290,156.49C290,155.85 290.01,155.22 290.01,154.58C290.02,153.94 290.02,153.31 290.03,152.67C290.04,152.04 290.06,151.4 290.07,150.77C290.09,150.13 290.1,149.5 290.12,148.86C290.14,148.22 290.17,147.59 290.19,146.95C290.22,146.31 290.24,145.68 290.27,145.04C290.3,144.41 290.34,143.77 290.37,143.14C290.4,142.5 290.44,141.87 290.47,141.23C290.5,140.59 290.54,139.96 290.57,139.32C290.6,138.69 290.63,138.05 290.65,137.42C290.68,136.78 290.7,136.15 290.72,135.51C290.74,134.87 290.75,134.24 290.76,133.6C290.77,132.96 290.77,132.33 290.78,131.69C290.78,131.06 290.79,130.42 290.79,129.79C290.79,129.15 290.78,128.52 290.78,127.88C290.78,127.24 290.78,126.61 290.78,125.97C290.78,125.33 290.78,124.7 290.78,124.06C290.78,123.43 290.79,122.79 290.79,122.16C290.79,121.52 290.8,120.89 290.8,120.25C290.81,119.61 290.81,118.98 290.82,118.34C290.83,117.71 290.84,117.07 290.85,116.44C290.86,115.8 290.86,115.17 290.87,114.53C290.88,113.89 290.88,113.26 290.89,112.62C290.9,111.98 290.9,111.35 290.91,110.71C290.92,110.08 290.93,109.44 290.94,108.81C290.95,108.17 290.96,107.54 290.97,106.9C290.98,106.26 291,105.63 291.01,104.99C291.02,104.36 291.04,103.72 291.05,103.09C291.06,102.45 291.08,101.82 291.09,101.18C291.1,100.54 291.11,99.91 291.12,99.27C291.13,98.63 291.14,98 291.15,97.36C291.16,96.73 291.16,96.09 291.17,95.46C291.18,94.82 291.18,94.19 291.19,93.55C291.2,92.91 291.2,92.28 291.21,91.64C291.22,91 291.22,90.37 291.23,89.73C291.24,89.1 291.25,88.46 291.26,87.83C291.27,87.19 291.29,86.56 291.3,85.92C291.32,85.28 291.33,84.65 291.35,84.01C291.37,83.38 291.39,82.74 291.41,82.11C291.43,81.47 291.44,80.84 291.46,80.2C291.47,79.56 291.49,78.93 291.5,78.29C291.51,77.65 291.53,77.02 291.54,76.38C291.55,75.75 291.55,75.11 291.55,74.48C291.56,73.84 291.56,73.21 291.57,72.57C291.58,71.93 291.59,71.3 291.61,70.66C291.63,70.03 291.65,69.39 291.68,68.76C291.71,68.12 291.75,67.49 291.79,66.85C291.84,66.21 291.89,65.58 291.95,64.94C292.01,64.3 292.07,63.67 292.14,63.03C292.21,62.4 292.28,61.76 292.35,61.13C292.42,60.49 292.5,59.86 292.57,59.22C292.64,58.58 292.71,57.95 292.78,57.31C292.85,56.67 292.92,56.04 292.99,55.4C293.06,54.77 293.14,54.13 293.22,53.5C293.31,52.86 293.39,52.22 293.5,51.59C293.61,50.95 293.73,50.31 293.9,49.68C294.08,49.04 294.26,48.4 294.55,47.78C294.86,47.13 295.22,46.47 295.73,45.87C296.31,45.19 297.04,44.54 297.94,43.96C299.06,43.24 300.48,42.62 302.08,42.05C304.12,41.32 306.6,40.73 309.29,40.15C312.64,39.43 316.56,38.83 320.66,38.24C325.47,37.54 330.92,36.94 336.4,36.33C342.36,35.67 348.91,35.07 355.11,34.43C361.24,33.8 367.8,33.22 373.41,32.52C378.2,31.93 383.54,31.52 386.7,30.61Q388.57,30.07 390.98,28.7L288.89,28.7" style="vector-effect: non-scaling-stroke; stroke-width: 2px; stroke: rgb(0, 128, 0); stroke-opacity: 1; fill: rgb(0, 128, 0); fill-opacity: 0.5;"/><path class="meanline" d="M296.36175537109375,45.2H288.89" style="fill: none; vector-effect: non-scaling-stroke; stroke-width: 3px; stroke-dasharray: 6px, 3px; stroke: rgb(255, 255, 255); stroke-opacity: 1;"/></g><g class="trace violins" style="opacity: 1;"><path class="violin" d="M520,28.7L418.72,28.7Q417.23,32.77 417.91,34.56C418.75,36.77 422.09,38.61 424.81,40.42C428.08,42.59 432.45,44.36 436.43,46.28C440.56,48.27 445.08,50.13 449.15,52.14C453,54.04 456.87,55.92 460.24,57.99C463.27,59.85 466.11,61.78 468.52,63.85C470.68,65.71 472.55,67.68 474.18,69.71C475.7,71.6 476.91,73.58 478.07,75.57C479.19,77.49 480.12,79.46 481.06,81.42C481.99,83.36 482.83,85.32 483.67,87.28C484.5,89.23 485.31,91.18 486.08,93.14C486.84,95.09 487.59,97.04 488.26,99C488.93,100.94 489.55,102.9 490.11,104.86C490.66,106.8 491.16,108.75 491.59,110.71C492.02,112.66 492.38,114.61 492.71,116.57C493.04,118.52 493.3,120.48 493.56,122.43C493.82,124.38 494.04,126.34 494.27,128.29C494.5,130.24 494.71,132.2 494.94,134.15C495.17,136.1 495.4,138.05 495.64,140C495.88,141.95 496.13,143.91 496.37,145.86C496.61,147.81 496.85,149.77 497.08,151.72C497.31,153.67 497.52,155.63 497.73,157.58C497.94,159.53 498.13,161.49 498.32,163.44C498.51,165.39 498.69,167.34 498.89,169.29C499.1,171.24 499.3,173.2 499.55,175.15C499.8,177.11 500.07,179.06 500.38,181.01C500.69,182.97 501.05,184.92 501.43,186.87C501.82,188.82 502.25,190.77 502.69,192.72C503.13,194.67 503.6,196.63 504.06,198.58C504.51,200.53 504.99,202.48 505.42,204.44C505.85,206.39 506.27,208.34 506.65,210.3C507.02,212.25 507.36,214.2 507.67,216.16C507.97,218.11 508.24,220.06 508.48,222.01C508.72,223.96 508.91,225.92 509.1,227.87C509.29,229.82 509.44,231.78 509.6,233.73C509.76,235.68 509.91,237.64 510.07,239.59C510.22,241.54 510.37,243.5 510.53,245.45C510.69,247.4 510.86,249.35 511.03,251.3C511.2,253.25 511.38,255.21 511.56,257.16C511.74,259.11 511.92,261.07 512.11,263.02C512.3,264.97 512.49,266.93 512.68,268.88C512.87,270.83 513.07,272.79 513.27,274.74C513.46,276.69 513.66,278.64 513.85,280.59C514.04,282.54 514.23,284.5 514.4,286.45C514.57,288.4 514.73,290.36 514.88,292.31C515.02,294.26 515.16,296.22 515.27,298.17C515.38,300.12 515.48,302.07 515.56,304.02C515.64,305.97 515.7,307.93 515.76,309.88C515.82,311.83 515.85,313.79 515.9,315.74C515.94,317.69 515.99,319.65 516.03,321.6C516.07,323.55 516.11,325.51 516.16,327.46C516.21,329.41 516.26,331.36 516.32,333.31C516.38,335.26 516.44,337.22 516.5,339.17C516.56,341.12 516.64,343.08 516.7,345.03C516.76,346.98 516.82,348.94 516.88,350.89C516.94,352.84 516.99,354.8 517.04,356.75C517.09,358.7 517.13,360.65 517.17,362.6C517.21,364.55 517.25,366.51 517.29,368.46C517.33,370.41 517.36,372.37 517.39,374.32C517.43,376.27 517.46,378.23 517.5,380.18C517.54,382.13 517.58,384.09 517.62,386.04C517.66,387.99 517.71,389.94 517.75,391.89C517.8,393.84 517.84,395.8 517.89,397.75C517.93,399.7 517.98,401.66 518.02,403.61C518.06,405.56 518.11,407.52 518.15,409.47C518.19,411.42 518.22,413.38 518.26,415.33C518.29,417.28 518.33,419.23 518.36,421.18C518.39,423.13 518.42,425.09 518.45,427.04C518.48,428.99 518.5,430.95 518.53,432.9C518.56,434.85 518.59,436.81 518.61,438.76C518.63,440.71 518.65,442.66 518.67,444.61C518.69,446.56 518.71,448.52 518.73,450.47C518.74,452.42 518.75,454.38 518.76,456.33C518.77,458.28 518.78,460.24 518.79,462.19C518.8,464.14 518.81,466.1 518.83,468.05C518.84,470 518.86,471.95 518.88,473.9C518.9,475.85 518.94,477.81 518.97,479.76C519,481.71 519.04,483.67 519.08,485.62C519.12,487.57 519.16,489.53 519.2,491.48C519.24,493.43 519.28,495.39 519.32,497.34C519.36,499.29 519.4,501.24 519.43,503.19C519.46,505.14 519.48,507.1 519.51,509.05C519.53,511 519.56,512.96 519.58,514.91C519.6,516.86 519.61,518.82 519.62,520.77C519.63,522.72 519.64,524.68 519.65,526.63C519.66,528.58 519.66,530.53 519.66,532.48C519.67,534.43 519.67,536.39 519.68,538.34C519.69,540.29 519.7,542.25 519.71,544.2C519.72,546.15 519.73,548.11 519.74,550.06C519.75,552.01 519.76,553.96 519.77,555.91C519.78,557.86 519.79,559.82 519.8,561.77C519.81,563.72 519.81,565.68 519.81,567.63C519.81,569.58 519.8,571.54 519.79,573.49C519.78,575.44 519.75,577.4 519.73,579.35C519.71,581.3 519.68,583.25 519.65,585.2C519.62,587.15 519.59,589.11 519.56,591.06C519.53,593.01 519.51,594.97 519.49,596.92Q519.47,598.87 519.46,602.78L520,602.78" style="vector-effect: non-scaling-stroke; stroke-width: 2px; stroke: rgb(0, 0, 255); stroke-opacity: 1; fill: rgb(0, 0, 255); fill-opacity: 0.5;"/><path class="meanline" d="M489.0820007324219,101.47H520" style="fill: none; vector-effect: non-scaling-stroke; stroke-width: 3px; stroke-dasharray: 6px, 3px; stroke: rgb(255, 255, 255); stroke-opacity: 1;"/></g><g class="trace violins" style="opacity: 1;"><path class="violin" d="M520,602.78L520.03,602.78Q520.02,601.51 520.02,600.87C520.02,600.23 520.02,599.6 520.02,598.96C520.02,598.33 520.02,597.69 520.02,597.06C520.02,596.42 520.01,595.79 520.01,595.15C520.01,594.51 520.01,593.88 520.01,593.24C520.01,592.6 520,591.97 520,591.33C520,590.7 520,590.06 520,589.43C520,588.79 520,588.16 520,587.52C520,586.88 520,586.25 520,585.61C520,584.98 520,584.34 520,583.71C520,583.07 520,582.44 520,581.8C520,581.16 520,580.53 520,579.89C520,579.25 520,578.62 520,577.98C520,577.35 520,576.71 520,576.08C520,575.44 520,574.81 520,574.17C520,573.53 520,572.9 520,572.26C520,571.62 520,570.99 520,570.35C520,569.72 520,569.08 520,568.45C520,567.81 520,567.18 520,566.54C520,565.9 520,565.27 520,564.63C520,564 520,563.36 520,562.73C520,562.09 520,561.46 520,560.82C520,560.18 520,559.55 520,558.91C520,558.27 520,557.64 520,557C520,556.37 520,555.73 520,555.1C520,554.46 520,553.83 520,553.19C520,552.55 520,551.92 520,551.28C520,550.65 520,550.01 520,549.38C520,548.74 520,548.11 520,547.47C520,546.83 520,546.2 520,545.56C520,544.92 520,544.29 520,543.65C520,543.02 520,542.38 520,541.75C520,541.11 520,540.48 520,539.84C520,539.2 520,538.57 520,537.93C520,537.29 520,536.66 520,536.02C520,535.39 520.01,534.75 520.01,534.12C520.01,533.48 520.01,532.85 520.01,532.21C520.01,531.57 520.01,530.94 520.01,530.3C520.01,529.67 520.01,529.03 520.01,528.4C520.01,527.76 520,527.13 520,526.49C520,525.85 520,525.22 520,524.58C520,523.94 520,523.31 520,522.67C520,522.04 520,521.4 520,520.77C520,520.13 520,519.5 520,518.86C520,518.22 520,517.59 520,516.95C520,516.32 520,515.68 520,515.05C520,514.41 520,513.78 520,513.14C520,512.5 520,511.87 520,511.23C520,510.59 520,509.96 520,509.32C520,508.69 520,508.05 520,507.42C520,506.78 520,506.15 520,505.51C520,504.87 520,504.24 520,503.6C520,502.96 520,502.33 520,501.69C520,501.06 520,500.42 520,499.79C520,499.15 520,498.52 520,497.88C520,497.24 520,496.61 520,495.97C520,495.34 520.01,494.7 520.01,494.07C520.01,493.43 520.01,492.8 520.01,492.16C520.01,491.52 520.01,490.89 520.01,490.25C520.01,489.61 520.01,488.98 520.01,488.34C520.01,487.71 520,487.07 520,486.44C520,485.8 520,485.17 520,484.53C520,483.89 520,483.26 520,482.62C520,481.99 520,481.35 520,480.72C520,480.08 520,479.45 520,478.81C520,478.17 520,477.54 520,476.9C520,476.26 520,475.63 520,474.99C520,474.36 520,473.72 520,473.09C520,472.45 520,471.82 520,471.18C520,470.54 520,469.91 520,469.27C520,468.63 520,468 520,467.36C520,466.73 520,466.09 520,465.46C520,464.82 520,464.19 520,463.55C520,462.91 520,462.28 520,461.64C520,461.01 520,460.37 520,459.74C520,459.1 520,458.47 520,457.83C520,457.19 520,456.56 520,455.92C520,455.28 520,454.65 520,454.01C520,453.38 520,452.74 520,452.11C520,451.47 520,450.84 520,450.2C520,449.56 520.01,448.93 520.01,448.29C520.01,447.66 520.01,447.02 520.01,446.39C520.01,445.75 520.01,445.12 520.01,444.48C520.01,443.84 520.01,443.21 520.01,442.57C520.01,441.93 520.01,441.3 520.01,440.66C520.01,440.03 520.01,439.39 520.01,438.76C520.01,438.12 520.02,437.49 520.02,436.85C520.02,436.21 520.02,435.58 520.02,434.94C520.02,434.3 520.02,433.67 520.02,433.03C520.02,432.4 520.02,431.76 520.02,431.13C520.02,430.49 520.02,429.86 520.02,429.22C520.02,428.58 520.02,427.95 520.02,427.31C520.02,426.68 520.02,426.04 520.02,425.41C520.02,424.77 520.02,424.14 520.02,423.5C520.02,422.86 520.02,422.23 520.02,421.59C520.02,420.95 520.03,420.32 520.03,419.68C520.03,419.05 520.02,418.41 520.02,417.78C520.02,417.14 520.02,416.51 520.02,415.87C520.02,415.23 520.02,414.6 520.02,413.96C520.02,413.33 520.02,412.69 520.02,412.06C520.02,411.42 520.02,410.79 520.02,410.15C520.02,409.51 520.01,408.88 520.01,408.24C520.01,407.6 520.01,406.97 520.01,406.33C520.01,405.7 520.01,405.06 520.01,404.43C520.01,403.79 520.01,403.16 520.01,402.52C520.01,401.88 520.01,401.25 520.01,400.61C520.01,399.97 520.01,399.34 520.01,398.7C520.01,398.07 520.01,397.43 520.01,396.8C520.01,396.16 520.01,395.53 520.01,394.89C520.01,394.25 520.01,393.62 520.01,392.98C520.01,392.35 520.02,391.71 520.02,391.08C520.02,390.44 520.02,389.81 520.02,389.17C520.02,388.53 520.02,387.9 520.02,387.26C520.02,386.62 520.02,385.99 520.02,385.35C520.02,384.72 520.03,384.08 520.03,383.45C520.03,382.81 520.03,382.18 520.03,381.54C520.03,380.9 520.03,380.27 520.03,379.63C520.03,379 520.04,378.36 520.04,377.73C520.04,377.09 520.04,376.46 520.04,375.82C520.04,375.18 520.04,374.55 520.04,373.91C520.04,373.27 520.04,372.64 520.04,372C520.04,371.37 520.04,370.73 520.04,370.1C520.04,369.46 520.04,368.83 520.04,368.19C520.04,367.55 520.03,366.92 520.03,366.28C520.03,365.64 520.03,365.01 520.03,364.37C520.03,363.74 520.03,363.1 520.03,362.47C520.03,361.83 520.03,361.2 520.03,360.56C520.03,359.92 520.04,359.29 520.04,358.65C520.04,358.02 520.04,357.38 520.04,356.75C520.04,356.11 520.04,355.48 520.04,354.84C520.04,354.2 520.03,353.57 520.03,352.93C520.03,352.29 520.03,351.66 520.03,351.02C520.03,350.39 520.03,349.75 520.03,349.12C520.03,348.48 520.03,347.85 520.03,347.21C520.03,346.57 520.04,345.94 520.04,345.3C520.04,344.67 520.04,344.03 520.04,343.4C520.04,342.76 520.05,342.13 520.05,341.49C520.05,340.85 520.06,340.22 520.06,339.58C520.06,338.94 520.07,338.31 520.07,337.67C520.07,337.04 520.07,336.4 520.07,335.77C520.07,335.13 520.08,334.5 520.08,333.86C520.08,333.22 520.08,332.59 520.08,331.95C520.08,331.31 520.08,330.68 520.08,330.04C520.08,329.41 520.09,328.77 520.09,328.14C520.09,327.5 520.09,326.87 520.09,326.23C520.09,325.59 520.09,324.96 520.09,324.32C520.09,323.69 520.09,323.05 520.09,322.42C520.09,321.78 520.09,321.15 520.09,320.51C520.09,319.87 520.09,319.24 520.09,318.6C520.09,317.96 520.08,317.33 520.08,316.69C520.08,316.06 520.08,315.42 520.08,314.79C520.08,314.15 520.08,313.52 520.08,312.88C520.08,312.24 520.08,311.61 520.08,310.97C520.08,310.34 520.08,309.7 520.08,309.07C520.08,308.43 520.08,307.8 520.08,307.16C520.08,306.52 520.09,305.89 520.09,305.25C520.09,304.61 520.1,303.98 520.1,303.34C520.1,302.71 520.1,302.07 520.1,301.44C520.1,300.8 520.11,300.17 520.11,299.53C520.11,298.89 520.1,298.26 520.1,297.62C520.1,296.98 520.1,296.35 520.1,295.71C520.1,295.08 520.1,294.44 520.1,293.81C520.1,293.17 520.09,292.54 520.09,291.9C520.09,291.26 520.09,290.63 520.09,289.99C520.09,289.36 520.09,288.72 520.09,288.09C520.09,287.45 520.1,286.82 520.1,286.18C520.1,285.54 520.11,284.91 520.11,284.27C520.12,283.63 520.12,283 520.13,282.36C520.14,281.73 520.14,281.09 520.15,280.46C520.16,279.82 520.16,279.19 520.17,278.55C520.17,277.91 520.17,277.28 520.18,276.64C520.18,276.01 520.2,275.37 520.2,274.74C520.21,274.1 520.21,273.47 520.21,272.83C520.21,272.19 520.22,271.56 520.22,270.92C520.22,270.28 520.22,269.65 520.22,269.01C520.22,268.38 520.21,267.74 520.21,267.11C520.21,266.47 520.2,265.84 520.2,265.2C520.2,264.56 520.2,263.93 520.2,263.29C520.2,262.65 520.19,262.02 520.19,261.38C520.19,260.75 520.2,260.11 520.2,259.48C520.2,258.84 520.2,258.21 520.2,257.57C520.2,256.93 520.21,256.3 520.21,255.66C520.21,255.03 520.22,254.39 520.22,253.76C520.22,253.12 520.23,252.49 520.23,251.85C520.23,251.21 520.24,250.58 520.24,249.94C520.25,249.3 520.25,248.67 520.26,248.03C520.27,247.4 520.27,246.76 520.28,246.13C520.29,245.49 520.29,244.86 520.3,244.22C520.31,243.58 520.31,242.95 520.32,242.31C520.33,241.68 520.34,241.04 520.34,240.41C520.35,239.77 520.35,239.14 520.35,238.5C520.35,237.86 520.35,237.23 520.35,236.59C520.35,235.95 520.35,235.32 520.35,234.68C520.35,234.05 520.35,233.41 520.35,232.78C520.35,232.14 520.34,231.51 520.34,230.87C520.34,230.23 520.34,229.6 520.34,228.96C520.34,228.32 520.34,227.69 520.34,227.05C520.34,226.42 520.35,225.78 520.35,225.15C520.35,224.51 520.35,223.88 520.35,223.24C520.35,222.6 520.35,221.97 520.35,221.33C520.35,220.7 520.35,220.06 520.35,219.43C520.35,218.79 520.35,218.16 520.35,217.52C520.35,216.88 520.35,216.25 520.35,215.61C520.35,214.97 520.36,214.34 520.36,213.7C520.36,213.07 520.36,212.43 520.37,211.8C520.38,211.16 520.39,210.53 520.4,209.89C520.41,209.25 520.42,208.62 520.43,207.98C520.44,207.35 520.45,206.71 520.46,206.08C520.47,205.44 520.48,204.81 520.49,204.17C520.5,203.53 520.52,202.9 520.53,202.26C520.54,201.62 520.55,200.99 520.56,200.35C520.57,199.72 520.57,199.08 520.58,198.45C520.59,197.81 520.61,197.18 520.62,196.54C520.63,195.9 520.64,195.27 520.65,194.63C520.66,193.99 520.68,193.36 520.69,192.72C520.7,192.09 520.72,191.45 520.73,190.82C520.74,190.18 520.75,189.55 520.76,188.91C520.77,188.27 520.79,187.64 520.8,187C520.81,186.37 520.83,185.73 520.84,185.1C520.85,184.46 520.87,183.83 520.88,183.19C520.89,182.55 520.91,181.92 520.92,181.28C520.93,180.64 520.95,180.01 520.96,179.37C520.97,178.74 520.99,178.1 521,177.47C521.01,176.83 521.03,176.2 521.04,175.56C521.05,174.92 521.07,174.29 521.08,173.65C521.09,173.02 521.1,172.38 521.11,171.75C521.12,171.11 521.13,170.48 521.14,169.84C521.15,169.2 521.15,168.57 521.16,167.93C521.16,167.29 521.17,166.66 521.17,166.02C521.17,165.39 521.16,164.75 521.16,164.12C521.16,163.48 521.15,162.85 521.15,162.21C521.14,161.57 521.14,160.94 521.13,160.3C521.13,159.66 521.12,159.03 521.12,158.39C521.12,157.76 521.11,157.12 521.11,156.49C521.11,155.85 521.12,155.22 521.12,154.58C521.13,153.94 521.13,153.31 521.14,152.67C521.15,152.04 521.17,151.4 521.18,150.77C521.2,150.13 521.21,149.5 521.23,148.86C521.25,148.22 521.28,147.59 521.3,146.95C521.33,146.31 521.35,145.68 521.38,145.04C521.41,144.41 521.45,143.77 521.48,143.14C521.51,142.5 521.55,141.87 521.58,141.23C521.61,140.59 521.65,139.96 521.68,139.32C521.71,138.69 521.74,138.05 521.76,137.42C521.79,136.78 521.81,136.15 521.83,135.51C521.85,134.87 521.86,134.24 521.87,133.6C521.88,132.96 521.9,132.33 521.9,131.69C521.9,131.06 521.9,130.42 521.9,129.79C521.9,129.15 521.89,128.52 521.89,127.88C521.89,127.24 521.89,126.61 521.89,125.97C521.89,125.33 521.89,124.7 521.89,124.06C521.89,123.43 521.9,122.79 521.9,122.16C521.91,121.52 521.91,120.89 521.92,120.25C521.93,119.61 521.93,118.98 521.94,118.34C521.95,117.71 521.95,117.07 521.96,116.44C521.97,115.8 521.97,115.17 521.98,114.53C521.99,113.89 521.99,113.26 522,112.62C522.01,111.98 522.02,111.35 522.03,110.71C522.04,110.08 522.04,109.44 522.05,108.81C522.06,108.17 522.07,107.54 522.08,106.9C522.09,106.26 522.11,105.63 522.12,104.99C522.13,104.36 522.15,103.72 522.16,103.09C522.17,102.45 522.19,101.82 522.2,101.18C522.21,100.54 522.22,99.91 522.23,99.27C522.24,98.63 522.25,98 522.26,97.36C522.27,96.73 522.27,96.09 522.28,95.46C522.29,94.82 522.29,94.19 522.3,93.55C522.31,92.91 522.31,92.28 522.32,91.64C522.33,91 522.33,90.37 522.34,89.73C522.35,89.1 522.36,88.46 522.37,87.83C522.38,87.19 522.4,86.56 522.41,85.92C522.43,85.28 522.44,84.65 522.46,84.01C522.48,83.38 522.5,82.74 522.52,82.11C522.54,81.47 522.55,80.84 522.57,80.2C522.59,79.56 522.61,78.93 522.62,78.29C522.63,77.65 522.64,77.02 522.65,76.38C522.66,75.75 522.67,75.11 522.67,74.48C522.68,73.84 522.67,73.21 522.68,72.57C522.69,71.93 522.7,71.3 522.72,70.66C522.74,70.03 522.76,69.39 522.79,68.76C522.82,68.12 522.86,67.49 522.9,66.85C522.95,66.21 523,65.58 523.06,64.94C523.12,64.3 523.18,63.67 523.25,63.03C523.32,62.4 523.4,61.76 523.47,61.13C523.54,60.49 523.61,59.86 523.68,59.22C523.75,58.58 523.82,57.95 523.89,57.31C523.96,56.67 524.03,56.04 524.1,55.4C524.17,54.77 524.25,54.13 524.33,53.5C524.42,52.86 524.5,52.22 524.61,51.59C524.72,50.95 524.84,50.31 525.01,49.68C525.19,49.04 525.37,48.4 525.66,47.78C525.97,47.13 526.33,46.47 526.84,45.87C527.42,45.19 528.16,44.54 529.06,43.96C530.18,43.24 531.59,42.62 533.19,42.05C535.24,41.31 537.72,40.73 540.41,40.15C543.76,39.43 547.67,38.83 551.77,38.24C556.58,37.54 562.03,36.94 567.51,36.33C573.47,35.67 580.02,35.07 586.22,34.43C592.35,33.8 598.91,33.22 604.52,32.52C609.31,31.93 614.65,31.52 617.81,30.61Q619.68,30.07 622.09,28.7L520,28.7" style="vector-effect: non-scaling-stroke; stroke-width: 2px; stroke: rgb(0, 128, 0); stroke-opacity: 1; fill: rgb(0, 128, 0); fill-opacity: 0.5;"/><path class="meanline" d="M527.4745483398438,45.2H520" style="fill: none; vector-effect: non-scaling-stroke; stroke-width: 3px; stroke-dasharray: 6px, 3px; stroke: rgb(255, 255, 255); stroke-opacity: 1;"/></g><g class="trace violins" style="opacity: 1;"><path class="violin" d="M751.11,28.7L653.19,28.7Q649.12,34 649.02,36.68C648.93,39.32 650.68,42.18 652.48,44.65C654.61,47.57 658.28,50.06 661.58,52.62C665.15,55.39 669.39,57.93 673.25,60.6C677.08,63.25 681.1,65.83 684.65,68.57C687.99,71.15 691.25,73.77 694.03,76.54C696.6,79.1 698.91,81.77 700.84,84.52C702.65,87.09 704.12,89.78 705.38,92.49C706.59,95.1 707.49,97.78 708.32,100.46C709.13,103.1 709.73,105.77 710.31,108.44C710.89,111.09 711.34,113.75 711.79,116.41C712.24,119.06 712.63,121.72 713.01,124.38C713.39,127.04 713.74,129.7 714.08,132.36C714.41,135.02 714.73,137.67 715.02,140.33C715.31,142.99 715.57,145.64 715.83,148.3C716.09,150.96 716.32,153.62 716.56,156.28C716.8,158.94 717.02,161.59 717.27,164.25C717.52,166.91 717.76,169.56 718.05,172.22C718.34,174.88 718.65,177.54 719.02,180.2C719.39,182.86 719.79,185.52 720.25,188.17C720.71,190.83 721.23,193.49 721.8,196.14C722.37,198.8 723,201.46 723.65,204.12C724.3,206.78 725.01,209.43 725.7,212.09C726.39,214.75 727.11,217.4 727.79,220.06C728.47,222.71 729.14,225.37 729.76,228.03C730.38,230.68 730.96,233.35 731.5,236.01C732.04,238.66 732.52,241.32 732.98,243.98C733.44,246.63 733.86,249.29 734.27,251.95C734.68,254.61 735.07,257.27 735.46,259.93C735.85,262.59 736.22,265.24 736.6,267.9C736.98,270.56 737.36,273.21 737.72,275.87C738.08,278.53 738.44,281.19 738.76,283.85C739.08,286.51 739.39,289.16 739.65,291.82C739.91,294.47 740.14,297.13 740.32,299.79C740.5,302.45 740.64,305.11 740.75,307.77C740.86,310.43 740.93,313.08 741,315.74C741.06,318.4 741.1,321.05 741.14,323.71C741.18,326.37 741.21,329.03 741.26,331.69C741.31,334.35 741.36,337 741.44,339.66C741.52,342.32 741.62,344.97 741.74,347.63C741.86,350.29 742,352.95 742.15,355.61C742.3,358.27 742.47,360.92 742.63,363.58C742.79,366.24 742.97,368.89 743.13,371.55C743.29,374.21 743.45,376.87 743.59,379.53C743.73,382.19 743.86,384.84 743.97,387.5C744.08,390.16 744.17,392.81 744.26,395.47C744.35,398.13 744.42,400.79 744.5,403.45C744.58,406.11 744.65,408.76 744.73,411.42C744.81,414.08 744.9,416.73 745,419.39C745.1,422.05 745.21,424.71 745.33,427.37C745.45,430.03 745.59,432.68 745.74,435.34C745.89,438 746.05,440.65 746.21,443.31C746.37,445.97 746.54,448.63 746.71,451.29C746.88,453.95 747.05,456.6 747.22,459.26C747.39,461.92 747.56,464.57 747.72,467.23C747.88,469.89 748.03,472.55 748.17,475.21C748.31,477.87 748.44,480.52 748.57,483.18C748.69,485.84 748.81,488.49 748.92,491.15C749.03,493.81 749.12,496.47 749.21,499.13C749.3,501.79 749.38,504.44 749.45,507.1C749.52,509.76 749.59,512.41 749.65,515.07C749.71,517.73 749.77,520.39 749.82,523.05C749.87,525.71 749.92,528.36 749.97,531.02C750.01,533.68 750.06,536.33 750.09,538.99C750.13,541.65 750.15,544.31 750.18,546.97C750.2,549.63 750.23,552.28 750.24,554.94C750.25,557.6 750.25,560.25 750.25,562.91C750.25,565.57 750.23,568.22 750.21,570.88C750.19,573.54 750.16,576.2 750.13,578.86C750.1,581.52 750.06,584.17 750.03,586.83C750,589.49 749.98,592.14 749.97,594.8Q749.96,597.46 749.98,602.78L751.11,602.78" style="vector-effect: non-scaling-stroke; stroke-width: 2px; stroke: rgb(0, 0, 255); stroke-opacity: 1; fill: rgb(0, 0, 255); fill-opacity: 0.5;"/><path class="meanline" d="M713.501708984375,127.94H751.11" style="fill: none; vector-effect: non-scaling-stroke; stroke-width: 3px; stroke-dasharray: 6px, 3px; stroke: rgb(255, 255, 255); stroke-opacity: 1;"/></g><g class="trace violins" style="opacity: 1;"><path class="violin" d="M751.11,602.78L751.16,602.78Q751.16,601.51 751.16,600.87C751.16,600.23 751.15,599.6 751.15,598.96C751.15,598.33 751.14,597.69 751.14,597.06C751.14,596.42 751.13,595.79 751.13,595.15C751.13,594.51 751.12,593.88 751.12,593.24C751.12,592.6 751.12,591.97 751.12,591.33C751.12,590.7 751.11,590.06 751.11,589.43C751.11,588.79 751.11,588.16 751.11,587.52C751.11,586.88 751.11,586.25 751.11,585.61C751.11,584.98 751.11,584.34 751.11,583.71C751.11,583.07 751.11,582.44 751.11,581.8C751.11,581.16 751.11,580.53 751.11,579.89C751.11,579.25 751.11,578.62 751.11,577.98C751.11,577.35 751.11,576.71 751.11,576.08C751.11,575.44 751.11,574.81 751.11,574.17C751.11,573.53 751.11,572.9 751.11,572.26C751.11,571.62 751.11,570.99 751.11,570.35C751.11,569.72 751.11,569.08 751.11,568.45C751.11,567.81 751.11,567.18 751.11,566.54C751.11,565.9 751.11,565.27 751.11,564.63C751.11,564 751.11,563.36 751.11,562.73C751.11,562.09 751.11,561.46 751.11,560.82C751.11,560.18 751.11,559.55 751.11,558.91C751.11,558.27 751.11,557.64 751.11,557C751.11,556.37 751.11,555.73 751.11,555.1C751.11,554.46 751.11,553.83 751.11,553.19C751.11,552.55 751.11,551.92 751.11,551.28C751.11,550.65 751.12,550.01 751.12,549.38C751.12,548.74 751.12,548.11 751.12,547.47C751.12,546.83 751.12,546.2 751.12,545.56C751.12,544.92 751.12,544.29 751.12,543.65C751.12,543.02 751.13,542.38 751.13,541.75C751.13,541.11 751.13,540.48 751.13,539.84C751.13,539.2 751.13,538.57 751.13,537.93C751.13,537.29 751.12,536.66 751.12,536.02C751.12,535.39 751.12,534.75 751.12,534.12C751.12,533.48 751.12,532.85 751.12,532.21C751.12,531.57 751.12,530.94 751.12,530.3C751.12,529.67 751.12,529.03 751.12,528.4C751.12,527.76 751.12,527.13 751.12,526.49C751.12,525.85 751.12,525.22 751.12,524.58C751.12,523.94 751.12,523.31 751.12,522.67C751.12,522.04 751.12,521.4 751.12,520.77C751.12,520.13 751.13,519.5 751.13,518.86C751.13,518.22 751.13,517.59 751.13,516.95C751.13,516.32 751.13,515.68 751.13,515.05C751.13,514.41 751.14,513.78 751.14,513.14C751.14,512.5 751.14,511.87 751.14,511.23C751.14,510.59 751.14,509.96 751.14,509.32C751.14,508.69 751.14,508.05 751.14,507.42C751.14,506.78 751.14,506.15 751.14,505.51C751.14,504.87 751.14,504.24 751.14,503.6C751.14,502.96 751.15,502.33 751.15,501.69C751.15,501.06 751.15,500.42 751.15,499.79C751.15,499.15 751.16,498.52 751.16,497.88C751.16,497.24 751.16,496.61 751.16,495.97C751.16,495.34 751.17,494.7 751.17,494.07C751.17,493.43 751.17,492.8 751.17,492.16C751.17,491.52 751.17,490.89 751.17,490.25C751.17,489.61 751.16,488.98 751.16,488.34C751.16,487.71 751.16,487.07 751.16,486.44C751.16,485.8 751.16,485.17 751.16,484.53C751.16,483.89 751.16,483.26 751.16,482.62C751.16,481.99 751.16,481.35 751.16,480.72C751.16,480.08 751.17,479.45 751.17,478.81C751.17,478.17 751.17,477.54 751.17,476.9C751.17,476.26 751.17,475.63 751.17,474.99C751.17,474.36 751.17,473.72 751.17,473.09C751.17,472.45 751.18,471.82 751.18,471.18C751.18,470.54 751.18,469.91 751.18,469.27C751.18,468.63 751.18,468 751.18,467.36C751.18,466.73 751.18,466.09 751.18,465.46C751.18,464.82 751.19,464.19 751.19,463.55C751.19,462.91 751.2,462.28 751.2,461.64C751.2,461.01 751.21,460.37 751.21,459.74C751.21,459.1 751.22,458.47 751.22,457.83C751.23,457.19 751.24,456.56 751.24,455.92C751.24,455.28 751.24,454.65 751.24,454.01C751.24,453.38 751.25,452.74 751.25,452.11C751.25,451.47 751.24,450.84 751.24,450.2C751.24,449.56 751.24,448.93 751.24,448.29C751.24,447.66 751.24,447.02 751.24,446.39C751.24,445.75 751.23,445.12 751.23,444.48C751.23,443.84 751.23,443.21 751.23,442.57C751.23,441.93 751.24,441.3 751.24,440.66C751.24,440.03 751.24,439.39 751.24,438.76C751.24,438.12 751.25,437.49 751.26,436.85C751.26,436.21 751.27,435.58 751.27,434.94C751.27,434.3 751.28,433.67 751.28,433.03C751.28,432.4 751.28,431.76 751.28,431.13C751.28,430.49 751.28,429.86 751.28,429.22C751.28,428.58 751.28,427.95 751.28,427.31C751.28,426.68 751.27,426.04 751.27,425.41C751.26,424.77 751.26,424.14 751.25,423.5C751.25,422.86 751.24,422.23 751.24,421.59C751.24,420.95 751.24,420.32 751.24,419.68C751.24,419.05 751.23,418.41 751.23,417.78C751.23,417.14 751.24,416.51 751.24,415.87C751.24,415.23 751.25,414.6 751.25,413.96C751.25,413.33 751.26,412.69 751.26,412.06C751.26,411.42 751.26,410.79 751.26,410.15C751.26,409.51 751.27,408.88 751.27,408.24C751.27,407.6 751.27,406.97 751.27,406.33C751.27,405.7 751.26,405.06 751.26,404.43C751.26,403.79 751.25,403.16 751.25,402.52C751.25,401.88 751.24,401.25 751.24,400.61C751.24,399.97 751.24,399.34 751.23,398.7C751.23,398.07 751.21,397.43 751.21,396.8C751.2,396.16 751.2,395.53 751.2,394.89C751.2,394.25 751.2,393.62 751.2,392.98C751.2,392.35 751.2,391.71 751.2,391.08C751.2,390.44 751.2,389.81 751.2,389.17C751.2,388.53 751.21,387.9 751.22,387.26C751.22,386.62 751.22,385.99 751.23,385.35C751.24,384.72 751.25,384.08 751.26,383.45C751.27,382.81 751.27,382.18 751.28,381.54C751.29,380.9 751.3,380.27 751.31,379.63C751.32,379 751.33,378.36 751.33,377.73C751.34,377.09 751.34,376.46 751.34,375.82C751.34,375.18 751.34,374.55 751.34,373.91C751.34,373.27 751.34,372.64 751.34,372C751.34,371.37 751.33,370.73 751.33,370.1C751.32,369.46 751.32,368.83 751.31,368.19C751.31,367.55 751.3,366.92 751.3,366.28C751.3,365.64 751.29,365.01 751.29,364.37C751.29,363.74 751.28,363.1 751.28,362.47C751.28,361.83 751.28,361.2 751.28,360.56C751.28,359.92 751.29,359.29 751.29,358.65C751.29,358.02 751.3,357.38 751.3,356.75C751.3,356.11 751.31,355.48 751.31,354.84C751.32,354.2 751.32,353.57 751.33,352.93C751.33,352.29 751.34,351.66 751.34,351.02C751.34,350.39 751.35,349.75 751.35,349.12C751.35,348.48 751.36,347.85 751.36,347.21C751.36,346.57 751.37,345.94 751.37,345.3C751.37,344.67 751.37,344.03 751.37,343.4C751.37,342.76 751.37,342.13 751.37,341.49C751.37,340.85 751.37,340.22 751.37,339.58C751.37,338.94 751.37,338.31 751.37,337.67C751.37,337.04 751.37,336.4 751.37,335.77C751.37,335.13 751.37,334.5 751.37,333.86C751.37,333.22 751.38,332.59 751.38,331.95C751.39,331.31 751.39,330.68 751.4,330.04C751.4,329.41 751.41,328.77 751.41,328.14C751.41,327.5 751.42,326.87 751.42,326.23C751.42,325.59 751.43,324.96 751.43,324.32C751.43,323.69 751.43,323.05 751.43,322.42C751.43,321.78 751.42,321.15 751.42,320.51C751.42,319.87 751.42,319.24 751.42,318.6C751.42,317.96 751.41,317.33 751.41,316.69C751.41,316.06 751.4,315.42 751.4,314.79C751.4,314.15 751.41,313.52 751.41,312.88C751.41,312.24 751.42,311.61 751.42,310.97C751.42,310.34 751.42,309.7 751.43,309.07C751.44,308.43 751.45,307.8 751.46,307.16C751.47,306.52 751.48,305.89 751.49,305.25C751.5,304.61 751.52,303.98 751.53,303.34C751.54,302.71 751.55,302.07 751.56,301.44C751.57,300.8 751.58,300.17 751.59,299.53C751.6,298.89 751.6,298.26 751.61,297.62C751.61,296.98 751.62,296.35 751.62,295.71C751.62,295.08 751.63,294.44 751.63,293.81C751.63,293.17 751.64,292.54 751.64,291.9C751.64,291.26 751.65,290.63 751.65,289.99C751.65,289.36 751.66,288.72 751.66,288.09C751.66,287.45 751.67,286.82 751.67,286.18C751.67,285.54 751.67,284.91 751.67,284.27C751.67,283.63 751.67,283 751.68,282.36C751.68,281.73 751.7,281.09 751.7,280.46C751.71,279.82 751.71,279.19 751.71,278.55C751.72,277.91 751.72,277.28 751.73,276.64C751.74,276.01 751.74,275.37 751.75,274.74C751.76,274.1 751.76,273.47 751.77,272.83C751.78,272.19 751.78,271.56 751.79,270.92C751.79,270.28 751.8,269.65 751.8,269.01C751.8,268.38 751.81,267.74 751.81,267.11C751.81,266.47 751.82,265.84 751.82,265.2C751.82,264.56 751.83,263.93 751.83,263.29C751.84,262.65 751.84,262.02 751.85,261.38C751.85,260.75 751.86,260.11 751.86,259.48C751.87,258.84 751.87,258.21 751.88,257.57C751.89,256.93 751.9,256.3 751.91,255.66C751.92,255.03 751.94,254.39 751.95,253.76C751.96,253.12 751.97,252.49 751.98,251.85C751.99,251.21 752.01,250.58 752.02,249.94C752.03,249.3 752.04,248.67 752.05,248.03C752.06,247.4 752.06,246.76 752.07,246.13C752.08,245.49 752.08,244.86 752.09,244.22C752.1,243.58 752.1,242.95 752.11,242.31C752.12,241.68 752.12,241.04 752.13,240.41C752.14,239.77 752.15,239.14 752.16,238.5C752.17,237.86 752.19,237.23 752.2,236.59C752.21,235.95 752.23,235.32 752.24,234.68C752.25,234.05 752.27,233.41 752.28,232.78C752.3,232.14 752.31,231.51 752.33,230.87C752.35,230.23 752.36,229.6 752.38,228.96C752.4,228.32 752.41,227.69 752.43,227.05C752.45,226.42 752.47,225.78 752.48,225.15C752.49,224.51 752.5,223.88 752.51,223.24C752.52,222.6 752.53,221.97 752.54,221.33C752.55,220.7 752.55,220.06 752.55,219.43C752.55,218.79 752.56,218.16 752.56,217.52C752.56,216.88 752.56,216.25 752.57,215.61C752.58,214.97 752.59,214.34 752.6,213.7C752.61,213.07 752.62,212.43 752.63,211.8C752.64,211.16 752.66,210.53 752.68,209.89C752.7,209.25 752.73,208.62 752.75,207.98C752.77,207.35 752.8,206.71 752.82,206.08C752.85,205.44 752.87,204.81 752.9,204.17C752.93,203.53 752.95,202.9 752.98,202.26C753.01,201.62 753.04,200.99 753.06,200.35C753.08,199.72 753.1,199.08 753.12,198.45C753.14,197.81 753.15,197.18 753.17,196.54C753.18,195.9 753.2,195.27 753.21,194.63C753.22,193.99 753.24,193.36 753.25,192.72C753.26,192.09 753.27,191.45 753.28,190.82C753.29,190.18 753.3,189.55 753.32,188.91C753.34,188.27 753.36,187.64 753.38,187C753.4,186.37 753.42,185.73 753.44,185.1C753.46,184.46 753.48,183.83 753.5,183.19C753.52,182.55 753.54,181.92 753.56,181.28C753.58,180.64 753.59,180.01 753.61,179.37C753.63,178.74 753.65,178.1 753.66,177.47C753.67,176.83 753.68,176.2 753.69,175.56C753.7,174.92 753.72,174.29 753.73,173.65C753.74,173.02 753.75,172.38 753.76,171.75C753.77,171.11 753.79,170.48 753.8,169.84C753.81,169.2 753.81,168.57 753.82,167.93C753.83,167.29 753.83,166.66 753.84,166.02C753.85,165.39 753.85,164.75 753.86,164.12C753.87,163.48 753.87,162.85 753.88,162.21C753.89,161.57 753.9,160.94 753.91,160.3C753.92,159.66 753.94,159.03 753.96,158.39C753.98,157.76 754,157.12 754.01,156.49C754.03,155.85 754.04,155.22 754.05,154.58C754.06,153.94 754.07,153.31 754.07,152.67C754.07,152.04 754.06,151.4 754.06,150.77C754.05,150.13 754.05,149.5 754.04,148.86C754.03,148.22 754.01,147.59 754,146.95C753.99,146.31 753.98,145.68 753.97,145.04C753.96,144.41 753.95,143.77 753.95,143.14C753.95,142.5 753.95,141.87 753.95,141.23C753.95,140.59 753.95,139.96 753.95,139.32C753.95,138.69 753.95,138.05 753.95,137.42C753.95,136.78 753.95,136.15 753.94,135.51C753.93,134.87 753.92,134.24 753.9,133.6C753.88,132.96 753.86,132.33 753.83,131.69C753.81,131.06 753.78,130.42 753.75,129.79C753.72,129.15 753.69,128.52 753.67,127.88C753.65,127.24 753.63,126.61 753.61,125.97C753.6,125.33 753.58,124.7 753.58,124.06C753.58,123.43 753.58,122.79 753.58,122.16C753.58,121.52 753.6,120.89 753.61,120.25C753.62,119.61 753.64,118.98 753.66,118.34C753.68,117.71 753.7,117.07 753.72,116.44C753.74,115.8 753.76,115.17 753.78,114.53C753.8,113.89 753.81,113.26 753.82,112.62C753.83,111.98 753.84,111.35 753.84,110.71C753.84,110.08 753.84,109.44 753.84,108.81C753.84,108.17 753.84,107.54 753.84,106.9C753.84,106.26 753.83,105.63 753.83,104.99C753.83,104.36 753.83,103.72 753.84,103.09C753.85,102.45 753.86,101.82 753.87,101.18C753.88,100.54 753.9,99.91 753.92,99.27C753.94,98.63 753.96,98 753.99,97.36C754.02,96.73 754.05,96.09 754.08,95.46C754.11,94.82 754.14,94.19 754.17,93.55C754.2,92.91 754.22,92.28 754.25,91.64C754.27,91 754.3,90.37 754.32,89.73C754.34,89.1 754.36,88.46 754.38,87.83C754.4,87.19 754.41,86.56 754.43,85.92C754.45,85.28 754.48,84.65 754.5,84.01C754.52,83.38 754.54,82.74 754.57,82.11C754.6,81.47 754.63,80.84 754.66,80.2C754.69,79.56 754.72,78.93 754.75,78.29C754.78,77.65 754.81,77.02 754.84,76.38C754.87,75.75 754.91,75.11 754.94,74.48C754.98,73.84 755.01,73.21 755.05,72.57C755.09,71.93 755.13,71.3 755.18,70.66C755.23,70.03 755.28,69.39 755.34,68.76C755.4,68.12 755.46,67.49 755.54,66.85C755.62,66.21 755.71,65.58 755.81,64.94C755.91,64.3 756.03,63.66 756.16,63.03C756.29,62.39 756.43,61.76 756.59,61.13C756.75,60.49 756.93,59.85 757.14,59.22C757.35,58.58 757.57,57.94 757.84,57.31C758.12,56.66 758.43,56.02 758.81,55.4C759.21,54.75 759.65,54.11 760.18,53.5C760.75,52.84 761.4,52.2 762.12,51.59C762.92,50.92 763.82,50.29 764.79,49.68C765.86,49.01 767.04,48.39 768.29,47.78C769.65,47.11 771.12,46.48 772.66,45.87C774.34,45.2 776.11,44.57 777.98,43.96C780.02,43.29 782.16,42.66 784.44,42.05C786.98,41.38 789.66,40.75 792.53,40.15C795.75,39.47 799.21,38.85 802.84,38.24C806.86,37.57 811.22,36.95 815.6,36.33C820.23,35.68 825.22,35.08 829.91,34.43C834.45,33.8 839.31,33.23 843.3,32.52C846.57,31.94 850.71,31.69 852.16,30.61Q852.87,30.08 853.2,28.7L751.11,28.7" style="vector-effect: non-scaling-stroke; stroke-width: 2px; stroke: rgb(0, 128, 0); stroke-opacity: 1; fill: rgb(0, 128, 0); fill-opacity: 0.5;"/><path class="meanline" d="M756.6509399414062,60.89H751.11" style="fill: none; vector-effect: non-scaling-stroke; stroke-width: 3px; stroke-dasharray: 6px, 3px; stroke: rgb(255, 255, 255); stroke-opacity: 1;"/></g><g class="trace violins" style="opacity: 1;"><path class="violin" d="M982.22,28.7L882.32,28.7Q879.47,37.31 880.13,41.46C880.82,45.83 883.79,50.2 886.83,54.22C890.27,58.78 895.42,62.85 900.26,66.98C905.42,71.38 911.42,75.48 916.99,79.73C922.56,83.98 928.41,88.14 933.69,92.49C938.74,96.65 943.71,100.85 948.06,105.25C952.14,109.37 955.92,113.61 959.13,118C962.15,122.13 964.74,126.41 966.91,130.76C968.99,134.93 970.62,139.22 971.99,143.52C973.33,147.73 974.28,152.01 975.09,156.28C975.89,160.51 976.4,164.77 976.83,169.03C977.25,173.27 977.48,177.53 977.64,181.79C977.8,186.04 977.83,190.3 977.77,194.55C977.71,198.8 977.55,203.05 977.27,207.3C976.98,211.56 976.61,215.82 976.06,220.06C975.51,224.32 974.84,228.58 973.97,232.82C973.1,237.09 972.06,241.35 970.83,245.58C969.58,249.86 968.14,254.11 966.52,258.33C964.88,262.62 963.01,266.87 961.04,271.09C959.04,275.38 956.81,279.62 954.58,283.85C952.33,288.12 949.9,292.35 947.57,296.6C945.24,300.85 942.82,305.08 940.62,309.36C938.44,313.59 936.27,317.82 934.43,322.12C932.62,326.33 930.94,330.58 929.64,334.88C928.37,339.09 927.34,343.35 926.7,347.63C926.06,351.86 925.77,356.14 925.77,360.39C925.77,364.64 926.14,368.91 926.68,373.15C927.22,377.42 928.1,381.67 929.01,385.91C929.93,390.18 931.08,394.41 932.18,398.66C933.28,402.92 934.5,407.16 935.61,411.42C936.72,415.67 937.84,419.92 938.85,424.18C939.86,428.42 940.79,432.67 941.66,436.93C942.52,441.18 943.28,445.43 944.04,449.69C944.8,453.94 945.48,458.2 946.21,462.45C946.94,466.7 947.63,470.96 948.42,475.21C949.21,479.47 950.03,483.72 950.95,487.96C951.87,492.22 952.86,496.48 953.93,500.72C955,504.98 956.17,509.23 957.37,513.48C958.57,517.74 959.86,521.98 961.12,526.23C962.38,530.48 963.7,534.73 964.93,538.99C966.16,543.24 967.38,547.49 968.49,551.75C969.59,555.99 970.64,560.25 971.57,564.51C972.49,568.75 973.31,573 974.04,577.26C974.77,581.5 975.37,585.76 975.93,590.02Q976.49,594.27 977.38,602.78L982.22,602.78" style="vector-effect: non-scaling-stroke; stroke-width: 2px; stroke: rgb(0, 0, 255); stroke-opacity: 1; fill: rgb(0, 0, 255); fill-opacity: 0.5;"/><path class="meanline" d="M974.875732421875,228H982.22" style="fill: none; vector-effect: non-scaling-stroke; stroke-width: 3px; stroke-dasharray: 6px, 3px; stroke: rgb(255, 255, 255); stroke-opacity: 1;"/></g><g class="trace violins" style="opacity: 1;"><path class="violin" d="M982.22,602.78L982.25,602.78Q982.25,601.51 982.25,600.87C982.25,600.23 982.24,599.6 982.24,598.96C982.24,598.33 982.24,597.69 982.24,597.06C982.24,596.42 982.23,595.79 982.23,595.15C982.23,594.51 982.23,593.88 982.23,593.24C982.23,592.6 982.23,591.97 982.23,591.33C982.23,590.7 982.22,590.06 982.22,589.43C982.22,588.79 982.22,588.16 982.22,587.52C982.22,586.88 982.22,586.25 982.22,585.61C982.22,584.98 982.22,584.34 982.22,583.71C982.22,583.07 982.22,582.44 982.22,581.8C982.22,581.16 982.22,580.53 982.22,579.89C982.22,579.25 982.22,578.62 982.22,577.98C982.22,577.35 982.22,576.71 982.22,576.08C982.22,575.44 982.22,574.81 982.22,574.17C982.22,573.53 982.22,572.9 982.22,572.26C982.22,571.62 982.22,570.99 982.22,570.35C982.22,569.72 982.22,569.08 982.22,568.45C982.22,567.81 982.22,567.18 982.22,566.54C982.22,565.9 982.22,565.27 982.22,564.63C982.22,564 982.22,563.36 982.22,562.73C982.22,562.09 982.22,561.46 982.22,560.82C982.22,560.18 982.22,559.55 982.22,558.91C982.22,558.27 982.22,557.64 982.22,557C982.22,556.37 982.22,555.73 982.22,555.1C982.22,554.46 982.22,553.83 982.22,553.19C982.22,552.55 982.22,551.92 982.22,551.28C982.22,550.65 982.22,550.01 982.22,549.38C982.22,548.74 982.22,548.11 982.22,547.47C982.22,546.83 982.22,546.2 982.22,545.56C982.22,544.92 982.22,544.29 982.22,543.65C982.22,543.02 982.22,542.38 982.22,541.75C982.22,541.11 982.22,540.48 982.22,539.84C982.22,539.2 982.23,538.57 982.23,537.93C982.23,537.29 982.23,536.66 982.23,536.02C982.23,535.39 982.23,534.75 982.23,534.12C982.23,533.48 982.23,532.85 982.23,532.21C982.23,531.57 982.23,530.94 982.23,530.3C982.23,529.67 982.23,529.03 982.23,528.4C982.23,527.76 982.23,527.13 982.23,526.49C982.23,525.85 982.23,525.22 982.23,524.58C982.23,523.94 982.22,523.31 982.22,522.67C982.22,522.04 982.22,521.4 982.22,520.77C982.22,520.13 982.22,519.5 982.22,518.86C982.22,518.22 982.22,517.59 982.22,516.95C982.22,516.32 982.22,515.68 982.22,515.05C982.22,514.41 982.22,513.78 982.22,513.14C982.22,512.5 982.22,511.87 982.22,511.23C982.22,510.59 982.22,509.96 982.22,509.32C982.22,508.69 982.22,508.05 982.22,507.42C982.22,506.78 982.22,506.15 982.22,505.51C982.22,504.87 982.22,504.24 982.22,503.6C982.22,502.96 982.22,502.33 982.22,501.69C982.22,501.06 982.22,500.42 982.22,499.79C982.22,499.15 982.23,498.52 982.23,497.88C982.23,497.24 982.23,496.61 982.23,495.97C982.23,495.34 982.23,494.7 982.23,494.07C982.23,493.43 982.23,492.8 982.23,492.16C982.23,491.52 982.23,490.89 982.23,490.25C982.23,489.61 982.23,488.98 982.23,488.34C982.23,487.71 982.23,487.07 982.23,486.44C982.23,485.8 982.23,485.17 982.23,484.53C982.23,483.89 982.22,483.26 982.22,482.62C982.22,481.99 982.22,481.35 982.22,480.72C982.22,480.08 982.22,479.45 982.22,478.81C982.22,478.17 982.22,477.54 982.22,476.9C982.22,476.26 982.22,475.63 982.22,474.99C982.22,474.36 982.22,473.72 982.22,473.09C982.22,472.45 982.22,471.82 982.22,471.18C982.22,470.54 982.22,469.91 982.22,469.27C982.22,468.63 982.22,468 982.22,467.36C982.22,466.73 982.22,466.09 982.22,465.46C982.22,464.82 982.22,464.19 982.22,463.55C982.22,462.91 982.22,462.28 982.22,461.64C982.22,461.01 982.22,460.37 982.22,459.74C982.22,459.1 982.22,458.47 982.22,457.83C982.22,457.19 982.22,456.56 982.22,455.92C982.22,455.28 982.22,454.65 982.22,454.01C982.22,453.38 982.22,452.74 982.22,452.11C982.22,451.47 982.23,450.84 982.23,450.2C982.23,449.56 982.23,448.93 982.23,448.29C982.23,447.66 982.23,447.02 982.23,446.39C982.23,445.75 982.23,445.12 982.23,444.48C982.23,443.84 982.23,443.21 982.23,442.57C982.23,441.93 982.24,441.3 982.24,440.66C982.24,440.03 982.24,439.39 982.24,438.76C982.24,438.12 982.24,437.49 982.24,436.85C982.24,436.21 982.24,435.58 982.24,434.94C982.24,434.3 982.24,433.67 982.24,433.03C982.24,432.4 982.24,431.76 982.24,431.13C982.24,430.49 982.24,429.86 982.24,429.22C982.24,428.58 982.24,427.95 982.24,427.31C982.24,426.68 982.24,426.04 982.24,425.41C982.24,424.77 982.25,424.14 982.25,423.5C982.25,422.86 982.25,422.23 982.25,421.59C982.25,420.95 982.25,420.32 982.25,419.68C982.25,419.05 982.25,418.41 982.25,417.78C982.25,417.14 982.24,416.51 982.24,415.87C982.24,415.23 982.24,414.6 982.24,413.96C982.24,413.33 982.24,412.69 982.24,412.06C982.24,411.42 982.24,410.79 982.24,410.15C982.24,409.51 982.24,408.88 982.24,408.24C982.24,407.6 982.23,406.97 982.23,406.33C982.23,405.7 982.23,405.06 982.23,404.43C982.23,403.79 982.23,403.16 982.23,402.52C982.23,401.88 982.23,401.25 982.23,400.61C982.23,399.97 982.23,399.34 982.23,398.7C982.23,398.07 982.23,397.43 982.23,396.8C982.23,396.16 982.23,395.53 982.23,394.89C982.23,394.25 982.24,393.62 982.24,392.98C982.24,392.35 982.24,391.71 982.24,391.08C982.24,390.44 982.24,389.81 982.24,389.17C982.24,388.53 982.24,387.9 982.24,387.26C982.24,386.62 982.25,385.99 982.25,385.35C982.25,384.72 982.25,384.08 982.25,383.45C982.25,382.81 982.25,382.18 982.25,381.54C982.25,380.9 982.26,380.27 982.26,379.63C982.26,379 982.26,378.36 982.26,377.73C982.26,377.09 982.26,376.46 982.26,375.82C982.26,375.18 982.26,374.55 982.26,373.91C982.26,373.27 982.26,372.64 982.26,372C982.26,371.37 982.26,370.73 982.26,370.1C982.26,369.46 982.26,368.83 982.26,368.19C982.26,367.55 982.26,366.92 982.26,366.28C982.26,365.64 982.26,365.01 982.26,364.37C982.26,363.74 982.26,363.1 982.26,362.47C982.26,361.83 982.26,361.2 982.26,360.56C982.26,359.92 982.26,359.29 982.26,358.65C982.26,358.02 982.26,357.38 982.26,356.75C982.26,356.11 982.26,355.48 982.26,354.84C982.26,354.2 982.26,353.57 982.26,352.93C982.26,352.29 982.25,351.66 982.25,351.02C982.25,350.39 982.25,349.75 982.25,349.12C982.25,348.48 982.26,347.85 982.26,347.21C982.26,346.57 982.26,345.94 982.26,345.3C982.26,344.67 982.27,344.03 982.27,343.4C982.27,342.76 982.27,342.13 982.27,341.49C982.27,340.85 982.28,340.22 982.28,339.58C982.28,338.94 982.29,338.31 982.29,337.67C982.29,337.04 982.3,336.4 982.3,335.77C982.3,335.13 982.3,334.5 982.3,333.86C982.3,333.22 982.3,332.59 982.3,331.95C982.3,331.31 982.31,330.68 982.31,330.04C982.31,329.41 982.31,328.77 982.31,328.14C982.31,327.5 982.31,326.87 982.31,326.23C982.31,325.59 982.31,324.96 982.31,324.32C982.31,323.69 982.32,323.05 982.32,322.42C982.32,321.78 982.31,321.15 982.31,320.51C982.31,319.87 982.31,319.24 982.31,318.6C982.31,317.96 982.31,317.33 982.31,316.69C982.31,316.06 982.3,315.42 982.3,314.79C982.3,314.15 982.3,313.52 982.3,312.88C982.3,312.24 982.3,311.61 982.3,310.97C982.3,310.34 982.3,309.7 982.3,309.07C982.3,308.43 982.3,307.8 982.3,307.16C982.3,306.52 982.31,305.89 982.31,305.25C982.31,304.61 982.32,303.98 982.32,303.34C982.32,302.71 982.32,302.07 982.32,301.44C982.32,300.8 982.33,300.17 982.33,299.53C982.33,298.89 982.33,298.26 982.33,297.62C982.33,296.98 982.32,296.35 982.32,295.71C982.32,295.08 982.32,294.44 982.32,293.81C982.32,293.17 982.31,292.54 982.31,291.9C982.31,291.26 982.31,290.63 982.31,289.99C982.31,289.36 982.32,288.72 982.32,288.09C982.32,287.45 982.32,286.82 982.32,286.18C982.32,285.54 982.33,284.91 982.34,284.27C982.34,283.63 982.34,283 982.35,282.36C982.35,281.73 982.36,281.09 982.37,280.46C982.38,279.82 982.38,279.19 982.39,278.55C982.4,277.91 982.4,277.28 982.41,276.64C982.41,276.01 982.42,275.37 982.42,274.74C982.42,274.1 982.43,273.47 982.43,272.83C982.43,272.19 982.44,271.56 982.44,270.92C982.44,270.28 982.44,269.65 982.44,269.01C982.44,268.38 982.43,267.74 982.43,267.11C982.43,266.47 982.43,265.84 982.43,265.2C982.43,264.56 982.42,263.93 982.42,263.29C982.42,262.65 982.42,262.02 982.42,261.38C982.42,260.75 982.42,260.11 982.42,259.48C982.42,258.84 982.43,258.21 982.43,257.57C982.43,256.93 982.43,256.3 982.43,255.66C982.43,255.03 982.44,254.39 982.44,253.76C982.44,253.12 982.45,252.49 982.45,251.85C982.46,251.21 982.46,250.58 982.47,249.94C982.47,249.3 982.47,248.67 982.48,248.03C982.48,247.4 982.49,246.76 982.5,246.13C982.51,245.49 982.51,244.86 982.52,244.22C982.53,243.58 982.53,242.95 982.54,242.31C982.55,241.68 982.56,241.04 982.56,240.41C982.57,239.77 982.57,239.14 982.57,238.5C982.57,237.86 982.58,237.23 982.58,236.59C982.58,235.95 982.57,235.32 982.57,234.68C982.57,234.05 982.57,233.41 982.57,232.78C982.57,232.14 982.56,231.51 982.56,230.87C982.56,230.23 982.56,229.6 982.56,228.96C982.56,228.32 982.57,227.69 982.57,227.05C982.57,226.42 982.57,225.78 982.57,225.15C982.57,224.51 982.57,223.88 982.57,223.24C982.57,222.6 982.57,221.97 982.57,221.33C982.57,220.7 982.57,220.06 982.57,219.43C982.57,218.79 982.57,218.16 982.57,217.52C982.57,216.88 982.57,216.25 982.57,215.61C982.57,214.97 982.58,214.34 982.58,213.7C982.58,213.07 982.58,212.43 982.59,211.8C982.6,211.16 982.61,210.53 982.62,209.89C982.63,209.25 982.64,208.62 982.65,207.98C982.66,207.35 982.67,206.71 982.68,206.08C982.69,205.44 982.71,204.81 982.72,204.17C982.73,203.53 982.74,202.9 982.75,202.26C982.76,201.62 982.77,200.99 982.78,200.35C982.79,199.72 982.8,199.08 982.81,198.45C982.82,197.81 982.83,197.18 982.84,196.54C982.85,195.9 982.86,195.27 982.87,194.63C982.88,193.99 982.9,193.36 982.91,192.72C982.92,192.09 982.94,191.45 982.95,190.82C982.96,190.18 982.98,189.55 982.99,188.91C983,188.27 983.01,187.64 983.02,187C983.03,186.37 983.05,185.73 983.06,185.1C983.07,184.46 983.09,183.83 983.1,183.19C983.11,182.55 983.13,181.92 983.14,181.28C983.15,180.64 983.17,180.01 983.18,179.37C983.19,178.74 983.21,178.1 983.22,177.47C983.23,176.83 983.25,176.2 983.26,175.56C983.27,174.92 983.29,174.29 983.3,173.65C983.31,173.02 983.32,172.38 983.33,171.75C983.34,171.11 983.35,170.48 983.36,169.84C983.37,169.2 983.37,168.57 983.38,167.93C983.38,167.29 983.39,166.66 983.39,166.02C983.39,165.39 983.39,164.75 983.39,164.12C983.39,163.48 983.38,162.85 983.37,162.21C983.36,161.57 983.36,160.94 983.35,160.3C983.35,159.66 983.34,159.03 983.34,158.39C983.34,157.76 983.33,157.12 983.33,156.49C983.33,155.85 983.34,155.22 983.34,154.58C983.35,153.94 983.35,153.31 983.36,152.67C983.37,152.04 983.38,151.4 983.4,150.77C983.42,150.13 983.44,149.5 983.46,148.86C983.48,148.22 983.5,147.59 983.52,146.95C983.55,146.31 983.58,145.68 983.61,145.04C983.64,144.41 983.67,143.77 983.7,143.14C983.73,142.5 983.77,141.87 983.8,141.23C983.83,140.59 983.87,139.96 983.9,139.32C983.93,138.69 983.97,138.05 983.99,137.42C984.02,136.78 984.03,136.15 984.05,135.51C984.07,134.87 984.09,134.24 984.1,133.6C984.11,132.96 984.12,132.33 984.12,131.69C984.12,131.06 984.12,130.42 984.12,129.79C984.12,129.15 984.12,128.52 984.12,127.88C984.12,127.24 984.11,126.61 984.11,125.97C984.11,125.33 984.11,124.7 984.11,124.06C984.11,123.43 984.12,122.79 984.12,122.16C984.13,121.52 984.13,120.89 984.14,120.25C984.15,119.61 984.15,118.98 984.16,118.34C984.17,117.71 984.17,117.07 984.18,116.44C984.19,115.8 984.19,115.17 984.2,114.53C984.21,113.89 984.21,113.26 984.22,112.62C984.23,111.98 984.24,111.35 984.25,110.71C984.26,110.08 984.26,109.44 984.27,108.81C984.28,108.17 984.3,107.54 984.31,106.9C984.32,106.26 984.33,105.63 984.34,104.99C984.35,104.36 984.37,103.72 984.38,103.09C984.39,102.45 984.41,101.82 984.42,101.18C984.43,100.54 984.45,99.91 984.46,99.27C984.47,98.63 984.47,98 984.48,97.36C984.49,96.73 984.49,96.09 984.5,95.46C984.51,94.82 984.51,94.19 984.52,93.55C984.53,92.91 984.53,92.28 984.54,91.64C984.55,91 984.55,90.37 984.56,89.73C984.57,89.1 984.58,88.46 984.59,87.83C984.6,87.19 984.62,86.56 984.64,85.92C984.66,85.28 984.67,84.65 984.69,84.01C984.71,83.38 984.72,82.74 984.74,82.11C984.76,81.47 984.77,80.84 984.79,80.2C984.81,79.56 984.83,78.93 984.84,78.29C984.85,77.65 984.86,77.02 984.87,76.38C984.88,75.75 984.88,75.11 984.89,74.48C984.9,73.84 984.9,73.21 984.91,72.57C984.92,71.93 984.92,71.3 984.94,70.66C984.96,70.03 984.98,69.39 985.01,68.76C985.04,68.12 985.09,67.49 985.13,66.85C985.18,66.21 985.22,65.58 985.28,64.94C985.34,64.3 985.41,63.67 985.48,63.03C985.55,62.4 985.62,61.76 985.69,61.13C985.76,60.49 985.84,59.86 985.91,59.22C985.98,58.58 986.05,57.95 986.12,57.31C986.19,56.67 986.26,56.04 986.33,55.4C986.4,54.77 986.47,54.13 986.55,53.5C986.63,52.86 986.72,52.22 986.83,51.59C986.95,50.95 987.07,50.31 987.24,49.68C987.42,49.04 987.6,48.4 987.89,47.78C988.2,47.13 988.55,46.47 989.06,45.87C989.64,45.18 990.38,44.54 991.28,43.96C992.4,43.24 993.81,42.62 995.41,42.05C997.46,41.31 999.94,40.73 1002.63,40.15C1005.98,39.43 1009.89,38.83 1013.99,38.24C1018.8,37.54 1024.26,36.94 1029.74,36.33C1035.71,35.67 1042.25,35.07 1048.45,34.43C1054.58,33.8 1061.14,33.22 1066.74,32.52C1071.53,31.93 1076.86,31.52 1080.03,30.61Q1081.9,30.07 1084.32,28.7L982.22,28.7" style="vector-effect: non-scaling-stroke; stroke-width: 2px; stroke: rgb(0, 128, 0); stroke-opacity: 1; fill: rgb(0, 128, 0); fill-opacity: 0.5;"/><path class="meanline" d="M989.690673828125,45.2H982.22" style="fill: none; vector-effect: non-scaling-stroke; stroke-width: 3px; stroke-dasharray: 6px, 3px; stroke: rgb(255, 255, 255); stroke-opacity: 1;"/></g></g><g class="scatterlayer mlayer"><g class="trace scatter trace8a2b86" style="stroke-miterlimit: 2; opacity: 1;"><g class="fills"/><g class="errorbars"/><g class="lines"/><g class="points"/><g class="text"><g class="textpoint" transform="translate(0,13.5)"><text x="57.78" y="6.03" text-anchor="middle" style="font-family: verdana; font-size: 18px; fill: rgb(0, 0, 0); fill-opacity: 1; white-space: pre;">0.901|0.971</text></g><g class="textpoint" transform="translate(0,13.5)"><text x="288.89" y="6.03" text-anchor="middle" style="font-family: verdana; font-size: 18px; fill: rgb(0, 0, 0); fill-opacity: 1; white-space: pre;">0.887|0.971</text></g><g class="textpoint" transform="translate(0,13.5)"><text x="520" y="6.03" text-anchor="middle" style="font-family: verdana; font-size: 18px; fill: rgb(0, 0, 0); fill-opacity: 1; white-space: pre;">0.873|0.971</text></g><g class="textpoint" transform="translate(0,13.5)"><text x="751.11" y="6.03" text-anchor="middle" style="font-family: verdana; font-size: 18px; fill: rgb(0, 0, 0); fill-opacity: 1; white-space: pre;">0.827|0.944</text></g><g class="textpoint" transform="translate(0,13.5)"><text x="982.22" y="6.03" text-anchor="middle" style="font-family: verdana; font-size: 18px; fill: rgb(0, 0, 0); fill-opacity: 1; white-space: pre;">0.653|0.971</text></g></g></g></g></g><g class="overplot"/><path class="xlines-above crisp" d="M0,0" style="fill: none;"/><path class="ylines-above crisp" d="M0,0" style="fill: none;"/><g class="overlines-above"/><g class="xaxislayer-above"><g class="xtick"><text text-anchor="middle" x="0" y="739" transform="translate(137.78,0)" style="font-family: verdana; font-size: 18px; fill: rgb(0, 0, 0); fill-opacity: 1; white-space: pre; opacity: 1;">Attn-Conv-1.4M-2</text></g><g class="xtick"><text text-anchor="middle" x="0" y="739" transform="translate(368.89,0)" style="font-family: verdana; font-size: 18px; fill: rgb(0, 0, 0); fill-opacity: 1; white-space: pre; opacity: 1;">Attn-Conv-1.4M</text></g><g class="xtick"><text text-anchor="middle" x="0" y="739" transform="translate(600,0)" style="font-family: verdana; font-size: 18px; fill: rgb(0, 0, 0); fill-opacity: 1; white-space: pre; opacity: 1;">LSTM-Conv-960K</text></g><g class="xtick"><text text-anchor="middle" x="0" y="739" transform="translate(831.11,0)" style="font-family: verdana; font-size: 18px; fill: rgb(0, 0, 0); fill-opacity: 1; white-space: pre; opacity: 1;">LSTM-Conv-420K</text></g><g class="xtick"><text text-anchor="middle" x="0" y="739" transform="translate(1062.22,0)" style="font-family: verdana; font-size: 18px; fill: rgb(0, 0, 0); fill-opacity: 1; white-space: pre; opacity: 1;">LSTM-Conv-62K</text></g></g><g class="yaxislayer-above"><g class="ytick"><text text-anchor="end" x="79" y="6.3" transform="translate(0,702.78)" style="font-family: verdana; font-size: 18px; fill: rgb(0, 0, 0); fill-opacity: 1; white-space: pre; opacity: 1;">0</text></g><g class="ytick"><text text-anchor="end" x="79" y="6.3" style="font-family: verdana; font-size: 18px; fill: rgb(0, 0, 0); fill-opacity: 1; white-space: pre; opacity: 1;" transform="translate(0,587.96)">0.2</text></g><g class="ytick"><text text-anchor="end" x="79" y="6.3" style="font-family: verdana; font-size: 18px; fill: rgb(0, 0, 0); fill-opacity: 1; white-space: pre; opacity: 1;" transform="translate(0,473.15)">0.4</text></g><g class="ytick"><text text-anchor="end" x="79" y="6.3" style="font-family: verdana; font-size: 18px; fill: rgb(0, 0, 0); fill-opacity: 1; white-space: pre; opacity: 1;" transform="translate(0,358.33)">0.6</text></g><g class="ytick"><text text-anchor="end" x="79" y="6.3" style="font-family: verdana; font-size: 18px; fill: rgb(0, 0, 0); fill-opacity: 1; white-space: pre; opacity: 1;" transform="translate(0,243.52)">0.8</text></g><g class="ytick"><text text-anchor="end" x="79" y="6.3" style="font-family: verdana; font-size: 18px; fill: rgb(0, 0, 0); fill-opacity: 1; white-space: pre; opacity: 1;" transform="translate(0,128.7)">1</text></g></g><g class="overaxes-above"/></g></g><g class="polarlayer"/><g class="smithlayer"/><g class="ternarylayer"/><g class="geolayer"/><g class="funnelarealayer"/><g class="pielayer"/><g class="iciclelayer"/><g class="treemaplayer"/><g class="sunburstlayer"/><g class="glimages"/><defs id="topdefs-302a48"><g class="clips"/></defs><g class="layer-above"><g class="imagelayer"/><g class="shapelayer"/></g><g class="infolayer"><g class="g-gtitle"/><g class="g-xtitle"/><g class="g-ytitle" transform="translate(2.837890625,0)"><text class="ytitle" transform="rotate(-90,19.1625,410)" x="19.1625" y="410" text-anchor="middle" style="font-family: verdana; font-size: 22px; fill: rgb(0, 0, 0); opacity: 1; font-weight: normal; white-space: pre;">f1</text></g></g></svg>