<svg class="main-svg" xmlns="http://www.w3.org/2000/svg" xmlns:xlink="http://www.w3.org/1999/xlink" width="2800" height="1600" style="" viewBox="0 0 1400 800"><rect x="0" y="0" width="1400" height="800" style="fill: rgb(255, 255, 255); fill-opacity: 1;"/><defs id="defs-59e5b7"><g class="clips"><clipPath id="clip59e5b7xyplot" class="plotclip"><rect width="1240" height="620"/></clipPath><clipPath class="axesclip" id="clip59e5b7x"><rect x="80" y="0" width="1240" height="800"/></clipPath><clipPath class="axesclip" id="clip59e5b7y"><rect x="0" y="100" width="1400" height="620"/></clipPath><clipPath class="axesclip" id="clip59e5b7xy"><rect x="80" y="100" width="1240" height="620"/></clipPath></g><g class="gradients"/><g class="patterns"/></defs><g class="bglayer"><rect class="bg" x="80" y="100" width="1240" height="620" style="fill: rgb(229, 236, 246); fill-opacity: 1; stroke-width: 0;"/></g><g class="layer-below"><g class="imagelayer"/><g class="shapelayer"/></g><g class="cartesianlayer"><g class="subplot xy"><g class="layer-subplot"><g class="shapelayer"/><g class="imagelayer"/></g><g class="gridlayer"><g class="x"/><g class="y"><path class="ygrid crisp" transform="translate(0,587.96)" d="M80,0h1240" style="stroke: rgb(255, 255, 255); stroke-opacity: 1; stroke-width: 1px;"/><path class="ygrid crisp" transform="translate(0,473.15)" d="M80,0h1240" style="stroke: rgb(255, 255, 255); stroke-opacity: 1; stroke-width: 1px;"/><path class="ygrid crisp" transform="translate(0,358.33)" d="M80,0h1240" style="stroke: rgb(255, 255, 255); stroke-opacity: 1; stroke-width: 1px;"/><path class="ygrid crisp" transform="translate(0,243.52)" d="M80,0h1240" style="stroke: rgb(255, 255, 255); stroke-opacity: 1; stroke-width: 1px;"/><path class="ygrid crisp" transform="translate(0,128.7)" d="M80,0h1240" style="stroke: rgb(255, 255, 255); stroke-opacity: 1; stroke-width: 1px;"/></g></g><g class="zerolinelayer"><path class="yzl zl crisp" transform="translate(0,702.78)" d="M80,0h1240" style="stroke: rgb(255, 255, 255); stroke-opacity: 1; stroke-width: 2px;"/></g><path class="xlines-below"/><path class="ylines-below"/><g class="overlines-below"/><g class="xaxislayer-below"/><g class="yaxislayer-below"/><g class="overaxes-below"/><g class="plot" transform="translate(80,100)" clip-path="url(#clip59e5b7xyplot)"><g class="violinlayer mlayer"><g class="trace violins" style="opacity: 1;"><path class="violin" d="M77.5,28.7L11.24,28.7Q9,33.27 9.03,35.54C9.06,37.82 10.23,40.19 11.42,42.37C12.72,44.76 14.85,46.97 16.74,49.21C18.69,51.53 20.96,53.74 22.94,56.04C24.88,58.29 26.83,60.54 28.51,62.87C30.12,65.1 31.56,67.39 32.85,69.71C34.1,71.95 35.14,74.25 36.16,76.54C37.17,78.8 38.03,81.1 38.94,83.38C39.84,85.65 40.69,87.93 41.59,90.21C42.49,92.49 43.4,94.77 44.32,97.05C45.24,99.33 46.18,101.6 47.11,103.88C48.04,106.16 48.98,108.43 49.89,110.71C50.8,112.99 51.7,115.27 52.57,117.55C53.43,119.82 54.27,122.1 55.07,124.38C55.87,126.65 56.64,128.93 57.36,131.22C58.08,133.49 58.75,135.77 59.38,138.05C60.01,140.32 60.59,142.61 61.14,144.89C61.69,147.16 62.19,149.44 62.66,151.72C63.13,153.99 63.57,156.27 63.98,158.55C64.39,160.83 64.78,163.11 65.14,165.39C65.5,167.67 65.83,169.94 66.13,172.22C66.43,174.5 66.7,176.78 66.94,179.06C67.18,181.34 67.38,183.61 67.57,185.89C67.76,188.17 67.92,190.44 68.07,192.72C68.23,195 68.36,197.28 68.5,199.56C68.64,201.84 68.77,204.11 68.92,206.39C69.07,208.67 69.23,210.95 69.39,213.23C69.55,215.51 69.73,217.78 69.9,220.06C70.07,222.34 70.26,224.62 70.43,226.9C70.6,229.18 70.78,231.45 70.94,233.73C71.1,236.01 71.24,238.28 71.38,240.56C71.52,242.84 71.65,245.12 71.77,247.4C71.89,249.68 72,251.95 72.11,254.23C72.22,256.51 72.32,258.79 72.42,261.07C72.52,263.35 72.63,265.62 72.72,267.9C72.81,270.18 72.9,272.46 72.98,274.74C73.06,277.02 73.14,279.29 73.21,281.57C73.28,283.85 73.35,286.12 73.41,288.4C73.47,290.68 73.52,292.96 73.57,295.24C73.62,297.52 73.67,299.79 73.71,302.07C73.75,304.35 73.8,306.63 73.83,308.91C73.86,311.19 73.89,313.46 73.9,315.74C73.91,318.02 73.92,320.29 73.91,322.57C73.9,324.85 73.89,327.13 73.86,329.41C73.84,331.69 73.8,333.96 73.76,336.24C73.72,338.52 73.67,340.8 73.62,343.08C73.57,345.36 73.52,347.63 73.48,349.91C73.44,352.19 73.41,354.47 73.4,356.75C73.39,359.03 73.39,361.3 73.4,363.58C73.41,365.86 73.44,368.13 73.48,370.41C73.52,372.69 73.59,374.97 73.66,377.25C73.73,379.53 73.81,381.8 73.89,384.08C73.97,386.36 74.06,388.64 74.14,390.92C74.22,393.2 74.31,395.47 74.39,397.75C74.47,400.03 74.55,402.31 74.62,404.59C74.69,406.87 74.75,409.14 74.81,411.42C74.87,413.7 74.92,415.97 74.97,418.25C75.02,420.53 75.07,422.81 75.11,425.09C75.15,427.37 75.19,429.64 75.22,431.92C75.25,434.2 75.27,436.48 75.3,438.76C75.32,441.04 75.35,443.31 75.37,445.59C75.39,447.87 75.42,450.15 75.44,452.43C75.46,454.71 75.49,456.98 75.51,459.26C75.53,461.54 75.56,463.81 75.58,466.09C75.6,468.37 75.62,470.65 75.64,472.93C75.66,475.21 75.67,477.48 75.68,479.76C75.69,482.04 75.69,484.32 75.69,486.6C75.69,488.88 75.68,491.15 75.67,493.43C75.66,495.71 75.65,497.98 75.64,500.26C75.63,502.54 75.61,504.82 75.6,507.1C75.59,509.38 75.58,511.65 75.59,513.93C75.6,516.21 75.61,518.49 75.64,520.77C75.67,523.05 75.71,525.32 75.75,527.6C75.8,529.88 75.85,532.16 75.91,534.44C75.97,536.72 76.05,538.99 76.12,541.27C76.19,543.55 76.27,545.82 76.33,548.1C76.39,550.38 76.46,552.66 76.49,554.94C76.52,557.22 76.55,559.49 76.54,561.77C76.53,564.05 76.5,566.33 76.43,568.61C76.37,570.89 76.26,573.16 76.15,575.44C76.03,577.72 75.88,580 75.74,582.28C75.6,584.56 75.43,586.83 75.3,589.11C75.17,591.39 75.04,593.66 74.96,595.94Q74.88,598.22 74.83,602.78L77.5,602.78" style="vector-effect: non-scaling-stroke; stroke-width: 2px; stroke: rgb(0, 0, 255); stroke-opacity: 1; fill: rgb(0, 0, 255); fill-opacity: 0.5;"/><path class="meanline" d="M52.841434478759766,118.27H77.5" style="fill: none; vector-effect: non-scaling-stroke; stroke-width: 3px; stroke-dasharray: 6px, 3px; stroke: rgb(255, 255, 255); stroke-opacity: 1;"/></g><g class="trace violins" style="opacity: 1;"><path class="violin" d="M77.5,602.78L77.53,602.78Q77.53,601.51 77.53,600.87C77.53,600.23 77.53,599.6 77.53,598.96C77.53,598.33 77.52,597.69 77.52,597.06C77.52,596.42 77.51,595.79 77.51,595.15C77.51,594.51 77.51,593.88 77.51,593.24C77.51,592.6 77.5,591.97 77.5,591.33C77.5,590.7 77.5,590.06 77.5,589.43C77.5,588.79 77.5,588.16 77.5,587.52C77.5,586.88 77.5,586.25 77.5,585.61C77.5,584.98 77.5,584.34 77.5,583.71C77.5,583.07 77.5,582.44 77.5,581.8C77.5,581.16 77.5,580.53 77.5,579.89C77.5,579.25 77.5,578.62 77.5,577.98C77.5,577.35 77.5,576.71 77.5,576.08C77.5,575.44 77.5,574.81 77.5,574.17C77.5,573.53 77.5,572.9 77.5,572.26C77.5,571.62 77.5,570.99 77.5,570.35C77.5,569.72 77.5,569.08 77.5,568.45C77.5,567.81 77.5,567.18 77.5,566.54C77.5,565.9 77.5,565.27 77.5,564.63C77.5,564 77.5,563.36 77.5,562.73C77.5,562.09 77.5,561.46 77.5,560.82C77.5,560.18 77.5,559.55 77.5,558.91C77.5,558.27 77.5,557.64 77.5,557C77.5,556.37 77.5,555.73 77.5,555.1C77.5,554.46 77.5,553.83 77.5,553.19C77.5,552.55 77.5,551.92 77.5,551.28C77.5,550.65 77.5,550.01 77.5,549.38C77.5,548.74 77.51,548.11 77.51,547.47C77.51,546.83 77.51,546.2 77.51,545.56C77.51,544.92 77.51,544.29 77.51,543.65C77.51,543.02 77.51,542.38 77.51,541.75C77.51,541.11 77.51,540.48 77.51,539.84C77.51,539.2 77.51,538.57 77.51,537.93C77.51,537.29 77.51,536.66 77.51,536.02C77.51,535.39 77.51,534.75 77.51,534.12C77.51,533.48 77.5,532.85 77.5,532.21C77.5,531.57 77.5,530.94 77.5,530.3C77.5,529.67 77.5,529.03 77.5,528.4C77.5,527.76 77.5,527.13 77.5,526.49C77.5,525.85 77.5,525.22 77.5,524.58C77.5,523.94 77.51,523.31 77.51,522.67C77.51,522.04 77.51,521.4 77.51,520.77C77.51,520.13 77.51,519.5 77.51,518.86C77.51,518.22 77.51,517.59 77.51,516.95C77.51,516.32 77.52,515.68 77.52,515.05C77.52,514.41 77.52,513.78 77.52,513.14C77.52,512.5 77.52,511.87 77.52,511.23C77.52,510.59 77.52,509.96 77.52,509.32C77.52,508.69 77.52,508.05 77.52,507.42C77.52,506.78 77.52,506.15 77.52,505.51C77.52,504.87 77.52,504.24 77.52,503.6C77.52,502.96 77.52,502.33 77.52,501.69C77.52,501.06 77.53,500.42 77.53,499.79C77.53,499.15 77.53,498.52 77.53,497.88C77.53,497.24 77.53,496.61 77.53,495.97C77.53,495.34 77.54,494.7 77.54,494.07C77.54,493.43 77.54,492.8 77.54,492.16C77.54,491.52 77.54,490.89 77.54,490.25C77.54,489.61 77.54,488.98 77.54,488.34C77.54,487.71 77.53,487.07 77.53,486.44C77.53,485.8 77.53,485.17 77.53,484.53C77.53,483.89 77.53,483.26 77.53,482.62C77.53,481.99 77.54,481.35 77.54,480.72C77.54,480.08 77.54,479.45 77.54,478.81C77.54,478.17 77.54,477.54 77.54,476.9C77.54,476.26 77.54,475.63 77.54,474.99C77.54,474.36 77.54,473.72 77.54,473.09C77.54,472.45 77.54,471.82 77.54,471.18C77.54,470.54 77.54,469.91 77.54,469.27C77.54,468.63 77.55,468 77.55,467.36C77.55,466.73 77.55,466.09 77.55,465.46C77.55,464.82 77.55,464.19 77.55,463.55C77.55,462.91 77.56,462.28 77.56,461.64C77.56,461.01 77.57,460.37 77.57,459.74C77.57,459.1 77.58,458.47 77.58,457.83C77.58,457.19 77.58,456.56 77.58,455.92C77.58,455.28 77.59,454.65 77.59,454.01C77.59,453.38 77.59,452.74 77.59,452.11C77.59,451.47 77.59,450.84 77.59,450.2C77.59,449.56 77.59,448.93 77.59,448.29C77.59,447.66 77.58,447.02 77.58,446.39C77.58,445.75 77.58,445.12 77.58,444.48C77.58,443.84 77.58,443.21 77.58,442.57C77.58,441.93 77.58,441.3 77.58,440.66C77.58,440.03 77.59,439.39 77.59,438.76C77.59,438.12 77.6,437.49 77.6,436.85C77.6,436.21 77.61,435.58 77.61,434.94C77.61,434.3 77.61,433.67 77.61,433.03C77.61,432.4 77.61,431.76 77.61,431.13C77.61,430.49 77.61,429.86 77.61,429.22C77.61,428.58 77.61,427.95 77.61,427.31C77.61,426.68 77.6,426.04 77.6,425.41C77.6,424.77 77.6,424.14 77.6,423.5C77.6,422.86 77.59,422.23 77.59,421.59C77.59,420.95 77.58,420.32 77.58,419.68C77.58,419.05 77.58,418.41 77.58,417.78C77.58,417.14 77.59,416.51 77.59,415.87C77.59,415.23 77.59,414.6 77.59,413.96C77.59,413.33 77.6,412.69 77.6,412.06C77.6,411.42 77.6,410.79 77.6,410.15C77.6,409.51 77.61,408.88 77.61,408.24C77.61,407.6 77.61,406.97 77.61,406.33C77.61,405.7 77.6,405.06 77.6,404.43C77.6,403.79 77.59,403.16 77.59,402.52C77.59,401.88 77.59,401.25 77.59,400.61C77.59,399.97 77.58,399.34 77.58,398.7C77.58,398.07 77.57,397.43 77.57,396.8C77.57,396.16 77.56,395.53 77.56,394.89C77.56,394.25 77.56,393.62 77.56,392.98C77.56,392.35 77.56,391.71 77.56,391.08C77.56,390.44 77.56,389.81 77.56,389.17C77.56,388.53 77.57,387.9 77.57,387.26C77.57,386.62 77.57,385.99 77.58,385.35C77.58,384.72 77.6,384.08 77.6,383.45C77.61,382.81 77.61,382.18 77.61,381.54C77.62,380.9 77.62,380.27 77.63,379.63C77.64,379 77.65,378.36 77.65,377.73C77.65,377.09 77.65,376.46 77.65,375.82C77.65,375.18 77.66,374.55 77.66,373.91C77.66,373.27 77.65,372.64 77.65,372C77.65,371.37 77.65,370.73 77.65,370.1C77.65,369.46 77.64,368.83 77.64,368.19C77.64,367.55 77.63,366.92 77.63,366.28C77.63,365.64 77.62,365.01 77.62,364.37C77.62,363.74 77.61,363.1 77.61,362.47C77.61,361.83 77.61,361.2 77.61,360.56C77.61,359.92 77.62,359.29 77.62,358.65C77.62,358.02 77.63,357.38 77.63,356.75C77.63,356.11 77.64,355.48 77.64,354.84C77.64,354.2 77.65,353.57 77.65,352.93C77.65,352.29 77.65,351.66 77.65,351.02C77.65,350.39 77.66,349.75 77.66,349.12C77.66,348.48 77.67,347.85 77.67,347.21C77.67,346.57 77.67,345.94 77.67,345.3C77.67,344.67 77.67,344.03 77.67,343.4C77.67,342.76 77.67,342.13 77.67,341.49C77.67,340.85 77.67,340.22 77.67,339.58C77.67,338.94 77.67,338.31 77.67,337.67C77.67,337.04 77.67,336.4 77.67,335.77C77.67,335.13 77.68,334.5 77.68,333.86C77.68,333.22 77.68,332.59 77.68,331.95C77.68,331.31 77.69,330.68 77.69,330.04C77.69,329.41 77.7,328.77 77.7,328.14C77.7,327.5 77.71,326.87 77.71,326.23C77.71,325.59 77.71,324.96 77.71,324.32C77.71,323.69 77.71,323.05 77.71,322.42C77.71,321.78 77.71,321.15 77.71,320.51C77.71,319.87 77.7,319.24 77.7,318.6C77.7,317.96 77.7,317.33 77.7,316.69C77.7,316.06 77.7,315.42 77.7,314.79C77.7,314.15 77.7,313.52 77.7,312.88C77.7,312.24 77.7,311.61 77.7,310.97C77.7,310.34 77.72,309.7 77.72,309.07C77.73,308.43 77.73,307.8 77.73,307.16C77.74,306.52 77.74,305.89 77.75,305.25C77.76,304.61 77.77,303.98 77.78,303.34C77.79,302.71 77.79,302.07 77.8,301.44C77.81,300.8 77.81,300.17 77.82,299.53C77.82,298.89 77.83,298.26 77.83,297.62C77.83,296.98 77.84,296.35 77.84,295.71C77.84,295.08 77.85,294.44 77.85,293.81C77.85,293.17 77.86,292.54 77.86,291.9C77.86,291.26 77.86,290.63 77.86,289.99C77.86,289.36 77.87,288.72 77.87,288.09C77.87,287.45 77.87,286.82 77.87,286.18C77.87,285.54 77.88,284.91 77.88,284.27C77.88,283.63 77.88,283 77.88,282.36C77.88,281.73 77.89,281.09 77.89,280.46C77.89,279.82 77.9,279.19 77.9,278.55C77.91,277.91 77.91,277.28 77.92,276.64C77.92,276.01 77.93,275.37 77.93,274.74C77.93,274.1 77.94,273.47 77.94,272.83C77.95,272.19 77.96,271.56 77.96,270.92C77.96,270.28 77.96,269.65 77.96,269.01C77.96,268.38 77.97,267.74 77.97,267.11C77.97,266.47 77.98,265.84 77.98,265.2C77.98,264.56 77.98,263.93 77.98,263.29C77.98,262.65 77.99,262.02 77.99,261.38C77.99,260.75 78,260.11 78,259.48C78.01,258.84 78.01,258.21 78.02,257.57C78.03,256.93 78.03,256.3 78.04,255.66C78.05,255.03 78.05,254.39 78.06,253.76C78.07,253.12 78.07,252.49 78.08,251.85C78.09,251.21 78.1,250.58 78.11,249.94C78.12,249.3 78.12,248.67 78.13,248.03C78.13,247.4 78.14,246.76 78.14,246.13C78.15,245.49 78.15,244.86 78.16,244.22C78.16,243.58 78.16,242.95 78.17,242.31C78.17,241.68 78.18,241.04 78.19,240.41C78.2,239.77 78.2,239.14 78.21,238.5C78.22,237.86 78.22,237.23 78.23,236.59C78.24,235.95 78.25,235.32 78.26,234.68C78.27,234.05 78.28,233.41 78.29,232.78C78.3,232.14 78.31,231.51 78.32,230.87C78.33,230.23 78.34,229.6 78.35,228.96C78.36,228.32 78.38,227.69 78.39,227.05C78.4,226.42 78.41,225.78 78.42,225.15C78.43,224.51 78.43,223.88 78.44,223.24C78.45,222.6 78.45,221.97 78.46,221.33C78.46,220.7 78.47,220.06 78.47,219.43C78.47,218.79 78.47,218.16 78.47,217.52C78.47,216.88 78.48,216.25 78.48,215.61C78.49,214.97 78.49,214.34 78.5,213.7C78.51,213.07 78.51,212.43 78.52,211.8C78.53,211.16 78.54,210.53 78.55,209.89C78.56,209.25 78.58,208.62 78.6,207.98C78.62,207.35 78.63,206.71 78.65,206.08C78.67,205.44 78.68,204.81 78.7,204.17C78.72,203.53 78.74,202.9 78.76,202.26C78.78,201.62 78.78,200.99 78.8,200.35C78.81,199.72 78.84,199.08 78.85,198.45C78.86,197.81 78.87,197.18 78.88,196.54C78.89,195.9 78.9,195.27 78.91,194.63C78.92,193.99 78.92,193.36 78.93,192.72C78.94,192.09 78.95,191.45 78.96,190.82C78.97,190.18 78.97,189.55 78.98,188.91C78.99,188.27 79.01,187.64 79.02,187C79.03,186.37 79.05,185.73 79.06,185.1C79.07,184.46 79.09,183.83 79.1,183.19C79.11,182.55 79.13,181.92 79.14,181.28C79.15,180.64 79.17,180.01 79.18,179.37C79.19,178.74 79.2,178.1 79.21,177.47C79.22,176.83 79.22,176.2 79.23,175.56C79.24,174.92 79.25,174.29 79.26,173.65C79.27,173.02 79.27,172.38 79.28,171.75C79.29,171.11 79.29,170.48 79.3,169.84C79.31,169.2 79.31,168.57 79.32,167.93C79.32,167.29 79.33,166.66 79.33,166.02C79.33,165.39 79.34,164.75 79.34,164.12C79.35,163.48 79.35,162.85 79.36,162.21C79.37,161.57 79.37,160.94 79.38,160.3C79.39,159.66 79.4,159.03 79.41,158.39C79.42,157.76 79.43,157.12 79.44,156.49C79.45,155.85 79.46,155.22 79.47,154.58C79.48,153.94 79.48,153.31 79.48,152.67C79.48,152.04 79.48,151.4 79.48,150.77C79.48,150.13 79.47,149.5 79.46,148.86C79.45,148.22 79.45,147.59 79.44,146.95C79.43,146.31 79.43,145.68 79.42,145.04C79.41,144.41 79.4,143.77 79.4,143.14C79.4,142.5 79.4,141.87 79.4,141.23C79.4,140.59 79.41,139.96 79.41,139.32C79.41,138.69 79.41,138.05 79.41,137.42C79.41,136.78 79.41,136.15 79.4,135.51C79.39,134.87 79.38,134.24 79.37,133.6C79.36,132.96 79.34,132.33 79.32,131.69C79.3,131.06 79.29,130.42 79.27,129.79C79.25,129.15 79.24,128.52 79.22,127.88C79.21,127.24 79.19,126.61 79.18,125.97C79.17,125.33 79.16,124.7 79.16,124.06C79.16,123.43 79.16,122.79 79.16,122.16C79.16,121.52 79.17,120.89 79.18,120.25C79.19,119.61 79.2,118.98 79.21,118.34C79.22,117.71 79.24,117.07 79.25,116.44C79.26,115.8 79.28,115.17 79.29,114.53C79.3,113.89 79.3,113.26 79.31,112.62C79.32,111.98 79.33,111.35 79.33,110.71C79.33,110.08 79.33,109.44 79.33,108.81C79.33,108.17 79.33,107.54 79.33,106.9C79.33,106.26 79.33,105.63 79.33,104.99C79.33,104.36 79.33,103.72 79.33,103.09C79.33,102.45 79.34,101.82 79.35,101.18C79.36,100.54 79.37,99.91 79.38,99.27C79.39,98.63 79.41,98 79.43,97.36C79.45,96.73 79.47,96.09 79.49,95.46C79.51,94.82 79.53,94.19 79.55,93.55C79.57,92.91 79.58,92.28 79.6,91.64C79.62,91 79.63,90.37 79.65,89.73C79.66,89.1 79.68,88.46 79.69,87.83C79.7,87.19 79.72,86.56 79.73,85.92C79.74,85.28 79.75,84.65 79.77,84.01C79.78,83.38 79.8,82.74 79.82,82.11C79.84,81.47 79.86,80.84 79.88,80.2C79.9,79.56 79.92,78.93 79.94,78.29C79.96,77.65 79.98,77.02 80,76.38C80.02,75.75 80.05,75.11 80.07,74.48C80.09,73.84 80.11,73.21 80.14,72.57C80.17,71.93 80.2,71.3 80.23,70.66C80.26,70.03 80.29,69.39 80.33,68.76C80.37,68.12 80.42,67.49 80.47,66.85C80.52,66.21 80.58,65.58 80.65,64.94C80.72,64.3 80.79,63.67 80.88,63.03C80.97,62.4 81.06,61.76 81.17,61.13C81.28,60.49 81.4,59.85 81.54,59.22C81.68,58.58 81.82,57.94 82.01,57.31C82.2,56.67 82.4,56.03 82.66,55.4C82.92,54.76 83.22,54.12 83.58,53.5C83.96,52.85 84.39,52.21 84.88,51.59C85.41,50.93 86.01,50.29 86.67,49.68C87.38,49.02 88.17,48.39 89.01,47.78C89.92,47.12 90.91,46.49 91.95,45.87C93.07,45.21 94.25,44.57 95.51,43.96C96.87,43.3 98.31,42.66 99.85,42.05C101.55,41.38 103.35,40.75 105.28,40.15C107.44,39.48 109.76,38.85 112.2,38.24C114.89,37.57 117.82,36.95 120.76,36.33C123.86,35.68 127.21,35.08 130.35,34.43C133.39,33.8 136.66,33.23 139.33,32.52C141.53,31.93 144.29,31.55 145.27,30.61Q145.83,30.07 145.97,28.7L77.5,28.7" style="vector-effect: non-scaling-stroke; stroke-width: 2px; stroke: rgb(0, 128, 0); stroke-opacity: 1; fill: rgb(0, 128, 0); fill-opacity: 0.5;"/><path class="meanline" d="M81.21168518066406,60.89H77.5" style="fill: none; vector-effect: non-scaling-stroke; stroke-width: 3px; stroke-dasharray: 6px, 3px; stroke: rgb(255, 255, 255); stroke-opacity: 1;"/></g><g class="trace violins" style="opacity: 1;"><path class="violin" d="M232.5,28.7L167.56,28.7Q164.41,33.82 164.03,36.46C163.67,38.99 164.27,41.72 165.15,44.22C166.09,46.9 167.96,49.45 169.69,51.98C171.5,54.63 173.78,57.15 175.83,59.73C177.89,62.32 180.07,64.87 182.01,67.49C183.9,70.04 185.73,72.62 187.34,75.25C188.9,77.8 190.31,80.39 191.57,83.01C192.8,85.57 193.85,88.17 194.84,90.77C195.81,93.34 196.65,95.93 197.45,98.52C198.25,101.1 198.95,103.69 199.64,106.28C200.33,108.86 200.97,111.45 201.61,114.04C202.25,116.62 202.85,119.21 203.47,121.8C204.09,124.38 204.7,126.97 205.31,129.55C205.92,132.14 206.53,134.72 207.13,137.31C207.73,139.9 208.33,142.48 208.92,145.07C209.5,147.66 210.09,150.24 210.64,152.83C211.19,155.41 211.73,158 212.24,160.59C212.75,163.17 213.23,165.75 213.69,168.34C214.15,170.92 214.59,173.51 215.01,176.1C215.43,178.69 215.83,181.27 216.23,183.86C216.62,186.45 217,189.03 217.38,191.62C217.75,194.2 218.12,196.79 218.48,199.37C218.84,201.96 219.19,204.54 219.52,207.13C219.85,209.72 220.17,212.3 220.47,214.89C220.77,217.48 221.05,220.06 221.32,222.65C221.59,225.24 221.84,227.82 222.09,230.41C222.34,232.99 222.57,235.58 222.8,238.16C223.03,240.75 223.26,243.33 223.49,245.92C223.72,248.51 223.95,251.09 224.17,253.68C224.39,256.27 224.61,258.85 224.83,261.44C225.04,264.02 225.26,266.61 225.46,269.19C225.66,271.78 225.84,274.36 226.02,276.95C226.2,279.54 226.37,282.12 226.52,284.71C226.67,287.3 226.8,289.88 226.92,292.47C227.04,295.06 227.15,297.64 227.25,300.23C227.35,302.81 227.43,305.4 227.51,307.98C227.59,310.57 227.66,313.15 227.73,315.74C227.8,318.33 227.86,320.91 227.92,323.5C227.98,326.09 228.03,328.67 228.1,331.26C228.17,333.84 228.24,336.43 228.32,339.01C228.4,341.6 228.48,344.18 228.56,346.77C228.65,349.36 228.74,351.94 228.83,354.53C228.92,357.12 229.02,359.7 229.1,362.29C229.18,364.88 229.27,367.46 229.33,370.05C229.39,372.63 229.44,375.22 229.48,377.8C229.52,380.39 229.55,382.97 229.56,385.56C229.57,388.15 229.57,390.73 229.57,393.32C229.57,395.91 229.56,398.49 229.55,401.08C229.55,403.66 229.54,406.25 229.54,408.83C229.54,411.42 229.54,414 229.54,416.59C229.54,419.18 229.55,421.76 229.56,424.35C229.57,426.94 229.59,429.52 229.61,432.11C229.63,434.69 229.65,437.28 229.67,439.86C229.69,442.45 229.72,445.03 229.74,447.62C229.77,450.21 229.79,452.79 229.82,455.38C229.85,457.97 229.87,460.55 229.9,463.14C229.93,465.73 229.96,468.31 229.99,470.9C230.02,473.48 230.05,476.07 230.08,478.65C230.12,481.24 230.16,483.82 230.2,486.41C230.25,489 230.29,491.58 230.35,494.17C230.41,496.76 230.47,499.34 230.54,501.93C230.61,504.51 230.68,507.1 230.75,509.68C230.82,512.27 230.91,514.85 230.98,517.44C231.05,520.03 231.12,522.61 231.19,525.2C231.26,527.79 231.32,530.37 231.38,532.96C231.43,535.55 231.48,538.13 231.52,540.72C231.56,543.3 231.59,545.89 231.61,548.47C231.63,551.06 231.65,553.64 231.65,556.23C231.65,558.82 231.63,561.4 231.61,563.99C231.58,566.58 231.54,569.16 231.5,571.75C231.46,574.33 231.4,576.92 231.35,579.5C231.3,582.09 231.23,584.67 231.18,587.26C231.13,589.85 231.09,592.43 231.07,595.02Q231.05,597.61 231.06,602.78L232.5,602.78" style="vector-effect: non-scaling-stroke; stroke-width: 2px; stroke: rgb(0, 0, 255); stroke-opacity: 1; fill: rgb(0, 0, 255); fill-opacity: 0.5;"/><path class="meanline" d="M203.07278442382812,120.13H232.5" style="fill: none; vector-effect: non-scaling-stroke; stroke-width: 3px; stroke-dasharray: 6px, 3px; stroke: rgb(255, 255, 255); stroke-opacity: 1;"/></g><g class="trace violins" style="opacity: 1;"><path class="violin" d="M232.5,602.78L232.52,602.78Q232.52,601.51 232.52,600.87C232.52,600.23 232.51,599.6 232.51,598.96C232.51,598.33 232.51,597.69 232.51,597.06C232.51,596.42 232.51,595.79 232.51,595.15C232.51,594.51 232.51,593.88 232.51,593.24C232.51,592.6 232.51,591.97 232.51,591.33C232.51,590.7 232.51,590.06 232.51,589.43C232.51,588.79 232.51,588.16 232.51,587.52C232.51,586.88 232.51,586.25 232.51,585.61C232.51,584.98 232.51,584.34 232.51,583.71C232.51,583.07 232.51,582.44 232.51,581.8C232.51,581.16 232.51,580.53 232.51,579.89C232.51,579.25 232.51,578.62 232.51,577.98C232.51,577.35 232.51,576.71 232.51,576.08C232.51,575.44 232.51,574.81 232.51,574.17C232.51,573.53 232.5,572.9 232.5,572.26C232.5,571.62 232.5,570.99 232.5,570.35C232.5,569.72 232.5,569.08 232.5,568.45C232.5,567.81 232.5,567.18 232.5,566.54C232.5,565.9 232.51,565.27 232.51,564.63C232.51,564 232.51,563.36 232.51,562.73C232.51,562.09 232.5,561.46 232.5,560.82C232.5,560.18 232.5,559.55 232.5,558.91C232.5,558.27 232.5,557.64 232.5,557C232.5,556.37 232.5,555.73 232.5,555.1C232.5,554.46 232.5,553.83 232.5,553.19C232.5,552.55 232.5,551.92 232.5,551.28C232.5,550.65 232.51,550.01 232.51,549.38C232.51,548.74 232.51,548.11 232.51,547.47C232.51,546.83 232.51,546.2 232.51,545.56C232.51,544.92 232.51,544.29 232.51,543.65C232.51,543.02 232.52,542.38 232.52,541.75C232.52,541.11 232.52,540.48 232.52,539.84C232.52,539.2 232.52,538.57 232.52,537.93C232.52,537.29 232.51,536.66 232.51,536.02C232.51,535.39 232.51,534.75 232.51,534.12C232.51,533.48 232.51,532.85 232.51,532.21C232.51,531.57 232.51,530.94 232.51,530.3C232.51,529.67 232.51,529.03 232.51,528.4C232.51,527.76 232.51,527.13 232.51,526.49C232.51,525.85 232.51,525.22 232.51,524.58C232.51,523.94 232.51,523.31 232.51,522.67C232.51,522.04 232.51,521.4 232.51,520.77C232.51,520.13 232.51,519.5 232.51,518.86C232.51,518.22 232.51,517.59 232.51,516.95C232.51,516.32 232.51,515.68 232.51,515.05C232.51,514.41 232.51,513.78 232.51,513.14C232.51,512.5 232.51,511.87 232.51,511.23C232.51,510.59 232.52,509.96 232.52,509.32C232.52,508.69 232.52,508.05 232.52,507.42C232.52,506.78 232.52,506.15 232.52,505.51C232.52,504.87 232.52,504.24 232.52,503.6C232.52,502.96 232.53,502.33 232.53,501.69C232.53,501.06 232.53,500.42 232.53,499.79C232.53,499.15 232.52,498.52 232.52,497.88C232.52,497.24 232.52,496.61 232.52,495.97C232.52,495.34 232.52,494.7 232.52,494.07C232.52,493.43 232.52,492.8 232.52,492.16C232.52,491.52 232.52,490.89 232.52,490.25C232.52,489.61 232.52,488.98 232.52,488.34C232.52,487.71 232.52,487.07 232.52,486.44C232.52,485.8 232.52,485.17 232.52,484.53C232.52,483.89 232.52,483.26 232.52,482.62C232.52,481.99 232.51,481.35 232.51,480.72C232.51,480.08 232.51,479.45 232.51,478.81C232.51,478.17 232.51,477.54 232.51,476.9C232.51,476.26 232.51,475.63 232.51,474.99C232.51,474.36 232.52,473.72 232.52,473.09C232.52,472.45 232.52,471.82 232.52,471.18C232.52,470.54 232.52,469.91 232.52,469.27C232.52,468.63 232.53,468 232.53,467.36C232.53,466.73 232.53,466.09 232.53,465.46C232.53,464.82 232.53,464.19 232.53,463.55C232.53,462.91 232.53,462.28 232.53,461.64C232.53,461.01 232.53,460.37 232.53,459.74C232.53,459.1 232.53,458.47 232.53,457.83C232.53,457.19 232.53,456.56 232.53,455.92C232.53,455.28 232.52,454.65 232.52,454.01C232.52,453.38 232.52,452.74 232.52,452.11C232.52,451.47 232.52,450.84 232.52,450.2C232.52,449.56 232.52,448.93 232.52,448.29C232.52,447.66 232.52,447.02 232.52,446.39C232.52,445.75 232.52,445.12 232.52,444.48C232.52,443.84 232.52,443.21 232.52,442.57C232.52,441.93 232.52,441.3 232.52,440.66C232.52,440.03 232.53,439.39 232.53,438.76C232.53,438.12 232.53,437.49 232.53,436.85C232.53,436.21 232.54,435.58 232.54,434.94C232.54,434.3 232.54,433.67 232.54,433.03C232.54,432.4 232.54,431.76 232.54,431.13C232.54,430.49 232.54,429.86 232.54,429.22C232.54,428.58 232.54,427.95 232.54,427.31C232.54,426.68 232.54,426.04 232.54,425.41C232.54,424.77 232.54,424.14 232.54,423.5C232.54,422.86 232.54,422.23 232.54,421.59C232.54,420.95 232.53,420.32 232.53,419.68C232.53,419.05 232.53,418.41 232.53,417.78C232.53,417.14 232.53,416.51 232.53,415.87C232.53,415.23 232.52,414.6 232.52,413.96C232.52,413.33 232.52,412.69 232.52,412.06C232.52,411.42 232.52,410.79 232.52,410.15C232.52,409.51 232.52,408.88 232.52,408.24C232.52,407.6 232.52,406.97 232.52,406.33C232.52,405.7 232.52,405.06 232.52,404.43C232.52,403.79 232.53,403.16 232.53,402.52C232.53,401.88 232.53,401.25 232.53,400.61C232.53,399.97 232.54,399.34 232.54,398.7C232.54,398.07 232.54,397.43 232.54,396.8C232.54,396.16 232.55,395.53 232.55,394.89C232.55,394.25 232.55,393.62 232.55,392.98C232.55,392.35 232.55,391.71 232.55,391.08C232.55,390.44 232.55,389.81 232.55,389.17C232.55,388.53 232.55,387.9 232.55,387.26C232.55,386.62 232.54,385.99 232.54,385.35C232.54,384.72 232.54,384.08 232.54,383.45C232.54,382.81 232.54,382.18 232.54,381.54C232.54,380.9 232.54,380.27 232.54,379.63C232.54,379 232.54,378.36 232.54,377.73C232.54,377.09 232.54,376.46 232.54,375.82C232.54,375.18 232.54,374.55 232.54,373.91C232.54,373.27 232.54,372.64 232.54,372C232.54,371.37 232.54,370.73 232.54,370.1C232.54,369.46 232.54,368.83 232.54,368.19C232.54,367.55 232.54,366.92 232.54,366.28C232.54,365.64 232.54,365.01 232.54,364.37C232.54,363.74 232.55,363.1 232.55,362.47C232.55,361.83 232.56,361.2 232.56,360.56C232.56,359.92 232.57,359.29 232.57,358.65C232.57,358.02 232.57,357.38 232.57,356.75C232.57,356.11 232.58,355.48 232.58,354.84C232.58,354.2 232.59,353.57 232.59,352.93C232.59,352.29 232.59,351.66 232.59,351.02C232.59,350.39 232.6,349.75 232.6,349.12C232.6,348.48 232.6,347.85 232.6,347.21C232.6,346.57 232.61,345.94 232.61,345.3C232.61,344.67 232.61,344.03 232.61,343.4C232.61,342.76 232.61,342.13 232.61,341.49C232.61,340.85 232.62,340.22 232.62,339.58C232.62,338.94 232.62,338.31 232.62,337.67C232.62,337.04 232.62,336.4 232.62,335.77C232.62,335.13 232.63,334.5 232.63,333.86C232.63,333.22 232.63,332.59 232.63,331.95C232.63,331.31 232.62,330.68 232.62,330.04C232.62,329.41 232.62,328.77 232.62,328.14C232.62,327.5 232.61,326.87 232.61,326.23C232.61,325.59 232.6,324.96 232.6,324.32C232.6,323.69 232.6,323.05 232.6,322.42C232.6,321.78 232.61,321.15 232.61,320.51C232.61,319.87 232.61,319.24 232.61,318.6C232.61,317.96 232.62,317.33 232.62,316.69C232.62,316.06 232.63,315.42 232.63,314.79C232.63,314.15 232.64,313.52 232.64,312.88C232.65,312.24 232.66,311.61 232.66,310.97C232.66,310.34 232.66,309.7 232.66,309.07C232.66,308.43 232.67,307.8 232.67,307.16C232.67,306.52 232.68,305.89 232.68,305.25C232.68,304.61 232.68,303.98 232.68,303.34C232.68,302.71 232.68,302.07 232.68,301.44C232.68,300.8 232.67,300.17 232.67,299.53C232.67,298.89 232.66,298.26 232.66,297.62C232.66,296.98 232.66,296.35 232.66,295.71C232.66,295.08 232.65,294.44 232.65,293.81C232.65,293.17 232.65,292.54 232.65,291.9C232.65,291.26 232.65,290.63 232.65,289.99C232.65,289.36 232.65,288.72 232.65,288.09C232.65,287.45 232.65,286.82 232.65,286.18C232.65,285.54 232.66,284.91 232.66,284.27C232.66,283.63 232.66,283 232.66,282.36C232.66,281.73 232.66,281.09 232.66,280.46C232.66,279.82 232.66,279.19 232.66,278.55C232.66,277.91 232.67,277.28 232.67,276.64C232.67,276.01 232.68,275.37 232.68,274.74C232.69,274.1 232.69,273.47 232.7,272.83C232.71,272.19 232.71,271.56 232.72,270.92C232.72,270.28 232.72,269.65 232.73,269.01C232.73,268.38 232.74,267.74 232.75,267.11C232.76,266.47 232.76,265.84 232.77,265.2C232.77,264.56 232.78,263.93 232.78,263.29C232.79,262.65 232.79,262.02 232.8,261.38C232.8,260.75 232.81,260.11 232.81,259.48C232.82,258.84 232.82,258.21 232.83,257.57C232.83,256.93 232.83,256.3 232.84,255.66C232.84,255.03 232.86,254.39 232.86,253.76C232.87,253.12 232.87,252.49 232.87,251.85C232.88,251.21 232.88,250.58 232.89,249.94C232.9,249.3 232.9,248.67 232.91,248.03C232.92,247.4 232.92,246.76 232.93,246.13C232.94,245.49 232.94,244.86 232.95,244.22C232.96,243.58 232.96,242.95 232.97,242.31C232.98,241.68 232.99,241.04 232.99,240.41C233,239.77 233,239.14 233,238.5C233,237.86 233.01,237.23 233.01,236.59C233.01,235.95 233.02,235.32 233.02,234.68C233.02,234.05 233.03,233.41 233.03,232.78C233.04,232.14 233.04,231.51 233.05,230.87C233.06,230.23 233.06,229.6 233.07,228.96C233.08,228.32 233.08,227.69 233.09,227.05C233.1,226.42 233.11,225.78 233.12,225.15C233.13,224.51 233.14,223.88 233.15,223.24C233.16,222.6 233.18,221.97 233.19,221.33C233.2,220.7 233.2,220.06 233.21,219.43C233.22,218.79 233.22,218.16 233.23,217.52C233.23,216.88 233.24,216.25 233.24,215.61C233.24,214.97 233.24,214.34 233.24,213.7C233.24,213.07 233.25,212.43 233.25,211.8C233.25,211.16 233.26,210.53 233.26,209.89C233.27,209.25 233.27,208.62 233.28,207.98C233.29,207.35 233.31,206.71 233.33,206.08C233.35,205.44 233.36,204.81 233.38,204.17C233.4,203.53 233.42,202.9 233.44,202.26C233.46,201.62 233.47,200.99 233.49,200.35C233.51,199.72 233.53,199.08 233.54,198.45C233.56,197.81 233.57,197.18 233.58,196.54C233.59,195.9 233.6,195.27 233.61,194.63C233.62,193.99 233.62,193.36 233.63,192.72C233.64,192.09 233.64,191.45 233.65,190.82C233.66,190.18 233.67,189.55 233.68,188.91C233.69,188.27 233.7,187.64 233.71,187C233.72,186.37 233.74,185.73 233.76,185.1C233.78,184.46 233.8,183.83 233.82,183.19C233.84,182.55 233.87,181.92 233.89,181.28C233.92,180.64 233.94,180.01 233.97,179.37C233.99,178.74 234.02,178.1 234.04,177.47C234.07,176.83 234.1,176.2 234.12,175.56C234.14,174.92 234.16,174.29 234.18,173.65C234.2,173.02 234.22,172.38 234.24,171.75C234.26,171.11 234.27,170.48 234.28,169.84C234.29,169.2 234.29,168.57 234.3,167.93C234.3,167.29 234.31,166.66 234.31,166.02C234.31,165.39 234.31,164.75 234.31,164.12C234.31,163.48 234.31,162.85 234.31,162.21C234.31,161.57 234.31,160.94 234.31,160.3C234.31,159.66 234.33,159.03 234.34,158.39C234.35,157.76 234.36,157.12 234.38,156.49C234.4,155.85 234.42,155.22 234.44,154.58C234.46,153.94 234.49,153.31 234.52,152.67C234.54,152.04 234.57,151.4 234.59,150.77C234.61,150.13 234.64,149.5 234.66,148.86C234.68,148.22 234.71,147.59 234.73,146.95C234.75,146.31 234.76,145.68 234.78,145.04C234.8,144.41 234.82,143.77 234.83,143.14C234.84,142.5 234.85,141.87 234.86,141.23C234.87,140.59 234.87,139.96 234.88,139.32C234.88,138.69 234.89,138.05 234.89,137.42C234.89,136.78 234.9,136.15 234.9,135.51C234.9,134.87 234.91,134.24 234.91,133.6C234.91,132.96 234.91,132.33 234.92,131.69C234.92,131.06 234.93,130.42 234.94,129.79C234.95,129.15 234.95,128.52 234.96,127.88C234.97,127.24 234.97,126.61 234.98,125.97C234.99,125.33 234.99,124.7 235,124.06C235,123.43 235.01,122.79 235.01,122.16C235.02,121.52 235.02,120.89 235.03,120.25C235.04,119.61 235.04,118.98 235.05,118.34C235.06,117.71 235.07,117.07 235.08,116.44C235.09,115.8 235.11,115.17 235.12,114.53C235.13,113.89 235.15,113.26 235.16,112.62C235.17,111.98 235.17,111.35 235.18,110.71C235.18,110.08 235.19,109.44 235.19,108.81C235.19,108.17 235.18,107.54 235.17,106.9C235.16,106.26 235.16,105.63 235.15,104.99C235.14,104.36 235.12,103.72 235.11,103.09C235.1,102.45 235.08,101.82 235.07,101.18C235.06,100.54 235.04,99.91 235.03,99.27C235.02,98.63 235.01,98 234.99,97.36C234.98,96.73 234.96,96.09 234.94,95.46C234.92,94.82 234.9,94.19 234.88,93.55C234.86,92.91 234.84,92.28 234.82,91.64C234.8,91 234.77,90.37 234.75,89.73C234.73,89.1 234.71,88.46 234.69,87.83C234.67,87.19 234.65,86.56 234.63,85.92C234.61,85.28 234.6,84.65 234.58,84.01C234.56,83.38 234.54,82.74 234.53,82.11C234.52,81.47 234.51,80.84 234.5,80.2C234.49,79.56 234.48,78.93 234.47,78.29C234.46,77.65 234.45,77.02 234.44,76.38C234.43,75.75 234.42,75.11 234.42,74.48C234.42,73.84 234.42,73.21 234.42,72.57C234.42,71.93 234.42,71.3 234.42,70.66C234.42,70.03 234.42,69.39 234.43,68.76C234.44,68.12 234.45,67.49 234.46,66.85C234.47,66.21 234.48,65.58 234.5,64.94C234.52,64.3 234.54,63.67 234.56,63.03C234.58,62.4 234.61,61.76 234.64,61.13C234.67,60.49 234.71,59.86 234.76,59.22C234.81,58.58 234.86,57.95 234.92,57.31C234.98,56.67 235.05,56.03 235.14,55.4C235.23,54.76 235.33,54.13 235.45,53.5C235.58,52.86 235.71,52.22 235.89,51.59C236.07,50.95 236.28,50.31 236.54,49.68C236.81,49.04 237.12,48.4 237.51,47.78C237.92,47.13 238.39,46.48 238.96,45.87C239.59,45.2 240.33,44.56 241.18,43.96C242.17,43.27 243.31,42.64 244.6,42.05C246.14,41.35 247.91,40.74 249.84,40.15C252.12,39.45 254.72,38.84 257.45,38.24C260.57,37.55 264.05,36.94 267.55,36.33C271.31,35.67 275.41,35.07 279.29,34.43C283.1,33.8 287.17,33.22 290.62,32.52C293.55,31.93 296.89,31.51 298.69,30.61Q299.77,30.07 300.97,28.7L232.5,28.7" style="vector-effect: non-scaling-stroke; stroke-width: 2px; stroke: rgb(0, 128, 0); stroke-opacity: 1; fill: rgb(0, 128, 0); fill-opacity: 0.5;"/><path class="meanline" d="M234.85873413085938,58H232.5" style="fill: none; vector-effect: non-scaling-stroke; stroke-width: 3px; stroke-dasharray: 6px, 3px; stroke: rgb(255, 255, 255); stroke-opacity: 1;"/></g><g class="trace violins" style="opacity: 1;"><path class="violin" d="M387.5,28.7L322.07,28.7Q319.21,35.28 319.03,38.6C318.85,41.88 319.74,45.3 320.93,48.5C322.19,51.91 324.45,55.17 326.61,58.4C328.88,61.78 331.7,65.01 334.3,68.3C336.92,71.61 339.74,74.86 342.28,78.19C344.76,81.45 347.23,84.73 349.37,88.09C351.44,91.34 353.35,94.64 354.97,97.99C356.54,101.24 357.87,104.55 358.98,107.89C360.06,111.15 360.88,114.46 361.57,117.78C362.25,121.06 362.69,124.37 363.08,127.68C363.47,130.97 363.68,134.28 363.89,137.58C364.1,140.88 364.21,144.18 364.35,147.48C364.48,150.78 364.58,154.08 364.7,157.38C364.82,160.68 364.94,163.97 365.09,167.27C365.24,170.57 365.41,173.87 365.6,177.17C365.79,180.47 366.02,183.77 366.25,187.07C366.49,190.37 366.74,193.67 367.01,196.97C367.28,200.27 367.57,203.56 367.88,206.86C368.19,210.16 368.51,213.46 368.85,216.76C369.19,220.06 369.56,223.36 369.94,226.66C370.33,229.96 370.74,233.26 371.16,236.56C371.59,239.86 372.03,243.16 372.49,246.46C372.94,249.76 373.43,253.05 373.89,256.35C374.35,259.65 374.83,262.95 375.27,266.25C375.71,269.55 376.14,272.85 376.53,276.15C376.92,279.45 377.28,282.75 377.61,286.05C377.93,289.35 378.22,292.65 378.48,295.95C378.73,299.25 378.95,302.54 379.14,305.84C379.34,309.14 379.5,312.44 379.65,315.74C379.8,319.04 379.93,322.34 380.05,325.64C380.17,328.94 380.28,332.24 380.39,335.54C380.5,338.84 380.6,342.13 380.71,345.43C380.82,348.73 380.93,352.03 381.04,355.33C381.15,358.63 381.27,361.93 381.38,365.23C381.5,368.53 381.62,371.83 381.73,375.13C381.84,378.43 381.95,381.73 382.06,385.03C382.16,388.33 382.26,391.62 382.36,394.92C382.46,398.22 382.55,401.52 382.64,404.82C382.73,408.12 382.81,411.42 382.9,414.72C382.99,418.02 383.08,421.32 383.18,424.62C383.28,427.92 383.39,431.21 383.5,434.51C383.61,437.81 383.74,441.11 383.86,444.41C383.99,447.71 384.12,451.01 384.25,454.31C384.38,457.61 384.51,460.91 384.64,464.21C384.76,467.51 384.89,470.81 385,474.11C385.11,477.41 385.21,480.7 385.3,484C385.39,487.3 385.46,490.6 385.53,493.9C385.59,497.2 385.64,500.5 385.69,503.8C385.73,507.1 385.77,510.4 385.8,513.7C385.83,517 385.86,520.3 385.88,523.6C385.9,526.9 385.91,530.19 385.92,533.49C385.93,536.79 385.93,540.09 385.92,543.39C385.91,546.69 385.9,549.99 385.87,553.29C385.84,556.59 385.8,559.89 385.75,563.19C385.7,566.49 385.64,569.78 385.59,573.08C385.54,576.38 385.47,579.68 385.43,582.98C385.39,586.28 385.35,589.58 385.35,592.88Q385.35,596.18 385.4,602.78L387.5,602.78" style="vector-effect: non-scaling-stroke; stroke-width: 2px; stroke: rgb(0, 0, 255); stroke-opacity: 1; fill: rgb(0, 0, 255); fill-opacity: 0.5;"/><path class="meanline" d="M363.5504150390625,132.6H387.5" style="fill: none; vector-effect: non-scaling-stroke; stroke-width: 3px; stroke-dasharray: 6px, 3px; stroke: rgb(255, 255, 255); stroke-opacity: 1;"/></g><g class="trace violins" style="opacity: 1;"><path class="violin" d="M387.5,602.78L387.61,602.78Q387.61,601.51 387.61,600.87C387.61,600.23 387.6,599.6 387.59,598.96C387.58,598.33 387.58,597.69 387.57,597.06C387.56,596.42 387.56,595.79 387.55,595.15C387.54,594.51 387.54,593.88 387.53,593.24C387.53,592.6 387.52,591.97 387.52,591.33C387.52,590.7 387.51,590.06 387.51,589.43C387.51,588.79 387.5,588.16 387.5,587.52C387.5,586.88 387.5,586.25 387.5,585.61C387.5,584.98 387.51,584.34 387.51,583.71C387.51,583.07 387.51,582.44 387.51,581.8C387.51,581.16 387.51,580.53 387.51,579.89C387.51,579.25 387.51,578.62 387.51,577.98C387.51,577.35 387.51,576.71 387.51,576.08C387.51,575.44 387.51,574.81 387.51,574.17C387.51,573.53 387.51,572.9 387.51,572.26C387.51,571.62 387.51,570.99 387.51,570.35C387.51,569.72 387.51,569.08 387.51,568.45C387.51,567.81 387.51,567.18 387.51,566.54C387.51,565.9 387.51,565.27 387.51,564.63C387.51,564 387.51,563.36 387.51,562.73C387.51,562.09 387.51,561.46 387.51,560.82C387.51,560.18 387.52,559.55 387.52,558.91C387.52,558.27 387.52,557.64 387.52,557C387.52,556.37 387.52,555.73 387.52,555.1C387.52,554.46 387.52,553.83 387.52,553.19C387.52,552.55 387.53,551.92 387.53,551.28C387.53,550.65 387.53,550.01 387.53,549.38C387.53,548.74 387.52,548.11 387.52,547.47C387.52,546.83 387.52,546.2 387.52,545.56C387.52,544.92 387.52,544.29 387.52,543.65C387.52,543.02 387.52,542.38 387.52,541.75C387.52,541.11 387.52,540.48 387.52,539.84C387.52,539.2 387.52,538.57 387.52,537.93C387.52,537.29 387.52,536.66 387.52,536.02C387.52,535.39 387.52,534.75 387.52,534.12C387.52,533.48 387.53,532.85 387.53,532.21C387.53,531.57 387.53,530.94 387.53,530.3C387.53,529.67 387.53,529.03 387.53,528.4C387.53,527.76 387.54,527.13 387.54,526.49C387.54,525.85 387.54,525.22 387.54,524.58C387.54,523.94 387.54,523.31 387.54,522.67C387.54,522.04 387.54,521.4 387.54,520.77C387.54,520.13 387.54,519.5 387.54,518.86C387.54,518.22 387.54,517.59 387.54,516.95C387.54,516.32 387.54,515.68 387.54,515.05C387.54,514.41 387.54,513.78 387.54,513.14C387.54,512.5 387.54,511.87 387.54,511.23C387.54,510.59 387.54,509.96 387.54,509.32C387.54,508.69 387.54,508.05 387.54,507.42C387.54,506.78 387.55,506.15 387.55,505.51C387.55,504.87 387.55,504.24 387.55,503.6C387.55,502.96 387.55,502.33 387.55,501.69C387.55,501.06 387.56,500.42 387.56,499.79C387.56,499.15 387.56,498.52 387.56,497.88C387.56,497.24 387.56,496.61 387.56,495.97C387.56,495.34 387.56,494.7 387.56,494.07C387.56,493.43 387.56,492.8 387.56,492.16C387.56,491.52 387.56,490.89 387.56,490.25C387.56,489.61 387.56,488.98 387.56,488.34C387.56,487.71 387.56,487.07 387.56,486.44C387.56,485.8 387.56,485.17 387.56,484.53C387.56,483.89 387.56,483.26 387.56,482.62C387.56,481.99 387.57,481.35 387.57,480.72C387.57,480.08 387.58,479.45 387.58,478.81C387.58,478.17 387.58,477.54 387.58,476.9C387.58,476.26 387.58,475.63 387.58,474.99C387.58,474.36 387.57,473.72 387.57,473.09C387.57,472.45 387.57,471.82 387.57,471.18C387.57,470.54 387.57,469.91 387.57,469.27C387.57,468.63 387.57,468 387.57,467.36C387.57,466.73 387.57,466.09 387.57,465.46C387.57,464.82 387.58,464.19 387.58,463.55C387.58,462.91 387.59,462.28 387.59,461.64C387.59,461.01 387.6,460.37 387.6,459.74C387.6,459.1 387.61,458.47 387.61,457.83C387.61,457.19 387.61,456.56 387.61,455.92C387.61,455.28 387.62,454.65 387.62,454.01C387.62,453.38 387.63,452.74 387.63,452.11C387.63,451.47 387.64,450.84 387.64,450.2C387.64,449.56 387.65,448.93 387.65,448.29C387.65,447.66 387.66,447.02 387.66,446.39C387.66,445.75 387.67,445.12 387.67,444.48C387.67,443.84 387.68,443.21 387.68,442.57C387.68,441.93 387.68,441.3 387.68,440.66C387.68,440.03 387.69,439.39 387.69,438.76C387.69,438.12 387.7,437.49 387.7,436.85C387.7,436.21 387.7,435.58 387.7,434.94C387.7,434.3 387.7,433.67 387.7,433.03C387.7,432.4 387.69,431.76 387.69,431.13C387.69,430.49 387.68,429.86 387.68,429.22C387.68,428.58 387.67,427.95 387.67,427.31C387.67,426.68 387.66,426.04 387.66,425.41C387.66,424.77 387.65,424.14 387.65,423.5C387.65,422.86 387.64,422.23 387.64,421.59C387.64,420.95 387.64,420.32 387.64,419.68C387.64,419.05 387.63,418.41 387.63,417.78C387.63,417.14 387.63,416.51 387.63,415.87C387.63,415.23 387.63,414.6 387.63,413.96C387.63,413.33 387.63,412.69 387.63,412.06C387.63,411.42 387.64,410.79 387.64,410.15C387.64,409.51 387.64,408.88 387.64,408.24C387.64,407.6 387.65,406.97 387.65,406.33C387.65,405.7 387.65,405.06 387.65,404.43C387.65,403.79 387.65,403.16 387.65,402.52C387.65,401.88 387.66,401.25 387.66,400.61C387.66,399.97 387.66,399.34 387.66,398.7C387.66,398.07 387.66,397.43 387.66,396.8C387.66,396.16 387.66,395.53 387.66,394.89C387.66,394.25 387.66,393.62 387.66,392.98C387.66,392.35 387.66,391.71 387.66,391.08C387.66,390.44 387.67,389.81 387.67,389.17C387.67,388.53 387.67,387.9 387.67,387.26C387.67,386.62 387.68,385.99 387.68,385.35C387.68,384.72 387.69,384.08 387.69,383.45C387.69,382.81 387.7,382.18 387.7,381.54C387.7,380.9 387.71,380.27 387.71,379.63C387.71,379 387.72,378.36 387.72,377.73C387.72,377.09 387.73,376.46 387.73,375.82C387.73,375.18 387.74,374.55 387.74,373.91C387.74,373.27 387.75,372.64 387.75,372C387.75,371.37 387.75,370.73 387.75,370.1C387.75,369.46 387.75,368.83 387.75,368.19C387.75,367.55 387.75,366.92 387.75,366.28C387.75,365.64 387.75,365.01 387.75,364.37C387.75,363.74 387.76,363.1 387.76,362.47C387.76,361.83 387.76,361.2 387.76,360.56C387.76,359.92 387.76,359.29 387.76,358.65C387.76,358.02 387.77,357.38 387.77,356.75C387.77,356.11 387.77,355.48 387.77,354.84C387.77,354.2 387.78,353.57 387.78,352.93C387.78,352.29 387.79,351.66 387.79,351.02C387.79,350.39 387.8,349.75 387.8,349.12C387.8,348.48 387.81,347.85 387.81,347.21C387.81,346.57 387.82,345.94 387.82,345.3C387.82,344.67 387.83,344.03 387.83,343.4C387.83,342.76 387.84,342.13 387.84,341.49C387.84,340.85 387.85,340.22 387.85,339.58C387.85,338.94 387.85,338.31 387.85,337.67C387.85,337.04 387.86,336.4 387.86,335.77C387.86,335.13 387.87,334.5 387.87,333.86C387.87,333.22 387.88,332.59 387.88,331.95C387.89,331.31 387.89,330.68 387.9,330.04C387.9,329.41 387.91,328.77 387.91,328.14C387.91,327.5 387.92,326.87 387.92,326.23C387.93,325.59 387.93,324.96 387.94,324.32C387.94,323.69 387.95,323.05 387.95,322.42C387.95,321.78 387.96,321.15 387.96,320.51C387.96,319.87 387.97,319.24 387.97,318.6C387.97,317.96 387.98,317.33 387.98,316.69C387.98,316.06 387.99,315.42 387.99,314.79C388,314.15 388,313.52 388.01,312.88C388.02,312.24 388.02,311.61 388.03,310.97C388.04,310.34 388.04,309.7 388.05,309.07C388.06,308.43 388.06,307.8 388.07,307.16C388.08,306.52 388.09,305.89 388.1,305.25C388.11,304.61 388.12,303.98 388.13,303.34C388.14,302.71 388.15,302.07 388.15,301.44C388.16,300.8 388.16,300.17 388.16,299.53C388.16,298.89 388.16,298.26 388.16,297.62C388.16,296.98 388.16,296.35 388.16,295.71C388.16,295.08 388.14,294.44 388.14,293.81C388.13,293.17 388.13,292.54 388.13,291.9C388.13,291.26 388.13,290.63 388.13,289.99C388.13,289.36 388.13,288.72 388.13,288.09C388.13,287.45 388.14,286.82 388.14,286.18C388.15,285.54 388.15,284.91 388.16,284.27C388.17,283.63 388.18,283 388.19,282.36C388.2,281.73 388.22,281.09 388.23,280.46C388.24,279.82 388.26,279.19 388.27,278.55C388.29,277.91 388.31,277.28 388.32,276.64C388.33,276.01 388.34,275.37 388.35,274.74C388.36,274.1 388.37,273.47 388.38,272.83C388.39,272.19 388.39,271.56 388.39,270.92C388.39,270.28 388.39,269.65 388.39,269.01C388.39,268.38 388.38,267.74 388.38,267.11C388.38,266.47 388.37,265.84 388.37,265.2C388.37,264.56 388.36,263.93 388.36,263.29C388.36,262.65 388.36,262.02 388.37,261.38C388.37,260.75 388.38,260.11 388.39,259.48C388.4,258.84 388.41,258.21 388.43,257.57C388.45,256.93 388.47,256.3 388.49,255.66C388.51,255.03 388.52,254.39 388.54,253.76C388.56,253.12 388.58,252.49 388.6,251.85C388.62,251.21 388.63,250.58 388.64,249.94C388.65,249.3 388.66,248.67 388.67,248.03C388.68,247.4 388.68,246.76 388.68,246.13C388.68,245.49 388.69,244.86 388.69,244.22C388.69,243.58 388.7,242.95 388.7,242.31C388.7,241.68 388.7,241.04 388.7,240.41C388.7,239.77 388.69,239.14 388.69,238.5C388.69,237.86 388.69,237.23 388.69,236.59C388.69,235.95 388.68,235.32 388.68,234.68C388.68,234.05 388.68,233.41 388.68,232.78C388.68,232.14 388.68,231.51 388.68,230.87C388.68,230.23 388.69,229.6 388.69,228.96C388.69,228.32 388.69,227.69 388.7,227.05C388.71,226.42 388.72,225.78 388.73,225.15C388.74,224.51 388.75,223.88 388.76,223.24C388.77,222.6 388.79,221.97 388.81,221.33C388.82,220.7 388.84,220.06 388.85,219.43C388.87,218.79 388.88,218.16 388.9,217.52C388.92,216.88 388.93,216.25 388.95,215.61C388.96,214.97 388.98,214.34 388.99,213.7C389,213.07 389.02,212.43 389.03,211.8C389.04,211.16 389.04,210.53 389.05,209.89C389.06,209.25 389.06,208.62 389.07,207.98C389.08,207.35 389.09,206.71 389.09,206.08C389.1,205.44 389.1,204.81 389.1,204.17C389.1,203.53 389.1,202.9 389.1,202.26C389.1,201.62 389.1,200.99 389.1,200.35C389.1,199.72 389.1,199.08 389.1,198.45C389.1,197.81 389.1,197.18 389.1,196.54C389.1,195.9 389.11,195.27 389.11,194.63C389.12,193.99 389.12,193.36 389.13,192.72C389.14,192.09 389.15,191.45 389.15,190.82C389.16,190.18 389.16,189.55 389.16,188.91C389.16,188.27 389.17,187.64 389.17,187C389.17,186.37 389.17,185.73 389.17,185.1C389.17,184.46 389.18,183.83 389.18,183.19C389.18,182.55 389.19,181.92 389.19,181.28C389.2,180.64 389.2,180.01 389.21,179.37C389.22,178.74 389.23,178.1 389.24,177.47C389.25,176.83 389.26,176.2 389.27,175.56C389.28,174.92 389.3,174.29 389.31,173.65C389.32,173.02 389.33,172.38 389.34,171.75C389.35,171.11 389.36,170.48 389.37,169.84C389.38,169.2 389.4,168.57 389.41,167.93C389.42,167.29 389.43,166.66 389.44,166.02C389.45,165.39 389.46,164.75 389.47,164.12C389.48,163.48 389.48,162.85 389.49,162.21C389.49,161.57 389.5,160.94 389.5,160.3C389.5,159.66 389.5,159.03 389.5,158.39C389.5,157.76 389.49,157.12 389.48,156.49C389.47,155.85 389.46,155.22 389.45,154.58C389.44,153.94 389.43,153.31 389.42,152.67C389.41,152.04 389.39,151.4 389.38,150.77C389.37,150.13 389.35,149.5 389.34,148.86C389.33,148.22 389.32,147.59 389.31,146.95C389.3,146.31 389.3,145.68 389.29,145.04C389.29,144.41 389.28,143.77 389.28,143.14C389.28,142.5 389.27,141.87 389.27,141.23C389.27,140.59 389.28,139.96 389.28,139.32C389.28,138.69 389.28,138.05 389.28,137.42C389.28,136.78 389.28,136.15 389.28,135.51C389.28,134.87 389.27,134.24 389.27,133.6C389.26,132.96 389.26,132.33 389.25,131.69C389.24,131.06 389.23,130.42 389.22,129.79C389.21,129.15 389.2,128.52 389.19,127.88C389.18,127.24 389.17,126.61 389.17,125.97C389.17,125.33 389.17,124.7 389.18,124.06C389.18,123.43 389.19,122.79 389.2,122.16C389.21,121.52 389.23,120.89 389.25,120.25C389.27,119.61 389.29,118.98 389.31,118.34C389.33,117.71 389.36,117.07 389.38,116.44C389.4,115.8 389.41,115.17 389.42,114.53C389.43,113.89 389.44,113.26 389.45,112.62C389.46,111.98 389.46,111.35 389.46,110.71C389.46,110.08 389.45,109.44 389.44,108.81C389.43,108.17 389.41,107.54 389.4,106.9C389.38,106.26 389.37,105.63 389.35,104.99C389.33,104.36 389.31,103.72 389.29,103.09C389.27,102.45 389.26,101.82 389.25,101.18C389.23,100.54 389.21,99.91 389.2,99.27C389.19,98.63 389.18,98 389.17,97.36C389.16,96.73 389.15,96.09 389.14,95.46C389.13,94.82 389.12,94.19 389.11,93.55C389.1,92.91 389.09,92.28 389.08,91.64C389.07,91 389.05,90.37 389.04,89.73C389.03,89.1 389.03,88.46 389.02,87.83C389.01,87.19 389,86.56 389,85.92C389,85.28 389,84.65 389,84.01C389,83.38 389.01,82.74 389.02,82.11C389.03,81.47 389.05,80.84 389.06,80.2C389.08,79.56 389.09,78.93 389.11,78.29C389.13,77.65 389.14,77.02 389.16,76.38C389.17,75.75 389.19,75.11 389.2,74.48C389.21,73.84 389.21,73.21 389.22,72.57C389.22,71.93 389.23,71.3 389.23,70.66C389.23,70.03 389.23,69.39 389.23,68.76C389.23,68.12 389.24,67.49 389.25,66.85C389.26,66.21 389.28,65.58 389.3,64.94C389.32,64.3 389.35,63.67 389.38,63.03C389.41,62.4 389.45,61.76 389.49,61.13C389.53,60.49 389.58,59.86 389.62,59.22C389.66,58.58 389.7,57.95 389.75,57.31C389.8,56.67 389.84,56.04 389.91,55.4C389.97,54.77 390.04,54.13 390.14,53.5C390.24,52.86 390.34,52.22 390.49,51.59C390.64,50.95 390.82,50.31 391.05,49.68C391.29,49.04 391.56,48.4 391.91,47.78C392.28,47.13 392.7,46.48 393.22,45.87C393.79,45.2 394.44,44.56 395.23,43.96C396.14,43.27 397.21,42.64 398.42,42.05C399.87,41.35 401.57,40.74 403.42,40.15C405.65,39.45 408.21,38.84 410.91,38.24C414.03,37.55 417.53,36.94 421.06,36.33C424.89,35.67 429.08,35.07 433.06,34.43C437,33.8 441.21,33.21 444.8,32.52C447.87,31.93 451.33,31.5 453.31,30.61Q454.52,30.07 455.97,28.7L387.5,28.7" style="vector-effect: non-scaling-stroke; stroke-width: 2px; stroke: rgb(0, 128, 0); stroke-opacity: 1; fill: rgb(0, 128, 0); fill-opacity: 0.5;"/><path class="meanline" d="M389.2117614746094,73.32H387.5" style="fill: none; vector-effect: non-scaling-stroke; stroke-width: 3px; stroke-dasharray: 6px, 3px; stroke: rgb(255, 255, 255); stroke-opacity: 1;"/></g><g class="trace violins" style="opacity: 1;"><path class="violin" d="M542.5,28.7L486.37,28.7Q480.96,33.6 479,36.26C477.23,38.66 475.74,41.21 474.92,43.81C474.15,46.25 473.92,48.85 474.03,51.36C474.14,53.89 474.84,56.44 475.61,58.92C476.4,61.48 477.58,63.98 478.74,66.47C479.92,69.01 481.31,71.52 482.64,74.03C483.98,76.56 485.4,79.06 486.76,81.58C488.11,84.09 489.48,86.6 490.78,89.13C492.07,91.64 493.33,94.16 494.53,96.69C495.72,99.2 496.87,101.71 497.96,104.24C499.04,106.75 500.06,109.26 501.05,111.79C502.03,114.3 502.96,116.82 503.86,119.35C504.75,121.86 505.6,124.38 506.43,126.9C507.25,129.41 508.04,131.93 508.81,134.45C509.58,136.97 510.32,139.49 511.05,142.01C511.78,144.53 512.5,147.04 513.21,149.56C513.92,152.08 514.61,154.6 515.31,157.12C516.01,159.64 516.72,162.15 517.42,164.67C518.12,167.19 518.83,169.7 519.52,172.22C520.21,174.74 520.91,177.26 521.57,179.78C522.23,182.29 522.87,184.81 523.46,187.33C524.05,189.84 524.61,192.36 525.09,194.88C525.57,197.39 525.99,199.92 526.36,202.44C526.72,204.95 527.02,207.47 527.28,209.99C527.53,212.5 527.72,215.02 527.89,217.54C528.06,220.06 528.18,222.58 528.31,225.1C528.44,227.62 528.54,230.13 528.67,232.65C528.8,235.17 528.92,237.68 529.08,240.2C529.24,242.72 529.41,245.24 529.61,247.76C529.81,250.28 530.03,252.79 530.27,255.31C530.51,257.83 530.76,260.35 531.03,262.87C531.3,265.39 531.59,267.9 531.87,270.42C532.16,272.94 532.45,275.45 532.74,277.97C533.03,280.49 533.33,283.01 533.62,285.53C533.91,288.05 534.21,290.56 534.5,293.08C534.79,295.6 535.08,298.11 535.34,300.63C535.61,303.15 535.86,305.67 536.09,308.19C536.32,310.71 536.54,313.22 536.74,315.74C536.94,318.26 537.12,320.77 537.28,323.29C537.44,325.81 537.58,328.33 537.72,330.85C537.85,333.37 537.97,335.88 538.09,338.4C538.21,340.92 538.31,343.44 538.42,345.96C538.52,348.48 538.63,350.99 538.72,353.51C538.81,356.03 538.9,358.54 538.98,361.06C539.06,363.58 539.13,366.1 539.18,368.62C539.23,371.14 539.27,373.65 539.29,376.17C539.31,378.69 539.31,381.2 539.3,383.72C539.29,386.24 539.25,388.76 539.2,391.28C539.16,393.8 539.09,396.31 539.03,398.83C538.97,401.35 538.9,403.86 538.84,406.38C538.78,408.9 538.73,411.42 538.69,413.94C538.66,416.46 538.63,418.97 538.63,421.49C538.63,424.01 538.65,426.52 538.68,429.04C538.71,431.56 538.77,434.08 538.83,436.6C538.89,439.12 538.97,441.63 539.05,444.15C539.13,446.67 539.21,449.19 539.29,451.71C539.37,454.23 539.45,456.74 539.52,459.26C539.59,461.78 539.65,464.29 539.71,466.81C539.77,469.33 539.81,471.85 539.86,474.37C539.9,476.89 539.94,479.4 539.98,481.92C540.02,484.44 540.06,486.95 540.1,489.47C540.14,491.99 540.18,494.51 540.22,497.03C540.26,499.55 540.31,502.06 540.35,504.58C540.4,507.1 540.45,509.61 540.49,512.13C540.54,514.65 540.58,517.17 540.62,519.69C540.66,522.21 540.69,524.72 540.72,527.24C540.75,529.76 540.77,532.28 540.78,534.8C540.79,537.32 540.79,539.83 540.78,542.35C540.77,544.87 540.76,547.38 540.73,549.9C540.7,552.42 540.66,554.94 540.6,557.46C540.54,559.98 540.46,562.49 540.37,565.01C540.28,567.53 540.18,570.04 540.06,572.56C539.94,575.08 539.8,577.6 539.67,580.12C539.54,582.64 539.4,585.15 539.3,587.67C539.2,590.19 539.11,592.7 539.07,595.22Q539.03,597.74 539.07,602.78L542.5,602.78" style="vector-effect: non-scaling-stroke; stroke-width: 2px; stroke: rgb(0, 0, 255); stroke-opacity: 1; fill: rgb(0, 0, 255); fill-opacity: 0.5;"/><path class="meanline" d="M509.5284729003906,136.83H542.5" style="fill: none; vector-effect: non-scaling-stroke; stroke-width: 3px; stroke-dasharray: 6px, 3px; stroke: rgb(255, 255, 255); stroke-opacity: 1;"/></g><g class="trace violins" style="opacity: 1;"><path class="violin" d="M542.5,602.78L543.71,602.78Q543.69,599.95 543.65,598.53C543.61,597.11 543.55,595.69 543.49,594.27C543.43,592.85 543.34,591.44 543.27,590.02C543.2,588.6 543.12,587.19 543.06,585.77C543,584.35 542.95,582.94 542.91,581.52C542.87,580.1 542.84,578.68 542.82,577.26C542.8,575.84 542.79,574.43 542.79,573.01C542.79,571.59 542.79,570.18 542.79,568.76C542.79,567.34 542.8,565.93 542.81,564.51C542.82,563.09 542.82,561.67 542.83,560.25C542.83,558.83 542.84,557.42 542.84,556C542.84,554.58 542.85,553.17 542.85,551.75C542.85,550.33 542.85,548.92 542.85,547.5C542.85,546.08 542.86,544.66 542.87,543.24C542.88,541.82 542.88,540.41 542.89,538.99C542.9,537.57 542.9,536.16 542.91,534.74C542.91,533.32 542.92,531.91 542.92,530.49C542.93,529.07 542.93,527.65 542.94,526.23C542.95,524.81 542.95,523.4 542.96,521.98C542.97,520.56 542.97,519.15 542.98,517.73C542.99,516.31 543,514.9 543.02,513.48C543.04,512.06 543.06,510.64 543.08,509.22C543.1,507.8 543.13,506.39 543.16,504.97C543.19,503.55 543.21,502.14 543.24,500.72C543.27,499.3 543.3,497.89 543.33,496.47C543.36,495.05 543.39,493.64 543.42,492.22C543.45,490.8 543.47,489.38 543.49,487.96C543.51,486.54 543.53,485.13 543.55,483.71C543.57,482.29 543.58,480.88 543.6,479.46C543.62,478.04 543.63,476.63 543.65,475.21C543.67,473.79 543.69,472.37 543.71,470.95C543.73,469.53 543.76,468.12 543.79,466.7C543.82,465.28 543.84,463.87 543.87,462.45C543.89,461.03 543.92,459.62 543.94,458.2C543.96,456.78 543.99,455.36 544.01,453.94C544.03,452.52 544.05,451.11 544.07,449.69C544.09,448.27 544.1,446.86 544.12,445.44C544.14,444.02 544.16,442.61 544.17,441.19C544.19,439.77 544.2,438.35 544.21,436.93C544.22,435.51 544.23,434.1 544.24,432.68C544.25,431.26 544.25,429.85 544.26,428.43C544.26,427.01 544.27,425.6 544.27,424.18C544.27,422.76 544.26,421.34 544.26,419.92C544.26,418.5 544.25,417.09 544.25,415.67C544.25,414.25 544.24,412.84 544.24,411.42C544.24,410 544.23,408.59 544.23,407.17C544.23,405.75 544.23,404.33 544.23,402.91C544.23,401.49 544.23,400.08 544.23,398.66C544.23,397.24 544.24,395.83 544.25,394.41C544.26,392.99 544.27,391.58 544.29,390.16C544.31,388.74 544.33,387.33 544.35,385.91C544.38,384.49 544.41,383.07 544.44,381.65C544.47,380.23 544.5,378.82 544.54,377.4C544.58,375.98 544.63,374.57 544.67,373.15C544.71,371.73 544.76,370.32 544.8,368.9C544.85,367.48 544.89,366.06 544.94,364.64C544.98,363.22 545.03,361.81 545.07,360.39C545.12,358.97 545.16,357.56 545.21,356.14C545.25,354.72 545.29,353.31 545.34,351.89C545.39,350.47 545.44,349.05 545.49,347.63C545.54,346.21 545.6,344.8 545.65,343.38C545.7,341.96 545.76,340.55 545.81,339.13C545.87,337.71 545.92,336.3 545.98,334.88C546.04,333.46 546.09,332.04 546.15,330.62C546.21,329.2 546.26,327.79 546.32,326.37C546.37,324.95 546.43,323.54 546.48,322.12C546.53,320.7 546.59,319.29 546.64,317.87C546.69,316.45 546.74,315.03 546.8,313.61C546.85,312.19 546.91,310.78 546.97,309.36C547.03,307.94 547.09,306.53 547.15,305.11C547.21,303.69 547.28,302.28 547.35,300.86C547.42,299.44 547.49,298.02 547.56,296.6C547.63,295.18 547.71,293.77 547.78,292.35C547.85,290.93 547.92,289.52 548,288.1C548.08,286.68 548.16,285.27 548.24,283.85C548.33,282.43 548.42,281.02 548.51,279.6C548.6,278.18 548.7,276.76 548.8,275.34C548.9,273.92 549.01,272.51 549.12,271.09C549.23,269.67 549.35,268.26 549.47,266.84C549.58,265.42 549.7,264.01 549.81,262.59C549.92,261.17 550.03,259.75 550.13,258.33C550.23,256.91 550.31,255.5 550.39,254.08C550.47,252.66 550.54,251.25 550.6,249.83C550.66,248.41 550.71,247 550.76,245.58C550.81,244.16 550.86,242.74 550.91,241.32C550.96,239.9 551,238.49 551.05,237.07C551.1,235.65 551.17,234.24 551.23,232.82C551.29,231.4 551.36,229.99 551.42,228.57C551.49,227.15 551.56,225.73 551.62,224.31C551.68,222.89 551.74,221.48 551.8,220.06C551.86,218.64 551.91,217.23 551.96,215.81C552.01,214.39 552.05,212.98 552.1,211.56C552.15,210.14 552.19,208.72 552.24,207.3C552.29,205.88 552.33,204.47 552.39,203.05C552.45,201.63 552.52,200.22 552.6,198.8C552.68,197.38 552.77,195.97 552.87,194.55C552.97,193.13 553.08,191.71 553.21,190.29C553.33,188.87 553.48,187.46 553.62,186.04C553.76,184.62 553.91,183.21 554.06,181.79C554.21,180.37 554.37,178.96 554.53,177.54C554.69,176.12 554.85,174.71 555.02,173.29C555.19,171.87 555.36,170.45 555.53,169.03C555.7,167.61 555.88,166.2 556.06,164.78C556.24,163.36 556.43,161.95 556.62,160.53C556.81,159.11 557.01,157.7 557.21,156.28C557.41,154.86 557.61,153.44 557.83,152.02C558.05,150.6 558.27,149.19 558.51,147.77C558.75,146.35 558.99,144.94 559.26,143.52C559.53,142.1 559.81,140.69 560.11,139.27C560.41,137.85 560.74,136.43 561.07,135.01C561.4,133.59 561.76,132.18 562.1,130.76C562.45,129.34 562.8,127.93 563.14,126.51C563.48,125.09 563.81,123.68 564.12,122.26C564.43,120.84 564.71,119.42 564.98,118C565.24,116.58 565.49,115.17 565.71,113.75C565.93,112.33 566.12,110.92 566.31,109.5C566.5,108.08 566.67,106.67 566.85,105.25C567.04,103.83 567.21,102.41 567.42,100.99C567.63,99.57 567.85,98.15 568.12,96.74C568.39,95.32 568.68,93.9 569.04,92.49C569.4,91.07 569.81,89.65 570.28,88.24C570.76,86.81 571.29,85.39 571.89,83.98C572.5,82.55 573.19,81.13 573.94,79.73C574.71,78.3 575.55,76.88 576.48,75.48C577.44,74.04 578.48,72.62 579.6,71.23C580.77,69.79 582.03,68.37 583.38,66.98C584.78,65.53 586.3,64.11 587.87,62.72C589.5,61.28 591.24,59.87 592.98,58.47C594.76,57.04 596.64,55.64 598.45,54.22C600.25,52.81 602.13,51.43 603.81,49.97C605.4,48.59 607.06,47.21 608.29,45.71C609.4,44.36 610.56,42.94 610.97,41.46C611.35,40.1 611.38,38.55 610.89,37.21C610.33,35.69 608.89,34.26 607.38,32.96Q605.54,31.37 600.35,28.7L542.5,28.7" style="vector-effect: non-scaling-stroke; stroke-width: 2px; stroke: rgb(0, 128, 0); stroke-opacity: 1; fill: rgb(0, 128, 0); fill-opacity: 0.5;"/><path class="meanline" d="M564.6146850585938,119.88H542.5" style="fill: none; vector-effect: non-scaling-stroke; stroke-width: 3px; stroke-dasharray: 6px, 3px; stroke: rgb(255, 255, 255); stroke-opacity: 1;"/></g><g class="trace violins" style="opacity: 1;"><path class="violin" d="M697.5,28.7L673.04,28.7Q668.87,36.04 666.95,39.74C665.05,43.4 663.19,47.06 661.58,50.78C660,54.43 658.57,58.11 657.35,61.82C656.14,65.47 655.17,69.17 654.27,72.86C653.37,76.53 652.71,80.22 651.94,83.9C651.18,87.58 650.52,91.27 649.68,94.94C648.83,98.63 647.94,102.32 646.86,105.98C645.77,109.68 644.51,113.36 643.18,117.02C641.84,120.72 640.28,124.38 638.83,128.06C637.38,131.74 635.78,135.4 634.46,139.1C633.16,142.76 631.86,146.43 630.95,150.14C630.06,153.79 629.34,157.49 629.03,161.18C628.72,164.85 628.75,168.55 629.06,172.22C629.37,175.91 630.08,179.6 630.91,183.26C631.75,186.96 632.93,190.63 634.08,194.3C635.24,197.99 636.61,201.66 637.87,205.34C639.13,209.02 640.45,212.69 641.64,216.38C642.82,220.05 643.97,223.73 644.98,227.42C645.99,231.09 646.89,234.77 647.7,238.46C648.51,242.13 649.2,245.81 649.85,249.5C650.5,253.17 651.05,256.86 651.61,260.54C652.17,264.22 652.68,267.9 653.22,271.58C653.77,275.26 654.29,278.94 654.88,282.62C655.47,286.3 656.08,289.98 656.75,293.66C657.42,297.34 658.14,301.03 658.91,304.7C659.68,308.39 660.52,312.06 661.38,315.74C662.25,319.42 663.17,323.1 664.1,326.78C665.04,330.46 666.02,334.14 666.99,337.82C667.96,341.5 668.96,345.18 669.9,348.86C670.84,352.54 671.79,356.21 672.64,359.9C673.49,363.57 674.31,367.25 675,370.94C675.69,374.61 676.31,378.29 676.8,381.98C677.29,385.65 677.65,389.34 677.92,393.02C678.19,396.7 678.33,400.38 678.42,404.06C678.51,407.74 678.47,411.42 678.45,415.1C678.43,418.78 678.34,422.46 678.31,426.14C678.28,429.82 678.22,433.5 678.26,437.18C678.3,440.86 678.37,444.54 678.53,448.22C678.69,451.9 678.93,455.58 679.22,459.26C679.51,462.94 679.89,466.62 680.29,470.3C680.69,473.98 681.17,477.66 681.63,481.34C682.09,485.02 682.59,488.7 683.07,492.38C683.55,496.06 684.05,499.74 684.5,503.42C684.95,507.1 685.39,510.78 685.79,514.46C686.19,518.14 686.57,521.82 686.9,525.5C687.22,529.18 687.51,532.86 687.74,536.54C687.97,540.22 688.15,543.9 688.27,547.58C688.39,551.26 688.44,554.94 688.45,558.62C688.46,562.3 688.4,565.98 688.35,569.66C688.3,573.34 688.19,577.02 688.15,580.7C688.11,584.38 688.06,588.06 688.13,591.74Q688.2,595.42 688.56,602.78L697.5,602.78" style="vector-effect: non-scaling-stroke; stroke-width: 2px; stroke: rgb(0, 0, 255); stroke-opacity: 1; fill: rgb(0, 0, 255); fill-opacity: 0.5;"/><path class="meanline" d="M647.56494140625,237.85H697.5" style="fill: none; vector-effect: non-scaling-stroke; stroke-width: 3px; stroke-dasharray: 6px, 3px; stroke: rgb(255, 255, 255); stroke-opacity: 1;"/></g><g class="trace violins" style="opacity: 1;"><path class="violin" d="M697.5,602.78L700.82,602.78Q700.82,598.66 700.76,596.6C700.7,594.54 700.57,592.49 700.45,590.43C700.32,588.37 700.15,586.32 700.01,584.26C699.87,582.2 699.71,580.15 699.59,578.09C699.47,576.03 699.36,573.97 699.28,571.91C699.2,569.85 699.16,567.8 699.13,565.74C699.1,563.68 699.11,561.63 699.12,559.57C699.13,557.51 699.17,555.46 699.22,553.4C699.27,551.34 699.34,549.28 699.42,547.22C699.5,545.16 699.59,543.11 699.71,541.05C699.83,538.99 699.96,536.94 700.13,534.88C700.3,532.82 700.49,530.76 700.72,528.7C700.95,526.64 701.22,524.58 701.53,522.53C701.84,520.47 702.2,518.41 702.6,516.36C703,514.3 703.45,512.24 703.93,510.19C704.41,508.13 704.95,506.07 705.5,504.01C706.06,501.95 706.65,499.89 707.26,497.84C707.87,495.78 708.51,493.73 709.14,491.67C709.77,489.61 710.42,487.55 711.03,485.49C711.64,483.43 712.27,481.38 712.82,479.32C713.37,477.27 713.9,475.21 714.35,473.15C714.79,471.1 715.19,469.04 715.49,466.98C715.78,464.93 716,462.86 716.12,460.8C716.24,458.75 716.27,456.69 716.23,454.63C716.19,452.57 716.05,450.52 715.88,448.46C715.71,446.4 715.46,444.34 715.21,442.28C714.96,440.22 714.66,438.17 714.37,436.11C714.08,434.05 713.77,432 713.48,429.94C713.2,427.88 712.91,425.83 712.66,423.77C712.41,421.71 712.17,419.65 711.97,417.59C711.78,415.53 711.6,413.48 711.49,411.42C711.38,409.36 711.31,407.31 711.29,405.25C711.27,403.19 711.31,401.13 711.4,399.07C711.49,397.01 711.65,394.95 711.86,392.9C712.07,390.84 712.35,388.78 712.67,386.73C712.99,384.67 713.37,382.61 713.79,380.56C714.21,378.5 714.7,376.43 715.21,374.38C715.73,372.32 716.29,370.26 716.88,368.21C717.47,366.15 718.1,364.09 718.75,362.04C719.4,359.98 720.09,357.92 720.78,355.86C721.47,353.8 722.18,351.74 722.9,349.69C723.62,347.63 724.36,345.58 725.09,343.52C725.82,341.46 726.56,339.41 727.28,337.35C728,335.29 728.73,333.23 729.41,331.17C730.09,329.12 730.76,327.06 731.38,325C731.99,322.95 732.58,320.89 733.1,318.83C733.61,316.78 734.09,314.72 734.48,312.65C734.87,310.6 735.18,308.54 735.43,306.48C735.67,304.43 735.84,302.37 735.95,300.31C736.06,298.25 736.1,296.2 736.11,294.14C736.12,292.08 736.07,290.02 736.01,287.96C735.96,285.9 735.85,283.85 735.78,281.79C735.71,279.73 735.63,277.68 735.58,275.62C735.53,273.56 735.49,271.5 735.5,269.44C735.51,267.38 735.54,265.33 735.62,263.27C735.7,261.21 735.82,259.15 735.99,257.1C736.16,255.04 736.37,252.98 736.63,250.93C736.89,248.87 737.2,246.8 737.57,244.75C737.94,242.69 738.37,240.63 738.85,238.58C739.33,236.52 739.87,234.46 740.44,232.41C741.02,230.35 741.64,228.28 742.3,226.23C742.96,224.17 743.66,222.11 744.38,220.06C745.1,218 745.86,215.94 746.64,213.89C747.43,211.83 748.25,209.77 749.1,207.72C749.96,205.65 750.85,203.59 751.79,201.54C752.74,199.47 753.74,197.42 754.77,195.37C755.81,193.31 756.91,191.26 757.98,189.2C759.05,187.14 760.19,185.09 761.18,183.02C762.16,180.98 763.15,178.93 763.9,176.85C764.63,174.82 765.29,172.76 765.63,170.68C765.97,168.64 766.09,166.56 765.97,164.51C765.85,162.44 765.42,160.37 764.89,158.33C764.35,156.25 763.53,154.21 762.76,152.16C761.98,150.09 761.04,148.05 760.24,145.99C759.44,143.94 758.63,141.88 757.97,139.81C757.32,137.77 756.77,135.71 756.32,133.64C755.88,131.59 755.57,129.53 755.29,127.47C755.01,125.42 754.84,123.36 754.62,121.3C754.4,119.24 754.22,117.18 753.98,115.12C753.74,113.06 753.47,111.01 753.2,108.95C752.92,106.89 752.6,104.84 752.33,102.78C752.06,100.72 751.78,98.66 751.58,96.6C751.38,94.55 751.23,92.49 751.15,90.43C751.07,88.37 751.08,86.32 751.1,84.26C751.12,82.2 751.25,80.15 751.29,78.09C751.33,76.03 751.42,73.97 751.34,71.91C751.26,69.85 751.13,67.78 750.79,65.74C750.45,63.67 749.96,61.6 749.28,59.57C748.58,57.48 747.67,55.42 746.62,53.4C745.53,51.3 744.23,49.24 742.83,47.22C741.38,45.12 739.75,43.08 738.06,41.05C736.32,38.96 734.43,36.92 732.52,34.88Q730.57,32.8 726.46,28.7L697.5,28.7" style="vector-effect: non-scaling-stroke; stroke-width: 2px; stroke: rgb(0, 128, 0); stroke-opacity: 1; fill: rgb(0, 128, 0); fill-opacity: 0.5;"/><path class="meanline" d="M747.0458374023438,212.84H697.5" style="fill: none; vector-effect: non-scaling-stroke; stroke-width: 3px; stroke-dasharray: 6px, 3px; stroke: rgb(255, 255, 255); stroke-opacity: 1;"/></g><g class="trace violins" style="opacity: 1;"><path class="violin" d="M852.5,28.7L808.54,28.7Q803.52,37.33 801.53,41.75C799.6,46.03 797.98,50.4 796.71,54.8C795.47,59.11 794.65,63.48 793.94,67.85C793.23,72.18 792.88,76.54 792.44,80.89C792,85.24 791.74,89.59 791.31,93.94C790.88,98.29 790.43,102.65 789.87,106.99C789.31,111.34 788.62,115.68 787.97,120.03C787.32,124.38 786.55,128.72 785.97,133.08C785.39,137.42 784.79,141.77 784.47,146.13C784.15,150.47 783.96,154.83 784.03,159.18C784.1,163.53 784.41,167.88 784.87,172.22C785.33,176.58 786.07,180.93 786.81,185.27C787.55,189.63 788.49,193.97 789.33,198.32C790.17,202.67 791.09,207.01 791.85,211.36C792.6,215.7 793.31,220.05 793.86,224.41C794.41,228.75 794.83,233.11 795.13,237.46C795.43,241.81 795.58,246.16 795.68,250.51C795.78,254.86 795.73,259.2 795.71,263.55C795.69,267.9 795.58,272.25 795.57,276.6C795.56,280.95 795.52,285.3 795.65,289.65C795.78,294 795.97,298.35 796.34,302.69C796.71,307.04 797.21,311.4 797.86,315.74C798.51,320.1 799.34,324.45 800.25,328.79C801.17,333.15 802.25,337.5 803.34,341.84C804.43,346.19 805.65,350.53 806.79,354.88C807.93,359.23 809.13,363.57 810.2,367.93C811.27,372.27 812.32,376.62 813.23,380.98C814.14,385.32 814.95,389.66 815.66,394.02C816.37,398.36 816.96,402.72 817.51,407.07C818.06,411.42 818.5,415.77 818.97,420.12C819.44,424.47 819.85,428.81 820.34,433.16C820.84,437.51 821.34,441.86 821.94,446.21C822.54,450.56 823.21,454.92 823.95,459.26C824.69,463.62 825.53,467.97 826.39,472.31C827.25,476.66 828.2,481 829.1,485.35C830,489.7 830.97,494.04 831.81,498.4C832.65,502.74 833.49,507.09 834.16,511.45C834.82,515.79 835.42,520.14 835.81,524.49C836.2,528.83 836.45,533.19 836.51,537.54C836.57,541.89 836.42,546.24 836.18,550.59C835.94,554.94 835.48,559.29 835.07,563.64C834.66,567.99 834.1,572.33 833.74,576.68C833.38,581.03 832.99,585.38 832.92,589.73Q832.85,594.08 833.29,602.78L852.5,602.78" style="vector-effect: non-scaling-stroke; stroke-width: 2px; stroke: rgb(0, 0, 255); stroke-opacity: 1; fill: rgb(0, 0, 255); fill-opacity: 0.5;"/><path class="meanline" d="M795.7310791015625,254.03H852.5" style="fill: none; vector-effect: non-scaling-stroke; stroke-width: 3px; stroke-dasharray: 6px, 3px; stroke: rgb(255, 255, 255); stroke-opacity: 1;"/></g><g class="trace violins" style="opacity: 1;"><path class="violin" d="M852.5,602.78L862.04,602.78Q861.9,597.99 861.63,595.6C861.36,593.2 860.89,590.81 860.42,588.43C859.95,586.03 859.34,583.64 858.82,581.25C858.3,578.86 857.73,576.47 857.28,574.07C856.83,571.68 856.42,569.3 856.12,566.9C855.82,564.51 855.61,562.11 855.48,559.72C855.35,557.33 855.31,554.94 855.32,552.55C855.33,550.16 855.42,547.76 855.53,545.37C855.64,542.98 855.8,540.58 855.98,538.19C856.16,535.8 856.38,533.41 856.63,531.02C856.88,528.63 857.15,526.23 857.47,523.84C857.79,521.45 858.15,519.06 858.57,516.67C858.99,514.27 859.46,511.88 859.99,509.49C860.52,507.09 861.12,504.7 861.75,502.31C862.39,499.91 863.09,497.53 863.81,495.14C864.53,492.74 865.3,490.35 866.05,487.96C866.8,485.57 867.59,483.19 868.31,480.79C869.03,478.4 869.74,476.01 870.37,473.61C871,471.23 871.59,468.84 872.09,466.44C872.59,464.05 873.02,461.66 873.36,459.26C873.7,456.87 873.96,454.48 874.15,452.08C874.34,449.69 874.44,447.3 874.5,444.91C874.56,442.52 874.54,440.12 874.49,437.73C874.44,435.34 874.32,432.95 874.18,430.56C874.04,428.17 873.85,425.77 873.66,423.38C873.47,420.99 873.23,418.59 873.02,416.2C872.81,413.81 872.57,411.42 872.38,409.03C872.19,406.64 872,404.24 871.86,401.85C871.72,399.46 871.6,397.07 871.56,394.68C871.52,392.29 871.52,389.89 871.6,387.5C871.68,385.11 871.82,382.71 872.03,380.32C872.24,377.93 872.53,375.54 872.87,373.15C873.22,370.75 873.64,368.36 874.1,365.97C874.57,363.57 875.09,361.19 875.66,358.8C876.23,356.4 876.86,354.01 877.5,351.62C878.14,349.22 878.83,346.83 879.51,344.44C880.2,342.05 880.92,339.66 881.61,337.27C882.3,334.88 883.01,332.49 883.66,330.09C884.31,327.7 884.96,325.32 885.53,322.92C886.1,320.53 886.62,318.14 887.06,315.74C887.49,313.35 887.87,310.96 888.14,308.56C888.41,306.17 888.6,303.78 888.7,301.39C888.8,299 888.79,296.6 888.73,294.21C888.67,291.82 888.51,289.43 888.32,287.04C888.13,284.65 887.86,282.25 887.59,279.86C887.32,277.47 887,275.08 886.71,272.69C886.42,270.3 886.1,267.91 885.85,265.51C885.6,263.12 885.36,260.72 885.19,258.33C885.02,255.94 884.9,253.55 884.85,251.16C884.8,248.77 884.82,246.37 884.92,243.98C885.02,241.59 885.19,239.2 885.44,236.81C885.69,234.41 886.02,232.02 886.42,229.63C886.82,227.23 887.3,224.83 887.85,222.45C888.41,220.05 889.04,217.66 889.76,215.28C890.49,212.88 891.3,210.48 892.19,208.1C893.09,205.69 894.09,203.31 895.13,200.93C896.19,198.52 897.36,196.14 898.5,193.75C899.65,191.35 900.88,188.97 902.01,186.57C903.13,184.19 904.3,181.81 905.25,179.4C906.19,177.03 907.08,174.64 907.7,172.22C908.3,169.85 908.75,167.45 908.93,165.05C909.11,162.67 909.02,160.25 908.77,157.87C908.51,155.47 907.96,153.07 907.39,150.69C906.81,148.29 906.01,145.91 905.3,143.52C904.58,141.13 903.76,138.74 903.1,136.34C902.45,133.96 901.82,131.57 901.35,129.17C900.89,126.79 900.54,124.39 900.3,121.99C900.06,119.6 899.98,117.2 899.93,114.81C899.88,112.42 899.95,110.03 900.01,107.64C900.07,105.25 900.19,102.85 900.32,100.46C900.45,98.07 900.57,95.68 900.79,93.29C901.01,90.89 901.22,88.49 901.65,86.11C902.08,83.71 902.6,81.3 903.37,78.94C904.16,76.52 905.19,74.11 906.37,71.76C907.6,69.32 909.13,66.95 910.64,64.58C912.17,62.17 914,59.83 915.5,57.41C916.96,55.05 918.61,52.7 919.52,50.23C920.38,47.9 921.12,45.43 920.97,43.06C920.81,40.65 919.87,38.14 918.51,35.88Q916.97,33.31 911.79,28.7L852.5,28.7" style="vector-effect: non-scaling-stroke; stroke-width: 2px; stroke: rgb(0, 128, 0); stroke-opacity: 1; fill: rgb(0, 128, 0); fill-opacity: 0.5;"/><path class="meanline" d="M890.2046508789062,213.85H852.5" style="fill: none; vector-effect: non-scaling-stroke; stroke-width: 3px; stroke-dasharray: 6px, 3px; stroke: rgb(255, 255, 255); stroke-opacity: 1;"/></g><g class="trace violins" style="opacity: 1;"><path class="violin" d="M1007.5,28.7L970.37,28.7Q964.82,36.62 962.35,40.66C959.95,44.6 957.64,48.57 955.73,52.62C953.88,56.55 952.27,60.55 951.01,64.58C949.78,68.52 948.9,72.53 948.22,76.54C947.55,80.51 947.22,84.51 946.93,88.5C946.64,92.48 946.6,96.47 946.46,100.46C946.32,104.45 946.27,108.44 946.07,112.42C945.87,116.41 945.62,120.4 945.24,124.38C944.86,128.37 944.34,132.36 943.8,136.34C943.25,140.33 942.57,144.31 941.97,148.3C941.38,152.29 940.7,156.27 940.23,160.26C939.76,164.24 939.34,168.23 939.14,172.22C938.94,176.2 938.9,180.2 939.03,184.18C939.16,188.17 939.51,192.16 939.93,196.14C940.35,200.13 940.98,204.12 941.54,208.1C942.11,212.09 942.79,216.07 943.32,220.06C943.85,224.04 944.38,228.03 944.71,232.02C945.04,236 945.28,239.99 945.31,243.98C945.34,247.97 945.19,251.96 944.92,255.94C944.65,259.93 944.17,263.92 943.7,267.9C943.23,271.89 942.59,275.87 942.09,279.86C941.59,283.84 941.02,287.83 940.71,291.82C940.4,295.8 940.17,299.8 940.25,303.78C940.33,307.77 940.61,311.77 941.18,315.74C941.75,319.74 942.63,323.74 943.67,327.7C944.73,331.71 946.1,335.7 947.51,339.66C948.94,343.67 950.6,347.64 952.19,351.62C953.78,355.61 955.5,359.58 957.04,363.58C958.57,367.55 960.12,371.53 961.43,375.54C962.73,379.5 963.91,383.49 964.87,387.5C965.82,391.47 966.57,395.46 967.16,399.46C967.75,403.43 968.11,407.43 968.42,411.42C968.73,415.4 968.84,419.39 969.04,423.38C969.23,427.37 969.32,431.36 969.59,435.34C969.86,439.33 970.15,443.32 970.66,447.3C971.18,451.3 971.84,455.29 972.69,459.26C973.55,463.27 974.62,467.25 975.81,471.22C977.01,475.23 978.44,479.21 979.86,483.18C981.29,487.18 982.88,491.15 984.36,495.14C985.84,499.12 987.39,503.1 988.76,507.1C990.12,511.07 991.44,515.05 992.53,519.06C993.61,523.03 994.57,527.02 995.29,531.02C996.01,534.99 996.53,538.99 996.86,542.98C997.19,546.96 997.28,550.95 997.28,554.94C997.28,558.93 997.05,562.92 996.83,566.9C996.61,570.89 996.23,574.87 995.98,578.86C995.73,582.85 995.44,586.83 995.35,590.82Q995.26,594.81 995.44,602.78L1007.5,602.78" style="vector-effect: non-scaling-stroke; stroke-width: 2px; stroke: rgb(0, 0, 255); stroke-opacity: 1; fill: rgb(0, 0, 255); fill-opacity: 0.5;"/><path class="meanline" d="M944.9712524414062,255.16H1007.5" style="fill: none; vector-effect: non-scaling-stroke; stroke-width: 3px; stroke-dasharray: 6px, 3px; stroke: rgb(255, 255, 255); stroke-opacity: 1;"/></g><g class="trace violins" style="opacity: 1;"><path class="violin" d="M1007.5,602.78L1013.92,602.78Q1013.85,598.16 1013.69,595.86C1013.53,593.55 1013.24,591.24 1012.96,588.94C1012.68,586.63 1012.3,584.33 1011.99,582.03C1011.67,579.72 1011.33,577.42 1011.07,575.11C1010.81,572.81 1010.59,570.51 1010.45,568.2C1010.31,565.9 1010.24,563.59 1010.24,561.28C1010.24,558.97 1010.32,556.66 1010.47,554.36C1010.62,552.05 1010.85,549.75 1011.16,547.45C1011.47,545.14 1011.85,542.83 1012.34,540.53C1012.83,538.21 1013.41,535.9 1014.09,533.61C1014.78,531.29 1015.58,528.99 1016.48,526.7C1017.39,524.38 1018.42,522.07 1019.53,519.78C1020.66,517.45 1021.91,515.15 1023.19,512.86C1024.49,510.54 1025.9,508.25 1027.29,505.95C1028.69,503.64 1030.16,501.34 1031.55,499.03C1032.93,496.73 1034.34,494.44 1035.61,492.11C1036.86,489.82 1038.08,487.53 1039.11,485.2C1040.11,482.92 1041.03,480.61 1041.72,478.28C1042.4,476 1042.91,473.68 1043.24,471.36C1043.56,469.07 1043.68,466.75 1043.68,464.45C1043.68,462.14 1043.47,459.83 1043.23,457.53C1042.99,455.22 1042.6,452.91 1042.24,450.61C1041.88,448.3 1041.44,446.01 1041.05,443.7C1040.67,441.4 1040.28,439.09 1039.93,436.78C1039.58,434.48 1039.26,432.17 1038.96,429.86C1038.66,427.56 1038.4,425.26 1038.14,422.95C1037.88,420.65 1037.64,418.34 1037.41,416.03C1037.19,413.72 1036.96,411.42 1036.79,409.11C1036.62,406.81 1036.46,404.51 1036.37,402.2C1036.28,399.9 1036.24,397.59 1036.27,395.28C1036.3,392.97 1036.4,390.66 1036.57,388.36C1036.74,386.05 1036.99,383.75 1037.3,381.45C1037.61,379.14 1038,376.83 1038.44,374.53C1038.88,372.22 1039.39,369.91 1039.94,367.61C1040.49,365.3 1041.11,363 1041.76,360.7C1042.42,358.39 1043.12,356.08 1043.87,353.78C1044.62,351.47 1045.43,349.17 1046.26,346.87C1047.1,344.56 1047.99,342.25 1048.89,339.95C1049.8,337.64 1050.76,335.34 1051.7,333.03C1052.64,330.73 1053.61,328.43 1054.51,326.12C1055.41,323.82 1056.32,321.52 1057.1,319.2C1057.87,316.91 1058.6,314.6 1059.17,312.28C1059.73,309.99 1060.19,307.68 1060.48,305.37C1060.77,303.07 1060.91,300.76 1060.9,298.45C1060.89,296.14 1060.7,293.83 1060.42,291.53C1060.14,289.22 1059.69,286.92 1059.2,284.62C1058.7,282.31 1058.08,280 1057.45,277.7C1056.82,275.39 1056.1,273.08 1055.41,270.78C1054.72,268.47 1053.98,266.18 1053.29,263.87C1052.6,261.57 1051.9,259.26 1051.26,256.95C1050.63,254.65 1050,252.34 1049.48,250.03C1048.96,247.73 1048.47,245.43 1048.12,243.12C1047.77,240.82 1047.47,238.51 1047.36,236.2C1047.25,233.9 1047.23,231.58 1047.43,229.28C1047.64,226.97 1048.01,224.65 1048.6,222.37C1049.21,220.04 1050.04,217.72 1051.05,215.45C1052.1,213.1 1053.41,210.8 1054.81,208.53C1056.26,206.18 1057.97,203.9 1059.65,201.62C1061.37,199.29 1063.27,197.02 1065.02,194.7C1066.75,192.41 1068.57,190.13 1070.09,187.78C1071.55,185.52 1073,183.23 1073.99,180.87C1074.93,178.62 1075.69,176.28 1075.97,173.95C1076.24,171.67 1076.11,169.3 1075.68,167.03C1075.24,164.69 1074.3,162.38 1073.28,160.12C1072.21,157.76 1070.75,155.48 1069.35,153.2C1067.92,150.87 1066.26,148.6 1064.75,146.29C1063.25,143.99 1061.68,141.71 1060.33,139.37C1059.01,137.09 1057.75,134.79 1056.71,132.45C1055.7,130.18 1054.83,127.87 1054.13,125.54C1053.44,123.26 1052.95,120.94 1052.53,118.62C1052.12,116.32 1051.87,114.01 1051.64,111.7C1051.41,109.4 1051.28,107.09 1051.13,104.79C1050.98,102.48 1050.88,100.18 1050.76,97.87C1050.64,95.56 1050.52,93.26 1050.42,90.95C1050.32,88.65 1050.21,86.34 1050.15,84.04C1050.09,81.73 1050.04,79.43 1050.06,77.12C1050.08,74.81 1050.15,72.51 1050.25,70.2C1050.35,67.9 1050.53,65.59 1050.65,63.29C1050.77,60.98 1050.96,58.68 1050.99,56.37C1051.02,54.06 1051.06,51.75 1050.83,49.45C1050.6,47.14 1050.26,44.81 1049.62,42.54C1048.96,40.2 1048.04,37.87 1046.88,35.62Q1045.66,33.25 1042.42,28.7L1007.5,28.7" style="vector-effect: non-scaling-stroke; stroke-width: 2px; stroke: rgb(0, 128, 0); stroke-opacity: 1; fill: rgb(0, 128, 0); fill-opacity: 0.5;"/><path class="meanline" d="M1049.759521484375,251.23H1007.5" style="fill: none; vector-effect: non-scaling-stroke; stroke-width: 3px; stroke-dasharray: 6px, 3px; stroke: rgb(255, 255, 255); stroke-opacity: 1;"/></g><g class="trace violins" style="opacity: 1;"><path class="violin" d="M1162.5,28.7L1096,28.7Q1093.71,41.48 1094.03,47.84C1094.36,54.25 1095.97,60.71 1097.99,66.98C1100.08,73.47 1103.35,79.81 1106.53,86.11C1109.79,92.57 1113.75,98.87 1117.37,105.25C1120.98,111.63 1124.84,117.95 1128.22,124.38C1131.54,130.71 1134.75,137.07 1137.48,143.52C1140.15,149.83 1142.5,156.22 1144.47,162.65C1146.41,168.98 1147.94,175.38 1149.23,181.79C1150.5,188.14 1151.41,194.54 1152.17,200.93C1152.93,207.29 1153.4,213.68 1153.8,220.06C1154.2,226.43 1154.4,232.82 1154.55,239.2C1154.7,245.58 1154.72,251.95 1154.69,258.33C1154.66,264.71 1154.55,271.09 1154.38,277.47C1154.21,283.85 1153.97,290.22 1153.67,296.6C1153.37,302.98 1153,309.36 1152.56,315.74C1152.11,322.12 1151.61,328.51 1151,334.88C1150.39,341.26 1149.71,347.64 1148.91,354.01C1148.11,360.4 1147.23,366.78 1146.22,373.15C1145.21,379.54 1144.08,385.91 1142.83,392.28C1141.58,398.67 1140.21,405.05 1138.73,411.42C1137.24,417.81 1135.63,424.19 1133.93,430.56C1132.23,436.95 1130.39,443.32 1128.53,449.69C1126.66,456.08 1124.67,462.45 1122.74,468.83C1120.81,475.21 1118.78,481.57 1116.93,487.96C1115.09,494.33 1113.21,500.7 1111.68,507.1C1110.16,513.45 1108.7,519.83 1107.75,526.23C1106.81,532.58 1106.1,538.99 1105.99,545.37C1105.88,551.75 1106.22,558.17 1107.1,564.51C1107.99,570.92 1109.49,577.32 1111.34,583.64Q1113.22,590.08 1118.35,602.78L1162.5,602.78" style="vector-effect: non-scaling-stroke; stroke-width: 2px; stroke: rgb(0, 0, 255); stroke-opacity: 1; fill: rgb(0, 0, 255); fill-opacity: 0.5;"/><path class="meanline" d="M1153.6104736328125,297.83H1162.5" style="fill: none; vector-effect: non-scaling-stroke; stroke-width: 3px; stroke-dasharray: 6px, 3px; stroke: rgb(255, 255, 255); stroke-opacity: 1;"/></g><g class="trace violins" style="opacity: 1;"><path class="violin" d="M1162.5,602.78L1162.98,602.78Q1163.01,601.29 1163.03,600.55C1163.04,599.81 1163.06,599.07 1163.07,598.33C1163.08,597.59 1163.1,596.84 1163.11,596.1C1163.12,595.36 1163.13,594.62 1163.14,593.88C1163.15,593.14 1163.17,592.39 1163.18,591.65C1163.19,590.91 1163.21,590.17 1163.22,589.43C1163.23,588.69 1163.25,587.94 1163.26,587.2C1163.27,586.46 1163.28,585.72 1163.29,584.98C1163.3,584.24 1163.3,583.49 1163.31,582.75C1163.32,582.01 1163.33,581.27 1163.33,580.53C1163.34,579.79 1163.34,579.04 1163.34,578.3C1163.34,577.56 1163.35,576.82 1163.35,576.08C1163.35,575.34 1163.36,574.59 1163.36,573.85C1163.36,573.11 1163.36,572.37 1163.36,571.63C1163.36,570.89 1163.35,570.14 1163.35,569.4C1163.35,568.66 1163.34,567.92 1163.34,567.18C1163.34,566.44 1163.33,565.69 1163.33,564.95C1163.33,564.21 1163.32,563.47 1163.32,562.73C1163.32,561.99 1163.33,561.24 1163.33,560.5C1163.33,559.76 1163.34,559.02 1163.34,558.28C1163.35,557.54 1163.35,556.79 1163.36,556.05C1163.36,555.31 1163.37,554.57 1163.37,553.83C1163.37,553.09 1163.38,552.34 1163.38,551.6C1163.38,550.86 1163.38,550.12 1163.38,549.38C1163.38,548.64 1163.38,547.89 1163.37,547.15C1163.37,546.41 1163.35,545.67 1163.35,544.93C1163.34,544.19 1163.34,543.44 1163.34,542.7C1163.34,541.96 1163.33,541.22 1163.33,540.48C1163.33,539.74 1163.34,538.99 1163.34,538.25C1163.34,537.51 1163.34,536.76 1163.35,536.02C1163.36,535.28 1163.37,534.54 1163.38,533.8C1163.39,533.06 1163.4,532.31 1163.41,531.57C1163.42,530.83 1163.44,530.09 1163.45,529.35C1163.46,528.61 1163.47,527.86 1163.48,527.12C1163.49,526.38 1163.51,525.64 1163.52,524.9C1163.53,524.16 1163.54,523.41 1163.55,522.67C1163.56,521.93 1163.57,521.19 1163.58,520.45C1163.59,519.71 1163.59,518.96 1163.6,518.22C1163.61,517.48 1163.61,516.74 1163.62,516C1163.63,515.26 1163.63,514.51 1163.64,513.77C1163.65,513.03 1163.66,512.29 1163.66,511.55C1163.67,510.81 1163.67,510.06 1163.67,509.32C1163.67,508.58 1163.68,507.84 1163.68,507.1C1163.69,506.36 1163.7,505.61 1163.7,504.87C1163.7,504.13 1163.7,503.39 1163.7,502.65C1163.7,501.91 1163.7,501.16 1163.7,500.42C1163.7,499.68 1163.7,498.94 1163.7,498.2C1163.7,497.46 1163.7,496.71 1163.7,495.97C1163.7,495.23 1163.71,494.49 1163.71,493.75C1163.72,493.01 1163.72,492.26 1163.73,491.52C1163.74,490.78 1163.75,490.04 1163.76,489.3C1163.77,488.56 1163.77,487.81 1163.78,487.07C1163.79,486.33 1163.8,485.59 1163.81,484.85C1163.82,484.11 1163.82,483.36 1163.82,482.62C1163.82,481.88 1163.83,481.14 1163.83,480.4C1163.83,479.66 1163.82,478.91 1163.82,478.17C1163.82,477.43 1163.82,476.69 1163.82,475.95C1163.82,475.21 1163.81,474.46 1163.81,473.72C1163.81,472.98 1163.81,472.24 1163.81,471.5C1163.81,470.76 1163.81,470.01 1163.81,469.27C1163.81,468.53 1163.81,467.79 1163.81,467.05C1163.81,466.31 1163.81,465.56 1163.81,464.82C1163.81,464.08 1163.8,463.34 1163.8,462.6C1163.8,461.86 1163.79,461.11 1163.79,460.37C1163.79,459.63 1163.78,458.89 1163.78,458.15C1163.78,457.41 1163.78,456.66 1163.78,455.92C1163.78,455.18 1163.79,454.44 1163.79,453.7C1163.79,452.96 1163.79,452.21 1163.8,451.47C1163.81,450.73 1163.82,449.99 1163.83,449.25C1163.84,448.51 1163.85,447.76 1163.86,447.02C1163.87,446.28 1163.88,445.54 1163.89,444.8C1163.9,444.06 1163.91,443.31 1163.91,442.57C1163.91,441.83 1163.91,441.09 1163.91,440.35C1163.91,439.61 1163.9,438.86 1163.89,438.12C1163.88,437.38 1163.87,436.64 1163.86,435.9C1163.85,435.16 1163.84,434.41 1163.83,433.67C1163.82,432.93 1163.8,432.19 1163.79,431.45C1163.78,430.71 1163.76,429.96 1163.75,429.22C1163.74,428.48 1163.73,427.74 1163.72,427C1163.71,426.26 1163.71,425.51 1163.7,424.77C1163.69,424.03 1163.69,423.29 1163.68,422.55C1163.67,421.81 1163.67,421.06 1163.66,420.32C1163.65,419.58 1163.65,418.84 1163.64,418.1C1163.63,417.36 1163.63,416.61 1163.62,415.87C1163.61,415.13 1163.61,414.38 1163.6,413.64C1163.6,412.9 1163.59,412.16 1163.59,411.42C1163.58,410.68 1163.58,409.93 1163.57,409.19C1163.56,408.45 1163.55,407.71 1163.55,406.97C1163.54,406.23 1163.54,405.48 1163.54,404.74C1163.54,404 1163.53,403.26 1163.53,402.52C1163.52,401.78 1163.52,401.03 1163.51,400.29C1163.5,399.55 1163.5,398.81 1163.49,398.07C1163.48,397.33 1163.48,396.58 1163.47,395.84C1163.46,395.1 1163.45,394.36 1163.44,393.62C1163.43,392.88 1163.42,392.13 1163.41,391.39C1163.4,390.65 1163.39,389.91 1163.38,389.17C1163.37,388.43 1163.36,387.68 1163.35,386.94C1163.34,386.2 1163.34,385.46 1163.33,384.72C1163.32,383.98 1163.32,383.23 1163.31,382.49C1163.31,381.75 1163.3,381.01 1163.3,380.27C1163.3,379.53 1163.29,378.78 1163.29,378.04C1163.29,377.3 1163.28,376.56 1163.28,375.82C1163.28,375.08 1163.27,374.33 1163.27,373.59C1163.27,372.85 1163.27,372.11 1163.27,371.37C1163.27,370.63 1163.27,369.88 1163.27,369.14C1163.27,368.4 1163.27,367.66 1163.27,366.92C1163.27,366.18 1163.26,365.43 1163.26,364.69C1163.26,363.95 1163.25,363.21 1163.25,362.47C1163.24,361.73 1163.24,360.98 1163.23,360.24C1163.22,359.5 1163.21,358.76 1163.2,358.02C1163.19,357.28 1163.18,356.53 1163.17,355.79C1163.16,355.05 1163.14,354.31 1163.13,353.57C1163.12,352.83 1163.1,352.08 1163.09,351.34C1163.08,350.6 1163.06,349.86 1163.05,349.12C1163.04,348.38 1163.02,347.63 1163.01,346.89C1163,346.15 1162.99,345.41 1162.98,344.67C1162.97,343.93 1162.97,343.18 1162.96,342.44C1162.95,341.7 1162.94,340.96 1162.94,340.22C1162.93,339.48 1162.93,338.73 1162.93,337.99C1162.93,337.25 1162.92,336.51 1162.92,335.77C1162.92,335.03 1162.92,334.28 1162.92,333.54C1162.92,332.8 1162.92,332.06 1162.92,331.32C1162.92,330.58 1162.92,329.83 1162.92,329.09C1162.92,328.35 1162.93,327.61 1162.93,326.87C1162.93,326.13 1162.93,325.38 1162.93,324.64C1162.93,323.9 1162.94,323.16 1162.95,322.42C1162.96,321.68 1162.96,320.93 1162.97,320.19C1162.98,319.45 1162.98,318.71 1162.99,317.97C1163,317.23 1163.01,316.48 1163.02,315.74C1163.03,315 1163.03,314.26 1163.04,313.52C1163.05,312.78 1163.05,312.03 1163.06,311.29C1163.06,310.55 1163.07,309.81 1163.07,309.07C1163.07,308.33 1163.08,307.58 1163.08,306.84C1163.08,306.1 1163.08,305.36 1163.08,304.62C1163.08,303.88 1163.07,303.13 1163.07,302.39C1163.07,301.65 1163.06,300.91 1163.06,300.17C1163.06,299.43 1163.05,298.68 1163.05,297.94C1163.04,297.2 1163.04,296.45 1163.03,295.71C1163.03,294.97 1163.02,294.23 1163.02,293.49C1163.02,292.75 1163.02,292 1163.02,291.26C1163.02,290.52 1163.03,289.78 1163.03,289.04C1163.03,288.3 1163.04,287.55 1163.04,286.81C1163.04,286.07 1163.05,285.33 1163.05,284.59C1163.05,283.85 1163.05,283.1 1163.05,282.36C1163.05,281.62 1163.06,280.88 1163.06,280.14C1163.06,279.4 1163.06,278.65 1163.06,277.91C1163.06,277.17 1163.06,276.43 1163.06,275.69C1163.06,274.95 1163.06,274.2 1163.06,273.46C1163.06,272.72 1163.05,271.98 1163.05,271.24C1163.05,270.5 1163.05,269.75 1163.05,269.01C1163.05,268.27 1163.05,267.53 1163.05,266.79C1163.05,266.05 1163.04,265.3 1163.04,264.56C1163.04,263.82 1163.03,263.08 1163.03,262.34C1163.03,261.6 1163.02,260.85 1163.02,260.11C1163.02,259.37 1163.01,258.63 1163.01,257.89C1163.01,257.15 1163,256.4 1163,255.66C1163,254.92 1162.99,254.18 1162.99,253.44C1162.99,252.7 1163,251.95 1163,251.21C1163,250.47 1163.01,249.73 1163.01,248.99C1163.02,248.25 1163.02,247.5 1163.03,246.76C1163.04,246.02 1163.05,245.28 1163.05,244.54C1163.06,243.8 1163.06,243.05 1163.06,242.31C1163.06,241.57 1163.07,240.83 1163.07,240.09C1163.07,239.35 1163.07,238.6 1163.07,237.86C1163.07,237.12 1163.07,236.38 1163.07,235.64C1163.07,234.9 1163.08,234.15 1163.08,233.41C1163.08,232.67 1163.09,231.93 1163.09,231.19C1163.1,230.45 1163.1,229.7 1163.11,228.96C1163.12,228.22 1163.13,227.48 1163.14,226.74C1163.15,226 1163.16,225.25 1163.17,224.51C1163.18,223.77 1163.18,223.03 1163.19,222.29C1163.2,221.55 1163.21,220.8 1163.22,220.06C1163.23,219.32 1163.23,218.58 1163.23,217.84C1163.23,217.1 1163.24,216.35 1163.24,215.61C1163.24,214.87 1163.25,214.13 1163.25,213.39C1163.26,212.65 1163.26,211.9 1163.27,211.16C1163.27,210.42 1163.27,209.68 1163.28,208.94C1163.29,208.2 1163.3,207.45 1163.31,206.71C1163.32,205.97 1163.32,205.23 1163.33,204.49C1163.34,203.75 1163.35,203 1163.36,202.26C1163.37,201.52 1163.37,200.78 1163.38,200.04C1163.39,199.3 1163.39,198.55 1163.4,197.81C1163.4,197.07 1163.41,196.33 1163.41,195.59C1163.41,194.85 1163.42,194.1 1163.42,193.36C1163.42,192.62 1163.43,191.88 1163.43,191.14C1163.44,190.4 1163.44,189.65 1163.45,188.91C1163.46,188.17 1163.47,187.43 1163.48,186.69C1163.49,185.95 1163.5,185.2 1163.51,184.46C1163.52,183.72 1163.53,182.98 1163.53,182.24C1163.54,181.5 1163.54,180.75 1163.54,180.01C1163.54,179.27 1163.55,178.52 1163.55,177.78C1163.55,177.04 1163.55,176.3 1163.55,175.56C1163.55,174.82 1163.55,174.07 1163.55,173.33C1163.55,172.59 1163.54,171.85 1163.54,171.11C1163.54,170.37 1163.54,169.62 1163.54,168.88C1163.54,168.14 1163.54,167.4 1163.54,166.66C1163.54,165.92 1163.54,165.17 1163.54,164.43C1163.54,163.69 1163.53,162.95 1163.53,162.21C1163.53,161.47 1163.53,160.72 1163.53,159.98C1163.53,159.24 1163.53,158.5 1163.53,157.76C1163.53,157.02 1163.53,156.27 1163.53,155.53C1163.53,154.79 1163.54,154.05 1163.55,153.31C1163.56,152.57 1163.56,151.82 1163.57,151.08C1163.58,150.34 1163.58,149.6 1163.59,148.86C1163.6,148.12 1163.61,147.37 1163.62,146.63C1163.63,145.89 1163.64,145.15 1163.65,144.41C1163.66,143.67 1163.67,142.92 1163.68,142.18C1163.69,141.44 1163.71,140.7 1163.72,139.96C1163.73,139.22 1163.74,138.47 1163.75,137.73C1163.76,136.99 1163.78,136.25 1163.79,135.51C1163.8,134.77 1163.82,134.02 1163.83,133.28C1163.84,132.54 1163.85,131.8 1163.86,131.06C1163.87,130.32 1163.88,129.57 1163.89,128.83C1163.9,128.09 1163.91,127.35 1163.92,126.61C1163.93,125.87 1163.94,125.12 1163.95,124.38C1163.96,123.64 1163.97,122.9 1163.98,122.16C1163.99,121.42 1164,120.67 1164.01,119.93C1164.02,119.19 1164.03,118.45 1164.05,117.71C1164.07,116.97 1164.09,116.22 1164.11,115.48C1164.13,114.74 1164.16,114 1164.18,113.26C1164.21,112.52 1164.23,111.77 1164.26,111.03C1164.29,110.29 1164.32,109.55 1164.35,108.81C1164.38,108.07 1164.41,107.32 1164.44,106.58C1164.47,105.84 1164.5,105.1 1164.53,104.36C1164.56,103.62 1164.6,102.87 1164.63,102.13C1164.66,101.39 1164.7,100.65 1164.73,99.91C1164.77,99.17 1164.8,98.42 1164.84,97.68C1164.88,96.94 1164.92,96.2 1164.96,95.46C1165,94.72 1165.03,93.97 1165.07,93.23C1165.11,92.49 1165.15,91.75 1165.18,91.01C1165.21,90.27 1165.24,89.52 1165.27,88.78C1165.29,88.04 1165.31,87.3 1165.33,86.56C1165.35,85.82 1165.37,85.07 1165.39,84.33C1165.41,83.59 1165.42,82.85 1165.44,82.11C1165.46,81.37 1165.48,80.62 1165.51,79.88C1165.54,79.14 1165.57,78.4 1165.61,77.66C1165.65,76.92 1165.7,76.17 1165.76,75.43C1165.82,74.69 1165.88,73.95 1165.95,73.21C1166.02,72.47 1166.09,71.72 1166.17,70.98C1166.25,70.24 1166.34,69.5 1166.43,68.76C1166.52,68.02 1166.61,67.27 1166.71,66.53C1166.81,65.79 1166.92,65.05 1167.03,64.31C1167.15,63.57 1167.27,62.82 1167.4,62.08C1167.53,61.34 1167.68,60.6 1167.83,59.86C1167.99,59.12 1168.15,58.37 1168.33,57.63C1168.51,56.88 1168.7,56.14 1168.93,55.4C1169.16,54.66 1169.4,53.91 1169.69,53.18C1169.99,52.43 1170.31,51.68 1170.71,50.95C1171.13,50.19 1171.59,49.44 1172.16,48.73C1172.78,47.96 1173.48,47.2 1174.32,46.5C1175.27,45.71 1176.38,44.97 1177.64,44.28C1179.12,43.47 1180.83,42.74 1182.69,42.05C1184.89,41.24 1187.4,40.53 1190.03,39.83C1193.03,39.03 1196.38,38.32 1199.74,37.6C1203.34,36.83 1207.27,36.13 1210.97,35.38C1214.59,34.65 1218.47,33.97 1221.71,33.15C1224.44,32.46 1227.63,31.97 1229.18,30.93Q1230.12,30.3 1230.97,28.7L1162.5,28.7" style="vector-effect: non-scaling-stroke; stroke-width: 2px; stroke: rgb(0, 128, 0); stroke-opacity: 1; fill: rgb(0, 128, 0); fill-opacity: 0.5;"/><path class="meanline" d="M1164.272216796875,110.73H1162.5" style="fill: none; vector-effect: non-scaling-stroke; stroke-width: 3px; stroke-dasharray: 6px, 3px; stroke: rgb(255, 255, 255); stroke-opacity: 1;"/></g></g><g class="scatterlayer mlayer"><g class="trace scatter trace34a4ed" style="stroke-miterlimit: 2; opacity: 1;"><g class="fills"/><g class="errorbars"/><g class="lines"/><g class="points"/><g class="text"><g class="textpoint" transform="translate(0,13.5)"><text x="77.5" y="6.03" text-anchor="middle" style="font-family: verdana; font-size: 18px; fill: rgb(0, 0, 0); fill-opacity: 1; white-space: pre;">0.844|0.944</text></g><g class="textpoint" transform="translate(0,13.5)"><text x="232.5" y="6.03" text-anchor="middle" style="font-family: verdana; font-size: 18px; fill: rgb(0, 0, 0); fill-opacity: 1; white-space: pre;">0.841|0.949</text></g><g class="textpoint" transform="translate(0,13.5)"><text x="387.5" y="6.03" text-anchor="middle" style="font-family: verdana; font-size: 18px; fill: rgb(0, 0, 0); fill-opacity: 1; white-space: pre;">0.819|0.922</text></g><g class="textpoint" transform="translate(0,13.5)"><text x="542.5" y="6.03" text-anchor="middle" style="font-family: verdana; font-size: 18px; fill: rgb(0, 0, 0); fill-opacity: 1; white-space: pre;">0.812|0.841</text></g><g class="textpoint" transform="translate(0,13.5)"><text x="697.5" y="6.03" text-anchor="middle" style="font-family: verdana; font-size: 18px; fill: rgb(0, 0, 0); fill-opacity: 1; white-space: pre;">0.636|0.679</text></g><g class="textpoint" transform="translate(0,13.5)"><text x="852.5" y="6.03" text-anchor="middle" style="font-family: verdana; font-size: 18px; fill: rgb(0, 0, 0); fill-opacity: 1; white-space: pre;">0.607|0.677</text></g><g class="textpoint" transform="translate(0,13.5)"><text x="1007.5" y="6.03" text-anchor="middle" style="font-family: verdana; font-size: 18px; fill: rgb(0, 0, 0); fill-opacity: 1; white-space: pre;">0.606|0.612</text></g><g class="textpoint" transform="translate(0,13.5)"><text x="1162.5" y="6.03" text-anchor="middle" style="font-family: verdana; font-size: 18px; fill: rgb(0, 0, 0); fill-opacity: 1; white-space: pre;">0.531|0.857</text></g></g></g></g></g><g class="overplot"/><path class="xlines-above crisp" d="M0,0" style="fill: none;"/><path class="ylines-above crisp" d="M0,0" style="fill: none;"/><g class="overlines-above"/><g class="xaxislayer-above"><g class="xtick"><text text-anchor="middle" x="0" y="739" transform="translate(157.5,0)" style="font-family: verdana; font-size: 18px; fill: rgb(0, 0, 0); fill-opacity: 1; white-space: pre; opacity: 1;">RoRoFold</text></g><g class="xtick"><text text-anchor="middle" x="0" y="739" transform="translate(312.5,0)" style="font-family: verdana; font-size: 18px; fill: rgb(0, 0, 0); fill-opacity: 1; white-space: pre; opacity: 1;">Ufold</text></g><g class="xtick"><text text-anchor="middle" x="0" y="739" transform="translate(467.5,0)" style="font-family: verdana; font-size: 18px; fill: rgb(0, 0, 0); fill-opacity: 1; white-space: pre; opacity: 1;">MXfold2</text></g><g class="xtick"><text text-anchor="middle" x="0" y="739" transform="translate(622.5,0)" style="font-family: verdana; font-size: 18px; fill: rgb(0, 0, 0); fill-opacity: 1; white-space: pre; opacity: 1;">ContextFold</text></g><g class="xtick"><text text-anchor="middle" x="0" y="739" transform="translate(777.5,0)" style="font-family: verdana; font-size: 18px; fill: rgb(0, 0, 0); fill-opacity: 1; white-space: pre; opacity: 1;">ContraFold</text></g><g class="xtick"><text text-anchor="middle" x="0" y="739" transform="translate(932.5,0)" style="font-family: verdana; font-size: 18px; fill: rgb(0, 0, 0); fill-opacity: 1; white-space: pre; opacity: 1;">LinearFold</text></g><g class="xtick"><text text-anchor="middle" x="0" y="739" transform="translate(1087.5,0)" style="font-family: verdana; font-size: 18px; fill: rgb(0, 0, 0); fill-opacity: 1; white-space: pre; opacity: 1;">RNAfold</text></g><g class="xtick"><text text-anchor="middle" x="0" y="739" transform="translate(1242.5,0)" style="font-family: verdana; font-size: 18px; fill: rgb(0, 0, 0); fill-opacity: 1; white-space: pre; opacity: 1;">E2Efold</text></g></g><g class="yaxislayer-above"><g class="ytick"><text text-anchor="end" x="79" y="6.3" transform="translate(0,702.78)" style="font-family: verdana; font-size: 18px; fill: rgb(0, 0, 0); fill-opacity: 1; white-space: pre; opacity: 1;">0</text></g><g class="ytick"><text text-anchor="end" x="79" y="6.3" style="font-family: verdana; font-size: 18px; fill: rgb(0, 0, 0); fill-opacity: 1; white-space: pre; opacity: 1;" transform="translate(0,587.96)">0.2</text></g><g class="ytick"><text text-anchor="end" x="79" y="6.3" style="font-family: verdana; font-size: 18px; fill: rgb(0, 0, 0); fill-opacity: 1; white-space: pre; opacity: 1;" transform="translate(0,473.15)">0.4</text></g><g class="ytick"><text text-anchor="end" x="79" y="6.3" style="font-family: verdana; font-size: 18px; fill: rgb(0, 0, 0); fill-opacity: 1; white-space: pre; opacity: 1;" transform="translate(0,358.33)">0.6</text></g><g class="ytick"><text text-anchor="end" x="79" y="6.3" style="font-family: verdana; font-size: 18px; fill: rgb(0, 0, 0); fill-opacity: 1; white-space: pre; opacity: 1;" transform="translate(0,243.52)">0.8</text></g><g class="ytick"><text text-anchor="end" x="79" y="6.3" style="font-family: verdana; font-size: 18px; fill: rgb(0, 0, 0); fill-opacity: 1; white-space: pre; opacity: 1;" transform="translate(0,128.7)">1</text></g></g><g class="overaxes-above"/></g></g><g class="polarlayer"/><g class="smithlayer"/><g class="ternarylayer"/><g class="geolayer"/><g class="funnelarealayer"/><g class="pielayer"/><g class="iciclelayer"/><g class="treemaplayer"/><g class="sunburstlayer"/><g class="glimages"/><defs id="topdefs-59e5b7"><g class="clips"/></defs><g class="layer-above"><g class="imagelayer"/><g class="shapelayer"/></g><g class="infolayer"><g class="g-gtitle"/><g class="g-xtitle"/><g class="g-ytitle" transform="translate(2.837890625,0)"><text class="ytitle" transform="rotate(-90,19.1625,410)" x="19.1625" y="410" text-anchor="middle" style="font-family: verdana; font-size: 22px; fill: rgb(0, 0, 0); opacity: 1; font-weight: normal; white-space: pre;">f1</text></g></g></svg>