<svg class="main-svg" xmlns="http://www.w3.org/2000/svg" xmlns:xlink="http://www.w3.org/1999/xlink" width="2400" height="1600" style="" viewBox="0 0 1200 800"><rect x="0" y="0" width="1200" height="800" style="fill: rgb(255, 255, 255); fill-opacity: 1;"/><defs id="defs-050b88"><g class="clips"><clipPath id="clip050b88xyplot" class="plotclip"><rect width="1040" height="620"/></clipPath><clipPath class="axesclip" id="clip050b88x"><rect x="80" y="0" width="1040" height="800"/></clipPath><clipPath class="axesclip" id="clip050b88y"><rect x="0" y="100" width="1200" height="620"/></clipPath><clipPath class="axesclip" id="clip050b88xy"><rect x="80" y="100" width="1040" height="620"/></clipPath></g><g class="gradients"/><g class="patterns"/></defs><g class="bglayer"><rect class="bg" x="80" y="100" width="1040" height="620" style="fill: rgb(229, 236, 246); fill-opacity: 1; stroke-width: 0;"/></g><g class="layer-below"><g class="imagelayer"/><g class="shapelayer"/></g><g class="cartesianlayer"><g class="subplot xy"><g class="layer-subplot"><g class="shapelayer"/><g class="imagelayer"/></g><g class="gridlayer"><g class="x"/><g class="y"><path class="ygrid crisp" transform="translate(0,587.96)" d="M80,0h1040" style="stroke: rgb(255, 255, 255); stroke-opacity: 1; stroke-width: 1px;"/><path class="ygrid crisp" transform="translate(0,473.15)" d="M80,0h1040" style="stroke: rgb(255, 255, 255); stroke-opacity: 1; stroke-width: 1px;"/><path class="ygrid crisp" transform="translate(0,358.33)" d="M80,0h1040" style="stroke: rgb(255, 255, 255); stroke-opacity: 1; stroke-width: 1px;"/><path class="ygrid crisp" transform="translate(0,243.52)" d="M80,0h1040" style="stroke: rgb(255, 255, 255); stroke-opacity: 1; stroke-width: 1px;"/><path class="ygrid crisp" transform="translate(0,128.7)" d="M80,0h1040" style="stroke: rgb(255, 255, 255); stroke-opacity: 1; stroke-width: 1px;"/></g></g><g class="zerolinelayer"><path class="yzl zl crisp" transform="translate(0,702.78)" d="M80,0h1040" style="stroke: rgb(255, 255, 255); stroke-opacity: 1; stroke-width: 2px;"/></g><path class="xlines-below"/><path class="ylines-below"/><g class="overlines-below"/><g class="xaxislayer-below"/><g class="yaxislayer-below"/><g class="overaxes-below"/><g class="plot" transform="translate(80,100)" clip-path="url(#clip050b88xyplot)"><g class="violinlayer mlayer"><g class="trace violins" style="opacity: 1;"><path class="violin" d="M58.81,602.78Q58.78,600.01 58.75,598.62C58.71,597.23 58.66,595.85 58.6,594.46C58.54,593.07 58.47,591.69 58.4,590.3C58.33,588.91 58.26,587.53 58.2,586.14C58.14,584.75 58.09,583.37 58.04,581.98C57.99,580.59 57.95,579.21 57.92,577.82C57.89,576.43 57.87,575.05 57.86,573.66C57.85,572.27 57.84,570.89 57.84,569.5C57.84,568.11 57.84,566.73 57.84,565.34C57.84,563.95 57.86,562.57 57.87,561.18C57.88,559.79 57.89,558.41 57.9,557.02C57.91,555.63 57.93,554.25 57.95,552.86C57.97,551.47 57.98,550.09 58,548.7C58.01,547.31 58.03,545.93 58.04,544.54C58.05,543.15 58.07,541.77 58.08,540.38C58.09,538.99 58.1,537.61 58.11,536.22C58.12,534.83 58.13,533.45 58.14,532.06C58.15,530.67 58.15,529.29 58.16,527.9C58.16,526.51 58.17,525.13 58.17,523.74C58.17,522.35 58.17,520.97 58.17,519.58C58.17,518.19 58.16,516.81 58.16,515.42C58.15,514.03 58.15,512.65 58.14,511.26C58.14,509.87 58.13,508.49 58.13,507.1C58.12,505.71 58.12,504.33 58.11,502.94C58.1,501.55 58.1,500.17 58.09,498.78C58.09,497.39 58.08,496.01 58.08,494.62C58.08,493.23 58.07,491.85 58.07,490.46C58.07,489.07 58.06,487.69 58.06,486.3C58.06,484.91 58.07,483.53 58.07,482.14C58.07,480.75 58.08,479.37 58.08,477.98C58.09,476.59 58.09,475.21 58.1,473.82C58.11,472.43 58.11,471.05 58.12,469.66C58.13,468.27 58.13,466.89 58.14,465.5C58.15,464.11 58.15,462.73 58.16,461.34C58.16,459.95 58.17,458.57 58.17,457.18C58.17,455.79 58.18,454.41 58.18,453.02C58.18,451.63 58.19,450.25 58.19,448.86C58.19,447.47 58.19,446.09 58.19,444.7C58.19,443.31 58.19,441.93 58.19,440.54C58.19,439.15 58.19,437.77 58.19,436.38C58.19,434.99 58.2,433.61 58.21,432.22C58.22,430.83 58.23,429.45 58.24,428.06C58.25,426.67 58.26,425.29 58.27,423.9C58.28,422.51 58.29,421.13 58.3,419.74C58.31,418.35 58.32,416.97 58.33,415.58C58.34,414.19 58.35,412.81 58.36,411.42C58.37,410.03 58.36,408.65 58.37,407.26C58.38,405.87 58.39,404.49 58.4,403.1C58.41,401.71 58.42,400.33 58.43,398.94C58.44,397.55 58.45,396.17 58.47,394.78C58.49,393.39 58.52,392.01 58.54,390.62C58.56,389.23 58.58,387.85 58.6,386.46C58.62,385.07 58.64,383.69 58.66,382.3C58.68,380.91 58.69,379.53 58.7,378.14C58.71,376.75 58.72,375.37 58.73,373.98C58.74,372.59 58.74,371.21 58.74,369.82C58.74,368.43 58.74,367.05 58.74,365.66C58.74,364.27 58.73,362.89 58.73,361.5C58.72,360.11 58.72,358.73 58.71,357.34C58.7,355.95 58.7,354.57 58.69,353.18C58.68,351.79 58.67,350.41 58.66,349.02C58.65,347.63 58.64,346.25 58.63,344.86C58.62,343.47 58.6,342.09 58.59,340.7C58.58,339.31 58.57,337.93 58.56,336.54C58.55,335.15 58.53,333.77 58.52,332.38C58.51,330.99 58.5,329.61 58.5,328.22C58.5,326.83 58.5,325.45 58.5,324.06C58.5,322.67 58.51,321.29 58.52,319.9C58.53,318.51 58.54,317.13 58.55,315.74C58.56,314.35 58.58,312.97 58.6,311.58C58.62,310.19 58.63,308.81 58.65,307.42C58.67,306.03 58.69,304.65 58.71,303.26C58.73,301.87 58.75,300.49 58.77,299.1C58.79,297.71 58.81,296.33 58.83,294.94C58.85,293.55 58.87,292.17 58.89,290.78C58.91,289.39 58.93,288.01 58.95,286.62C58.97,285.23 58.98,283.85 59,282.46C59.02,281.07 59.04,279.69 59.06,278.3C59.08,276.91 59.1,275.53 59.12,274.14C59.14,272.75 59.17,271.37 59.19,269.98C59.21,268.59 59.22,267.21 59.24,265.82C59.25,264.43 59.27,263.05 59.28,261.66C59.29,260.27 59.3,258.89 59.31,257.5C59.32,256.11 59.32,254.73 59.32,253.34C59.33,251.95 59.33,250.57 59.34,249.18C59.35,247.79 59.35,246.41 59.36,245.02C59.37,243.63 59.39,242.25 59.41,240.86C59.43,239.47 59.46,238.09 59.49,236.7C59.52,235.31 59.56,233.93 59.6,232.54C59.64,231.15 59.7,229.77 59.75,228.38C59.81,226.99 59.87,225.61 59.93,224.22C59.99,222.83 60.06,221.45 60.13,220.06C60.2,218.67 60.27,217.29 60.33,215.9C60.39,214.51 60.45,213.13 60.51,211.74C60.57,210.35 60.62,208.97 60.67,207.58C60.72,206.19 60.75,204.81 60.79,203.42C60.82,202.03 60.85,200.65 60.88,199.26C60.91,197.87 60.93,196.49 60.96,195.1C60.99,193.71 61.02,192.33 61.05,190.94C61.08,189.55 61.11,188.17 61.15,186.78C61.19,185.39 61.23,184.01 61.28,182.62C61.33,181.23 61.39,179.85 61.45,178.46C61.51,177.07 61.58,175.69 61.66,174.3C61.74,172.91 61.82,171.53 61.91,170.14C62,168.75 62.09,167.37 62.19,165.98C62.29,164.59 62.39,163.21 62.49,161.82C62.59,160.43 62.7,159.05 62.79,157.66C62.88,156.27 62.97,154.89 63.05,153.5C63.13,152.11 63.2,150.73 63.28,149.34C63.36,147.95 63.43,146.57 63.51,145.18C63.6,143.79 63.68,142.41 63.79,141.02C63.9,139.63 64.01,138.25 64.15,136.86C64.3,135.47 64.47,134.09 64.66,132.7C64.85,131.31 65.08,129.93 65.31,128.54C65.55,127.15 65.81,125.77 66.07,124.38C66.34,122.99 66.62,121.61 66.9,120.22C67.18,118.83 67.46,117.45 67.74,116.06C68.01,114.67 68.28,113.29 68.55,111.9C68.81,110.51 69.07,109.13 69.33,107.74C69.59,106.35 69.85,104.97 70.13,103.58C70.41,102.19 70.69,100.8 71,99.42C71.31,98.03 71.64,96.64 72,95.26C72.36,93.87 72.76,92.48 73.17,91.1C73.58,89.71 74.03,88.33 74.47,86.94C74.91,85.55 75.37,84.17 75.79,82.78C76.21,81.4 76.63,80.01 76.99,78.62C77.35,77.24 77.67,75.85 77.93,74.46C78.19,73.08 78.38,71.69 78.55,70.3C78.72,68.92 78.8,67.53 78.93,66.14C79.06,64.75 79.12,63.36 79.33,61.98C79.54,60.59 79.76,59.18 80.21,57.82C80.67,56.41 81.28,55 82.1,53.66C82.98,52.22 84.13,50.83 85.4,49.5C86.78,48.05 88.48,46.7 90.15,45.34C91.9,43.92 93.91,42.59 95.7,41.18C97.43,39.81 99.36,38.51 100.71,37.02C101.9,35.71 103.22,34.31 103.54,32.86Q103.84,31.53 102.87,28.7L12.68,28.7Q11.72,31.53 12.02,32.86C12.35,34.31 13.66,35.71 14.85,37.02C16.2,38.51 18.13,39.81 19.86,41.18C21.65,42.59 23.66,43.92 25.41,45.34C27.08,46.7 28.77,48.05 30.15,49.5C31.42,50.83 32.58,52.22 33.46,53.66C34.28,55 34.88,56.41 35.34,57.82C35.79,59.18 36,60.59 36.22,61.98C36.43,63.36 36.5,64.75 36.63,66.14C36.76,67.53 36.85,68.92 37.01,70.3C37.18,71.69 37.36,73.08 37.62,74.46C37.88,75.85 38.2,77.24 38.56,78.62C38.92,80.01 39.34,81.4 39.76,82.78C40.18,84.17 40.65,85.55 41.09,86.94C41.53,88.33 41.98,89.71 42.39,91.1C42.8,92.48 43.19,93.87 43.55,95.26C43.91,96.64 44.25,98.03 44.56,99.42C44.87,100.8 45.15,102.19 45.43,103.58C45.71,104.97 45.96,106.35 46.22,107.74C46.48,109.13 46.74,110.51 47.01,111.9C47.28,113.29 47.55,114.67 47.82,116.06C48.09,117.45 48.37,118.83 48.65,120.22C48.93,121.61 49.21,122.99 49.48,124.38C49.75,125.77 50.01,127.15 50.25,128.54C50.49,129.93 50.71,131.31 50.9,132.7C51.09,134.08 51.25,135.47 51.4,136.86C51.54,138.25 51.66,139.63 51.77,141.02C51.88,142.41 51.96,143.79 52.04,145.18C52.12,146.57 52.19,147.95 52.27,149.34C52.35,150.73 52.43,152.11 52.51,153.5C52.59,154.89 52.68,156.27 52.77,157.66C52.86,159.05 52.96,160.43 53.06,161.82C53.16,163.21 53.26,164.59 53.36,165.98C53.46,167.37 53.56,168.75 53.65,170.14C53.74,171.53 53.82,172.91 53.9,174.3C53.97,175.69 54.04,177.07 54.1,178.46C54.16,179.85 54.22,181.23 54.27,182.62C54.32,184.01 54.36,185.39 54.4,186.78C54.44,188.17 54.48,189.55 54.51,190.94C54.54,192.33 54.56,193.71 54.59,195.1C54.62,196.49 54.65,197.87 54.68,199.26C54.71,200.65 54.74,202.03 54.77,203.42C54.81,204.81 54.85,206.19 54.89,207.58C54.94,208.97 54.98,210.35 55.04,211.74C55.1,213.13 55.17,214.51 55.23,215.9C55.3,217.29 55.36,218.67 55.43,220.06C55.5,221.45 55.57,222.83 55.63,224.22C55.69,225.61 55.75,226.99 55.8,228.38C55.85,229.77 55.9,231.15 55.95,232.54C55.99,233.93 56.04,235.31 56.07,236.7C56.1,238.09 56.12,239.47 56.14,240.86C56.16,242.25 56.18,243.63 56.19,245.02C56.2,246.41 56.21,247.79 56.22,249.18C56.23,250.57 56.23,251.95 56.23,253.34C56.24,254.73 56.24,256.11 56.25,257.5C56.26,258.89 56.26,260.27 56.27,261.66C56.28,263.05 56.29,264.43 56.31,265.82C56.33,267.21 56.35,268.59 56.37,269.98C56.39,271.37 56.41,272.75 56.43,274.14C56.45,275.53 56.48,276.91 56.5,278.3C56.52,279.69 56.53,281.07 56.55,282.46C56.57,283.85 56.59,285.23 56.61,286.62C56.63,288.01 56.64,289.39 56.66,290.78C56.68,292.17 56.7,293.55 56.72,294.94C56.74,296.33 56.76,297.71 56.78,299.1C56.8,300.49 56.83,301.87 56.85,303.26C56.87,304.65 56.88,306.03 56.9,307.42C56.92,308.81 56.94,310.19 56.96,311.58C56.98,312.97 56.99,314.35 57,315.74C57.01,317.13 57.03,318.51 57.04,319.9C57.05,321.29 57.05,322.67 57.05,324.06C57.05,325.45 57.05,326.83 57.05,328.22C57.05,329.61 57.04,330.99 57.03,332.38C57.02,333.77 57.01,335.15 57,336.54C56.99,337.93 56.97,339.31 56.96,340.7C56.95,342.09 56.94,343.47 56.93,344.86C56.92,346.25 56.9,347.63 56.89,349.02C56.88,350.41 56.88,351.79 56.87,353.18C56.86,354.57 56.85,355.95 56.84,357.34C56.83,358.73 56.83,360.11 56.83,361.5C56.83,362.89 56.82,364.27 56.82,365.66C56.82,367.05 56.81,368.43 56.81,369.82C56.81,371.21 56.82,372.59 56.83,373.98C56.84,375.37 56.84,376.75 56.85,378.14C56.86,379.53 56.88,380.91 56.9,382.3C56.92,383.69 56.94,385.07 56.96,386.46C56.98,387.85 57,389.23 57.02,390.62C57.04,392.01 57.06,393.39 57.08,394.78C57.1,396.17 57.12,397.55 57.13,398.94C57.14,400.33 57.15,401.71 57.16,403.1C57.17,404.49 57.17,405.87 57.18,407.26C57.19,408.65 57.19,410.03 57.2,411.42C57.21,412.81 57.21,414.19 57.22,415.58C57.23,416.97 57.24,418.35 57.25,419.74C57.26,421.13 57.28,422.51 57.29,423.9C57.3,425.29 57.31,426.67 57.32,428.06C57.33,429.45 57.34,430.83 57.35,432.22C57.36,433.61 57.36,434.99 57.36,436.38C57.36,437.77 57.37,439.15 57.37,440.54C57.37,441.93 57.37,443.31 57.37,444.7C57.37,446.09 57.37,447.47 57.37,448.86C57.37,450.25 57.38,451.63 57.38,453.02C57.38,454.41 57.39,455.79 57.39,457.18C57.39,458.57 57.4,459.95 57.4,461.34C57.41,462.73 57.41,464.11 57.42,465.5C57.43,466.89 57.43,468.27 57.44,469.66C57.45,471.05 57.45,472.43 57.46,473.82C57.47,475.21 57.47,476.59 57.48,477.98C57.48,479.37 57.49,480.75 57.49,482.14C57.49,483.53 57.49,484.91 57.49,486.3C57.49,487.69 57.49,489.07 57.49,490.46C57.49,491.85 57.48,493.23 57.48,494.62C57.47,496.01 57.47,497.39 57.46,498.78C57.46,500.17 57.45,501.55 57.45,502.94C57.44,504.33 57.44,505.71 57.43,507.1C57.42,508.49 57.42,509.87 57.41,511.26C57.41,512.65 57.4,514.03 57.4,515.42C57.4,516.81 57.39,518.19 57.39,519.58C57.39,520.97 57.39,522.35 57.39,523.74C57.39,525.13 57.4,526.51 57.4,527.9C57.41,529.29 57.41,530.67 57.42,532.06C57.43,533.45 57.43,534.83 57.44,536.22C57.45,537.61 57.47,538.99 57.48,540.38C57.49,541.77 57.5,543.15 57.51,544.54C57.52,545.93 57.54,547.31 57.56,548.7C57.58,550.09 57.59,551.47 57.61,552.86C57.62,554.25 57.64,555.63 57.65,557.02C57.66,558.41 57.68,559.79 57.69,561.18C57.7,562.57 57.7,563.95 57.71,565.34C57.71,566.73 57.72,568.11 57.72,569.5C57.72,570.89 57.7,572.27 57.69,573.66C57.67,575.05 57.66,576.43 57.63,577.82C57.6,579.21 57.57,580.59 57.52,581.98C57.47,583.37 57.41,584.75 57.35,586.14C57.29,587.53 57.22,588.91 57.15,590.3C57.08,591.69 57.01,593.07 56.95,594.46C56.89,595.85 56.83,597.23 56.8,598.62Q56.77,600.01 56.75,602.78Z" style="vector-effect: non-scaling-stroke; stroke-width: 2px; stroke: rgb(99, 110, 250); stroke-opacity: 1; fill: rgb(99, 110, 250); fill-opacity: 0.5;"/><path class="meanline" d="M72.46989440917969,93.52H43.090105590820315" style="fill: none; vector-effect: non-scaling-stroke; stroke-width: 3px; stroke-dasharray: 6px, 3px; stroke: rgb(255, 255, 255); stroke-opacity: 1;"/></g><g class="trace violins" style="opacity: 1;"><path class="violin" d="M173.82,602.78Q173.81,598.79 173.8,596.8C173.79,594.81 173.77,592.81 173.75,590.82C173.73,588.83 173.7,586.83 173.68,584.84C173.66,582.85 173.63,580.85 173.61,578.86C173.59,576.87 173.57,574.87 173.55,572.88C173.54,570.89 173.53,568.89 173.52,566.9C173.51,564.91 173.51,562.91 173.51,560.92C173.51,558.93 173.52,556.93 173.52,554.94C173.52,552.95 173.53,550.95 173.53,548.96C173.54,546.97 173.54,544.97 173.55,542.98C173.56,540.99 173.56,538.99 173.57,537C173.58,535.01 173.59,533.01 173.6,531.02C173.61,529.03 173.63,527.03 173.64,525.04C173.66,523.05 173.67,521.05 173.69,519.06C173.71,517.07 173.72,515.07 173.74,513.08C173.76,511.09 173.78,509.09 173.8,507.1C173.82,505.11 173.83,503.11 173.85,501.12C173.86,499.13 173.88,497.13 173.89,495.14C173.9,493.15 173.9,491.15 173.91,489.16C173.92,487.17 173.93,485.17 173.94,483.18C173.95,481.19 173.95,479.19 173.95,477.2C173.96,475.21 173.96,473.21 173.97,471.22C173.98,469.23 173.99,467.23 174,465.24C174.01,463.25 174.02,461.25 174.03,459.26C174.04,457.27 174.06,455.27 174.08,453.28C174.09,451.29 174.11,449.29 174.12,447.3C174.14,445.31 174.15,443.31 174.17,441.32C174.18,439.33 174.2,437.33 174.21,435.34C174.22,433.35 174.23,431.35 174.24,429.36C174.25,427.37 174.26,425.37 174.27,423.38C174.28,421.39 174.28,419.39 174.29,417.4C174.3,415.41 174.3,413.41 174.31,411.42C174.31,409.43 174.32,407.43 174.32,405.44C174.32,403.45 174.31,401.45 174.31,399.46C174.31,397.47 174.31,395.47 174.31,393.48C174.31,391.49 174.3,389.49 174.3,387.5C174.3,385.51 174.3,383.51 174.31,381.52C174.32,379.53 174.33,377.53 174.34,375.54C174.36,373.55 174.38,371.55 174.4,369.56C174.43,367.57 174.46,365.57 174.49,363.58C174.52,361.59 174.56,359.59 174.59,357.6C174.62,355.61 174.66,353.61 174.69,351.62C174.72,349.63 174.75,347.63 174.78,345.64C174.81,343.65 174.83,341.65 174.85,339.66C174.87,337.67 174.89,335.67 174.91,333.68C174.93,331.69 174.95,329.69 174.97,327.7C174.99,325.71 175,323.71 175.02,321.72C175.04,319.73 175.06,317.73 175.08,315.74C175.1,313.75 175.12,311.75 175.14,309.76C175.16,307.77 175.18,305.77 175.2,303.78C175.23,301.79 175.25,299.79 175.29,297.8C175.33,295.81 175.37,293.81 175.42,291.82C175.48,289.83 175.54,287.83 175.62,285.84C175.7,283.85 175.8,281.85 175.9,279.86C176.01,277.87 176.13,275.87 176.25,273.88C176.37,271.89 176.51,269.89 176.64,267.9C176.78,265.91 176.92,263.91 177.06,261.92C177.2,259.93 177.33,257.93 177.47,255.94C177.6,253.95 177.74,251.95 177.87,249.96C178,247.97 178.12,245.97 178.24,243.98C178.36,241.99 178.48,239.99 178.6,238C178.72,236.01 178.84,234.01 178.97,232.02C179.1,230.03 179.22,228.03 179.36,226.04C179.5,224.05 179.65,222.05 179.82,220.06C179.99,218.07 180.16,216.07 180.36,214.08C180.56,212.09 180.78,210.09 181,208.1C181.22,206.11 181.47,204.11 181.7,202.12C181.94,200.13 182.18,198.13 182.41,196.14C182.64,194.15 182.87,192.15 183.08,190.16C183.29,188.17 183.49,186.17 183.68,184.18C183.87,182.19 184.05,180.19 184.24,178.2C184.44,176.21 184.63,174.21 184.85,172.22C185.07,170.23 185.31,168.23 185.58,166.24C185.85,164.24 186.15,162.25 186.48,160.26C186.81,158.26 187.17,156.27 187.54,154.28C187.91,152.29 188.32,150.29 188.71,148.3C189.1,146.31 189.51,144.31 189.9,142.32C190.29,140.33 190.67,138.34 191.03,136.34C191.39,134.35 191.73,132.36 192.04,130.36C192.35,128.37 192.63,126.38 192.88,124.38C193.13,122.39 193.35,120.39 193.54,118.4C193.73,116.41 193.89,114.41 194.02,112.42C194.15,110.43 194.25,108.43 194.33,106.44C194.41,104.45 194.47,102.45 194.52,100.46C194.57,98.47 194.6,96.47 194.65,94.48C194.7,92.49 194.74,90.49 194.84,88.5C194.94,86.51 195.03,84.51 195.23,82.52C195.43,80.52 195.65,78.52 196.02,76.54C196.4,74.54 196.85,72.53 197.49,70.56C198.14,68.54 198.94,66.54 199.92,64.58C200.93,62.55 202.17,60.56 203.5,58.6C204.88,56.57 206.52,54.6 208.1,52.62C209.71,50.61 211.53,48.67 213.07,46.64C214.56,44.68 216.2,42.73 217.21,40.66C218.15,38.74 219.02,36.68 219.09,34.68Q219.16,32.7 217.64,28.7L129.02,28.7Q127.5,32.7 127.57,34.68C127.64,36.68 128.51,38.74 129.45,40.66C130.46,42.73 132.1,44.68 133.59,46.64C135.13,48.67 136.96,50.61 138.57,52.62C140.15,54.6 141.79,56.57 143.17,58.6C144.5,60.56 145.74,62.55 146.75,64.58C147.73,66.54 148.53,68.54 149.18,70.56C149.82,72.53 150.26,74.54 150.64,76.54C151.01,78.52 151.24,80.52 151.44,82.52C151.64,84.51 151.73,86.51 151.83,88.5C151.93,90.49 151.97,92.49 152.02,94.48C152.07,96.47 152.1,98.47 152.15,100.46C152.2,102.45 152.26,104.45 152.34,106.44C152.42,108.43 152.52,110.43 152.65,112.42C152.78,114.41 152.93,116.41 153.12,118.4C153.31,120.39 153.53,122.39 153.78,124.38C154.03,126.38 154.32,128.37 154.63,130.36C154.94,132.36 155.28,134.35 155.63,136.34C155.99,138.34 156.37,140.33 156.76,142.32C157.15,144.31 157.56,146.31 157.95,148.3C158.34,150.29 158.75,152.29 159.12,154.28C159.49,156.27 159.86,158.26 160.19,160.26C160.52,162.25 160.82,164.24 161.09,166.24C161.36,168.23 161.59,170.23 161.81,172.22C162.03,174.21 162.22,176.21 162.42,178.2C162.62,180.19 162.8,182.19 162.99,184.18C163.19,186.17 163.38,188.17 163.59,190.16C163.8,192.15 164.03,194.15 164.26,196.14C164.49,198.13 164.73,200.13 164.96,202.12C165.2,204.11 165.45,206.11 165.67,208.1C165.89,210.09 166.1,212.09 166.3,214.08C166.5,216.07 166.68,218.07 166.85,220.06C167.02,222.05 167.17,224.05 167.31,226.04C167.45,228.03 167.57,230.03 167.7,232.02C167.82,234.01 167.94,236.01 168.06,238C168.18,239.99 168.3,241.99 168.42,243.98C168.54,245.97 168.67,247.97 168.8,249.96C168.93,251.95 169.06,253.95 169.19,255.94C169.33,257.93 169.47,259.93 169.61,261.92C169.75,263.91 169.88,265.91 170.02,267.9C170.15,269.89 170.29,271.89 170.42,273.88C170.54,275.87 170.67,277.87 170.77,279.86C170.87,281.85 170.96,283.85 171.04,285.84C171.12,287.83 171.18,289.83 171.24,291.82C171.3,293.81 171.34,295.81 171.38,297.8C171.42,299.79 171.43,301.79 171.46,303.78C171.48,305.77 171.51,307.77 171.53,309.76C171.55,311.75 171.57,313.75 171.59,315.74C171.61,317.73 171.62,319.73 171.64,321.72C171.66,323.71 171.68,325.71 171.7,327.7C171.72,329.69 171.73,331.69 171.75,333.68C171.77,335.67 171.79,337.67 171.81,339.66C171.83,341.65 171.86,343.65 171.89,345.64C171.92,347.63 171.95,349.63 171.98,351.62C172.01,353.61 172.05,355.61 172.08,357.6C172.11,359.59 172.15,361.59 172.18,363.58C172.21,365.57 172.24,367.57 172.26,369.56C172.28,371.55 172.3,373.55 172.32,375.54C172.34,377.53 172.35,379.53 172.36,381.52C172.37,383.51 172.36,385.51 172.36,387.5C172.36,389.49 172.36,391.49 172.36,393.48C172.36,395.47 172.35,397.47 172.35,399.46C172.35,401.45 172.35,403.45 172.35,405.44C172.35,407.43 172.36,409.43 172.36,411.42C172.37,413.41 172.37,415.41 172.38,417.4C172.39,419.39 172.39,421.39 172.4,423.38C172.41,425.37 172.42,427.37 172.43,429.36C172.44,431.35 172.45,433.35 172.46,435.34C172.47,437.33 172.49,439.33 172.5,441.32C172.51,443.31 172.53,445.31 172.54,447.3C172.56,449.29 172.57,451.29 172.59,453.28C172.6,455.27 172.62,457.27 172.63,459.26C172.64,461.25 172.66,463.25 172.67,465.24C172.68,467.23 172.69,469.23 172.7,471.22C172.71,473.21 172.71,475.21 172.71,477.2C172.72,479.19 172.72,481.19 172.73,483.18C172.74,485.17 172.74,487.17 172.75,489.16C172.76,491.15 172.77,493.15 172.78,495.14C172.79,497.13 172.81,499.13 172.82,501.12C172.84,503.11 172.85,505.11 172.87,507.1C172.89,509.09 172.9,511.09 172.92,513.08C172.94,515.07 172.96,517.07 172.98,519.06C173,521.05 173.01,523.05 173.03,525.04C173.04,527.03 173.06,529.03 173.07,531.02C173.08,533.01 173.09,535.01 173.1,537C173.11,538.99 173.11,540.99 173.12,542.98C173.13,544.97 173.13,546.97 173.14,548.96C173.14,550.95 173.15,552.95 173.15,554.94C173.15,556.93 173.15,558.93 173.15,560.92C173.15,562.91 173.15,564.91 173.14,566.9C173.13,568.89 173.12,570.89 173.11,572.88C173.1,574.87 173.08,576.87 173.06,578.86C173.04,580.85 173.01,582.85 172.99,584.84C172.97,586.83 172.94,588.83 172.92,590.82C172.9,592.81 172.87,594.81 172.86,596.8Q172.85,598.79 172.85,602.78Z" style="vector-effect: non-scaling-stroke; stroke-width: 2px; stroke: rgb(239, 85, 59); stroke-opacity: 1; fill: rgb(239, 85, 59); fill-opacity: 0.5;"/><path class="meanline" d="M194.2759552001953,107.71H152.3840447998047" style="fill: none; vector-effect: non-scaling-stroke; stroke-width: 3px; stroke-dasharray: 6px, 3px; stroke: rgb(255, 255, 255); stroke-opacity: 1;"/></g><g class="trace violins" style="opacity: 1;"><path class="violin" d="M289.97,602.78Q289.98,596.8 289.97,593.81C289.96,590.82 289.93,587.83 289.9,584.84C289.87,581.85 289.83,578.86 289.8,575.87C289.77,572.88 289.73,569.89 289.7,566.9C289.67,563.91 289.65,560.92 289.64,557.93C289.63,554.94 289.63,551.95 289.63,548.96C289.63,545.97 289.64,542.98 289.66,539.99C289.68,537 289.71,534.01 289.73,531.02C289.76,528.03 289.78,525.04 289.81,522.05C289.84,519.06 289.86,516.07 289.89,513.08C289.92,510.09 289.96,507.1 289.99,504.11C290.03,501.12 290.06,498.13 290.1,495.14C290.14,492.15 290.19,489.16 290.25,486.17C290.31,483.18 290.38,480.19 290.46,477.2C290.54,474.21 290.62,471.22 290.71,468.23C290.8,465.24 290.91,462.25 291.01,459.26C291.11,456.27 291.21,453.28 291.31,450.29C291.41,447.3 291.52,444.31 291.61,441.32C291.7,438.33 291.78,435.34 291.86,432.35C291.94,429.36 292.01,426.37 292.08,423.38C292.15,420.39 292.2,417.4 292.26,414.41C292.32,411.42 292.38,408.43 292.44,405.44C292.5,402.45 292.57,399.46 292.64,396.47C292.71,393.48 292.8,390.49 292.88,387.5C292.97,384.51 293.06,381.52 293.15,378.53C293.25,375.54 293.35,372.55 293.45,369.56C293.55,366.57 293.66,363.58 293.77,360.59C293.88,357.6 294,354.61 294.12,351.62C294.24,348.63 294.37,345.64 294.5,342.65C294.63,339.66 294.77,336.67 294.92,333.68C295.07,330.69 295.23,327.7 295.39,324.71C295.56,321.72 295.73,318.73 295.91,315.74C296.09,312.75 296.27,309.76 296.47,306.77C296.67,303.78 296.87,300.79 297.09,297.8C297.31,294.81 297.53,291.82 297.77,288.83C298.01,285.84 298.26,282.85 298.52,279.86C298.78,276.87 299.04,273.88 299.31,270.89C299.58,267.9 299.86,264.91 300.13,261.92C300.4,258.93 300.67,255.94 300.92,252.95C301.17,249.96 301.41,246.97 301.63,243.98C301.84,240.99 302.04,238 302.21,235.01C302.38,232.02 302.53,229.03 302.65,226.04C302.77,223.05 302.86,220.06 302.94,217.07C303.01,214.08 303.06,211.09 303.1,208.1C303.14,205.11 303.16,202.12 303.17,199.13C303.18,196.14 303.17,193.15 303.17,190.16C303.17,187.17 303.16,184.18 303.14,181.19C303.12,178.2 303.1,175.21 303.07,172.22C303.04,169.23 302.99,166.24 302.94,163.25C302.89,160.26 302.83,157.27 302.76,154.28C302.69,151.29 302.59,148.3 302.51,145.31C302.42,142.32 302.32,139.33 302.25,136.34C302.18,133.35 302.1,130.36 302.1,127.37C302.1,124.38 302.1,121.39 302.22,118.4C302.34,115.41 302.5,112.41 302.82,109.43C303.14,106.43 303.55,103.43 304.16,100.46C304.77,97.45 305.52,94.45 306.48,91.49C307.46,88.47 308.64,85.47 310.01,82.52C311.42,79.49 313.08,76.5 314.84,73.55C316.64,70.52 318.72,67.56 320.72,64.58C322.73,61.58 324.98,58.64 326.88,55.61C328.74,52.66 330.71,49.71 332.02,46.64C333.26,43.72 334.38,40.69 334.65,37.67Q334.91,34.71 333.67,28.7L244.1,28.7Q242.87,34.71 243.13,37.67C243.4,40.69 244.52,43.72 245.76,46.64C247.07,49.71 249.05,52.66 250.9,55.61C252.8,58.64 255.04,61.58 257.05,64.58C259.05,67.56 261.13,70.52 262.93,73.55C264.69,76.5 266.35,79.49 267.76,82.52C269.13,85.47 270.32,88.47 271.3,91.49C272.26,94.45 273.01,97.45 273.62,100.46C274.22,103.43 274.63,106.43 274.95,109.43C275.27,112.41 275.44,115.41 275.56,118.4C275.68,121.39 275.69,124.38 275.68,127.37C275.67,130.36 275.59,133.35 275.52,136.34C275.45,139.33 275.35,142.32 275.27,145.31C275.19,148.3 275.09,151.29 275.02,154.28C274.95,157.27 274.88,160.26 274.83,163.25C274.78,166.24 274.74,169.23 274.71,172.22C274.68,175.21 274.66,178.2 274.64,181.19C274.62,184.18 274.61,187.17 274.61,190.16C274.61,193.15 274.6,196.14 274.61,199.13C274.62,202.12 274.64,205.11 274.68,208.1C274.72,211.09 274.77,214.08 274.84,217.07C274.92,220.06 275.01,223.05 275.13,226.04C275.25,229.03 275.4,232.02 275.57,235.01C275.74,238 275.94,240.99 276.15,243.98C276.37,246.97 276.61,249.96 276.86,252.95C277.11,255.94 277.38,258.93 277.65,261.92C277.92,264.91 278.19,267.9 278.46,270.89C278.73,273.88 279,276.87 279.26,279.86C279.52,282.85 279.77,285.84 280.01,288.83C280.25,291.82 280.47,294.81 280.69,297.8C280.91,300.79 281.11,303.78 281.31,306.77C281.51,309.76 281.69,312.75 281.87,315.74C282.05,318.73 282.22,321.72 282.39,324.71C282.55,327.7 282.71,330.69 282.86,333.68C283.01,336.67 283.15,339.66 283.28,342.65C283.41,345.64 283.54,348.63 283.66,351.62C283.78,354.61 283.89,357.6 284,360.59C284.11,363.58 284.22,366.57 284.33,369.56C284.43,372.55 284.53,375.54 284.63,378.53C284.72,381.52 284.82,384.51 284.9,387.5C284.98,390.49 285.06,393.48 285.13,396.47C285.2,399.46 285.27,402.45 285.34,405.44C285.4,408.43 285.46,411.42 285.52,414.41C285.58,417.4 285.63,420.39 285.7,423.38C285.77,426.37 285.84,429.36 285.92,432.35C286,435.34 286.08,438.33 286.17,441.32C286.26,444.31 286.36,447.3 286.46,450.29C286.56,453.28 286.67,456.27 286.77,459.26C286.87,462.25 286.98,465.24 287.07,468.23C287.16,471.22 287.24,474.21 287.32,477.2C287.39,480.19 287.46,483.18 287.52,486.17C287.58,489.16 287.63,492.15 287.68,495.14C287.72,498.13 287.75,501.12 287.79,504.11C287.82,507.1 287.86,510.09 287.89,513.08C287.92,516.07 287.94,519.06 287.97,522.05C288,525.04 288.03,528.03 288.05,531.02C288.07,534.01 288.09,537 288.11,539.99C288.13,542.98 288.15,545.97 288.15,548.96C288.15,551.95 288.15,554.94 288.14,557.93C288.13,560.92 288.11,563.91 288.08,566.9C288.05,569.89 288.01,572.88 287.98,575.87C287.94,578.86 287.9,581.85 287.87,584.84C287.84,587.83 287.81,590.82 287.8,593.81Q287.79,596.8 287.81,602.78Z" style="vector-effect: non-scaling-stroke; stroke-width: 2px; stroke: rgb(0, 204, 150); stroke-opacity: 1; fill: rgb(0, 204, 150); fill-opacity: 0.5;"/><path class="meanline" d="M302.3867492675781,141.29H275.39325073242185" style="fill: none; vector-effect: non-scaling-stroke; stroke-width: 3px; stroke-dasharray: 6px, 3px; stroke: rgb(255, 255, 255); stroke-opacity: 1;"/></g><g class="trace violins" style="opacity: 1;"><path class="violin" d="M406.25,602.78Q406.26,597.31 406.23,594.58C406.2,591.85 406.15,589.11 406.09,586.38C406.03,583.64 405.95,580.91 405.87,578.17C405.8,575.44 405.71,572.7 405.64,569.97C405.57,567.24 405.5,564.5 405.45,561.77C405.4,559.04 405.36,556.3 405.33,553.57C405.3,550.84 405.29,548.1 405.29,545.37C405.29,542.64 405.3,539.9 405.32,537.17C405.34,534.44 405.37,531.7 405.41,528.97C405.45,526.24 405.51,523.5 405.57,520.77C405.63,518.04 405.7,515.3 405.77,512.57C405.84,509.84 405.92,507.1 406,504.37C406.08,501.63 406.16,498.9 406.24,496.16C406.32,493.43 406.41,490.69 406.49,487.96C406.57,485.23 406.64,482.49 406.72,479.76C406.79,477.03 406.87,474.29 406.94,471.56C407.01,468.83 407.09,466.09 407.16,463.36C407.23,460.63 407.3,457.89 407.37,455.16C407.44,452.43 407.5,449.69 407.56,446.96C407.62,444.23 407.68,441.49 407.73,438.76C407.78,436.03 407.83,433.29 407.87,430.56C407.91,427.82 407.95,425.09 407.98,422.35C408.01,419.62 408.04,416.88 408.07,414.15C408.1,411.42 408.12,408.68 408.15,405.95C408.18,403.22 408.21,400.48 408.25,397.75C408.29,395.02 408.33,392.28 408.38,389.55C408.43,386.82 408.48,384.08 408.54,381.35C408.6,378.62 408.67,375.88 408.74,373.15C408.81,370.42 408.88,367.68 408.97,364.95C409.06,362.22 409.15,359.48 409.26,356.75C409.37,354.01 409.48,351.28 409.62,348.54C409.75,345.81 409.9,343.07 410.07,340.34C410.24,337.61 410.42,334.87 410.63,332.14C410.84,329.41 411.07,326.67 411.31,323.94C411.55,321.21 411.82,318.47 412.09,315.74C412.37,313.01 412.66,310.27 412.96,307.54C413.26,304.81 413.56,302.07 413.87,299.34C414.18,296.61 414.5,293.87 414.81,291.14C415.12,288.41 415.42,285.67 415.72,282.94C416.02,280.21 416.32,277.47 416.6,274.74C416.89,272 417.16,269.27 417.43,266.53C417.7,263.8 417.96,261.06 418.2,258.33C418.44,255.6 418.68,252.86 418.89,250.13C419.1,247.4 419.3,244.66 419.47,241.93C419.64,239.2 419.79,236.46 419.92,233.73C420.05,231 420.15,228.26 420.25,225.53C420.34,222.8 420.41,220.06 420.49,217.33C420.57,214.6 420.64,211.86 420.72,209.13C420.81,206.4 420.88,203.66 421,200.93C421.12,198.19 421.25,195.46 421.42,192.72C421.59,189.99 421.77,187.25 422,184.52C422.23,181.79 422.49,179.05 422.78,176.32C423.07,173.58 423.4,170.85 423.75,168.12C424.1,165.38 424.49,162.65 424.9,159.92C425.31,157.18 425.76,154.45 426.22,151.72C426.69,148.98 427.18,146.25 427.69,143.52C428.2,140.78 428.74,138.05 429.3,135.32C429.86,132.58 430.45,129.85 431.05,127.12C431.66,124.38 432.28,121.65 432.93,118.92C433.58,116.18 434.25,113.44 434.97,110.71C435.69,107.97 436.43,105.24 437.23,102.51C438.03,99.77 438.88,97.04 439.76,94.31C440.65,91.57 441.6,88.84 442.54,86.11C443.48,83.37 444.5,80.65 445.42,77.91C446.33,75.18 447.29,72.46 448.03,69.71C448.76,66.99 449.48,64.26 449.84,61.51C450.2,58.79 450.4,56.03 450.2,53.31C449.99,50.56 449.46,47.79 448.59,45.11C447.68,42.32 446.32,39.57 444.78,36.9Q443.16,34.09 439.01,28.7L369.88,28.7Q365.73,34.09 364.11,36.9C362.57,39.57 361.21,42.32 360.3,45.11C359.43,47.79 358.89,50.56 358.68,53.31C358.48,56.03 358.69,58.79 359.05,61.51C359.41,64.26 360.13,66.99 360.86,69.71C361.6,72.46 362.56,75.18 363.47,77.91C364.39,80.65 365.41,83.37 366.35,86.11C367.29,88.84 368.24,91.57 369.13,94.31C370.01,97.04 370.85,99.77 371.65,102.51C372.44,105.24 373.19,107.97 373.91,110.71C374.63,113.44 375.3,116.18 375.96,118.92C376.61,121.65 377.23,124.38 377.84,127.12C378.44,129.85 379.03,132.58 379.59,135.32C380.15,138.05 380.69,140.78 381.2,143.52C381.71,146.25 382.2,148.98 382.67,151.72C383.13,154.45 383.58,157.18 383.99,159.92C384.4,162.65 384.79,165.38 385.14,168.12C385.49,170.85 385.82,173.58 386.11,176.32C386.4,179.05 386.66,181.79 386.89,184.52C387.12,187.25 387.3,189.99 387.47,192.72C387.64,195.46 387.77,198.19 387.89,200.93C388.01,203.66 388.08,206.4 388.17,209.13C388.25,211.86 388.32,214.6 388.4,217.33C388.48,220.06 388.55,222.8 388.64,225.53C388.74,228.26 388.84,231 388.97,233.73C389.1,236.46 389.25,239.2 389.42,241.93C389.59,244.66 389.79,247.4 390,250.13C390.21,252.86 390.44,255.6 390.68,258.33C390.92,261.06 391.19,263.8 391.46,266.53C391.73,269.27 392,272 392.29,274.74C392.57,277.47 392.87,280.21 393.17,282.94C393.47,285.67 393.77,288.41 394.08,291.14C394.39,293.87 394.7,296.61 395.01,299.34C395.32,302.07 395.63,304.81 395.93,307.54C396.23,310.27 396.52,313.01 396.8,315.74C397.07,318.47 397.34,321.21 397.58,323.94C397.82,326.67 398.05,329.41 398.26,332.14C398.47,334.87 398.65,337.61 398.82,340.34C398.99,343.07 399.14,345.81 399.27,348.54C399.41,351.28 399.52,354.01 399.63,356.75C399.74,359.48 399.83,362.22 399.92,364.95C400.01,367.68 400.08,370.42 400.15,373.15C400.22,375.88 400.29,378.62 400.35,381.35C400.41,384.08 400.46,386.82 400.51,389.55C400.56,392.28 400.6,395.02 400.64,397.75C400.68,400.48 400.71,403.22 400.74,405.95C400.77,408.68 400.79,411.42 400.82,414.15C400.85,416.88 400.88,419.62 400.91,422.35C400.94,425.09 400.98,427.82 401.02,430.56C401.06,433.29 401.11,436.03 401.16,438.76C401.21,441.49 401.27,444.23 401.33,446.96C401.39,449.69 401.45,452.43 401.52,455.16C401.59,457.89 401.66,460.63 401.73,463.36C401.8,466.09 401.88,468.83 401.95,471.56C402.02,474.29 402.1,477.03 402.17,479.76C402.25,482.49 402.32,485.23 402.4,487.96C402.48,490.69 402.56,493.43 402.64,496.16C402.72,498.9 402.81,501.63 402.89,504.37C402.97,507.1 403.05,509.84 403.12,512.57C403.19,515.3 403.26,518.04 403.32,520.77C403.38,523.5 403.44,526.24 403.48,528.97C403.52,531.7 403.55,534.44 403.57,537.17C403.59,539.9 403.6,542.64 403.6,545.37C403.6,548.1 403.59,550.84 403.56,553.57C403.53,556.3 403.49,559.04 403.44,561.77C403.39,564.5 403.32,567.24 403.25,569.97C403.18,572.7 403.09,575.44 403.02,578.17C402.94,580.91 402.86,583.64 402.8,586.38C402.74,589.11 402.68,591.85 402.65,594.58Q402.62,597.31 402.64,602.78Z" style="vector-effect: non-scaling-stroke; stroke-width: 2px; stroke: rgb(171, 99, 250); stroke-opacity: 1; fill: rgb(171, 99, 250); fill-opacity: 0.5;"/><path class="meanline" d="M425.97076416015625,153.21H382.90923583984375" style="fill: none; vector-effect: non-scaling-stroke; stroke-width: 3px; stroke-dasharray: 6px, 3px; stroke: rgb(255, 255, 255); stroke-opacity: 1;"/></g><g class="trace violins" style="opacity: 1;"><path class="violin" d="M521,602.78Q521.08,597.23 521.12,594.46C521.16,591.69 521.19,588.91 521.22,586.14C521.25,583.37 521.28,580.59 521.32,577.82C521.36,575.05 521.4,572.27 521.44,569.5C521.48,566.73 521.53,563.95 521.58,561.18C521.62,558.41 521.67,555.63 521.71,552.86C521.75,550.09 521.79,547.31 521.83,544.54C521.87,541.77 521.9,538.99 521.93,536.22C521.96,533.45 521.99,530.67 522.03,527.9C522.07,525.13 522.11,522.35 522.15,519.58C522.2,516.81 522.24,514.03 522.3,511.26C522.36,508.49 522.42,505.71 522.49,502.94C522.56,500.17 522.63,497.39 522.7,494.62C522.77,491.85 522.85,489.07 522.93,486.3C523.01,483.53 523.09,480.75 523.17,477.98C523.25,475.21 523.34,472.43 523.43,469.66C523.52,466.89 523.61,464.11 523.71,461.34C523.81,458.57 523.92,455.79 524.03,453.02C524.15,450.25 524.27,447.47 524.4,444.7C524.53,441.93 524.66,439.15 524.81,436.38C524.96,433.61 525.12,430.83 525.29,428.06C525.46,425.29 525.64,422.51 525.83,419.74C526.03,416.97 526.23,414.19 526.46,411.42C526.69,408.65 526.93,405.87 527.19,403.1C527.45,400.33 527.73,397.55 528.02,394.78C528.32,392.01 528.64,389.23 528.96,386.46C529.28,383.69 529.62,380.91 529.94,378.14C530.26,375.37 530.59,372.59 530.89,369.82C531.19,367.05 531.49,364.27 531.75,361.5C532.01,358.73 532.26,355.95 532.47,353.18C532.68,350.41 532.86,347.63 533.03,344.86C533.19,342.09 533.33,339.31 533.46,336.54C533.59,333.77 533.7,330.99 533.81,328.22C533.92,325.45 534.02,322.67 534.11,319.9C534.2,317.13 534.29,314.35 534.37,311.58C534.45,308.81 534.53,306.03 534.59,303.26C534.65,300.49 534.71,297.71 534.75,294.94C534.79,292.17 534.82,289.39 534.84,286.62C534.86,283.85 534.86,281.07 534.87,278.3C534.88,275.53 534.88,272.75 534.88,269.98C534.88,267.21 534.87,264.43 534.87,261.66C534.87,258.89 534.88,256.11 534.89,253.34C534.9,250.57 534.92,247.79 534.95,245.02C534.98,242.25 535.02,239.47 535.06,236.7C535.11,233.93 535.16,231.15 535.22,228.38C535.28,225.61 535.35,222.83 535.44,220.06C535.53,217.29 535.63,214.51 535.76,211.74C535.89,208.97 536.03,206.19 536.21,203.42C536.39,200.65 536.59,197.87 536.85,195.1C537.11,192.32 537.41,189.55 537.79,186.78C538.18,184 538.6,181.22 539.16,178.46C539.72,175.68 540.36,172.9 541.14,170.14C541.93,167.35 542.83,164.57 543.86,161.82C544.91,159.02 546.13,156.25 547.41,153.5C548.71,150.7 550.17,147.94 551.63,145.18C553.1,142.39 554.71,139.64 556.19,136.86C557.67,134.09 559.21,131.34 560.51,128.54C561.78,125.79 563.04,123.03 563.92,120.22C564.78,117.48 565.48,114.69 565.76,111.9C566.03,109.14 566,106.33 565.6,103.58C565.19,100.78 564.35,97.98 563.29,95.26C562.19,92.43 560.68,89.66 559.07,86.94C557.4,84.11 555.41,81.37 553.43,78.62C551.41,75.82 549.2,73.07 547.08,70.3C544.96,67.53 542.76,64.78 540.72,61.98C538.72,59.23 536.73,56.47 534.95,53.66C533.22,50.92 531.58,48.15 530.15,45.34C528.76,42.6 527.53,39.82 526.48,37.02Q525.45,34.28 523.88,28.7L516.12,28.7Q514.55,34.28 513.52,37.02C512.47,39.82 511.24,42.6 509.85,45.34C508.42,48.15 506.78,50.92 505.05,53.66C503.27,56.47 501.28,59.23 499.28,61.98C497.24,64.78 495.04,67.53 492.92,70.3C490.8,73.07 488.59,75.82 486.57,78.62C484.59,81.37 482.6,84.11 480.93,86.94C479.32,89.66 477.81,92.43 476.71,95.26C475.65,97.98 474.81,100.78 474.4,103.58C474,106.33 473.97,109.14 474.24,111.9C474.52,114.69 475.22,117.48 476.08,120.22C476.96,123.03 478.22,125.79 479.49,128.54C480.79,131.34 482.33,134.09 483.81,136.86C485.29,139.64 486.9,142.39 488.37,145.18C489.83,147.94 491.29,150.7 492.59,153.5C493.87,156.25 495.09,159.02 496.14,161.82C497.17,164.57 498.07,167.35 498.86,170.14C499.64,172.9 500.28,175.68 500.84,178.46C501.4,181.22 501.82,184 502.21,186.78C502.59,189.55 502.89,192.32 503.15,195.1C503.41,197.87 503.61,200.65 503.79,203.42C503.97,206.19 504.11,208.97 504.24,211.74C504.37,214.51 504.47,217.29 504.56,220.06C504.65,222.83 504.72,225.61 504.78,228.38C504.84,231.15 504.89,233.93 504.94,236.7C504.98,239.47 505.02,242.25 505.05,245.02C505.08,247.79 505.1,250.57 505.11,253.34C505.12,256.11 505.13,258.89 505.13,261.66C505.13,264.43 505.12,267.21 505.12,269.98C505.12,272.75 505.12,275.53 505.13,278.3C505.14,281.07 505.14,283.85 505.16,286.62C505.18,289.39 505.21,292.17 505.25,294.94C505.29,297.71 505.35,300.49 505.41,303.26C505.47,306.03 505.55,308.81 505.63,311.58C505.71,314.35 505.8,317.13 505.89,319.9C505.98,322.67 506.08,325.45 506.19,328.22C506.3,330.99 506.41,333.77 506.54,336.54C506.67,339.31 506.81,342.09 506.97,344.86C507.14,347.63 507.32,350.41 507.53,353.18C507.74,355.95 507.99,358.73 508.25,361.5C508.51,364.27 508.81,367.05 509.11,369.82C509.41,372.59 509.74,375.37 510.06,378.14C510.38,380.91 510.72,383.69 511.04,386.46C511.36,389.23 511.68,392.01 511.98,394.78C512.27,397.55 512.55,400.33 512.81,403.1C513.07,405.87 513.31,408.65 513.54,411.42C513.77,414.19 513.97,416.97 514.17,419.74C514.36,422.51 514.54,425.29 514.71,428.06C514.88,430.83 515.04,433.61 515.19,436.38C515.34,439.15 515.47,441.93 515.6,444.7C515.73,447.47 515.85,450.25 515.97,453.02C516.08,455.79 516.19,458.57 516.29,461.34C516.39,464.11 516.48,466.89 516.57,469.66C516.66,472.43 516.75,475.21 516.83,477.98C516.91,480.75 516.99,483.53 517.07,486.3C517.15,489.07 517.23,491.85 517.3,494.62C517.37,497.39 517.44,500.17 517.51,502.94C517.58,505.71 517.64,508.49 517.7,511.26C517.76,514.03 517.8,516.81 517.85,519.58C517.89,522.35 517.93,525.13 517.97,527.9C518.01,530.67 518.04,533.45 518.07,536.22C518.1,538.99 518.13,541.77 518.17,544.54C518.21,547.31 518.25,550.09 518.29,552.86C518.33,555.63 518.38,558.41 518.42,561.18C518.47,563.95 518.52,566.73 518.56,569.5C518.6,572.27 518.64,575.05 518.68,577.82C518.72,580.59 518.75,583.37 518.78,586.14C518.81,588.91 518.84,591.69 518.88,594.46Q518.92,597.23 519,602.78Z" style="vector-effect: non-scaling-stroke; stroke-width: 2px; stroke: rgb(255, 161, 90); stroke-opacity: 1; fill: rgb(255, 161, 90); fill-opacity: 0.5;"/><path class="meanline" d="M536.2024536132812,203.54H503.79754638671875" style="fill: none; vector-effect: non-scaling-stroke; stroke-width: 3px; stroke-dasharray: 6px, 3px; stroke: rgb(255, 255, 255); stroke-opacity: 1;"/></g><g class="trace violins" style="opacity: 1;"><path class="violin" d="M640.93,602.78Q641.07,596.51 641.06,593.37C641.05,590.23 640.97,587.1 640.89,583.96C640.81,580.82 640.67,577.68 640.59,574.54C640.51,571.4 640.42,568.27 640.39,565.13C640.36,561.99 640.36,558.86 640.41,555.72C640.46,552.58 640.56,549.45 640.71,546.31C640.86,543.17 641.06,540.04 641.29,536.9C641.52,533.76 641.8,530.63 642.11,527.49C642.42,524.35 642.76,521.21 643.13,518.08C643.5,514.94 643.91,511.8 644.35,508.67C644.79,505.53 645.26,502.39 645.75,499.26C646.24,496.12 646.77,492.99 647.29,489.85C647.81,486.71 648.35,483.57 648.86,480.43C649.37,477.29 649.89,474.16 650.33,471.02C650.77,467.89 651.19,464.75 651.52,461.61C651.85,458.48 652.13,455.34 652.33,452.2C652.53,449.07 652.65,445.93 652.73,442.79C652.81,439.65 652.81,436.52 652.82,433.38C652.83,430.24 652.78,427.11 652.78,423.97C652.78,420.83 652.76,417.7 652.8,414.56C652.84,411.42 652.91,408.29 653.05,405.15C653.19,402.01 653.38,398.87 653.64,395.73C653.9,392.59 654.22,389.45 654.59,386.32C654.96,383.18 655.4,380.04 655.87,376.91C656.34,373.77 656.86,370.63 657.4,367.5C657.94,364.36 658.53,361.23 659.11,358.09C659.69,354.95 660.3,351.82 660.9,348.68C661.5,345.54 662.11,342.41 662.69,339.27C663.27,336.13 663.84,333 664.37,329.86C664.9,326.73 665.41,323.59 665.87,320.45C666.33,317.32 666.76,314.18 667.15,311.04C667.54,307.9 667.88,304.76 668.2,301.62C668.52,298.48 668.8,295.35 669.08,292.21C669.35,289.07 669.6,285.94 669.85,282.8C670.1,279.66 670.33,276.53 670.57,273.39C670.81,270.25 671.05,267.12 671.3,263.98C671.55,260.84 671.79,257.71 672.05,254.57C672.31,251.43 672.58,248.3 672.87,245.16C673.16,242.02 673.45,238.89 673.77,235.75C674.09,232.61 674.44,229.48 674.81,226.34C675.19,223.2 675.59,220.06 676.02,216.92C676.45,213.78 676.91,210.65 677.37,207.51C677.83,204.37 678.32,201.24 678.77,198.1C679.21,194.96 679.67,191.83 680.04,188.69C680.41,185.56 680.76,182.42 680.97,179.28C681.18,176.15 681.32,173.01 681.32,169.87C681.32,166.73 681.19,163.59 680.95,160.46C680.71,157.32 680.33,154.18 679.88,151.05C679.43,147.91 678.84,144.77 678.24,141.64C677.64,138.5 676.95,135.37 676.3,132.23C675.65,129.09 674.96,125.95 674.35,122.81C673.74,119.68 673.15,116.54 672.63,113.4C672.11,110.27 671.66,107.13 671.23,103.99C670.8,100.86 670.46,97.72 670.07,94.58C669.68,91.44 669.36,88.3 668.91,85.17C668.46,82.03 668.01,78.89 667.39,75.76C666.77,72.61 666.06,69.47 665.19,66.35C664.31,63.2 663.28,60.06 662.15,56.94C661.01,53.78 659.69,50.65 658.36,47.53C657.01,44.38 655.53,41.25 654.1,38.11Q652.67,34.97 649.8,28.7L621.32,28.7Q618.44,34.97 617.01,38.11C615.58,41.25 614.11,44.38 612.76,47.53C611.43,50.65 610.11,53.78 608.96,56.94C607.83,60.06 606.8,63.2 605.92,66.35C605.05,69.47 604.34,72.61 603.72,75.76C603.1,78.89 602.65,82.03 602.2,85.17C601.75,88.3 601.43,91.44 601.04,94.58C600.66,97.72 600.31,100.86 599.89,103.99C599.46,107.13 599.01,110.27 598.49,113.4C597.97,116.54 597.37,119.68 596.76,122.81C596.15,125.95 595.46,129.09 594.81,132.23C594.16,135.37 593.47,138.5 592.87,141.64C592.28,144.77 591.69,147.91 591.24,151.05C590.79,154.18 590.4,157.32 590.16,160.46C589.92,163.59 589.8,166.73 589.8,169.87C589.8,173.01 589.93,176.15 590.14,179.28C590.35,182.42 590.7,185.56 591.07,188.69C591.44,191.83 591.9,194.96 592.34,198.1C592.79,201.24 593.28,204.37 593.74,207.51C594.2,210.65 594.66,213.78 595.09,216.92C595.52,220.06 595.92,223.2 596.3,226.34C596.67,229.48 597.02,232.61 597.34,235.75C597.66,238.89 597.95,242.02 598.24,245.16C598.53,248.3 598.8,251.43 599.06,254.57C599.32,257.71 599.56,260.84 599.81,263.98C600.06,267.12 600.3,270.25 600.54,273.39C600.78,276.53 601.02,279.66 601.27,282.8C601.52,285.94 601.77,289.07 602.04,292.21C602.31,295.35 602.59,298.48 602.91,301.62C603.23,304.76 603.57,307.9 603.96,311.04C604.35,314.18 604.78,317.32 605.24,320.45C605.7,323.59 606.21,326.73 606.74,329.86C607.27,333 607.84,336.13 608.42,339.27C609,342.41 609.61,345.54 610.21,348.68C610.81,351.82 611.42,354.95 612,358.09C612.58,361.23 613.17,364.36 613.71,367.5C614.25,370.63 614.77,373.77 615.24,376.91C615.71,380.04 616.15,383.18 616.52,386.32C616.89,389.45 617.21,392.59 617.47,395.73C617.73,398.87 617.92,402.01 618.06,405.15C618.2,408.29 618.26,411.42 618.31,414.56C618.36,417.7 618.34,420.83 618.34,423.97C618.34,427.11 618.28,430.24 618.29,433.38C618.3,436.52 618.3,439.65 618.38,442.79C618.46,445.93 618.58,449.07 618.78,452.2C618.98,455.34 619.26,458.48 619.59,461.61C619.92,464.75 620.34,467.89 620.78,471.02C621.22,474.16 621.74,477.29 622.25,480.43C622.76,483.57 623.3,486.71 623.82,489.85C624.34,492.99 624.87,496.12 625.36,499.26C625.85,502.39 626.32,505.53 626.76,508.67C627.2,511.8 627.61,514.94 627.98,518.08C628.35,521.21 628.69,524.35 629,527.49C629.31,530.63 629.59,533.76 629.82,536.9C630.05,540.04 630.25,543.17 630.4,546.31C630.55,549.45 630.65,552.58 630.7,555.72C630.75,558.86 630.75,561.99 630.72,565.13C630.69,568.27 630.6,571.4 630.52,574.54C630.44,577.68 630.31,580.82 630.23,583.96C630.15,587.1 630.06,590.23 630.05,593.37Q630.04,596.51 630.18,602.78Z" style="vector-effect: non-scaling-stroke; stroke-width: 2px; stroke: rgb(25, 211, 243); stroke-opacity: 1; fill: rgb(25, 211, 243); fill-opacity: 0.5;"/><path class="meanline" d="M672.7564086914062,246.41H598.3635913085936" style="fill: none; vector-effect: non-scaling-stroke; stroke-width: 3px; stroke-dasharray: 6px, 3px; stroke: rgb(255, 255, 255); stroke-opacity: 1;"/></g><g class="trace violins" style="opacity: 1;"><path class="violin" d="M761.87,602.78Q762.09,595.56 762.04,591.95C761.99,588.34 761.77,584.72 761.59,581.11C761.4,577.5 761.11,573.89 760.93,570.28C760.75,566.67 760.56,563.06 760.5,559.45C760.44,555.84 760.46,552.23 760.58,548.62C760.7,545.01 760.94,541.4 761.25,537.79C761.56,534.18 761.99,530.57 762.46,526.96C762.93,523.35 763.49,519.74 764.08,516.13C764.67,512.51 765.33,508.9 766,505.29C766.67,501.68 767.38,498.07 768.09,494.46C768.8,490.85 769.54,487.24 770.25,483.63C770.96,480.02 771.69,476.41 772.35,472.8C773.01,469.19 773.65,465.58 774.22,461.97C774.79,458.36 775.31,454.76 775.75,451.14C776.19,447.53 776.54,443.92 776.84,440.3C777.14,436.69 777.36,433.08 777.55,429.47C777.74,425.86 777.85,422.25 777.99,418.64C778.13,415.03 778.24,411.42 778.4,407.81C778.57,404.2 778.73,400.59 778.98,396.98C779.23,393.37 779.54,389.76 779.92,386.15C780.3,382.53 780.76,378.92 781.26,375.31C781.76,371.7 782.35,368.09 782.93,364.48C783.51,360.87 784.15,357.26 784.75,353.65C785.35,350.04 785.97,346.43 786.53,342.82C787.08,339.21 787.63,335.6 788.08,331.99C788.53,328.38 788.93,324.77 789.22,321.16C789.51,317.55 789.73,313.93 789.83,310.32C789.93,306.71 789.93,303.1 789.84,299.49C789.75,295.88 789.54,292.27 789.29,288.66C789.04,285.05 788.68,281.44 788.34,277.83C788,274.22 787.58,270.61 787.23,267C786.88,263.39 786.51,259.78 786.24,256.17C785.97,252.56 785.74,248.95 785.61,245.34C785.48,241.73 785.43,238.11 785.48,234.5C785.53,230.89 785.68,227.28 785.91,223.67C786.15,220.06 786.49,216.45 786.89,212.84C787.29,209.23 787.8,205.62 788.33,202.01C788.86,198.4 789.49,194.79 790.09,191.18C790.69,187.57 791.35,183.96 791.94,180.35C792.53,176.74 793.12,173.13 793.62,169.51C794.12,165.9 794.58,162.29 794.95,158.68C795.32,155.07 795.59,151.46 795.82,147.85C796.05,144.24 796.19,140.63 796.31,137.02C796.43,133.41 796.48,129.8 796.54,126.19C796.6,122.58 796.64,118.97 796.68,115.36C796.72,111.75 796.77,108.13 796.8,104.52C796.83,100.91 796.88,97.3 796.87,93.69C796.86,90.08 796.86,86.47 796.71,82.86C796.56,79.25 796.39,75.63 795.98,72.03C795.57,68.41 795.05,64.79 794.24,61.2C793.42,57.56 792.37,53.94 791.09,50.37C789.78,46.72 788.16,43.11 786.41,39.54Q784.62,35.88 780.44,28.7L721.78,28.7Q717.61,35.88 715.82,39.54C714.07,43.11 712.44,46.72 711.13,50.37C709.85,53.94 708.81,57.56 707.99,61.2C707.18,64.79 706.65,68.41 706.24,72.03C705.83,75.63 705.66,79.25 705.51,82.86C705.36,86.47 705.36,90.08 705.35,93.69C705.34,97.3 705.39,100.91 705.42,104.52C705.45,108.13 705.5,111.75 705.54,115.36C705.58,118.97 705.62,122.58 705.68,126.19C705.74,129.8 705.79,133.41 705.91,137.02C706.03,140.63 706.17,144.24 706.4,147.85C706.63,151.46 706.9,155.07 707.27,158.68C707.64,162.29 708.1,165.9 708.6,169.51C709.1,173.13 709.7,176.74 710.29,180.35C710.88,183.96 711.53,187.57 712.13,191.18C712.73,194.79 713.35,198.4 713.89,202.01C714.42,205.62 714.94,209.23 715.34,212.84C715.74,216.45 716.07,220.06 716.31,223.67C716.54,227.28 716.7,230.89 716.75,234.5C716.8,238.11 716.74,241.73 716.61,245.34C716.48,248.95 716.25,252.56 715.98,256.17C715.71,259.78 715.34,263.39 714.99,267C714.64,270.61 714.22,274.22 713.88,277.83C713.54,281.44 713.18,285.05 712.93,288.66C712.68,292.27 712.47,295.88 712.38,299.49C712.29,303.1 712.29,306.71 712.39,310.32C712.49,313.93 712.71,317.55 713,321.16C713.29,324.77 713.69,328.38 714.14,331.99C714.59,335.6 715.14,339.21 715.69,342.82C716.25,346.43 716.87,350.04 717.47,353.65C718.07,357.26 718.72,360.87 719.3,364.48C719.88,368.09 720.46,371.7 720.96,375.31C721.46,378.92 721.92,382.53 722.3,386.15C722.68,389.76 722.98,393.37 723.24,396.98C723.49,400.59 723.66,404.2 723.83,407.81C723.99,411.42 724.09,415.03 724.23,418.64C724.37,422.25 724.48,425.86 724.67,429.47C724.86,433.08 725.08,436.69 725.38,440.3C725.68,443.92 726.04,447.53 726.48,451.14C726.92,454.76 727.44,458.36 728,461.97C728.57,465.58 729.21,469.19 729.87,472.8C730.53,476.41 731.26,480.02 731.97,483.63C732.68,487.24 733.42,490.85 734.13,494.46C734.84,498.07 735.56,501.68 736.23,505.29C736.9,508.9 737.55,512.51 738.14,516.13C738.73,519.74 739.29,523.35 739.76,526.96C740.23,530.57 740.66,534.18 740.97,537.79C741.28,541.4 741.52,545.01 741.64,548.62C741.76,552.23 741.78,555.84 741.72,559.45C741.66,563.06 741.47,566.67 741.29,570.28C741.11,573.89 740.82,577.5 740.64,581.11C740.46,584.72 740.24,588.34 740.19,591.95Q740.14,595.56 740.35,602.78Z" style="vector-effect: non-scaling-stroke; stroke-width: 2px; stroke: rgb(255, 102, 146); stroke-opacity: 1; fill: rgb(255, 102, 146); fill-opacity: 0.5;"/><path class="meanline" d="M786.177734375,255.32H716.042265625" style="fill: none; vector-effect: non-scaling-stroke; stroke-width: 3px; stroke-dasharray: 6px, 3px; stroke: rgb(255, 255, 255); stroke-opacity: 1;"/></g><g class="trace violins" style="opacity: 1;"><path class="violin" d="M873.99,602.78Q874.12,596.18 874.08,592.88C874.04,589.58 873.89,586.28 873.77,582.98C873.65,579.68 873.45,576.38 873.35,573.08C873.25,569.78 873.15,566.49 873.17,563.19C873.19,559.89 873.28,556.59 873.49,553.29C873.7,549.99 874,546.68 874.42,543.39C874.84,540.08 875.37,536.78 875.99,533.49C876.62,530.18 877.36,526.89 878.17,523.6C878.99,520.29 879.91,516.99 880.88,513.7C881.85,510.39 882.93,507.1 884,503.8C885.07,500.5 886.22,497.2 887.31,493.9C888.4,490.6 889.52,487.31 890.52,484C891.51,480.71 892.48,477.42 893.28,474.11C894.08,470.82 894.79,467.52 895.33,464.21C895.87,460.92 896.26,457.62 896.54,454.31C896.82,451.02 896.94,447.71 897,444.41C897.06,441.11 896.98,437.81 896.92,434.51C896.86,431.21 896.71,427.92 896.63,424.62C896.55,421.32 896.44,418.02 896.42,414.72C896.4,411.42 896.41,408.12 896.53,404.82C896.65,401.52 896.84,398.22 897.12,394.92C897.4,391.62 897.77,388.32 898.22,385.03C898.67,381.73 899.21,378.42 899.8,375.13C900.39,371.82 901.06,368.53 901.75,365.23C902.44,361.93 903.18,358.63 903.92,355.33C904.66,352.03 905.44,348.73 906.18,345.43C906.91,342.13 907.66,338.84 908.33,335.54C909,332.25 909.65,328.95 910.19,325.64C910.73,322.35 911.21,319.05 911.57,315.74C911.93,312.45 912.19,309.14 912.33,305.84C912.47,302.54 912.49,299.25 912.43,295.95C912.37,292.65 912.17,289.35 911.95,286.05C911.73,282.75 911.41,279.45 911.09,276.15C910.77,272.85 910.39,269.55 910.05,266.25C909.71,262.95 909.36,259.65 909.06,256.35C908.76,253.05 908.48,249.76 908.27,246.46C908.06,243.16 907.91,239.86 907.82,236.56C907.73,233.26 907.71,229.96 907.75,226.66C907.79,223.36 907.92,220.06 908.08,216.76C908.24,213.46 908.47,210.16 908.7,206.86C908.93,203.56 909.22,200.27 909.45,196.97C909.68,193.67 909.92,190.37 910.07,187.07C910.22,183.77 910.33,180.47 910.33,177.17C910.33,173.87 910.24,170.57 910.08,167.27C909.92,163.97 909.64,160.68 909.35,157.38C909.05,154.08 908.67,150.78 908.31,147.48C907.95,144.18 907.55,140.88 907.19,137.58C906.84,134.28 906.49,130.98 906.18,127.68C905.87,124.38 905.6,121.08 905.34,117.78C905.08,114.48 904.87,111.19 904.62,107.89C904.37,104.59 904.13,101.29 903.82,97.99C903.51,94.69 903.19,91.38 902.75,88.09C902.31,84.78 901.8,81.48 901.17,78.19C900.54,74.88 899.8,71.58 898.95,68.3C898.09,64.99 897.1,61.68 896.03,58.4C894.95,55.08 893.74,51.79 892.48,48.5C891.21,45.19 889.82,41.89 888.44,38.6Q887.05,35.29 884.17,28.7L849.16,28.7Q846.28,35.29 844.89,38.6C843.51,41.89 842.13,45.19 840.86,48.5C839.6,51.79 838.38,55.08 837.3,58.4C836.23,61.68 835.25,64.99 834.39,68.3C833.54,71.58 832.79,74.88 832.16,78.19C831.53,81.48 831.03,84.78 830.59,88.09C830.15,91.38 829.82,94.69 829.51,97.99C829.2,101.29 828.97,104.59 828.72,107.89C828.47,111.19 828.25,114.48 827.99,117.78C827.73,121.08 827.46,124.38 827.15,127.68C826.84,130.98 826.49,134.28 826.14,137.58C825.78,140.88 825.38,144.18 825.02,147.48C824.66,150.78 824.28,154.08 823.98,157.38C823.69,160.68 823.41,163.97 823.25,167.27C823.09,170.57 823,173.87 823,177.17C823,180.47 823.11,183.77 823.26,187.07C823.41,190.37 823.65,193.67 823.88,196.97C824.11,200.27 824.4,203.56 824.63,206.86C824.86,210.16 825.1,213.46 825.26,216.76C825.42,220.06 825.54,223.36 825.58,226.66C825.62,229.96 825.61,233.26 825.52,236.56C825.43,239.86 825.27,243.16 825.06,246.46C824.85,249.76 824.58,253.05 824.28,256.35C823.98,259.65 823.62,262.95 823.28,266.25C822.94,269.55 822.56,272.85 822.24,276.15C821.92,279.45 821.6,282.75 821.38,286.05C821.16,289.35 820.97,292.65 820.91,295.95C820.85,299.25 820.87,302.54 821.01,305.84C821.15,309.14 821.42,312.45 821.77,315.74C822.13,319.05 822.6,322.35 823.14,325.64C823.68,328.95 824.33,332.25 825,335.54C825.67,338.84 826.43,342.13 827.16,345.43C827.9,348.73 828.67,352.03 829.41,355.33C830.15,358.63 830.9,361.93 831.59,365.23C832.28,368.53 832.94,371.82 833.53,375.13C834.12,378.42 834.66,381.73 835.11,385.03C835.56,388.32 835.94,391.62 836.22,394.92C836.5,398.22 836.68,401.52 836.8,404.82C836.92,408.12 836.93,411.42 836.92,414.72C836.91,418.02 836.8,421.32 836.71,424.62C836.63,427.92 836.47,431.21 836.41,434.51C836.35,437.81 836.27,441.11 836.33,444.41C836.39,447.71 836.51,451.02 836.79,454.31C837.07,457.62 837.46,460.92 838,464.21C838.54,467.52 839.25,470.82 840.05,474.11C840.86,477.42 841.83,480.71 842.82,484C843.82,487.31 844.94,490.6 846.02,493.9C847.11,497.2 848.26,500.5 849.33,503.8C850.4,507.1 851.48,510.39 852.45,513.7C853.42,516.99 854.34,520.29 855.16,523.6C855.97,526.89 856.71,530.18 857.34,533.49C857.96,536.78 858.49,540.08 858.91,543.39C859.33,546.68 859.63,549.99 859.84,553.29C860.05,556.59 860.14,559.89 860.16,563.19C860.18,566.49 860.08,569.78 859.98,573.08C859.88,576.38 859.69,579.68 859.57,582.98C859.45,586.28 859.29,589.58 859.25,592.88Q859.21,596.18 859.34,602.78Z" style="vector-effect: non-scaling-stroke; stroke-width: 2px; stroke: rgb(182, 232, 128); stroke-opacity: 1; fill: rgb(182, 232, 128); fill-opacity: 0.5;"/><path class="meanline" d="M910.5602416992188,271.04H822.7797583007812" style="fill: none; vector-effect: non-scaling-stroke; stroke-width: 3px; stroke-dasharray: 6px, 3px; stroke: rgb(255, 255, 255); stroke-opacity: 1;"/></g><g class="trace violins" style="opacity: 1;"><path class="violin" d="M1004.17,602.78Q1006.94,592.45 1008.02,587.26C1009.09,582.11 1010,576.94 1010.63,571.75C1011.26,566.59 1011.63,561.41 1011.8,556.23C1011.97,551.06 1011.87,545.89 1011.67,540.72C1011.47,535.54 1011.03,530.37 1010.59,525.2C1010.15,520.02 1009.55,514.85 1009.01,509.68C1008.46,504.51 1007.87,499.34 1007.32,494.17C1006.77,489 1006.23,483.82 1005.73,478.65C1005.23,473.48 1004.76,468.31 1004.3,463.14C1003.85,457.97 1003.43,452.79 1003,447.62C1002.57,442.45 1002.15,437.28 1001.71,432.11C1001.27,426.94 1000.82,421.76 1000.35,416.59C999.87,411.42 999.37,406.25 998.86,401.08C998.34,395.91 997.81,390.73 997.26,385.56C996.71,380.39 996.14,375.22 995.58,370.05C995.02,364.88 994.44,359.7 993.88,354.53C993.32,349.36 992.77,344.18 992.24,339.01C991.72,333.84 991.2,328.67 990.73,323.5C990.26,318.33 989.81,313.15 989.42,307.98C989.03,302.81 988.68,297.64 988.38,292.47C988.08,287.3 987.83,282.12 987.63,276.95C987.43,271.78 987.28,266.61 987.17,261.44C987.06,256.27 987,251.09 986.98,245.92C986.96,240.75 986.97,235.58 987.02,230.41C987.07,225.24 987.16,220.06 987.29,214.89C987.42,209.72 987.57,204.54 987.79,199.37C988.01,194.2 988.26,189.03 988.61,183.86C988.96,178.68 989.35,173.51 989.91,168.34C990.47,163.16 991.09,157.99 991.95,152.83C992.81,147.64 993.81,142.46 995.08,137.31C996.36,132.11 997.87,126.94 999.6,121.8C1001.35,116.59 1003.41,111.42 1005.55,106.28C1007.72,101.08 1010.2,95.94 1012.54,90.77C1014.88,85.6 1017.46,80.47 1019.59,75.25C1021.68,70.12 1023.83,64.96 1025.23,59.73C1026.6,54.62 1027.7,49.41 1027.98,44.22Q1028.25,39.06 1026.9,28.7L937.55,28.7Q936.19,39.06 936.46,44.22C936.73,49.41 937.84,54.62 939.21,59.73C940.62,64.96 942.76,70.12 944.86,75.25C946.99,80.46 949.57,85.6 951.91,90.77C954.25,95.94 956.73,101.08 958.9,106.28C961.04,111.42 963.1,116.59 964.85,121.8C966.58,126.94 968.08,132.11 969.36,137.31C970.62,142.46 971.63,147.64 972.49,152.83C973.35,157.99 973.98,163.16 974.54,168.34C975.1,173.51 975.49,178.68 975.84,183.86C976.19,189.03 976.43,194.2 976.65,199.37C976.87,204.54 977.02,209.72 977.15,214.89C977.28,220.06 977.37,225.24 977.42,230.41C977.47,235.58 977.49,240.75 977.47,245.92C977.45,251.09 977.39,256.27 977.28,261.44C977.17,266.61 977.02,271.78 976.82,276.95C976.62,282.12 976.36,287.3 976.06,292.47C975.76,297.64 975.41,302.81 975.02,307.98C974.63,313.15 974.19,318.33 973.72,323.5C973.25,328.67 972.74,333.84 972.21,339.01C971.68,344.18 971.12,349.36 970.56,354.53C970,359.7 969.42,364.88 968.86,370.05C968.3,375.22 967.73,380.39 967.18,385.56C966.63,390.73 966.09,395.91 965.58,401.08C965.07,406.25 964.57,411.42 964.1,416.59C963.63,421.76 963.18,426.94 962.74,432.11C962.3,437.28 961.88,442.45 961.45,447.62C961.02,452.79 960.6,457.97 960.14,463.14C959.69,468.31 959.22,473.48 958.72,478.65C958.22,483.82 957.68,489 957.13,494.17C956.58,499.34 955.98,504.51 955.43,509.68C954.89,514.85 954.3,520.02 953.86,525.2C953.42,530.37 952.98,535.54 952.78,540.72C952.58,545.89 952.47,551.06 952.64,556.23C952.81,561.41 953.18,566.59 953.81,571.75C954.44,576.94 955.35,582.11 956.42,587.26Q957.5,592.45 960.27,602.78Z" style="vector-effect: non-scaling-stroke; stroke-width: 2px; stroke: rgb(255, 151, 255); stroke-opacity: 1; fill: rgb(255, 151, 255); fill-opacity: 0.5;"/><path class="meanline" d="M987.968505859375,284.73H976.471494140625" style="fill: none; vector-effect: non-scaling-stroke; stroke-width: 3px; stroke-dasharray: 6px, 3px; stroke: rgb(255, 255, 255); stroke-opacity: 1;"/></g></g><g class="scatterlayer mlayer"><g class="trace scatter traceec08a3" style="stroke-miterlimit: 2; opacity: 1;"><g class="fills"/><g class="errorbars"/><g class="lines"/><g class="points"/><g class="text"><g class="textpoint" transform="translate(0,13.5)"><text x="57.78" y="6.03" text-anchor="middle" style="font-family: verdana; font-size: 18px; fill: rgb(0, 0, 0); fill-opacity: 1; white-space: pre;">0.887</text></g><g class="textpoint" transform="translate(0,13.5)"><text x="173.33" y="6.03" text-anchor="middle" style="font-family: verdana; font-size: 18px; fill: rgb(0, 0, 0); fill-opacity: 1; white-space: pre;">0.862</text></g><g class="textpoint" transform="translate(0,13.5)"><text x="288.89" y="6.03" text-anchor="middle" style="font-family: verdana; font-size: 18px; fill: rgb(0, 0, 0); fill-opacity: 1; white-space: pre;">0.804</text></g><g class="textpoint" transform="translate(0,13.5)"><text x="404.44" y="6.03" text-anchor="middle" style="font-family: verdana; font-size: 18px; fill: rgb(0, 0, 0); fill-opacity: 1; white-space: pre;">0.783</text></g><g class="textpoint" transform="translate(0,13.5)"><text x="520" y="6.03" text-anchor="middle" style="font-family: verdana; font-size: 18px; fill: rgb(0, 0, 0); fill-opacity: 1; white-space: pre;">0.695</text></g><g class="textpoint" transform="translate(0,13.5)"><text x="635.56" y="6.03" text-anchor="middle" style="font-family: verdana; font-size: 18px; fill: rgb(0, 0, 0); fill-opacity: 1; white-space: pre;">0.621</text></g><g class="textpoint" transform="translate(0,13.5)"><text x="751.11" y="6.03" text-anchor="middle" style="font-family: verdana; font-size: 18px; fill: rgb(0, 0, 0); fill-opacity: 1; white-space: pre;">0.605</text></g><g class="textpoint" transform="translate(0,13.5)"><text x="866.67" y="6.03" text-anchor="middle" style="font-family: verdana; font-size: 18px; fill: rgb(0, 0, 0); fill-opacity: 1; white-space: pre;">0.578</text></g><g class="textpoint" transform="translate(0,13.5)"><text x="982.22" y="6.03" text-anchor="middle" style="font-family: verdana; font-size: 18px; fill: rgb(0, 0, 0); fill-opacity: 1; white-space: pre;">0.554</text></g></g></g></g></g><g class="overplot"/><path class="xlines-above crisp" d="M0,0" style="fill: none;"/><path class="ylines-above crisp" d="M0,0" style="fill: none;"/><g class="overlines-above"/><g class="xaxislayer-above"><g class="xtick"><text text-anchor="middle" x="0" y="739" transform="translate(137.78,0)" style="font-family: verdana; font-size: 18px; fill: rgb(0, 0, 0); fill-opacity: 1; white-space: pre; opacity: 1;">RoRoFold</text></g><g class="xtick"><text text-anchor="middle" x="0" y="739" transform="translate(253.33,0)" style="font-family: verdana; font-size: 18px; fill: rgb(0, 0, 0); fill-opacity: 1; white-space: pre; opacity: 1;">Ufold</text></g><g class="xtick"><text text-anchor="middle" x="0" y="739" transform="translate(368.89,0)" style="font-family: verdana; font-size: 18px; fill: rgb(0, 0, 0); fill-opacity: 1; white-space: pre; opacity: 1;">MXfold2</text></g><g class="xtick"><text text-anchor="middle" x="0" y="739" transform="translate(484.44,0)" style="font-family: verdana; font-size: 18px; fill: rgb(0, 0, 0); fill-opacity: 1; white-space: pre; opacity: 1;">ContextFold</text></g><g class="xtick"><text text-anchor="middle" x="0" y="739" transform="translate(600,0)" style="font-family: verdana; font-size: 18px; fill: rgb(0, 0, 0); fill-opacity: 1; white-space: pre; opacity: 1;">SPOT-RNA</text></g><g class="xtick"><text text-anchor="middle" x="0" y="739" transform="translate(715.56,0)" style="font-family: verdana; font-size: 18px; fill: rgb(0, 0, 0); fill-opacity: 1; white-space: pre; opacity: 1;">ContraFold</text></g><g class="xtick"><text text-anchor="middle" x="0" y="739" transform="translate(831.11,0)" style="font-family: verdana; font-size: 18px; fill: rgb(0, 0, 0); fill-opacity: 1; white-space: pre; opacity: 1;">LinearFold</text></g><g class="xtick"><text text-anchor="middle" x="0" y="739" transform="translate(946.67,0)" style="font-family: verdana; font-size: 18px; fill: rgb(0, 0, 0); fill-opacity: 1; white-space: pre; opacity: 1;">RNAfold</text></g><g class="xtick"><text text-anchor="middle" x="0" y="739" transform="translate(1062.22,0)" style="font-family: verdana; font-size: 18px; fill: rgb(0, 0, 0); fill-opacity: 1; white-space: pre; opacity: 1;">E2Efold</text></g></g><g class="yaxislayer-above"><g class="ytick"><text text-anchor="end" x="79" y="6.3" transform="translate(0,702.78)" style="font-family: verdana; font-size: 18px; fill: rgb(0, 0, 0); fill-opacity: 1; white-space: pre; opacity: 1;">0</text></g><g class="ytick"><text text-anchor="end" x="79" y="6.3" style="font-family: verdana; font-size: 18px; fill: rgb(0, 0, 0); fill-opacity: 1; white-space: pre; opacity: 1;" transform="translate(0,587.96)">0.2</text></g><g class="ytick"><text text-anchor="end" x="79" y="6.3" style="font-family: verdana; font-size: 18px; fill: rgb(0, 0, 0); fill-opacity: 1; white-space: pre; opacity: 1;" transform="translate(0,473.15)">0.4</text></g><g class="ytick"><text text-anchor="end" x="79" y="6.3" style="font-family: verdana; font-size: 18px; fill: rgb(0, 0, 0); fill-opacity: 1; white-space: pre; opacity: 1;" transform="translate(0,358.33)">0.6</text></g><g class="ytick"><text text-anchor="end" x="79" y="6.3" style="font-family: verdana; font-size: 18px; fill: rgb(0, 0, 0); fill-opacity: 1; white-space: pre; opacity: 1;" transform="translate(0,243.52)">0.8</text></g><g class="ytick"><text text-anchor="end" x="79" y="6.3" style="font-family: verdana; font-size: 18px; fill: rgb(0, 0, 0); fill-opacity: 1; white-space: pre; opacity: 1;" transform="translate(0,128.7)">1</text></g></g><g class="overaxes-above"/></g></g><g class="polarlayer"/><g class="smithlayer"/><g class="ternarylayer"/><g class="geolayer"/><g class="funnelarealayer"/><g class="pielayer"/><g class="iciclelayer"/><g class="treemaplayer"/><g class="sunburstlayer"/><g class="glimages"/><defs id="topdefs-050b88"><g class="clips"/></defs><g class="layer-above"><g class="imagelayer"/><g class="shapelayer"/></g><g class="infolayer"><g class="g-gtitle"/><g class="g-xtitle"/><g class="g-ytitle" transform="translate(2.837890625,0)"><text class="ytitle" transform="rotate(-90,19.1625,410)" x="19.1625" y="410" text-anchor="middle" style="font-family: verdana; font-size: 22px; fill: rgb(0, 0, 0); opacity: 1; font-weight: normal; white-space: pre;">f1</text></g></g></svg>