<svg class="main-svg" xmlns="http://www.w3.org/2000/svg" xmlns:xlink="http://www.w3.org/1999/xlink" width="2800" height="1600" style="" viewBox="0 0 1400 800"><rect x="0" y="0" width="1400" height="800" style="fill: rgb(255, 255, 255); fill-opacity: 1;"/><defs id="defs-35c4a4"><g class="clips"><clipPath id="clip35c4a4xyplot" class="plotclip"><rect width="1240" height="620"/></clipPath><clipPath class="axesclip" id="clip35c4a4x"><rect x="80" y="0" width="1240" height="800"/></clipPath><clipPath class="axesclip" id="clip35c4a4y"><rect x="0" y="100" width="1400" height="620"/></clipPath><clipPath class="axesclip" id="clip35c4a4xy"><rect x="80" y="100" width="1240" height="620"/></clipPath></g><g class="gradients"/><g class="patterns"/></defs><g class="bglayer"><rect class="bg" x="80" y="100" width="1240" height="620" style="fill: rgb(229, 236, 246); fill-opacity: 1; stroke-width: 0;"/></g><g class="layer-below"><g class="imagelayer"/><g class="shapelayer"/></g><g class="cartesianlayer"><g class="subplot xy"><g class="layer-subplot"><g class="shapelayer"/><g class="imagelayer"/></g><g class="gridlayer"><g class="x"/><g class="y"><path class="ygrid crisp" transform="translate(0,587.96)" d="M80,0h1240" style="stroke: rgb(255, 255, 255); stroke-opacity: 1; stroke-width: 1px;"/><path class="ygrid crisp" transform="translate(0,473.15)" d="M80,0h1240" style="stroke: rgb(255, 255, 255); stroke-opacity: 1; stroke-width: 1px;"/><path class="ygrid crisp" transform="translate(0,358.33)" d="M80,0h1240" style="stroke: rgb(255, 255, 255); stroke-opacity: 1; stroke-width: 1px;"/><path class="ygrid crisp" transform="translate(0,243.52)" d="M80,0h1240" style="stroke: rgb(255, 255, 255); stroke-opacity: 1; stroke-width: 1px;"/><path class="ygrid crisp" transform="translate(0,128.7)" d="M80,0h1240" style="stroke: rgb(255, 255, 255); stroke-opacity: 1; stroke-width: 1px;"/></g></g><g class="zerolinelayer"><path class="yzl zl crisp" transform="translate(0,702.78)" d="M80,0h1240" style="stroke: rgb(255, 255, 255); stroke-opacity: 1; stroke-width: 2px;"/></g><path class="xlines-below"/><path class="ylines-below"/><g class="overlines-below"/><g class="xaxislayer-below"/><g class="yaxislayer-below"/><g class="overaxes-below"/><g class="plot" transform="translate(80,100)" clip-path="url(#clip35c4a4xyplot)"><g class="violinlayer mlayer"><g class="trace violins" style="opacity: 1;"><path class="violin" d="M77.5,28.7L11.24,28.7Q9,33.27 9.03,35.54C9.06,37.82 10.23,40.19 11.42,42.37C12.72,44.76 14.85,46.97 16.74,49.21C18.69,51.53 20.96,53.74 22.94,56.04C24.88,58.29 26.83,60.54 28.51,62.87C30.12,65.1 31.56,67.39 32.85,69.71C34.1,71.95 35.14,74.25 36.16,76.54C37.17,78.8 38.03,81.1 38.94,83.38C39.84,85.65 40.69,87.93 41.59,90.21C42.49,92.49 43.4,94.77 44.32,97.05C45.24,99.33 46.18,101.6 47.11,103.88C48.04,106.16 48.98,108.43 49.89,110.71C50.8,112.99 51.7,115.27 52.57,117.55C53.43,119.82 54.27,122.1 55.07,124.38C55.87,126.65 56.64,128.93 57.36,131.22C58.08,133.49 58.75,135.77 59.38,138.05C60.01,140.32 60.59,142.61 61.14,144.89C61.69,147.16 62.19,149.44 62.66,151.72C63.13,153.99 63.57,156.27 63.98,158.55C64.39,160.83 64.78,163.11 65.14,165.39C65.5,167.67 65.83,169.94 66.13,172.22C66.43,174.5 66.7,176.78 66.94,179.06C67.18,181.34 67.38,183.61 67.57,185.89C67.76,188.17 67.92,190.44 68.07,192.72C68.23,195 68.36,197.28 68.5,199.56C68.64,201.84 68.77,204.11 68.92,206.39C69.07,208.67 69.23,210.95 69.39,213.23C69.55,215.51 69.73,217.78 69.9,220.06C70.07,222.34 70.26,224.62 70.43,226.9C70.6,229.18 70.78,231.45 70.94,233.73C71.1,236.01 71.24,238.28 71.38,240.56C71.52,242.84 71.65,245.12 71.77,247.4C71.89,249.68 72,251.95 72.11,254.23C72.22,256.51 72.32,258.79 72.42,261.07C72.52,263.35 72.63,265.62 72.72,267.9C72.81,270.18 72.9,272.46 72.98,274.74C73.06,277.02 73.14,279.29 73.21,281.57C73.28,283.85 73.35,286.12 73.41,288.4C73.47,290.68 73.52,292.96 73.57,295.24C73.62,297.52 73.67,299.79 73.71,302.07C73.75,304.35 73.8,306.63 73.83,308.91C73.86,311.19 73.89,313.46 73.9,315.74C73.91,318.02 73.92,320.29 73.91,322.57C73.9,324.85 73.89,327.13 73.86,329.41C73.84,331.69 73.8,333.96 73.76,336.24C73.72,338.52 73.67,340.8 73.62,343.08C73.57,345.36 73.52,347.63 73.48,349.91C73.44,352.19 73.41,354.47 73.4,356.75C73.39,359.03 73.39,361.3 73.4,363.58C73.41,365.86 73.44,368.13 73.48,370.41C73.52,372.69 73.59,374.97 73.66,377.25C73.73,379.53 73.81,381.8 73.89,384.08C73.97,386.36 74.06,388.64 74.14,390.92C74.22,393.2 74.31,395.47 74.39,397.75C74.47,400.03 74.55,402.31 74.62,404.59C74.69,406.87 74.75,409.14 74.81,411.42C74.87,413.7 74.92,415.97 74.97,418.25C75.02,420.53 75.07,422.81 75.11,425.09C75.15,427.37 75.19,429.64 75.22,431.92C75.25,434.2 75.27,436.48 75.3,438.76C75.32,441.04 75.35,443.31 75.37,445.59C75.39,447.87 75.42,450.15 75.44,452.43C75.46,454.71 75.49,456.98 75.51,459.26C75.53,461.54 75.56,463.81 75.58,466.09C75.6,468.37 75.62,470.65 75.64,472.93C75.66,475.21 75.67,477.48 75.68,479.76C75.69,482.04 75.69,484.32 75.69,486.6C75.69,488.88 75.68,491.15 75.67,493.43C75.66,495.71 75.65,497.98 75.64,500.26C75.63,502.54 75.61,504.82 75.6,507.1C75.59,509.38 75.58,511.65 75.59,513.93C75.6,516.21 75.61,518.49 75.64,520.77C75.67,523.05 75.71,525.32 75.75,527.6C75.8,529.88 75.85,532.16 75.91,534.44C75.97,536.72 76.05,538.99 76.12,541.27C76.19,543.55 76.27,545.82 76.33,548.1C76.39,550.38 76.46,552.66 76.49,554.94C76.52,557.22 76.55,559.49 76.54,561.77C76.53,564.05 76.5,566.33 76.43,568.61C76.37,570.89 76.26,573.16 76.15,575.44C76.03,577.72 75.88,580 75.74,582.28C75.6,584.56 75.43,586.83 75.3,589.11C75.17,591.39 75.04,593.66 74.96,595.94Q74.88,598.22 74.83,602.78L77.5,602.78" style="vector-effect: non-scaling-stroke; stroke-width: 2px; stroke: rgb(0, 0, 255); stroke-opacity: 1; fill: rgb(0, 0, 255); fill-opacity: 0.5;"/><path class="meanline" d="M52.841434478759766,118.27H77.5" style="fill: none; vector-effect: non-scaling-stroke; stroke-width: 3px; stroke-dasharray: 6px, 3px; stroke: rgb(255, 255, 255); stroke-opacity: 1;"/></g><g class="trace violins" style="opacity: 1;"><path class="violin" d="M77.5,602.78L79.04,602.78Q79.01,600.01 78.96,598.62C78.91,597.23 78.83,595.85 78.74,594.46C78.65,593.07 78.54,591.69 78.44,590.3C78.34,588.91 78.23,587.53 78.14,586.14C78.05,584.75 77.96,583.37 77.89,581.98C77.82,580.59 77.77,579.21 77.72,577.82C77.68,576.43 77.64,575.05 77.62,573.66C77.6,572.27 77.59,570.89 77.59,569.5C77.59,568.11 77.58,566.73 77.59,565.34C77.6,563.95 77.61,562.57 77.63,561.18C77.65,559.79 77.67,558.41 77.69,557.02C77.71,555.63 77.74,554.25 77.76,552.86C77.78,551.47 77.81,550.09 77.83,548.7C77.85,547.31 77.87,545.93 77.89,544.54C77.91,543.15 77.93,541.77 77.95,540.38C77.97,538.99 77.98,537.61 78,536.22C78.01,534.83 78.03,533.45 78.04,532.06C78.05,530.67 78.06,529.29 78.07,527.9C78.08,526.51 78.08,525.13 78.08,523.74C78.08,522.35 78.08,520.97 78.08,519.58C78.08,518.19 78.07,516.81 78.07,515.42C78.06,514.03 78.06,512.65 78.05,511.26C78.04,509.87 78.03,508.49 78.02,507.1C78.01,505.71 78,504.33 77.99,502.94C77.98,501.55 77.98,500.17 77.97,498.78C77.96,497.39 77.96,496.01 77.95,494.62C77.94,493.23 77.93,491.85 77.93,490.46C77.93,489.07 77.93,487.69 77.93,486.3C77.93,484.91 77.93,483.53 77.93,482.14C77.93,480.75 77.94,479.37 77.95,477.98C77.96,476.59 77.97,475.21 77.98,473.82C77.99,472.43 78,471.05 78.01,469.66C78.02,468.27 78.03,466.89 78.04,465.5C78.05,464.11 78.05,462.73 78.06,461.34C78.07,459.95 78.08,458.57 78.09,457.18C78.1,455.79 78.1,454.41 78.1,453.02C78.1,451.63 78.11,450.25 78.11,448.86C78.11,447.47 78.11,446.09 78.11,444.7C78.11,443.31 78.12,441.93 78.12,440.54C78.12,439.15 78.12,437.77 78.12,436.38C78.12,434.99 78.14,433.61 78.15,432.22C78.16,430.83 78.17,429.45 78.18,428.06C78.19,426.67 78.21,425.29 78.23,423.9C78.25,422.51 78.27,421.13 78.29,419.74C78.31,418.35 78.32,416.97 78.33,415.58C78.34,414.19 78.36,412.81 78.37,411.42C78.38,410.03 78.38,408.65 78.39,407.26C78.4,405.87 78.41,404.49 78.42,403.1C78.43,401.71 78.45,400.33 78.47,398.94C78.49,397.55 78.51,396.17 78.54,394.78C78.57,393.39 78.6,392.01 78.63,390.62C78.66,389.23 78.7,387.85 78.73,386.46C78.76,385.07 78.79,383.69 78.82,382.3C78.85,380.91 78.87,379.53 78.89,378.14C78.91,376.75 78.92,375.37 78.93,373.98C78.94,372.59 78.94,371.21 78.94,369.82C78.94,368.43 78.94,367.05 78.94,365.66C78.94,364.27 78.93,362.89 78.92,361.5C78.91,360.11 78.91,358.73 78.9,357.34C78.89,355.95 78.87,354.57 78.86,353.18C78.85,351.79 78.83,350.41 78.82,349.02C78.8,347.63 78.79,346.25 78.77,344.86C78.75,343.47 78.74,342.09 78.72,340.7C78.7,339.31 78.68,337.93 78.66,336.54C78.64,335.15 78.63,333.77 78.62,332.38C78.61,330.99 78.6,329.61 78.59,328.22C78.58,326.83 78.58,325.45 78.58,324.06C78.58,322.67 78.6,321.29 78.61,319.9C78.62,318.51 78.64,317.13 78.66,315.74C78.68,314.35 78.7,312.97 78.72,311.58C78.75,310.19 78.78,308.81 78.81,307.42C78.84,306.03 78.87,304.65 78.9,303.26C78.93,301.87 78.96,300.49 78.99,299.1C79.02,297.71 79.05,296.33 79.08,294.94C79.11,293.55 79.14,292.17 79.17,290.78C79.2,289.39 79.22,288.01 79.25,286.62C79.28,285.23 79.3,283.85 79.33,282.46C79.36,281.07 79.39,279.69 79.42,278.3C79.45,276.91 79.48,275.53 79.51,274.14C79.54,272.75 79.58,271.37 79.61,269.98C79.64,268.59 79.67,267.21 79.69,265.82C79.71,264.43 79.73,263.05 79.75,261.66C79.77,260.27 79.78,258.89 79.79,257.5C79.8,256.11 79.8,254.73 79.81,253.34C79.82,251.95 79.82,250.57 79.83,249.18C79.84,247.79 79.85,246.41 79.87,245.02C79.89,243.63 79.91,242.25 79.94,240.86C79.97,239.47 80.01,238.09 80.06,236.7C80.11,235.31 80.17,233.93 80.23,232.54C80.3,231.15 80.37,229.77 80.45,228.38C80.53,226.99 80.63,225.61 80.72,224.22C80.81,222.83 80.91,221.45 81.01,220.06C81.11,218.67 81.22,217.29 81.32,215.9C81.42,214.51 81.51,213.13 81.6,211.74C81.68,210.35 81.76,208.97 81.83,207.58C81.9,206.19 81.95,204.81 82,203.42C82.05,202.03 82.1,200.65 82.14,199.26C82.18,197.87 82.22,196.49 82.26,195.1C82.3,193.71 82.34,192.33 82.39,190.94C82.44,189.55 82.49,188.17 82.55,186.78C82.61,185.39 82.68,184.01 82.75,182.62C82.83,181.23 82.91,179.85 83,178.46C83.09,177.07 83.2,175.69 83.31,174.3C83.42,172.91 83.55,171.53 83.68,170.14C83.81,168.75 83.96,167.37 84.11,165.98C84.26,164.59 84.41,163.21 84.56,161.82C84.71,160.43 84.85,159.05 84.99,157.66C85.13,156.27 85.26,154.89 85.39,153.5C85.51,152.11 85.62,150.73 85.74,149.34C85.85,147.95 85.96,146.57 86.08,145.18C86.21,143.79 86.33,142.41 86.49,141.02C86.65,139.63 86.82,138.24 87.04,136.86C87.26,135.47 87.5,134.08 87.79,132.7C88.08,131.31 88.42,129.92 88.77,128.54C89.12,127.15 89.51,125.76 89.91,124.38C90.31,122.99 90.74,121.61 91.15,120.22C91.57,118.83 91.99,117.45 92.4,116.06C92.81,114.67 93.22,113.29 93.62,111.9C94.02,110.51 94.4,109.13 94.79,107.74C95.18,106.35 95.57,104.96 95.98,103.58C96.4,102.19 96.82,100.8 97.28,99.42C97.75,98.03 98.24,96.64 98.78,95.26C99.32,93.87 99.92,92.48 100.53,91.1C101.15,89.71 101.82,88.33 102.47,86.94C103.12,85.55 103.82,84.17 104.45,82.78C105.08,81.4 105.71,80.02 106.25,78.62C106.78,77.24 107.27,75.86 107.66,74.46C108.04,73.08 108.33,71.69 108.58,70.3C108.83,68.92 108.96,67.53 109.15,66.14C109.35,64.75 109.44,63.35 109.75,61.98C110.07,60.58 110.42,59.16 111.07,57.82C111.77,56.38 112.71,54.97 113.89,53.66C115.23,52.17 116.98,50.81 118.84,49.5C120.94,48.02 123.46,46.69 125.94,45.34C128.58,43.91 131.56,42.6 134.24,41.18C136.82,39.82 139.68,38.56 141.74,37.02C143.45,35.74 145.53,34.38 145.97,32.86Q146.34,31.57 144.98,28.7L77.5,28.7" style="vector-effect: non-scaling-stroke; stroke-width: 2px; stroke: rgb(0, 128, 0); stroke-opacity: 1; fill: rgb(0, 128, 0); fill-opacity: 0.5;"/><path class="meanline" d="M99.48442840576172,93.52H77.5" style="fill: none; vector-effect: non-scaling-stroke; stroke-width: 3px; stroke-dasharray: 6px, 3px; stroke: rgb(255, 255, 255); stroke-opacity: 1;"/></g><g class="trace violins" style="opacity: 1;"><path class="violin" d="M232.5,28.7L167.56,28.7Q164.41,33.82 164.03,36.46C163.67,38.99 164.27,41.72 165.15,44.22C166.09,46.9 167.96,49.45 169.69,51.98C171.5,54.63 173.78,57.15 175.83,59.73C177.89,62.32 180.07,64.87 182.01,67.49C183.9,70.04 185.73,72.62 187.34,75.25C188.9,77.8 190.31,80.39 191.57,83.01C192.8,85.57 193.85,88.17 194.84,90.77C195.81,93.34 196.65,95.93 197.45,98.52C198.25,101.1 198.95,103.69 199.64,106.28C200.33,108.86 200.97,111.45 201.61,114.04C202.25,116.62 202.85,119.21 203.47,121.8C204.09,124.38 204.7,126.97 205.31,129.55C205.92,132.14 206.53,134.72 207.13,137.31C207.73,139.9 208.33,142.48 208.92,145.07C209.5,147.66 210.09,150.24 210.64,152.83C211.19,155.41 211.73,158 212.24,160.59C212.75,163.17 213.23,165.75 213.69,168.34C214.15,170.92 214.59,173.51 215.01,176.1C215.43,178.69 215.83,181.27 216.23,183.86C216.62,186.45 217,189.03 217.38,191.62C217.75,194.2 218.12,196.79 218.48,199.37C218.84,201.96 219.19,204.54 219.52,207.13C219.85,209.72 220.17,212.3 220.47,214.89C220.77,217.48 221.05,220.06 221.32,222.65C221.59,225.24 221.84,227.82 222.09,230.41C222.34,232.99 222.57,235.58 222.8,238.16C223.03,240.75 223.26,243.33 223.49,245.92C223.72,248.51 223.95,251.09 224.17,253.68C224.39,256.27 224.61,258.85 224.83,261.44C225.04,264.02 225.26,266.61 225.46,269.19C225.66,271.78 225.84,274.36 226.02,276.95C226.2,279.54 226.37,282.12 226.52,284.71C226.67,287.3 226.8,289.88 226.92,292.47C227.04,295.06 227.15,297.64 227.25,300.23C227.35,302.81 227.43,305.4 227.51,307.98C227.59,310.57 227.66,313.15 227.73,315.74C227.8,318.33 227.86,320.91 227.92,323.5C227.98,326.09 228.03,328.67 228.1,331.26C228.17,333.84 228.24,336.43 228.32,339.01C228.4,341.6 228.48,344.18 228.56,346.77C228.65,349.36 228.74,351.94 228.83,354.53C228.92,357.12 229.02,359.7 229.1,362.29C229.18,364.88 229.27,367.46 229.33,370.05C229.39,372.63 229.44,375.22 229.48,377.8C229.52,380.39 229.55,382.97 229.56,385.56C229.57,388.15 229.57,390.73 229.57,393.32C229.57,395.91 229.56,398.49 229.55,401.08C229.55,403.66 229.54,406.25 229.54,408.83C229.54,411.42 229.54,414 229.54,416.59C229.54,419.18 229.55,421.76 229.56,424.35C229.57,426.94 229.59,429.52 229.61,432.11C229.63,434.69 229.65,437.28 229.67,439.86C229.69,442.45 229.72,445.03 229.74,447.62C229.77,450.21 229.79,452.79 229.82,455.38C229.85,457.97 229.87,460.55 229.9,463.14C229.93,465.73 229.96,468.31 229.99,470.9C230.02,473.48 230.05,476.07 230.08,478.65C230.12,481.24 230.16,483.82 230.2,486.41C230.25,489 230.29,491.58 230.35,494.17C230.41,496.76 230.47,499.34 230.54,501.93C230.61,504.51 230.68,507.1 230.75,509.68C230.82,512.27 230.91,514.85 230.98,517.44C231.05,520.03 231.12,522.61 231.19,525.2C231.26,527.79 231.32,530.37 231.38,532.96C231.43,535.55 231.48,538.13 231.52,540.72C231.56,543.3 231.59,545.89 231.61,548.47C231.63,551.06 231.65,553.64 231.65,556.23C231.65,558.82 231.63,561.4 231.61,563.99C231.58,566.58 231.54,569.16 231.5,571.75C231.46,574.33 231.4,576.92 231.35,579.5C231.3,582.09 231.23,584.67 231.18,587.26C231.13,589.85 231.09,592.43 231.07,595.02Q231.05,597.61 231.06,602.78L232.5,602.78" style="vector-effect: non-scaling-stroke; stroke-width: 2px; stroke: rgb(0, 0, 255); stroke-opacity: 1; fill: rgb(0, 0, 255); fill-opacity: 0.5;"/><path class="meanline" d="M203.07278442382812,120.13H232.5" style="fill: none; vector-effect: non-scaling-stroke; stroke-width: 3px; stroke-dasharray: 6px, 3px; stroke: rgb(255, 255, 255); stroke-opacity: 1;"/></g><g class="trace violins" style="opacity: 1;"><path class="violin" d="M232.5,602.78L233.22,602.78Q233.21,598.79 233.2,596.8C233.19,594.81 233.16,592.81 233.13,590.82C233.1,588.83 233.06,586.83 233.02,584.84C232.98,582.85 232.94,580.85 232.91,578.86C232.88,576.87 232.85,574.87 232.83,572.88C232.81,570.89 232.79,568.89 232.78,566.9C232.77,564.91 232.77,562.91 232.77,560.92C232.77,558.93 232.77,556.93 232.77,554.94C232.77,552.95 232.78,550.95 232.79,548.96C232.8,546.97 232.81,544.97 232.82,542.98C232.83,540.99 232.84,538.99 232.85,537C232.86,535.01 232.88,533.01 232.9,531.02C232.92,529.03 232.94,527.03 232.96,525.04C232.98,523.05 233.01,521.05 233.03,519.06C233.06,517.07 233.08,515.07 233.11,513.08C233.14,511.09 233.16,509.09 233.19,507.1C233.22,505.11 233.25,503.11 233.27,501.12C233.29,499.13 233.31,497.13 233.33,495.14C233.35,493.15 233.36,491.15 233.37,489.16C233.38,487.17 233.39,485.17 233.4,483.18C233.41,481.19 233.42,479.19 233.43,477.2C233.44,475.21 233.44,473.21 233.45,471.22C233.46,469.23 233.47,467.23 233.49,465.24C233.51,463.25 233.53,461.25 233.55,459.26C233.57,457.27 233.59,455.27 233.61,453.28C233.63,451.29 233.66,449.29 233.68,447.3C233.7,445.31 233.73,443.31 233.75,441.32C233.77,439.33 233.79,437.33 233.81,435.34C233.83,433.35 233.84,431.35 233.86,429.36C233.87,427.37 233.89,425.37 233.9,423.38C233.91,421.39 233.92,419.39 233.93,417.4C233.94,415.41 233.95,413.41 233.96,411.42C233.97,409.43 233.97,407.43 233.97,405.44C233.97,403.45 233.97,401.45 233.97,399.46C233.97,397.47 233.96,395.47 233.96,393.48C233.96,391.49 233.95,389.49 233.95,387.5C233.95,385.51 233.95,383.51 233.96,381.52C233.97,379.53 233.99,377.53 234.01,375.54C234.03,373.55 234.06,371.55 234.1,369.56C234.14,367.57 234.18,365.57 234.23,363.58C234.28,361.59 234.33,359.59 234.38,357.6C234.43,355.61 234.48,353.61 234.53,351.62C234.58,349.63 234.62,347.63 234.66,345.64C234.7,343.65 234.73,341.65 234.77,339.66C234.8,337.67 234.84,335.67 234.87,333.68C234.9,331.69 234.92,329.69 234.95,327.7C234.98,325.71 235,323.71 235.03,321.72C235.06,319.73 235.08,317.73 235.11,315.74C235.14,313.75 235.17,311.75 235.2,309.76C235.23,307.77 235.26,305.77 235.3,303.78C235.34,301.79 235.38,299.79 235.43,297.8C235.49,295.81 235.55,293.81 235.63,291.82C235.71,289.83 235.81,287.83 235.93,285.84C236.05,283.85 236.19,281.85 236.34,279.86C236.5,277.87 236.68,275.87 236.86,273.88C237.05,271.89 237.25,269.89 237.45,267.9C237.65,265.91 237.87,263.91 238.08,261.92C238.29,259.93 238.49,257.93 238.69,255.94C238.89,253.95 239.1,251.95 239.29,249.96C239.48,247.97 239.66,245.97 239.84,243.98C240.02,241.99 240.2,239.99 240.38,238C240.56,236.01 240.74,234.01 240.93,232.02C241.12,230.03 241.31,228.03 241.52,226.04C241.73,224.05 241.95,222.05 242.2,220.06C242.45,218.07 242.73,216.07 243.02,214.08C243.32,212.09 243.64,210.09 243.97,208.1C244.3,206.11 244.67,204.11 245.02,202.12C245.37,200.13 245.74,198.13 246.08,196.14C246.42,194.15 246.76,192.15 247.08,190.16C247.4,188.17 247.69,186.17 247.98,184.18C248.27,182.19 248.54,180.19 248.83,178.2C249.12,176.21 249.41,174.21 249.74,172.22C250.07,170.22 250.43,168.23 250.83,166.24C251.24,164.24 251.68,162.25 252.17,160.26C252.66,158.26 253.2,156.27 253.76,154.28C254.32,152.28 254.92,150.29 255.51,148.3C256.1,146.31 256.71,144.32 257.29,142.32C257.87,140.33 258.46,138.34 258.99,136.34C259.52,134.35 260.03,132.36 260.49,130.36C260.95,128.37 261.37,126.38 261.75,124.38C262.12,122.39 262.46,120.4 262.74,118.4C263.02,116.41 263.25,114.42 263.45,112.42C263.65,110.43 263.8,108.43 263.92,106.44C264.04,104.45 264.11,102.45 264.19,100.46C264.27,98.47 264.32,96.47 264.4,94.48C264.48,92.49 264.54,90.49 264.68,88.5C264.82,86.5 264.97,84.51 265.26,82.52C265.56,80.52 265.9,78.51 266.45,76.54C267.02,74.52 267.7,72.51 268.64,70.56C269.62,68.52 270.85,66.51 272.28,64.58C273.81,62.51 275.67,60.53 277.63,58.6C279.72,56.54 282.16,54.59 284.52,52.62C286.94,50.6 289.65,48.69 291.97,46.64C294.18,44.7 296.63,42.8 298.16,40.66C299.5,38.78 300.88,36.69 300.97,34.68Q301.06,32.71 298.8,28.7L232.5,28.7" style="vector-effect: non-scaling-stroke; stroke-width: 2px; stroke: rgb(0, 128, 0); stroke-opacity: 1; fill: rgb(0, 128, 0); fill-opacity: 0.5;"/><path class="meanline" d="M263.8388977050781,107.71H232.5" style="fill: none; vector-effect: non-scaling-stroke; stroke-width: 3px; stroke-dasharray: 6px, 3px; stroke: rgb(255, 255, 255); stroke-opacity: 1;"/></g><g class="trace violins" style="opacity: 1;"><path class="violin" d="M387.5,28.7L322.07,28.7Q319.21,35.28 319.03,38.6C318.85,41.88 319.74,45.3 320.93,48.5C322.19,51.91 324.45,55.17 326.61,58.4C328.88,61.78 331.7,65.01 334.3,68.3C336.92,71.61 339.74,74.86 342.28,78.19C344.76,81.45 347.23,84.73 349.37,88.09C351.44,91.34 353.35,94.64 354.97,97.99C356.54,101.24 357.87,104.55 358.98,107.89C360.06,111.15 360.88,114.46 361.57,117.78C362.25,121.06 362.69,124.37 363.08,127.68C363.47,130.97 363.68,134.28 363.89,137.58C364.1,140.88 364.21,144.18 364.35,147.48C364.48,150.78 364.58,154.08 364.7,157.38C364.82,160.68 364.94,163.97 365.09,167.27C365.24,170.57 365.41,173.87 365.6,177.17C365.79,180.47 366.02,183.77 366.25,187.07C366.49,190.37 366.74,193.67 367.01,196.97C367.28,200.27 367.57,203.56 367.88,206.86C368.19,210.16 368.51,213.46 368.85,216.76C369.19,220.06 369.56,223.36 369.94,226.66C370.33,229.96 370.74,233.26 371.16,236.56C371.59,239.86 372.03,243.16 372.49,246.46C372.94,249.76 373.43,253.05 373.89,256.35C374.35,259.65 374.83,262.95 375.27,266.25C375.71,269.55 376.14,272.85 376.53,276.15C376.92,279.45 377.28,282.75 377.61,286.05C377.93,289.35 378.22,292.65 378.48,295.95C378.73,299.25 378.95,302.54 379.14,305.84C379.34,309.14 379.5,312.44 379.65,315.74C379.8,319.04 379.93,322.34 380.05,325.64C380.17,328.94 380.28,332.24 380.39,335.54C380.5,338.84 380.6,342.13 380.71,345.43C380.82,348.73 380.93,352.03 381.04,355.33C381.15,358.63 381.27,361.93 381.38,365.23C381.5,368.53 381.62,371.83 381.73,375.13C381.84,378.43 381.95,381.73 382.06,385.03C382.16,388.33 382.26,391.62 382.36,394.92C382.46,398.22 382.55,401.52 382.64,404.82C382.73,408.12 382.81,411.42 382.9,414.72C382.99,418.02 383.08,421.32 383.18,424.62C383.28,427.92 383.39,431.21 383.5,434.51C383.61,437.81 383.74,441.11 383.86,444.41C383.99,447.71 384.12,451.01 384.25,454.31C384.38,457.61 384.51,460.91 384.64,464.21C384.76,467.51 384.89,470.81 385,474.11C385.11,477.41 385.21,480.7 385.3,484C385.39,487.3 385.46,490.6 385.53,493.9C385.59,497.2 385.64,500.5 385.69,503.8C385.73,507.1 385.77,510.4 385.8,513.7C385.83,517 385.86,520.3 385.88,523.6C385.9,526.9 385.91,530.19 385.92,533.49C385.93,536.79 385.93,540.09 385.92,543.39C385.91,546.69 385.9,549.99 385.87,553.29C385.84,556.59 385.8,559.89 385.75,563.19C385.7,566.49 385.64,569.78 385.59,573.08C385.54,576.38 385.47,579.68 385.43,582.98C385.39,586.28 385.35,589.58 385.35,592.88Q385.35,596.18 385.4,602.78L387.5,602.78" style="vector-effect: non-scaling-stroke; stroke-width: 2px; stroke: rgb(0, 0, 255); stroke-opacity: 1; fill: rgb(0, 0, 255); fill-opacity: 0.5;"/><path class="meanline" d="M363.5504150390625,132.6H387.5" style="fill: none; vector-effect: non-scaling-stroke; stroke-width: 3px; stroke-dasharray: 6px, 3px; stroke: rgb(255, 255, 255); stroke-opacity: 1;"/></g><g class="trace violins" style="opacity: 1;"><path class="violin" d="M387.5,602.78L389.12,602.78Q389.14,596.8 389.12,593.81C389.1,590.82 389.06,587.83 389.02,584.84C388.98,581.85 388.91,578.86 388.86,575.87C388.81,572.88 388.75,569.89 388.71,566.9C388.67,563.91 388.64,560.92 388.62,557.93C388.6,554.94 388.6,551.95 388.61,548.96C388.62,545.97 388.64,542.98 388.66,539.99C388.69,537 388.73,534.01 388.76,531.02C388.8,528.03 388.83,525.04 388.87,522.05C388.91,519.06 388.96,516.07 389,513.08C389.05,510.09 389.09,507.1 389.14,504.11C389.19,501.12 389.24,498.13 389.31,495.14C389.38,492.15 389.45,489.16 389.54,486.17C389.63,483.18 389.74,480.19 389.85,477.2C389.97,474.21 390.09,471.22 390.23,468.23C390.37,465.24 390.52,462.25 390.67,459.26C390.82,456.27 390.98,453.28 391.13,450.29C391.28,447.3 391.43,444.31 391.57,441.32C391.71,438.33 391.83,435.34 391.95,432.35C392.07,429.36 392.17,426.37 392.27,423.38C392.37,420.39 392.45,417.4 392.54,414.41C392.63,411.42 392.72,408.43 392.82,405.44C392.92,402.45 393.01,399.46 393.12,396.47C393.23,393.48 393.34,390.49 393.47,387.5C393.6,384.51 393.74,381.52 393.88,378.53C394.02,375.54 394.18,372.55 394.33,369.56C394.49,366.57 394.64,363.58 394.81,360.59C394.98,357.6 395.15,354.61 395.33,351.62C395.51,348.63 395.69,345.64 395.89,342.65C396.09,339.66 396.31,336.67 396.53,333.68C396.75,330.69 396.99,327.7 397.23,324.71C397.48,321.72 397.73,318.73 398,315.74C398.27,312.75 398.56,309.76 398.85,306.77C399.15,303.78 399.45,300.79 399.77,297.8C400.09,294.81 400.43,291.82 400.79,288.83C401.15,285.84 401.53,282.85 401.91,279.86C402.3,276.87 402.7,273.88 403.1,270.89C403.5,267.9 403.92,264.91 404.32,261.92C404.72,258.93 405.13,255.94 405.5,252.95C405.87,249.96 406.24,246.97 406.56,243.98C406.88,240.99 407.17,238 407.43,235.01C407.68,232.02 407.91,229.03 408.09,226.04C408.27,223.05 408.41,220.06 408.52,217.07C408.63,214.08 408.7,211.09 408.76,208.1C408.82,205.11 408.84,202.12 408.86,199.13C408.88,196.14 408.88,193.15 408.87,190.16C408.86,187.17 408.85,184.18 408.82,181.19C408.79,178.2 408.76,175.21 408.71,172.22C408.66,169.23 408.61,166.24 408.53,163.25C408.45,160.26 408.36,157.27 408.25,154.28C408.14,151.29 408,148.3 407.88,145.31C407.75,142.32 407.6,139.33 407.5,136.34C407.4,133.35 407.28,130.36 407.27,127.37C407.26,124.38 407.27,121.39 407.45,118.4C407.63,115.41 407.87,112.41 408.35,109.43C408.83,106.43 409.45,103.42 410.35,100.46C411.27,97.44 412.4,94.42 413.82,91.49C415.3,88.44 417.09,85.44 419.11,82.52C421.24,79.45 423.74,76.48 426.34,73.55C429.06,70.49 432.15,67.55 435.13,64.58C438.15,61.57 441.48,58.67 444.35,55.61C447.1,52.68 450.07,49.78 452.04,46.64C453.84,43.78 455.58,40.72 455.97,37.67Q456.34,34.73 454.51,28.7L387.5,28.7" style="vector-effect: non-scaling-stroke; stroke-width: 2px; stroke: rgb(0, 128, 0); stroke-opacity: 1; fill: rgb(0, 128, 0); fill-opacity: 0.5;"/><path class="meanline" d="M407.6996765136719,141.29H387.5" style="fill: none; vector-effect: non-scaling-stroke; stroke-width: 3px; stroke-dasharray: 6px, 3px; stroke: rgb(255, 255, 255); stroke-opacity: 1;"/></g><g class="trace violins" style="opacity: 1;"><path class="violin" d="M542.5,28.7L486.37,28.7Q480.96,33.6 479,36.26C477.23,38.66 475.74,41.21 474.92,43.81C474.15,46.25 473.92,48.85 474.03,51.36C474.14,53.89 474.84,56.44 475.61,58.92C476.4,61.48 477.58,63.98 478.74,66.47C479.92,69.01 481.31,71.52 482.64,74.03C483.98,76.56 485.4,79.06 486.76,81.58C488.11,84.09 489.48,86.6 490.78,89.13C492.07,91.64 493.33,94.16 494.53,96.69C495.72,99.2 496.87,101.71 497.96,104.24C499.04,106.75 500.06,109.26 501.05,111.79C502.03,114.3 502.96,116.82 503.86,119.35C504.75,121.86 505.6,124.38 506.43,126.9C507.25,129.41 508.04,131.93 508.81,134.45C509.58,136.97 510.32,139.49 511.05,142.01C511.78,144.53 512.5,147.04 513.21,149.56C513.92,152.08 514.61,154.6 515.31,157.12C516.01,159.64 516.72,162.15 517.42,164.67C518.12,167.19 518.83,169.7 519.52,172.22C520.21,174.74 520.91,177.26 521.57,179.78C522.23,182.29 522.87,184.81 523.46,187.33C524.05,189.84 524.61,192.36 525.09,194.88C525.57,197.39 525.99,199.92 526.36,202.44C526.72,204.95 527.02,207.47 527.28,209.99C527.53,212.5 527.72,215.02 527.89,217.54C528.06,220.06 528.18,222.58 528.31,225.1C528.44,227.62 528.54,230.13 528.67,232.65C528.8,235.17 528.92,237.68 529.08,240.2C529.24,242.72 529.41,245.24 529.61,247.76C529.81,250.28 530.03,252.79 530.27,255.31C530.51,257.83 530.76,260.35 531.03,262.87C531.3,265.39 531.59,267.9 531.87,270.42C532.16,272.94 532.45,275.45 532.74,277.97C533.03,280.49 533.33,283.01 533.62,285.53C533.91,288.05 534.21,290.56 534.5,293.08C534.79,295.6 535.08,298.11 535.34,300.63C535.61,303.15 535.86,305.67 536.09,308.19C536.32,310.71 536.54,313.22 536.74,315.74C536.94,318.26 537.12,320.77 537.28,323.29C537.44,325.81 537.58,328.33 537.72,330.85C537.85,333.37 537.97,335.88 538.09,338.4C538.21,340.92 538.31,343.44 538.42,345.96C538.52,348.48 538.63,350.99 538.72,353.51C538.81,356.03 538.9,358.54 538.98,361.06C539.06,363.58 539.13,366.1 539.18,368.62C539.23,371.14 539.27,373.65 539.29,376.17C539.31,378.69 539.31,381.2 539.3,383.72C539.29,386.24 539.25,388.76 539.2,391.28C539.16,393.8 539.09,396.31 539.03,398.83C538.97,401.35 538.9,403.86 538.84,406.38C538.78,408.9 538.73,411.42 538.69,413.94C538.66,416.46 538.63,418.97 538.63,421.49C538.63,424.01 538.65,426.52 538.68,429.04C538.71,431.56 538.77,434.08 538.83,436.6C538.89,439.12 538.97,441.63 539.05,444.15C539.13,446.67 539.21,449.19 539.29,451.71C539.37,454.23 539.45,456.74 539.52,459.26C539.59,461.78 539.65,464.29 539.71,466.81C539.77,469.33 539.81,471.85 539.86,474.37C539.9,476.89 539.94,479.4 539.98,481.92C540.02,484.44 540.06,486.95 540.1,489.47C540.14,491.99 540.18,494.51 540.22,497.03C540.26,499.55 540.31,502.06 540.35,504.58C540.4,507.1 540.45,509.61 540.49,512.13C540.54,514.65 540.58,517.17 540.62,519.69C540.66,522.21 540.69,524.72 540.72,527.24C540.75,529.76 540.77,532.28 540.78,534.8C540.79,537.32 540.79,539.83 540.78,542.35C540.77,544.87 540.76,547.38 540.73,549.9C540.7,552.42 540.66,554.94 540.6,557.46C540.54,559.98 540.46,562.49 540.37,565.01C540.28,567.53 540.18,570.04 540.06,572.56C539.94,575.08 539.8,577.6 539.67,580.12C539.54,582.64 539.4,585.15 539.3,587.67C539.2,590.19 539.11,592.7 539.07,595.22Q539.03,597.74 539.07,602.78L542.5,602.78" style="vector-effect: non-scaling-stroke; stroke-width: 2px; stroke: rgb(0, 0, 255); stroke-opacity: 1; fill: rgb(0, 0, 255); fill-opacity: 0.5;"/><path class="meanline" d="M509.5284729003906,136.83H542.5" style="fill: none; vector-effect: non-scaling-stroke; stroke-width: 3px; stroke-dasharray: 6px, 3px; stroke: rgb(255, 255, 255); stroke-opacity: 1;"/></g><g class="trace violins" style="opacity: 1;"><path class="violin" d="M542.5,602.78L545.2,602.78Q545.22,597.31 545.18,594.58C545.14,591.85 545.05,589.11 544.96,586.38C544.87,583.64 544.74,580.91 544.63,578.17C544.52,575.44 544.39,572.7 544.29,569.97C544.19,567.24 544.09,564.5 544.01,561.77C543.93,559.04 543.87,556.3 543.83,553.57C543.79,550.84 543.76,548.1 543.76,545.37C543.76,542.64 543.77,539.9 543.8,537.17C543.83,534.44 543.89,531.7 543.95,528.97C544.01,526.24 544.09,523.5 544.18,520.77C544.27,518.04 544.37,515.3 544.48,512.57C544.59,509.84 544.71,507.1 544.83,504.37C544.95,501.63 545.07,498.9 545.19,496.16C545.31,493.43 545.43,490.69 545.55,487.96C545.67,485.23 545.79,482.49 545.9,479.76C546.01,477.03 546.12,474.29 546.23,471.56C546.34,468.83 546.45,466.09 546.56,463.36C546.67,460.63 546.77,457.89 546.87,455.16C546.97,452.43 547.07,449.69 547.16,446.96C547.25,444.23 547.34,441.49 547.42,438.76C547.5,436.03 547.57,433.29 547.63,430.56C547.69,427.82 547.74,425.09 547.79,422.35C547.84,419.62 547.88,416.88 547.92,414.15C547.96,411.42 548,408.68 548.04,405.95C548.09,403.22 548.13,400.48 548.19,397.75C548.25,395.02 548.32,392.28 548.39,389.55C548.46,386.82 548.54,384.08 548.63,381.35C548.72,378.62 548.81,375.88 548.92,373.15C549.03,370.42 549.15,367.68 549.28,364.95C549.41,362.22 549.55,359.48 549.71,356.75C549.87,354.01 550.04,351.27 550.24,348.54C550.44,345.8 550.67,343.07 550.92,340.34C551.17,337.61 551.45,334.87 551.76,332.14C552.07,329.41 552.41,326.67 552.77,323.94C553.13,321.2 553.53,318.47 553.94,315.74C554.35,313.01 554.8,310.27 555.24,307.54C555.69,304.81 556.15,302.07 556.61,299.34C557.07,296.61 557.54,293.87 558,291.14C558.46,288.41 558.92,285.67 559.37,282.94C559.82,280.21 560.26,277.48 560.69,274.74C561.12,272.01 561.54,269.27 561.94,266.53C562.34,263.8 562.73,261.06 563.09,258.33C563.45,255.6 563.8,252.86 564.12,250.13C564.43,247.4 564.72,244.66 564.98,241.93C565.24,239.2 565.46,236.46 565.66,233.73C565.85,231 566.01,228.26 566.15,225.53C566.29,222.8 566.39,220.06 566.51,217.33C566.63,214.6 566.72,211.86 566.85,209.13C566.98,206.4 567.11,203.66 567.28,200.93C567.45,198.19 567.64,195.45 567.89,192.72C568.14,189.98 568.43,187.25 568.77,184.52C569.11,181.78 569.5,179.05 569.94,176.32C570.38,173.58 570.86,170.85 571.39,168.12C571.92,165.38 572.5,162.65 573.11,159.92C573.73,157.18 574.39,154.45 575.08,151.72C575.78,148.98 576.51,146.25 577.28,143.52C578.05,140.78 578.86,138.05 579.7,135.32C580.54,132.58 581.41,129.85 582.31,127.12C583.21,124.38 584.14,121.65 585.12,118.92C586.1,116.18 587.11,113.44 588.18,110.71C589.26,107.97 590.37,105.23 591.56,102.51C592.76,99.76 594.03,97.03 595.35,94.31C596.68,91.56 598.1,88.84 599.51,86.11C600.92,83.37 602.44,80.66 603.81,77.91C605.17,75.19 606.61,72.48 607.72,69.71C608.8,67.01 609.88,64.28 610.42,61.51C610.95,58.81 611.27,56.02 610.97,53.31C610.67,50.55 609.82,47.75 608.56,45.11C607.19,42.26 605.1,39.53 602.85,36.9Q600.39,34.03 594.22,28.7L542.5,28.7" style="vector-effect: non-scaling-stroke; stroke-width: 2px; stroke: rgb(0, 128, 0); stroke-opacity: 1; fill: rgb(0, 128, 0); fill-opacity: 0.5;"/><path class="meanline" d="M574.7068481445312,153.21H542.5" style="fill: none; vector-effect: non-scaling-stroke; stroke-width: 3px; stroke-dasharray: 6px, 3px; stroke: rgb(255, 255, 255); stroke-opacity: 1;"/></g><g class="trace violins" style="opacity: 1;"><path class="violin" d="M697.5,28.7L673.04,28.7Q668.87,36.04 666.95,39.74C665.05,43.4 663.19,47.06 661.58,50.78C660,54.43 658.57,58.11 657.35,61.82C656.14,65.47 655.17,69.17 654.27,72.86C653.37,76.53 652.71,80.22 651.94,83.9C651.18,87.58 650.52,91.27 649.68,94.94C648.83,98.63 647.94,102.32 646.86,105.98C645.77,109.68 644.51,113.36 643.18,117.02C641.84,120.72 640.28,124.38 638.83,128.06C637.38,131.74 635.78,135.4 634.46,139.1C633.16,142.76 631.86,146.43 630.95,150.14C630.06,153.79 629.34,157.49 629.03,161.18C628.72,164.85 628.75,168.55 629.06,172.22C629.37,175.91 630.08,179.6 630.91,183.26C631.75,186.96 632.93,190.63 634.08,194.3C635.24,197.99 636.61,201.66 637.87,205.34C639.13,209.02 640.45,212.69 641.64,216.38C642.82,220.05 643.97,223.73 644.98,227.42C645.99,231.09 646.89,234.77 647.7,238.46C648.51,242.13 649.2,245.81 649.85,249.5C650.5,253.17 651.05,256.86 651.61,260.54C652.17,264.22 652.68,267.9 653.22,271.58C653.77,275.26 654.29,278.94 654.88,282.62C655.47,286.3 656.08,289.98 656.75,293.66C657.42,297.34 658.14,301.03 658.91,304.7C659.68,308.39 660.52,312.06 661.38,315.74C662.25,319.42 663.17,323.1 664.1,326.78C665.04,330.46 666.02,334.14 666.99,337.82C667.96,341.5 668.96,345.18 669.9,348.86C670.84,352.54 671.79,356.21 672.64,359.9C673.49,363.57 674.31,367.25 675,370.94C675.69,374.61 676.31,378.29 676.8,381.98C677.29,385.65 677.65,389.34 677.92,393.02C678.19,396.7 678.33,400.38 678.42,404.06C678.51,407.74 678.47,411.42 678.45,415.1C678.43,418.78 678.34,422.46 678.31,426.14C678.28,429.82 678.22,433.5 678.26,437.18C678.3,440.86 678.37,444.54 678.53,448.22C678.69,451.9 678.93,455.58 679.22,459.26C679.51,462.94 679.89,466.62 680.29,470.3C680.69,473.98 681.17,477.66 681.63,481.34C682.09,485.02 682.59,488.7 683.07,492.38C683.55,496.06 684.05,499.74 684.5,503.42C684.95,507.1 685.39,510.78 685.79,514.46C686.19,518.14 686.57,521.82 686.9,525.5C687.22,529.18 687.51,532.86 687.74,536.54C687.97,540.22 688.15,543.9 688.27,547.58C688.39,551.26 688.44,554.94 688.45,558.62C688.46,562.3 688.4,565.98 688.35,569.66C688.3,573.34 688.19,577.02 688.15,580.7C688.11,584.38 688.06,588.06 688.13,591.74Q688.2,595.42 688.56,602.78L697.5,602.78" style="vector-effect: non-scaling-stroke; stroke-width: 2px; stroke: rgb(0, 0, 255); stroke-opacity: 1; fill: rgb(0, 0, 255); fill-opacity: 0.5;"/><path class="meanline" d="M647.56494140625,237.85H697.5" style="fill: none; vector-effect: non-scaling-stroke; stroke-width: 3px; stroke-dasharray: 6px, 3px; stroke: rgb(255, 255, 255); stroke-opacity: 1;"/></g><g class="trace violins" style="opacity: 1;"><path class="violin" d="M697.5,602.78L705.55,602.78Q705.75,596.51 705.74,593.37C705.73,590.23 705.6,587.1 705.48,583.96C705.36,580.82 705.17,577.68 705.04,574.54C704.92,571.4 704.78,568.27 704.73,565.13C704.68,561.99 704.68,558.86 704.76,555.72C704.84,552.58 705,549.44 705.22,546.31C705.44,543.17 705.73,540.03 706.08,536.9C706.43,533.76 706.85,530.62 707.31,527.49C707.77,524.35 708.28,521.21 708.84,518.08C709.4,514.94 710.01,511.8 710.66,508.67C711.31,505.53 712.03,502.39 712.76,499.26C713.49,496.12 714.29,492.99 715.06,489.85C715.84,486.71 716.65,483.57 717.41,480.43C718.17,477.3 718.95,474.16 719.61,471.02C720.27,467.89 720.89,464.75 721.39,461.61C721.89,458.48 722.3,455.34 722.6,452.2C722.9,449.07 723.08,445.93 723.2,442.79C723.32,439.65 723.32,436.52 723.33,433.38C723.34,430.24 723.27,427.11 723.27,423.97C723.27,420.83 723.23,417.7 723.3,414.56C723.37,411.42 723.47,408.28 723.68,405.15C723.89,402.01 724.18,398.86 724.56,395.73C724.94,392.59 725.43,389.45 725.98,386.32C726.54,383.18 727.19,380.04 727.89,376.91C728.59,373.77 729.38,370.63 730.19,367.5C731,364.36 731.87,361.22 732.74,358.09C733.61,354.95 734.54,351.82 735.43,348.68C736.32,345.54 737.23,342.41 738.1,339.27C738.96,336.14 739.83,333 740.62,329.86C741.41,326.73 742.17,323.59 742.86,320.45C743.55,317.32 744.19,314.18 744.77,311.04C745.35,307.91 745.86,304.76 746.34,301.62C746.82,298.49 747.25,295.35 747.66,292.21C748.07,289.08 748.44,285.94 748.81,282.8C749.18,279.66 749.54,276.53 749.9,273.39C750.26,270.25 750.61,267.12 750.98,263.98C751.35,260.84 751.72,257.71 752.11,254.57C752.5,251.43 752.9,248.3 753.33,245.16C753.76,242.02 754.2,238.88 754.68,235.75C755.17,232.61 755.68,229.47 756.24,226.34C756.8,223.2 757.41,220.06 758.05,216.92C758.69,213.78 759.39,210.65 760.07,207.51C760.76,204.37 761.49,201.24 762.16,198.1C762.83,194.97 763.52,191.83 764.07,188.69C764.62,185.56 765.13,182.42 765.45,179.28C765.77,176.15 765.97,173.01 765.97,169.87C765.97,166.73 765.79,163.59 765.43,160.46C765.07,157.31 764.49,154.17 763.82,151.05C763.14,147.9 762.26,144.77 761.37,141.64C760.48,138.49 759.44,135.37 758.47,132.23C757.5,129.09 756.47,125.96 755.55,122.81C754.64,119.68 753.75,116.55 752.97,113.4C752.19,110.27 751.51,107.13 750.87,103.99C750.23,100.86 749.73,97.72 749.15,94.58C748.57,91.44 748.08,88.3 747.41,85.17C746.74,82.02 746.06,78.87 745.14,75.76C744.21,72.6 743.13,69.45 741.84,66.35C740.52,63.18 738.97,60.04 737.29,56.94C735.57,53.76 733.61,50.64 731.62,47.53C729.6,44.36 727.38,41.25 725.25,38.11Q723.11,34.97 718.81,28.7L697.5,28.7" style="vector-effect: non-scaling-stroke; stroke-width: 2px; stroke: rgb(0, 128, 0); stroke-opacity: 1; fill: rgb(0, 128, 0); fill-opacity: 0.5;"/><path class="meanline" d="M753.1614990234375,246.41H697.5" style="fill: none; vector-effect: non-scaling-stroke; stroke-width: 3px; stroke-dasharray: 6px, 3px; stroke: rgb(255, 255, 255); stroke-opacity: 1;"/></g><g class="trace violins" style="opacity: 1;"><path class="violin" d="M852.5,28.7L808.54,28.7Q803.52,37.33 801.53,41.75C799.6,46.03 797.98,50.4 796.71,54.8C795.47,59.11 794.65,63.48 793.94,67.85C793.23,72.18 792.88,76.54 792.44,80.89C792,85.24 791.74,89.59 791.31,93.94C790.88,98.29 790.43,102.65 789.87,106.99C789.31,111.34 788.62,115.68 787.97,120.03C787.32,124.38 786.55,128.72 785.97,133.08C785.39,137.42 784.79,141.77 784.47,146.13C784.15,150.47 783.96,154.83 784.03,159.18C784.1,163.53 784.41,167.88 784.87,172.22C785.33,176.58 786.07,180.93 786.81,185.27C787.55,189.63 788.49,193.97 789.33,198.32C790.17,202.67 791.09,207.01 791.85,211.36C792.6,215.7 793.31,220.05 793.86,224.41C794.41,228.75 794.83,233.11 795.13,237.46C795.43,241.81 795.58,246.16 795.68,250.51C795.78,254.86 795.73,259.2 795.71,263.55C795.69,267.9 795.58,272.25 795.57,276.6C795.56,280.95 795.52,285.3 795.65,289.65C795.78,294 795.97,298.35 796.34,302.69C796.71,307.04 797.21,311.4 797.86,315.74C798.51,320.1 799.34,324.45 800.25,328.79C801.17,333.15 802.25,337.5 803.34,341.84C804.43,346.19 805.65,350.53 806.79,354.88C807.93,359.23 809.13,363.57 810.2,367.93C811.27,372.27 812.32,376.62 813.23,380.98C814.14,385.32 814.95,389.66 815.66,394.02C816.37,398.36 816.96,402.72 817.51,407.07C818.06,411.42 818.5,415.77 818.97,420.12C819.44,424.47 819.85,428.81 820.34,433.16C820.84,437.51 821.34,441.86 821.94,446.21C822.54,450.56 823.21,454.92 823.95,459.26C824.69,463.62 825.53,467.97 826.39,472.31C827.25,476.66 828.2,481 829.1,485.35C830,489.7 830.97,494.04 831.81,498.4C832.65,502.74 833.49,507.09 834.16,511.45C834.82,515.79 835.42,520.14 835.81,524.49C836.2,528.83 836.45,533.19 836.51,537.54C836.57,541.89 836.42,546.24 836.18,550.59C835.94,554.94 835.48,559.29 835.07,563.64C834.66,567.99 834.1,572.33 833.74,576.68C833.38,581.03 832.99,585.38 832.92,589.73Q832.85,594.08 833.29,602.78L852.5,602.78" style="vector-effect: non-scaling-stroke; stroke-width: 2px; stroke: rgb(0, 0, 255); stroke-opacity: 1; fill: rgb(0, 0, 255); fill-opacity: 0.5;"/><path class="meanline" d="M795.7310791015625,254.03H852.5" style="fill: none; vector-effect: non-scaling-stroke; stroke-width: 3px; stroke-dasharray: 6px, 3px; stroke: rgb(255, 255, 255); stroke-opacity: 1;"/></g><g class="trace violins" style="opacity: 1;"><path class="violin" d="M852.5,602.78L868.6,602.78Q868.92,595.56 868.85,591.95C868.78,588.34 868.45,584.72 868.17,581.11C867.89,577.5 867.46,573.89 867.19,570.28C866.92,566.67 866.64,563.06 866.55,559.45C866.46,555.84 866.48,552.23 866.67,548.62C866.86,545.01 867.21,541.39 867.68,537.79C868.15,534.17 868.79,530.56 869.49,526.96C870.2,523.34 871.03,519.73 871.91,516.13C872.79,512.51 873.77,508.9 874.77,505.29C875.77,501.67 876.85,498.07 877.91,494.46C878.97,490.85 880.08,487.24 881.14,483.63C882.2,480.02 883.29,476.42 884.28,472.8C885.27,469.2 886.23,465.59 887.08,461.97C887.92,458.37 888.71,454.76 889.36,451.14C890.01,447.54 890.55,443.92 891,440.3C891.45,436.7 891.77,433.08 892.06,429.47C892.35,425.86 892.51,422.25 892.72,418.64C892.93,415.03 893.08,411.42 893.33,407.81C893.58,404.2 893.83,400.59 894.21,396.98C894.59,393.37 895.04,389.75 895.61,386.15C896.18,382.53 896.87,378.91 897.62,375.31C898.37,371.69 899.23,368.09 900.1,364.48C900.97,360.87 901.93,357.26 902.83,353.65C903.73,350.04 904.67,346.44 905.5,342.82C906.33,339.22 907.14,335.61 907.81,331.99C908.48,328.39 909.09,324.78 909.53,321.16C909.97,317.56 910.29,313.94 910.44,310.32C910.59,306.71 910.58,303.1 910.45,299.49C910.32,295.88 910,292.26 909.63,288.66C909.25,285.04 908.71,281.44 908.2,277.83C907.69,274.22 907.07,270.61 906.55,267C906.03,263.39 905.48,259.78 905.07,256.17C904.67,252.56 904.31,248.95 904.12,245.34C903.93,241.73 903.85,238.11 903.92,234.5C903.99,230.89 904.22,227.27 904.57,223.67C904.92,220.05 905.43,216.44 906.03,212.84C906.63,209.22 907.39,205.61 908.19,202.01C908.99,198.39 909.92,194.79 910.82,191.18C911.72,187.57 912.71,183.97 913.59,180.35C914.47,176.74 915.36,173.13 916.11,169.51C916.86,165.91 917.54,162.3 918.09,158.68C918.64,155.08 919.07,151.46 919.41,147.85C919.75,144.24 919.95,140.63 920.13,137.02C920.31,133.41 920.39,129.8 920.48,126.19C920.57,122.58 920.62,118.97 920.68,115.36C920.74,111.75 920.81,108.13 920.86,104.52C920.91,100.91 920.99,97.3 920.97,93.69C920.95,90.08 920.95,86.47 920.73,82.86C920.51,79.25 920.25,75.62 919.64,72.03C919.02,68.4 918.22,64.76 917.03,61.2C915.8,57.54 914.22,53.9 912.32,50.37C910.34,46.68 907.9,43.08 905.31,39.54Q902.61,35.85 896.39,28.7L852.5,28.7" style="vector-effect: non-scaling-stroke; stroke-width: 2px; stroke: rgb(0, 128, 0); stroke-opacity: 1; fill: rgb(0, 128, 0); fill-opacity: 0.5;"/><path class="meanline" d="M904.9771728515625,255.32H852.5" style="fill: none; vector-effect: non-scaling-stroke; stroke-width: 3px; stroke-dasharray: 6px, 3px; stroke: rgb(255, 255, 255); stroke-opacity: 1;"/></g><g class="trace violins" style="opacity: 1;"><path class="violin" d="M1007.5,28.7L970.37,28.7Q964.82,36.62 962.35,40.66C959.95,44.6 957.64,48.57 955.73,52.62C953.88,56.55 952.27,60.55 951.01,64.58C949.78,68.52 948.9,72.53 948.22,76.54C947.55,80.51 947.22,84.51 946.93,88.5C946.64,92.48 946.6,96.47 946.46,100.46C946.32,104.45 946.27,108.44 946.07,112.42C945.87,116.41 945.62,120.4 945.24,124.38C944.86,128.37 944.34,132.36 943.8,136.34C943.25,140.33 942.57,144.31 941.97,148.3C941.38,152.29 940.7,156.27 940.23,160.26C939.76,164.24 939.34,168.23 939.14,172.22C938.94,176.2 938.9,180.2 939.03,184.18C939.16,188.17 939.51,192.16 939.93,196.14C940.35,200.13 940.98,204.12 941.54,208.1C942.11,212.09 942.79,216.07 943.32,220.06C943.85,224.04 944.38,228.03 944.71,232.02C945.04,236 945.28,239.99 945.31,243.98C945.34,247.97 945.19,251.96 944.92,255.94C944.65,259.93 944.17,263.92 943.7,267.9C943.23,271.89 942.59,275.87 942.09,279.86C941.59,283.84 941.02,287.83 940.71,291.82C940.4,295.8 940.17,299.8 940.25,303.78C940.33,307.77 940.61,311.77 941.18,315.74C941.75,319.74 942.63,323.74 943.67,327.7C944.73,331.71 946.1,335.7 947.51,339.66C948.94,343.67 950.6,347.64 952.19,351.62C953.78,355.61 955.5,359.58 957.04,363.58C958.57,367.55 960.12,371.53 961.43,375.54C962.73,379.5 963.91,383.49 964.87,387.5C965.82,391.47 966.57,395.46 967.16,399.46C967.75,403.43 968.11,407.43 968.42,411.42C968.73,415.4 968.84,419.39 969.04,423.38C969.23,427.37 969.32,431.36 969.59,435.34C969.86,439.33 970.15,443.32 970.66,447.3C971.18,451.3 971.84,455.29 972.69,459.26C973.55,463.27 974.62,467.25 975.81,471.22C977.01,475.23 978.44,479.21 979.86,483.18C981.29,487.18 982.88,491.15 984.36,495.14C985.84,499.12 987.39,503.1 988.76,507.1C990.12,511.07 991.44,515.05 992.53,519.06C993.61,523.03 994.57,527.02 995.29,531.02C996.01,534.99 996.53,538.99 996.86,542.98C997.19,546.96 997.28,550.95 997.28,554.94C997.28,558.93 997.05,562.92 996.83,566.9C996.61,570.89 996.23,574.87 995.98,578.86C995.73,582.85 995.44,586.83 995.35,590.82Q995.26,594.81 995.44,602.78L1007.5,602.78" style="vector-effect: non-scaling-stroke; stroke-width: 2px; stroke: rgb(0, 0, 255); stroke-opacity: 1; fill: rgb(0, 0, 255); fill-opacity: 0.5;"/><path class="meanline" d="M944.9712524414062,255.16H1007.5" style="fill: none; vector-effect: non-scaling-stroke; stroke-width: 3px; stroke-dasharray: 6px, 3px; stroke: rgb(255, 255, 255); stroke-opacity: 1;"/></g><g class="trace violins" style="opacity: 1;"><path class="violin" d="M1007.5,602.78L1018.46,602.78Q1018.66,596.18 1018.6,592.88C1018.54,589.58 1018.3,586.28 1018.12,582.98C1017.94,579.68 1017.65,576.38 1017.5,573.08C1017.35,569.78 1017.21,566.49 1017.24,563.19C1017.27,559.89 1017.4,556.58 1017.71,553.29C1018.02,549.98 1018.48,546.68 1019.1,543.39C1019.73,540.08 1020.53,536.77 1021.46,533.49C1022.4,530.17 1023.5,526.88 1024.71,523.6C1025.93,520.28 1027.33,516.98 1028.77,513.7C1030.23,510.38 1031.83,507.09 1033.43,503.8C1035.04,500.49 1036.76,497.21 1038.39,493.9C1040.01,490.61 1041.69,487.32 1043.19,484C1044.67,480.72 1046.11,477.44 1047.32,474.11C1048.51,470.84 1049.57,467.53 1050.39,464.21C1051.2,460.93 1051.79,457.62 1052.21,454.31C1052.62,451.02 1052.8,447.71 1052.89,444.41C1052.98,441.11 1052.86,437.81 1052.77,434.51C1052.68,431.21 1052.46,427.92 1052.33,424.62C1052.2,421.32 1052.03,418.02 1052.01,414.72C1051.99,411.42 1052.01,408.12 1052.18,404.82C1052.35,401.52 1052.64,398.21 1053.06,394.92C1053.48,391.61 1054.04,388.32 1054.71,385.03C1055.38,381.72 1056.2,378.42 1057.08,375.13C1057.96,371.82 1058.96,368.52 1059.99,365.23C1061.02,361.92 1062.15,358.63 1063.25,355.33C1064.36,352.03 1065.52,348.73 1066.62,345.43C1067.72,342.14 1068.84,338.85 1069.84,335.54C1070.84,332.25 1071.81,328.95 1072.62,325.64C1073.42,322.35 1074.16,319.05 1074.69,315.74C1075.22,312.45 1075.61,309.14 1075.82,305.84C1076.03,302.55 1076.06,299.25 1075.97,295.95C1075.88,292.65 1075.59,289.35 1075.26,286.05C1074.93,282.75 1074.44,279.45 1073.97,276.15C1073.5,272.85 1072.93,269.55 1072.42,266.25C1071.91,262.95 1071.38,259.65 1070.93,256.35C1070.49,253.06 1070.06,249.76 1069.75,246.46C1069.44,243.16 1069.2,239.86 1069.07,236.56C1068.94,233.26 1068.92,229.96 1068.98,226.66C1069.04,223.36 1069.22,220.06 1069.46,216.76C1069.7,213.46 1070.06,210.16 1070.4,206.86C1070.74,203.56 1071.18,200.27 1071.52,196.97C1071.86,193.67 1072.23,190.37 1072.45,187.07C1072.67,183.77 1072.84,180.47 1072.84,177.17C1072.84,173.87 1072.7,170.56 1072.46,167.27C1072.21,163.97 1071.81,160.67 1071.37,157.38C1070.93,154.08 1070.35,150.78 1069.81,147.48C1069.27,144.18 1068.67,140.88 1068.14,137.58C1067.61,134.28 1067.08,130.98 1066.62,127.68C1066.16,124.38 1065.76,121.08 1065.37,117.78C1064.98,114.48 1064.66,111.19 1064.28,107.89C1063.9,104.59 1063.56,101.29 1063.1,97.99C1062.63,94.69 1062.15,91.38 1061.49,88.09C1060.83,84.78 1060.07,81.47 1059.13,78.19C1058.18,74.87 1057.07,71.57 1055.8,68.3C1054.51,64.97 1053.04,61.67 1051.44,58.4C1049.81,55.07 1048,51.77 1046.12,48.5C1044.21,45.17 1042.14,41.89 1040.08,38.6Q1038,35.29 1033.7,28.7L1007.5,28.7" style="vector-effect: non-scaling-stroke; stroke-width: 2px; stroke: rgb(0, 128, 0); stroke-opacity: 1; fill: rgb(0, 128, 0); fill-opacity: 0.5;"/><path class="meanline" d="M1073.184326171875,271.04H1007.5" style="fill: none; vector-effect: non-scaling-stroke; stroke-width: 3px; stroke-dasharray: 6px, 3px; stroke: rgb(255, 255, 255); stroke-opacity: 1;"/></g><g class="trace violins" style="opacity: 1;"><path class="violin" d="M1162.5,28.7L1096,28.7Q1093.71,41.48 1094.03,47.84C1094.36,54.25 1095.97,60.71 1097.99,66.98C1100.08,73.47 1103.35,79.81 1106.53,86.11C1109.79,92.57 1113.75,98.87 1117.37,105.25C1120.98,111.63 1124.84,117.95 1128.22,124.38C1131.54,130.71 1134.75,137.07 1137.48,143.52C1140.15,149.83 1142.5,156.22 1144.47,162.65C1146.41,168.98 1147.94,175.38 1149.23,181.79C1150.5,188.14 1151.41,194.54 1152.17,200.93C1152.93,207.29 1153.4,213.68 1153.8,220.06C1154.2,226.43 1154.4,232.82 1154.55,239.2C1154.7,245.58 1154.72,251.95 1154.69,258.33C1154.66,264.71 1154.55,271.09 1154.38,277.47C1154.21,283.85 1153.97,290.22 1153.67,296.6C1153.37,302.98 1153,309.36 1152.56,315.74C1152.11,322.12 1151.61,328.51 1151,334.88C1150.39,341.26 1149.71,347.64 1148.91,354.01C1148.11,360.4 1147.23,366.78 1146.22,373.15C1145.21,379.54 1144.08,385.91 1142.83,392.28C1141.58,398.67 1140.21,405.05 1138.73,411.42C1137.24,417.81 1135.63,424.19 1133.93,430.56C1132.23,436.95 1130.39,443.32 1128.53,449.69C1126.66,456.08 1124.67,462.45 1122.74,468.83C1120.81,475.21 1118.78,481.57 1116.93,487.96C1115.09,494.33 1113.21,500.7 1111.68,507.1C1110.16,513.45 1108.7,519.83 1107.75,526.23C1106.81,532.58 1106.1,538.99 1105.99,545.37C1105.88,551.75 1106.22,558.17 1107.1,564.51C1107.99,570.92 1109.49,577.32 1111.34,583.64Q1113.22,590.08 1118.35,602.78L1162.5,602.78" style="vector-effect: non-scaling-stroke; stroke-width: 2px; stroke: rgb(0, 0, 255); stroke-opacity: 1; fill: rgb(0, 0, 255); fill-opacity: 0.5;"/><path class="meanline" d="M1153.6104736328125,297.83H1162.5" style="fill: none; vector-effect: non-scaling-stroke; stroke-width: 3px; stroke-dasharray: 6px, 3px; stroke: rgb(255, 255, 255); stroke-opacity: 1;"/></g><g class="trace violins" style="opacity: 1;"><path class="violin" d="M1162.5,602.78L1195.35,602.78Q1199.48,592.48 1201.1,587.26C1202.69,582.13 1204.07,576.95 1205.01,571.75C1205.94,566.61 1206.5,561.41 1206.76,556.23C1207.02,551.07 1206.86,545.88 1206.56,540.72C1206.26,535.54 1205.61,530.37 1204.95,525.2C1204.29,520.02 1203.41,514.85 1202.59,509.68C1201.77,504.51 1200.87,499.34 1200.05,494.17C1199.23,489 1198.42,483.83 1197.67,478.65C1196.92,473.48 1196.22,468.31 1195.54,463.14C1194.86,457.97 1194.23,452.79 1193.58,447.62C1192.93,442.45 1192.32,437.28 1191.66,432.11C1191,426.94 1190.33,421.76 1189.62,416.59C1188.91,411.42 1188.17,406.25 1187.4,401.08C1186.63,395.91 1185.83,390.73 1185.01,385.56C1184.19,380.39 1183.33,375.22 1182.49,370.05C1181.65,364.88 1180.78,359.7 1179.95,354.53C1179.12,349.36 1178.28,344.18 1177.49,339.01C1176.7,333.84 1175.93,328.67 1175.23,323.5C1174.53,318.33 1173.87,313.16 1173.28,307.98C1172.7,302.81 1172.17,297.64 1171.72,292.47C1171.27,287.3 1170.89,282.12 1170.59,276.95C1170.29,271.78 1170.06,266.61 1169.9,261.44C1169.74,256.27 1169.64,251.09 1169.61,245.92C1169.58,240.75 1169.61,235.58 1169.69,230.41C1169.77,225.24 1169.9,220.06 1170.09,214.89C1170.28,209.72 1170.51,204.54 1170.84,199.37C1171.17,194.2 1171.53,189.02 1172.06,183.86C1172.59,178.68 1173.17,173.5 1174,168.34C1174.83,163.15 1175.78,157.97 1177.06,152.83C1178.36,147.63 1179.87,142.43 1181.75,137.31C1183.67,132.08 1185.94,126.9 1188.5,121.8C1191.14,116.55 1194.21,111.4 1197.4,106.28C1200.66,101.05 1204.36,95.94 1207.86,90.77C1211.36,85.59 1215.2,80.5 1218.41,75.25C1221.52,70.15 1224.75,65.03 1226.86,59.73C1228.87,54.68 1230.57,49.43 1230.97,44.22Q1231.37,39.08 1229.35,28.7L1162.5,28.7" style="vector-effect: non-scaling-stroke; stroke-width: 2px; stroke: rgb(0, 128, 0); stroke-opacity: 1; fill: rgb(0, 128, 0); fill-opacity: 0.5;"/><path class="meanline" d="M1171.1004638671875,284.73H1162.5" style="fill: none; vector-effect: non-scaling-stroke; stroke-width: 3px; stroke-dasharray: 6px, 3px; stroke: rgb(255, 255, 255); stroke-opacity: 1;"/></g></g><g class="scatterlayer mlayer"><g class="trace scatter traced472cc" style="stroke-miterlimit: 2; opacity: 1;"><g class="fills"/><g class="errorbars"/><g class="lines"/><g class="points"/><g class="text"><g class="textpoint" transform="translate(0,13.5)"><text x="77.5" y="6.03" text-anchor="middle" style="font-family: verdana; font-size: 18px; fill: rgb(0, 0, 0); fill-opacity: 1; white-space: pre;">0.844|0.887</text></g><g class="textpoint" transform="translate(0,13.5)"><text x="232.5" y="6.03" text-anchor="middle" style="font-family: verdana; font-size: 18px; fill: rgb(0, 0, 0); fill-opacity: 1; white-space: pre;">0.841|0.862</text></g><g class="textpoint" transform="translate(0,13.5)"><text x="387.5" y="6.03" text-anchor="middle" style="font-family: verdana; font-size: 18px; fill: rgb(0, 0, 0); fill-opacity: 1; white-space: pre;">0.819|0.804</text></g><g class="textpoint" transform="translate(0,13.5)"><text x="542.5" y="6.03" text-anchor="middle" style="font-family: verdana; font-size: 18px; fill: rgb(0, 0, 0); fill-opacity: 1; white-space: pre;">0.812|0.783</text></g><g class="textpoint" transform="translate(0,13.5)"><text x="697.5" y="6.03" text-anchor="middle" style="font-family: verdana; font-size: 18px; fill: rgb(0, 0, 0); fill-opacity: 1; white-space: pre;">0.636|0.621</text></g><g class="textpoint" transform="translate(0,13.5)"><text x="852.5" y="6.03" text-anchor="middle" style="font-family: verdana; font-size: 18px; fill: rgb(0, 0, 0); fill-opacity: 1; white-space: pre;">0.607|0.605</text></g><g class="textpoint" transform="translate(0,13.5)"><text x="1007.5" y="6.03" text-anchor="middle" style="font-family: verdana; font-size: 18px; fill: rgb(0, 0, 0); fill-opacity: 1; white-space: pre;">0.606|0.578</text></g><g class="textpoint" transform="translate(0,13.5)"><text x="1162.5" y="6.03" text-anchor="middle" style="font-family: verdana; font-size: 18px; fill: rgb(0, 0, 0); fill-opacity: 1; white-space: pre;">0.531|0.554</text></g></g></g></g></g><g class="overplot"/><path class="xlines-above crisp" d="M0,0" style="fill: none;"/><path class="ylines-above crisp" d="M0,0" style="fill: none;"/><g class="overlines-above"/><g class="xaxislayer-above"><g class="xtick"><text text-anchor="middle" x="0" y="739" transform="translate(157.5,0)" style="font-family: verdana; font-size: 18px; fill: rgb(0, 0, 0); fill-opacity: 1; white-space: pre; opacity: 1;">RoRoFold</text></g><g class="xtick"><text text-anchor="middle" x="0" y="739" transform="translate(312.5,0)" style="font-family: verdana; font-size: 18px; fill: rgb(0, 0, 0); fill-opacity: 1; white-space: pre; opacity: 1;">Ufold</text></g><g class="xtick"><text text-anchor="middle" x="0" y="739" transform="translate(467.5,0)" style="font-family: verdana; font-size: 18px; fill: rgb(0, 0, 0); fill-opacity: 1; white-space: pre; opacity: 1;">MXfold2</text></g><g class="xtick"><text text-anchor="middle" x="0" y="739" transform="translate(622.5,0)" style="font-family: verdana; font-size: 18px; fill: rgb(0, 0, 0); fill-opacity: 1; white-space: pre; opacity: 1;">ContextFold</text></g><g class="xtick"><text text-anchor="middle" x="0" y="739" transform="translate(777.5,0)" style="font-family: verdana; font-size: 18px; fill: rgb(0, 0, 0); fill-opacity: 1; white-space: pre; opacity: 1;">ContraFold</text></g><g class="xtick"><text text-anchor="middle" x="0" y="739" transform="translate(932.5,0)" style="font-family: verdana; font-size: 18px; fill: rgb(0, 0, 0); fill-opacity: 1; white-space: pre; opacity: 1;">LinearFold</text></g><g class="xtick"><text text-anchor="middle" x="0" y="739" transform="translate(1087.5,0)" style="font-family: verdana; font-size: 18px; fill: rgb(0, 0, 0); fill-opacity: 1; white-space: pre; opacity: 1;">RNAfold</text></g><g class="xtick"><text text-anchor="middle" x="0" y="739" transform="translate(1242.5,0)" style="font-family: verdana; font-size: 18px; fill: rgb(0, 0, 0); fill-opacity: 1; white-space: pre; opacity: 1;">E2Efold</text></g></g><g class="yaxislayer-above"><g class="ytick"><text text-anchor="end" x="79" y="6.3" transform="translate(0,702.78)" style="font-family: verdana; font-size: 18px; fill: rgb(0, 0, 0); fill-opacity: 1; white-space: pre; opacity: 1;">0</text></g><g class="ytick"><text text-anchor="end" x="79" y="6.3" style="font-family: verdana; font-size: 18px; fill: rgb(0, 0, 0); fill-opacity: 1; white-space: pre; opacity: 1;" transform="translate(0,587.96)">0.2</text></g><g class="ytick"><text text-anchor="end" x="79" y="6.3" style="font-family: verdana; font-size: 18px; fill: rgb(0, 0, 0); fill-opacity: 1; white-space: pre; opacity: 1;" transform="translate(0,473.15)">0.4</text></g><g class="ytick"><text text-anchor="end" x="79" y="6.3" style="font-family: verdana; font-size: 18px; fill: rgb(0, 0, 0); fill-opacity: 1; white-space: pre; opacity: 1;" transform="translate(0,358.33)">0.6</text></g><g class="ytick"><text text-anchor="end" x="79" y="6.3" style="font-family: verdana; font-size: 18px; fill: rgb(0, 0, 0); fill-opacity: 1; white-space: pre; opacity: 1;" transform="translate(0,243.52)">0.8</text></g><g class="ytick"><text text-anchor="end" x="79" y="6.3" style="font-family: verdana; font-size: 18px; fill: rgb(0, 0, 0); fill-opacity: 1; white-space: pre; opacity: 1;" transform="translate(0,128.7)">1</text></g></g><g class="overaxes-above"/></g></g><g class="polarlayer"/><g class="smithlayer"/><g class="ternarylayer"/><g class="geolayer"/><g class="funnelarealayer"/><g class="pielayer"/><g class="iciclelayer"/><g class="treemaplayer"/><g class="sunburstlayer"/><g class="glimages"/><defs id="topdefs-35c4a4"><g class="clips"/></defs><g class="layer-above"><g class="imagelayer"/><g class="shapelayer"/></g><g class="infolayer"><g class="g-gtitle"/><g class="g-xtitle"/><g class="g-ytitle" transform="translate(2.837890625,0)"><text class="ytitle" transform="rotate(-90,19.1625,410)" x="19.1625" y="410" text-anchor="middle" style="font-family: verdana; font-size: 22px; fill: rgb(0, 0, 0); opacity: 1; font-weight: normal; white-space: pre;">f1</text></g></g></svg>